<?xml version="1.0" encoding="UTF-8" standalone="no"?><!DOCTYPE svg PUBLIC "-//W3C//DTD SVG 1.1//EN" "http://www.w3.org/Graphics/SVG/1.1/DTD/svg11.dtd"><svg width="25px" height="25px" version="1.1" xmlns="http://www.w3.org/2000/svg" xmlns:xlink="http://www.w3.org/1999/xlink" xml:space="preserve" xmlns:serif="http://www.serif.com/" style="fill-rule:evenodd;clip-rule:evenodd;stroke-linejoin:round;stroke-miterlimit:2;"><g id="Layer_2"><g id="Layer_1-2"><g id="b"><circle cx="12.77" cy="12.27" r="12" style="fill:url(#_Linear1);"/><path d="M18.02,17.05l-4.055,-9.81c-0.142,-0.436 -0.542,-0.738 -1,-0.755l-0.355,-0c-0.457,0.017 -0.858,0.319 -1,0.755l-1.765,4.275l-1.375,-0c-0.397,0.002 -0.724,0.327 -0.73,0.725c0.006,0.398 0.332,0.724 0.73,0.73l0.715,-0l-1.685,4.07c-0.031,0.09 -0.048,0.184 -0.05,0.28c-0.008,0.201 0.064,0.397 0.2,0.545c0.139,0.144 0.335,0.221 0.535,0.21c0.151,-0.002 0.298,-0.051 0.42,-0.14c0.128,-0.095 0.228,-0.223 0.29,-0.37l1.875,-4.59l1.285,-0c0.385,-0.01 0.7,-0.321 0.715,-0.705c-0.005,-0.398 -0.332,-0.723 -0.73,-0.725l-0.69,-0l1.42,-3.57l3.86,9.6c0.065,0.143 0.165,0.269 0.29,0.365c0.122,0.089 0.269,0.138 0.42,0.14c0.201,0.012 0.398,-0.062 0.54,-0.205c0.135,-0.151 0.205,-0.348 0.195,-0.55c0.004,-0.095 -0.015,-0.189 -0.055,-0.275Z" style="fill:white;fill-rule:nonzero;"/></g></g></g><defs><linearGradient id="_Linear1" x1="0" y1="0" x2="1" y2="0" gradientUnits="userSpaceOnUse" gradientTransform="matrix(-19.4,15.52,-15.52,-19.4,22.1402,3.2898)"><stop offset="0" style="stop-color:rgb(182,80,158);stop-opacity:1"/><stop offset="1" style="stop-color:rgb(46,186,198);stop-opacity:1"/></linearGradient></defs></svg>