<?xml version="1.0" encoding="UTF-8" standalone="no"?><!DOCTYPE svg PUBLIC "-//W3C//DTD SVG 1.1//EN" "http://www.w3.org/Graphics/SVG/1.1/DTD/svg11.dtd"><svg width="25px" height="25px" version="1.1" xmlns="http://www.w3.org/2000/svg" xmlns:xlink="http://www.w3.org/1999/xlink" xml:space="preserve" xmlns:serif="http://www.serif.com/" style="fill-rule:evenodd;clip-rule:evenodd;stroke-linejoin:round;stroke-miterlimit:2;"><g id="Layer_2"><g id="Layer_1-2"><circle cx="12.314" cy="12.985" r="11.615" style="fill:rgb(242,227,238);"/><circle cx="12.314" cy="12.985" r="12" style="fill:rgb(217,50,124);"/><path d="M11.849,7.315c-0.142,0.122 -0.243,0.284 -0.29,0.465c-0.075,0.25 -0.5,1.5 -1.045,3.035l3.62,-0c-0.545,-1.545 -0.97,-2.785 -1.045,-3.035c-0.047,-0.181 -0.148,-0.343 -0.29,-0.465c-0.144,-0.105 -0.323,-0.154 -0.5,-0.135c-0.162,-0.013 -0.322,0.035 -0.45,0.135Zm-5.34,3.5l2.455,-0c0.6,-1.76 1.125,-3.23 1.2,-3.5c0.14,-0.459 0.417,-0.864 0.795,-1.16c0.39,-0.292 0.868,-0.443 1.355,-0.43c0.481,-0.016 0.953,0.136 1.335,0.43c0.379,0.294 0.657,0.7 0.795,1.16c0.095,0.27 0.6,1.72 1.2,3.5l2.5,-0c0.382,0.031 0.679,0.354 0.679,0.737c-0,0.384 -0.297,0.707 -0.679,0.738l-11.635,-0c-0.391,-0.014 -0.704,-0.344 -0.695,-0.735c-0.003,-0.39 0.305,-0.719 0.695,-0.74Zm-0,2.905c-0.391,0.013 -0.704,0.344 -0.695,0.735c-0,0.398 0.322,0.727 0.72,0.735l0.965,-0l-0.385,1.125l-0.39,1.12l-0.155,0.425c-0.029,0.08 -0.044,0.165 -0.044,0.25c-0,0.401 0.33,0.732 0.731,0.732c0.307,-0 0.583,-0.194 0.688,-0.482l0.155,-0.425l0.39,-1.12c0.155,-0.465 0.345,-1 0.56,-1.61l6.595,-0c0.195,0.58 0.385,1.145 0.56,1.61l0.385,1.12l0.155,0.425c0.105,0.288 0.38,0.482 0.687,0.482c0.402,-0 0.732,-0.331 0.732,-0.732c-0,-0.085 -0.015,-0.17 -0.044,-0.25l-0.155,-0.425l-0.385,-1.12l-0.39,-1.125l0.97,-0c0.403,-0 0.735,-0.332 0.735,-0.735c-0,-0.403 -0.332,-0.735 -0.735,-0.735l-11.65,-0Zm10.895,4.355l0.68,-0.23l-0.68,0.23Zm-0,-0l-0.675,0.235l0.675,-0.235Zm-10.16,-0l0.675,0.235l-0.675,-0.235Zm-0,-0l-0.68,-0.23l0.68,0.23Z" style="fill:white;fill-rule:nonzero;"/></g></g></svg>