<svg width="24" height="24" viewBox="0 0 24 24" fill="none" xmlns="http://www.w3.org/2000/svg">
<path d="M12 24C18.6274 24 24 18.6274 24 12C24 5.37258 18.6274 0 12 0C5.37258 0 0 5.37258 0 12C0 18.6274 5.37258 24 12 24Z" fill="#2E3148"/>
<path d="M12.0001 18.963C15.8456 18.963 18.963 15.8456 18.963 12.0001C18.963 8.15453 15.8456 5.03711 12.0001 5.03711C8.15452 5.03711 5.03709 8.15453 5.03709 12.0001C5.03709 15.8456 8.15452 18.963 12.0001 18.963Z" fill="#1B1E36"/>
<path d="M12.0247 1.53101C10.7293 1.53101 9.67901 6.22925 9.67901 12.0249C9.67901 17.8205 10.7293 22.5187 12.0247 22.5187C13.32 22.5187 14.3703 17.8205 14.3703 12.0249C14.3703 6.22925 13.32 1.53101 12.0247 1.53101ZM12.1866 21.9265C12.0385 22.1241 11.8904 21.9759 11.8904 21.9759C11.2938 21.2847 10.9956 20.0006 10.9956 20.0006C9.95213 16.6426 10.2005 9.43268 10.2005 9.43268C10.6908 3.70877 11.5829 2.35661 11.8864 2.05641C11.9174 2.02578 11.9582 2.00705 12.0017 2.00354C12.0451 2.00003 12.0884 2.01195 12.1239 2.03721C12.5644 2.34931 12.9338 3.65453 12.9338 3.65453C14.0246 7.70391 13.9259 11.5064 13.9259 11.5064C14.0246 14.815 13.3792 18.5187 13.3792 18.5187C12.8824 21.3334 12.1866 21.9265 12.1866 21.9265Z" fill="#6F7390"/>
<path d="M21.1269 6.80247C20.482 5.6785 15.8845 7.10564 10.8549 9.98967C5.8254 12.8737 2.27763 16.123 2.92208 17.2465C3.56652 18.37 8.16454 16.9433 13.1941 14.0593C18.2236 11.1753 21.7714 7.92596 21.1269 6.80247ZM3.51708 17.0923C3.27017 17.0612 3.32595 16.8583 3.32595 16.8583C3.62883 15.9971 4.59267 15.0993 4.59267 15.0993C6.9872 12.523 13.3651 9.15063 13.3651 9.15063C18.5734 6.7274 20.1912 6.82964 20.6016 6.94263C20.6438 6.95439 20.6804 6.98068 20.705 7.01684C20.7296 7.053 20.7406 7.0967 20.736 7.1402C20.6867 7.6778 19.736 8.6474 19.736 8.6474C16.7684 11.6099 13.4208 13.4168 13.4208 13.4168C10.6001 15.1496 7.0663 16.432 7.0663 16.432C4.37744 17.401 3.51718 17.0923 3.51718 17.0923H3.51708Z" fill="#6F7390"/>
<path d="M21.104 17.2837C21.7539 16.1627 18.2151 12.8986 13.2033 9.99288C8.19142 7.08718 3.59449 5.6424 2.94515 6.7653C2.29581 7.8882 5.83406 11.1504 10.8488 14.0561C15.8635 16.9618 20.4547 18.4067 21.104 17.2837ZM3.37581 7.19844C3.27981 6.97083 3.48246 6.91602 3.48246 6.91602C4.37967 6.74658 5.63995 7.13269 5.63995 7.13269C9.06857 7.91344 15.1823 11.743 15.1823 11.743C19.8894 15.0369 20.6113 16.4877 20.7195 16.8995C20.7305 16.9418 20.7263 16.9865 20.7075 17.0259C20.6887 17.0653 20.6566 17.0968 20.6168 17.1148C20.126 17.3396 18.8114 17.0047 18.8114 17.0047C14.7595 15.9183 11.519 13.9278 11.519 13.9278C8.60749 12.3574 5.72846 9.94114 5.72846 9.94114C3.54083 8.0992 3.37648 7.20094 3.37648 7.20094L3.37581 7.19844Z" fill="#6F7390"/>
<path d="M12 13.2345C12.6818 13.2345 13.2346 12.6818 13.2346 11.9999C13.2346 11.3181 12.6818 10.7654 12 10.7654C11.3182 10.7654 10.7654 11.3181 10.7654 11.9999C10.7654 12.6818 11.3182 13.2345 12 13.2345Z" fill="#B7B9C8"/>
<path d="M17.0617 8.00003C17.4572 8.00003 17.7778 7.66839 17.7778 7.25929C17.7778 6.85019 17.4572 6.51855 17.0617 6.51855C16.6662 6.51855 16.3456 6.85019 16.3456 7.25929C16.3456 7.66839 16.6662 8.00003 17.0617 8.00003Z" fill="#B7B9C8"/>
<path d="M5.30861 10.5186C5.70408 10.5186 6.02467 10.1869 6.02467 9.77785C6.02467 9.36875 5.70408 9.03711 5.30861 9.03711C4.91314 9.03711 4.59254 9.36875 4.59254 9.77785C4.59254 10.1869 4.91314 10.5186 5.30861 10.5186Z" fill="#B7B9C8"/>
<path d="M10.5432 19.605C10.9387 19.605 11.2593 19.2734 11.2593 18.8643C11.2593 18.4552 10.9387 18.1235 10.5432 18.1235C10.1477 18.1235 9.82707 18.4552 9.82707 18.8643C9.82707 19.2734 10.1477 19.605 10.5432 19.605Z" fill="#B7B9C8"/>
</svg>
