<?xml version="1.0" encoding="UTF-8" standalone="no"?><!DOCTYPE svg PUBLIC "-//W3C//DTD SVG 1.1//EN" "http://www.w3.org/Graphics/SVG/1.1/DTD/svg11.dtd"><svg width="25px" height="25px" version="1.1" xmlns="http://www.w3.org/2000/svg" xmlns:xlink="http://www.w3.org/1999/xlink" xml:space="preserve" xmlns:serif="http://www.serif.com/" style="fill-rule:evenodd;clip-rule:evenodd;stroke-linejoin:round;stroke-miterlimit:2;"><g id="Layer_2"><g id="Layer_1-2"><circle cx="12.842" cy="12.199" r="12" style="fill:rgb(232,65,66);"/><path d="M17.077,12.509c0.415,-0.715 1.085,-0.715 1.5,-0l2.59,4.545c0.415,0.72 0.075,1.305 -0.755,1.305l-5.215,-0c-0.825,-0 -1.165,-0.585 -0.76,-1.305l2.64,-4.545Zm-5,-8.75c0.415,-0.715 1.075,-0.715 1.5,-0l0.56,1.04l1.36,2.4c0.329,0.684 0.329,1.481 0,2.165l-4.565,7.9c-0.413,0.641 -1.108,1.049 -1.87,1.095l-3.79,-0c-0.83,-0 -1.17,-0.575 -0.755,-1.305l7.56,-13.295Z" style="fill:white;fill-rule:nonzero;"/></g></g></svg>