<?xml version="1.0" encoding="UTF-8" standalone="no"?><!DOCTYPE svg PUBLIC "-//W3C//DTD SVG 1.1//EN" "http://www.w3.org/Graphics/SVG/1.1/DTD/svg11.dtd"><svg width="25px" height="25px" version="1.1" xmlns="http://www.w3.org/2000/svg" xmlns:xlink="http://www.w3.org/1999/xlink" xml:space="preserve" xmlns:serif="http://www.serif.com/" style="fill-rule:evenodd;clip-rule:evenodd;stroke-linejoin:round;stroke-miterlimit:2;"><g id="Layer_2"><g id="Layer_1-2"><circle cx="12.413" cy="12.831" r="12" style="fill:rgb(141,195,81);"/><path d="M16.313,8.706c-0.6,-1.5 -2.025,-1.575 -3.75,-1.275l-0.6,-2.1l-1.275,0.375l0.6,2.025c-0.3,0.075 -0.675,0.225 -1.05,0.3l-0.6,-2.1l-1.275,0.4l0.6,2.1c-0.3,0.075 -0.525,0.15 -0.825,0.225l-1.725,0.575l0.375,1.35c-0,-0 0.975,-0.3 0.9,-0.3c0.086,-0.04 0.181,-0.06 0.276,-0.06c0.278,-0 0.528,0.174 0.624,0.435l0.675,2.4l0.15,-0l-0.15,0.075l0.975,3.375c0.031,0.262 -0.126,0.513 -0.375,0.6l-0.9,0.3l0.15,1.575l1.65,-0.45l0.9,-0.2l0.6,2.1l1.275,-0.375l-0.6,-2.1c0.359,-0.065 0.711,-0.166 1.05,-0.3l0.6,2.1l1.275,-0.375l-0.6,-2.1c2.1,-0.75 3.45,-1.725 3.075,-3.825c-0.3,-1.65 -1.275,-2.175 -2.625,-2.1c0.75,-0.75 1.05,-1.5 0.6,-2.625l-0,-0.025Zm-0.45,5.125c0.45,1.575 -2.325,2.175 -3.225,2.475l-0.825,-2.875c0.9,-0.225 3.525,-1.275 4.05,0.375l-0,0.025Zm-1.8,-3.85c0.45,1.425 -1.875,1.95 -2.625,2.175l-0.75,-2.55c0.75,-0.225 3,-1.125 3.375,0.375Z" style="fill:white;fill-rule:nonzero;"/></g></g></svg>