<svg width="24" height="24" viewBox="0 0 24 24" fill="none" xmlns="http://www.w3.org/2000/svg">
<circle cx="12" cy="12" r="12" fill="#F3BA2F"/>
<g clip-path="url(#clip0)">
<path d="M8.89267 11.0021L12 7.89481L15.1088 11.0035L16.9168 9.19548L12 4.27881L7.0848 9.19401L8.89274 11.002L8.89267 11.0021ZM4 12.2788L5.80806 10.4705L7.616 12.2784L5.80794 14.0865L4 12.2788ZM8.89267 13.5557L12 16.6628L15.1087 13.5542L16.9177 15.3612L16.9168 15.3622L12 20.2788L7.0848 15.3636L7.08224 15.361L8.89286 13.5555L8.89267 13.5557ZM16.384 12.2796L18.1921 10.4715L20 12.2794L18.192 14.0875L16.384 12.2796Z" fill="white"/>
<path d="M13.8337 12.2777H13.8345L12 10.4431L10.644 11.7987L10.4883 11.9545L10.167 12.2759L10.1644 12.2784L10.167 12.281L12 14.1143L13.8346 12.2797L13.8355 12.2786L13.8339 12.2777" fill="white"/>
</g>
<defs>
<clipPath id="clip0">
<rect width="16.0001" height="16" fill="white" transform="translate(4 4.27881)"/>
</clipPath>
</defs>
</svg>
