<svg width="24" height="24" viewBox="0 0 24 24" fill="none" xmlns="http://www.w3.org/2000/svg">
<path d="M24 12.0005C24 18.6267 18.627 23.999 11.9971 24C5.37206 24 -0.000959639 18.6267 5.14575e-07 11.9995C-0.00191979 5.37238 5.3711 0 11.999 0C18.627 0 24 5.37334 24 12.0005V12.0005Z" fill="#EAB300"/>
<path d="M16.7217 9.06071C16.5671 7.45361 15.1797 6.91503 13.4264 6.76142V4.53125H12.0697V6.7019C11.7135 6.7019 11.3487 6.70862 10.9867 6.7163V4.53125H9.62998L9.62902 6.7595C9.33521 6.76526 9.0462 6.77102 8.76488 6.77102V6.7643L6.89354 6.76334V8.213C6.89354 8.213 7.89594 8.1938 7.87866 8.21204C8.42882 8.21204 8.60741 8.53077 8.65926 8.8063V11.3466C8.69767 11.3466 8.74663 11.3485 8.80232 11.3562H8.65926L8.6583 14.915C8.6343 15.0878 8.53252 15.3634 8.14846 15.3643C8.16574 15.3797 7.16238 15.3643 7.16238 15.3643L6.89258 16.9849H8.65926C8.98763 16.9849 9.31121 16.9906 9.62806 16.9925L9.62902 19.2477H10.9848V17.0165C11.3563 17.0242 11.7164 17.0271 12.0688 17.0271L12.0678 19.2477H13.4245V16.9973C15.7058 16.8668 17.3045 16.2917 17.5023 14.1489C17.6626 12.4237 16.8513 11.6528 15.556 11.3418C16.3443 10.9424 16.8369 10.2368 16.7217 9.06071V9.06071ZM14.8225 13.882C14.8225 15.5669 11.9372 15.3758 11.0164 15.3758V12.3872C11.9372 12.3892 14.8225 12.1252 14.8225 13.882V13.882ZM14.1907 9.6665C14.1907 11.1997 11.7826 11.0201 11.0164 11.0211V8.31188C11.7836 8.31188 14.1917 8.06803 14.1907 9.6665Z" fill="white"/>
<path d="M8.66016 11.2891H8.86179V11.4379H8.66016V11.2891Z" fill="white"/>
</svg>
