<svg width="24" height="24" viewBox="0 0 24 24" fill="none" xmlns="http://www.w3.org/2000/svg">
<circle cx="12" cy="12" r="12" fill="url(#paint0_linear)"/>
<path d="M8.89265 10.7233L12 7.616L15.1088 10.7247L16.9167 8.91667L12 4L7.08479 8.9152L8.89272 10.7232L8.89265 10.7233ZM4 12L5.80806 10.1917L7.61599 11.9996L5.80793 13.8077L4 12ZM8.89265 13.2769L12 16.384L15.1087 13.2754L16.9176 15.0824L16.9167 15.0834L12 20L7.08479 15.0848L7.08223 15.0822L8.89284 13.2767L8.89265 13.2769ZM16.384 12.0008L18.192 10.1927L19.9999 12.0006L18.1919 13.8087L16.384 12.0008Z" fill="white"/>
<path d="M13.8334 11.9987H13.8341L11.9996 10.1641L10.6437 11.5197L10.4879 11.6755L10.1666 11.9968L10.1641 11.9993L10.1666 12.002L11.9996 13.8352L13.8342 12.0006L13.8351 11.9996L13.8335 11.9987" fill="white"/>
<defs>
<linearGradient id="paint0_linear" x1="16.25" y1="21.75" x2="3.5" y2="3" gradientUnits="userSpaceOnUse">
<stop stop-color="#F3BA2F"/>
<stop offset="1" stop-color="#FFCE57"/>
</linearGradient>
</defs>
</svg>
