<?xml version="1.0" encoding="UTF-8" standalone="no"?><!DOCTYPE svg PUBLIC "-//W3C//DTD SVG 1.1//EN" "http://www.w3.org/Graphics/SVG/1.1/DTD/svg11.dtd"><svg width="25px" height="25px" version="1.1" xmlns="http://www.w3.org/2000/svg" xmlns:xlink="http://www.w3.org/1999/xlink" xml:space="preserve" xmlns:serif="http://www.serif.com/" style="fill-rule:evenodd;clip-rule:evenodd;stroke-linejoin:round;stroke-miterlimit:2;"><g id="Layer_2"><g id="Layer_1-2"><circle cx="12.14" cy="12.385" r="12" style="fill:rgb(146,144,176);"/><path d="M7.355,7.23c-0.026,-0.129 -0.04,-0.261 -0.04,-0.394c0,-1.078 0.887,-1.965 1.965,-1.965c1.078,0 1.965,0.887 1.965,1.965c0,0.007 0,0.013 0,0.019l0,2.435c0.28,0 0.565,-0.045 0.845,-0.045c0.266,-0.007 0.532,0.008 0.795,0.045l0,-2.435c0.016,-1.074 0.896,-1.954 1.97,-1.97c1.1,0.02 1.995,0.93 1.995,2.03c-0,0.106 -0.008,0.211 -0.025,0.315l-0.5,2.86c1.815,0.795 3.215,2.2 3.215,3.935l0,1.08c0,1.45 -0.935,2.67 -2.295,3.47c-1.565,0.903 -3.349,1.357 -5.155,1.31c-1.806,0.047 -3.59,-0.406 -5.155,-1.31c-1.315,-0.8 -2.25,-2 -2.25,-3.47l0,-1.08c0,-1.735 1.355,-3.14 3.185,-3.935l-0.515,-2.86Zm8.25,3.235l0.61,-3.375c0.016,-0.084 0.024,-0.169 0.024,-0.255c-0,-0.76 -0.624,-1.386 -1.384,-1.39c-0.746,0 -1.36,0.614 -1.36,1.36l0,3.08c-0.201,-0.037 -0.405,-0.052 -0.61,-0.045c-0.28,0 -0.5,-0.05 -0.795,-0.05c-0.282,-0.008 -0.565,0.009 -0.845,0.05c-0.185,0 -0.42,0.045 -0.61,0.045l0,-3.03c0,-0.001 0,-0.002 0,-0.003c0,-0.74 -0.609,-1.35 -1.35,-1.35c-0.74,0 -1.35,0.61 -1.35,1.35c0,0.096 0.01,0.19 0.03,0.283l0.61,3.375c-1.97,0.75 -3.285,2.065 -3.285,3.565l0,1.075c0,2.3 3.05,4.175 6.8,4.175c3.75,0 6.795,-1.875 6.795,-4.175l0,-1.075c0.05,-1.55 -1.245,-2.86 -3.28,-3.61Z" style="fill:rgb(99,48,1);fill-rule:nonzero;"/><path d="M18.935,15.105c0,2.295 -3.05,4.17 -6.8,4.17c-3.75,0 -6.795,-1.89 -6.795,-4.17l0,-1.08l13.64,0l0,1.08l-0.045,0Z" style="fill:rgb(254,220,144);fill-rule:nonzero;"/><path d="M7.965,7.135c-0.016,-0.084 -0.024,-0.171 -0.024,-0.257c-0,-0.741 0.609,-1.35 1.35,-1.35c0.732,-0 1.337,0.595 1.349,1.327l0,3.09c0.47,-0.045 0.94,-0.09 1.455,-0.09c0.515,0 0.935,0.045 1.405,0.09l0,-3.09c0,-0.746 0.614,-1.36 1.36,-1.36c0.762,0.017 1.379,0.648 1.379,1.41c0,0.077 -0.006,0.154 -0.019,0.23l-0.61,3.375c1.97,0.75 3.33,2.065 3.33,3.565c0,2.295 -3.05,4.17 -6.8,4.17c-3.75,0 -6.8,-1.86 -6.8,-4.17c0,-1.5 1.31,-2.815 3.28,-3.565l-0.655,-3.375Z" style="fill:rgb(209,136,79);fill-rule:nonzero;"/><path d="M10.215,13.745c0,0.61 -0.33,1.125 -0.75,1.125c-0.42,0 -0.75,-0.5 -0.75,-1.125c0,-0.625 0.325,-1.125 0.75,-1.125c0.425,0 0.75,0.515 0.75,1.125Z" style="fill:rgb(99,48,1);fill-rule:nonzero;"/><path d="M15.415,13.745c0,0.61 -0.325,1.125 -0.75,1.125c-0.425,0 -0.75,-0.5 -0.75,-1.125c0,-0.625 0.33,-1.125 0.75,-1.125c0.42,0 0.75,0.515 0.75,1.125Z" style="fill:rgb(99,48,1);fill-rule:nonzero;"/></g></g></svg>