<?xml version="1.0" encoding="UTF-8" standalone="no"?><!DOCTYPE svg PUBLIC "-//W3C//DTD SVG 1.1//EN" "http://www.w3.org/Graphics/SVG/1.1/DTD/svg11.dtd"><svg width="25px" height="25px" version="1.1" xmlns="http://www.w3.org/2000/svg" xmlns:xlink="http://www.w3.org/1999/xlink" xml:space="preserve" xmlns:serif="http://www.serif.com/" style="fill-rule:evenodd;clip-rule:evenodd;stroke-linejoin:round;stroke-miterlimit:2;"><g id="Layer_2"><g id="Layer_1-2"><circle cx="12.364" cy="12.211" r="12" style="fill:white;"/><g id="Page-1"><g id="Celsius_Website_Logo_Filled"><circle id="Oval" cx="18.344" cy="9.556" r="0.58" style="fill:rgb(38,39,97);"/><path id="Shape" d="M12.364,0.211c-6.583,-0 -12,5.417 -12,12c0,6.583 5.417,12 12,12c6.583,-0 12,-5.417 12,-12c0,-6.583 -5.417,-12 -12,-12Zm5.44,17c-1.411,1.561 -3.421,2.452 -5.525,2.45c-4.048,-0.094 -7.326,-3.449 -7.326,-7.498c-0,-3.722 2.77,-6.909 6.456,-7.427c0.289,-0.028 0.58,-0.037 0.87,-0.025c1.66,-0.012 3.277,0.538 4.585,1.56c0.078,0.059 0.125,0.152 0.125,0.25c0.002,0.11 -0.043,0.216 -0.125,0.29l-0.79,0.71c-0.091,0.08 -0.208,0.125 -0.33,0.125c-0.09,-0.003 -0.177,-0.033 -0.25,-0.085c-2.326,-1.611 -5.527,-1.215 -7.39,0.915c-1.078,1.195 -1.579,2.804 -1.37,4.4c0.305,2.582 2.358,4.635 4.94,4.94c0.22,0.034 0.443,0.048 0.665,0.04c1.502,0.006 2.944,-0.592 4,-1.66c0.091,-0.081 0.209,-0.125 0.33,-0.125c0.089,0.009 0.174,0.038 0.25,0.085l0.875,0.58c0.08,0.04 0.12,0.125 0.165,0.25c-0.065,0.064 -0.118,0.141 -0.155,0.225Zm0.56,-5.83c-0.002,-0 -0.003,-0 -0.005,-0c-1.004,-0 -1.83,-0.826 -1.83,-1.83c0,-1.004 0.826,-1.83 1.83,-1.83c1.004,-0 1.83,0.826 1.83,1.83c0,0.001 0,0.003 0,0.005c-0.011,0.997 -0.828,1.814 -1.825,1.825Z" style="fill:rgb(38,39,97);fill-rule:nonzero;"/></g></g></g></g></svg>