<?xml version="1.0" encoding="UTF-8" standalone="no"?><!DOCTYPE svg PUBLIC "-//W3C//DTD SVG 1.1//EN" "http://www.w3.org/Graphics/SVG/1.1/DTD/svg11.dtd"><svg width="25px" height="25px" version="1.1" xmlns="http://www.w3.org/2000/svg" xmlns:xlink="http://www.w3.org/1999/xlink" xml:space="preserve" xmlns:serif="http://www.serif.com/" style="fill-rule:evenodd;clip-rule:evenodd;stroke-linejoin:round;stroke-miterlimit:2;"><g id="Layer_2"><g id="Layer_1-2"><circle cx="12.307" cy="12.91" r="12" style="fill:rgb(0,40,104);"/><path id="Bottom_Ring" d="M10.832,18.09c0.01,0 0.02,0 0.03,0c2.225,0 4.055,-1.83 4.055,-4.055c-0,-2.224 -1.83,-4.055 -4.055,-4.055c-2.224,0 -4.055,1.831 -4.055,4.055c-0,2.213 1.812,4.039 4.025,4.055Zm-0,1.47c-3.029,-0.003 -5.52,-2.496 -5.52,-5.525c0,-3.031 2.494,-5.525 5.525,-5.525c3.031,-0 5.525,2.494 5.525,5.525l-0,0.025c-0,3.017 -2.483,5.5 -5.5,5.5c-0.01,0 -0.02,0 -0.03,-0Z" style="fill:rgb(251,204,92);fill-rule:nonzero;"/><path id="Top_Ring" d="M13.807,15.14c2.225,-0 4.055,-1.831 4.055,-4.055c-0,-2.225 -1.831,-4.055 -4.055,-4.055c-2.225,-0 -4.055,1.83 -4.055,4.055l-0,0.005c-0,2.222 1.828,4.05 4.05,4.05c0.002,-0 0.003,-0 0.005,-0Zm-0,1.475c-0.01,0 -0.02,0 -0.03,0c-3.034,0 -5.53,-2.496 -5.53,-5.53c-0,-3.034 2.496,-5.53 5.53,-5.53c3.034,0 5.53,2.496 5.53,5.53c-0,0.002 -0,0.003 -0,0.005c-0.003,3.02 -2.48,5.509 -5.5,5.525Z" style="fill:rgb(53,208,127);fill-rule:nonzero;"/><path id="Rings_Overlap" d="M13.962,16.615c0.385,-0.464 0.66,-1.009 0.805,-1.595c0.584,-0.147 1.128,-0.42 1.595,-0.8c-0.024,0.676 -0.172,1.342 -0.435,1.965c-0.622,0.265 -1.289,0.411 -1.965,0.43Zm-4.115,-6.5c-0.583,0.145 -1.128,0.417 -1.595,0.795c0.024,-0.676 0.172,-1.342 0.435,-1.965c0.622,-0.265 1.289,-0.411 1.965,-0.43c-0.384,0.461 -0.659,1.003 -0.805,1.585l-0,0.015Z" style="fill:rgb(94,163,59);fill-rule:nonzero;"/></g></g></svg>