<?xml version="1.0" encoding="UTF-8" standalone="no"?><!DOCTYPE svg PUBLIC "-//W3C//DTD SVG 1.1//EN" "http://www.w3.org/Graphics/SVG/1.1/DTD/svg11.dtd"><svg width="25px" height="25px" version="1.1" xmlns="http://www.w3.org/2000/svg" xmlns:xlink="http://www.w3.org/1999/xlink" xml:space="preserve" xmlns:serif="http://www.serif.com/" style="fill-rule:evenodd;clip-rule:evenodd;stroke-linejoin:round;stroke-miterlimit:2;"><g id="Layer_2"><g id="Layer_1-2"><circle cx="12.47" cy="12.878" r="12" style="fill:rgb(27,169,135);"/><path d="M14.31,5.133l-1.27,0.745l-0,6.1l0.695,0.395l-0,-4.66l2.385,1.35l0.46,0.265l0.385,-0.22l-0,-0.365l-3.225,-1.825l-0,-0.65l0.575,-0.33l3.345,1.9l-0,1.69l-1.605,0.905l-0.055,-0.025c-0.092,-0.049 -0.195,-0.075 -0.3,-0.075c-0.384,0 -0.7,0.316 -0.7,0.7c-0,0.382 0.313,0.697 0.695,0.7c0.355,-0.001 0.654,-0.276 0.685,-0.63l-0,-0.065l1.62,-0.915l1.5,0.855l-0,3.77l-1.5,0.855l-6.11,-3.455l-0,-6.27l-1.27,-0.75l-4.035,2.305l-0,2.09l-1.85,1.05l-0,4.6l1.85,1.055l-0,2.095l4.035,2.295l1.27,-0.74l-0,-6.115l-0.69,-0.385l-0,4.675l-2.845,-1.625l-0.39,0.22l-0,0.365l3.23,1.825l-0,0.645l-0.58,0.33l-3.34,-1.895l-0,-1.695l1.605,-0.905l0.055,0.025c0.093,0.046 0.196,0.07 0.3,0.07c0.003,0 0.007,0 0.01,0c0.378,0 0.69,-0.311 0.69,-0.69c-0,0 -0,0 -0,0c-0,-0.382 -0.313,-0.697 -0.695,-0.7c-0.355,0.001 -0.654,0.276 -0.685,0.63l-0,0.065l-1.62,0.915l-1.5,-0.855l-0,-3.79l1.5,-0.855l6.105,3.5l-0,6.245l1.27,0.73l4.04,-2.295l-0,-2.1l1.85,-1.05l-0,-4.6l-1.85,-1.055l-0,-2.075l-4.045,-2.3l0.005,0Zm-7.03,2.705l3.345,-1.895l0.575,0.33l-0,0.635l-3.92,2.22l-0,-1.29Zm0.365,1.895l3.56,-2l-0,4.04l-3.56,-2l-0,-0.04Zm6.095,4.27l3.56,2l-3.56,2l-0,-4Zm-0,5.5l-0,-0.655l3.925,-2.22l-0,1.29l-3.355,1.895l-0.575,-0.33l0.005,0.02Z" style="fill:white;fill-rule:nonzero;"/></g></g></svg>