<?xml version="1.0" encoding="UTF-8" standalone="no"?><!DOCTYPE svg PUBLIC "-//W3C//DTD SVG 1.1//EN" "http://www.w3.org/Graphics/SVG/1.1/DTD/svg11.dtd"><svg width="25px" height="25px" version="1.1" xmlns="http://www.w3.org/2000/svg" xmlns:xlink="http://www.w3.org/1999/xlink" xml:space="preserve" xmlns:serif="http://www.serif.com/" style="fill-rule:evenodd;clip-rule:evenodd;stroke-linejoin:round;stroke-miterlimit:2;"><g id="Layer_2"><g id="Layer_1-2"><circle cx="12.219" cy="12.211" r="12" style="fill:white;"/><path d="M14.459,12.771c0,-0.16 0,-0.24 -0.16,-0.32c-0.56,-0.4 -1.2,-0.8 -1.76,-1.2c-0.121,-0.08 -0.279,-0.08 -0.4,-0l-1.76,1.28c-0.15,0.075 -0.244,0.232 -0.24,0.4c-0.001,0.179 -0.057,0.353 -0.16,0.5c-0.079,0.121 -0.079,0.279 0,0.4c0.64,1.28 1.2,2.56 1.84,3.84c0.24,0.4 0.4,0.88 0.64,1.36c0.08,-0.08 0.08,-0.16 0.16,-0.24c0.72,-1.6 1.36,-3.2 2.08,-4.8c0.08,-0.16 0.08,-0.24 -0.08,-0.32c-0.187,-0.26 -0.246,-0.592 -0.16,-0.9Z" style="fill:rgb(205,1,36);fill-rule:nonzero;"/><path d="M11.719,10.711c-1.6,-1.12 -3.2,-2.24 -4.72,-3.28l-0.08,0.08c0.08,0.16 0.08,0.24 0.16,0.4l1.68,3.6c0.16,0.32 0.24,0.64 0.72,0.72c0.138,0.011 0.277,-0.017 0.4,-0.08c0.5,-0.4 1.04,-0.72 1.5,-1.12l0.34,-0.32Z" style="fill:rgb(205,1,36);fill-rule:nonzero;"/><path d="M12.219,0.211c-6.583,-0 -12,5.417 -12,12c0,6.583 5.417,12 12,12c6.583,-0 12,-5.417 12,-12c0,-6.583 -5.417,-12 -12,-12Zm6.5,6.96c-0.16,-0 -0.24,0.08 -0.32,0.24c-0.64,1.6 -1.36,3.2 -2,4.8l0,0.32c0.065,0.138 0.099,0.29 0.099,0.443c0,0.403 -0.234,0.771 -0.599,0.942l-0.145,0.055c-0.08,-0 -0.16,0.08 -0.24,0.24c-0.72,1.6 -1.44,3.28 -2.08,4.88c-0.079,0.121 -0.079,0.279 0,0.4c0.312,0.422 0.242,1.022 -0.16,1.36c-0.35,0.331 -0.892,0.365 -1.28,0.08c-0.265,-0.169 -0.425,-0.462 -0.425,-0.776c-0,-0.179 0.052,-0.354 0.15,-0.504c0.089,-0.155 0.089,-0.346 0,-0.5c-0.8,-1.6 -1.5,-3.2 -2.32,-4.8c-0.074,-0.165 -0.223,-0.284 -0.4,-0.32c-0.486,-0.09 -0.842,-0.518 -0.842,-1.013c-0,-0.17 0.042,-0.337 0.122,-0.487c0.08,-0.121 0.08,-0.279 0,-0.4c-0.72,-1.6 -1.44,-3.12 -2.24,-4.72c0,-0.08 -0.08,-0.16 -0.32,-0.16c-0.488,-0.059 -0.864,-0.469 -0.88,-0.96c0.03,-0.453 0.307,-0.853 0.72,-1.04c0.443,-0.168 0.947,-0 1.2,0.4c0.08,0.16 0.16,0.16 0.4,0.16l10.18,-0c0.16,-0 0.32,-0 0.4,-0.24c0.223,-0.389 0.701,-0.56 1.12,-0.4c0.404,0.155 0.684,0.529 0.72,0.96c0.006,0.508 -0.36,0.95 -0.86,1.04Z" style="fill:rgb(205,1,36);fill-rule:nonzero;"/><path d="M12.219,10.131c0.121,0.079 0.279,0.079 0.4,-0c1.5,-1.12 3.04,-2.16 4.5,-3.28c0.08,-0.08 0.16,-0.08 0.16,-0.16l0,-0.08l-10.1,-0c0.091,0.035 0.173,0.089 0.24,0.16l4.8,3.36Z" style="fill:rgb(205,1,36);fill-rule:nonzero;"/><path d="M13.019,10.711c0.64,0.5 1.28,0.88 1.92,1.28c0.16,0.08 0.4,-0 0.64,-0c0.08,-0 0.16,-0.16 0.16,-0.24c0.56,-1.28 1.12,-2.64 1.68,-3.92c0,-0.08 0.08,-0.16 0.08,-0.24l-0.08,-0c-1.36,0.94 -2.88,1.98 -4.4,3.12Z" style="fill:rgb(205,1,36);fill-rule:nonzero;"/></g></g></svg>