<?xml version="1.0" encoding="UTF-8" standalone="no"?><!DOCTYPE svg PUBLIC "-//W3C//DTD SVG 1.1//EN" "http://www.w3.org/Graphics/SVG/1.1/DTD/svg11.dtd"><svg width="25px" height="25px" version="1.1" xmlns="http://www.w3.org/2000/svg" xmlns:xlink="http://www.w3.org/1999/xlink" xml:space="preserve" xmlns:serif="http://www.serif.com/" style="fill-rule:evenodd;clip-rule:evenodd;stroke-linejoin:round;stroke-miterlimit:2;"><clipPath id="_clip1"><rect id="COMP.svg" x="0.691" y="0.043" width="23.95" height="24"/></clipPath><g clip-path="url(#_clip1)"><g id="Layer_2"><g id="Layer_1-2"><path d="M12.691,24.043c6.583,0 12,-5.417 12,-12c-0,-6.583 -5.417,-12 -12,-12c-6.583,0 -12,5.417 -12,12c-0,6.583 5.417,12 12,12Z" style="fill:rgb(7,10,14);fill-rule:nonzero;"/><path d="M7.611,16.068c-0.358,-0.218 -0.578,-0.606 -0.58,-1.025l-0,-2.35c-0,-0.274 0.225,-0.5 0.5,-0.5c0.089,0 0.177,0.025 0.255,0.07l5.285,3.08c0.31,0.179 0.501,0.512 0.5,0.87l-0,2.43c-0,0.002 -0,0.004 -0,0.005c-0,0.329 -0.271,0.6 -0.6,0.6c-0,0 -0,0 -0,0c-0.111,-0.002 -0.22,-0.033 -0.315,-0.09l-5.045,-3.09Zm7.87,-4.45c0.306,0.183 0.496,0.513 0.5,0.87l-0,4.925c-0,0.147 -0.079,0.282 -0.205,0.355l-1.16,0.65c-0.015,0.003 -0.03,0.003 -0.045,0l-0,-2.72c-0.001,-0.356 -0.192,-0.686 -0.5,-0.865l-4.625,-2.79l-0,-3.08c-0,-0.274 0.225,-0.5 0.5,-0.5c0.087,0.005 0.171,0.033 0.245,0.08l5.29,3.075Zm2.31,-3.645c0.311,0.18 0.503,0.515 0.5,0.875l-0,7.195c-0.001,0.146 -0.082,0.281 -0.21,0.35l-1.1,0.595l-0,-5c-0.001,-0.356 -0.192,-0.686 -0.5,-0.865l-4.74,-2.85l-0,-2.935c0.001,-0.089 0.023,-0.176 0.065,-0.255c0.089,-0.155 0.254,-0.251 0.433,-0.251c0.09,0 0.179,0.025 0.257,0.071l5.295,3.07Z" style="fill:rgb(0,211,149);fill-rule:nonzero;"/></g></g></g></svg>