<svg width="24" height="24" viewBox="0 0 24 24" fill="none" xmlns="http://www.w3.org/2000/svg">
<path d="M12 0C15.1826 0 18.2348 1.26429 20.4853 3.51472C22.7357 5.76516 24 8.8174 24 12C24 15.1826 22.7357 18.2348 20.4853 20.4853C18.2348 22.7357 15.1826 24 12 24C8.8174 24 5.76516 22.7357 3.51472 20.4853C1.26429 18.2348 0 15.1826 0 12C0 8.8174 1.26429 5.76516 3.51472 3.51472C5.76516 1.26429 8.8174 0 12 0Z" fill="black"/>
<path d="M11.9151 6.74441C9.07001 6.74441 6.74367 9.0863 6.74367 12C6.74367 14.9137 9.07001 17.2556 11.9151 17.2556C14.044 17.2556 15.8814 15.9465 16.6733 14.0623L18.2807 14.7385C17.2306 17.2369 14.7809 19 11.9151 19C8.08495 19 5 15.8549 5 12C5 8.14514 8.08495 5 11.9151 5C14.7187 5 17.1243 6.68762 18.2103 9.09976L16.6204 9.81611C15.8015 7.99721 13.9979 6.74441 11.9151 6.74441Z" fill="white"/>
<path d="M13.2073 12.8349C12.9455 13.2048 12.5144 13.4462 12.0268 13.4462C11.2284 13.4462 10.5812 12.7987 10.5812 12C10.5812 11.2013 11.2284 10.5538 12.0268 10.5538C12.4944 10.5538 12.9101 10.7759 13.1744 11.1203H20V12.8349H13.2073Z" fill="white"/>
</svg>
