<svg width="24" height="24" viewBox="0 0 24 24" fill="none" xmlns="http://www.w3.org/2000/svg">
<path d="M12 0C15.1826 0 18.2348 1.26429 20.4853 3.51472C22.7357 5.76516 24 8.8174 24 12C24 15.1826 22.7357 18.2348 20.4853 20.4853C18.2348 22.7357 15.1826 24 12 24C8.8174 24 5.76516 22.7357 3.51472 20.4853C1.26429 18.2348 0 15.1826 0 12C0 8.8174 1.26429 5.76516 3.51472 3.51472C5.76516 1.26429 8.8174 0 12 0Z" fill="#F5AC37"/>
<path d="M12.4402 12.8466H17.0002C17.1002 12.8466 17.1451 12.8466 17.1501 12.7216C17.1901 12.2574 17.1901 11.7907 17.1501 11.3266C17.1501 11.2366 17.1051 11.2016 17.0101 11.2016H7.93515C7.82515 11.2016 7.79015 11.2366 7.79015 11.3416V12.6766C7.79015 12.8466 7.79015 12.8466 7.97015 12.8466H12.4402ZM16.6452 9.63655C16.6552 9.60397 16.6552 9.56914 16.6452 9.53656C16.5674 9.3706 16.4753 9.21167 16.3701 9.06155C16.2152 8.80741 16.0287 8.5739 15.8152 8.36656C15.7169 8.23743 15.6007 8.12294 15.4702 8.02655C14.8212 7.47346 14.05 7.0827 13.2202 6.88655C12.802 6.7915 12.374 6.74619 11.9452 6.75156H7.92015C7.80515 6.75156 7.79015 6.79656 7.79015 6.89656V9.55655C7.79015 9.66655 7.79015 9.69656 7.93515 9.69656H16.5901C16.5901 9.69656 16.6651 9.69655 16.6801 9.63655H16.6452V9.63655ZM16.6452 14.4066C16.517 14.3967 16.3883 14.3967 16.2601 14.4066H7.94016C7.83016 14.4066 7.79015 14.4065 7.79015 14.5565V17.1616C7.79015 17.2816 7.79016 17.3116 7.94016 17.3116H11.7802C11.9642 17.325 12.1493 17.3132 12.3302 17.2766C12.8878 17.2342 13.4366 17.113 13.9602 16.9165C14.1486 16.8469 14.3309 16.7616 14.5052 16.6616H14.5551C15.456 16.1933 16.1883 15.4557 16.6501 14.5516C16.6501 14.5516 16.7001 14.4416 16.6501 14.4116L16.6452 14.4066ZM6.28516 18.6616V14.5016C6.28516 14.4016 6.28515 14.3866 6.16515 14.3866H4.54015C4.44515 14.3866 4.41016 14.3866 4.41016 14.2666V12.8416H6.15015C6.24515 12.8416 6.28516 12.8416 6.28516 12.7166V11.3065C6.28516 11.2165 6.28515 11.1916 6.16515 11.1916H4.54015C4.44515 11.1916 4.41016 11.1916 4.41016 11.0716V9.75156C4.41016 9.67156 4.41015 9.64656 4.53015 9.64656H6.14516C6.25516 9.64656 6.28516 9.64656 6.28516 9.50656V5.50156C6.28516 5.38156 6.28515 5.35156 6.43515 5.35156H12.0602C12.4679 5.36632 12.8741 5.41144 13.2751 5.48656C14.1004 5.64168 14.8934 5.93586 15.6201 6.35655C16.1007 6.63274 16.5442 6.96876 16.9402 7.35655C17.2372 7.66575 17.5065 8.00036 17.7451 8.35655C17.9794 8.71684 18.1755 9.10059 18.3302 9.50156C18.3399 9.55203 18.3687 9.59681 18.4106 9.6266C18.4525 9.6564 18.5043 9.66892 18.5551 9.66156H19.8952C20.0702 9.66156 20.0701 9.66155 20.0751 9.82655V11.0565C20.0751 11.1765 20.0302 11.2066 19.9102 11.2066H18.8752C18.7702 11.2066 18.7402 11.2066 18.7502 11.3416C18.7902 11.7973 18.7902 12.2558 18.7502 12.7116C18.7502 12.8416 18.7502 12.8566 18.8902 12.8566H20.0751C20.1301 12.9216 20.0751 12.9915 20.0751 13.0565C20.0851 13.1446 20.0851 13.2335 20.0751 13.3216V14.2266C20.0751 14.3566 20.0402 14.3916 19.9252 14.3916H18.5002C18.452 14.3838 18.4027 14.3944 18.362 14.4213C18.3212 14.4481 18.292 14.4893 18.2802 14.5366C17.9438 15.4152 17.4041 16.2017 16.7052 16.8316C16.451 17.0616 16.1839 17.277 15.9052 17.4766C15.6052 17.6466 15.3102 17.8266 15.0052 17.9766C14.4383 18.2298 13.8445 18.4176 13.2352 18.5366C12.656 18.6396 12.0684 18.6882 11.4801 18.6815H6.28516V18.6616Z" fill="#FEFEFD"/>
</svg>
