<svg width="24" height="24" viewBox="0 0 24 24" fill="none" xmlns="http://www.w3.org/2000/svg">
<circle cx="12" cy="12" r="12" fill="#008DE4"/>
<g clip-path="url(#clip0)">
<path d="M14.4792 5.50537H8.65447L8.17142 8.20424L13.4289 8.21047C16.0187 8.21047 16.7823 9.15165 16.7604 10.7099C16.748 11.5077 16.402 12.8603 16.2525 13.2997C15.8535 14.4684 15.0339 15.7991 11.9611 15.796L6.85003 15.7929L6.36853 18.4949H12.1808C14.2314 18.4949 15.1009 18.2549 16.0265 17.831C18.074 16.8805 19.2926 14.861 19.7819 12.2245C20.5065 8.29774 19.6027 5.50537 14.4792 5.50537Z" fill="white"/>
<path d="M6.14102 10.6445C4.61395 10.6445 4.39579 11.6387 4.25243 12.2402C4.06233 13.0255 4 13.3465 4 13.3465H9.96494C11.492 13.3465 11.7102 12.3524 11.8535 11.7509C12.0436 10.9655 12.106 10.6445 12.106 10.6445H6.14102Z" fill="white"/>
</g>
<defs>
<clipPath id="clip0">
<rect width="16" height="12.9895" fill="white" transform="translate(4 5.50537)"/>
</clipPath>
</defs>
</svg>
