<?xml version="1.0" encoding="UTF-8" standalone="no"?><!DOCTYPE svg PUBLIC "-//W3C//DTD SVG 1.1//EN" "http://www.w3.org/Graphics/SVG/1.1/DTD/svg11.dtd"><svg width="25px" height="25px" version="1.1" xmlns="http://www.w3.org/2000/svg" xmlns:xlink="http://www.w3.org/1999/xlink" xml:space="preserve" xmlns:serif="http://www.serif.com/" style="fill-rule:evenodd;clip-rule:evenodd;stroke-linejoin:round;stroke-miterlimit:2;"><g id="Layer_2"><g id="Layer_1-2"><circle cx="12.116" cy="12.762" r="12" style="fill:rgb(7,10,14);"/><g id="Laag_3"><g id="Layer_1-2-2"><path id="_Pad_" d="M11.396,14.067l2.96,0c1.097,0 2,-0.903 2,-2c-0,-1.097 -0.903,-2 -2,-2l-0.95,0l-2.025,-1.755l2.96,0c0.003,0 0.006,0 0.009,0c2.054,0 3.745,1.691 3.745,3.745c-0,1.526 -0.933,2.906 -2.349,3.475l2.37,2.04l-2.68,0l-4.04,-3.505Z" style="fill:url(#_Linear1);fill-rule:nonzero;"/><path id="_Pad_2_" serif:id="_Pad_2" d="M12.846,11.832l-2.96,0c-1.097,0 -2,0.903 -2,2c-0,1.097 0.903,2 2,2l0.95,0l2,1.755l-2.95,0c-0.01,0 -0.02,0 -0.031,0c-2.057,0 -3.75,-1.692 -3.75,-3.75c0,-1.533 0.941,-2.919 2.366,-3.485l-2.355,-2.03l2.685,0l4.045,3.51Z" style="fill:rgb(73,113,250);fill-rule:nonzero;"/><path id="_Pad_3_" serif:id="_Pad_3" d="M12.846,11.832l-2.96,0c-1.097,0 -2,0.903 -2,2c-0,1.097 0.903,2 2,2l0.95,0l2,1.755l-2.95,0c-0.01,0 -0.02,0 -0.031,0c-2.057,0 -3.75,-1.692 -3.75,-3.75c0,-1.533 0.941,-2.919 2.366,-3.485l-2.355,-2.03l2.685,0l4.045,3.51Z" style="fill:url(#_Linear2);fill-rule:nonzero;"/></g></g></g></g><defs><linearGradient id="_Linear1" x1="0" y1="0" x2="1" y2="0" gradientUnits="userSpaceOnUse" gradientTransform="matrix(6.71,0,0,6.71,11.3959,12.9473)"><stop offset="0" style="stop-color:rgb(98,208,201);stop-opacity:1"/><stop offset="1" style="stop-color:rgb(125,226,172);stop-opacity:1"/></linearGradient><linearGradient id="_Linear2" x1="0" y1="0" x2="1" y2="0" gradientUnits="userSpaceOnUse" gradientTransform="matrix(6.715,0,0,6.715,6.13594,12.9573)"><stop offset="0" style="stop-color:rgb(50,104,251);stop-opacity:1"/><stop offset="1" style="stop-color:rgb(71,149,250);stop-opacity:1"/></linearGradient></defs></svg>