<svg width="24" height="24" viewBox="0 0 24 24" fill="none" xmlns="http://www.w3.org/2000/svg">
<circle cx="12" cy="12" r="12" fill="#006AD2"/>
<path d="M5.52708 9.01332H13.9233C13.9233 9.01332 16.8214 8.98565 14.8171 12.8033C14.8171 12.8033 13.3546 15.791 9.72521 15.7357L11.6807 10.6344C11.7043 10.5739 11.7133 10.5085 11.7068 10.4438C11.7003 10.379 11.6785 10.3168 11.6434 10.2624C11.6083 10.2081 11.5608 10.1632 11.5051 10.1317C11.4493 10.1001 11.3869 10.0828 11.3232 10.0811L8.75016 10.0369L5.5 18.1147C5.5 18.1147 6.58339 18.2254 7.17925 18.1701L6.85424 19H8.38723C8.42974 19.0003 8.47131 18.9872 8.50623 18.9624C8.54114 18.9377 8.5677 18.9025 8.58224 18.8617L8.8585 18.1147L9.50854 18.0594L9.12935 19H10.6244C10.6794 19.0004 10.7333 18.9837 10.7788 18.952C10.8242 18.9204 10.8592 18.8754 10.879 18.8229L11.2961 17.7275C11.2961 17.7275 15.8464 16.9529 17.9048 13.1906C17.9048 13.1906 20.6674 8.81967 17.4173 7.27049C16.7838 6.97383 16.1065 6.78685 15.413 6.71721L15.7922 5.76004C15.8037 5.73164 15.8082 5.70079 15.8054 5.6702C15.8025 5.6396 15.7923 5.61018 15.7758 5.58453C15.7592 5.55887 15.7367 5.53775 15.7103 5.52301C15.6839 5.50828 15.6544 5.50038 15.6243 5.5H14.2213L13.7879 6.66188H13.1921L13.5279 5.76004C13.5382 5.73117 13.5417 5.70019 13.538 5.66969C13.5343 5.63918 13.5235 5.61002 13.5065 5.5846C13.4896 5.55919 13.467 5.53827 13.4406 5.52355C13.4141 5.50884 13.3847 5.50077 13.3546 5.5H11.9462L11.5128 6.66188H7.13592C7.01829 6.66148 6.90275 6.69369 6.80163 6.75508C6.70051 6.81646 6.6176 6.90472 6.56172 7.01045L5.52708 9.01332Z" fill="white"/>
</svg>
