<svg width="24" height="24" viewBox="0 0 24 24" fill="none" xmlns="http://www.w3.org/2000/svg">
<path d="M12 24C18.6274 24 24 18.6274 24 12C24 5.37258 18.6274 0 12 0C5.37258 0 0 5.37258 0 12C0 18.6274 5.37258 24 12 24Z" fill="#988430"/>
<path d="M12 23.6155C18.4151 23.6155 23.6156 18.415 23.6156 11.9999C23.6156 5.58476 18.4151 0.384277 12 0.384277C5.58486 0.384277 0.384369 5.58476 0.384369 11.9999C0.384369 18.415 5.58486 23.6155 12 23.6155Z" fill="#7A6A2A"/>
<path d="M12 23.3709C18.2799 23.3709 23.3708 18.28 23.3708 12C23.3708 5.72006 18.2799 0.62915 12 0.62915C5.72001 0.62915 0.629089 5.72006 0.629089 12C0.629089 18.28 5.72001 23.3709 12 23.3709Z" fill="#BA9F33"/>
<path fill-rule="evenodd" clip-rule="evenodd" d="M5.24662 10.7185C5.17865 10.6564 5.10684 10.5942 5.04079 10.5321C4.97474 10.47 4.9069 10.4078 4.83894 10.3457L4.63695 10.1537C4.60393 10.1207 4.56898 10.0917 4.53596 10.0585C4.50294 10.0294 4.46415 9.99642 4.43113 9.96724C4.1631 9.7129 3.89353 9.45857 3.62921 9.2041C3.903 9.4546 4.17103 9.7033 4.44482 9.95751L4.53993 10.0527C4.57295 10.0856 4.6079 10.1148 4.64092 10.1478L4.84278 10.3342C4.91074 10.3963 4.97679 10.4585 5.04476 10.5262C5.11273 10.5939 5.17878 10.6563 5.24674 10.7182L5.24662 10.7185ZM1.68937 10.6801C1.68937 10.6801 2.66409 10.7809 3.13986 10.8489C3.58057 10.9111 4.95926 11.1227 4.95926 11.1227L1.68937 10.6801ZM1.68937 10.6801C1.96316 10.7034 2.23695 10.7324 2.51074 10.7616C2.65052 10.7752 2.78454 10.7907 2.91855 10.8042L3.12425 10.8277C3.19222 10.8373 3.25826 10.847 3.32623 10.8567L4.14185 10.9868L4.54953 11.0547C4.68354 11.078 4.81756 11.1034 4.95734 11.1267C4.82332 11.1131 4.68354 11.0936 4.54953 11.0742L4.14185 11.0159L3.32623 10.8956C3.25826 10.8859 3.19222 10.8722 3.12425 10.8626L2.91842 10.8389C2.78441 10.8253 2.64463 10.8059 2.51062 10.7903C2.23682 10.7574 1.96303 10.7223 1.68924 10.6797L1.68937 10.6801ZM4.86223 11.3766C4.86223 11.3766 3.82146 11.6408 3.46998 11.7418C3.12438 11.8369 2.07772 12.1554 2.07772 12.1554L4.8621 11.3768L4.86223 11.3766Z" fill="#CFB66C"/>
<path fill-rule="evenodd" clip-rule="evenodd" d="M4.86215 11.3765C4.63111 11.4444 4.40135 11.5105 4.16698 11.5727L3.47181 11.7591C3.24077 11.827 3.01101 11.8931 2.78061 11.961L2.43501 12.0561C2.32045 12.0892 2.20397 12.1182 2.08557 12.1514C2.2 12.113 2.31661 12.0737 2.43117 12.0407L2.77677 11.9301C3.00781 11.8581 3.23757 11.7902 3.46797 11.7184C3.70285 11.6601 3.93402 11.5979 4.1689 11.5416C4.39213 11.4853 4.62714 11.4291 4.86215 11.3766V11.3765ZM2.22343 12.796C2.33786 12.7532 3.65831 12.1378 3.96512 11.9941C4.11872 11.9221 4.56519 11.7637 4.56519 11.7637L2.22343 12.796Z" fill="#CFB66C"/>
<path fill-rule="evenodd" clip-rule="evenodd" d="M2.22343 12.7962C2.32429 12.7578 2.41952 12.7108 2.51655 12.6661L2.80391 12.5321L3.38067 12.2545C3.57267 12.1632 3.7593 12.0625 3.95731 11.9768C4.05831 11.9341 4.1593 11.8992 4.26016 11.8662L4.41376 11.8177C4.46611 11.8041 4.51475 11.7885 4.56736 11.7749C4.37536 11.8662 4.17325 11.9439 3.98099 12.0331C3.78899 12.1283 3.59264 12.206 3.3945 12.2914L2.80813 12.5495C2.61127 12.6293 2.41927 12.7146 2.2233 12.7962H2.22343ZM2.35143 13.3338C2.35143 13.3338 3.54746 12.6329 3.9591 12.4076C4.17466 12.2873 4.87175 11.9416 4.87175 11.9416L2.35143 13.3338Z" fill="#CFB66C"/>
<path fill-rule="evenodd" clip-rule="evenodd" d="M2.35153 13.3341C2.55339 13.2098 2.75921 13.0836 2.96503 12.9555L3.27223 12.769C3.37706 12.7069 3.47805 12.6486 3.58493 12.5866C3.68976 12.5244 3.79076 12.4623 3.89751 12.404C3.94833 12.3727 4.00157 12.3454 4.05674 12.3225L4.21981 12.241C4.43536 12.1361 4.65091 12.0293 4.87811 11.938C4.67229 12.0682 4.46058 12.1789 4.24899 12.2933C4.14416 12.3516 4.03728 12.404 3.93245 12.4623C3.82762 12.5205 3.72663 12.5827 3.61975 12.639C3.51492 12.7011 3.41393 12.7594 3.30717 12.8157L2.99063 12.9885L2.35179 13.3341H2.35153ZM4.86211 12.0952C4.86211 12.0952 4.11843 12.6661 3.87767 12.8486C3.6369 13.0311 2.92817 13.5437 2.92817 13.5437L4.86211 12.0952Z" fill="#CFB66C"/>
<path fill-rule="evenodd" clip-rule="evenodd" d="M9.13006 16.699L8.74951 15.9786L8.97082 15.0776L10.5495 14.468L9.87758 13.0894L10.2096 11.6972L10.833 10.4504L12.7593 10.1476L14.1747 8.7981L17.2311 9.02914L17.831 12.2971L16.6757 16.4117L16.0175 18.5418L13.3495 18.6428L12.1107 17.7846L10.6602 17.1786L9.13006 16.699Z" fill="#E2CC85"/>
<path fill-rule="evenodd" clip-rule="evenodd" d="M13.8097 16.6757C13.8097 16.6757 13.4406 16.8447 12.8113 16.8058C12.6291 16.5612 11.3535 16.4466 11.3535 16.4466C11.3535 16.4466 11.1943 16.3981 10.9127 16.5146C10.6293 16.6298 10.3612 16.6156 10.1107 16.6777C9.86025 16.7397 9.61155 16.4136 9.41955 16.3456C9.22755 16.2738 8.97296 16.101 8.97296 16.101L8.43537 16.0485L7.35582 15.5922L5.64076 13.8835L5.17472 14.6131L5.03098 15.5161L5.5495 16.586L6.94559 17.8578L9.66787 18.549L11.2814 18.0736L13.3028 17.2192L13.8097 16.6756V16.6757Z" fill="#F1D789"/>
<path fill-rule="evenodd" clip-rule="evenodd" d="M4.13783 10.637L4.48343 9.59052L4.89522 8.91468L6.22131 8.80396L5.82323 9.96517L4.71461 11.938L5.17477 13.6992L4.35927 14.1069L4.10865 13.7225L3.90679 12.8409L3.89322 11.8506L4.13783 10.637Z" fill="#F4ECB4"/>
<path fill-rule="evenodd" clip-rule="evenodd" d="M5.62519 16.604L5.37085 16.2487C5.37085 16.2487 5.30288 16.0797 5.3418 15.9321C5.3802 15.7826 5.37469 15.7729 5.35536 15.7166C5.33604 15.6602 5.17284 15.4661 5.18256 15.299C5.19216 15.1301 5.169 15.0738 5.29316 14.9399C5.4232 14.8098 5.38442 14.5845 5.38442 14.5845L5.55338 14.6894L5.59178 14.6311C5.59178 14.6311 5.65386 14.6796 5.65386 14.7554C5.66743 14.6506 5.61111 14.1651 5.73924 14.0545C5.86736 13.9439 6.09456 14.5729 6.09456 14.5729L5.95479 13.6602L5.59549 12.7244L4.95664 11.87L4.91824 10.9282V10.8467C4.91824 10.8467 4.625 11.2972 4.54346 11.6531C4.48522 11.8977 4.625 12.1948 4.59594 12.5463C4.57252 12.8958 4.54346 12.8686 4.62884 13.0071C4.71421 13.1456 4.92208 13.4304 4.84055 13.6362C4.76874 13.813 4.524 13.6887 4.524 13.6887C4.524 13.6887 4.47549 13.8323 4.40944 13.8848C4.38615 13.7994 4.36093 13.745 4.31434 13.6928C4.31037 13.7258 4.30077 13.7705 4.30077 13.7705C4.30077 13.7705 4.25802 13.6364 4.21527 13.4675C4.15716 13.2423 4.09495 12.9452 4.03863 12.786C4.01533 12.8773 3.95709 13.1549 3.95709 13.1549L3.99012 13.5822L4.14935 14.1685L4.30295 14.5525L4.45245 15.0224L4.58237 15.3381L4.6872 15.5788L4.77847 16.1207L5.21917 16.5866L5.45418 16.6915L5.62493 16.6041L5.62519 16.604Z" fill="#F3E19D"/>
<path fill-rule="evenodd" clip-rule="evenodd" d="M4.36883 9.78253C4.36883 9.78253 4.05228 10.3201 3.96115 10.8621C3.87001 11.404 3.78834 11.9767 3.84594 12.7145C3.90418 13.4583 4.01491 13.9145 4.10425 14.2408C4.25785 14.7826 4.65568 15.536 4.65568 15.536L4.66925 15.5068C4.60238 15.3801 4.54901 15.2466 4.51001 15.1087C4.45753 14.9029 4.43808 14.6583 4.38956 14.5476C4.34681 14.437 4.275 14.3418 4.24006 14.2058C4.20704 14.0758 4.20166 13.87 4.10028 13.7166C4.05753 13.6544 4.00505 13.4913 3.98956 13.3283C3.97011 13.0835 3.99929 12.8097 3.97599 12.5846C3.93324 12.2098 3.90418 11.9555 3.94297 11.7592C3.98175 11.563 4.18387 11.006 4.30816 10.5632C4.38969 10.2797 4.34105 10.0408 4.49056 9.79418C4.64006 9.54957 4.73146 9.33402 4.76435 9.18452C4.80275 9.04858 4.36832 9.78253 4.36832 9.78253H4.36883Z" fill="#F2E8B0"/>
<path fill-rule="evenodd" clip-rule="evenodd" d="M5.86998 9.56689C5.86998 9.56689 5.70691 9.61553 5.62921 9.70091C5.55151 9.78244 5.51849 9.85041 5.41365 9.98826C5.30882 10.1261 5.30293 10.2388 5.21743 10.4116C5.13205 10.5805 4.94363 10.8348 4.92033 10.9261C4.89704 11.0174 4.85825 11.4445 4.80974 11.6465C4.76699 11.8485 4.85825 12.097 4.85825 12.097L4.96885 12.0736C4.96885 12.0736 4.96885 12.2173 5.07957 12.3145C5.19016 12.4096 5.20962 11.9921 5.20962 11.9921L5.62319 10.596L6.24643 10.1727L6.3144 9.83095L5.86972 9.56689H5.86998Z" fill="#F5EEC0"/>
<path fill-rule="evenodd" clip-rule="evenodd" d="M6.17282 10.2C6.17282 10.2 5.87958 10.2193 5.73596 10.3243C5.67772 10.3669 5.65443 10.4019 5.59235 10.4543C5.47779 10.5495 5.36118 10.6369 5.30499 10.7615C5.24279 10.8857 5.17482 11.0741 5.12823 11.4295C5.10877 11.579 5.10877 11.7168 5.0952 11.8373C5.07575 12.0003 5.04669 12.1304 5.06218 12.2213C5.08164 12.4076 5.27389 12.5048 5.29258 12.7164L5.69065 12.5145L6.06543 11.0367L6.86157 10.5375L6.41102 10.0327L6.17231 10.1991L6.17282 10.2Z" fill="#E6DB9D"/>
<path fill-rule="evenodd" clip-rule="evenodd" d="M4.07267 20.1509C4.07433 20.1363 4.076 20.1217 4.07766 20.1067C4.13577 19.6075 4.14563 19.2292 4.18825 18.9922C4.25033 18.6564 4.29309 18.5314 4.28336 18.4057C4.26979 18.2039 4.2543 18.0563 4.27376 17.9009C4.30281 17.6951 4.5048 17.4505 4.49904 17.2815C4.49507 17.1475 4.4271 17.0602 4.36886 16.9787C4.31062 16.8971 4.26403 16.8292 4.26403 16.8292C4.26403 16.8292 4.66211 16.5554 4.65827 15.4524C4.6664 15.4547 4.67422 15.458 4.68157 15.4621L4.87767 16.0193L5.01168 16.1824L5.52625 17.1416L6.1884 17.7844L7.16696 18.4426L7.7806 19.1104L7.84268 20.891L7.04076 21.9318L6.90943 22.1696C5.86605 21.6458 4.90928 20.9649 4.07254 20.1508L4.07267 20.1509Z" fill="#E5CB7A"/>
<path fill-rule="evenodd" clip-rule="evenodd" d="M6.52234 21.8543C6.52234 21.8543 6.53591 21.633 6.71843 21.4892C6.74762 21.5377 6.76695 21.5845 6.76119 21.6193C6.79421 21.5612 7.02525 21.1883 7.54762 21.0912C8.06998 20.9961 8.19619 20.6155 8.19619 20.6155L9.3048 19.6078L10.5728 18.4408L12.1145 17.899L12.835 17.7222C12.835 17.7222 12.8486 17.7747 12.8215 17.8912C12.9553 17.8816 13.2524 17.8136 13.5612 17.7048C13.6855 17.6563 13.8021 17.6368 13.8641 17.7009C13.9554 17.7863 13.969 17.9883 13.9747 18.1086C14.1242 18.0756 14.297 17.932 14.4355 17.9456C14.657 17.9689 14.8531 18.2291 15.0784 18.2291C15.3754 18.2291 15.5093 18.0465 15.7172 17.9028C15.8415 17.8174 16.02 17.7108 16.121 17.6387C16.3618 17.462 18.9094 16.6833 18.9094 16.6833L19.8026 16.7416L19.9463 17.7008L19.8695 20.2083C19.86 20.2174 19.8506 20.2269 19.841 20.236L15.7798 22.3571L10.1504 23.2201C8.88935 23.014 7.67245 22.5955 6.55152 21.9822L6.52272 21.8542L6.52234 21.8543Z" fill="#D8C173"/>
<path fill-rule="evenodd" clip-rule="evenodd" d="M4.41412 20.4698C4.49412 20.3025 4.56606 20.1626 4.57873 20.1125C4.58872 20.2134 4.60702 20.4347 4.64388 20.67C4.56649 20.6042 4.4899 20.5374 4.41412 20.4697V20.4698Z" fill="#F1D789"/>
<path fill-rule="evenodd" clip-rule="evenodd" d="M8.52629 22.8298L9.25436 22.6273L9.31644 22.6468C9.31644 22.6468 9.34946 22.6662 9.34946 22.7322C9.44072 22.6798 9.51842 22.6894 9.57474 22.6546C9.6038 22.7167 9.63285 22.9225 9.76111 22.9477C9.895 22.9769 10.0387 22.8895 10.1844 22.7789C10.328 22.6643 10.4916 22.5206 10.6154 22.4623C10.6608 22.5458 10.701 22.6321 10.7358 22.7205C10.8989 22.5905 11.1824 22.0623 11.5863 22.0719C11.703 21.7961 11.898 21.5605 12.1472 21.3943C12.522 21.14 12.7568 21.1205 13.0501 21.1438C13.1666 20.9925 13.3101 20.8641 13.4734 20.7652C13.5219 20.7846 13.6559 20.8662 13.823 20.7885C13.9919 20.7109 14.1821 20.4098 14.4326 20.3711C14.5676 20.3525 14.7049 20.3813 14.821 20.4526C14.821 20.4526 15.5506 19.7282 16.054 19.4875C16.0346 19.4292 15.9958 19.2098 16.586 18.7243C16.619 18.7535 16.5957 18.835 16.619 18.8395C16.6286 18.8395 16.7726 18.7774 16.9549 18.6375C17.1802 18.4687 17.45 18.2919 17.6131 18.2434C17.9203 18.1522 18.2462 18.3385 18.2462 18.3385C18.2739 18.3191 18.3047 18.3046 18.3374 18.2958C18.415 18.2822 18.4713 18.2725 18.5141 18.2574C18.5102 18.3584 18.5665 18.5312 18.5141 18.6807C18.5749 18.7149 18.6392 18.7422 18.7061 18.7622C18.6732 18.834 18.6012 19.0165 18.4809 19.104C18.5818 19.1525 18.5953 19.2088 18.7391 19.2576C18.6808 19.3391 18.5855 19.479 18.543 19.5648C18.5002 19.656 18.3468 20.0347 18.2788 20.1783C18.207 20.322 18.11 20.5861 18.0632 20.6391C18.0165 20.6921 17.8477 20.9167 17.7176 21.0273C17.8328 20.9846 18.3041 20.8409 18.5041 20.7865C18.4446 20.8738 18.1429 21.3215 17.8528 21.7519C16.4641 22.5843 14.9139 23.1111 13.3055 23.2973C11.6972 23.4835 10.0676 23.3248 8.52539 22.8317L8.52629 22.8298Z" fill="#E0CD81"/>
<path fill-rule="evenodd" clip-rule="evenodd" d="M6.22071 10.1476C6.22071 10.1476 6.05188 10.1476 6.01885 10.1709C5.98583 10.1942 6.18782 10.2429 6.2499 10.2662C6.31198 10.2895 6.446 10.3962 6.48094 10.4817C6.51397 10.5633 7.69454 11.0389 7.69454 11.0389L8.52951 10.9962L8.81739 10.5985L8.26979 10.1188L8.6538 8.98682L8.14512 9.06835L6.92179 9.79795L6.30814 10.033L6.22071 10.1476Z" fill="#DFC57C"/>
<path fill-rule="evenodd" clip-rule="evenodd" d="M8.05435 10.5223C8.06642 10.5418 8.08342 10.5579 8.10364 10.5688C8.12386 10.5797 8.14659 10.5851 8.16955 10.5844C8.34235 10.5844 8.50145 10.6271 8.5675 10.7144C8.67822 10.8543 8.98504 11.3009 8.98504 11.3009L9.71899 11.565L9.76635 10.7007L8.96443 10.1436L8.05179 10.4794V10.5222H8.05384L8.05435 10.5223Z" fill="#E5CC7C"/>
<path fill-rule="evenodd" clip-rule="evenodd" d="M7.91039 10.8428C7.91039 10.8428 8.04428 10.8525 8.21324 10.7903C8.3822 10.7281 8.65983 10.5942 8.78028 10.6467C8.94911 10.7185 8.91417 10.9438 9.09682 11.1459C9.20742 11.2702 9.4094 11.2663 9.52396 11.4004C9.63852 11.5344 10.0326 11.4722 10.0326 11.4722L10.1821 12.2786L9.5822 13.0476L9.38598 14.0029H8.57471L7.83359 13.7088L7.46854 12.8256L7.65106 11.9325L7.91039 10.8428Z" fill="#D2C281"/>
<path fill-rule="evenodd" clip-rule="evenodd" d="M9.47968 10.8814C9.4998 10.8876 9.52071 10.8909 9.54176 10.8911C9.51847 10.9106 9.46983 10.9532 9.48928 11.0639C9.50874 11.1746 9.57082 11.3144 9.51847 11.3998C9.56026 11.4455 9.59143 11.4999 9.60973 11.559C9.64276 11.6542 9.65248 11.7415 9.86791 11.7552C9.83682 11.7744 9.80815 11.7972 9.78253 11.8232C9.78253 11.8232 9.93204 11.9532 10.0078 12.0736C10.0854 12.0702 10.2912 12.0062 10.2912 12.0062L10.334 12.0354L10.4252 11.997C10.4252 11.997 10.3398 11.964 10.4019 11.7563C10.4602 11.5737 10.5126 11.5835 10.5171 11.5699C10.5216 11.5563 10.5599 11.3641 10.5599 11.2864C10.5889 11.1855 10.6122 10.8787 10.6122 10.8787L10.5501 10.2011L10.2007 9.98938L9.91655 9.71509L9.64851 10.2199L9.472 10.3959L9.45844 10.8328L9.47968 10.8814Z" fill="#E2C270"/>
<path fill-rule="evenodd" clip-rule="evenodd" d="M10.3204 10.3147C10.3204 10.3147 10.3825 10.4913 10.4059 10.6272C10.4141 10.6008 10.4187 10.5734 10.4194 10.5457C10.4194 10.5457 10.468 10.8137 10.4776 10.9245C10.497 10.9205 10.516 10.9147 10.5203 10.9341C10.5247 10.9534 10.5689 11.1691 10.5587 11.2894C10.6396 11.156 10.7515 11.0441 10.8849 10.9632C10.9625 10.9146 11.0538 10.8622 11.149 10.8583C11.2985 10.8544 11.4072 10.9535 11.5859 10.9535C12.0169 10.9535 12.4073 10.637 12.6946 10.5399C12.9062 10.468 13.0888 10.4157 13.2169 10.299C13.2791 10.2467 13.3898 10.1302 13.4907 9.95728C13.6247 9.72688 13.7645 9.52631 13.9044 9.50109C13.8411 9.51272 13.7767 9.51727 13.7124 9.51466C13.7124 9.51466 13.7551 9.47191 13.8276 9.41367C13.9 9.35543 13.9868 9.28362 14.111 9.28362C14.3324 9.28362 14.443 9.31652 14.5673 9.31652C14.6916 9.31268 14.7634 9.28362 14.7634 9.28362C14.7634 9.28362 14.8936 9.37488 15.1867 9.37488C15.4799 9.37872 15.676 9.40394 15.8295 9.41764C15.983 9.43133 16.4974 9.37489 16.645 9.37924C16.7412 9.38295 16.8357 9.40606 16.9227 9.44721L16.447 8.06481L14.7379 6.57104L13.7204 7.29143L12.1553 8.85648L10.6408 9.41764L10.3242 9.77297V10.3147H10.3204Z" fill="#CCB360"/>
<path fill-rule="evenodd" clip-rule="evenodd" d="M13.7185 9.52219C13.7185 9.52219 13.7612 9.47956 13.8329 9.42132C13.9046 9.36308 13.9923 9.29115 14.1164 9.29115C14.3378 9.29115 14.4485 9.32417 14.5728 9.32417C14.6971 9.32033 14.7689 9.29115 14.7689 9.29115C14.7689 9.29115 14.8992 9.38228 15.1922 9.38228C15.4854 9.38612 15.6815 9.41134 15.835 9.42491C15.9885 9.43847 16.5029 9.38228 16.6505 9.38651C16.7467 9.39013 16.8411 9.41325 16.9281 9.45447L16.7126 8.83111L16.4622 8.35547L15.7476 7.57287C15.7476 7.57287 14.89 7.06804 14.8834 7.0642C14.8796 7.06036 14.5863 6.98267 14.5863 6.98267L13.8096 7.45255L13.1048 9.27591L13.0913 9.65991L13.5475 9.87547C13.662 9.68347 13.7884 9.52987 13.9068 9.51041C13.7999 9.52206 13.7184 9.52206 13.7184 9.52206L13.7185 9.52219Z" fill="#D5B457"/>
<path fill-rule="evenodd" clip-rule="evenodd" d="M13.7088 9.65252C13.6408 9.65636 13.5846 9.64279 13.569 9.59428C13.5108 9.43121 13.4642 9.40791 13.4154 9.40791C13.3667 9.40791 13.3009 9.51274 13.2618 9.52234C13.2228 9.53194 13.1764 9.40202 13.1764 9.40202L13.1337 9.38257C13.1337 9.38257 12.8832 9.54564 12.7066 9.7379C12.5299 9.93015 12.2405 10.2564 12.1105 10.3145C11.9804 10.3726 11.5337 10.3922 11.3809 10.4253C11.228 10.4583 11.0586 10.569 11.0353 10.5942C11.012 10.6194 11.1034 10.6466 11.1169 10.6718C11.1305 10.6951 10.9673 10.6854 10.9537 10.7102C10.9441 10.7296 10.9921 10.8402 11.0159 10.8966C11.0576 10.8758 11.1033 10.8646 11.1498 10.8635C11.2993 10.8597 11.4081 10.9588 11.5867 10.9588C12.0178 10.9588 12.4081 10.6422 12.6954 10.5451C12.9071 10.4733 13.0897 10.4208 13.2178 10.3043C13.2799 10.2519 13.3906 10.1353 13.4916 9.96254C13.5653 9.84414 13.6372 9.73342 13.7092 9.65188L13.7088 9.65252Z" fill="#D2B257"/>
<path fill-rule="evenodd" clip-rule="evenodd" d="M7.52639 19.2623C7.52639 19.2623 7.48799 19.1186 7.13215 18.7477C7.03116 18.6429 6.96908 18.5557 6.90111 18.4934C6.73215 18.334 6.63307 18.2914 6.51275 18.2001C6.24869 18.004 5.96132 18.004 5.74001 17.7633C5.5187 17.5225 5.26078 17.0625 5.08157 16.5923C4.90493 16.1224 4.85629 15.9729 4.85629 15.9593C4.85629 15.9458 4.90493 15.8545 4.96701 15.8681C5.02909 15.8816 5.02909 16.002 5.04471 16.0311C5.07564 16.0788 5.11072 16.1236 5.14954 16.165C5.24081 16.27 5.37086 16.3954 5.4369 16.5826C5.42334 16.4233 5.36894 16.2467 5.36894 16.2467C5.36894 16.2467 5.7107 16.4623 6.0019 16.6874C6.29515 16.9127 6.41547 16.9904 6.5011 17.134C6.58674 17.2776 6.78847 17.6564 6.88511 17.7671C6.98175 17.8778 8.30592 18.2952 8.30592 18.2952L8.93581 18.7649L9.24852 19.4503L9.00378 19.8343L8.53389 19.9353L7.77075 19.5936L7.52639 19.2622V19.2623Z" fill="#D2B159"/>
<path fill-rule="evenodd" clip-rule="evenodd" d="M5.83099 16.9009C5.83099 16.9009 5.99022 17.1552 6.37857 17.396C6.72814 17.6077 7.28148 17.8 7.77479 17.9145C8.05818 17.9825 8.3417 18.0349 8.59603 18.0388C9.28147 18.0484 9.75327 17.8525 10.3378 17.7883C10.6544 17.7553 11.0427 17.7301 11.4466 17.6347C11.965 17.5104 12.2718 17.3705 12.6893 17.1739C12.9922 17.0342 13.2699 16.9293 13.4951 16.7953C13.8116 16.6089 14.0426 16.4012 14.3107 16.3391C14.2777 16.4304 14.2427 16.5934 13.9786 16.7624C14.1184 16.7584 14.3107 16.7488 14.3107 16.7488C14.3107 16.7488 14.1243 16.8594 13.7961 17.108C13.5941 17.2616 13.3262 17.5216 13.0524 17.6944C12.8757 17.8051 12.6834 17.8864 12.5572 17.9527C12.25 18.1216 12.1261 18.207 11.9243 18.4135C11.9961 18.4096 12.002 18.4135 12.002 18.4135C12.002 18.4135 11.7475 18.4465 11.5651 18.5435C11.5267 18.5435 11.4601 18.53 11.3437 18.563C11.2524 18.592 11.1319 18.6582 11.0078 18.693C10.831 18.7455 10.7729 18.7222 10.7729 18.7222L10.802 18.7805C10.802 18.7805 10.5716 18.7765 10.4948 18.7843C10.5083 18.7881 10.5045 18.794 10.5045 18.794C10.491 18.7963 10.478 18.8009 10.4661 18.8076C10.4291 18.8315 10.3885 18.8492 10.3458 18.8599C10.3225 18.8638 10.303 18.8638 10.2738 18.8697C10.2836 18.893 10.3593 19.0233 10.3943 19.1001C10.3652 19.1195 9.92824 19.4496 9.92824 19.4496C9.9418 19.471 9.95288 19.4938 9.96127 19.5176C9.97484 19.5602 9.98072 19.6224 9.99429 19.6515C10.0272 19.7097 10.0466 19.7195 10.0466 19.7195C10.0466 19.7195 9.99429 19.7292 9.9029 19.7525C9.82533 19.7719 9.7301 19.8048 9.5957 19.8243C9.55447 19.8297 9.51298 19.8329 9.47142 19.834C9.49087 19.8768 9.57625 20.0398 9.41894 20.2281C9.26163 20.4164 9.21311 20.4438 9.1646 20.5641C9.14018 20.5457 9.11418 20.5294 9.08691 20.5155C9.03455 20.4922 8.96262 20.4574 8.9374 20.4107C8.9227 20.4729 8.90323 20.5339 8.87916 20.5932C8.83065 20.7232 8.75884 20.8515 8.74528 20.9485C8.6928 20.8903 8.59577 20.7757 8.46176 20.799C8.32774 20.8223 8.22099 21.0048 8.1977 21.0573C8.1977 21.0243 8.1744 20.9991 8.16864 21.0379C8.16467 21.0806 8.09095 21.5271 7.6793 21.8883C7.67546 21.797 7.67546 21.595 7.66573 21.5291C7.62733 21.5675 7.58036 21.6242 7.30068 21.7447C7.02689 21.865 7.07028 21.9854 7.07028 21.9854C7.07028 21.9854 7.04699 21.7934 7.19457 21.5912C7.34407 21.3894 7.43533 21.2941 7.43533 21.2786C7.43292 21.2629 7.42619 21.2481 7.41588 21.2359C7.39642 21.2164 7.35764 21.1931 7.35764 21.1776C7.38093 21.168 7.61197 21.0573 7.59841 20.8281C7.58484 20.6224 7.49754 20.5155 7.43533 20.4398C7.42573 20.4301 7.52673 20.3583 7.51303 20.335C7.5033 20.3214 7.37914 20.2301 7.36353 20.1814C7.3672 20.1524 7.37371 20.1238 7.38298 20.096C7.39655 20.0533 7.40628 20.0241 7.40244 19.995C7.39271 19.9465 7.34023 19.8125 7.32474 19.799C7.33831 19.8028 7.43533 19.799 7.43533 19.799C7.43533 19.799 7.35777 19.6747 7.34407 19.6164C7.33038 19.5582 7.30132 19.4047 7.28583 19.3757C7.31886 19.3795 7.40039 19.3853 7.40039 19.3757C7.40436 19.3465 7.32858 19.298 7.36199 19.2605C7.38529 19.2643 7.42996 19.2838 7.47258 19.3382C7.44929 19.2759 7.4105 19.1556 7.32884 19.1071C7.36724 19.0935 7.4978 19.0585 7.61236 19.1264C7.72692 19.1944 7.76596 19.2895 7.76596 19.2895C7.76596 19.2895 7.83392 19.342 7.93888 19.4197C8.0592 19.5148 8.21254 19.6501 8.45728 19.7458C8.50976 19.775 8.64365 19.775 8.7408 19.7556C8.7831 19.7455 8.82365 19.7291 8.86112 19.707C8.87464 19.6991 8.88897 19.6926 8.90387 19.6876C8.88299 19.6457 8.85899 19.6054 8.83206 19.5671C8.86508 19.5671 8.90387 19.5711 8.90387 19.5711C8.90387 19.5711 8.92716 19.5186 8.82233 19.4175C8.84563 19.3942 8.87481 19.3791 8.87481 19.3398C8.84179 19.336 8.78355 19.2875 8.76998 19.268C8.78931 19.2544 8.81849 19.2098 8.85152 19.1962C8.82233 19.1729 8.75052 19.0758 8.7175 19.0662C8.74905 19.0544 8.77957 19.0401 8.80876 19.0234C8.80876 19.0234 8.64569 18.9806 8.59321 18.9457C8.54073 18.9073 8.46317 18.8409 8.41658 18.8214C8.36794 18.802 8.28256 18.7924 8.24762 18.7534C8.28051 18.7632 8.33299 18.7534 8.3719 18.7534C8.40096 18.7534 8.41466 18.7573 8.42426 18.7573C8.42042 18.7437 8.42042 18.7145 8.49619 18.7049C8.53264 18.6994 8.56801 18.6883 8.60102 18.6719C8.60102 18.6719 8.52909 18.6681 8.44742 18.5904C8.36576 18.5127 8.29792 18.4506 8.25133 18.4409C8.20282 18.4311 8.11155 18.4739 8.05523 18.4699C7.97754 18.4603 7.94451 18.4214 7.94451 18.4214C7.94451 18.4214 7.68634 18.4447 7.11354 18.0953C6.61832 17.7923 6.40277 17.5244 6.40277 17.5244C6.35642 17.5076 6.31162 17.4868 6.26888 17.4622C6.08251 17.3652 5.82421 17.1632 5.83202 16.899L5.83099 16.9009Z" fill="#C2A44D"/>
<path fill-rule="evenodd" clip-rule="evenodd" d="M12.9746 5.24647C13.0196 5.26107 13.0595 5.28799 13.0899 5.32417C13.1811 5.429 13.2394 5.62702 13.0316 5.83873C13.1131 5.86779 13.1468 5.87713 13.218 5.86779C13.1462 5.95329 12.9831 6.13582 12.9734 6.29505C12.9636 6.4251 13.0452 6.46401 13.0452 6.46401C13.0452 6.46401 12.9209 6.60763 12.9151 6.84801C12.9738 6.78182 13.0381 6.72076 13.1071 6.66548C13.2509 6.55092 13.4489 6.42087 13.5829 6.33934C13.5811 6.37351 13.5857 6.40772 13.5965 6.4402C13.5965 6.4402 13.8469 6.23438 14.0573 6.32577C14.1524 6.36852 14.1096 6.50241 14.1096 6.50241C14.1096 6.50241 14.2398 6.4539 14.3311 6.54516C14.4223 6.63643 14.5514 6.87182 14.6175 6.96308C14.6466 7.00583 14.7224 7.08737 14.8 7.21358C14.9059 7.39027 14.9944 7.57689 15.0641 7.77076C15.068 7.66977 15.0932 7.51259 15.3807 7.61153C15.6681 7.71252 15.9942 7.92423 16.268 8.34113C16.5418 8.75803 16.6096 9.22868 16.7475 9.40788C16.8873 9.58068 17.031 9.86804 17.0407 9.98849C17.0505 10.1089 16.998 10.4972 17.2854 11.5477C17.3669 11.2215 17.4912 10.4972 17.4912 10.4972L17.5592 9.85831L17.6369 7.88161L15.5727 6.16679L13.9591 4.99585L12.9086 5.09684L12.9745 5.24635L12.9746 5.24647Z" fill="#CAA13E"/>
<path fill-rule="evenodd" clip-rule="evenodd" d="M16.8097 8.18842C16.8097 8.18842 16.7805 7.99642 16.2952 7.67002C15.8097 7.34771 15.431 7.34771 15.0816 7.07392C14.8136 6.85837 14.534 6.36314 14.352 6.20006C14.1752 6.03891 14.1462 5.57287 14.1462 5.57287L14.7423 5.07366L15.6288 3.79226L16.3782 2.96704L16.7374 3.46624L17.2366 4.05261L17.5142 5.22931L17.6152 6.95168L16.8088 8.18854L16.8097 8.18842Z" fill="#B59544"/>
<path fill-rule="evenodd" clip-rule="evenodd" d="M17.4098 10.2527C17.4245 9.99151 17.3922 9.72979 17.3146 9.47997C17.1866 9.08189 16.9069 8.37508 16.777 8.11037C16.7245 7.81712 16.7634 7.79383 16.8197 7.7608C16.876 7.72778 17.0877 7.6072 17.2037 7.18416C17.3197 6.76112 17.6795 6.7473 17.6795 6.7473L17.9008 6.58423L18.2368 7.42493L18.5299 8.18423L18.6212 8.76484L18.6892 9.25994L18.5299 10.3066L17.7436 11.0173L17.4097 10.2527H17.4098Z" fill="#C89D3A"/>
<path fill-rule="evenodd" clip-rule="evenodd" d="M6.43701 21.9185V21.897C6.45335 21.8868 6.46778 21.8738 6.47964 21.8586C6.4932 21.8392 6.50306 21.8159 6.51266 21.8101C6.53212 21.8004 6.62338 21.7717 6.67189 21.7809C6.7204 21.7901 6.84866 21.843 6.91663 21.8391C7.0564 21.8353 7.21948 21.7284 7.47778 21.7771C7.86613 21.8489 7.9574 22.1129 8.18268 22.2625C8.33628 22.3674 8.49525 22.3207 8.51855 22.3207H8.5709C8.58063 22.3207 8.65244 22.2392 8.69135 22.2431C8.76904 22.247 8.77672 22.3111 8.82524 22.3149C8.9398 22.3285 9.16124 22.2567 9.27196 22.2859C9.30479 22.2962 9.33464 22.3142 9.35898 22.3385C9.38332 22.3629 9.40142 22.3927 9.41173 22.4255C9.43503 22.4973 9.41557 22.5886 9.35925 22.6411C9.23893 22.7517 9.12437 22.8566 9.10108 22.9483C9.13071 22.9709 9.15916 22.995 9.18632 23.0205C8.22558 22.7757 7.30121 22.4056 6.43701 21.9197V21.9185Z" fill="#CEB052"/>
<path fill-rule="evenodd" clip-rule="evenodd" d="M16.7767 18.0389C16.7767 18.0389 17.0796 17.635 17.1845 17.435C17.2894 17.2288 16.8525 14.6176 16.8525 14.6176L17.7302 11.7419L17.7068 10.806C17.7068 10.806 17.7495 9.94184 17.8505 9.56706C17.971 9.78261 18.3458 10.0428 18.4273 10.1807C18.4657 9.9165 18.5961 9.35931 18.5768 8.76514C18.6486 8.87573 18.8214 9.98843 18.8214 9.98843L18.9942 10.7379L19.2195 11.534L19.47 12.3749L19.6195 12.9555L19.7049 13.0952L19.7768 13.3399L19.8448 13.604L20.0409 14.2234L20.1561 14.7321L20.2474 15.6545C20.2672 15.7251 20.2815 15.7972 20.2901 15.87C20.294 15.971 20.2766 16.0293 20.2766 16.0468C20.2766 16.0643 20.3096 16.2681 20.296 16.4216C20.2766 16.5752 20.2766 16.6954 20.1561 16.8056C20.0357 16.9158 19.96 17.5745 19.96 17.5745L19.7445 17.4309C19.7445 17.4309 19.7872 17.2346 19.6862 17.0561C19.5852 16.8775 19.3891 16.8405 19.2784 16.8697C19.1678 16.893 18.9465 16.9278 18.8745 16.99C18.8066 17.0521 18.6397 17.2444 18.4862 17.3318C18.2942 17.447 17.9813 17.4561 17.8144 17.4949C17.6455 17.5333 17.4591 17.6485 17.2629 17.7822C17.109 17.8818 16.9466 17.9675 16.7775 18.0382L16.7767 18.0389Z" fill="#CCA847"/>
<path fill-rule="evenodd" clip-rule="evenodd" d="M16.7767 22.2816C16.7767 22.2816 16.7895 22.2899 16.8142 22.3035C18.1937 21.6571 19.4298 20.741 20.4494 19.6091C20.4383 19.2161 20.4238 18.8133 20.4079 18.664C20.375 18.3475 20.3983 18.0252 20.3886 17.8388C20.3789 17.6524 20.274 16.8932 20.2255 16.6971C20.1731 16.501 20.0719 16.4038 20.0566 16.4038C20.043 16.4078 19.9613 16.7728 19.9613 16.8646C19.9613 16.9564 19.9419 17.1773 19.9419 17.2336C19.9283 17.2297 19.9226 17.1952 19.9226 17.1812C19.9031 17.2297 19.8798 17.3152 19.8701 17.3249C19.8603 17.3346 19.8836 17.2434 19.8701 17.2239C19.8565 17.2044 19.8317 17.2142 19.8371 17.1657C19.8394 17.1369 19.8439 17.1084 19.8506 17.0803C19.8506 17.0803 19.7924 17.1657 19.7498 17.3831C19.707 17.5987 19.707 17.6046 19.6915 17.6239C19.678 17.6473 19.6003 17.7249 19.5963 17.7541C19.5924 17.8064 19.6682 17.8589 19.674 17.888C19.6778 17.9366 19.606 18.1618 19.5827 18.272C19.5594 18.3822 19.5692 18.5981 19.5443 18.7088C19.5249 18.8098 19.5059 18.8681 19.4395 18.9107C19.488 18.9204 19.5346 18.934 19.5346 18.934C19.5346 18.934 19.6026 19.2213 19.4298 19.4661C19.3677 19.5515 19.3522 19.5904 19.2861 19.6681C19.156 19.8117 19.055 19.9753 19.0452 20.0816C19.0385 20.0502 19.034 20.0184 19.0317 19.9864C19.0317 19.9864 18.8298 20.2214 18.7443 20.3554C18.6337 20.5282 18.4803 20.5185 18.4371 20.5612C18.394 20.604 18.3846 20.6816 18.3987 20.7438C18.3603 20.7534 18.2881 20.7671 18.2395 20.9166C18.2162 20.9941 18.1579 21.0702 18.0667 21.1224C17.9754 21.1746 17.8647 21.1904 17.8084 21.2039C17.8569 21.2175 17.8764 21.2175 17.8996 21.233C17.8706 21.2815 17.7366 21.3573 17.5871 21.4544C17.4376 21.5457 17.3656 21.6796 17.3288 21.767C17.2904 21.8485 17.2337 21.901 17.1424 21.9108C17.1808 21.934 17.2376 21.9883 17.2667 22.0059C17.2239 22.0156 17.1515 22.0156 17.0221 22.1263C16.8861 22.2389 16.8395 22.272 16.7773 22.2817L16.7767 22.2816Z" fill="#C39D3C"/>
<path fill-rule="evenodd" clip-rule="evenodd" d="M14.0749 23.1814C14.1492 23.1293 14.2298 23.0866 14.3146 23.0543C14.6175 22.934 14.9379 22.9107 15.0641 22.8719C15.1845 22.8335 15.2796 22.7805 15.4291 22.7515C15.4252 22.7855 15.4218 22.8175 15.4183 22.8477C14.9775 22.9863 14.5286 23.0977 14.0742 23.1814H14.0749Z" fill="#D2BA6B"/>
<path fill-rule="evenodd" clip-rule="evenodd" d="M19.6608 15.2156C19.6608 15.2156 19.5987 15.5514 19.488 15.7631C19.3773 15.9749 19.2576 16.268 19.2576 16.268C19.2583 16.2019 19.2661 16.1361 19.2809 16.0717C19.1411 16.1533 18.8013 16.3495 18.7049 16.4368C18.6136 16.5183 18.4601 16.6621 18.4214 16.7301C18.5126 16.4622 18.6077 16.2214 18.6233 16.1107C18.4836 16.2117 17.831 16.7495 17.4913 17.1048L16.433 17.9612C16.3109 18.027 16.1851 18.0859 16.0563 18.1375C15.8739 18.2151 15.6584 18.2812 15.4991 18.3434C15.5419 18.2288 15.6097 18.1277 15.7049 18.0307C15.8059 17.9356 16.1088 17.6074 16.1554 17.4547C16.1981 17.2954 16.2079 17.2003 16.1515 17.0663C16.0991 17.0799 15.9787 17.0858 15.8972 17.1091C15.8157 17.1324 15.7282 17.2197 15.7282 17.2197C15.7282 17.2197 15.7903 16.8643 15.9243 16.5285C15.8233 16.5323 15.6505 16.5613 15.6505 16.5613C15.6505 16.5613 15.8913 16.1575 16.3033 15.876C16.1772 15.9029 16.0537 15.9412 15.9344 15.9905C15.6937 16.0915 15.4296 16.241 15.2335 16.3225C15.3441 16.1689 16.1208 15.0604 16.583 14.0273C17.0438 12.9963 17.216 12.7322 17.317 12.1789C17.3693 11.9051 17.3554 11.5005 17.3693 11.1381C17.3829 10.7788 17.4276 10.4565 17.3985 10.241C17.5188 10.3905 17.9694 10.8118 17.9849 11.7537C17.9984 12.6954 17.5539 13.9673 17.082 14.6526C17.1972 14.6856 17.4957 14.7245 17.8024 14.1918C18.109 13.6591 18.1053 13.5103 18.216 13.2889C18.2296 13.3996 18.2256 13.4384 18.2256 13.4384C18.2256 13.4384 18.6724 12.8967 18.884 12.2151C18.9267 12.5084 19.0529 12.7667 18.8548 13.3045C18.6781 13.7899 18.4471 13.9084 18.4471 13.9084C18.4471 13.9084 18.5616 13.889 18.7305 13.788C18.7597 13.8598 18.7539 13.9416 18.8024 13.9705C18.8509 13.9994 18.917 14.0482 18.9267 14.0948C18.9791 14.0171 19.0606 13.918 19.0859 13.8443C19.0665 13.9979 19.0529 14.6695 19.1243 15.0113C19.274 14.9977 19.4273 14.988 19.5321 14.718C19.4603 14.9822 19.4603 15.1413 19.5088 15.3666C19.5885 15.3123 19.6603 15.2152 19.6603 15.2152L19.6608 15.2156Z" fill="#C0993A"/>
<path fill-rule="evenodd" clip-rule="evenodd" d="M14.6155 4.51255C14.6155 4.51255 14.466 4.57463 14.2117 4.57463C13.9904 4.57463 14.0525 4.48926 13.7069 4.48926C13.1749 4.48926 11.3166 4.79646 10.9903 4.79211C10.7786 4.78827 11.7048 4.88337 11.7048 4.88337L14.0719 4.91639L14.5476 4.87799L14.7243 4.51831L14.6155 4.51255Z" fill="#A88F33"/>
<path fill-rule="evenodd" clip-rule="evenodd" d="M8.47776 9.13992C8.47776 9.13992 8.17478 9.37096 8.04666 9.54773C7.91853 9.7245 7.85056 9.84085 7.7049 9.98459C7.73909 9.9859 7.77325 9.98131 7.80589 9.97103C7.80589 9.97103 7.80589 10.0094 7.78259 10.0195C7.80272 10.0173 7.8231 10.0196 7.84224 10.0262C7.86137 10.0329 7.87878 10.0437 7.89318 10.0579C7.85043 10.0812 7.73395 10.1978 7.82522 10.3357C7.89318 10.4405 8.03693 10.4501 8.03693 10.4501C8.03693 10.4501 8.0039 10.5454 8.14176 10.5356C8.43885 10.5221 8.77088 10.3919 8.92422 10.4249C9.07782 10.4633 9.16512 10.4774 9.27379 10.6658C9.38899 10.8522 9.48934 10.8814 9.48934 10.8814C9.48934 10.8814 9.55731 10.7084 9.54182 10.4503C9.59755 10.3111 9.62844 10.1632 9.63309 10.0134L9.53209 9.26971L9.09139 8.7124L8.52051 9.02895L8.47776 9.13954V9.13992Z" fill="#E3C571"/>
<path fill-rule="evenodd" clip-rule="evenodd" d="M9.01938 9.02904C9.01938 9.02904 9.06213 9.13004 9.24082 9.13964C9.22136 9.18239 9.22136 9.18828 9.22725 9.22117C9.23109 9.2542 9.23685 9.30271 9.23685 9.30271C9.25652 9.29319 9.2743 9.28018 9.28933 9.26431C9.29906 9.30706 9.2796 9.3749 9.28933 9.42354C9.29533 9.45312 9.3051 9.48181 9.31839 9.50892C9.32122 9.50227 9.32447 9.49582 9.32811 9.48959C9.33195 9.47986 9.36651 9.59442 9.46213 9.68159C9.46205 9.66818 9.46535 9.65498 9.47173 9.64319C9.4732 9.66754 9.48125 9.69103 9.49503 9.71116C9.48787 9.70775 9.48134 9.70316 9.4757 9.69759C9.4757 9.69759 9.4853 10.0048 9.53778 10.1636C9.54655 10.1534 9.55435 10.1423 9.56107 10.1306C9.56107 10.121 9.55723 10.2161 9.54751 10.2842C9.53394 10.3522 9.54367 10.4473 9.54367 10.4473C9.57867 10.4197 9.61715 10.3969 9.6581 10.3793C9.71634 10.3559 9.8117 10.2841 9.86981 10.1249C9.90352 10.0347 9.92952 9.9418 9.94751 9.84722C9.96628 9.88336 9.97924 9.92224 9.98591 9.96242C9.98987 10.0109 10.0811 9.98572 10.0811 9.98572L10.1006 9.774L10.2158 9.29439L10.3206 8.9973L10.8255 8.211L11.7376 7.50853L12.5337 7.69106L13.2055 6.77842L12.0482 6.08325L10.9531 6.19781L9.95915 7.57445L9.16312 8.82309L9.01938 9.02892V9.02904Z" fill="#D8B65B"/>
<path fill-rule="evenodd" clip-rule="evenodd" d="M14.7553 7.0369C14.7553 7.0369 14.6873 7.05047 14.4912 7.1521C14.2952 7.25374 14.1592 7.28599 14.0834 7.4355C14.0077 7.585 14.0019 7.70353 14.0019 7.70353C14.0019 7.70353 14.1359 7.64529 14.2136 7.62583C14.2952 7.60651 14.3864 7.61227 14.3767 7.64529C14.3673 7.66794 14.3544 7.6889 14.3383 7.70737C14.3383 7.70737 14.4919 7.70353 14.4878 7.77931C14.4837 7.85508 14.4587 7.93854 14.4297 7.97541C14.4005 8.01381 14.2802 8.07064 14.2666 8.11531C14.2336 8.20658 14.2802 8.21042 14.2626 8.28414C14.2491 8.35608 14.1851 8.49586 13.9753 8.74047C13.7597 8.9852 13.6681 9.15801 13.6681 9.15801C13.6681 9.15801 13.5633 8.96191 13.5089 8.79295C13.4705 8.81228 13.2642 8.92684 13.2642 8.92684L12.7866 7.26282L12.7962 7.1521C12.7962 7.1521 12.8389 7.09975 12.8486 7.0026C12.7768 6.9793 12.7671 6.95985 12.6719 6.86871C12.5766 6.77757 12.4991 6.66672 12.34 6.59095C12.3167 6.54819 12.2875 6.49008 12.171 6.46666C12.0545 6.44323 11.9846 6.42403 11.9846 6.42403C11.9846 6.42403 12.0467 6.40061 12.0759 6.3521C12.004 6.36183 11.9459 6.38512 11.7885 6.38128C11.6293 6.37731 11.6118 6.37155 11.5245 6.38512C11.4372 6.39869 11.3325 6.4376 11.2934 6.30358C11.2507 6.27056 11.1594 6.29974 11.0817 6.41418C11.004 6.52861 10.9769 6.62 10.8274 6.66468C10.8169 6.73058 10.7938 6.79385 10.7594 6.85104C10.7167 6.92298 10.6487 6.99479 10.5574 7.10154C10.4137 7.2705 10.437 7.54814 10.2079 7.75985C9.97684 7.97144 10.2463 7.17335 10.2463 7.17335L10.6152 6.29014L11.6657 5.26294L13.2968 5.15234L13.456 5.99715L14.2521 6.27094L14.7551 7.03793L14.7553 7.0369Z" fill="#D3AE4D"/>
<path fill-rule="evenodd" clip-rule="evenodd" d="M15.0136 7.22333L14.3282 6.23506L13.8486 5.86604C13.8486 5.86604 13.5069 5.23705 13.4836 5.2176C13.4641 5.20403 13.1418 5.16909 12.936 5.15552L12.9744 5.25062C13.0193 5.26521 13.0592 5.29213 13.0896 5.32832C13.1809 5.43315 13.2391 5.63116 13.0314 5.84287C13.1129 5.87193 13.1466 5.88127 13.2177 5.87193C13.1459 5.95743 12.9829 6.13995 12.9731 6.29918C12.9634 6.42923 13.0449 6.46801 13.0449 6.46801C13.0449 6.46801 12.9206 6.61176 12.9149 6.85201C12.9736 6.78582 13.0378 6.72476 13.1069 6.66948C13.2506 6.55429 13.4486 6.42475 13.5826 6.34322C13.5808 6.37743 13.5854 6.41169 13.5962 6.44421C13.5962 6.44421 13.8466 6.23838 14.057 6.32965C14.1521 6.3724 14.1094 6.50641 14.1094 6.50641C14.1094 6.50641 14.2395 6.4579 14.3308 6.54917C14.422 6.64043 14.5521 6.87531 14.6181 6.9667C14.6472 7.00945 14.723 7.09098 14.8005 7.21706C14.9065 7.39379 14.995 7.58044 15.0647 7.77437C15.0686 7.69667 15.0842 7.588 15.2183 7.588L15.0144 7.22295L15.0136 7.22333Z" fill="#CAA13E"/>
<path fill-rule="evenodd" clip-rule="evenodd" d="M4.7379 10.0312C4.7379 10.0312 4.68939 9.91074 4.7379 9.67586C4.78641 9.44098 4.86219 9.33026 4.8874 8.98466C4.91262 8.63906 5.1379 8.20795 5.1379 8.20795L5.76113 7.92456L6.20196 8.04488L6.332 8.63522L5.77469 8.94242C5.77469 8.94242 5.74564 9.07246 5.58833 9.1773C5.43102 9.28213 5.21355 9.36366 5.16119 9.47054C5.1299 9.53599 5.10706 9.60515 5.09323 9.67637C5.09323 9.67637 4.934 9.64334 4.83889 9.74818C4.7379 9.85506 4.74174 9.95016 4.7379 10.0317V10.0312Z" fill="#F4EFC8"/>
<path fill-rule="evenodd" clip-rule="evenodd" d="M5.99609 9.87383C5.99609 9.87383 5.94361 9.90686 5.90482 9.98903C5.86642 9.92695 5.77465 9.55793 5.77081 9.2259C5.76697 8.89387 5.74713 8.81157 5.82393 8.69714C5.90073 8.58271 6.20191 8.46213 6.15916 8.25606C6.11641 8.05996 5.93772 7.97843 5.71833 8.03475C5.56473 8.07315 5.45042 8.3998 5.29119 8.56287C5.17074 8.68716 5.02713 8.6677 4.98834 8.73567C4.93586 8.82693 4.98437 8.91819 4.96889 8.97643C4.96492 8.99589 4.91641 9.10072 4.82898 9.22693C4.65234 9.48126 4.35333 9.84055 4.31442 10.1629C4.32799 9.98033 4.31839 9.97649 4.3669 9.77451L4.33772 9.726L4.52972 9.09688L4.65401 8.57849L4.93177 7.7104L5.42098 6.82311L5.89676 6.29102L6.39186 6.32404L6.4501 7.06771L6.73362 8.46393L7.32972 9.19787L6.37433 9.84081L5.9957 9.87383H5.99609Z" fill="#EBCC73"/>
<path fill-rule="evenodd" clip-rule="evenodd" d="M6.2932 10.1377C6.2932 10.1377 6.21166 10.1572 6.18248 10.1417C6.15329 10.1262 6.12437 10.1087 6.13397 10.0892C6.14357 10.0697 6.19605 10.0368 6.19605 10.0212C6.19712 10.0071 6.19266 9.99315 6.1836 9.98227C6.17455 9.9714 6.16161 9.96448 6.14753 9.96299C6.10286 9.95723 6.08929 9.98629 6.08929 9.98629C6.08929 9.98629 6.04654 9.95339 6.01173 9.94789C6.03233 9.94536 6.05305 9.94404 6.07381 9.94392C6.02015 9.91961 5.96323 9.90327 5.90485 9.89541C5.95336 9.86635 6.04859 9.78084 6.11067 9.78084C6.17275 9.78084 6.21166 9.77124 6.20193 9.73822C6.19221 9.70519 6.14369 9.65668 6.09134 9.63722C6.11067 9.61393 6.12437 9.57898 6.07777 9.48362C6.02913 9.38851 6.04859 9.32438 6.06421 9.30121C6.07777 9.27203 6.12629 9.21968 6.14958 9.18665C6.17288 9.15363 6.19233 9.10895 6.23112 9.08566C6.25057 9.07209 6.31265 9.04726 6.37486 9.02358C6.44283 9.00028 6.49915 8.97109 6.53793 9.00028C6.58069 9.02934 6.56123 9.06825 6.56123 9.06825C6.56123 9.06825 6.69525 9.01961 6.81557 9.08182C6.93601 9.13993 7.22926 9.17692 7.22926 9.17692L7.33435 9.38864L6.63918 9.98475L6.35182 10.1285L6.29358 10.1381L6.2932 10.1377Z" fill="#E5C66B"/>
<path fill-rule="evenodd" clip-rule="evenodd" d="M7.25824 9.16311C7.25824 9.16311 7.04269 9.30685 6.99418 9.35921C7.02324 9.36317 7.07175 9.38263 7.05229 9.41169C7.029 9.44074 6.88922 9.54174 6.81152 9.63697C6.72999 9.73207 6.65229 9.85252 6.62516 9.91076C6.5961 9.96311 6.37466 10.1166 6.29901 10.1359C6.45824 10.1359 6.77863 9.93981 6.89895 9.93981C6.89511 9.99805 6.93197 10.0641 6.99994 10.0699C7.06791 10.0756 7.264 10.1126 7.52807 9.94954C7.79213 9.79031 7.70484 9.67178 7.81543 9.59421C8.02714 9.45431 8.11252 9.33002 8.229 9.25245C8.34548 9.17489 8.40576 9.15722 8.40576 9.15722C8.40576 9.15722 8.4096 9.09898 8.44416 9.10487C8.45362 9.10596 8.46261 9.1096 8.47014 9.11543C8.47768 9.12125 8.48348 9.12902 8.48692 9.13789C8.48692 9.13789 8.6889 8.99415 8.94772 8.95537C8.94168 8.95267 8.93685 8.94784 8.93415 8.9418C8.93415 8.9418 8.95348 8.93207 8.95744 8.92234C8.95744 8.92234 8.97101 8.90289 8.98074 8.91261C8.99047 8.92234 9.00404 8.99415 9.02349 9.02333C9.06624 9.00388 9.14778 8.82135 9.14778 8.82135L9.344 8.2602V7.74756L9.1904 7.77674L8.0384 8.26596L7.33927 8.99031L7.25773 9.16311H7.25824Z" fill="#E6BD62"/>
<path fill-rule="evenodd" clip-rule="evenodd" d="M10.5747 6.64862C10.637 6.6335 10.6968 6.60926 10.752 6.57668C10.7287 6.63889 10.7287 6.70686 10.6277 6.85444C10.5267 7.00203 10.5229 7.0234 10.4413 7.17675C10.3598 7.33598 10.3501 7.56511 10.2724 7.66597C10.3072 7.64905 10.3446 7.63794 10.383 7.63308C10.383 7.63308 10.3054 7.70104 10.2724 7.77285C10.2394 7.84466 10.1811 7.99417 10.0375 8.08556C9.89388 8.17695 9.71123 8.23507 9.51513 8.45062C9.31891 8.66221 9.11705 8.93024 9.01593 9.02663C9.06841 8.93536 9.14022 8.75283 9.15967 8.63251C9.17913 8.51219 9.15571 8.36832 9.18873 8.20921C9.22175 8.0501 9.22175 7.93541 9.38073 7.65765C9.53971 7.37989 9.81183 6.41489 9.81183 6.41489L10.3982 6.22852L10.575 6.64798L10.5747 6.64862Z" fill="#B6933F"/>
<path fill-rule="evenodd" clip-rule="evenodd" d="M10.1514 6.29321C10.1514 6.29321 9.97479 6.54754 9.92628 6.77282C9.87776 6.9981 9.92231 6.97865 9.89325 7.08937C9.87587 7.15687 9.87587 7.22768 9.89325 7.29519C9.95443 7.19663 10.0382 7.11406 10.1376 7.05429C10.3046 6.95343 10.4406 6.88149 10.5216 6.79612C10.6031 6.70485 10.6711 6.55535 10.8477 6.44079C10.7759 6.43106 10.6749 6.39804 10.6557 6.40239C10.7277 6.32085 10.9431 6.19657 11.1606 6.04706C11.3761 5.89346 11.3626 5.83151 11.7121 5.67816C11.5976 5.69762 11.5432 5.66844 11.4479 5.67816C11.4863 5.59663 11.6207 5.55772 11.7551 5.42383C11.8895 5.28994 11.6698 5.0918 11.6698 5.0918L10.6458 5.71119L10.1507 6.29372L10.1514 6.29321Z" fill="#C49937"/>
<path fill-rule="evenodd" clip-rule="evenodd" d="M7.3728 5.831L7.3961 5.64463L7.68935 5.17475L7.99616 4.34953V3.22134L7.97287 2.56892L8.02138 2.14166L8.05824 2.00585L8.09715 1.95337L8.34752 2.08342L8.69325 2.55331L8.72627 3.46019L8.39027 4.89123L7.43104 5.93788L7.3728 5.831Z" fill="#DFC068"/>
<path fill-rule="evenodd" clip-rule="evenodd" d="M8.13594 1.90081C8.13594 1.90081 7.98234 1.90478 7.94957 2.54362C7.9168 3.18247 7.90093 3.51834 7.87764 3.83489C7.85434 4.15143 7.80007 4.34356 7.7728 4.53006C7.74554 4.71655 7.73005 4.97076 7.64276 5.12615C7.60436 5.19796 7.52231 5.42324 7.33005 5.5922C7.1145 5.77857 6.79246 5.90875 6.74369 5.91847C6.65819 5.9378 6.22517 5.98055 6.04853 6.07771C5.98645 6.11073 5.87957 6.14951 5.76117 6.26023C5.52617 6.47182 5.21359 6.85044 4.98831 7.30676C4.64272 7.98836 4.29712 9.91259 4.29712 9.91259L4.37481 9.78254C4.37481 9.78254 4.38454 9.60974 4.55734 9.30676C4.7263 9.00391 4.67779 8.66407 4.91267 8.08347C5.00393 7.86215 5.11849 7.57479 5.25826 7.33006C5.4797 6.93198 5.7476 6.59022 6.01755 6.40385C6.45825 6.101 6.94375 6.03495 6.94375 6.03495L7.46612 5.68935C7.46612 5.68935 7.55738 5.51271 7.67783 5.31073C7.84666 5.02734 8.06183 4.71079 8.1088 4.25063C8.18074 3.56903 8.00781 3.12244 8.01754 2.7186C8.02727 2.31476 8.03111 2.01767 8.11277 1.94574C8.19443 1.8738 8.13607 1.90106 8.13607 1.90106L8.13594 1.90081Z" fill="#A88F33"/>
<path fill-rule="evenodd" clip-rule="evenodd" d="M8.13594 4.94945C8.13594 4.94945 8.36634 4.38241 8.47182 3.8795C8.49127 3.77851 8.53006 3.67765 8.53979 3.59611C8.5883 3.12034 8.60187 2.92424 8.53979 2.66402C8.49127 2.47202 8.3049 2.29896 8.20775 2.16482C8.11264 2.02491 8.06797 1.97282 8.08742 1.94338C8.10688 1.91394 8.18253 1.86581 8.25626 1.87157C8.33463 1.87385 8.41172 1.89205 8.48284 1.92505C8.55396 1.95806 8.61763 2.00519 8.66996 2.06357C8.81947 2.23637 8.93788 2.82286 8.93788 2.82286L9.06242 3.59675L9.37897 4.57147L8.13619 4.95022L8.13594 4.94945Z" fill="#C99E3D"/>
<path fill-rule="evenodd" clip-rule="evenodd" d="M10.301 4.35936C10.301 4.35936 10.2582 4.37868 10.1807 4.35936C10.184 4.39106 10.1785 4.42305 10.1648 4.45182C10.1511 4.4806 10.1297 4.50503 10.103 4.52243C10.0214 4.4894 9.25817 4.55545 9.25817 4.55545C9.25817 4.55545 8.90284 4.49324 8.79212 4.02336C8.71455 3.71065 8.85036 3.27968 8.80569 2.99616C8.73772 2.57862 8.64262 2.49696 8.63289 2.36704C8.62316 2.23712 8.61343 2.20396 8.61343 2.12243C8.57068 2.1127 8.54547 2.09913 8.50284 2.09913C8.49311 2.06073 8.51244 2.0272 8.46982 1.95923C8.49311 1.96896 8.65235 1.98841 8.83871 2.16505C8.99231 2.3088 8.99231 2.36115 9.01548 2.39033C9.04454 2.41939 9.27955 2.62073 9.38054 2.82144C9.48153 3.02214 9.67763 3.66214 9.7223 3.76697C9.73587 3.80972 9.76505 3.85248 9.8375 3.9495C9.95014 4.0894 10.1151 4.3207 10.3015 4.3591L10.301 4.35936Z" fill="#B58634"/>
<path fill-rule="evenodd" clip-rule="evenodd" d="M9.04282 2.3999C9.16044 2.58992 9.26612 2.78708 9.35923 2.99024C9.47379 3.24841 9.54176 3.46013 9.6855 3.63293C9.60781 3.40777 9.46995 2.96502 9.38842 2.80771C9.29715 2.64131 9.11078 2.46211 9.04282 2.40003V2.3999Z" fill="#A88F33"/>
<path fill-rule="evenodd" clip-rule="evenodd" d="M7.7223 5.59241C7.7223 5.59241 7.52621 5.64092 7.16116 5.83318C7.04072 5.89526 6.92629 5.94761 6.81557 5.99625C6.52796 6.1263 6.21949 6.24649 5.97475 6.3128C5.99421 6.33609 6.00381 6.34569 6.00381 6.34569C6.00381 6.34569 6.00381 6.44093 6.05629 6.4952C6.02723 6.52438 5.63876 6.78844 5.75345 7.6719C5.83101 7.64284 5.92228 7.60393 5.93584 7.60393C5.95927 7.6079 5.96503 7.6719 5.99408 7.6719C6.02314 7.6719 6.11837 7.6335 6.21936 7.50294C6.21552 7.55542 6.15728 8.08355 6.46985 8.43888C6.52809 8.37091 6.67567 8.14563 6.67567 8.14563L6.67951 8.07382C6.67951 8.07382 6.69308 7.82332 6.77474 7.5942C6.8564 7.36508 7.0155 7.19613 7.0155 7.19613L7.84633 6.00969L7.72204 5.59229L7.7223 5.59241Z" fill="#E6C367"/>
<path fill-rule="evenodd" clip-rule="evenodd" d="M6.94562 7.33449C6.90758 7.36137 6.86567 7.3823 6.82133 7.39657C6.80776 7.34806 6.78831 7.18102 6.90287 7.01795C7.03688 6.82172 7.33 6.56739 7.41154 6.36515C7.46402 6.23497 7.44072 5.90883 7.90677 5.49129C8.37282 5.07375 8.55522 4.93014 8.55522 4.93014L9.30863 4.55151L10.2348 4.91657L9.77468 6.72009L9.41743 7.56489L7.99663 7.29699L6.94549 7.33449H6.94562Z" fill="#DCBA5A"/>
<path fill-rule="evenodd" clip-rule="evenodd" d="M7.48801 6.84469L7.66478 6.62338V6.46607C7.66478 6.46607 7.86087 6.41359 8.07246 6.19803C8.28405 5.98248 8.5773 5.5689 8.8356 5.59412C9.09391 5.6233 9.11912 6.15528 9.12885 6.30491C9.13858 6.45455 9.1716 6.79413 9.22396 6.97679C9.2822 7.15932 8.59483 7.85053 8.59483 7.85053L8.12801 8.20586L7.48801 6.84469Z" fill="#E9CE77"/>
<path fill-rule="evenodd" clip-rule="evenodd" d="M8.03494 8.68741C8.03494 8.68741 8.17868 8.46213 8.07334 8.41362C8.13542 8.27384 8.24998 8.12626 8.24998 8.12626C8.24998 8.12626 8.33151 7.9244 8.59557 7.67582C8.85962 7.42725 9.02282 7.26213 9.06557 7.09522C9.09193 6.98644 9.10626 6.87509 9.10832 6.76318C9.13687 6.78651 9.1674 6.80728 9.19958 6.82526C9.24233 6.84472 9.44418 7.01163 9.41513 7.34763C9.38607 7.68363 9.26153 7.82341 9.26153 7.82341C9.26153 7.82341 9.14122 7.94373 9.05584 8.00594C8.96445 8.06802 8.93156 8.13982 8.77809 8.14571C8.79386 8.13317 8.81159 8.12331 8.83057 8.11653C8.83057 8.11653 8.67134 8.0972 8.58584 8.17477C8.50034 8.25234 8.31858 8.49131 8.22732 8.56325C8.13606 8.62149 8.03533 8.68754 8.03533 8.68754L8.03494 8.68741Z" fill="#CDAE50"/>
<path fill-rule="evenodd" clip-rule="evenodd" d="M14.4913 4.91064C14.2619 4.82703 14.0208 4.77987 13.7768 4.77086C13.369 4.75729 12.7729 4.78059 12.1884 4.78443C11.5593 4.78827 10.9885 4.56888 10.1963 4.53009C10.0662 4.4524 9.73547 4.11256 8.70303 4.83294C8.76511 4.8291 9.45259 4.67371 9.69131 4.97285C9.93208 5.26993 9.86411 5.77477 9.83121 5.89509C9.76901 6.16312 9.56702 6.55339 9.48562 6.82718C9.40421 7.10097 9.42341 7.24485 9.36517 7.43685C9.30693 7.62885 9.1788 7.72421 9.25445 7.94552C9.35544 7.88344 9.40805 7.88344 9.57675 7.50481C9.74545 7.12619 9.71077 6.85624 9.99044 6.53585C10.2642 6.21355 10.72 5.77272 10.8933 5.662C11.0667 5.55128 12.4428 4.83678 13.8837 5.51838C14.2312 5.48152 14.4914 4.91051 14.4914 4.91051L14.4913 4.91064Z" fill="#D2A83E"/>
<path fill-rule="evenodd" clip-rule="evenodd" d="M9.28338 4.64642C9.28195 4.63183 9.27873 4.61747 9.27378 4.60367C9.2603 4.57527 9.24261 4.54908 9.2213 4.52597C9.2213 4.52597 8.87954 4.46389 8.70674 4.48322C8.40377 4.51625 8.12998 4.89103 8.00185 5.08329C7.87372 5.27555 7.71449 5.57251 7.54169 5.72599C7.54359 5.71104 7.54014 5.6959 7.53197 5.68324C7.53197 5.68324 7.54169 5.6968 7.52237 5.71626C7.50304 5.73572 7.50291 5.74532 7.51264 5.75466L7.54182 5.78372C7.55142 5.78372 7.81945 5.66327 8.1845 5.32291C8.57285 4.96758 8.86994 4.78531 9.02533 4.72284C9.1082 4.68762 9.19482 4.66199 9.2835 4.64642H9.28338Z" fill="#C29637"/>
<path fill-rule="evenodd" clip-rule="evenodd" d="M15.9127 3.18652C15.9127 3.18652 15.8505 3.26409 15.7728 3.3496C15.6 3.53212 15.3747 3.73782 15.1825 3.94953C15.0001 4.15152 14.7942 4.30883 14.5631 4.57289C14.3319 4.83696 14.0639 5.13008 13.996 5.21558C13.9339 5.30108 13.8854 5.44086 13.8854 5.51267C13.8524 5.48937 13.8136 5.46416 13.8136 5.46416C13.83 5.49464 13.8495 5.5233 13.8719 5.54966C13.9204 5.61763 13.996 5.70326 14.0349 5.75548C14.0827 5.82197 14.1169 5.89715 14.1358 5.9768C14.1591 5.98064 14.3086 6.00982 14.4951 5.703C14.6816 5.39619 14.9261 5.06032 14.9261 5.06032L15.3144 4.48355L15.5592 3.99433L15.8664 3.44675L15.9131 3.18652H15.9127Z" fill="#AC8132"/>
<path fill-rule="evenodd" clip-rule="evenodd" d="M16.3108 2.79419C16.3108 2.79419 16.0758 2.98619 15.9845 3.1014C15.8932 3.2166 15.6773 3.51894 15.6773 3.51894L15.755 3.50921L16.1492 3.15977L16.3028 2.88597L16.3107 2.7947L16.3108 2.79419Z" fill="#A88F33"/>
<path fill-rule="evenodd" clip-rule="evenodd" d="M16.2388 18.2254C16.2388 18.2254 16.235 18.0662 16.3244 17.971C16.4156 17.8758 16.6467 17.736 16.8719 17.2118C17.0972 16.6875 17.1223 16.5691 17.1223 16.5691C17.1223 16.5691 16.7185 16.9147 16.4695 16.9962C16.5277 16.8758 16.5608 16.7904 16.59 16.7282C16.5569 16.6991 16.4172 16.6661 16.4036 16.6506C16.4812 16.5729 16.5239 16.3826 16.6812 16.2564C16.8832 16.1028 17.2521 15.8388 17.5388 15.6036C17.8255 15.3683 18.3892 14.8211 18.4612 14.6619C18.5039 14.7239 18.5135 14.7627 18.5135 14.7627C18.5135 14.7627 18.2301 15.1318 18.0826 15.3666C17.9524 15.5686 17.9621 15.6832 17.9621 15.6832L18.2301 15.568C18.2301 15.568 18.3077 15.8553 17.9564 16.2923C18.11 16.2341 18.1719 16.269 18.2592 16.2204C18.1155 16.3118 17.9174 16.4361 17.7311 16.7777C17.5485 17.1195 17.3 17.5175 16.8806 17.766C16.4728 18.0281 16.2378 18.2242 16.2378 18.2242L16.2388 18.2254Z" fill="#A67A2E"/>
<path fill-rule="evenodd" clip-rule="evenodd" d="M15.1864 5.11266C15.1864 5.11266 15.0272 5.44456 15.0039 5.70287C15 5.76507 14.9844 5.81359 14.9844 5.88539C14.9806 6.11643 14.998 6.37474 14.946 6.49506C14.9266 6.44655 14.9168 6.41352 14.8974 6.39419C14.8683 6.47573 14.8159 6.73007 14.7731 6.82517C14.7538 6.76309 14.711 6.54754 14.715 6.2932C14.719 6.03887 14.7246 5.99023 14.7246 5.93787C14.715 6.01544 14.6625 6.1204 14.6431 6.18248C14.614 6.13013 14.581 6.06216 14.5421 6.00584C14.5188 6.04424 14.4897 6.10095 14.4645 6.13013C14.4605 6.10683 14.4509 6.04463 14.4451 5.95733C14.4412 5.85634 14.4353 5.72629 14.4412 5.69903C14.4508 5.64667 14.5325 5.44085 14.7053 5.25243C14.9111 5.02715 15.1228 4.59426 15.1849 4.46024C15.2469 4.32623 15.511 3.76904 15.511 3.76904H15.713L15.4197 4.43695C15.4197 4.43695 15.2431 4.802 15.1518 4.93615C15.0606 5.07029 14.8683 5.45467 14.7828 5.60418C14.8449 5.52264 14.8974 5.47989 14.9596 5.40219C15.0198 5.34779 15.1867 5.11292 15.1867 5.11292L15.1864 5.11266Z" fill="#8C6228"/>
<path fill-rule="evenodd" clip-rule="evenodd" d="M16.3146 2.7688C16.2816 2.87034 16.2295 2.96463 16.161 3.04656C16.0406 3.1903 15.7823 3.38243 15.6562 3.53577C15.541 3.68528 15.3106 4.09309 15.4153 4.57654C15.4537 4.47171 15.526 4.26397 15.7183 4.02896C15.9105 3.79395 16.1163 3.52413 16.2174 3.31446C16.3183 3.10275 16.3319 2.93584 16.3319 2.93584L16.3703 2.88733L16.347 2.77661L16.314 2.7688H16.3146Z" fill="#CBA94C"/>
<path fill-rule="evenodd" clip-rule="evenodd" d="M20.2467 15.6486C20.2467 15.6486 20.169 15.437 20.1457 15.2448C20.1224 15.0525 20.1841 15.0144 20.1127 14.7943C20.0699 14.6603 19.9923 14.6791 19.9729 14.6603C19.9534 14.6415 19.9399 14.439 19.9437 14.3283C19.9475 14.2176 19.9399 14.0739 19.9204 14.0117C19.8913 13.9884 19.8719 13.969 19.8291 13.8254C19.7806 13.6816 19.7573 13.6098 19.734 13.5672C19.7107 13.5246 19.6426 13.4857 19.6426 13.4429C19.6426 13.3574 19.7203 13.3129 19.7203 13.2893C19.7165 13.2408 19.6582 13.2797 19.6426 13.266C19.6233 13.2427 19.6913 13.1029 19.6661 13.0835C19.6563 13.0739 19.5884 13.1554 19.5708 13.1321C19.5514 13.1087 19.5281 12.8777 19.4931 12.7243C19.4602 12.5748 19.4252 12.4661 19.4213 12.4215C19.4175 12.3787 19.1533 11.6253 19.0893 11.4428C19.0377 11.2885 18.9943 11.1317 18.9592 10.9729C18.9398 10.8816 18.9262 10.6951 18.9165 10.7146C18.9068 10.734 18.9126 10.8291 18.897 10.8253C18.8835 10.8213 18.8349 10.4894 18.8195 10.437C18.8059 10.3845 18.7242 10.2066 18.7043 10.0778C18.6848 9.94761 18.6422 9.60777 18.613 9.37673C18.5838 9.14569 18.5702 9.05059 18.5702 8.99273C18.575 8.85122 18.5672 8.70956 18.5469 8.56943C18.5085 8.3247 18.4317 8.02761 18.3644 7.85494C18.2344 7.52867 17.8886 6.69372 17.8268 6.48598C17.8268 6.4335 17.8948 6.46268 17.8948 6.46268C17.8948 6.46268 18.0636 6.88598 18.1879 7.21212C18.3084 7.53839 18.4229 7.82575 18.4521 7.85494C18.4754 7.88399 18.6579 8.20438 18.7395 8.72867C18.821 9.25295 18.8501 9.73641 18.8987 10.0587C18.922 10.2123 18.9414 10.3753 18.99 10.5383C19.0423 10.7151 19.1238 10.8976 19.2307 11.1772C19.322 11.4122 19.39 11.6083 19.4268 11.7772C19.4696 11.9928 19.4696 12.1559 19.4948 12.2627C19.5182 12.354 19.553 12.5364 19.6347 12.8003C19.7164 13.0643 19.8366 13.4042 19.9181 13.6158C20.0775 14.0391 20.1485 14.3925 20.1726 14.581C20.1938 14.7751 20.2657 15.447 20.2463 15.6489L20.2467 15.6486Z" fill="#A88F33"/>
<path fill-rule="evenodd" clip-rule="evenodd" d="M16.3243 2.74552L16.3146 2.76881C16.3146 2.76881 16.3437 2.77854 16.3379 2.81745C16.3383 2.87069 16.3351 2.9239 16.3282 2.97669C16.3186 3.04466 16.2991 3.09701 16.2953 3.13976C16.2953 3.23103 16.3088 3.33586 16.1801 3.59608C16.1417 3.66789 16.118 3.72997 16.0985 3.77272C16.05 3.87756 16.0403 3.89317 15.9976 3.94169C16.0655 3.90329 16.3102 3.74968 16.4344 3.77272C16.349 3.82124 16.2189 3.91647 16.1373 4.04076C16.1568 4.0446 16.2383 4.06021 16.3677 4.04076C16.5833 4.00773 16.824 3.93004 17.0356 3.94553C17.2668 3.95909 17.1755 3.66789 17.1755 3.66789L16.9088 3.08152L16.4039 2.72632L16.3243 2.74565V2.74552Z" fill="#BE9C44"/>
<path fill-rule="evenodd" clip-rule="evenodd" d="M17.6408 7.13799C17.6408 7.13799 17.4155 6.91271 17.3243 6.13959C17.233 5.36288 17.2525 4.21959 17.2525 4.21959L17.0699 3.773C17.0699 3.773 17.0315 3.47591 16.9359 3.36532C16.8403 3.25472 16.6525 3.06823 16.567 2.97696C16.4815 2.8857 16.3845 2.76141 16.3263 2.74196C16.3553 2.69344 16.4855 2.41965 16.9844 2.41581C17.4834 2.41197 17.6372 2.6896 17.6893 2.79059C17.7414 2.89159 17.9767 3.3282 18.064 4.1602C18.1455 4.99117 18.1495 5.05338 18.1359 5.34074C18.1262 5.49997 18.0737 5.86887 17.9823 6.26298C17.8989 6.59706 17.8076 6.96992 17.6406 7.13876L17.6408 7.13799Z" fill="#A17C34"/>
<path fill-rule="evenodd" clip-rule="evenodd" d="M16.9344 7.80016C17.0095 7.80557 17.0845 7.78865 17.15 7.75152C17.2218 7.74768 17.482 7.7807 17.682 7.52637C17.6955 7.58448 17.7306 7.74192 17.6392 7.88169C17.6879 7.83305 17.7597 7.81372 17.7694 7.80016C17.7732 7.87196 17.8412 8.09327 17.5538 8.63113C17.6314 8.54575 17.7227 8.54959 17.8042 8.53986C17.8082 8.64085 17.8625 8.98056 17.7188 9.16322C17.6237 9.2875 17.4683 9.24859 17.4683 9.24859C17.4706 9.22146 17.4706 9.19419 17.4683 9.16706C17.4645 9.11458 17.445 9.06223 17.4587 9.02728C17.3836 8.99298 17.3152 8.94561 17.2567 8.88738C17.0877 8.72815 16.8683 8.45641 16.8529 8.25442C16.8334 8.02915 17.0354 7.98064 17.0354 7.98064C17.0185 7.9655 17.004 7.94779 16.9926 7.92816C16.9829 7.89526 16.9732 7.84278 16.9344 7.80016Z" fill="#8C6228"/>
<path fill-rule="evenodd" clip-rule="evenodd" d="M15.4368 5.35732C15.4368 5.35732 15.4271 5.34376 15.3747 5.40584C15.3845 5.34376 15.3942 5.28539 15.398 5.22907C15.4228 5.17693 15.4549 5.12857 15.4933 5.08545C15.4641 5.14356 15.4446 5.19604 15.4446 5.19604C15.4446 5.19604 15.5165 5.06203 15.6214 4.98049C15.6932 4.92225 15.7844 4.89512 15.8232 4.84072C15.866 4.78248 15.8562 4.77275 15.866 4.76302C15.866 4.76302 15.9612 4.70094 16.1069 4.51828C16.1262 4.49499 16.1554 4.46977 16.1748 4.44648C16.2077 4.43291 16.2854 4.39796 16.3767 4.35124C16.4719 4.29889 16.5787 4.22708 16.6447 4.19764C16.7748 4.1394 16.9127 4.14529 16.9767 4.0539C17.0252 4.04033 17.0776 3.89467 17.068 3.77051C17.1398 3.79956 17.5087 4.02868 17.635 4.52968C17.7263 4.885 17.5631 5.43259 17.4951 5.69678C17.4272 5.96097 17.4176 6.15694 17.3223 6.27726C17.2019 6.43662 16.8137 6.66126 16.7184 6.77249C16.6369 6.86376 16.3923 7.0948 16.4019 7.26171C16.4116 7.386 16.565 7.45371 16.5981 7.47726C16.6313 7.50081 16.631 7.52974 16.6932 7.51566C16.7554 7.50158 16.7786 7.47291 16.8039 7.47291C16.833 7.47675 16.833 7.48264 16.8466 7.48264C16.8564 7.48234 16.8662 7.48101 16.8757 7.47867C16.8757 7.47867 16.866 7.65544 16.4525 7.70907C16.4233 7.71304 16.3942 7.72264 16.3572 7.72852C16.4059 7.70523 16.4349 7.70523 16.4874 7.63342C16.4292 7.62369 16.2621 7.61396 16.2194 7.6004C16.2329 7.5771 16.2776 7.51489 16.3145 7.48584C16.3475 7.45678 16.3106 7.44744 16.2816 7.46254C16.2316 7.49658 16.1836 7.5335 16.1378 7.57313C16.0893 7.61588 16.0466 7.67412 15.9689 7.72673C15.9456 7.64904 15.9494 7.50145 16.0408 7.3947C16.0174 7.39854 15.9727 7.46651 15.9301 7.45294C15.9224 7.38211 15.927 7.31049 15.9437 7.24123C15.967 7.1538 16.0932 7.00046 16.0932 7.00046L16.7028 5.91105L16.8329 5.08584L15.4368 5.35707V5.35732Z" fill="#92723A"/>
<path fill-rule="evenodd" clip-rule="evenodd" d="M15.4039 5.40397C15.4039 5.40397 15.3709 5.42726 15.437 5.47194C15.4272 5.4855 15.4039 5.53402 15.3748 5.56704C15.3419 5.60544 15.3068 5.62925 15.2932 5.66227C15.2642 5.73024 15.2409 5.77683 15.2409 5.80602C15.2409 5.8352 15.2311 6.02157 15.1496 6.14189C15.1204 6.18464 15.0874 6.25645 15.0641 6.30496C15.0156 6.39034 14.9728 6.45856 14.9631 6.49696C14.9438 6.56493 14.9302 6.7513 14.9302 6.7513C14.9302 6.7513 14.9729 6.69882 14.9884 6.67949C14.965 6.728 14.9398 6.78035 14.9029 6.81926C14.9262 6.79981 14.9942 6.7513 15.1088 6.6503C15.268 6.51642 15.5166 6.29114 15.8196 6.1127C15.7282 6.14573 15.6506 6.14573 15.5885 6.15546C15.637 6.10694 16.0739 5.5943 16.3031 5.54579C16.317 5.52815 16.3239 5.50601 16.3225 5.48358L16.1263 5.46426L15.7282 5.54963L15.6701 5.24243L15.4039 5.40358V5.40397Z" fill="#B18E3E"/>
<path fill-rule="evenodd" clip-rule="evenodd" d="M16.037 7.15155C16.037 7.15155 15.9845 7.2039 15.936 7.33407C15.8987 7.29507 15.8666 7.2513 15.8408 7.2039C15.769 7.08358 15.6584 6.93011 15.4001 7.01753C15.3962 6.93599 15.3903 6.89324 15.4001 6.835C15.4428 6.8254 15.5729 6.72057 15.7029 6.5671C15.7943 6.46227 15.8797 6.34182 15.9379 6.18847C15.9763 6.15929 16.0428 6.11078 16.1299 6.05446C16.2542 5.96908 16.4037 5.85247 16.427 5.72243C16.3688 5.74572 16.2445 5.80396 16.058 5.79436C16.1299 5.76134 16.2405 5.72639 16.227 5.58265C16.2561 5.56319 16.2794 5.54963 16.2794 5.54963C16.2575 5.54232 16.2345 5.53903 16.2115 5.5399C16.2075 5.52633 16.2017 5.507 16.1687 5.5166C16.1357 5.5262 16.1303 5.52633 16.126 5.5399C16.1124 5.54387 16.0677 5.5399 16.0347 5.56332C16.0017 5.58675 15.9104 5.66419 15.8755 5.67775C15.889 5.65446 15.9084 5.61964 15.9084 5.61964C15.9084 5.61964 15.8133 5.62924 15.7453 5.65804C15.621 5.70079 15.4774 5.77849 15.3317 5.85414C15.3453 5.83084 15.3512 5.81574 15.3608 5.81139C15.3704 5.80703 15.3938 5.80179 15.3938 5.79782C15.3938 5.79385 15.3842 5.75942 15.39 5.74546C15.4335 5.65321 15.4849 5.56486 15.5436 5.4814C15.6115 5.39001 15.6251 5.25996 15.6251 5.25996L15.9222 5.11046L16.7571 4.91846L17.299 4.95148L17.231 5.32626L16.911 5.9806L16.6372 6.5767L16.3245 6.94188L16.0371 7.15155H16.037Z" fill="#543E26"/>
<path fill-rule="evenodd" clip-rule="evenodd" d="M17.3903 5.52965C17.3903 5.52965 17.064 5.93349 16.9728 5.9957C17.031 5.87141 17.3903 5.13157 17.5203 4.92575C17.4913 4.90245 17.4524 4.90245 17.5436 4.54175C17.4661 4.72415 17.4388 4.81938 17.3748 4.86789C17.3108 4.9164 17.3029 4.90092 17.2596 4.90092C17.2678 4.88614 17.2711 4.86918 17.2692 4.8524C17.2692 4.8524 16.9954 4.81938 16.8084 4.81938C16.6214 4.81938 16.2513 4.92037 16.0453 5.00191C15.8822 5.06988 15.791 5.06988 15.7327 5.1125C15.6745 5.16101 15.6415 5.21349 15.6123 5.22706C15.589 5.24063 15.4784 5.27557 15.4531 5.31244C15.4298 5.35084 15.391 5.39397 15.391 5.4037C15.391 5.41343 15.3813 5.42712 15.4104 5.41727C15.42 5.41343 15.492 5.37452 15.5735 5.326C15.6841 5.26392 15.8181 5.19212 15.9153 5.14936C16.1929 5.03864 16.2803 5.0581 16.4045 5.0348C16.5345 5.01151 16.721 4.95711 16.8452 4.95711C16.9694 4.95327 17.2044 4.95711 17.2588 4.96684C17.2355 4.98629 17.2161 5.00959 17.2258 5.09112C17.2258 5.11442 17.2064 5.13964 17.1874 5.19596C17.1293 5.35519 17.0186 5.61925 16.957 5.75327C16.8717 5.93567 16.7746 6.08914 16.7266 6.18424C16.6786 6.27935 16.573 6.52984 16.4685 6.66386C16.3639 6.79788 16.3092 6.87941 16.2765 6.9086C16.2437 6.93778 16.0084 7.11045 16.026 7.17266C16.0687 7.15909 16.3387 7.05746 16.5346 6.83679C16.7306 6.61612 16.7696 6.48146 16.923 6.36101C17.0763 6.24056 17.1968 6.03871 17.2686 5.8718C17.3287 5.7164 17.3152 5.66789 17.3908 5.53004L17.3903 5.52965Z" fill="#806031"/>
<path fill-rule="evenodd" clip-rule="evenodd" d="M10.3593 8.54386C10.3593 8.54386 10.3166 8.7205 10.2194 8.80793C10.1243 8.89343 9.95534 8.96716 9.93601 9.1109C9.91271 9.25452 10.105 9.32645 10.105 9.32645C10.105 9.32645 10 9.49925 10 9.6293C10 9.76332 9.99617 9.78853 10.0097 9.91666C9.99434 9.92657 9.98125 9.93966 9.97134 9.95506C9.97134 9.95506 9.98094 10.0793 10.0762 10.1569C10.1714 10.2345 10.2528 10.2812 10.3013 10.2617C10.3087 10.2776 10.3152 10.2938 10.3208 10.3104C10.3208 10.3104 10.3927 10.1279 10.4412 9.96863C10.4898 9.80556 10.5325 9.82873 10.5518 9.60933C10.5712 9.38994 10.7822 9.01324 10.7822 9.01324L10.9262 8.69132L10.6914 8.50879L10.3593 8.54373V8.54386Z" fill="#B6903C"/>
<path fill-rule="evenodd" clip-rule="evenodd" d="M10.7962 8.86011C10.7477 8.90983 10.703 8.96305 10.6624 9.01934C10.6003 9.10484 10.5518 9.18241 10.4605 9.21556C10.3693 9.24871 10.311 9.24846 10.3168 9.33985C10.3226 9.43124 10.4081 9.4699 10.4566 9.51649C10.5091 9.565 10.5518 9.64654 10.5285 9.73793C10.5576 9.72436 10.6101 9.70875 10.6586 9.60391C10.7071 9.49908 11.0464 8.86024 11.0464 8.86024H10.7962V8.86011Z" fill="#685026"/>
<path fill-rule="evenodd" clip-rule="evenodd" d="M12.1344 7.38626C12.1344 7.38626 12.1634 7.30869 12.1344 7.25237C12.1052 7.19413 11.9286 7.17468 11.8411 7.10863C11.7499 7.04066 11.6392 6.99343 11.5479 7.02326C11.5615 6.99023 11.6159 6.9183 11.5712 6.90281C11.5284 6.88924 11.3693 6.96105 11.3266 6.99407C11.2838 7.0271 11.1867 7.06588 11.1674 7.0893C11.148 7.11273 11.1149 7.15727 11.0954 7.13782C11.076 7.12425 11.0664 7.0893 11.0333 7.10863C11.0003 7.12796 10.8413 7.25813 10.812 7.33391C10.7827 7.40968 10.7168 7.57864 10.5188 7.77077C10.3208 7.9629 10.2353 8.08731 10.2935 8.15912C10.3517 8.23093 10.379 8.17858 10.3887 8.24065C10.3962 8.3016 10.3929 8.36338 10.379 8.42318C10.3557 8.52417 10.3169 8.61928 10.3693 8.63873C10.5033 8.68148 10.6335 8.60033 10.6625 8.62516C10.7208 8.67752 10.6295 8.86593 10.7674 8.90279C10.9073 8.94119 11.0451 8.86977 11.0451 8.86977L11.5538 8.59598L12.0431 8.33781L12.2935 7.84258L12.1592 7.42901L12.1336 7.38626H12.1344Z" fill="#D4B968"/>
<path fill-rule="evenodd" clip-rule="evenodd" d="M11.6544 8.56902C11.6544 8.56902 11.5689 8.43897 11.6739 8.32429C11.7788 8.2096 11.9282 8.16121 11.9864 8.08941C11.9754 8.07573 11.9605 8.06563 11.9437 8.06035C11.9824 7.99117 12.0413 7.93554 12.1127 7.90099C12.0836 7.87194 12.0447 7.84864 12.0021 7.84864C11.9068 7.84864 11.8485 7.90688 11.7612 7.90688C11.6758 7.90688 11.6661 7.86413 11.6661 7.86413C11.6661 7.86413 11.8098 7.85056 11.7961 7.78643C11.7825 7.71846 11.7577 7.71846 11.7577 7.71846C11.7577 7.71846 12.0353 7.60327 12.0839 7.54183C12.1324 7.48039 12.1266 7.40781 12.1363 7.37876C12.1692 7.37876 12.3615 7.27776 12.4392 7.32052C12.5169 7.36327 12.4625 7.47975 12.4625 7.47975C12.4625 7.47975 12.6976 7.30298 12.8174 7.12967C12.9223 7.1394 12.971 7.05786 13.0478 7.05786C13.1431 7.05786 13.2926 7.18791 13.3216 7.46554C13.3411 7.62477 13.3701 7.71603 13.3411 7.99763C13.3275 8.15686 13.3314 8.49683 13.3795 8.66553C13.4124 8.79955 13.4901 8.78598 13.4901 8.78598C13.4782 8.82681 13.4545 8.86326 13.4221 8.89081C13.3696 8.93932 13.3639 9.06758 13.3696 9.11609C13.3774 9.15156 13.3871 9.18656 13.3988 9.22092C13.3988 9.22092 13.3367 9.29273 13.3211 9.34137C13.3075 9.38988 13.2435 9.4229 13.1968 9.4229C13.1501 9.4229 13.1735 9.41893 13.1114 9.4229C13.0494 9.42687 13.0299 9.43647 12.991 9.4229C12.9521 9.40933 12.923 9.39372 12.9386 9.2693C12.9522 9.14502 12.459 8.85574 12.459 8.85574L11.6526 8.56838L11.6544 8.56902Z" fill="#CCA849"/>
<path fill-rule="evenodd" clip-rule="evenodd" d="M10.7282 9.796C10.7282 9.796 10.9048 10.031 11.6311 10.031C11.9767 10.031 12.0972 9.99799 12.1687 9.97853C12.2464 9.95907 12.5376 9.84464 12.8309 9.49891C13.095 9.18634 13.0367 9.05821 13.0367 9.05821L12.8831 9.03491L12.3839 9.10288L10.9067 9.732L10.7275 9.796H10.7282Z" fill="#585136"/>
<path fill-rule="evenodd" clip-rule="evenodd" d="M11.2699 9.85441C11.2699 9.85441 10.6408 9.9943 10.6408 9.59624C10.6408 9.2079 11.0291 8.80011 11.1263 8.7283C11.2273 8.65637 11.468 8.57471 11.468 8.57471H12.0486L12.1592 8.86794L12.1107 9.50088L11.2699 9.85428V9.85441Z" fill="#252211"/>
<path fill-rule="evenodd" clip-rule="evenodd" d="M11.8505 8.69335C11.8505 8.69335 11.7302 8.58263 11.4564 8.73175C11.1826 8.88087 10.9612 9.19256 10.9476 9.47557C10.934 9.72594 11.1534 9.91244 11.4952 9.92217C11.7495 9.93177 11.903 9.90271 11.9807 9.88377C11.9612 9.86047 11.8602 9.73426 11.8602 9.73426L11.8506 8.69348L11.8505 8.69335Z" fill="#C3B378"/>
<path fill-rule="evenodd" clip-rule="evenodd" d="M11.7321 8.75509C11.7321 8.75509 11.703 8.7318 11.6169 8.77839C11.5451 8.81679 11.4402 8.91828 11.3587 8.99009C11.3062 9.03284 11.2732 9.05217 11.2435 9.08519C11.1231 9.22893 11.0221 9.46393 11.0804 9.5804C11.1388 9.69688 11.3309 9.83089 11.8203 9.73963L11.7307 8.75522L11.7321 8.75509Z" fill="#E6D89C"/>
<path fill-rule="evenodd" clip-rule="evenodd" d="M11.5729 8.99612C11.5729 8.99612 11.4952 9.11657 11.4952 9.30883C11.4952 9.50493 11.6059 9.81751 12.0137 9.84081C12.3262 9.86026 12.5359 9.39037 12.7631 9.20784C12.9359 9.06806 13.0407 9.06409 13.0407 9.06409C13.0407 9.06409 12.8641 8.87209 12.3923 8.62338C11.9263 8.37288 11.4039 8.33986 11.1204 8.72437C11.2544 8.71465 11.6874 8.60392 11.6874 8.60392L11.8991 8.67189L11.5729 8.99625V8.99612Z" fill="#252211"/>
<path fill-rule="evenodd" clip-rule="evenodd" d="M12.1825 9.25051C12.169 9.22146 12.1592 9.18255 12.2155 9.17295C12.2718 9.16335 12.2971 9.16898 12.3165 9.21134C12.336 9.25371 12.3549 9.28904 12.3261 9.30658C12.2971 9.32206 12.2213 9.30658 12.1824 9.25026L12.1825 9.25051ZM12.0913 8.97672C12.0913 8.97672 12.0718 8.99029 12.0816 8.96316C12.0854 8.93026 12.1107 8.87189 12.1728 8.88559C12.2349 8.89929 12.2214 8.96712 12.2112 8.98658C12.201 9.00604 12.1491 9.03893 12.1102 9.02498C12.1053 9.02372 12.1007 9.02131 12.0969 9.01796C12.0931 9.0146 12.0901 9.01039 12.0882 9.00566C12.0863 9.00093 12.0855 8.99583 12.086 8.99076C12.0864 8.98568 12.0881 8.98079 12.0908 8.97647L12.0913 8.97672Z" fill="#6F674D"/>
<path fill-rule="evenodd" clip-rule="evenodd" d="M6.83521 9.10083C6.83521 9.10083 6.98881 9.21603 7.16724 9.21155C7.34388 9.20759 7.57108 9.02519 7.67591 8.90858C7.73799 8.84061 7.79111 8.7688 7.84871 8.71248C7.89735 8.66397 7.93025 8.64067 7.95354 8.60765C7.98656 8.56925 8.02151 8.49706 8.03904 8.47363C7.99629 8.50666 7.93421 8.56502 7.87008 8.60381C7.808 8.64221 7.67399 8.7144 7.61959 8.73386C7.56724 8.75331 7.02349 9.04106 7.02349 9.04106L6.83521 9.10083Z" fill="#AC924C"/>
<path fill-rule="evenodd" clip-rule="evenodd" d="M7.06989 7.66613C7.06989 7.66613 7.15526 7.60789 7.32038 7.5709C7.47961 7.5325 7.8 7.50293 7.8 7.50293L8.06406 7.61813L8.16889 8.01621L7.97689 8.42991L7.73229 8.58351L7.45453 8.13691L7.07053 7.6669L7.06989 7.66613Z" fill="#9F8E57"/>
<path fill-rule="evenodd" clip-rule="evenodd" d="M6.72442 8.02128L6.63303 8.0895C6.63303 8.0895 6.65645 8.04675 6.67578 7.9167C6.69511 7.78665 6.79623 7.4701 6.94381 7.28757C7.0914 7.10504 7.08756 7.11477 7.08756 7.11477C7.07398 7.11228 7.06002 7.11272 7.04662 7.11606C7.03323 7.11939 7.02069 7.12554 7.00986 7.1341C7.02932 7.09109 7.15361 6.93748 7.27789 6.86068C7.40218 6.78388 7.45069 6.75969 7.58074 6.82228C7.71079 6.88488 7.74382 6.91739 7.83905 6.91355C7.93428 6.90971 8.01569 6.80871 8.01569 6.80871C8.01569 6.80871 8.03515 6.8708 7.96334 7.01454C7.89153 7.15829 7.60801 7.45141 7.60801 7.45141L7.01767 7.85526L6.72442 8.02166V8.02128Z" fill="#EAC970"/>
<path fill-rule="evenodd" clip-rule="evenodd" d="M7.16116 7.61749C7.16116 7.61749 7.58842 7.67573 7.71847 7.55541C7.72231 7.56898 7.73792 7.56898 7.73792 7.5787C7.73688 7.58604 7.73346 7.59282 7.7282 7.59803C7.74234 7.59577 7.75663 7.59449 7.77095 7.59419C7.78805 7.59928 7.80564 7.60254 7.82343 7.60392C7.83776 7.60361 7.85204 7.60228 7.86618 7.59995C7.86483 7.6096 7.86155 7.61888 7.85654 7.62724C7.85152 7.6356 7.84488 7.64286 7.837 7.64859C7.85645 7.64859 7.8754 7.65243 7.8754 7.66792C7.8754 7.68341 7.87924 7.73013 7.85594 7.73986C7.83664 7.74519 7.8161 7.74379 7.7977 7.73589C7.79924 7.77265 7.80923 7.80857 7.82688 7.84085C7.86528 7.91266 7.9472 7.99445 8.05728 7.9709C8.05728 7.9709 8.1154 8.11067 7.87079 8.42133C7.83789 8.46408 7.80282 8.52232 7.7602 8.57083C7.74336 8.60754 7.73048 8.64595 7.7218 8.68539C7.7218 8.68539 8.13549 8.52616 8.25389 8.16302C8.37434 7.79797 8.39764 7.4388 8.37434 7.10293C8.37037 7.0077 8.35488 6.93986 8.33159 6.89122C8.27335 6.77077 8.11015 6.79022 8.04423 6.85819C7.949 6.95342 7.78977 7.19022 7.56845 7.3533C7.34317 7.51637 7.33357 7.5453 7.16064 7.61749H7.16116Z" fill="#D7BC6B"/>
<path fill-rule="evenodd" clip-rule="evenodd" d="M6.64855 8.1418C6.64855 8.1418 6.56701 8.19031 6.52426 8.3722C6.4815 8.55857 6.56266 8.78577 6.60963 8.85757C6.65661 8.92938 6.76324 9.12561 6.98442 9.13533C7.03917 9.13505 7.09331 9.12382 7.14366 9.10231C7.22087 9.06691 7.2933 9.02188 7.35921 8.9683C7.45445 8.89649 7.53202 8.83441 7.52229 8.82852C7.49899 8.81879 6.93591 8.35274 6.93591 8.35274L6.7242 8.11646L6.64842 8.14206L6.64855 8.1418Z" fill="#585136"/>
<path fill-rule="evenodd" clip-rule="evenodd" d="M7.18086 8.91461C7.18086 8.91461 7.29542 8.90501 7.36339 8.86225C7.43137 8.8195 6.9653 8.35742 6.9653 8.35742L6.99833 8.85662L7.18086 8.91461Z" fill="#453A25"/>
<path fill-rule="evenodd" clip-rule="evenodd" d="M6.68538 8.10679C6.68538 8.10679 6.62714 8.21751 6.62714 8.24669C6.61741 8.3418 6.64659 8.6408 6.66989 8.73591C6.69318 8.8369 6.81939 8.99024 6.98259 8.99024C7.08345 8.99024 7.22335 8.92816 7.22335 8.91268C7.22335 8.89322 7.07961 8.87428 7.04083 8.80196C7.01753 8.76356 7.0078 8.66807 7.00243 8.57156C6.99859 8.50948 6.99859 8.44151 7.02188 8.41796C7.07436 8.35972 7.08396 8.19268 7.08396 8.19268L7.27033 7.84644H7.02521L6.73197 8.02896L6.68538 8.10679Z" fill="#84754B"/>
<path fill-rule="evenodd" clip-rule="evenodd" d="M6.61368 8.21373C6.61368 8.21373 6.80567 7.9594 6.97873 7.90103C7.15178 7.84266 7.22922 7.87774 7.22922 7.87774L7.12823 8.13604L6.98448 8.29527L6.99421 8.3768C6.99421 8.3768 6.97079 8.59235 7.11453 8.74185C7.25827 8.89136 7.36502 8.8856 7.42723 8.8856C7.48943 8.8856 7.66799 8.83312 7.75925 8.61757C7.84078 8.41571 7.90875 8.15677 7.74568 7.89719C7.58633 7.63889 7.30486 7.62891 7.25046 7.62891C7.19606 7.62891 6.76894 7.65028 6.61368 8.21335V8.21373Z" fill="#252211"/>
<path fill-rule="evenodd" clip-rule="evenodd" d="M11.5437 9.07757C11.4719 9.04455 11.5398 8.8427 11.6117 8.78049C11.6835 8.71828 11.7747 8.64661 11.9341 8.63675C11.9922 8.63291 12.0485 8.66977 12.0389 8.70869C12.0254 8.78049 11.9244 8.88148 11.8331 8.95329C11.7069 9.05236 11.6252 9.11444 11.5437 9.07757Z" fill="#F7F7E7"/>
<path fill-rule="evenodd" clip-rule="evenodd" d="M7.66015 7.9768C7.71264 7.97296 7.78061 8.01521 7.79418 8.07204C7.80775 8.13412 7.76115 8.25842 7.66015 8.25842C7.57861 8.25842 7.53586 8.15742 7.53586 8.12836C7.53678 8.10447 7.54345 8.08115 7.55532 8.06039C7.55916 8.0545 7.56888 7.98653 7.66015 7.9768Z" fill="#F8F6DE"/>
<path fill-rule="evenodd" clip-rule="evenodd" d="M6.90286 8.02148C6.90286 8.02148 6.76884 8.08356 6.70676 8.21348C6.66241 8.30941 6.64899 8.41676 6.66836 8.52066C6.67809 8.56917 6.7266 8.68949 6.75963 8.73224C6.79265 8.77499 6.83733 8.80417 6.87035 8.8002C6.90337 8.79623 6.97121 8.70894 6.97121 8.65659C6.97121 8.60424 6.97518 8.38281 7.03918 8.26237C7.0955 8.14206 6.90325 8.02161 6.90325 8.02161L6.90286 8.02148Z" fill="#D4C38B"/>
<path fill-rule="evenodd" clip-rule="evenodd" d="M6.92236 8.01168C6.89906 8.02525 6.86028 8.0447 6.86988 8.06992C6.8796 8.09321 6.96114 8.10832 6.99032 8.16514C7.02335 8.22338 7.02335 8.28546 7.01362 8.31464C7.03898 8.30259 7.062 8.28612 7.08159 8.266C7.12434 8.21749 7.17669 8.15158 7.22137 8.15158C7.25055 8.15158 7.27961 8.16514 7.30687 8.16514C7.34962 8.16514 7.39225 8.15158 7.39814 8.10691C7.40774 8.04867 7.3166 7.99619 7.26412 8.00592C7.27385 7.96752 7.28741 7.91082 7.24466 7.87191C7.20191 7.833 7.06802 7.90109 7.03884 7.92055C7.00965 7.94 6.92236 8.01181 6.92236 8.01181V8.01168Z" fill="#E2D59D"/>
<path fill-rule="evenodd" clip-rule="evenodd" d="M10.0078 12.0912L10.2952 12.0063L10.3767 12.0646C10.3767 12.0646 10.4348 12.1889 10.5262 12.2044C10.497 12.2664 10.4212 12.3196 10.4252 12.3636C10.4292 12.4076 10.468 12.4413 10.468 12.4413C10.468 12.4413 10.2097 12.8684 10.7185 13.2989C10.598 13.3474 10.4447 13.4141 10.3631 13.4525C10.4212 13.4661 10.5455 13.4909 10.598 13.538C10.6505 13.5851 10.6505 13.6001 10.699 13.6293C10.7475 13.6584 10.7766 13.6972 10.767 13.7146C10.7339 13.6952 10.6232 13.6371 10.6039 13.6913C10.5846 13.7456 10.1243 13.7244 10.1243 13.7244L9.34758 13.8739C9.34758 13.8739 9.37663 13.7962 9.2951 13.7244C9.19999 13.639 9.08351 13.7282 8.95923 13.6331C8.79615 13.5088 8.79027 13.3651 8.73792 13.3108C8.79027 13.2778 8.89715 13.2293 9.15148 13.1956C9.14175 13.1761 9.10873 13.1179 9.12819 13.0655C9.15148 12.9976 9.24851 12.9548 9.21945 12.8735C9.2622 12.8638 9.28153 12.8638 9.38841 12.7298C9.4894 12.5958 9.55148 12.5667 9.62918 12.557C9.70688 12.5473 9.75347 12.557 9.89721 12.423C9.99807 12.3279 9.96518 12.2463 9.96518 12.2463C9.96518 12.2463 10.0311 12.225 10.0079 12.091L10.0078 12.0912Z" fill="#CBAC5A"/>
<path fill-rule="evenodd" clip-rule="evenodd" d="M9.15929 12.1344C9.16313 12.115 9.17875 12.1052 9.28358 12.115C9.38842 12.1247 10.0525 12.0529 10.2331 12.0432C10.4156 12.0296 11.0583 12.0392 11.371 12.1052C11.6837 12.1713 12.0002 12.249 12.1535 12.2877C12.3071 12.3305 12.3555 12.3458 12.3496 12.3653C12.3458 12.3848 12.3112 12.4037 12.2914 12.3983C12.272 12.3945 11.7632 12.2391 11.606 12.2063C11.4489 12.1736 10.905 12.0859 10.6076 12.0911C10.33 12.0951 10.2193 12.0873 9.98439 12.1144C9.74938 12.1436 9.36102 12.1824 9.24454 12.1669C9.12934 12.1534 9.15315 12.1534 9.15904 12.1339L9.15929 12.1344Z" fill="#D6BC6F"/>
<path fill-rule="evenodd" clip-rule="evenodd" d="M10.7223 13.6564C10.7223 13.6564 11.1203 13.872 11.2641 14.136C11.3689 14.3321 11.202 14.4293 11.202 14.4293C11.202 14.4293 11.4273 14.4293 11.3981 14.5536C11.3845 14.6311 11.0098 14.8408 10.7593 14.9515C10.5049 15.0622 10.5147 15.0565 10.3904 15.0758C10.2699 15.0953 9.93981 15.0374 9.87184 15.134C9.80387 15.2307 9.83344 15.3303 9.85238 15.3458C9.87184 15.3593 10.0292 15.3788 10.0292 15.3788C10.0292 15.3788 9.99613 15.47 9.66998 15.4798C9.34384 15.4895 9.26218 15.5127 9.24272 15.5477C9.22327 15.5806 9.3048 15.5613 9.45443 15.5861C9.60394 15.6094 9.8136 15.6245 9.8136 15.6245C9.8136 15.6245 9.74563 15.6828 9.56899 15.7294C9.36701 15.7817 9.05047 15.8304 8.95536 15.8886C9.00388 15.9216 9.07581 15.9701 9.10896 15.974C9.02743 15.9934 8.91274 16.0362 8.89341 16.0517C8.92247 16.0711 8.96138 16.0944 8.96138 16.0944C8.96138 16.0944 8.79818 16.2905 8.70308 16.3391C8.60797 16.3878 8.06039 16.642 7.87198 16.5935C7.40209 16.4692 7.34385 15.9546 7.22929 15.9159C7.05649 15.8576 6.97496 15.974 6.82149 15.8924C6.88946 15.8439 6.92645 15.8149 6.99825 15.7818C6.92056 15.7434 6.51864 15.4886 6.51864 15.4886C6.47661 15.397 6.42996 15.3076 6.37887 15.2207C6.30117 15.0867 6.18687 14.908 6.10111 14.7507C5.91474 14.4051 5.90501 14.2459 5.73605 14.0498C5.76524 14.0114 5.8661 14.0167 5.8661 14.0167L7.28177 14.4828L9.79197 14.5555L10.4448 13.6235L10.7224 13.6566L10.7223 13.6564Z" fill="#DFC677"/>
<path fill-rule="evenodd" clip-rule="evenodd" d="M7.00397 15.0776C7.01911 15.0945 7.03677 15.1089 7.05632 15.1204C7.10496 15.1534 7.17677 15.1923 7.22528 15.2504C7.24474 15.2213 7.29325 15.1689 7.37888 15.2504C7.46451 15.3319 7.57088 15.2738 7.63706 15.2932C7.70502 15.3166 7.70886 15.3262 7.70886 15.3262C7.70886 15.3262 7.74726 15.2932 7.83315 15.2582C7.88563 15.2388 7.94771 15.2252 8.01568 15.2059C8.07776 15.1923 8.14573 15.1728 8.19245 15.1728C8.2352 15.2019 8.38854 15.3648 9.0041 15.1243C9.5847 14.899 9.71859 14.8738 9.81574 14.9086C9.82547 14.8853 9.8352 14.8407 9.9847 14.8466C9.9847 14.7845 9.86042 14.5728 9.86042 14.5728L9.17498 14.3379H8.80006L7.67584 14.5437L7.05286 14.8992L7.00435 15.0784L7.00397 15.0776Z" fill="#C4A859"/>
<path fill-rule="evenodd" clip-rule="evenodd" d="M6.62912 14.6834C6.62912 14.6834 6.64269 14.7883 6.79808 14.899C6.95168 15.0096 6.99994 15.0756 6.99994 15.0756C6.99994 15.0756 7.02912 15.0372 7.05242 14.9981C7.07571 14.9553 7.09517 14.9068 7.13395 14.8932C7.21165 14.8602 7.38829 14.9223 7.4272 14.9126C7.46022 14.903 7.4505 14.835 7.48544 14.835C7.56698 14.831 7.61933 14.8873 7.64851 14.8873C7.6777 14.8873 7.74938 14.8835 7.7591 14.868C7.76883 14.8525 7.77267 14.6913 7.88339 14.6136C8.00384 14.5282 8.15142 14.565 8.19059 14.5845C8.19059 14.6136 8.19443 14.6855 8.27213 14.6893C8.34982 14.6932 8.3575 14.6796 8.42573 14.7029C8.49395 14.7262 8.57523 14.6991 8.6121 14.8135C8.64512 14.8039 8.72282 14.7942 8.70336 14.6834C8.74176 14.6544 8.7753 14.6349 8.85696 14.5204C8.87642 14.4913 8.90931 14.4583 8.93466 14.4155C9.00262 14.4155 9.08416 14.402 9.19283 14.4971C9.15981 14.5204 9.14035 14.5355 9.13075 14.5592C9.15917 14.5873 9.18512 14.6178 9.20832 14.6504C9.2375 14.6888 9.25696 14.7359 9.29382 14.7457C9.37536 14.7689 9.50937 14.7359 9.65888 14.7457C9.80262 14.7554 9.92294 14.8077 9.97542 14.8408C9.99488 14.8312 9.99488 14.8272 10.0434 14.8369C10.0919 14.8466 10.1288 14.8505 10.0764 14.7884C10.1055 14.802 10.1385 14.8312 10.1677 14.802C10.1969 14.7728 10.22 14.7302 10.3016 14.7204C10.3831 14.7107 10.4123 14.7243 10.4453 14.6389C10.4881 14.5341 10.3405 14.5341 10.3405 14.5341C10.3405 14.5341 10.4084 14.4719 10.4842 14.3903C10.5755 14.3049 10.6803 14.1942 10.7055 14.0583C10.7483 13.8078 10.5037 13.7749 10.5037 13.7749L9.31725 14.14L7.86675 14.068L6.62989 14.6836L6.62912 14.6834Z" fill="#927D49"/>
<path fill-rule="evenodd" clip-rule="evenodd" d="M5.5631 11.2563C5.5631 11.2563 5.5247 11.3048 5.50102 11.4194C5.47734 11.5339 5.48746 11.5204 5.468 11.6019C5.44854 11.6834 5.20957 12.4951 5.29917 12.7689C5.38877 13.0427 5.5439 13.1437 5.64093 13.365C5.66038 13.4135 5.67933 13.4427 5.68944 13.4855C5.72246 13.6291 5.69341 13.7398 5.73219 13.8836C5.74576 13.9321 5.78083 13.9884 5.83318 14.0466C5.94838 14.1669 6.13616 14.2815 6.21718 14.363C6.33161 14.4835 6.49481 14.7282 6.70255 14.7514C6.81327 14.765 6.97058 14.7184 7.10063 14.6408C7.21583 14.5689 7.287 14.468 7.40783 14.4104C7.49321 14.3677 7.58447 14.3522 7.666 14.3327C7.83496 14.2997 7.98843 14.2943 8.0797 14.3133C8.21947 14.3424 8.54958 14.4434 8.73249 14.4434C8.87542 14.4411 9.01755 14.4216 9.15579 14.3852C9.43342 14.3037 9.76929 14.1637 9.99073 14.1017C10.1208 14.0633 10.2256 14.0532 10.3325 14.0299C10.515 13.9871 10.6684 13.9289 10.7558 13.8181C10.6975 13.7502 10.6257 13.6453 10.2373 13.6492C9.79655 13.6589 9.28776 13.9035 9.03726 13.9424C8.78677 13.9813 8.67809 14.0142 8.39842 13.9132C8.12424 13.8112 8.11515 13.7438 8.11515 13.7438C8.11515 13.7438 7.82728 13.5424 7.70684 13.0291C7.58639 12.5158 7.70684 12.1418 8.01954 11.7863C8.10107 11.6951 8.08162 11.6135 8.08162 11.6135C8.08162 11.6135 8.28744 11.3359 8.23112 11.0759C8.16904 10.8176 7.77096 10.8701 7.77096 10.8701L5.56323 11.2563H5.5631Z" fill="#6E6342"/>
<path fill-rule="evenodd" clip-rule="evenodd" d="M5.89511 12.1206C5.87799 12.1528 5.86994 12.189 5.87182 12.2254C5.87566 12.2778 5.89127 12.3457 6.04846 12.4992C6.18247 12.6331 6.15329 12.7826 6.15329 12.7826C6.15329 12.7826 6.22074 12.7961 6.40378 12.7105C6.54753 12.6425 6.59578 12.763 6.59578 12.763C6.63763 12.741 6.68298 12.7266 6.7298 12.7202C6.77222 12.7163 6.81328 12.7032 6.85012 12.6818C6.85012 12.6818 7.01908 12.8546 7.16666 12.9361C7.30068 13.0081 7.37837 13.0566 7.44442 13.0081C7.5065 12.9653 7.5065 12.8779 7.50253 12.8391C7.48713 12.8033 7.46763 12.7694 7.44442 12.7381C7.40167 12.6761 7.3337 12.6041 7.32922 12.5462C7.31949 12.4123 7.43021 12.2529 7.40679 12.2142C7.38336 12.1754 7.2962 12.1657 7.08064 12.2433C6.85741 12.3171 5.89422 12.121 5.89422 12.121L5.89511 12.1206Z" fill="#39331F"/>
<path fill-rule="evenodd" clip-rule="evenodd" d="M6.40385 12.9884C6.40385 12.9884 6.2933 12.8836 6.33207 12.3748C6.379 12.3741 6.42587 12.3787 6.47179 12.3884C6.47179 12.3884 6.53206 12.7826 6.40385 12.9884Z" fill="#292311"/>
<path fill-rule="evenodd" clip-rule="evenodd" d="M5.61556 10.8679C5.63099 10.8565 5.6453 10.8436 5.65831 10.8295C5.61991 10.9013 5.44263 11.1887 5.58637 11.6411C5.73012 12.0916 6.0912 12.4274 6.53588 12.443C6.98055 12.4587 7.21428 12.2411 7.48154 11.9149C7.58637 11.7849 7.70682 11.6217 7.81357 11.5111C7.9728 11.3382 8.09709 11.2896 8.09709 11.1227C8.09709 10.781 7.74752 10.6275 7.23296 10.4742C6.7184 10.3208 6.25428 10.3398 6.01351 10.4447C5.77863 10.5592 5.67764 10.6796 5.61543 10.868L5.61556 10.8679Z" fill="#252211"/>
<path fill-rule="evenodd" clip-rule="evenodd" d="M7.26796 13.1417L7.30636 13.1223C7.30636 13.1223 7.31596 12.9686 7.37816 12.9727C7.44023 12.9825 7.46941 13.0641 7.46352 13.0932C7.45968 13.1222 7.4442 13.1709 7.382 13.165C7.30047 13.1669 7.26758 13.1417 7.26758 13.1417H7.26796Z" fill="#3F3824"/>
<path fill-rule="evenodd" clip-rule="evenodd" d="M7.09509 12.4891C7.09509 12.4891 7.13349 12.4756 7.18047 12.5222C7.21887 12.5222 7.38629 12.5027 7.43877 12.5358C7.49125 12.5688 7.50674 12.5979 7.50674 12.5979C7.50674 12.5979 7.31064 12.6407 7.20376 12.5979C7.09509 12.561 7.09509 12.4891 7.09509 12.4891Z" fill="#2D2815"/>
<path fill-rule="evenodd" clip-rule="evenodd" d="M7.95933 12.5184C7.95933 12.5086 7.85451 12.4368 7.7438 12.4134C7.72435 12.4096 7.72038 12.4232 7.7054 12.4232C7.69568 12.4193 7.69184 12.3901 7.69184 12.3901L7.62887 12.4233C7.62887 12.4233 7.61914 12.4368 7.65216 12.4617C7.68122 12.485 7.72985 12.5044 7.74342 12.5432C7.75698 12.582 7.75698 12.5955 7.76287 12.6014C7.76671 12.6052 7.83467 12.6014 7.86769 12.582C7.90071 12.5625 7.96291 12.5308 7.95894 12.518L7.95933 12.5184Z" fill="#82764F"/>
<path fill-rule="evenodd" clip-rule="evenodd" d="M6.97876 12.9127C6.97876 12.9127 6.99809 12.7789 7.12826 12.773C7.26215 12.7633 7.2875 12.8932 7.2875 12.8932L7.2098 12.9709C7.2098 12.969 7.15156 12.8875 6.9794 12.9127H6.97876Z" fill="#2D2816"/>
<path fill-rule="evenodd" clip-rule="evenodd" d="M7.82337 12.3358C7.82337 12.3358 7.75143 12.4135 7.59233 12.4368C7.57877 12.4174 7.54958 12.3786 7.59233 12.3165C7.63509 12.2544 7.6836 12.2349 7.73211 12.2542C7.75351 12.2577 7.77348 12.2672 7.78965 12.2817C7.80582 12.2961 7.81752 12.3149 7.82337 12.3358Z" fill="#574F35"/>
<path fill-rule="evenodd" clip-rule="evenodd" d="M8.11648 12.431C8.12045 12.4115 8.10688 12.4077 8.11648 12.3979C8.12608 12.3882 8.17869 12.3689 8.18842 12.3785C8.19226 12.3825 8.18842 12.3979 8.18842 12.4169C8.18842 12.4358 8.18842 12.4553 8.17869 12.4692C8.16512 12.4887 8.12634 12.4984 8.10688 12.4926C8.08743 12.4869 8.08359 12.4596 8.08359 12.4543C8.09319 12.4504 8.11648 12.4407 8.11648 12.431ZM8.448 12.2213C8.448 12.2116 8.48103 12.1921 8.50048 12.1921C8.52954 12.1921 8.52954 12.2154 8.53351 12.2213C8.54311 12.2252 8.54311 12.2174 8.55284 12.2349C8.56256 12.2524 8.57626 12.2834 8.5664 12.3028C8.55655 12.3223 8.51789 12.3357 8.50829 12.3319C8.49472 12.3222 8.45197 12.2349 8.448 12.2213Z" fill="#82764F"/>
<path fill-rule="evenodd" clip-rule="evenodd" d="M7.78061 12.4757C7.78061 12.4757 7.82336 12.4853 7.8816 12.534C7.86214 12.5475 7.83296 12.563 7.83296 12.563C7.83296 12.563 7.82912 12.5183 7.78061 12.4756V12.4757Z" fill="#6E6342"/>
<path fill-rule="evenodd" clip-rule="evenodd" d="M7.68549 12.0486C7.67577 12.039 7.71455 12.0157 7.73785 12.0196C7.76115 12.0234 7.77087 12.039 7.79609 12.0429C7.82131 12.0467 7.82528 12.0331 7.83449 12.0234C7.84371 12.0137 7.87725 12.0196 7.88301 12.0234C7.88659 12.0277 7.88985 12.0322 7.89273 12.037C7.89314 12.0296 7.89507 12.0224 7.89839 12.0158C7.90172 12.0092 7.90637 12.0033 7.91206 11.9986C7.91951 11.9931 7.9281 11.9894 7.93719 11.9877C7.94628 11.986 7.95563 11.9864 7.96454 11.9889C7.96838 12.0024 7.98784 12.0509 7.984 12.0607C7.98016 12.0704 7.92192 12.0841 7.91206 12.0742C7.92179 12.0977 7.96454 12.1462 7.9703 12.1558C7.97607 12.1654 7.92755 12.1888 7.90822 12.185C7.88109 12.183 7.71404 12.0859 7.68498 12.049L7.68549 12.0486ZM7.93984 11.7263C7.93624 11.7165 7.92937 11.7083 7.92038 11.703C7.90682 11.6992 7.86214 11.703 7.86214 11.7263C7.86214 11.7496 7.90054 11.8799 7.94368 11.9478C7.99232 12.0157 8.02522 12.0719 8.05824 12.0875C8.06861 12.0923 8.08039 12.0929 8.09119 12.0893C8.102 12.0857 8.11104 12.0781 8.11649 12.0681C8.12033 12.0584 8.13005 11.9866 8.12621 11.8176C8.12237 11.6486 8.11649 11.4856 8.10676 11.4758C8.09703 11.4661 8.05824 11.4662 8.04468 11.4856C8.03111 11.5049 7.94368 11.6973 7.93971 11.7263H7.93984Z" fill="#585136"/>
<path fill-rule="evenodd" clip-rule="evenodd" d="M7.76707 12.7203C7.76707 12.7203 7.69909 12.6775 7.63303 12.7067C7.57094 12.7359 7.57478 12.8505 7.57478 12.8505C7.58875 12.8559 7.60385 12.8579 7.61875 12.8562C7.63366 12.8545 7.64792 12.8492 7.6603 12.8407C7.70306 12.8117 7.75734 12.7632 7.76707 12.7204V12.7203Z" fill="#574F35"/>
<path fill-rule="evenodd" clip-rule="evenodd" d="M7.89512 12.8739C7.89128 12.8355 7.85672 12.8355 7.85672 12.8156C7.8591 12.8061 7.86459 12.7977 7.87232 12.7917C7.88005 12.7858 7.88957 12.7825 7.89934 12.7826C7.9188 12.7826 7.93774 12.8059 7.96155 12.821C7.98485 12.8346 8.01979 12.8594 8.02363 12.889C8.02747 12.9185 7.98523 12.9996 7.93826 12.9996C7.89128 12.9996 7.90523 12.9121 7.8955 12.8734L7.89512 12.8739ZM8.2699 12.8214C8.2699 12.8214 8.19221 12.8447 8.19797 12.8214C8.20373 12.7981 8.22139 12.7923 8.24661 12.7923C8.25942 12.7789 8.27665 12.7706 8.29512 12.7689C8.30568 12.7684 8.31606 12.7719 8.32418 12.7786C8.32418 12.7786 8.37666 12.7553 8.39214 12.7689C8.40763 12.7825 8.39611 12.7825 8.40571 12.7981C8.41794 12.8154 8.42596 12.8354 8.42914 12.8563C8.42914 12.8718 8.3709 12.9048 8.32418 12.8991C8.2699 12.8874 8.2795 12.8311 8.2699 12.8214ZM8.72226 12.734C8.72226 12.734 8.74555 12.7475 8.72622 12.7631C8.71266 12.7767 8.64469 12.8015 8.58632 12.8059C8.52808 12.8059 8.47573 12.8155 8.47573 12.7962C8.47573 12.7768 8.52424 12.7379 8.5533 12.7282C8.55912 12.7209 8.56653 12.715 8.57495 12.711C8.58337 12.7069 8.5926 12.7049 8.60194 12.7049C8.62523 12.7049 8.71637 12.6952 8.74171 12.6913C8.76501 12.6874 8.78446 12.7009 8.77077 12.7204C8.76501 12.734 8.72226 12.734 8.72226 12.734ZM8.85627 12.1344C8.85627 12.1344 8.82709 12.1965 8.79419 12.1965C8.76117 12.1926 8.76117 12.1829 8.76117 12.1732C8.76117 12.1596 8.79419 12.1247 8.79022 12.1149C8.78062 12.1149 8.7572 12.1149 8.76117 12.0916C8.76117 12.0722 8.79419 12.0489 8.82325 12.0532C8.8452 12.0352 8.87254 12.025 8.90094 12.0242C8.93397 12.0242 8.96302 12.0338 8.96302 12.0532C8.96302 12.0727 8.92462 12.1153 8.91054 12.1252C8.89506 12.1407 8.8756 12.1508 8.85627 12.1348V12.1344ZM8.41352 13.2819C8.41352 13.2819 8.37512 13.2859 8.37512 13.3052C8.37512 13.315 8.38472 13.315 8.39842 13.3092C8.40631 13.3088 8.41412 13.3074 8.42171 13.3052C8.42555 13.3092 8.42555 13.3285 8.45474 13.3285C8.4787 13.3253 8.50179 13.3174 8.5227 13.3052C8.546 13.2956 8.56546 13.2858 8.56546 13.2668C8.55573 13.2338 8.53627 13.2182 8.50722 13.2182C8.49233 13.2173 8.47748 13.2206 8.46446 13.2279C8.46446 13.2279 8.45474 13.2085 8.42171 13.2279C8.38869 13.2474 8.39253 13.2474 8.40226 13.2571C8.41966 13.2726 8.4139 13.2827 8.4139 13.2827L8.41352 13.2819ZM8.19413 13.4839C8.19413 13.4742 8.24264 13.4548 8.25621 13.4606C8.26978 13.4645 8.30856 13.5382 8.30856 13.546C8.30856 13.5557 8.26005 13.579 8.24059 13.579C8.22114 13.579 8.18824 13.546 8.18824 13.5406C8.18824 13.5368 8.21154 13.531 8.21154 13.5271C8.2173 13.5175 8.19413 13.494 8.19413 13.4843V13.4839ZM8.04053 13.2004C8.05026 13.1966 8.05026 13.1868 8.06382 13.1771C8.06807 13.1743 8.07291 13.1725 8.07797 13.1718C8.08303 13.1711 8.08817 13.1716 8.09301 13.1733C8.09643 13.1672 8.10117 13.1619 8.10688 13.1578C8.11259 13.1538 8.11914 13.1511 8.12603 13.1498C8.14933 13.146 8.16878 13.1498 8.16443 13.1596C8.16443 13.1888 8.18389 13.2081 8.18389 13.2314C8.18389 13.2547 8.17032 13.2839 8.12181 13.3033C8.0733 13.3169 8.00725 13.3169 7.99752 13.3131C7.98779 13.3092 7.97806 13.2703 7.98779 13.2508C7.99752 13.2314 8.02466 13.2101 8.04027 13.2004H8.04053Z" fill="#82764F"/>
<path fill-rule="evenodd" clip-rule="evenodd" d="M8.10247 13.2136C8.10247 13.2136 8.06943 13.2331 8.06943 13.2428C8.0665 13.2522 8.0652 13.262 8.06559 13.2718C8.06559 13.2776 8.10836 13.268 8.11413 13.2621C8.11605 13.2583 8.10247 13.2237 8.10247 13.2136Z" fill="#6E6342"/>
<path fill-rule="evenodd" clip-rule="evenodd" d="M7.81358 13.1222C7.8329 13.1262 7.86592 13.1222 7.89114 13.1319C7.91059 13.1417 7.92416 13.1611 7.90471 13.1844C7.88525 13.2077 7.86631 13.2426 7.82318 13.2367C7.77467 13.2329 7.72808 13.2077 7.72808 13.1882C7.72726 13.1759 7.7289 13.1636 7.7329 13.1519C7.7369 13.1403 7.74318 13.1295 7.75137 13.1203C7.77083 13.1048 7.78043 13.1145 7.81345 13.1222H7.81358Z" fill="#585136"/>
<path fill-rule="evenodd" clip-rule="evenodd" d="M7.79028 13.1418C7.79028 13.1418 7.7282 13.1904 7.71258 13.2138C7.69312 13.2371 7.59802 13.3574 7.56896 13.3826C7.57861 13.3656 7.58961 13.3494 7.60186 13.3341C7.56345 13.3587 7.53467 13.3957 7.52032 13.4389C7.49702 13.5109 7.6505 13.5497 7.75137 13.5788C7.85224 13.608 7.89128 13.6172 7.89128 13.6172C7.85414 13.5614 7.82226 13.5023 7.79604 13.4406C7.75764 13.3493 7.7378 13.3396 7.76302 13.2969C7.78247 13.2541 7.81166 13.225 7.81166 13.192C7.80001 13.1613 7.79028 13.1418 7.79028 13.1418Z" fill="#574F35"/>
<path fill-rule="evenodd" clip-rule="evenodd" d="M5.57667 13.2951C5.5908 13.2977 5.60529 13.2977 5.61942 13.2951C5.64848 13.2912 5.95145 13.1799 6.268 13.1999C6.50496 13.2142 6.73984 13.2528 6.96892 13.3151C7.367 13.4199 7.8621 13.6277 8.18248 13.7462C8.26786 13.7791 8.35144 13.8375 8.41288 13.8607C8.65761 13.9559 8.66721 13.9559 8.81096 13.9811C8.97992 14.0044 9.15271 13.9481 9.33332 13.9093C9.55463 13.8607 9.93325 13.8374 10.2653 13.7889C10.3726 13.774 10.4785 13.75 10.5818 13.7171C10.5818 13.7171 10.3178 13.9811 9.68468 14.0762C9.42878 14.1151 9.16874 14.1184 8.91195 14.086C8.70997 14.0665 8.57608 14.0373 8.47509 14.0083C8.36053 13.9752 8.12552 13.8878 7.83624 13.8163C7.63426 13.7638 7.40898 13.725 7.15081 13.6765C6.51388 13.5599 5.82269 13.426 5.57642 13.2959L5.57667 13.2951Z" fill="#252211"/>
<path fill-rule="evenodd" clip-rule="evenodd" d="M4.86201 12.0955C4.70841 12.2255 4.54547 12.3498 4.38637 12.4701L3.90676 12.8386C3.74368 12.9589 3.58445 13.0832 3.42125 13.2037C3.25806 13.3241 3.09511 13.4386 2.92206 13.5493C3.07566 13.4192 3.2386 13.2988 3.40167 13.1804C3.56474 13.062 3.73383 12.9459 3.89114 12.8258L4.37075 12.4568C4.53574 12.3365 4.69497 12.2122 4.86201 12.0957V12.0955ZM4.01351 13.4547C4.01351 13.4547 4.18631 13.3109 4.40186 13.1091C4.66976 12.8587 4.99795 12.5382 5.10278 12.4801L4.01338 13.4548L4.01351 13.4547Z" fill="#CFB66C"/>
<path fill-rule="evenodd" clip-rule="evenodd" d="M4.01352 13.4542C4.09902 13.3688 4.19029 13.2854 4.28155 13.2037L4.42133 13.0834C4.46408 13.045 4.51272 13.0019 4.55534 12.9591C4.64072 12.8738 4.7243 12.7824 4.80968 12.6951C4.852 12.6512 4.89674 12.6097 4.9437 12.5708C4.96717 12.55 4.99325 12.5324 5.02126 12.5183C5.04469 12.5048 5.0699 12.4799 5.1028 12.4756C5.08347 12.5048 5.06018 12.5183 5.04072 12.5435C5.01742 12.563 4.99797 12.5863 4.97864 12.6056C4.93589 12.6484 4.88738 12.6872 4.84462 12.7261C4.75336 12.8038 4.65826 12.8797 4.56699 12.9609C4.47573 13.0422 4.39035 13.1299 4.29896 13.2114C4.20002 13.295 4.10875 13.3765 4.01352 13.4546V13.4542ZM5.17474 12.6776C5.17474 12.6776 4.54178 13.297 4.4116 13.3979L5.17474 12.6776Z" fill="#CFB66C"/>
<path fill-rule="evenodd" clip-rule="evenodd" d="M5.17476 12.6777C5.11782 12.7436 5.05677 12.8059 4.99197 12.8641L4.79997 13.0466C4.73789 13.1087 4.67953 13.1709 4.61361 13.233C4.54564 13.2912 4.48356 13.3482 4.41162 13.402L4.59799 13.2194C4.6602 13.1574 4.72816 13.105 4.79421 13.0428L4.98058 12.8603C5.04458 12.7963 5.10679 12.7341 5.17476 12.6777ZM5.20381 13.0136C5.14547 13.1764 5.07672 13.3354 4.99799 13.4894C4.83492 13.8157 4.59031 14.2233 4.48343 14.4312L5.20381 13.0136Z" fill="#CFB66C"/>
<path fill-rule="evenodd" clip-rule="evenodd" d="M5.20382 13.0137C5.20382 13.0855 5.18436 13.1477 5.16106 13.2098C5.13836 13.2719 5.11247 13.3329 5.0835 13.3923C5.05431 13.4506 5.02129 13.5128 4.98826 13.5691C4.95524 13.6254 4.91646 13.6836 4.88727 13.7419L4.69118 14.0876C4.62321 14.2028 4.55716 14.3186 4.48535 14.4293C4.53386 14.305 4.59991 14.1886 4.66212 14.074C4.73009 13.9588 4.79217 13.8436 4.85412 13.7244C4.88437 13.665 4.91158 13.6041 4.93566 13.542C4.96471 13.4798 4.99377 13.4215 5.01719 13.3652C5.04625 13.3031 5.06954 13.2447 5.09873 13.1885C5.13162 13.1282 5.15889 13.07 5.20356 13.0137H5.20382Z" fill="#CFB66C"/>
<path fill-rule="evenodd" clip-rule="evenodd" d="M5.89512 14.6057C5.89512 14.6057 5.70313 14.86 5.72233 15.1824C5.77468 15.0135 5.84073 14.7552 5.89512 14.6057ZM6.07765 14.8607C6.07765 14.8607 6.00968 15.5519 5.95336 15.8917C6.03298 15.4989 6.04847 15.5319 6.07765 14.8607ZM7.34944 15.9326C7.34944 15.9326 7.06208 16.7774 7.0562 17.0121C7.1184 16.7707 7.23872 16.2775 7.34944 15.9319V15.9326Z" fill="#DEC270"/>
<path fill-rule="evenodd" clip-rule="evenodd" d="M8.02142 14.5537C8.02142 14.5537 8.48747 15.3226 8.83704 15.9789C8.74245 15.6486 8.52485 15.0429 8.02142 14.5537Z" fill="#CBAF59"/>
<path fill-rule="evenodd" clip-rule="evenodd" d="M9.27386 15.6855C9.52975 16.1379 9.7605 16.6039 9.96506 17.0816C9.92628 16.7515 9.82132 16.1865 9.27386 15.6855Z" fill="#E3C677"/>
<path fill-rule="evenodd" clip-rule="evenodd" d="M12.9554 16.8192C13.033 16.7707 13.1864 16.5065 13.3205 16.4405C13.4544 16.3726 13.5553 16.359 13.6758 16.225C13.7961 16.0851 13.8294 15.9997 14.0932 15.8891C14.4622 15.7298 14.2084 15.5239 14.2084 15.5239C14.2491 15.484 14.2925 15.4471 14.3385 15.4133C14.4337 15.3415 14.5443 15.2541 14.5347 15.1006C14.5211 14.8425 14.4726 14.4677 14.2609 14.2502C14.4667 14.2075 14.8608 14.1784 15.1057 14.1163C15.3891 14.0444 15.5193 13.9434 15.5193 13.9434C15.5193 13.9434 15.3562 13.6658 15.6203 13.3862C15.8843 13.1067 16.0999 12.9396 16.2591 12.6269C16.0766 12.6036 15.7983 12.5066 15.0882 12.7764C15.1265 12.7945 15.1635 12.8152 15.1989 12.8385C15.1989 12.8385 14.762 12.9589 14.6028 13.093C14.325 13.3278 14.2901 13.5201 13.9891 13.6638C13.6882 13.8076 13.3852 13.7687 13.1349 13.8852C12.8845 14.0016 12.8475 14.1007 12.7561 14.1435C12.7756 14.1668 12.7523 14.2055 12.7891 14.2386C12.7658 14.2716 12.6299 14.4929 12.492 14.4929C12.5056 14.5454 12.6221 14.5842 12.6221 14.5842C12.6221 14.5842 12.5367 14.6464 12.3192 14.6619C12.4298 14.7771 12.5348 14.9026 12.8241 15.0852C12.8008 15.1337 12.7036 15.2056 12.7425 15.2969C12.7853 15.3881 12.8961 15.5124 13.3386 15.6134C13.1134 15.623 12.8494 15.6755 12.4938 15.627C12.1385 15.5842 12.0803 15.559 11.8609 15.6134C11.8842 15.6367 11.9462 15.6367 12.0006 15.6988C11.9424 15.7026 11.5774 15.656 11.4531 15.8192C11.323 15.9881 11.2667 16.2658 11.2764 16.4522C11.2085 16.4852 11.1424 16.5435 11.1754 16.6639C11.2085 16.7844 11.3813 16.8231 11.492 16.8988C11.6026 16.9803 11.6123 17.0094 11.7173 16.99C11.8278 16.9668 11.9909 16.8562 12.0862 16.8562C12.1814 16.8562 12.2492 16.928 12.2492 16.928C12.2492 16.928 12.5075 16.8037 12.5327 16.827C12.556 16.8503 12.5366 16.9998 12.5618 17.0231C12.5874 17.0406 12.8784 16.8678 12.956 16.8192H12.9554Z" fill="#ECD592"/>
<path fill-rule="evenodd" clip-rule="evenodd" d="M18.6001 9.04854C17.3865 5.91459 14.3864 5.33398 14.3864 5.33398H5.82722L5.86024 8.52618H7.56482V15.6544H5.82709V18.8408H14.1495C16.1553 18.8408 17.7631 16.8252 17.7631 16.8252C20.3378 13.1709 18.6 9.04854 18.6 9.04854H18.6001ZM14.1942 14.6776C14.1942 14.6776 13.5414 15.6194 12.8311 15.6194H11.4103L11.3767 8.53398H13.2C13.2 8.53398 14.0448 8.71062 14.635 10.3824C14.635 10.3824 15.4175 12.776 14.1942 14.6776Z" fill="white" fill-opacity="0.8"/>
</svg>
