<svg width="24" height="24" viewBox="0 0 24 24" fill="none" xmlns="http://www.w3.org/2000/svg">
<circle cx="12" cy="12" r="12" fill="#E6007A"/>
<g clip-path="url(#clip0)">
<path d="M12.0803 4C8.73828 4.01342 6.03235 6.7193 6.01892 10.0612C6.01892 10.7305 6.12695 11.3953 6.33854 12.03C6.49644 12.4622 6.96501 12.6948 7.40481 12.5612C7.82991 12.3982 8.05556 11.9335 7.92004 11.4988C7.74041 11.0041 7.66051 10.4793 7.68416 9.95382C7.75703 7.54007 9.77258 5.64219 12.1864 5.71506C14.6002 5.78793 16.4981 7.80344 16.4252 10.2172C16.3568 12.4769 14.5772 14.3121 12.32 14.4495C12.32 14.4495 11.4691 14.5013 11.046 14.5531C10.89 14.5755 10.7353 14.6062 10.5825 14.6451C10.5608 14.6675 10.5256 14.6675 10.5032 14.6458L10.5026 14.6451C10.4873 14.6253 10.4873 14.5972 10.5026 14.5774L10.6343 13.8589L11.4333 10.2651C11.5292 9.81638 11.2435 9.37467 10.7947 9.27879C10.346 9.1829 9.90426 9.46864 9.80838 9.91738C9.80838 9.91738 7.9079 18.7139 7.9079 18.7938C7.79922 19.2214 8.05748 19.6561 8.48514 19.7648C8.48961 19.766 8.49472 19.7673 8.4992 19.768H8.54331C8.97032 19.8785 9.40629 19.6216 9.51624 19.1946C9.51816 19.1875 9.52008 19.1805 9.52136 19.1728C9.52008 19.1594 9.52008 19.146 9.52136 19.1332C9.54501 19.0296 9.78473 17.8592 9.78473 17.8592C9.96627 16.9758 10.6784 16.2988 11.5695 16.162C11.753 16.1339 12.5239 16.0821 12.5239 16.0821C15.8531 15.7504 18.2829 12.7824 17.9505 9.4533C17.6475 6.41694 15.132 4.07926 12.0803 4Z" fill="white"/>
<path d="M12.4478 17.9755C11.9012 17.8617 11.3668 18.2127 11.253 18.7586C11.2518 18.7637 11.2511 18.7688 11.2498 18.7739C11.1316 19.3166 11.4755 19.8529 12.0188 19.9712C12.0195 19.9712 12.0201 19.9712 12.0208 19.9718H12.0489C12.5807 20.1003 13.1158 19.773 13.2436 19.2418C13.2449 19.238 13.2456 19.2335 13.2468 19.2297V19.1741C13.3408 18.6256 12.9905 18.0995 12.4478 17.9755Z" fill="white"/>
</g>
<defs>
<clipPath id="clip0">
<rect width="11.9622" height="16" fill="white" transform="translate(6.01892 4)"/>
</clipPath>
</defs>
</svg>
