<?xml version="1.0" encoding="UTF-8" standalone="no"?><!DOCTYPE svg PUBLIC "-//W3C//DTD SVG 1.1//EN" "http://www.w3.org/Graphics/SVG/1.1/DTD/svg11.dtd"><svg width="25px" height="25px" version="1.1" xmlns="http://www.w3.org/2000/svg" xmlns:xlink="http://www.w3.org/1999/xlink" xml:space="preserve" xmlns:serif="http://www.serif.com/" style="fill-rule:evenodd;clip-rule:evenodd;stroke-linejoin:round;stroke-miterlimit:2;"><g id="Layer_2"><g id="Layer_1-2"><circle cx="12.702" cy="12.97" r="12" style="fill:rgb(13,2,43);"/><path d="M17.202,8.47c-0.06,-0.048 -0.094,-0.121 -0.094,-0.198c-0,-0.076 0.034,-0.149 0.094,-0.197c0.125,-0.104 0.309,-0.104 0.435,-0c0.057,0.049 0.09,0.122 0.09,0.197c0,0.076 -0.033,0.149 -0.09,0.198c-0.06,0.052 -0.136,0.082 -0.215,0.085c-0.084,0.012 -0.167,-0.02 -0.22,-0.085Z" style="fill:white;fill-rule:nonzero;"/><path d="M16.452,9.255c-0.05,-0.055 -0.079,-0.126 -0.08,-0.2c0.003,-0.074 0.031,-0.144 0.08,-0.2c0.112,-0.104 0.287,-0.104 0.4,-0c0.048,0.056 0.076,0.126 0.08,0.2c-0.002,0.074 -0.031,0.145 -0.08,0.2c-0.056,0.049 -0.127,0.077 -0.2,0.08c-0.075,-0.002 -0.146,-0.03 -0.2,-0.08Z" style="fill:white;fill-rule:nonzero;"/><path d="M15.632,10.03c-0.051,-0.054 -0.079,-0.126 -0.08,-0.2c0.001,-0.074 0.03,-0.145 0.08,-0.2c0.112,-0.104 0.287,-0.104 0.4,-0c0.052,0.053 0.081,0.125 0.08,0.2c-0.004,0.074 -0.032,0.144 -0.08,0.2c-0.053,0.053 -0.126,0.082 -0.2,0.08c-0.075,0.001 -0.147,-0.028 -0.2,-0.08Z" style="fill:white;fill-rule:nonzero;"/><path d="M14.847,10.815c-0.061,-0.049 -0.096,-0.122 -0.095,-0.2c0,-0.077 0.035,-0.15 0.095,-0.2c0.125,-0.104 0.309,-0.104 0.435,-0c0.058,0.05 0.091,0.123 0.09,0.2c-0.001,0.076 -0.034,0.149 -0.09,0.2c-0.06,0.052 -0.137,0.08 -0.215,0.08c-0.082,0.007 -0.163,-0.022 -0.22,-0.08Z" style="fill:white;fill-rule:nonzero;"/><path d="M14.097,11.6c-0.058,-0.05 -0.089,-0.124 -0.085,-0.2c0.004,-0.074 0.034,-0.145 0.085,-0.2c0.112,-0.104 0.287,-0.104 0.4,-0c0.054,0.052 0.084,0.125 0.08,0.2c-0.001,0.074 -0.03,0.146 -0.08,0.2c-0.052,0.054 -0.125,0.083 -0.2,0.08c-0.077,0.017 -0.157,-0.015 -0.2,-0.08Z" style="fill:white;fill-rule:nonzero;"/><path d="M13.202,12.185c0.002,-0.075 0.032,-0.146 0.085,-0.2c0.112,-0.104 0.287,-0.104 0.4,-0c0.052,0.053 0.081,0.125 0.08,0.2c-0.004,0.074 -0.032,0.144 -0.08,0.2c-0.055,0.05 -0.126,0.079 -0.2,0.08c-0.075,-0.002 -0.146,-0.03 -0.2,-0.08c-0.058,-0.05 -0.089,-0.124 -0.085,-0.2Z" style="fill:white;fill-rule:nonzero;"/><path d="M11.727,13.92c-0.051,-0.054 -0.079,-0.126 -0.08,-0.2c0.003,-0.074 0.031,-0.144 0.08,-0.2c0.112,-0.104 0.287,-0.104 0.4,-0c0.056,0.051 0.087,0.124 0.085,0.2c-0.003,0.075 -0.033,0.146 -0.085,0.2c-0.05,0.058 -0.125,0.088 -0.2,0.08c-0.077,0.015 -0.155,-0.017 -0.2,-0.08Z" style="fill:white;fill-rule:nonzero;"/><path d="M10.922,14.705c-0.061,-0.049 -0.096,-0.122 -0.095,-0.2c0.001,-0.077 0.036,-0.15 0.095,-0.2c0.123,-0.104 0.306,-0.104 0.43,-0c0.059,0.049 0.093,0.123 0.093,0.2c0,0.077 -0.034,0.151 -0.093,0.2c-0.057,0.054 -0.133,0.083 -0.21,0.08c-0.083,0.014 -0.167,-0.016 -0.22,-0.08Z" style="fill:white;fill-rule:nonzero;"/><path d="M10.157,15.5c-0.053,-0.053 -0.082,-0.125 -0.08,-0.2c-0,-0.073 0.028,-0.143 0.08,-0.195c0.11,-0.109 0.289,-0.109 0.4,-0c0.051,0.052 0.079,0.122 0.08,0.195c-0.001,0.074 -0.03,0.146 -0.08,0.2c-0.051,0.057 -0.125,0.088 -0.2,0.085c-0.075,-0.005 -0.146,-0.035 -0.2,-0.085Z" style="fill:white;fill-rule:nonzero;"/><path d="M9.372,16.285c-0.057,-0.051 -0.086,-0.125 -0.08,-0.2c0.002,-0.073 0.03,-0.142 0.08,-0.195c0.11,-0.109 0.289,-0.109 0.4,-0c0.049,0.053 0.077,0.122 0.08,0.195c0.001,0.075 -0.028,0.147 -0.08,0.2c-0.051,0.057 -0.125,0.088 -0.2,0.085c-0.076,0.002 -0.149,-0.029 -0.2,-0.085Z" style="fill:white;fill-rule:nonzero;"/><path d="M8.567,17.07c-0.063,-0.047 -0.098,-0.122 -0.095,-0.2c0.001,-0.076 0.035,-0.147 0.095,-0.195c0.115,-0.105 0.294,-0.105 0.41,-0c0.056,0.049 0.088,0.12 0.09,0.195c0.001,0.077 -0.032,0.15 -0.09,0.2c-0.06,0.052 -0.136,0.082 -0.215,0.085c-0.075,0.005 -0.148,-0.027 -0.195,-0.085Z" style="fill:white;fill-rule:nonzero;"/><path d="M7.792,17.855c-0.057,-0.051 -0.086,-0.125 -0.08,-0.2c0.002,-0.073 0.03,-0.142 0.08,-0.195c0.112,-0.104 0.287,-0.104 0.4,-0c0.053,0.05 0.082,0.122 0.08,0.195c-0.001,0.074 -0.03,0.146 -0.08,0.2c-0.053,0.054 -0.125,0.084 -0.2,0.085c-0.076,0.001 -0.149,-0.03 -0.2,-0.085Z" style="fill:white;fill-rule:nonzero;"/><path d="M8.202,8.47c0.105,-0.11 0.105,-0.285 -0,-0.395c-0.113,-0.104 -0.288,-0.104 -0.4,-0c-0.056,0.049 -0.085,0.121 -0.08,0.195c0.001,0.074 0.029,0.146 0.08,0.2c0.051,0.056 0.124,0.087 0.2,0.085c0.077,0.013 0.155,-0.02 0.2,-0.085Z" style="fill:white;fill-rule:nonzero;"/><path d="M8.977,9.255c0.056,-0.051 0.089,-0.124 0.09,-0.2c-0.003,-0.076 -0.035,-0.148 -0.09,-0.2c-0.126,-0.104 -0.31,-0.104 -0.435,-0c-0.059,0.05 -0.094,0.123 -0.095,0.2c0,0.077 0.035,0.15 0.095,0.2c0.06,0.047 0.133,0.075 0.21,0.08c0.08,-0.007 0.158,-0.034 0.225,-0.08Z" style="fill:white;fill-rule:nonzero;"/><path d="M9.772,10.03c0.05,-0.054 0.079,-0.126 0.08,-0.2c-0.002,-0.074 -0.031,-0.145 -0.08,-0.2c-0.113,-0.104 -0.288,-0.104 -0.4,-0c-0.053,0.053 -0.082,0.125 -0.08,0.2c0.003,0.074 0.031,0.144 0.08,0.2c0.053,0.053 0.125,0.082 0.2,0.08c0.073,-0.005 0.143,-0.033 0.2,-0.08Z" style="fill:white;fill-rule:nonzero;"/><path d="M10.557,10.815c0.05,-0.054 0.079,-0.126 0.08,-0.2c-0.002,-0.074 -0.031,-0.145 -0.08,-0.2c-0.113,-0.104 -0.288,-0.104 -0.4,-0c-0.053,0.053 -0.082,0.125 -0.08,0.2c0.001,0.074 0.029,0.146 0.08,0.2c0.053,0.053 0.125,0.082 0.2,0.08c0.075,0.007 0.15,-0.023 0.2,-0.08Z" style="fill:white;fill-rule:nonzero;"/><path d="M11.332,11.6c0.058,-0.05 0.092,-0.123 0.095,-0.2c-0.004,-0.077 -0.039,-0.149 -0.095,-0.2c-0.116,-0.105 -0.295,-0.105 -0.41,-0c-0.062,0.048 -0.097,0.122 -0.095,0.2c-0.001,0.078 0.034,0.151 0.095,0.2c0.057,0.052 0.132,0.081 0.21,0.08c0.076,0.016 0.155,-0.016 0.2,-0.08Z" style="fill:white;fill-rule:nonzero;"/><path d="M12.202,12.185c-0.003,-0.075 -0.033,-0.146 -0.085,-0.2c-0.113,-0.104 -0.288,-0.104 -0.4,-0c-0.053,0.053 -0.082,0.125 -0.08,0.2c0.003,0.074 0.031,0.144 0.08,0.2c0.054,0.05 0.125,0.079 0.2,0.08c0.074,-0.002 0.145,-0.03 0.2,-0.08c0.057,-0.05 0.088,-0.124 0.085,-0.2Z" style="fill:white;fill-rule:nonzero;"/><path d="M12.912,13.18c0.056,-0.051 0.087,-0.124 0.085,-0.2c-0.003,-0.075 -0.033,-0.146 -0.085,-0.2c-0.113,-0.104 -0.288,-0.104 -0.4,-0c-0.053,0.053 -0.082,0.125 -0.08,0.2c0.001,0.074 0.03,0.145 0.08,0.2c0.052,0.054 0.124,0.084 0.2,0.085c0.075,0.002 0.148,-0.029 0.2,-0.085Z" style="fill:white;fill-rule:nonzero;"/><path d="M13.702,13.92c0.06,-0.049 0.095,-0.122 0.095,-0.2c-0.002,-0.077 -0.037,-0.15 -0.095,-0.2c-0.116,-0.105 -0.295,-0.105 -0.41,-0c-0.06,0.049 -0.094,0.123 -0.094,0.2c-0,0.077 0.034,0.151 0.094,0.2c0.056,0.053 0.132,0.082 0.21,0.08c0.076,0.012 0.153,-0.019 0.2,-0.08Z" style="fill:white;fill-rule:nonzero;"/><path d="M14.497,14.705c0.05,-0.054 0.079,-0.126 0.08,-0.2c-0.004,-0.074 -0.032,-0.144 -0.08,-0.2c-0.113,-0.104 -0.288,-0.104 -0.4,-0c-0.054,0.053 -0.085,0.125 -0.085,0.2c0,0.075 0.031,0.147 0.085,0.2c0.051,0.055 0.124,0.085 0.2,0.08c0.075,0.006 0.149,-0.023 0.2,-0.08Z" style="fill:white;fill-rule:nonzero;"/><path d="M15.282,15.5c0.052,-0.053 0.081,-0.125 0.08,-0.2c-0.001,-0.073 -0.029,-0.143 -0.08,-0.195c-0.111,-0.109 -0.29,-0.109 -0.4,-0c-0.052,0.052 -0.08,0.122 -0.08,0.195c0.001,0.074 0.029,0.146 0.08,0.2c0.05,0.057 0.124,0.088 0.2,0.085c0.074,-0.002 0.146,-0.033 0.2,-0.085Z" style="fill:white;fill-rule:nonzero;"/><path d="M16.017,16.285c0.059,-0.049 0.091,-0.124 0.085,-0.2c-0.002,-0.074 -0.033,-0.144 -0.085,-0.195c-0.109,-0.108 -0.287,-0.108 -0.395,-0c-0.053,0.051 -0.084,0.121 -0.085,0.195c-0.002,0.076 0.029,0.149 0.085,0.2c0.048,0.057 0.12,0.088 0.195,0.085c0.075,0.003 0.149,-0.028 0.2,-0.085Z" style="fill:white;fill-rule:nonzero;"/><path d="M16.852,17.07c0.056,-0.051 0.085,-0.125 0.08,-0.2c-0.003,-0.073 -0.031,-0.142 -0.08,-0.195c-0.113,-0.104 -0.288,-0.104 -0.4,-0c-0.056,0.049 -0.085,0.121 -0.08,0.195c-0.002,0.075 0.027,0.147 0.08,0.2c0.051,0.056 0.124,0.087 0.2,0.085c0.076,0.004 0.149,-0.028 0.2,-0.085Z" style="fill:white;fill-rule:nonzero;"/><path d="M17.637,17.855c0.057,-0.049 0.09,-0.122 0.09,-0.198c0,-0.075 -0.033,-0.148 -0.09,-0.197c-0.116,-0.105 -0.295,-0.105 -0.41,-0c-0.06,0.048 -0.094,0.121 -0.094,0.197c-0,0.077 0.034,0.15 0.094,0.198c0.058,0.051 0.132,0.082 0.21,0.085c0.075,0.001 0.148,-0.03 0.2,-0.085Z" style="fill:white;fill-rule:nonzero;"/><path d="M10.052,8.67c1.608,-1.045 3.691,-1.045 5.3,-0l1.685,-1.7c-1.236,-0.973 -2.763,-1.501 -4.335,-1.5c-1.571,-0.007 -3.097,0.522 -4.325,1.5l1.675,1.7Z" style="fill:white;fill-rule:nonzero;"/><path d="M8.367,15.595c-0.524,-0.775 -0.803,-1.69 -0.8,-2.625c-0.009,-0.936 0.271,-1.853 0.8,-2.625l-1.665,-1.675c-0.971,1.223 -1.5,2.739 -1.5,4.3c0.001,1.569 0.529,3.092 1.5,4.325l1.665,-1.7Z" style="fill:white;fill-rule:nonzero;"/><path d="M15.337,17.27c-0.776,0.535 -1.694,0.826 -2.635,0.835c-0.952,0.013 -1.883,-0.276 -2.66,-0.825l-1.675,1.69c1.227,0.986 2.76,1.517 4.335,1.5c1.56,-0.007 3.074,-0.535 4.3,-1.5l-1.665,-1.7Z" style="fill:white;fill-rule:nonzero;"/><path d="M16.992,10.32c0.537,0.787 0.815,1.722 0.795,2.675c-0.008,0.917 -0.285,1.813 -0.795,2.575l1.71,1.675c2.012,-2.515 2.012,-6.12 -0,-8.635l-1.71,1.71Z" style="fill:white;fill-rule:nonzero;"/><path d="M18.747,17.8c0.001,-0 0.003,-0 0.004,-0c0.651,-0 1.185,0.535 1.185,1.185c0,0.65 -0.534,1.185 -1.185,1.185c-0.65,-0 -1.185,-0.535 -1.185,-1.185c0,-0.005 0,-0.01 0.001,-0.015c0.008,-0.643 0.537,-1.167 1.18,-1.17Z" style="fill:white;fill-rule:nonzero;"/><path d="M6.702,17.8c0.646,0.006 1.174,0.539 1.174,1.185c0,0.65 -0.534,1.185 -1.185,1.185c-0.65,-0 -1.185,-0.535 -1.185,-1.185c0,-0.005 0,-0.01 0.001,-0.015c0.005,-0.644 0.536,-1.17 1.179,-1.17c0.005,-0 0.011,-0 0.016,-0Z" style="fill:white;fill-rule:nonzero;"/><path d="M18.772,5.73c0.005,-0 0.01,-0 0.015,-0c0.65,-0 1.185,0.535 1.185,1.185c-0,0.65 -0.535,1.185 -1.185,1.185c-0.651,-0 -1.185,-0.535 -1.185,-1.185l-0,-0.01c-0,-0.643 0.527,-1.172 1.17,-1.175Z" style="fill:white;fill-rule:nonzero;"/><path d="M6.657,5.73c0.636,0.008 1.155,0.534 1.155,1.17c-0,0.642 -0.529,1.17 -1.17,1.17c-0.642,-0 -1.17,-0.528 -1.17,-1.17c0.005,-0.645 0.539,-1.173 1.185,-1.17Z" style="fill:white;fill-rule:nonzero;"/></g></g></svg>