<?xml version="1.0" encoding="UTF-8" standalone="no"?><!DOCTYPE svg PUBLIC "-//W3C//DTD SVG 1.1//EN" "http://www.w3.org/Graphics/SVG/1.1/DTD/svg11.dtd"><svg width="25px" height="25px" version="1.1" xmlns="http://www.w3.org/2000/svg" xmlns:xlink="http://www.w3.org/1999/xlink" xml:space="preserve" xmlns:serif="http://www.serif.com/" style="fill-rule:evenodd;clip-rule:evenodd;stroke-linejoin:round;stroke-miterlimit:2;"><g id="Layer_2"><g id="Layer_1-2"><circle cx="12.282" cy="12.968" r="11.975" style="fill:rgb(120,102,213);"/><path d="M17.397,7.093c0.41,0.05 0.84,0.085 1.25,0.15c0.805,0.155 1.08,0.57 0.945,1.39c-0.037,0.308 -0.278,0.555 -0.585,0.6c-0.192,0.039 -0.389,0.051 -0.585,0.035l-8.175,0c-0.384,0.001 -0.767,0.035 -1.145,0.1c-1.26,0.195 -1.755,0.72 -1.85,2c-0.05,0.625 -0.05,0.625 0.555,0.625l10.83,0c0.176,0.006 0.348,0.056 0.5,0.145c0.5,0.33 0.385,0.86 0.365,1.335c-0.007,0.361 -0.295,0.66 -0.655,0.68c-0.165,0.029 -0.333,0.041 -0.5,0.035l-10.845,0c-0.38,0 -0.38,0 -0.35,0.38c0.021,0.344 0.073,0.686 0.155,1.02c0.131,0.595 0.593,1.064 1.185,1.205c0.697,0.172 1.413,0.254 2.13,0.245l7.5,0c0.308,-0.045 0.617,0.082 0.805,0.33c0.103,0.167 0.158,0.36 0.158,0.556c0,0.367 -0.191,0.708 -0.503,0.899c-0.063,0.049 -0.137,0.081 -0.215,0.095c-0.545,0.161 -1.111,0.24 -1.68,0.235c-2.36,0.045 -4.705,0.045 -7.05,0c-0.726,-0.018 -1.449,-0.102 -2.16,-0.25c-1.67,-0.345 -2.52,-1.205 -2.8,-2.91c-0.065,-0.375 -0.1,-0.775 -0.15,-1.17l-0,-3.15l0.105,-0.945c0.225,-1.975 1.115,-2.95 3.055,-3.395c0.691,-0.128 1.389,-0.215 2.09,-0.26l7.62,0.02Z" style="fill:white;fill-rule:nonzero;"/><path d="M13.077,19.588c-1.185,0 -2.35,0 -3.5,-0.035c-0.743,-0.014 -1.482,-0.106 -2.205,-0.275c-1.795,-0.4 -2.715,-1.41 -3,-3.29c-0.05,-0.288 -0.083,-0.578 -0.1,-0.87c-0,-0.125 -0.035,-0.245 -0.05,-0.385l-0,-3.095l0.035,-0.3c-0,-0.22 0.05,-0.42 0.065,-0.62c0.235,-2.05 1.2,-3.095 3.215,-3.545c0.516,-0.106 1.039,-0.179 1.565,-0.22l0.5,-0.05l7.435,0c0.121,0.022 0.243,0.034 0.365,0.035c0.285,0.035 0.57,0.05 0.87,0.115c0.945,0.185 1.315,0.72 1.145,1.685c-0.057,0.431 -0.399,0.773 -0.83,0.83c-0.203,0.035 -0.409,0.052 -0.615,0.05c-2.585,0 -5.185,0.035 -7.765,0.035c-0.374,0.001 -0.747,0.035 -1.115,0.1c-1.15,0.185 -1.535,0.6 -1.635,1.765l-0,0.285l10.72,0c0.223,0.008 0.44,0.074 0.63,0.19c0.411,0.293 0.6,0.812 0.475,1.3l-0,0.165c-0.022,0.452 -0.375,0.824 -0.825,0.87c-0.165,0.028 -0.333,0.04 -0.5,0.035l-10.5,0c0.01,0.357 0.054,0.712 0.13,1.06c0.095,0.501 0.475,0.903 0.97,1.025c0.671,0.18 1.365,0.263 2.06,0.245l7.485,0c0.418,-0.048 0.828,0.147 1.055,0.5c0.189,0.327 0.248,0.712 0.165,1.08c-0.099,0.473 -0.436,0.863 -0.89,1.03c-0.571,0.171 -1.164,0.259 -1.76,0.26c-1.225,0.01 -2.41,0.025 -3.595,0.025Zm-8.21,-4.77c0.019,0.118 0.031,0.236 0.035,0.355l0.095,0.82c0.265,1.59 1,2.37 2.535,2.71c0.687,0.153 1.387,0.238 2.09,0.255c2.305,0.05 4.66,0.05 7,0c0.531,-0.003 1.059,-0.076 1.57,-0.22l0.145,-0.07c0.173,-0.118 0.296,-0.296 0.345,-0.5c0.049,-0.203 0.015,-0.417 -0.095,-0.595c-0.1,-0.15 -0.23,-0.2 -0.54,-0.2l-7.46,0c-0.739,0.02 -1.478,-0.071 -2.19,-0.27c-0.701,-0.174 -1.239,-0.744 -1.37,-1.455c-0.088,-0.378 -0.133,-0.766 -0.135,-1.155l-0,-0.155c-0,-0.225 -0.03,-0.39 0.105,-0.535c0.135,-0.145 0.32,-0.145 0.555,-0.145l10.755,0c0.141,0.005 0.281,-0.005 0.42,-0.03c0.27,-0.05 0.34,-0.16 0.355,-0.32l-0,-0.18c0.035,-0.4 0.035,-0.595 -0.2,-0.74c-0.094,-0.049 -0.199,-0.076 -0.305,-0.08l-10.84,0c-0.37,0 -0.59,0 -0.76,-0.17c-0.17,-0.17 -0.135,-0.405 -0.115,-0.76c0.115,-1.45 0.725,-2.11 2.16,-2.33c0.409,-0.064 0.821,-0.102 1.235,-0.115l7.875,0c0.167,0.005 0.334,-0.006 0.5,-0.03c0.167,-0.018 0.299,-0.152 0.315,-0.32c0.12,-0.665 -0.05,-0.885 -0.685,-1c-0.265,-0.048 -0.532,-0.081 -0.8,-0.1c-0.121,-0.017 -0.243,-0.027 -0.365,-0.03l-7.5,0l-0.5,0.05c-0.494,0.034 -0.985,0.1 -1.47,0.2c-1.72,0.445 -2.47,1.305 -2.665,3.14c-0,0.2 -0.05,0.405 -0.065,0.625l-0.035,0.29l-0,3.1l0.005,-0.04Z" style="fill:white;fill-rule:nonzero;"/></g></g></svg>