<?xml version="1.0" encoding="UTF-8" standalone="no"?><!DOCTYPE svg PUBLIC "-//W3C//DTD SVG 1.1//EN" "http://www.w3.org/Graphics/SVG/1.1/DTD/svg11.dtd"><svg width="25px" height="25px" version="1.1" xmlns="http://www.w3.org/2000/svg" xmlns:xlink="http://www.w3.org/1999/xlink" xml:space="preserve" xmlns:serif="http://www.serif.com/" style="fill-rule:evenodd;clip-rule:evenodd;stroke-linejoin:round;stroke-miterlimit:2;"><g id="Layer_2"><g id="Layer_1-2"><circle cx="12.364" cy="12.27" r="12" style="fill:rgb(0,13,43);"/><g id="Layer_2-2"><g id="svg8"><g id="layer5"><g id="g1627"><path id="path1599" d="M6.584,12.965l5.805,3.085l5.75,-3.085c-2.08,3.095 -3.82,5.67 -5.75,8.5l-5.805,-8.5Zm0.22,-0.855l5.59,-3l5.5,2.955l-5.5,3l-5.59,-2.955Zm5.585,-3.935l-5.805,3.05l5.78,-8.455l5.775,8.5l-5.75,-3.095Z" style="fill:rgb(58,184,58);fill-rule:nonzero;"/><path id="path1593" d="M12.389,16.05l5.755,-3.085c-2.085,3.095 -5.755,8.5 -5.755,8.5l0,-5.415Zm0,-6.92l5.5,2.955l-5.5,3l0,-5.955Zm0,-0.955l-0.025,-5.405l5.78,8.5l-5.755,-3.095Z" style="fill:rgb(11,131,17);fill-rule:nonzero;"/><path id="path1603" d="M6.804,12.11l5.59,0.46l5.5,-0.5l-5.5,3l-5.59,-2.96Z" style="fill:rgb(11,131,17);fill-rule:nonzero;"/><path id="path1606" d="M12.394,12.57l5.5,-0.5l-5.5,3l0,-2.5Z" style="fill:rgb(20,103,20);fill-rule:nonzero;"/></g></g></g></g></g></g></svg>