<?xml version="1.0" encoding="UTF-8" standalone="no"?><!DOCTYPE svg PUBLIC "-//W3C//DTD SVG 1.1//EN" "http://www.w3.org/Graphics/SVG/1.1/DTD/svg11.dtd"><svg width="25px" height="25px" version="1.1" xmlns="http://www.w3.org/2000/svg" xmlns:xlink="http://www.w3.org/1999/xlink" xml:space="preserve" xmlns:serif="http://www.serif.com/" style="fill-rule:evenodd;clip-rule:evenodd;stroke-linejoin:round;stroke-miterlimit:2;"><clipPath id="_clip1"><rect id="Filecoin.svg" x="0.371" y="0.703" width="24" height="24"/></clipPath><g clip-path="url(#_clip1)"><g id="Layer_2"><g id="Layer_1-2"><path d="M12.371,24.703c-6.583,-0.001 -12,-5.418 -12,-12c0,-6.583 5.417,-12 12,-12c6.583,-0 12,5.417 12,12c0,0.04 0,0.08 -0,0.12c-0.092,6.527 -5.472,11.853 -12,11.88" style="fill:rgb(0,144,255);fill-rule:nonzero;"/><path d="M13.731,11.263l-0.36,1.94l3.42,0.5l-0.24,0.9l-3.36,-0.5c-0.24,0.78 -0.36,1.62 -0.66,2.34c-0.3,0.84 -0.6,1.68 -0.96,2.46c-0.437,1.017 -1.367,1.743 -2.46,1.92c-0.662,0.157 -1.36,0.026 -1.92,-0.36c-0.191,-0.121 -0.322,-0.318 -0.36,-0.54c-0.002,-0.254 0.108,-0.495 0.3,-0.66c0.201,-0.038 0.41,-0.017 0.6,0.06c0.2,0.192 0.369,0.415 0.5,0.66c0.154,0.256 0.433,0.414 0.732,0.414c0.219,-0 0.429,-0.084 0.588,-0.234c0.5,-0.491 0.847,-1.116 1,-1.8c0.36,-1.44 0.72,-2.82 1,-4.26l-0,-0.24l-3.18,-0.5l0.12,-0.9l3.3,0.5l0.42,-1.86l-3.42,-0.54l0.12,-0.96l3.54,0.5c0.12,-0.36 0.18,-0.66 0.3,-0.96c0.236,-1.115 0.684,-2.174 1.32,-3.12c0.72,-0.96 1.56,-1.56 2.82,-1.5c0.552,-0.043 1.095,0.162 1.48,0.56c0.094,0.075 0.158,0.181 0.18,0.3c0.034,0.254 -0.03,0.512 -0.18,0.72c-0.25,0.172 -0.594,0.119 -0.78,-0.12c-0.18,-0.18 -0.3,-0.36 -0.5,-0.54c-0.148,-0.248 -0.416,-0.399 -0.704,-0.399c-0.236,-0 -0.461,0.101 -0.616,0.279c-0.327,0.329 -0.591,0.716 -0.78,1.14c-0.42,1.24 -0.72,2.58 -1.12,3.9l3.3,0.5l-0.24,0.9l-3.18,-0.5" style="fill:white;fill-rule:nonzero;"/></g></g></g></svg>