<?xml version="1.0" encoding="UTF-8" standalone="no"?><!DOCTYPE svg PUBLIC "-//W3C//DTD SVG 1.1//EN" "http://www.w3.org/Graphics/SVG/1.1/DTD/svg11.dtd"><svg width="25px" height="25px" version="1.1" xmlns="http://www.w3.org/2000/svg" xmlns:xlink="http://www.w3.org/1999/xlink" xml:space="preserve" xmlns:serif="http://www.serif.com/" style="fill-rule:evenodd;clip-rule:evenodd;stroke-linejoin:round;stroke-miterlimit:2;"><g id="Layer_2"><g id="Layer_1-2"><g id="Layer_2-2"><g id="Layer_1-2-2"><circle cx="12.656" cy="12.477" r="12" style="fill:rgb(19,181,236);"/><path d="M13.706,10.152l2.7,-1.575l0,3.15l-2.7,-1.575Zm2.7,6.785l-3.75,2.185l-3.75,-2.185l0,-3.83l3.75,2.185l3.75,-2.185l0,3.83Zm-7.5,-8.36l2.7,1.575l-2.7,1.575l0,-3.15Zm4.5,2.325l2.7,1.575l-2.7,1.575l0,-3.15Zm-1.5,3.15l-2.7,-1.575l2.7,-1.575l0,3.15Zm3.9,-6.225l-3.15,1.8l-3.15,-1.8l3.15,-1.85l3.15,1.85Zm-7.65,-0.3l0,9.825l4.5,2.55l4.5,-2.55l0,-9.825l-4.5,-2.55l-4.5,2.55Z" style="fill:white;fill-rule:nonzero;"/></g></g></g></g></svg>