<svg width="24" height="24" viewBox="0 0 24 24" fill="none" xmlns="http://www.w3.org/2000/svg">
<path d="M12 0C15.1826 0 18.2348 1.26429 20.4853 3.51472C22.7357 5.76516 24 8.8174 24 12C24 15.1826 22.7357 18.2348 20.4853 20.4853C18.2348 22.7357 15.1826 24 12 24C8.8174 24 5.76516 22.7357 3.51472 20.4853C1.26429 18.2348 0 15.1826 0 12C0 8.8174 1.26429 5.76516 3.51472 3.51472C5.76516 1.26429 8.8174 0 12 0Z" fill="url(#paint0_linear)"/>
<path d="M8.7411 5.50082C12.3271 5.49973 15.9133 5.49973 19.4998 5.50082C19.5009 6.65996 19.5009 7.81889 19.4998 8.97762C15.9137 8.97872 12.3274 8.97872 8.7411 8.97762C8.73995 7.81849 8.73995 6.65956 8.7411 5.50082Z" fill="white"/>
<path d="M4.5045 10.2857C5.66143 10.2798 6.81857 10.2798 7.9759 10.2857C7.9819 11.4427 7.9819 12.5998 7.9759 13.7571C6.81862 13.7631 5.66148 13.7632 4.5045 13.7574C4.4985 12.6003 4.4985 11.4431 4.5045 10.2857Z" fill="white"/>
<path d="M8.74233 10.2854C11.3306 10.2799 13.9188 10.2799 16.5067 10.2854C16.5122 11.4423 16.5122 12.5994 16.5067 13.7568C13.9185 13.7622 11.3303 13.7622 8.74233 13.7568C8.73693 12.5998 8.73693 11.4427 8.74233 10.2854Z" fill="white"/>
<path d="M8.74683 15.0719C9.90182 15.0594 11.0566 15.0594 12.2112 15.0719C12.2232 16.2261 12.2234 17.3809 12.2117 18.5363C11.0567 18.5477 9.90197 18.5475 8.74743 18.5357C8.73543 17.3815 8.73523 16.2269 8.74683 15.0719Z" fill="white"/>
<defs>
<linearGradient id="paint0_linear" x1="9.5" y1="-1.25" x2="16.25" y2="31" gradientUnits="userSpaceOnUse">
<stop stop-color="#02A6C2"/>
<stop offset="1" stop-color="#ABEBF4"/>
</linearGradient>
</defs>
</svg>
