<?xml version="1.0" encoding="UTF-8" standalone="no"?><!DOCTYPE svg PUBLIC "-//W3C//DTD SVG 1.1//EN" "http://www.w3.org/Graphics/SVG/1.1/DTD/svg11.dtd"><svg width="25px" height="25px" version="1.1" xmlns="http://www.w3.org/2000/svg" xmlns:xlink="http://www.w3.org/1999/xlink" xml:space="preserve" xmlns:serif="http://www.serif.com/" style="fill-rule:evenodd;clip-rule:evenodd;stroke-linejoin:round;stroke-miterlimit:2;"><clipPath id="_clip1"><rect id="GRT.svg" x="0.685" y="0.315" width="23.945" height="23.945"/></clipPath><g clip-path="url(#_clip1)"><g id="Layer_2"><g id="Layer_1-2"><circle cx="12.66" cy="12.29" r="11.975" style="fill:rgb(103,71,237);"/><path d="M17.27,10.64c-0,-2.628 -2.162,-4.79 -4.79,-4.79c-2.628,0 -4.79,2.162 -4.79,4.79c-0,2.628 2.162,4.79 4.79,4.79c0.002,0 0.003,0 0.005,0c2.625,-0.005 4.782,-2.165 4.785,-4.79Zm-4.785,3.175c-1.751,-0.003 -3.19,-1.444 -3.19,-3.195c0,-1.753 1.442,-3.195 3.195,-3.195c1.753,0 3.195,1.442 3.195,3.195c0,0.007 -0,0.014 -0,0.02c-0.005,1.744 -1.442,3.175 -3.185,3.175c-0.005,0 -0.01,0 -0.015,0Z" style="fill:white;fill-rule:nonzero;"/><path d="M15.925,15.68l-3.19,3.195c-0.149,0.149 -0.232,0.35 -0.232,0.56c-0,0.435 0.357,0.792 0.792,0.792c0.21,0 0.411,-0.083 0.56,-0.232l3.195,-3.18c0.153,-0.147 0.24,-0.35 0.24,-0.562c-0,-0.213 -0.087,-0.416 -0.24,-0.563c-0.146,-0.159 -0.352,-0.249 -0.567,-0.249c-0.211,-0 -0.413,0.086 -0.558,0.239Z" style="fill:white;fill-rule:nonzero;"/><circle cx="18.095" cy="6.65" r="0.8" style="fill:white;"/></g></g></g></svg>