<?xml version="1.0" encoding="UTF-8" standalone="no"?><!DOCTYPE svg PUBLIC "-//W3C//DTD SVG 1.1//EN" "http://www.w3.org/Graphics/SVG/1.1/DTD/svg11.dtd"><svg width="25px" height="25px" version="1.1" xmlns="http://www.w3.org/2000/svg" xmlns:xlink="http://www.w3.org/1999/xlink" xml:space="preserve" xmlns:serif="http://www.serif.com/" style="fill-rule:evenodd;clip-rule:evenodd;stroke-linejoin:round;stroke-miterlimit:2;"><g id="Layer_2"><g id="Layer_1-2"><g id="Layer_2-2"><g id="Layer_1-2-2"><path d="M12.527,0.781c-6.583,0 -12,5.417 -12,12c-0,6.583 5.417,12 12,12c6.583,0 12,-5.417 12,-12c-0,-6.583 -5.417,-12 -12,-12" style="fill-rule:nonzero;"/><path d="M17.407,17.971l-1.5,0l-0,-3.24l-6.735,0l-0,3.24l-1.5,0l-0,-10.5l1.5,0l-0,3.16l6.71,0l-0,-3.165l1.5,0l0.025,10.505Zm-8.16,-4.45l6.705,0l-0,-1.675l-6.705,0l-0,1.675Z" style="fill:white;fill-rule:nonzero;"/></g></g></g></g></svg>