<svg width="24" height="24" viewBox="0 0 24 24" fill="none" xmlns="http://www.w3.org/2000/svg">
<path d="M12 0C15.1826 0 18.2348 1.26429 20.4853 3.51472C22.7357 5.76516 24 8.8174 24 12C24 15.1826 22.7357 18.2348 20.4853 20.4853C18.2348 22.7357 15.1826 24 12 24C8.8174 24 5.76516 22.7357 3.51472 20.4853C1.26429 18.2348 0 15.1826 0 12C0 8.8174 1.26429 5.76516 3.51472 3.51472C5.76516 1.26429 8.8174 0 12 0Z" fill="#E31337"/>
<path d="M15.3457 13.0562C15.3563 13.0571 15.3664 13.0605 15.3754 13.0662C15.3843 13.0719 15.3917 13.0796 15.397 13.0888C15.4023 13.098 15.4053 13.1083 15.4058 13.1189C15.4062 13.1295 15.4041 13.14 15.3997 13.1496L12.3242 18.4683C12.3184 18.4775 12.3105 18.4852 12.3011 18.4906C12.2917 18.496 12.2811 18.499 12.2702 18.4993H10.3901C10.3792 18.4993 10.3684 18.4964 10.359 18.4909C10.3495 18.4854 10.3417 18.4776 10.3362 18.4681C10.3308 18.4586 10.328 18.4478 10.3281 18.4369C10.3282 18.426 10.3312 18.4152 10.3368 18.4059L13.4123 13.0871C13.4177 13.0777 13.4254 13.0699 13.4348 13.0645C13.4441 13.0591 13.4547 13.0562 13.4656 13.0562H15.3457ZM13.5175 11.5319C13.5067 11.5316 13.4961 11.5286 13.4867 11.5232C13.4773 11.5178 13.4693 11.5102 13.4636 11.501L10.3368 6.09342C10.3312 6.08402 10.3282 6.07331 10.3281 6.06238C10.328 6.05145 10.3308 6.04069 10.3362 6.0312C10.3417 6.02171 10.3495 6.01382 10.359 6.00834C10.3684 6.00286 10.3792 5.99998 10.3901 6H12.2702C12.2811 6.00031 12.2917 6.00329 12.3011 6.00868C12.3105 6.01408 12.3184 6.02172 12.3242 6.03092L15.451 11.4385C15.4565 11.4479 15.4595 11.4586 15.4596 11.4695C15.4597 11.4805 15.4569 11.4912 15.4515 11.5007C15.4461 11.5102 15.4383 11.5181 15.4288 11.5236C15.4194 11.5291 15.4086 11.5319 15.3977 11.5319H13.5175Z" fill="white"/>
<path d="M13.8899 6.09355C13.8841 6.08387 13.8811 6.07278 13.8811 6.06149C13.8812 6.05021 13.8843 6.03916 13.8902 6.02953C13.8961 6.01991 13.9045 6.01208 13.9146 6.0069C13.9246 6.00172 13.9358 5.99938 13.9471 6.00014H15.8299C15.8407 6.00012 15.8513 6.00297 15.8607 6.0084C15.8701 6.01383 15.8778 6.02165 15.8832 6.03106L19.4678 12.2189C19.4733 12.2282 19.4762 12.2389 19.4762 12.2498C19.4762 12.2606 19.4733 12.2713 19.4678 12.2807L15.8832 18.4685C15.8778 18.4779 15.8701 18.4857 15.8607 18.4911C15.8513 18.4966 15.8407 18.4994 15.8299 18.4994H13.9471C13.9361 18.4995 13.9253 18.4968 13.9157 18.4913C13.9062 18.4859 13.8983 18.478 13.8928 18.4685C13.8873 18.459 13.8844 18.4482 13.8845 18.4372C13.8846 18.4262 13.8875 18.4154 13.8932 18.406L17.4561 12.2498L13.8899 6.09355ZM12.3597 12.2182C12.3655 12.2282 12.3685 12.2395 12.3685 12.2511C12.3685 12.2626 12.3655 12.274 12.3597 12.284L8.75859 18.4685C8.75255 18.4773 8.74445 18.4845 8.735 18.4895C8.72554 18.4945 8.71501 18.4971 8.70432 18.4971C8.69363 18.4971 8.6831 18.4945 8.67364 18.4895C8.66419 18.4845 8.65609 18.4773 8.65005 18.4685L5.00881 12.2813C5.00304 12.2713 5 12.26 5 12.2485C5 12.2369 5.00304 12.2256 5.00881 12.2156L8.60992 6.03106C8.61596 6.02224 8.62406 6.01503 8.63352 6.01004C8.64297 6.00506 8.6535 6.00245 8.66419 6.00245C8.67488 6.00245 8.68541 6.00506 8.69487 6.01004C8.70432 6.01503 8.71242 6.02224 8.71846 6.03106L12.3597 12.2182Z" fill="white"/>
</svg>
