<?xml version="1.0" encoding="UTF-8" standalone="no"?><!DOCTYPE svg PUBLIC "-//W3C//DTD SVG 1.1//EN" "http://www.w3.org/Graphics/SVG/1.1/DTD/svg11.dtd"><svg width="25px" height="25px" version="1.1" xmlns="http://www.w3.org/2000/svg" xmlns:xlink="http://www.w3.org/1999/xlink" xml:space="preserve" xmlns:serif="http://www.serif.com/" style="fill-rule:evenodd;clip-rule:evenodd;stroke-linejoin:round;stroke-miterlimit:2;"><g id="Layer_2"><g id="Layer_1-2"><circle cx="12.363" cy="13.081" r="9.75" style="fill:white;"/><path d="M15.308,7.071c0.336,-0.337 0.793,-0.526 1.27,-0.526c0.985,-0 1.796,0.811 1.796,1.796c-0,0.476 -0.19,0.933 -0.526,1.27c-0.396,0.39 -0.95,0.575 -1.5,0.5l-0.085,-0c-0.171,-0.022 -0.344,0.004 -0.5,0.075c-0.227,0.093 -0.408,0.273 -0.5,0.5c-0.087,0.225 -0.078,0.476 0.025,0.695c0.205,0.449 0.311,0.937 0.311,1.431c0,1.89 -1.555,3.445 -3.445,3.445c-0.494,0 -0.982,-0.106 -1.431,-0.311c-0.224,-0.105 -0.481,-0.115 -0.71,-0.025c-0.227,0.093 -0.408,0.273 -0.5,0.5c-0.066,0.144 -0.095,0.302 -0.085,0.46l-0,0.085c0.093,0.573 -0.093,1.157 -0.5,1.57c-0.333,0.314 -0.774,0.489 -1.232,0.489c-0.985,0 -1.795,-0.81 -1.795,-1.795c-0,-0.459 0.176,-0.901 0.492,-1.234c0.393,-0.392 0.949,-0.578 1.5,-0.5l0.025,-0c0.062,0.016 0.125,0.024 0.19,0.025c0.133,0.002 0.264,-0.028 0.385,-0.085c0.215,-0.1 0.384,-0.279 0.47,-0.5c0.094,-0.233 0.085,-0.495 -0.025,-0.72c-0.206,-0.449 -0.312,-0.938 -0.312,-1.432c0,-1.89 1.555,-3.445 3.445,-3.445c0.494,0 0.982,0.107 1.432,0.312c0.223,0.105 0.48,0.114 0.71,0.025c0.219,-0.091 0.397,-0.261 0.5,-0.475c0.081,-0.175 0.108,-0.37 0.075,-0.56c-0.087,-0.576 0.106,-1.16 0.52,-1.57Zm-1.775,7.165c0.379,-0.376 0.592,-0.888 0.592,-1.421c0,-1.097 -0.903,-2 -2,-2c-1.097,-0 -2,0.903 -2,2c0,0.533 0.213,1.045 0.593,1.421c0.774,0.767 2.04,0.767 2.815,-0Zm-1.42,-13.405c6.583,-0 12,5.417 12,12c-0,6.583 -5.417,12 -12,12c-6.583,-0 -12,-5.417 -12,-12c-0,-6.583 5.417,-12 12,-12Zm6.39,9.45c0.509,-0.509 0.795,-1.2 0.795,-1.92c-0,-1.49 -1.226,-2.715 -2.715,-2.715c-0.72,-0 -1.411,0.286 -1.92,0.795c-0.379,0.38 -0.638,0.864 -0.745,1.39c-0.602,-0.23 -1.24,-0.348 -1.883,-0.348c-2.891,0 -5.27,2.379 -5.27,5.27c-0,0.644 0.118,1.282 0.348,1.883c-0.529,0.103 -1.016,0.363 -1.395,0.745c-0.492,0.506 -0.767,1.185 -0.767,1.891c-0,1.489 1.225,2.715 2.715,2.715c1.279,-0 2.393,-0.904 2.657,-2.156c0.588,0.222 1.211,0.335 1.84,0.335c0.005,-0 0.011,-0 0.017,-0c2.891,-0 5.27,-2.379 5.27,-5.27c-0,-0.634 -0.114,-1.262 -0.337,-1.855c0.523,-0.124 1.003,-0.387 1.39,-0.76Z" style="fill:rgb(56,162,255);fill-rule:nonzero;"/></g></g></svg>