<?xml version="1.0" encoding="UTF-8" standalone="no"?><!DOCTYPE svg PUBLIC "-//W3C//DTD SVG 1.1//EN" "http://www.w3.org/Graphics/SVG/1.1/DTD/svg11.dtd"><svg width="24px" height="25px" version="1.1" xmlns="http://www.w3.org/2000/svg" xmlns:xlink="http://www.w3.org/1999/xlink" xml:space="preserve" xmlns:serif="http://www.serif.com/" style="fill-rule:evenodd;clip-rule:evenodd;stroke-linejoin:round;stroke-miterlimit:2;"><g id="Layer_2"><g id="Layer_1-2"><circle cx="11.998" cy="12.567" r="12" style="fill:rgb(0,127,136);"/><g id="Layer_2-2"><g id="Layer_1-2-2"><path d="M4.873,7.112c-0.225,-0 -0.4,0.055 -0.39,0.08c0.09,0.215 0.65,1.5 0.66,1.5c0.096,0.019 0.193,0.027 0.29,0.025c0.626,0.01 1.242,0.162 1.8,0.445c0.39,0.187 0.745,0.439 1.05,0.745c0.462,0.458 0.793,1.031 0.96,1.66c0.018,0.05 0.031,0.102 0.04,0.155c-0.186,0.017 -0.373,0.017 -0.56,-0l-0.595,-0c-0.135,0.242 -0.252,0.495 -0.35,0.755c-0.18,0.41 -0.33,0.755 -0.33,0.77c0,0.015 0.095,0.06 0.365,0.1c0.055,-0 0.385,-0 0.775,0.025l0.68,-0l-0.045,0.14c-0.509,1.582 -1.954,2.69 -3.615,2.77l-0.395,-0l-0.335,0.785c-0.285,0.66 -0.33,0.77 -0.31,0.775c0.241,0.048 0.486,0.063 0.73,0.045c0.445,0.012 0.89,-0.028 1.325,-0.12c1.866,-0.345 3.457,-1.564 4.275,-3.275c0.147,-0.34 0.259,-0.693 0.335,-1.055l0,-0.065l1.455,-0l0,0.03c0.082,0.438 0.221,0.863 0.415,1.265c0.642,1.28 1.739,2.276 3.075,2.79c0.834,0.335 1.727,0.495 2.625,0.47c0.375,-0 0.675,-0.05 0.66,-0.09c-0.015,-0.04 -0.65,-1.5 -0.655,-1.5l-0.295,-0c-0.394,-0.008 -0.786,-0.069 -1.165,-0.18c-0.59,-0.166 -1.138,-0.454 -1.61,-0.845c-0.547,-0.459 -0.953,-1.065 -1.17,-1.745c-0.025,-0.07 -0.05,-0.15 -0.055,-0.175l0,-0.04l1.115,-0l0.67,-1.5c-0.099,-0.047 -0.205,-0.078 -0.315,-0.09c-0.267,-0.029 -0.536,-0.037 -0.805,-0.025l-0.67,-0l0.025,-0.09c0.437,-1.383 1.584,-2.43 3,-2.74c0.346,-0.084 0.7,-0.131 1.055,-0.14c0.245,-0 0.275,-0 0.29,-0.035c0.015,-0.035 0.165,-0.355 0.335,-0.75c0.111,-0.251 0.206,-0.508 0.285,-0.77c-0.114,-0.03 -0.231,-0.05 -0.35,-0.06c-0.353,-0.023 -0.707,-0.023 -1.06,-0c-1.453,0.111 -2.825,0.723 -3.88,1.73c-0.6,0.574 -1.054,1.284 -1.325,2.07c-0.073,0.216 -0.131,0.436 -0.175,0.66l0,0.095l-1.445,-0l0,-0.03c0,-0 0,-0.09 -0.035,-0.16c-0.233,-1.09 -0.809,-2.077 -1.645,-2.815c-0.968,-0.861 -2.178,-1.403 -3.465,-1.555c-0.413,-0.049 -0.829,-0.061 -1.245,-0.035Z" style="fill:white;fill-rule:nonzero;"/></g></g></g></g></svg>