<?xml version="1.0" encoding="UTF-8" standalone="no"?><!DOCTYPE svg PUBLIC "-//W3C//DTD SVG 1.1//EN" "http://www.w3.org/Graphics/SVG/1.1/DTD/svg11.dtd"><svg width="25px" height="25px" version="1.1" xmlns="http://www.w3.org/2000/svg" xmlns:xlink="http://www.w3.org/1999/xlink" xml:space="preserve" xmlns:serif="http://www.serif.com/" style="fill-rule:evenodd;clip-rule:evenodd;stroke-linejoin:round;stroke-miterlimit:2;"><g id="Layer_2"><g id="Layer_1-2"><circle cx="12.827" cy="12.567" r="12" style="fill:rgb(40,46,91);"/><path d="M14.677,9.392c0,-2.365 -1.14,-4.4 -2,-5.07c0,-0 -0.06,-0.035 -0.06,0.065c-0.075,4.57 -2.39,5.82 -3.675,7.5c-0.808,0.999 -1.249,2.246 -1.249,3.531c-0,2.407 1.547,4.558 3.829,5.324c1.565,0.435 -0.36,-0.775 -0.605,-3.325c-0.29,-3.09 3.775,-5.445 3.775,-8" style="fill:white;fill-rule:nonzero;"/><path d="M16.202,10.957c-0.018,-0.011 -0.041,-0.011 -0.06,-0c-0.05,0.57 -0.68,1.805 -1.47,2.935c-2.69,3.845 -1.16,5.675 -0.3,6.675c0.5,0.58 0,-0 1.25,-0.595c1.506,-0.841 2.515,-2.361 2.705,-4.075c0.159,-1.891 -0.628,-3.742 -2.1,-4.94" style="fill:rgb(5,155,220);fill-rule:nonzero;"/></g></g></svg>