<?xml version="1.0" encoding="UTF-8" standalone="no"?><!DOCTYPE svg PUBLIC "-//W3C//DTD SVG 1.1//EN" "http://www.w3.org/Graphics/SVG/1.1/DTD/svg11.dtd"><svg width="25px" height="25px" version="1.1" xmlns="http://www.w3.org/2000/svg" xmlns:xlink="http://www.w3.org/1999/xlink" xml:space="preserve" xmlns:serif="http://www.serif.com/" style="fill-rule:evenodd;clip-rule:evenodd;stroke-linejoin:round;stroke-miterlimit:2;"><g id="Layer_2"><g id="Layer_1-2"><path d="M3.493,11.911l3.69,-8.765l10.48,1.185l2.145,6.5l-1.075,8.945c-1.54,1.667 -2.524,2.5 -2.95,2.5c-0.427,-0 -3.645,-0.593 -9.655,-1.78l-2.63,-6.5l-0.005,-2.085Z" style="fill:rgb(249,249,249);fill-rule:nonzero;"/><path d="M17.153,19.786l-2.555,-0l-0,-4.4c-0,-0.7 -0.576,-1.275 -1.275,-1.275l-3.695,-0c-1.399,-0 -2.55,-1.151 -2.55,-2.55l-0,-5.68l2.555,-0l-0,4.4c-0,0.699 0.575,1.275 1.275,1.275l3.67,-0c1.401,-0 2.555,1.153 2.555,2.555l0.02,5.675Zm-7.415,-0l-2.56,-0l-0,-4.285c0.001,-0 0.003,-0 0.005,-0c1.399,-0 2.552,1.15 2.555,2.55l-0,1.735Zm4.775,-13.905l2.555,-0l-0,4.29c-1.402,-0 -2.555,-1.154 -2.555,-2.555l-0,-1.735Zm-2.385,-5.05c-6.583,-0 -12,5.417 -12,12c-0,6.583 5.417,12 12,12c6.583,-0 12,-5.417 12,-12c-0,-6.583 -5.417,-12 -12,-12Z" style="fill:rgb(0,95,250);fill-rule:nonzero;"/></g></g></svg>