<svg width="24" height="24" viewBox="0 0 24 24" fill="none" xmlns="http://www.w3.org/2000/svg">
<circle cx="12" cy="12" r="12" fill="#1C0928"/>
<path d="M16.63 7.5C15.6264 7.5 14.5274 8.04559 13.3683 9.12174C12.8213 9.62728 12.3395 10.1779 11.9883 10.6133C11.9883 10.6133 12.5503 11.259 13.1675 11.9548C13.5037 11.5343 13.9805 10.9637 14.5375 10.4482C15.5662 9.48713 16.2386 9.29192 16.625 9.29192C18.0702 9.29192 19.2444 10.5032 19.2444 11.9998C19.2444 13.4814 18.0702 14.6927 16.625 14.7077C16.5547 14.7077 16.4744 14.6977 16.3741 14.6777C16.7956 14.8729 17.2522 15.0131 17.6788 15.0131C20.3283 15.0131 20.8502 13.1861 20.8803 13.056C20.9556 12.7206 21.0007 12.3702 21.0007 12.0098C20.9957 9.52217 19.0387 7.5 16.63 7.5Z" fill="url(#paint0_linear)"/>
<path d="M7.37074 16.4974C8.37435 16.4974 9.47331 15.9519 10.6325 14.8757C11.1795 14.3702 11.6612 13.8196 12.0125 13.3841C12.0125 13.3841 11.4504 12.7384 10.8332 12.0427C10.497 12.4631 10.0203 13.0337 9.46327 13.5493C8.43457 14.5003 7.75713 14.7055 7.37576 14.7055C5.93055 14.7055 4.75632 13.4942 4.75632 11.9976C4.75632 10.516 5.93055 9.30473 7.37576 9.28971C7.44601 9.28971 7.5263 9.29972 7.62666 9.31975C7.20514 9.12454 6.7485 8.98439 6.32196 8.98439C3.67242 8.97938 3.15054 10.8063 3.12043 10.9415C3.04516 11.2768 3 11.6272 3 11.9876C3 14.4753 4.95705 16.4974 7.37074 16.4974Z" fill="url(#paint1_linear)"/>
<path fill-rule="evenodd" clip-rule="evenodd" d="M9.38923 10.4882C9.09818 10.2079 7.68309 9.06168 6.32821 9.02163C3.9095 8.96157 3.20195 10.7134 3.13672 10.9387C3.6034 8.97658 5.32961 7.51001 7.37699 7.5C9.048 7.5 10.7391 9.13676 11.9886 10.6133L11.9936 10.6083C11.9936 10.6083 12.5556 11.254 13.1729 11.9498C13.1729 11.9498 13.8754 12.7757 14.6181 13.5014C14.9091 13.7817 16.3192 14.913 17.6741 14.953C20.158 15.0231 20.8455 13.1711 20.8806 13.0309C20.424 15.0081 18.6927 16.4796 16.6353 16.4896C14.9643 16.4896 13.2732 14.8529 12.0187 13.3763C12.0187 13.3813 12.0137 13.3813 12.0137 13.3863C12.0137 13.3863 11.4517 12.7406 10.8344 12.0449C10.8395 12.0449 10.1369 11.214 9.38923 10.4882ZM3.13672 10.9587C3.13672 10.9537 3.13672 10.9487 3.14174 10.9437C3.13672 10.9487 3.13672 10.9537 3.13672 10.9587Z" fill="#29ABE2"/>
<defs>
<linearGradient id="paint0_linear" x1="14.2808" y1="8.21309" x2="20.4513" y2="14.4502" gradientUnits="userSpaceOnUse">
<stop offset="0.21" stop-color="#F15A24"/>
<stop offset="0.6841" stop-color="#FBB03B"/>
</linearGradient>
<linearGradient id="paint1_linear" x1="9.72151" y1="15.7854" x2="3.55099" y2="9.5483" gradientUnits="userSpaceOnUse">
<stop offset="0.21" stop-color="#ED1E79"/>
<stop offset="0.8929" stop-color="#522785"/>
</linearGradient>
</defs>
</svg>
