<svg width="24" height="24" viewBox="0 0 24 24" fill="none" xmlns="http://www.w3.org/2000/svg">
<circle cx="12" cy="12" r="12" fill="black"/>
<g clip-path="url(#clip0)">
<path d="M15.6362 6.05172C16.1247 6.05172 16.5215 5.64844 16.5215 5.15298C16.5215 4.65752 16.1247 4.25488 15.6362 4.25488C15.1478 4.25744 14.751 4.66008 14.751 5.15554C14.751 5.651 15.1478 6.05172 15.6362 6.05172ZM15.8974 8.38691C16.0977 8.38539 16.2893 8.30435 16.4298 8.16163C16.5704 8.0189 16.6485 7.82618 16.647 7.62586C16.647 7.20722 16.3116 6.86475 15.8974 6.86475C15.4833 6.86475 15.1478 7.20466 15.1478 7.62586C15.1478 8.04707 15.4826 8.38691 15.8974 8.38691ZM17.9554 8.68457C18.3677 8.68457 18.7031 8.34466 18.7031 7.92538C18.7031 7.50609 18.3677 7.16618 17.9554 7.16618C17.5432 7.16618 17.2078 7.50609 17.2078 7.92538C17.2078 8.34466 17.5438 8.68457 17.9554 8.68457ZM17.7083 10.6824C18.0617 10.6824 18.3478 10.3918 18.3478 10.034C18.3478 9.67613 18.0617 9.38551 17.7083 9.38551C17.355 9.38551 17.0689 9.67613 17.0689 10.034C17.0689 10.3918 17.355 10.6824 17.7083 10.6824ZM19.356 11.3302C19.7119 11.3302 20 11.0377 20 10.6773C20 10.3169 19.7119 10.0244 19.356 10.0244C19.2709 10.0249 19.1867 10.0423 19.1082 10.0754C19.0298 10.1086 18.9586 10.1568 18.8988 10.2174C18.839 10.2781 18.7917 10.3499 18.7597 10.4288C18.7277 10.5077 18.7115 10.5921 18.7121 10.6773C18.7121 11.0377 19.0008 11.3302 19.356 11.3302ZM15.6375 10.4123C15.7241 10.4118 15.8098 10.3942 15.8896 10.3606C15.9694 10.327 16.0418 10.278 16.1026 10.2164C16.1635 10.1549 16.2116 10.0819 16.2443 10.0017C16.277 9.92152 16.2935 9.83569 16.293 9.7491V9.74782C16.293 9.38103 16.0005 9.08337 15.6375 9.08337C15.2746 9.08337 14.982 9.38039 14.982 9.74782C14.982 10.1127 15.2752 10.4123 15.6375 10.4123ZM15.0435 12.0017C15.3475 12.0017 15.5927 11.7521 15.5927 11.4454C15.5939 11.2991 15.5369 11.1583 15.4343 11.054C15.3317 10.9497 15.1918 10.8904 15.0455 10.8892H15.0435C14.7394 10.8892 14.4943 11.1388 14.4943 11.4454C14.4943 11.7521 14.7394 12.0017 15.0435 12.0017ZM17.1047 12.2827C17.1767 12.2822 17.248 12.2676 17.3143 12.2395C17.3807 12.2115 17.4409 12.1707 17.4915 12.1194C17.5421 12.0681 17.582 12.0074 17.6091 11.9406C17.6363 11.8739 17.6499 11.8025 17.6495 11.7304V11.7291C17.6495 11.4231 17.4062 11.1754 17.1047 11.1754C16.8032 11.1754 16.56 11.4231 16.56 11.7291C16.559 11.8009 16.5722 11.8721 16.5988 11.9388C16.6255 12.0055 16.6649 12.0662 16.715 12.1176C16.7651 12.1691 16.8249 12.2101 16.8908 12.2384C16.9568 12.2667 17.0277 12.2818 17.0995 12.2827H17.1047ZM18.7479 12.928C19.052 12.928 19.2971 12.6783 19.2971 12.3698C19.2971 12.0612 19.052 11.8116 18.7479 11.8116C18.4438 11.8116 18.1987 12.0612 18.1987 12.3698C18.1971 12.5163 18.2539 12.6574 18.3564 12.7621C18.4589 12.8668 18.5988 12.9264 18.7453 12.928H18.7479ZM17.9362 14.134C18.1929 14.134 18.4003 13.9221 18.4003 13.6635C18.4003 13.4049 18.1929 13.193 17.9362 13.193C17.6795 13.193 17.4721 13.4049 17.4721 13.6635C17.4721 13.9221 17.6795 14.134 17.9362 14.134ZM16.2853 13.499C16.5465 13.499 16.7603 13.2826 16.7603 13.017C16.7603 12.7513 16.5484 12.5349 16.2853 12.5349C16.0222 12.5349 15.8104 12.7513 15.8104 13.017C15.8104 13.2826 16.0242 13.499 16.2853 13.499ZM14.2267 13.2045C14.352 13.2025 14.4715 13.1514 14.5594 13.0621C14.6474 12.9729 14.6967 12.8526 14.6968 12.7273C14.6969 12.602 14.6477 12.4817 14.5599 12.3923C14.4721 12.3029 14.3526 12.2516 14.2273 12.2494H14.2267C14.1014 12.2514 13.9819 12.3025 13.8939 12.3918C13.806 12.4811 13.7567 12.6013 13.7566 12.7267C13.7565 12.852 13.8057 12.9723 13.8935 13.0617C13.9813 13.1511 14.1007 13.2024 14.226 13.2045H14.2267ZM15.3712 14.3375C15.5985 14.3375 15.7809 14.1506 15.7809 13.9234C15.7819 13.8146 15.7397 13.7098 15.6635 13.6321C15.5873 13.5545 15.4833 13.5102 15.3745 13.5092H15.3712C15.144 13.5092 14.9616 13.6961 14.9616 13.9234C14.9604 14.032 15.0024 14.1367 15.0783 14.2144C15.1543 14.292 15.258 14.3363 15.3667 14.3375H15.3712ZM17.0215 14.9834C17.2487 14.9834 17.4356 14.7965 17.4356 14.5648C17.4356 14.3331 17.2513 14.1461 17.0215 14.1461C16.9105 14.1461 16.804 14.1902 16.7255 14.2688C16.6469 14.3473 16.6028 14.4538 16.6028 14.5648C16.6028 14.6758 16.6469 14.7823 16.7255 14.8608C16.804 14.9393 16.9105 14.9834 17.0215 14.9834ZM16.092 15.468C16.2719 15.468 16.4185 15.3195 16.4185 15.1371C16.419 15.0499 16.3849 14.9661 16.3237 14.9041C16.2625 14.842 16.1792 14.8068 16.092 14.8061C15.9121 14.8061 15.7656 14.9546 15.7656 15.1371C15.7654 15.2241 15.7996 15.3077 15.8607 15.3697C15.9218 15.4317 16.005 15.467 16.092 15.468ZM15.2112 15.7279C15.2502 15.7277 15.2888 15.7197 15.3247 15.7046C15.3606 15.6894 15.3932 15.6674 15.4206 15.6396C15.448 15.6119 15.4697 15.579 15.4844 15.5429C15.4991 15.5067 15.5065 15.4681 15.5063 15.4291V15.4283C15.5063 15.2619 15.3732 15.1287 15.2112 15.1287C15.1722 15.129 15.1336 15.1369 15.0977 15.1521C15.0618 15.1672 15.0292 15.1893 15.0018 15.217C14.9744 15.2448 14.9527 15.2776 14.938 15.3138C14.9233 15.3499 14.9159 15.3886 14.9161 15.4275V15.4283C14.9148 15.5064 14.9445 15.5818 14.9987 15.638C15.053 15.6941 15.1273 15.7265 15.2054 15.7278L15.2112 15.7279ZM14.4398 14.8663C14.6338 14.8663 14.7913 14.7063 14.7913 14.5104C14.7913 14.3145 14.6338 14.1545 14.4398 14.1545C14.2459 14.1545 14.0884 14.3145 14.0884 14.5104C14.0882 14.6041 14.125 14.694 14.1909 14.7607C14.2567 14.8273 14.3462 14.8653 14.4398 14.8663ZM13.3081 14.0501C13.5334 14.0501 13.7178 13.8658 13.7178 13.636C13.7178 13.4062 13.5353 13.2218 13.3081 13.2218C13.0828 13.2218 12.8984 13.4062 12.8984 13.636C12.8982 13.7451 12.9412 13.8498 13.018 13.9274C13.0947 14.005 13.199 14.0491 13.3081 14.0501ZM16.6643 19.239C17.1508 19.239 17.5451 18.8383 17.5451 18.3447C17.5451 17.8512 17.1508 17.4505 16.6643 17.4505C16.1778 17.4505 15.7835 17.8512 15.7835 18.3447C15.7835 18.8383 16.1778 19.239 16.6643 19.239ZM14.427 18.1073C14.8322 18.1073 15.1613 17.7737 15.1613 17.3621C15.1613 16.9505 14.8322 16.617 14.427 16.617C14.0218 16.617 13.6928 16.9505 13.6928 17.3621C13.6928 17.7737 14.0212 18.1073 14.427 18.1073ZM13.1487 19.7453C13.5584 19.7453 13.8893 19.4099 13.8893 18.9932C13.8893 18.579 13.5584 18.241 13.1487 18.241C12.739 18.241 12.4081 18.5765 12.4081 18.9932C12.4065 19.1911 12.4837 19.3816 12.6226 19.5226C12.7615 19.6637 12.9507 19.7438 13.1486 19.7453H13.1487ZM12.764 16.7271C12.8489 16.7266 12.9329 16.7092 13.0111 16.6762C13.0893 16.6432 13.1602 16.5951 13.2199 16.5346C13.2795 16.4742 13.3266 16.4026 13.3585 16.3239C13.3905 16.2452 13.4066 16.161 13.406 16.0761C13.4066 15.9912 13.3905 15.907 13.3585 15.8284C13.3266 15.7497 13.2795 15.6781 13.2199 15.6176C13.1602 15.5572 13.0893 15.5091 13.0111 15.476C12.9329 15.443 12.8489 15.4257 12.764 15.4251C12.6791 15.4257 12.5951 15.443 12.5169 15.476C12.4387 15.5091 12.3678 15.5572 12.3081 15.6176C12.2485 15.6781 12.2014 15.7497 12.1694 15.8284C12.1375 15.907 12.1214 15.9912 12.1219 16.0761C12.1226 16.4346 12.4106 16.7271 12.764 16.7271ZM11.4889 18.3876C11.8422 18.3876 12.1283 18.097 12.1283 17.7392C12.1283 17.3813 11.8422 17.0907 11.4889 17.0907C11.1355 17.0907 10.8494 17.3813 10.8494 17.7392C10.8477 17.9094 10.9137 18.0734 11.0329 18.195C11.1521 18.3166 11.3147 18.3859 11.485 18.3876H11.4889ZM10.1145 19.5143C10.4679 19.5143 10.7521 19.2236 10.7521 18.8677C10.7521 18.5099 10.4659 18.2212 10.1145 18.2212C9.76115 18.2212 9.47694 18.5118 9.47694 18.8677C9.47694 19.2236 9.76307 19.5143 10.1145 19.5143ZM8.97059 18.0477C9.11588 18.0464 9.25473 17.9876 9.3568 17.8842C9.45887 17.7808 9.51587 17.6412 9.51534 17.4959C9.51534 17.1919 9.27209 16.9441 8.97059 16.9441C8.82571 16.9463 8.6875 17.0055 8.58582 17.1087C8.48414 17.2119 8.42715 17.351 8.42715 17.4959C8.42715 17.6408 8.48414 17.7799 8.58582 17.8832C8.6875 17.9864 8.82571 18.0455 8.97059 18.0477ZM10.3475 16.916C10.4929 16.915 10.6319 16.8563 10.7341 16.7528C10.8362 16.6493 10.8931 16.5096 10.8923 16.3642C10.8923 16.0582 10.649 15.8124 10.3475 15.8124C10.2026 15.8143 10.0643 15.8732 9.96241 15.9763C9.86054 16.0793 9.8033 16.2183 9.80305 16.3632C9.80279 16.5082 9.85955 16.6474 9.96107 16.7508C10.0626 16.8542 10.2007 16.9135 10.3456 16.916H10.3475ZM11.6322 15.2561C11.7043 15.2556 11.7755 15.241 11.8419 15.2129C11.9082 15.1849 11.9684 15.1441 12.019 15.0928C12.0696 15.0415 12.1096 14.9808 12.1367 14.914C12.1638 14.8473 12.1775 14.7759 12.177 14.7038V14.7025C12.177 14.3965 11.9337 14.1488 11.6322 14.1488C11.5602 14.1493 11.489 14.1639 11.4226 14.192C11.3563 14.22 11.2961 14.2608 11.2455 14.3121C11.1949 14.3634 11.1549 14.4241 11.1278 14.4909C11.1007 14.5576 11.087 14.629 11.0875 14.7011V14.7024C11.0875 15.0084 11.3307 15.2561 11.6322 15.2561ZM9.66705 15.4846C9.92823 15.4846 10.1401 15.2708 10.1401 15.0052C10.1401 14.7395 9.92823 14.5257 9.66705 14.5257C9.40588 14.5257 9.194 14.7395 9.194 15.0052C9.194 15.2708 9.40588 15.4846 9.66705 15.4846ZM8.29718 16.6119C8.35905 16.6116 8.42025 16.5991 8.47728 16.5751C8.53431 16.5511 8.58606 16.5161 8.62957 16.4721C8.67308 16.4281 8.70751 16.376 8.73087 16.3187C8.75424 16.2614 8.76609 16.2001 8.76575 16.1382V16.1369C8.76695 16.0122 8.71853 15.892 8.63115 15.803C8.54376 15.7139 8.42458 15.6632 8.2998 15.662H8.29718C8.23531 15.6623 8.17411 15.6748 8.11708 15.6988C8.06005 15.7228 8.0083 15.7578 7.96479 15.8018C7.92127 15.8458 7.88685 15.8979 7.86349 15.9552C7.84012 16.0125 7.82827 16.0738 7.82861 16.1357V16.1369C7.82818 16.1989 7.83997 16.2603 7.86329 16.3177C7.88661 16.3751 7.92101 16.4274 7.96452 16.4715C8.00803 16.5156 8.0598 16.5507 8.11688 16.5748C8.17396 16.5989 8.23522 16.6115 8.29718 16.6119ZM7.98224 15.2907C8.09022 15.2898 8.19347 15.2463 8.26941 15.1695C8.34534 15.0927 8.38778 14.989 8.38744 14.881C8.38744 14.6538 8.205 14.4713 7.98224 14.4713C7.75947 14.4713 7.57704 14.6557 7.57704 14.881C7.57704 15.1083 7.75947 15.2907 7.98224 15.2907ZM7.97071 14.1314C8.0167 14.131 8.06215 14.1215 8.10447 14.1035C8.14679 14.0856 8.18516 14.0594 8.21737 14.0266C8.24959 13.9938 8.27503 13.955 8.29224 13.9123C8.30945 13.8697 8.31809 13.824 8.31766 13.7781C8.31766 13.5841 8.16211 13.4247 7.97071 13.4247C7.77932 13.4247 7.62376 13.5822 7.62376 13.7781C7.62376 13.9739 7.77932 14.1314 7.97071 14.1314ZM8.16147 13.1674C8.32598 13.1674 8.45657 13.0323 8.45657 12.8678C8.45657 12.7033 8.32342 12.5682 8.16147 12.5682C7.99696 12.5682 7.86637 12.7033 7.86637 12.8678C7.86637 13.0323 7.99696 13.1674 8.16147 13.1674ZM9.34251 13.0061C9.53647 13.0061 9.69394 12.846 9.69394 12.6502C9.69394 12.4543 9.53647 12.2943 9.34251 12.2943C9.14855 12.2943 8.99108 12.4543 8.99108 12.6502C8.99074 12.7439 9.02751 12.8339 9.09336 12.9006C9.15921 12.9673 9.24879 13.0052 9.34251 13.0061ZM10.6388 12.501C10.8641 12.501 11.0484 12.3141 11.0484 12.0868C11.0495 11.978 11.0072 11.8733 10.931 11.7956C10.8548 11.7179 10.7508 11.6737 10.642 11.6727H10.6388C10.4134 11.6727 10.2291 11.8596 10.2291 12.0868C10.2287 12.1408 10.2389 12.1943 10.2591 12.2444C10.2794 12.2944 10.3093 12.3399 10.3472 12.3784C10.3851 12.4168 10.4301 12.4475 10.4798 12.4685C10.5295 12.4895 10.5829 12.5006 10.6368 12.501H10.6388ZM10.9473 13.8158C11.0706 13.8156 11.1887 13.7664 11.2757 13.6791C11.3628 13.5918 11.4116 13.4735 11.4115 13.3502C11.4113 13.227 11.3623 13.1088 11.2751 13.0217C11.1879 12.9345 11.0696 12.8856 10.9463 12.8856C10.8231 12.8856 10.7048 12.9345 10.6176 13.0217C10.5304 13.1088 10.4814 13.227 10.4812 13.3502C10.4811 13.4735 10.5299 13.5918 10.617 13.6791C10.704 13.7664 10.8221 13.8156 10.9454 13.8158H10.9473ZM9.35915 14.166C9.58448 14.166 9.76435 13.9816 9.76435 13.7537C9.76435 13.5259 9.58192 13.3415 9.35915 13.3415C9.30561 13.3418 9.25265 13.3527 9.20331 13.3735C9.15396 13.3943 9.1092 13.4246 9.07157 13.4627C9.03395 13.5008 9.00419 13.5459 8.98401 13.5955C8.96383 13.6451 8.95361 13.6982 8.95395 13.7518V13.7537C8.95319 13.8071 8.96295 13.8601 8.98267 13.9097C9.00239 13.9593 9.03168 14.0045 9.06888 14.0428C9.10608 14.0811 9.15045 14.1116 9.19947 14.1328C9.24848 14.1539 9.30118 14.1652 9.35454 14.1659H9.35915V14.166ZM4.87826 13.5547C5.36219 13.5547 5.75651 13.1559 5.75651 12.6649C5.75651 12.1739 5.36219 11.7751 4.87826 11.7751C4.39432 11.7751 4 12.1745 4 12.6655C4 13.1565 4.39432 13.5547 4.87826 13.5547ZM6.87161 11.9659C7.28834 11.9659 7.62376 11.6234 7.62376 11.2022C7.62376 10.781 7.28578 10.4385 6.87161 10.4385C6.67078 10.4399 6.47871 10.5209 6.33766 10.6639C6.19661 10.8069 6.11812 11 6.11946 11.2008V11.2022C6.11946 11.626 6.45745 11.9659 6.87161 11.9659ZM6.09386 10.0071C6.50802 10.0071 6.84153 9.66716 6.84153 9.24788C6.84153 8.8286 6.5061 8.48869 6.09386 8.48869C5.995 8.48935 5.89725 8.50948 5.80617 8.54792C5.71509 8.58637 5.63248 8.64238 5.56305 8.71275C5.49363 8.78313 5.43874 8.86649 5.40153 8.95807C5.36432 9.04966 5.34551 9.14768 5.34619 9.24654V9.24788C5.34416 9.44718 5.42137 9.63913 5.56085 9.7815C5.70033 9.92387 5.89065 10.005 6.08995 10.0071H6.09386ZM8.01552 9.07889C8.36887 9.07889 8.65757 8.78827 8.65757 8.42788C8.65757 8.06749 8.36951 7.77687 8.01552 7.77687C7.66153 7.77687 7.37347 8.06749 7.37347 8.42788C7.37347 8.78827 7.66217 9.07889 8.01552 9.07889ZM8.80096 11.0332C9.15687 11.0332 9.44493 10.7407 9.44493 10.3803C9.44493 10.0199 9.15687 9.72734 8.80096 9.72734C8.44505 9.72734 8.15699 10.0199 8.15699 10.3803C8.15699 10.7407 8.44505 11.0332 8.80096 11.0332ZM10.5498 10.6274C10.6961 10.6262 10.836 10.5669 10.9386 10.4626C11.0413 10.3583 11.0983 10.2175 11.0971 10.0711C11.0982 9.99928 11.0851 9.92789 11.0586 9.86106C11.0322 9.79424 10.9928 9.73329 10.9427 9.68169C10.8927 9.63009 10.833 9.58885 10.767 9.56033C10.701 9.5318 10.63 9.51656 10.5582 9.51545C10.4863 9.51435 10.4149 9.52742 10.3481 9.55391C10.2813 9.58039 10.2203 9.61978 10.1687 9.66983C10.1171 9.71987 10.0759 9.77959 10.0474 9.84557C10.0188 9.91155 10.0036 9.9825 10.0025 10.0544C10.0025 10.06 10.0025 10.0656 10.0025 10.0711C10.0008 10.217 10.0571 10.3575 10.159 10.4618C10.2609 10.5661 10.4001 10.6257 10.5459 10.6274L10.5498 10.6274ZM12.0605 10.6325C12.3217 10.6325 12.5335 10.4187 12.5335 10.1549C12.5335 9.89121 12.3217 9.67741 12.0605 9.67741C11.9338 9.67741 11.8124 9.72772 11.7228 9.81727C11.6333 9.90683 11.583 10.0283 11.583 10.1549C11.583 10.2816 11.6333 10.4031 11.7228 10.4926C11.8124 10.5822 11.9338 10.6325 12.0605 10.6325ZM13.3087 10.9199C13.527 10.9199 13.7075 10.74 13.7075 10.5166C13.7075 10.2932 13.5296 10.1133 13.3087 10.1133C13.2025 10.1142 13.1008 10.1571 13.0261 10.2326C12.9513 10.3082 12.9096 10.4103 12.9099 10.5166C12.9125 10.7375 13.0898 10.9199 13.3087 10.9199ZM13.4713 9.44888C13.5639 9.44822 13.6525 9.41084 13.7175 9.34495C13.7826 9.27906 13.8188 9.19004 13.8183 9.09745C13.8183 8.90349 13.6627 8.74602 13.4713 8.74602C13.2799 8.74602 13.1244 8.90349 13.1244 9.09745C13.1239 9.19004 13.1601 9.27906 13.2251 9.34495C13.2902 9.41084 13.3787 9.44822 13.4713 9.44888ZM12.5111 8.9675C12.6171 8.96724 12.7186 8.92493 12.7934 8.84987C12.8682 8.77481 12.9101 8.67314 12.91 8.56719C12.9098 8.46123 12.8677 8.35966 12.7927 8.28479C12.7177 8.20991 12.6161 8.16786 12.5101 8.16786C12.4042 8.16786 12.3026 8.20991 12.2276 8.28479C12.1526 8.35966 12.1105 8.46123 12.1103 8.56719C12.1102 8.67314 12.1521 8.77481 12.2269 8.84987C12.3017 8.92493 12.4032 8.96724 12.5092 8.9675H12.5111ZM11.2776 8.67561C11.4027 8.67459 11.5222 8.62402 11.6101 8.53498C11.6979 8.44594 11.7469 8.3257 11.7462 8.20063C11.7462 7.9369 11.5369 7.72566 11.2776 7.72566C11.0184 7.72566 10.809 7.93946 10.809 8.20063C10.8085 8.2625 10.8202 8.32387 10.8434 8.38122C10.8666 8.43858 10.9009 8.4908 10.9443 8.5349C10.9877 8.57901 11.0394 8.61414 11.0963 8.63828C11.1533 8.66242 11.2145 8.6751 11.2763 8.67561H11.2776ZM9.76947 8.67753C10.0735 8.67753 10.3187 8.42788 10.3187 8.12126C10.3187 7.81463 10.0735 7.56498 9.76947 7.56498C9.46541 7.56498 9.22024 7.81463 9.22024 8.12126C9.21973 8.26773 9.27721 8.40845 9.38012 8.51268C9.48303 8.61691 9.62301 8.67618 9.76947 8.67753ZM7.73835 7.28653C8.08274 7.28653 8.35991 7.00487 8.35991 6.656C8.35991 6.30713 8.08082 6.02548 7.73835 6.02548C7.39396 6.02548 7.11678 6.30713 7.11678 6.656C7.11678 7.00487 7.39588 7.28653 7.73835 7.28653ZM9.48654 6.90437C9.7906 6.90437 10.0358 6.65472 10.0358 6.3481C10.0358 6.04148 9.7906 5.79183 9.48654 5.79183C9.18248 5.79183 8.93731 6.04148 8.93731 6.3481C8.93731 6.65472 9.18248 6.90437 9.48654 6.90437ZM10.9966 6.91141C11.2578 6.91141 11.4697 6.69761 11.4697 6.43196C11.4697 6.16631 11.2578 5.9525 10.9966 5.9525C10.9341 5.95284 10.8724 5.96547 10.8148 5.98968C10.7572 6.0139 10.705 6.04921 10.661 6.09362C10.6171 6.13802 10.5824 6.19064 10.5588 6.24847C10.5352 6.30631 10.5232 6.36822 10.5235 6.43068V6.43196C10.523 6.55817 10.5725 6.67946 10.6611 6.76931C10.7498 6.85916 10.8704 6.91025 10.9966 6.91141ZM12.2359 7.19691C12.4567 7.19691 12.6347 7.01704 12.6347 6.79363C12.6347 6.57023 12.4567 6.39035 12.2359 6.39035C12.1289 6.39035 12.0264 6.43284 11.9507 6.50847C11.8751 6.5841 11.8326 6.68667 11.8326 6.79363C11.8326 6.90059 11.8751 7.00316 11.9507 7.07879C12.0264 7.15442 12.1289 7.19691 12.2359 7.19691ZM13.1878 7.69109C13.2827 7.69041 13.3735 7.65208 13.4403 7.58451C13.507 7.51695 13.5442 7.42566 13.5437 7.3307C13.5437 7.13034 13.3836 6.97031 13.1878 6.97031C12.9919 6.97031 12.8318 7.13226 12.8318 7.3307C12.8318 7.52914 12.9919 7.69109 13.1878 7.69109ZM13.8861 8.25824C13.9248 8.25799 13.963 8.25013 13.9987 8.2351C14.0343 8.22007 14.0666 8.19816 14.0938 8.17064C14.121 8.14312 14.1424 8.11052 14.157 8.0747C14.1716 8.03887 14.1789 8.00053 14.1787 7.96186V7.96122C14.179 7.92255 14.1717 7.8842 14.1572 7.84834C14.1428 7.81249 14.1214 7.77984 14.0942 7.75226C14.0671 7.72468 14.0349 7.7027 13.9993 7.6876C13.9637 7.67249 13.9254 7.66454 13.8868 7.6642H13.8861C13.8475 7.66446 13.8092 7.67232 13.7736 7.68735C13.738 7.70238 13.7056 7.72428 13.6785 7.75181C13.6513 7.77933 13.6298 7.81193 13.6153 7.84775C13.6007 7.88357 13.5933 7.92191 13.5936 7.96058V7.96122C13.593 7.99964 13.6 8.03779 13.6141 8.07351C13.6283 8.10923 13.6494 8.1418 13.6761 8.16938C13.7029 8.19696 13.7348 8.21899 13.77 8.23423C13.8053 8.24946 13.8432 8.2576 13.8817 8.25818H13.8863L13.8861 8.25824Z" fill="white"/>
</g>
<defs>
<clipPath id="clip0">
<rect width="16" height="15.4905" fill="white" transform="translate(4 4.25488)"/>
</clipPath>
</defs>
</svg>
