<?xml version="1.0" encoding="UTF-8" standalone="no"?><!DOCTYPE svg PUBLIC "-//W3C//DTD SVG 1.1//EN" "http://www.w3.org/Graphics/SVG/1.1/DTD/svg11.dtd"><svg width="25px" height="25px" version="1.1" xmlns="http://www.w3.org/2000/svg" xmlns:xlink="http://www.w3.org/1999/xlink" xml:space="preserve" xmlns:serif="http://www.serif.com/" style="fill-rule:evenodd;clip-rule:evenodd;stroke-linejoin:round;stroke-miterlimit:2;"><g id="Layer_2"><g id="Layer_1-2"><circle cx="12.899" cy="12.572" r="12" style="fill:rgb(0,147,221);"/><path d="M11.024,12.572l3.9,4l2.475,-2.5c0.19,-0.215 0.463,-0.338 0.75,-0.338c0.287,-0 0.561,0.123 0.75,0.338c0.449,0.455 0.449,1.196 0,1.65l-3.225,3.3c-0.205,0.215 -0.49,0.337 -0.787,0.337c-0.297,-0 -0.582,-0.122 -0.788,-0.337l-4.65,-4.8l0,2.85c0,0.617 -0.508,1.125 -1.125,1.125c-0.617,0 -1.125,-0.508 -1.125,-1.125l0,-9c0,-0.617 0.508,-1.125 1.125,-1.125c0.617,0 1.125,0.508 1.125,1.125l0,2.85l4.65,-4.8c0.206,-0.215 0.491,-0.336 0.788,-0.336c0.297,-0 0.582,0.121 0.787,0.336l3.225,3.3c0.449,0.455 0.449,1.196 0,1.65c-0.189,0.215 -0.463,0.339 -0.75,0.339c-0.287,-0 -0.56,-0.124 -0.75,-0.339l-2.475,-2.55l-3.9,4.05Zm3.9,-1.125c0.617,0 1.125,0.508 1.125,1.125c0,0.617 -0.508,1.125 -1.125,1.125c-0.617,0 -1.125,-0.508 -1.125,-1.125c0.016,-0.611 0.514,-1.109 1.125,-1.125Z" style="fill:white;fill-rule:nonzero;"/></g></g></svg>