<?xml version="1.0" encoding="UTF-8" standalone="no"?><!DOCTYPE svg PUBLIC "-//W3C//DTD SVG 1.1//EN" "http://www.w3.org/Graphics/SVG/1.1/DTD/svg11.dtd"><svg width="26px" height="25px" version="1.1" xmlns="http://www.w3.org/2000/svg" xmlns:xlink="http://www.w3.org/1999/xlink" xml:space="preserve" xmlns:serif="http://www.serif.com/" style="fill-rule:evenodd;clip-rule:evenodd;stroke-miterlimit:10;"><clipPath id="_clip1"><rect id="KSM.svg" x="0.783" y="0.083" width="24.5" height="24.5"/></clipPath><g clip-path="url(#_clip1)"><g id="Layer_2"><g id="Layer_1-2"><circle cx="13.033" cy="12.333" r="12" style="stroke:black;stroke-width:0.5px;"/><path d="M20.538,7.658c-0.308,-0.291 -0.697,-0.481 -1.115,-0.545c-0.513,0.001 -1.011,0.178 -1.41,0.5c-0.36,0.23 -1.04,0.91 -1.32,1.115c-0.28,0.205 -1,0.4 -2.155,1.09c-1.155,0.69 -5.69,3.605 -5.69,3.605l1.18,0l-5.245,2.74l0.5,0l-0.75,0.58c0.422,0.107 0.869,0.05 1.25,-0.16l-0,0.165c-0,0 6.265,-2.47 7.5,-1.83l-0.735,0.215l1.255,0.08c0.058,0.499 0.335,0.946 0.755,1.22c0.72,0.47 0.735,0.73 0.735,0.73c-0,0 -0.375,0.155 -0.375,0.345c0.652,-0.196 1.348,-0.196 2,0c0.652,0.197 -0.04,-0.205 -0.535,-0.345c-0.491,-0.207 -0.916,-0.544 -1.23,-0.975c-0.3,-0.381 -0.376,-0.893 -0.2,-1.345c0.17,-0.45 0.77,-0.695 2,-1.335c1.46,-0.755 1.795,-1.315 2,-1.755c0.205,-0.44 0.5,-1.31 0.68,-1.715c0.141,-0.383 0.385,-0.721 0.705,-0.975c0.387,-0.209 0.79,-0.388 1.205,-0.535c0.415,-0.147 -0.76,-0.675 -1.005,-0.87Z" style="fill:white;fill-rule:nonzero;"/></g></g></g></svg>