<svg width="24" height="24" viewBox="0 0 24 24" fill="none" xmlns="http://www.w3.org/2000/svg">
<path d="M12 0C18.6274 0 24 5.37257 24 12C24 18.6274 18.6274 24 12 24C5.37257 24 0 18.6274 0 12C0 5.37257 5.37257 0 12 0Z" fill="#1A222D"/>
<path d="M8.35443 10.8564H8.36171L8.48541 10.8996L8.60183 10.9428L8.72553 10.9788L8.84195 11.0292L8.96565 11.0724L9.08207 11.1156L9.20577 11.1588L9.3222 11.2021L9.43862 11.2453L9.55504 11.2885L9.67874 11.3317L9.79516 11.3821L9.91886 11.4181L10.0353 11.4613L10.159 11.5045L10.2754 11.5549L10.3991 11.5981L10.5155 11.6341L10.632 11.6773L10.7557 11.7277L10.8794 11.7709V11.5837V11.5549V11.4037V11.2957V11.2165V11.0292V10.8492V10.662V10.482V10.2876V10.1075V10.0859H10.7338H10.5956H10.581H10.4282H10.3118H10.2681H10.1153H10.0353H9.95524H9.79516H9.75151H9.64236H9.48955H9.48228H9.475H9.32947H9.1985H9.17667H9.01659H8.91472H8.63821H8.36171H8.35443H8.19435L8.07793 10.1435L7.80142 10.2876L7.51764 10.4388L7.23386 10.5756L6.96463 10.7196L6.68085 10.8708L6.39707 11.0076L6.12057 11.1588L5.83679 11.3029L5.56028 11.4397L5.28378 11.5909L5.02911 11.7205L5 15.8465L5.28378 16.0409L5.56028 16.2354L5.83679 16.4226L6.12057 16.6242L6.39707 16.8186L6.68085 17.013L6.80455 17.1067L6.96463 16.905L7.23386 16.545L7.26297 16.509L7.23386 16.4874L6.96463 16.293L6.68085 16.0986L6.39707 15.9041L6.12057 15.7097L5.83679 15.5081L5.76402 15.4649L5.78585 12.1237L5.83679 12.0949L6.12057 11.9581L6.39707 11.8213L6.68085 11.6845L6.96463 11.5477L7.23386 11.4037L7.51764 11.2669L7.80142 11.1372L8.07793 10.9932L8.35443 10.8564Z" fill="url(#paint0_linear)"/>
<path d="M13.171 18.726L12.9382 18.8196L12.6763 18.9277L12.4143 19.0285L12.1523 19.1365L12.0359 19.1797L11.8977 19.1149L11.6357 18.9781L11.3738 18.8557L11.1191 18.7188L10.8571 18.5892L10.5952 18.4668L10.3332 18.33L10.0713 18.2004L9.80934 18.0708L9.54739 17.9412L9.28544 17.8043L9.03804 17.6819L8.77609 17.5523L8.74698 17.5379V14.168H8.51414H8.25219H7.99023V17.9988L8.25219 18.1212L8.51414 18.2508L8.77609 18.3876L9.03804 18.51L9.28544 18.6468L9.54739 18.7764L9.80934 18.9061L10.0713 19.0357L10.3332 19.1653L10.5952 19.2949L10.8571 19.4245L11.1191 19.5613L11.3738 19.6837L11.6357 19.8206L11.8977 19.943L11.9995 20.0006L12.1523 19.9286L12.4143 19.835L12.6763 19.7269L12.9382 19.6189L13.1929 19.5181L13.4548 19.4173L13.1929 18.7692L13.171 18.726Z" fill="url(#paint1_linear)"/>
<path d="M17.8204 14.0457L17.835 15.6299L17.7695 15.6875L17.3256 15.9899L16.8818 16.3067L16.4379 16.6236L15.9941 16.9332L15.5502 17.2428L15.1136 17.5597L14.6697 17.8693L14.4078 18.0565L14.2259 17.9197L13.7893 17.5813L13.3454 17.25L12.9016 16.9116L12.465 16.5804L12.385 16.5228V14.8162L12.465 14.7442L12.9016 14.2833L13.3454 13.8297L13.7893 13.3688L14.2259 12.9152L14.6552 12.4688H14.2259H13.7893H13.3454H12.9016H12.465H12.0139H11.57H11.1334H10.6895H10.2457H9.8091H9.36523L9.8091 12.9296L10.2457 13.3832L10.6895 13.8369L11.1334 14.2977L11.57 14.7514L11.6355 14.8162V16.8828L12.0139 17.178L12.465 17.5165L12.9016 17.8477L13.3454 18.1861L13.7893 18.5174L14.2259 18.8558L14.386 18.9782L14.6697 18.7766L15.1136 18.4742L15.5502 18.1573L15.9941 17.8405L16.4379 17.5381L16.8818 17.2212L17.3256 16.9044L17.7695 16.602L18.2134 16.2851L18.5772 16.0187L18.65 14.0745L18.2134 14.0601L17.8204 14.0457Z" fill="url(#paint2_linear)"/>
<path d="M5.72144 10.3584H5.77237L5.77965 8.24137L6.06343 8.06135L6.41997 7.85253L6.76924 7.6437L7.11851 7.42768L7.46778 7.21886L7.82432 7.00284L8.16632 6.79402L8.52286 6.5852L8.87213 6.36917L9.22867 6.15315H9.23595L9.57067 6.34757L9.92721 6.54199L10.2765 6.74361L10.6257 6.93803L10.975 7.13245L11.3243 7.32687L11.6736 7.52849L12.0155 7.72291L12.0301 7.69411L12.3794 7.06765L12.0301 6.86602L11.6736 6.6716L11.3243 6.47718L10.975 6.28276L10.6257 6.08114L10.2765 5.88672L9.92721 5.6923L9.57067 5.49068L9.22867 5.29626L9.21412 5.28906L8.87213 5.49068L8.52286 5.70671L8.16632 5.92273L7.82432 6.13875L7.46778 6.34757L7.11851 6.55639L6.76924 6.77242L6.41997 6.98124L6.06343 7.19726L5.72144 7.40608L5.36489 7.6149L5.03018 7.82372L5.01562 10.3512H5.36489L5.72144 10.3584Z" fill="url(#paint3_linear)"/>
<path d="M19.3995 8.41916L19.2176 8.27514L19.0357 8.13113L18.8537 7.97991L18.6718 7.8359L18.4899 7.69188L18.3007 7.54787L18.1188 7.40385L17.9369 7.25984L17.7477 7.10862L17.6095 7.00781L17.5585 7.06542L17.3766 7.28864L17.1947 7.51907L17.1438 7.57667L17.1947 7.62708L17.3766 7.77829L17.5585 7.92951L17.7477 8.08072L17.9369 8.23194L18.1188 8.39035L18.3007 8.54157L18.4899 8.69279L18.5772 8.76479L18.5845 12.1707L18.4899 12.2356L18.3007 12.3508L18.1188 12.466L17.9369 12.5812L17.7477 12.6964L17.5585 12.8116L17.3766 12.9268L17.1947 13.042L17.0128 13.1572L16.8309 13.2725L16.649 13.3877L16.4598 13.5029L16.2779 13.6181L16.096 13.7333L15.9141 13.8485L15.7249 13.9637L15.543 14.0789L15.7249 14.367L15.9141 14.655L15.9432 14.7054L16.096 14.6118L16.2779 14.5038L16.4598 14.3886L16.649 14.2806L16.8309 14.1581L17.0128 14.0501L17.1947 13.9349L17.3766 13.8269L17.5585 13.7117L17.7477 13.6037L17.9369 13.4813L18.1188 13.3733L18.3007 13.2581L18.4899 13.15L18.6718 13.0348L18.8537 12.9268L19.0357 12.8044L19.2176 12.6964L19.3995 12.5812V8.41916Z" fill="url(#paint4_linear)"/>
<path d="M13.3968 10.4519V10.6391V10.8263V11.0135V11.2079V11.4024V11.5896V11.7768V11.9208L13.455 11.8992L13.7024 11.8056L13.9498 11.7048L14.1899 11.6112L14.4373 11.5104L14.6847 11.4096L14.9248 11.316L15.1722 11.2151L15.4196 11.1215L15.6598 11.0207L15.9071 10.9271L16.1473 10.8263V10.6391V10.5671V10.0702V6.36904L15.8708 6.19623L15.587 6.03781L15.3032 5.87939L15.0267 5.70658L14.7429 5.54816L14.4591 5.38974L14.1826 5.22413L13.8989 5.05851L13.6224 4.89289L13.3386 4.73448L13.0548 4.56886L12.7783 4.40324L12.5018 4.24483L12.218 4.08641L12.0652 4L11.9342 4.07201L11.6504 4.22322L11.3667 4.36724L11.0974 4.52565L10.8137 4.67687L10.5299 4.82088L10.2461 4.9793L10.5299 5.13772L10.8137 5.29613L10.9883 5.40414L11.0974 5.34654L11.3667 5.20252L11.6504 5.05131L11.9342 4.90729L12.0434 4.84969L12.218 4.9505L12.5018 5.10891L12.7783 5.26733L13.0548 5.43295L13.3386 5.59856L13.6224 5.75698L13.8989 5.9226L14.1826 6.08821L14.4591 6.24663L14.7429 6.40505L15.0267 6.57787L15.3032 6.73628L15.3978 6.78669V10.0702H15.3323H15.3032H15.1722H15.0267H15.0122H14.8448H14.7429H14.6847H14.5246H14.4591H14.3645H14.2045H14.1826H14.0444H13.8989H13.8843H13.7169H13.6224H13.5569H13.4332H13.4113" fill="url(#paint5_linear)"/>
<path d="M13.3965 11.9209L16.147 10.8264L13.3965 10.0703" fill="url(#paint6_linear)"/>
<path d="M10.8809 11.9234V10.1016L8.36328 10.8432L10.8809 11.9161" fill="url(#paint7_linear)"/>
<defs>
<linearGradient id="paint0_linear" x1="7.93786" y1="10.0881" x2="7.93786" y2="17.1038" gradientUnits="userSpaceOnUse">
<stop stop-color="#F6E93D"/>
<stop offset="0.13" stop-color="#F8E330"/>
<stop offset="0.35" stop-color="#F7C730"/>
<stop offset="0.64" stop-color="#F59C2E"/>
<stop offset="0.98" stop-color="#EB5E2C"/>
<stop offset="1" stop-color="#EB5C2C"/>
</linearGradient>
<linearGradient id="paint1_linear" x1="10.7236" y1="14.1708" x2="10.7236" y2="19.9998" gradientUnits="userSpaceOnUse">
<stop stop-color="#F6E93D"/>
<stop offset="0.13" stop-color="#F8E330"/>
<stop offset="0.35" stop-color="#F7C730"/>
<stop offset="0.64" stop-color="#F59C2E"/>
<stop offset="0.98" stop-color="#EB5E2C"/>
<stop offset="1" stop-color="#EB5C2C"/>
</linearGradient>
<linearGradient id="paint2_linear" x1="14.0072" y1="12.468" x2="14.0072" y2="18.9804" gradientUnits="userSpaceOnUse">
<stop stop-color="#F6E93D"/>
<stop offset="0.13" stop-color="#F8E330"/>
<stop offset="0.35" stop-color="#F7C730"/>
<stop offset="0.64" stop-color="#F59C2E"/>
<stop offset="0.98" stop-color="#EB5E2C"/>
<stop offset="1" stop-color="#EB5C2C"/>
</linearGradient>
<linearGradient id="paint3_linear" x1="8.69713" y1="5.29122" x2="8.69713" y2="10.3591" gradientUnits="userSpaceOnUse">
<stop stop-color="#F6E93D"/>
<stop offset="0.13" stop-color="#F8E330"/>
<stop offset="0.35" stop-color="#F7C730"/>
<stop offset="0.64" stop-color="#F59C2E"/>
<stop offset="0.98" stop-color="#EB5E2C"/>
<stop offset="1" stop-color="#EB5C2C"/>
</linearGradient>
<linearGradient id="paint4_linear" x1="17.4741" y1="7.00637" x2="17.4741" y2="14.7061" gradientUnits="userSpaceOnUse">
<stop stop-color="#F6E93D"/>
<stop offset="0.13" stop-color="#F8E330"/>
<stop offset="0.35" stop-color="#F7C730"/>
<stop offset="0.64" stop-color="#F59C2E"/>
<stop offset="0.98" stop-color="#EB5E2C"/>
<stop offset="1" stop-color="#EB5C2C"/>
</linearGradient>
<linearGradient id="paint5_linear" x1="13.196" y1="4" x2="13.196" y2="11.923" gradientUnits="userSpaceOnUse">
<stop stop-color="#F6E93D"/>
<stop offset="0.13" stop-color="#F8E330"/>
<stop offset="0.35" stop-color="#F7C730"/>
<stop offset="0.64" stop-color="#F59C2E"/>
<stop offset="0.98" stop-color="#EB5E2C"/>
<stop offset="1" stop-color="#EB5C2C"/>
</linearGradient>
<linearGradient id="paint6_linear" x1="14.7688" y1="10.0754" x2="14.7688" y2="11.9252" gradientUnits="userSpaceOnUse">
<stop stop-color="#F6E93D"/>
<stop offset="0.13" stop-color="#F8E330"/>
<stop offset="0.35" stop-color="#F7C730"/>
<stop offset="0.64" stop-color="#F59C2E"/>
<stop offset="0.98" stop-color="#EB5E2C"/>
<stop offset="1" stop-color="#EB5C2C"/>
</linearGradient>
<linearGradient id="paint7_linear" x1="9.59175" y1="11.4659" x2="10.1746" y2="9.84759" gradientUnits="userSpaceOnUse">
<stop stop-color="#F6E93D"/>
<stop offset="0.13" stop-color="#F8E330"/>
<stop offset="0.35" stop-color="#F7C730"/>
<stop offset="0.64" stop-color="#F59C2E"/>
<stop offset="0.98" stop-color="#EB5E2C"/>
<stop offset="1" stop-color="#EB5C2C"/>
</linearGradient>
</defs>
</svg>
