<svg width="24" height="24" viewBox="0 0 24 24" fill="none" xmlns="http://www.w3.org/2000/svg">
<path d="M12 24C18.6274 24 24 18.6274 24 12C24 5.37258 18.6274 0 12 0C5.37258 0 0 5.37258 0 12C0 18.6274 5.37258 24 12 24Z" fill="#172852"/>
<path d="M9.66585 5.36297C11.071 4.83737 12.6526 4.83617 14.0842 5.26817C15.9478 5.84657 17.521 7.25297 18.343 9.01817C18.5698 9.52097 18.787 10.0454 18.8086 10.6046C17.761 9.99737 16.6126 9.60377 15.4618 9.24497C13.621 8.58137 11.6938 8.12057 9.95145 7.20857C9.54585 6.96617 9.02866 6.71777 8.91826 6.21257C8.87386 5.77577 9.33586 5.53217 9.66585 5.36297Z" fill="#FFD83D"/>
<path d="M15.462 9.24463C16.6128 9.60343 17.7612 9.99703 18.8088 10.6042L18.8796 10.6414C18.9768 11.3722 19.0476 12.1174 18.918 12.8494C18.3912 12.6262 17.964 12.2338 17.5176 11.887C16.6584 11.1718 15.7812 10.3534 15.462 9.24463Z" fill="#FF6F03"/>
<path d="M5.4239 9.61107C5.8307 8.50707 6.4979 7.48226 7.4039 6.72266C7.63429 8.61747 8.4407 10.4487 9.7727 11.8263C11.3699 13.4859 13.6451 14.5047 15.9599 14.4663C16.8791 14.4951 17.7779 14.2827 18.6743 14.1111C17.7923 17.2983 14.2991 19.4139 11.0627 18.9051C9.1091 18.6555 7.30549 17.4987 6.21709 15.8655C4.98949 14.0607 4.6799 11.6643 5.4239 9.61107Z" fill="#FFD83D"/>
</svg>
