<?xml version="1.0" encoding="UTF-8" standalone="no"?><!DOCTYPE svg PUBLIC "-//W3C//DTD SVG 1.1//EN" "http://www.w3.org/Graphics/SVG/1.1/DTD/svg11.dtd"><svg width="25px" height="25px" version="1.1" xmlns="http://www.w3.org/2000/svg" xmlns:xlink="http://www.w3.org/1999/xlink" xml:space="preserve" xmlns:serif="http://www.serif.com/" style="fill-rule:evenodd;clip-rule:evenodd;stroke-linejoin:round;stroke-miterlimit:2;"><clipPath id="_clip1"><rect id="MANA.svg" x="0.206" y="0.52" width="23.945" height="24"/></clipPath><g clip-path="url(#_clip1)"><g id="Layer_2"><g id="Layer_1-2"><ellipse cx="12.181" cy="12.52" rx="11.975" ry="12" style="fill:url(#_Linear2);"/><path d="M8.706,8.32l0,9l7.5,0l-7.5,-9Z" style="fill:url(#_Linear3);fill-rule:nonzero;"/><path d="M1.206,17.32l7.5,0l0,-9l-7.5,9Z" style="fill:white;fill-rule:nonzero;"/><path d="M2.601,19.72c0.683,0.907 1.489,1.715 2.395,2.4l14.365,0c0.906,-0.685 1.712,-1.493 2.395,-2.4l-19.155,0Z" style="fill:rgb(252,153,101);fill-rule:nonzero;"/><path d="M4.996,22.12c4.242,3.19 10.124,3.19 14.365,0l-14.365,0Z" style="fill:rgb(255,45,85);fill-rule:nonzero;"/><path d="M16.266,13.12l0,6.6l5.5,0l-5.5,-6.6Z" style="fill:url(#_Linear4);fill-rule:nonzero;"/><path d="M16.271,17.32l-15.065,0c0.37,0.852 0.838,1.657 1.395,2.4l13.67,0l0,-2.4Z" style="fill:rgb(255,188,91);fill-rule:nonzero;"/><path d="M10.786,19.72l5.5,0l0,-6.6l-5.5,6.6Z" style="fill:white;fill-rule:nonzero;"/><ellipse cx="16.266" cy="8.32" rx="2.995" ry="3" style="fill:rgb(255,201,91);"/><ellipse cx="8.691" cy="5.02" rx="1.495" ry="1.5" style="fill:rgb(255,201,91);"/></g></g></g><defs><linearGradient id="_Linear2" x1="0" y1="0" x2="1" y2="0" gradientUnits="userSpaceOnUse" gradientTransform="matrix(-16,16,-16,-16,20.691,4.02006)"><stop offset="0" style="stop-color:rgb(255,45,85);stop-opacity:1"/><stop offset="1" style="stop-color:rgb(255,188,91);stop-opacity:1"/></linearGradient><linearGradient id="_Linear3" x1="0" y1="0" x2="1" y2="0" gradientUnits="userSpaceOnUse" gradientTransform="matrix(5.51091e-16,9,-9,5.51091e-16,12.436,8.52006)"><stop offset="0" style="stop-color:rgb(165,36,179);stop-opacity:1"/><stop offset="1" style="stop-color:rgb(255,45,85);stop-opacity:1"/></linearGradient><linearGradient id="_Linear4" x1="0" y1="0" x2="1" y2="0" gradientUnits="userSpaceOnUse" gradientTransform="matrix(5.33456e-15,87.12,-87.12,5.33456e-15,223.039,177.46)"><stop offset="0" style="stop-color:rgb(165,36,179);stop-opacity:1"/><stop offset="1" style="stop-color:rgb(255,45,85);stop-opacity:1"/></linearGradient></defs></svg>