<?xml version="1.0" encoding="UTF-8" standalone="no"?><!DOCTYPE svg PUBLIC "-//W3C//DTD SVG 1.1//EN" "http://www.w3.org/Graphics/SVG/1.1/DTD/svg11.dtd"><svg width="25px" height="25px" version="1.1" xmlns="http://www.w3.org/2000/svg" xmlns:xlink="http://www.w3.org/1999/xlink" xml:space="preserve" xmlns:serif="http://www.serif.com/" style="fill-rule:evenodd;clip-rule:evenodd;stroke-linejoin:round;stroke-miterlimit:2;"><g id="Layer_2"><g id="Layer_1-2"><circle cx="12.442" cy="12.567" r="12" style="fill:rgb(130,71,229);"/><path d="M17.072,9.567c-0.353,-0.19 -0.778,-0.19 -1.13,-0l-2.63,1.55l-1.785,1l-2.585,1.56c-0.354,0.185 -0.777,0.185 -1.13,-0l-2,-1.225c-0.355,-0.207 -0.571,-0.59 -0.565,-1l-0,-2.335c0,-0.409 0.215,-0.789 0.565,-1l2,-1.175c0.353,-0.185 0.776,-0.185 1.13,-0l2,1.225c0.354,0.207 0.57,0.59 0.565,1l-0,1.55l1.785,-1.03l-0,-1.62c0.001,-0.409 -0.214,-0.79 -0.565,-1l-3.74,-2.18c-0.351,-0.19 -0.775,-0.19 -1.125,-0l-3.855,2.255c-0.347,0.178 -0.565,0.535 -0.565,0.925l-0,4.42c-0.002,0.409 0.213,0.79 0.565,1l3.805,2.21c0.353,0.185 0.776,0.185 1.13,-0l2.585,-1.5l1.785,-1.035l2.585,-1.5c0.352,-0.185 0.773,-0.185 1.125,-0l2.025,1.175c0.35,0.21 0.563,0.591 0.56,1l-0,2.35c0.003,0.408 -0.21,0.789 -0.56,1l-2,1.175c-0.353,0.19 -0.778,0.19 -1.13,-0l-2,-1.175c-0.355,-0.207 -0.571,-0.59 -0.565,-1l-0,-1.5l-1.785,1.035l-0,1.55c-0.002,0.409 0.213,0.79 0.565,1l3.81,2.17c0.352,0.19 0.777,0.19 1.13,-0l3.805,-2.21c0.354,-0.207 0.57,-0.59 0.565,-1l-0,-4.45c0.001,-0.409 -0.214,-0.79 -0.565,-1l-3.805,-2.215Z" style="fill:white;fill-rule:nonzero;"/></g></g></svg>