<?xml version="1.0" encoding="UTF-8" standalone="no"?><!DOCTYPE svg PUBLIC "-//W3C//DTD SVG 1.1//EN" "http://www.w3.org/Graphics/SVG/1.1/DTD/svg11.dtd"><svg width="25px" height="25px" version="1.1" xmlns="http://www.w3.org/2000/svg" xmlns:xlink="http://www.w3.org/1999/xlink" xml:space="preserve" xmlns:serif="http://www.serif.com/" style="fill-rule:evenodd;clip-rule:evenodd;stroke-linejoin:round;stroke-miterlimit:2;"><g id="Layer_2"><g id="Layer_1-2"><g id="Layer_1-3"><path d="M12.893,0.654c6.583,-0 12,5.417 12,12c-0,6.583 -5.417,12 -12,12c-6.583,-0 -12,-5.417 -12,-12c-0,-6.583 5.417,-12 12,-12Z" style="fill:rgb(245,172,55);fill-rule:nonzero;"/><path d="M8.863,13.499l9.03,-0c0.1,-0 0.145,-0 0.15,-0.125c0.04,-0.465 0.04,-0.931 -0,-1.395c-0,-0.09 -0.045,-0.125 -0.14,-0.125l-9.075,-0c-0.11,-0 -0.145,0.035 -0.145,0.14l-0,1.335c-0,0.17 -0,0.17 0.18,0.17Zm8.675,-3.21c0.01,-0.033 0.01,-0.068 -0,-0.1c-0.078,-0.166 -0.17,-0.325 -0.275,-0.475c-0.155,-0.255 -0.342,-0.488 -0.555,-0.695c-0.099,-0.13 -0.215,-0.244 -0.345,-0.34c-0.649,-0.554 -1.421,-0.944 -2.25,-1.14c-0.419,-0.096 -0.847,-0.141 -1.275,-0.135l-4,-0c-0.115,-0 -0.13,0.045 -0.13,0.145l-0,2.66c-0,0.11 -0,0.14 0.145,0.14l8.63,-0c-0,-0 0.075,-0 0.09,-0.06l-0.035,-0Zm-0,4.77c-0.129,-0.01 -0.257,-0.01 -0.385,-0l-8.32,-0c-0.11,-0 -0.15,-0 -0.15,0.15l-0,2.605c-0,0.12 -0,0.15 0.15,0.15l3.84,-0c0.184,0.013 0.369,0.001 0.55,-0.035c0.557,-0.043 1.106,-0.164 1.63,-0.36c0.186,-0.07 0.367,-0.156 0.54,-0.255l0.05,-0c0.902,-0.468 1.636,-1.206 2.1,-2.11c0.463,-0.905 0.05,-0.11 -0,-0.14l-0.005,-0.005Zm-10.36,4.27l-0,-4.175c-0,-0.1 -0,-0.115 -0.12,-0.115l-1.625,-0c-0.095,-0 -0.13,-0 -0.13,-0.12l-0,-1.41l1.74,-0c0.095,-0 0.135,-0 0.135,-0.125l-0,-1.41c-0,-0.09 -0,-0.115 -0.12,-0.115l-1.625,-0c-0.095,-0 -0.13,-0 -0.13,-0.12l-0,-1.32c-0,-0.08 -0,-0.105 0.12,-0.105l1.615,-0c0.11,-0 0.14,-0 0.14,-0.14l-0,-4.02c-0,-0.12 -0,-0.15 0.15,-0.15l5.625,-0c0.407,0.014 0.813,0.059 1.215,0.135c0.825,0.155 1.618,0.449 2.345,0.87c0.48,0.276 0.924,0.612 1.32,1c0.297,0.309 0.566,0.643 0.805,1c0.234,0.36 0.43,0.744 0.585,1.145c0.02,0.104 0.12,0.175 0.225,0.16l1.34,-0c0.175,-0 0.175,-0 0.18,0.165l-0,1.225c-0,0.12 -0.045,0.15 -0.165,0.15l-1.035,-0c-0.105,-0 -0.135,-0 -0.125,0.135c0.04,0.455 0.04,0.914 -0,1.37c-0,0.13 -0,0.145 0.14,0.145l1.185,-0c0.055,0.065 -0,0.135 -0,0.2c0.01,0.088 0.01,0.176 -0,0.265l-0,0.905c-0,0.13 -0.035,0.165 -0.15,0.165l-1.425,-0c-0.1,-0.016 -0.196,0.047 -0.22,0.145c-0.337,0.878 -0.877,1.665 -1.575,2.295c-0.255,0.23 -0.522,0.445 -0.8,0.645c-0.3,0.17 -0.595,0.35 -0.9,0.5c-0.567,0.253 -1.161,0.441 -1.77,0.56c-0.58,0.103 -1.167,0.151 -1.755,0.145l-5.195,-0Z" style="fill:rgb(254,254,253);fill-rule:nonzero;"/></g></g></g></svg>