<svg width="24" height="24" viewBox="0 0 24 24" fill="none" xmlns="http://www.w3.org/2000/svg">
<path d="M12 0C15.1826 0 18.2348 1.26429 20.4853 3.51472C22.7357 5.76516 24 8.8174 24 12C24 15.1826 22.7357 18.2348 20.4853 20.4853C18.2348 22.7357 15.1826 24 12 24C8.8174 24 5.76516 22.7357 3.51472 20.4853C1.26429 18.2348 0 15.1826 0 12C0 8.8174 1.26429 5.76516 3.51472 3.51472C5.76516 1.26429 8.8174 0 12 0Z" fill="url(#paint0_linear)"/>
<path d="M17.1026 7.94439V7.40563C17.1026 7.16544 17.0072 6.93509 16.8373 6.76525C16.6674 6.59541 16.4369 6.5 16.1967 6.5C15.9563 6.5 15.7258 6.59539 15.5559 6.76521C15.3859 6.93504 15.2903 7.16539 15.2901 7.40563V7.93541C14.8706 7.96507 14.4745 8.13947 14.1694 8.42878C13.8643 8.7181 13.6692 9.10437 13.6175 9.52156L12.7487 16.5197C12.2258 16.6371 11.7222 16.648 11.25 16.5197L10.3813 9.52156C10.3294 9.10431 10.1341 8.71803 9.82895 8.42872C9.52375 8.13942 9.12752 7.96505 8.70798 7.93541V7.40563C8.70798 7.16544 8.61253 6.93509 8.44264 6.76525C8.27274 6.59541 8.04231 6.5 7.80204 6.5C7.56172 6.5 7.33122 6.59539 7.16122 6.76521C6.99123 6.93504 6.89564 7.16539 6.89547 7.40563V7.94439C6.50957 7.99497 6.15523 8.18409 5.89849 8.4765C5.64175 8.76891 5.50012 9.14467 5.5 9.53374V18H7.10399V8.18106C7.41131 7.94055 8.25886 7.9181 8.60083 8.15541L9.23793 14.8656C9.28557 15.368 9.51742 15.8351 9.88887 16.177C10.2603 16.5188 10.7451 16.7113 11.25 16.7172V17.2515C11.2501 17.4501 11.3292 17.6405 11.4697 17.7808C11.6102 17.9212 11.8007 18 11.9994 18C12.1981 18 12.3887 17.9211 12.5292 17.7806C12.6698 17.6401 12.7487 17.4495 12.7487 17.2509V16.7172C13.2539 16.7117 13.739 16.5195 14.1108 16.1776C14.4825 15.8357 14.7145 15.3683 14.7621 14.8656L15.3992 8.15541C15.7392 7.9181 16.5887 7.94055 16.896 8.18106V18H18.5V9.53374C18.4998 9.14438 18.3579 8.76839 18.1008 8.47593C17.8437 8.18348 17.4889 7.99454 17.1026 7.94439V7.94439Z" fill="#FEFEFE"/>
<defs>
<linearGradient id="paint0_linear" x1="12" y1="0" x2="20.75" y2="21.5" gradientUnits="userSpaceOnUse">
<stop stop-color="#D5612E"/>
<stop offset="1" stop-color="#988AF0"/>
</linearGradient>
</defs>
</svg>
