<?xml version="1.0" encoding="UTF-8" standalone="no"?><!DOCTYPE svg PUBLIC "-//W3C//DTD SVG 1.1//EN" "http://www.w3.org/Graphics/SVG/1.1/DTD/svg11.dtd"><svg width="25px" height="25px" version="1.1" xmlns="http://www.w3.org/2000/svg" xmlns:xlink="http://www.w3.org/1999/xlink" xml:space="preserve" xmlns:serif="http://www.serif.com/" style="fill-rule:evenodd;clip-rule:evenodd;stroke-linejoin:round;stroke-miterlimit:2;"><g id="Layer_2"><g id="Layer_1-2"><g id="Layer_2-2"><g id="Layer_1-2-2"><circle cx="12.371" cy="12.805" r="12" style="fill:url(#_Linear1);"/><path d="M6.451,16.405l-0,-5.65l4.28,3.225l-0,2.425l1.14,0l-0,-2.65c-0.004,-0.197 -0.098,-0.382 -0.255,-0.5l-5.2,-3.91c-0.111,-0.084 -0.246,-0.129 -0.385,-0.129c-0.347,0 -0.634,0.282 -0.64,0.629l-0,6.56l1.06,0Zm11.84,0l-0,-5.65l-4.28,3.225l-0,2.425l-1.08,0l-0,-2.65c0.003,-0.197 0.097,-0.382 0.255,-0.5l5.185,-3.92c0.284,-0.209 0.689,-0.148 0.9,0.135c0.081,0.108 0.125,0.24 0.125,0.375l-0,6.56l-1.105,0Z" style="fill:white;fill-rule:nonzero;"/></g></g></g></g><defs><linearGradient id="_Linear1" x1="0" y1="0" x2="1" y2="0" gradientUnits="userSpaceOnUse" gradientTransform="matrix(1.46958e-15,24,-24,1.46958e-15,12.3708,0.80503)"><stop offset="0" style="stop-color:rgb(79,168,155);stop-opacity:1"/><stop offset="1" style="stop-color:rgb(106,206,187);stop-opacity:1"/></linearGradient></defs></svg>