<svg width="24" height="24" viewBox="0 0 24 24" fill="none" xmlns="http://www.w3.org/2000/svg">
<path d="M12 0C15.1826 0 18.2348 1.26429 20.4853 3.51472C22.7357 5.76516 24 8.8174 24 12C24 15.1826 22.7357 18.2348 20.4853 20.4853C18.2348 22.7357 15.1826 24 12 24C8.8174 24 5.76516 22.7357 3.51472 20.4853C1.26429 18.2348 0 15.1826 0 12C0 8.8174 1.26429 5.76516 3.51472 3.51472C5.76516 1.26429 8.8174 0 12 0Z" fill="#4A90E2"/>
<path d="M3.86734 16C4.62251 16 5.23469 15.3989 5.23469 14.6573C5.23469 13.9158 4.62251 13.3146 3.86734 13.3146C3.11218 13.3146 2.5 13.9158 2.5 14.6573C2.5 15.3989 3.11218 16 3.86734 16Z" fill="white"/>
<path d="M20.1612 8C19.421 8 18.7939 8.58776 18.7939 9.34268C18.7939 10.406 18.6225 10.6854 17.4265 10.6854H17.3123C16.6292 10.7414 16.0877 11.3012 16.0877 12V12.028C16.0877 13.0634 15.8879 13.3146 14.7204 13.3146C14.6633 13.3146 14.6062 13.3146 14.5776 13.3427C13.8945 13.4268 13.3531 13.9865 13.3531 14.6573C13.3531 15.3842 13.9516 16 14.7204 16C15.4321 16 16.0306 15.4403 16.0592 14.7695V14.6573C16.0592 13.7061 16.3722 13.3427 17.398 13.3146H17.4265C18.1382 13.3146 18.7368 12.7549 18.7653 12.0561V11.972C18.7653 10.9927 19.0783 10.6293 20.1327 10.6293C20.8729 10.6293 21.5 10.0415 21.5 9.2866C21.5 8.58776 20.9014 8 20.1612 8ZM12.1285 10.6854H12.0143C10.8182 10.6854 10.6469 10.406 10.6469 9.34268C10.6469 8.6158 10.0484 8 9.27958 8C8.53934 8 7.91223 8.58776 7.91223 9.34268C7.91223 10.406 7.7409 10.6573 6.54489 10.6573H6.43067C5.74755 10.7134 5.2061 11.2731 5.2061 11.972C5.2061 12.6988 5.80466 13.3146 6.57345 13.3146C7.28512 13.3146 7.88368 12.7549 7.91223 12.0841V12C7.91223 11.0208 8.22524 10.6573 9.27958 10.6573C10.3339 10.6573 10.6469 11.0208 10.6469 11.972C10.6469 12.6988 11.2455 13.3146 12.0143 13.3146C12.7831 13.3146 13.3816 12.7269 13.3816 11.972C13.3531 11.3012 12.8116 10.7414 12.1285 10.6854Z" fill="white"/>
</svg>
