<?xml version="1.0" encoding="UTF-8" standalone="no"?><!DOCTYPE svg PUBLIC "-//W3C//DTD SVG 1.1//EN" "http://www.w3.org/Graphics/SVG/1.1/DTD/svg11.dtd"><svg width="25px" height="25px" version="1.1" xmlns="http://www.w3.org/2000/svg" xmlns:xlink="http://www.w3.org/1999/xlink" xml:space="preserve" xmlns:serif="http://www.serif.com/" style="fill-rule:evenodd;clip-rule:evenodd;stroke-linejoin:round;stroke-miterlimit:2;"><g id="Layer_2"><g id="Layer_1-2"><circle cx="12.217" cy="12.021" r="12"/><path d="M15.717,6.411l-2.61,3.875c-0.038,0.049 -0.059,0.109 -0.059,0.171c-0,0.15 0.124,0.275 0.275,0.275c0.075,-0 0.147,-0.031 0.199,-0.086l2.57,-2.235c0.018,-0.015 0.041,-0.024 0.065,-0.024c0.055,0 0.1,0.045 0.1,0.1c-0,0.002 -0,0.003 -0,0.004l-0,7c-0.002,0.057 -0.049,0.102 -0.105,0.102c-0.028,-0 -0.055,-0.011 -0.075,-0.032l-7.765,-9.32c-0.245,-0.299 -0.613,-0.472 -1,-0.47l-0.255,0c-0.002,0 -0.003,0 -0.005,0c-0.732,0 -1.335,0.603 -1.335,1.335l-0,9.795c-0.001,0.014 -0.001,0.028 -0.001,0.042c0,0.738 0.607,1.345 1.345,1.345c0.474,0 0.914,-0.25 1.156,-0.657l2.63,-3.875c0.027,-0.044 0.042,-0.095 0.042,-0.147c-0,-0.153 -0.127,-0.28 -0.28,-0.28c-0.067,0 -0.131,0.024 -0.182,0.067l-2.59,2.22c-0.018,0.016 -0.041,0.024 -0.065,0.024c-0.055,0 -0.1,-0.045 -0.1,-0.1c-0,-0.001 -0,-0.002 -0,-0.004l-0,-7c0.002,-0.056 0.049,-0.101 0.105,-0.101c0.028,-0 0.055,0.011 0.075,0.031l7.825,9.335c0.248,0.296 0.614,0.468 1,0.47l0.185,0c0.008,0.001 0.017,0.001 0.025,0.001c0.73,-0 1.33,-0.601 1.33,-1.33c-0,-0.002 -0,-0.004 -0,-0.006l-0,-9.785c-0.004,-0.709 -0.549,-1.308 -1.255,-1.38c-0.501,-0.033 -0.981,0.214 -1.245,0.64Z" style="fill:white;fill-rule:nonzero;"/></g></g></svg>