<?xml version="1.0" encoding="UTF-8" standalone="no"?><!DOCTYPE svg PUBLIC "-//W3C//DTD SVG 1.1//EN" "http://www.w3.org/Graphics/SVG/1.1/DTD/svg11.dtd"><svg width="25px" height="25px" version="1.1" xmlns="http://www.w3.org/2000/svg" xmlns:xlink="http://www.w3.org/1999/xlink" xml:space="preserve" xmlns:serif="http://www.serif.com/" style="fill-rule:evenodd;clip-rule:evenodd;stroke-linejoin:round;stroke-miterlimit:2;"><g id="Layer_2"><g id="Layer_1-2"><circle cx="12.584" cy="12.345" r="12" style="fill:rgb(0,13,43);"/><path d="M9.699,6.265l5.885,4.08l-0,4.15l-9,-6.235l2.885,-2c0.071,-0.042 0.161,-0.041 0.23,0.005Z" style="fill:rgb(60,169,229);fill-rule:nonzero;"/><path d="M15.584,6.185l-3,2.075l3,2.08l-0,-4.155Z" style="fill:rgb(40,83,195);fill-rule:nonzero;"/><path d="M15.584,6.185l2.885,2c0.074,0.058 0.117,0.147 0.115,0.24l-0,8.15l-3,-2.08l-0,-8.31Z" style="fill:rgb(26,65,153);fill-rule:nonzero;"/><path d="M18.584,16.575l-2.885,2c-0.072,0.054 -0.173,0.054 -0.245,0l-5.87,-4.08l-0,-4.15l9,6.23Z" style="fill:rgb(40,83,195);fill-rule:nonzero;"/><path d="M6.584,8.26l-0,8.15c-0.004,0.097 0.039,0.19 0.115,0.25l2.885,2l-0,-8.315l-3,-2.085Z" style="fill:rgb(96,190,255);fill-rule:nonzero;"/><path d="M9.584,18.655l3,-2.08l-3,-2.08l-0,4.16Z" style="fill:rgb(60,169,229);fill-rule:nonzero;"/></g></g></svg>