<svg width="24" height="24" viewBox="0 0 24 24" fill="none" xmlns="http://www.w3.org/2000/svg">
<circle cx="12" cy="12" r="12" fill="#B4D9FF"/>
<path d="M11.9996 11.2453C14.0003 11.2453 15.6222 9.62337 15.6222 7.62264C15.6222 5.62191 14.0003 4 11.9996 4C9.99887 4 8.37695 5.62191 8.37695 7.62264C8.37695 9.62337 9.99887 11.2453 11.9996 11.2453Z" fill="#88BDF3"/>
<path d="M11.9996 19.9992C14.0003 19.9992 15.6222 18.3773 15.6222 16.3765C15.6222 14.3758 14.0003 12.7539 11.9996 12.7539C9.99887 12.7539 8.37695 14.3758 8.37695 16.3765C8.37695 18.3773 9.99887 19.9992 11.9996 19.9992Z" fill="#3075EE"/>
<path d="M16.3765 15.6203C18.3773 15.6203 19.9992 13.9984 19.9992 11.9976C19.9992 9.99691 18.3773 8.375 16.3765 8.375C14.3758 8.375 12.7539 9.99691 12.7539 11.9976C12.7539 13.9984 14.3758 15.6203 16.3765 15.6203Z" fill="#5795F1"/>
<path d="M7.62264 15.6203C9.62337 15.6203 11.2453 13.9984 11.2453 11.9976C11.2453 9.99691 9.62337 8.375 7.62264 8.375C5.62191 8.375 4 9.99691 4 11.9976C4 13.9984 5.62191 15.6203 7.62264 15.6203Z" fill="#205FEC"/>
<path d="M11.1485 11.1485C10.5028 10.9915 9.91274 10.6599 9.44285 10.19C8.97297 9.72016 8.64138 9.13008 8.48438 8.48438C9.12894 8.64377 9.71774 8.97615 10.1872 9.44566C10.6567 9.91516 10.9891 10.504 11.1485 11.1485V11.1485Z" fill="#134BEF"/>
<path d="M8.47656 15.5235C8.63357 14.8778 8.96516 14.2877 9.43504 13.8179C9.90493 13.348 10.495 13.0164 11.1407 12.8594C10.9813 13.5039 10.6489 14.0927 10.1794 14.5622C9.70993 15.0317 9.12113 15.3641 8.47656 15.5235V15.5235Z" fill="#0932E8"/>
<path d="M12.8516 12.8516C13.4973 13.0086 14.0873 13.3402 14.5572 13.81C15.0271 14.2799 15.3587 14.87 15.5157 15.5157C14.8712 15.3563 14.2823 15.0239 13.8128 14.5544C13.3433 14.0849 13.011 13.4961 12.8516 12.8516V12.8516Z" fill="#164BEA"/>
<path d="M15.5235 8.47656C15.3665 9.12227 15.0349 9.71235 14.565 10.1822C14.0952 10.6521 13.5051 10.9837 12.8594 11.1407C13.0188 10.4961 13.3512 9.90735 13.8207 9.43784C14.2902 8.96834 14.879 8.63596 15.5235 8.47656Z" fill="#3170F1"/>
</svg>
