<?xml version="1.0" encoding="UTF-8" standalone="no"?><!DOCTYPE svg PUBLIC "-//W3C//DTD SVG 1.1//EN" "http://www.w3.org/Graphics/SVG/1.1/DTD/svg11.dtd"><svg width="25px" height="25px" version="1.1" xmlns="http://www.w3.org/2000/svg" xmlns:xlink="http://www.w3.org/1999/xlink" xml:space="preserve" xmlns:serif="http://www.serif.com/" style="fill-rule:evenodd;clip-rule:evenodd;stroke-linejoin:round;stroke-miterlimit:2;"><g id="Layer_2"><g id="Layer_1-2"><circle cx="12.499" cy="12.831" r="12"/><path d="M11.319,3.391c-4.74,0.583 -8.34,4.654 -8.34,9.429c0,1.923 0.584,3.802 1.675,5.386c0.705,0.952 1.548,1.795 2.5,2.5c1.075,0.71 2.274,1.21 3.535,1.475c1.211,0.19 2.444,0.19 3.655,-0c3.66,-0.737 6.565,-3.558 7.41,-7.195c0.727,-3.117 -0.167,-6.399 -2.375,-8.715c-1.371,-1.412 -3.137,-2.378 -5.065,-2.77c-0.99,-0.16 -1.996,-0.197 -2.995,-0.11Zm2.135,0.755c2.263,0.262 4.34,1.387 5.795,3.14c0.852,1.028 1.452,2.243 1.75,3.545c0.159,0.622 0.228,1.263 0.205,1.905c0.043,1.106 -0.152,2.21 -0.57,3.235c-1.23,3.481 -4.54,5.822 -8.232,5.822c-4.789,0 -8.73,-3.941 -8.73,-8.73c0,-1.216 0.255,-2.42 0.747,-3.532c0.739,-1.757 2.025,-3.229 3.665,-4.2c1.612,-0.971 3.499,-1.387 5.37,-1.185Z" style="fill:white;fill-rule:nonzero;"/><path d="M6.354,10.591c-1.052,0.465 -1.638,1.616 -1.395,2.74c0.058,0.461 0.269,0.889 0.6,1.215c0.389,0.476 1.001,0.713 1.61,0.625c0.389,0.055 0.786,-0.024 1.125,-0.225c0.673,-0.37 1.104,-1.068 1.135,-1.835c0.143,-1.11 -0.515,-2.179 -1.57,-2.55c-0.497,-0.108 -1.013,-0.098 -1.505,0.03Zm1.645,0.95c0.478,0.442 0.671,1.116 0.5,1.745c-0.126,0.643 -0.694,1.112 -1.35,1.112c-0.509,-0 -0.977,-0.282 -1.215,-0.732c-0.35,-0.685 -0.17,-1.755 0.365,-2.13c0.519,-0.326 1.183,-0.325 1.7,0.005Z" style="fill:white;fill-rule:nonzero;"/><path d="M16.659,10.621c-1.43,0.57 -1.835,2.68 -0.755,3.96c0.595,0.7 1.975,0.83 2.595,0.25l0.17,-0.155l-0,0.21c0.025,0.19 0.045,0.205 0.405,0.205l0.38,-0l0.025,-1.2l-0,-1.2l-2.105,-0l-0,0.765l0.65,-0c0.7,-0 0.72,-0 0.525,0.425c-0.226,0.335 -0.597,0.544 -1,0.565c-0.875,-0 -1.405,-0.62 -1.405,-1.615c-0,-1.105 0.72,-1.735 1.685,-1.5c0.375,0.09 0.755,0.42 0.755,0.655c-0,0.075 0.115,0.11 0.455,0.11l0.46,-0l-0.105,-0.345c-0.235,-0.8 -0.825,-1.205 -1.79,-1.235c-0.319,-0.04 -0.643,-0.004 -0.945,0.105Z" style="fill:white;fill-rule:nonzero;"/><path d="M10.064,12.831l-0,2.285l0.76,-0l-0,-1.54l0.025,-1.545l0.56,1.545l0.59,1.545l0.38,-0l0.38,-0.025l0.56,-1.5l0.555,-1.525l-0,1.525l0.025,1.5l0.405,0.025l0.395,-0l-0,-2.27l-0.025,-2.27l-1.06,-0l-0.615,1.695c-0.178,0.56 -0.397,1.107 -0.655,1.635c-0.03,-0.03 -0.305,-0.755 -0.61,-1.615c-0.305,-0.86 -0.595,-1.605 -0.635,-1.66c-0.173,-0.083 -0.365,-0.114 -0.555,-0.09l-0.5,-0l0.02,2.285Z" style="fill:white;fill-rule:nonzero;"/></g></g></svg>