<?xml version="1.0" encoding="UTF-8" standalone="no"?><!DOCTYPE svg PUBLIC "-//W3C//DTD SVG 1.1//EN" "http://www.w3.org/Graphics/SVG/1.1/DTD/svg11.dtd"><svg width="25px" height="25px" version="1.1" xmlns="http://www.w3.org/2000/svg" xmlns:xlink="http://www.w3.org/1999/xlink" xml:space="preserve" xmlns:serif="http://www.serif.com/" style="fill-rule:evenodd;clip-rule:evenodd;stroke-linejoin:round;stroke-miterlimit:2;"><g id="Layer_2"><g id="Layer_1-2"><circle cx="12.055" cy="12.252" r="12" style="fill:url(#_Linear1);"/><path id="Shape" d="M16.305,4.952c-0.001,-0 -0.003,-0 -0.005,-0c-1.778,-0 -3.242,1.462 -3.245,3.24l0,3.595c-0.325,-0 -0.655,0.035 -1,0.035c-0.345,-0 -0.675,-0 -1,0.035l0,-3.665c0,-1.783 -1.467,-3.25 -3.25,-3.25c-1.782,-0 -3.25,1.467 -3.25,3.25l0,8.585c0,1.783 1.468,3.25 3.25,3.25c1.783,-0 3.25,-1.467 3.25,-3.25l0,-3.6c0.325,-0 0.655,-0.035 1,-0.035c0.345,-0 0.675,-0 1,-0.03l0,3.665c0,1.783 1.468,3.25 3.25,3.25c1.783,-0 3.25,-1.467 3.25,-3.25l0,-8.585c-0.005,-1.779 -1.47,-3.24 -3.25,-3.24Zm-8.5,1.335c1.051,-0 1.915,0.864 1.915,1.915l0,3.805c-0.95,0.136 -1.878,0.398 -2.76,0.78c-0.383,0.164 -0.743,0.379 -1.07,0.64l0,-5.225c0.003,-1.05 0.866,-1.912 1.915,-1.915Zm1.915,10.465c0,1.05 -0.864,1.915 -1.915,1.915c-1.05,-0 -1.915,-0.865 -1.915,-1.915l0,-0.855c0,-0.76 0.6,-1.5 1.61,-1.925c0.71,-0.309 1.456,-0.527 2.22,-0.65l0,3.43Zm6.585,1.925c0,-0 0,-0 0,-0c-1.05,-0 -1.915,-0.865 -1.915,-1.915c0,-0.003 0,-0.007 0,-0.01l0,-3.8c0.951,-0.14 1.879,-0.404 2.76,-0.785c0.384,-0.164 0.744,-0.38 1.07,-0.64l0,5.225c0,0.002 0,0.003 0,0.005c0,1.048 -0.862,1.91 -1.91,1.91c-0.001,-0 -0.003,-0 -0.005,-0l0,0.01Zm0.39,-7.69c-0.711,0.308 -1.459,0.526 -2.225,0.65l0,-3.43c0.052,-1.015 0.902,-1.822 1.918,-1.822c1.016,-0 1.866,0.807 1.917,1.822l0,0.86c0,0.755 -0.6,1.475 -1.61,1.92Z" style="fill:white;fill-rule:nonzero;"/></g></g><defs><linearGradient id="_Linear1" x1="0" y1="0" x2="1" y2="0" gradientUnits="userSpaceOnUse" gradientTransform="matrix(24,0,0,24,0.0554572,12.2519)"><stop offset="0" style="stop-color:rgb(0,174,233);stop-opacity:1"/><stop offset="1" style="stop-color:rgb(105,250,189);stop-opacity:1"/></linearGradient></defs></svg>