<?xml version="1.0" encoding="UTF-8" standalone="no"?><!DOCTYPE svg PUBLIC "-//W3C//DTD SVG 1.1//EN" "http://www.w3.org/Graphics/SVG/1.1/DTD/svg11.dtd"><svg width="25px" height="25px" version="1.1" xmlns="http://www.w3.org/2000/svg" xmlns:xlink="http://www.w3.org/1999/xlink" xml:space="preserve" xmlns:serif="http://www.serif.com/" style="fill-rule:evenodd;clip-rule:evenodd;stroke-linejoin:round;stroke-miterlimit:2;"><g id="Layer_2"><g id="Layer_1-2"><circle cx="12.799" cy="12.187" r="12" style="fill:rgb(7,10,14);"/><path d="M9.409,16.877c0.807,0.915 1.947,1.471 3.165,1.545c0.721,-0.039 1.401,-0.348 1.905,-0.865c0.994,-0.851 2.038,-1.642 3.125,-2.37l0.615,-0.255c0.418,-0.19 0.787,-0.472 1.08,-0.825c0.309,-0.411 0.483,-0.907 0.5,-1.42c-0.048,-0.682 -0.27,-1.339 -0.645,-1.91c-1.99,3.562 -5.672,5.866 -9.745,6.1Z" style="fill:rgb(2,147,214);fill-rule:nonzero;"/><path d="M10.799,6.687c0.542,-0.574 1.296,-0.899 2.085,-0.9c0.5,-0.034 0.994,0.133 1.37,0.465c1.024,0.728 2.244,1.129 3.5,1.15c0.54,0.034 1.045,0.281 1.405,0.685c0.229,0.32 0.352,0.705 0.35,1.1c-0.028,0.554 -0.148,1.1 -0.355,1.615l-8.355,-4.115Z" style="fill:rgb(235,230,56);fill-rule:nonzero;"/><path d="M9.409,16.877c-0.435,-0.062 -0.859,-0.183 -1.26,-0.36c-0.616,-0.202 -1.145,-0.608 -1.5,-1.15c-0.195,-0.352 -0.294,-0.749 -0.285,-1.15c0.01,-0.764 0.195,-1.515 0.54,-2.195c0.345,-0.84 0.574,-1.723 0.68,-2.625l0.17,-0.71c0.081,-0.382 0.228,-0.745 0.435,-1.075l0.395,-0.435c0.661,-0.412 1.443,-0.585 2.215,-0.49c-2.081,2.97 -2.6,6.771 -1.39,10.19Z" style="fill:rgb(186,209,71);fill-rule:nonzero;"/><path d="M10.799,6.687c1.062,0.051 2.115,0.219 3.14,0.5l1,0.435c-1.779,-0.112 -3.527,0.527 -4.815,1.76c-2.405,2.46 -1.615,5.805 -1.58,5.985c-0.559,-0.71 -0.84,-1.599 -0.79,-2.5c0.112,-2.393 1.216,-4.634 3.045,-6.18Z" style="fill:rgb(120,182,80);fill-rule:nonzero;"/><path d="M15.594,15.547c1.387,-2.524 1.131,-5.647 -0.65,-7.91c1.042,0.172 2.001,0.676 2.735,1.435c0.592,0.488 1.099,1.07 1.5,1.725c-0.721,1.89 -1.965,3.538 -3.585,4.75Z" style="fill:rgb(47,130,96);fill-rule:nonzero;"/><path d="M16.744,9.217c-0.419,-0.688 -1.031,-1.237 -1.76,-1.58c-1.819,-0.317 -3.686,0.239 -5.035,1.5c-1.08,1.055 -1.712,2.49 -1.76,4c0.006,1.354 0.459,2.67 1.29,3.74c1.07,0.205 2.17,0.205 3.24,-0c1.053,-0.158 2.046,-0.593 2.875,-1.26c1.072,-1.041 1.723,-2.441 1.83,-3.93c0.029,-0.874 -0.208,-1.735 -0.68,-2.47Zm-1.295,5.215c-0.674,0.734 -1.628,1.152 -2.625,1.15c-1.019,-0.015 -1.986,-0.46 -2.66,-1.225c-0.548,-0.653 -0.841,-1.483 -0.825,-2.335c0.105,-1.191 0.738,-2.275 1.725,-2.95c0.513,-0.373 1.126,-0.586 1.76,-0.61c0.599,-0.065 1.202,0.061 1.725,0.36c1.655,0.9 1.725,3.055 1.725,3.2c0.038,0.878 -0.257,1.739 -0.825,2.41Z" style="fill:rgb(8,82,41);fill-rule:nonzero;"/></g></g></svg>