<?xml version="1.0" encoding="UTF-8" standalone="no"?><!DOCTYPE svg PUBLIC "-//W3C//DTD SVG 1.1//EN" "http://www.w3.org/Graphics/SVG/1.1/DTD/svg11.dtd"><svg width="25px" height="25px" version="1.1" xmlns="http://www.w3.org/2000/svg" xmlns:xlink="http://www.w3.org/1999/xlink" xml:space="preserve" xmlns:serif="http://www.serif.com/" style="fill-rule:evenodd;clip-rule:evenodd;stroke-linejoin:round;stroke-miterlimit:2;"><g id="Layer_2"><g id="Layer_1-2"><circle cx="12.913" cy="12.781" r="12" style="fill:rgb(38,34,97);"/><path d="M15.878,11.221l0,3.37l2.925,-1.68l0,-3.38l-2.925,1.69Z" style="fill:rgb(146,144,176);fill-rule:nonzero;"/><path d="M18.803,16.281l-2.925,-1.69l0,3.38l2.925,1.685l0,-3.375Z" style="fill:rgb(162,238,227);fill-rule:nonzero;"/><path d="M12.958,9.531l0,-3.375l-5.85,3.375l2.925,1.69l2.925,-1.69Z" style="fill:rgb(70,221,200);fill-rule:nonzero;"/><path d="M12.958,16.281l-2.93,-1.69l-2.92,1.69l2.92,1.69l2.93,1.685l0,-3.375Z" style="fill:white;fill-rule:nonzero;"/><path d="M7.108,9.531l0,6.75l2.92,-1.69l0,-3.37l-2.92,-1.69Z" style="fill:rgb(146,144,176);fill-rule:nonzero;"/><path d="M15.878,14.591l-2.92,1.69l0,3.375l2.92,-1.685l0,-3.38Z" style="fill:rgb(70,221,200);fill-rule:nonzero;"/><path d="M15.878,11.221l2.925,-1.69l-2.925,-1.685l-2.92,-1.69l0,3.375l2.92,1.69Z" style="fill:white;fill-rule:nonzero;"/></g></g></svg>