<?xml version="1.0" encoding="UTF-8" standalone="no"?><!DOCTYPE svg PUBLIC "-//W3C//DTD SVG 1.1//EN" "http://www.w3.org/Graphics/SVG/1.1/DTD/svg11.dtd"><svg width="25px" height="25px" version="1.1" xmlns="http://www.w3.org/2000/svg" xmlns:xlink="http://www.w3.org/1999/xlink" xml:space="preserve" xmlns:serif="http://www.serif.com/" style="fill-rule:evenodd;clip-rule:evenodd;stroke-linejoin:round;stroke-miterlimit:2;"><g id="Layer_2"><g id="Layer_1-2"><circle cx="12.742" cy="12.628" r="12" style="fill:rgb(46,154,208);"/><g id="Lines"><path d="M14.317,18.918l-4.075,-0l-3.3,-2.415l-1.255,-3.875l1.255,-3.895l3.3,-2.44l4.085,-0l3.295,2.415l1.24,3.92l-1.25,3.9l-0.045,0.045l-3.25,2.37l0,-0.025Zm-4,-0.285l3.925,-0l3.155,-2.315l1.19,-3.69l-1.205,-3.71l-3.14,-2.345l-3.9,-0l-3.15,2.32l-1.22,3.735l1.205,3.715l3.15,2.285l-0.01,0.005Z" style="fill:white;fill-rule:nonzero;"/><path d="M19.332,18.263l-1.905,-1.715l-1.855,-0.695l-3.295,0.42l-3.34,-0.42l-1.855,0.695l-0.09,-0.275l1.9,-0.745l0.045,-0l3.34,0.465l3.34,-0.465l0.05,0.045l1.945,0.745l1.9,1.76l-0.18,0.185Z" style="fill:white;fill-rule:nonzero;"/><path d="M14.242,19.053l-1.95,-2.69l-2.05,2.69l-1.5,-3.295l0.28,-0.14l1.295,2.88l1.95,-2.645l1.905,2.645l1.305,-2.87l1.765,-3.5l0.42,4.315l-0.28,-0l-0.325,-3.315l-1.315,2.63l-1.5,3.295Z" style="fill:white;fill-rule:nonzero;"/><rect x="5.877" y="12.463" width="12.895" height="0.28" style="fill:white;fill-rule:nonzero;"/><path d="M17.242,13.128l-1.625,-3.2l-1.375,3l-1.95,-3.5l-2,3.5l-1.39,-3l-1.635,3.2l-0.37,-4.265l0.28,-0.045l0.275,3.31l1.44,-2.83l1.39,3l2,-3.435l1.905,3.435l1.435,-3l1.44,2.78l0.23,-3.29l0.28,-0l-0.33,4.34Z" style="fill:white;fill-rule:nonzero;"/><path d="M15.477,9.683l-1.295,-2.925l-1.905,2.69l-1.95,-2.69l-1.295,2.925l-0.235,-0.14l1.445,-3.34l2.04,2.735l1.96,-2.735l1.5,3.34l-0.265,0.14Zm1.905,6.725l-0.325,-3.28l-1.44,2.88l-1.435,-3.08l-1.905,3.5l-2,-3.5l-1.385,3.065l-1.44,-2.865l-0.275,3.295l-0.28,-0l0.37,-4.315l1.625,3.25l1.39,-3l2,3.5l1.95,-3.5l1.39,3.06l1.62,-3.325l0.42,4.315l-0.28,-0Z" style="fill:white;fill-rule:nonzero;"/><path d="M15.617,9.778l-3.375,-0.465l-3.34,0.465l-1.9,-0.84l0.09,-0.275l1.855,0.785l3.295,-0.415l3.385,0.415l1.81,-0.785l0.14,0.275l-1.96,0.84Z" style="fill:white;fill-rule:nonzero;"/></g><g id="Circles"><circle cx="10.282" cy="18.773" r="0.555" style="fill:white;"/><circle cx="14.182" cy="18.773" r="0.555" style="fill:white;"/><circle cx="10.282" cy="6.483" r="0.555" style="fill:white;"/><circle cx="14.182" cy="6.483" r="0.555" style="fill:white;"/><circle cx="17.427" cy="8.803" r="0.555" style="fill:white;"/><circle cx="7.037" cy="8.803" r="0.555" style="fill:white;"/><circle cx="7.037" cy="16.458" r="0.555" style="fill:white;"/><circle cx="5.877" cy="12.603" r="0.555" style="fill:white;"/><circle cx="18.727" cy="12.603" r="0.555" style="fill:white;"/><circle cx="17.152" cy="12.603" r="0.555" style="fill:white;"/><circle cx="7.362" cy="12.603" r="0.555" style="fill:white;"/><circle cx="10.282" cy="12.603" r="0.555" style="fill:white;"/><circle cx="14.182" cy="12.603" r="0.555" style="fill:white;"/><circle cx="12.277" cy="9.173" r="0.555" style="fill:white;"/><circle cx="8.892" cy="9.638" r="0.555" style="fill:white;"/><circle cx="15.617" cy="9.638" r="0.555" style="fill:white;"/><circle cx="12.277" cy="16.128" r="0.555" style="fill:white;"/><circle cx="8.892" cy="15.668" r="0.555" style="fill:white;"/><circle cx="15.617" cy="15.668" r="0.555" style="fill:white;"/><circle cx="19.422" cy="18.173" r="0.74" style="fill:white;"/></g></g></g></svg>