<svg width="24" height="24" viewBox="0 0 24 24" fill="none" xmlns="http://www.w3.org/2000/svg">
<circle cx="12" cy="12" r="12" fill="#1A4589"/>
<path d="M10.944 17.2287L6.5 20.4194L9.32119 7.43695L10.944 17.2287ZM11.0339 17.1988L13.7402 17.2337L9.42605 7.48688L11.0339 17.1988ZM13.9949 16.9841L16.0671 9.30443L15.2831 8.34572L13.9949 16.9841ZM12.9962 4.94531L9.58583 7.24221L14.5691 5.62939L12.9962 4.94531ZM12.5668 4.94531L10.4497 5.01522L10.1401 5.89902L12.5668 4.94531Z" fill="white"/>
<path d="M15.1334 8.04814L9.67578 7.29915L14.5941 5.75124L15.1334 8.04814ZM13.8402 5.16204L14.1398 4.34814L12.5669 3.66406L13.8402 5.16204ZM14.2945 4.26825L14.6491 5.54652L16.7462 4.99227L14.2945 4.26825Z" fill="white"/>
<path d="M13.8604 17.1815L9.48633 7.39474L15.1886 8.19366L13.8604 17.1815ZM12.8318 4.94305L10.1355 5.99663L9.48633 7.19501L12.8318 4.94305ZM11.1591 4.14413L10.485 4.88813L12.722 4.8332L11.1591 4.14413ZM12.3375 3.56491L11.2689 4.05924L13.7056 5.1328L12.3375 3.56491ZM13.5558 3.5H12.4074L14.185 4.18907L13.5558 3.5ZM14.2199 4.41377L13.9453 5.23266L14.4946 5.4973L14.2199 4.41377Z" fill="white"/>
</svg>
