<?xml version="1.0" encoding="UTF-8" standalone="no"?><!DOCTYPE svg PUBLIC "-//W3C//DTD SVG 1.1//EN" "http://www.w3.org/Graphics/SVG/1.1/DTD/svg11.dtd"><svg width="25px" height="25px" version="1.1" xmlns="http://www.w3.org/2000/svg" xmlns:xlink="http://www.w3.org/1999/xlink" xml:space="preserve" xmlns:serif="http://www.serif.com/" style="fill-rule:evenodd;clip-rule:evenodd;stroke-linejoin:round;stroke-miterlimit:2;"><g id="Layer_2"><g id="Layer_1-2"><circle cx="12.113" cy="12.878" r="12" style="fill:rgb(32,238,130);"/><path d="M14.063,13.103l-0,1.95l-1.95,0c-1.07,0 -1.95,-0.88 -1.95,-1.95c-0,-1.07 0.88,-1.95 1.95,-1.95c1.069,0 1.95,0.88 1.95,1.95m-1.925,-3.225c-0.033,-0.001 -0.065,-0.001 -0.098,-0.001c-1.784,-0 -3.251,1.467 -3.251,3.251c-0,1.747 1.407,3.198 3.154,3.25l3.42,0l-0,-3.235c-0.006,-1.774 -1.452,-3.238 -3.225,-3.265" style="fill:white;fill-rule:nonzero;"/><path d="M16.708,8.508c-2.177,-2.175 -5.614,-2.522 -8.18,-0.825c0.073,0.081 0.137,0.17 0.19,0.265c1.008,-0.664 2.189,-1.018 3.396,-1.018c3.388,-0 6.175,2.787 6.175,6.175c0,3.387 -2.787,6.175 -6.175,6.175c-3.387,-0 -6.175,-2.788 -6.175,-6.175c0,-1.207 0.354,-2.389 1.019,-3.397c-0.096,-0.053 -0.185,-0.117 -0.265,-0.19c-0.711,1.067 -1.09,2.321 -1.09,3.603c-0,3.566 2.934,6.5 6.5,6.5c3.566,-0 6.5,-2.934 6.5,-6.5c-0,-1.727 -0.688,-3.384 -1.91,-4.603" style="fill:white;fill-rule:nonzero;"/><path d="M7.113,8.098c0.121,-0.122 0.287,-0.19 0.459,-0.19c0.356,0 0.65,0.294 0.65,0.65c-0,0.357 -0.294,0.65 -0.65,0.65c-0.172,0 -0.338,-0.068 -0.459,-0.19c-0.122,-0.121 -0.191,-0.286 -0.191,-0.457c0,-0.172 0.069,-0.337 0.191,-0.458" style="fill:white;fill-rule:nonzero;"/></g></g></svg>