<svg width="24" height="24" viewBox="0 0 24 24" fill="none" xmlns="http://www.w3.org/2000/svg">
<path d="M6.43052 2.11286C7.05516 2.7304 7.62742 3.39972 8.13611 4.11341L8.29694 4.06163C9.22454 3.76211 10.1858 3.57721 11.1545 3.51435C11.4463 3.49216 12.5347 3.49216 12.8901 3.51435C13.9635 3.58461 14.7864 3.74362 15.7215 4.06533C15.7589 4.08012 15.7925 4.09122 15.8262 4.10231C16.3536 3.39232 16.9408 2.7267 17.5879 2.11655C14.4834 0.544959 10.8516 0.356367 7.60124 1.59515C7.25339 1.72458 6.91302 1.87619 6.58013 2.0389L6.43052 2.11286Z" fill="#F00500"/>
<path d="M0.640579 16.1385C1.11186 17.466 1.81878 18.6974 2.73516 19.7698C3.23262 20.3467 3.78245 20.8754 4.37342 21.3562C5.75734 22.4581 7.37315 23.2458 9.09744 23.6599C11.005 24.1148 12.9949 24.1148 14.9024 23.6599C16.6304 23.2458 18.2425 22.4581 19.6264 21.3562C20.2174 20.8754 20.7672 20.3467 21.2647 19.7698C23.9016 16.6895 24.7021 12.4591 23.3593 8.64658C23.1049 7.94029 22.787 7.25988 22.4055 6.61275C22.2297 6.31692 22.0128 5.98411 21.908 5.84729C21.549 7.37451 21.1076 8.71684 20.943 9.20126C20.9543 9.22715 20.9692 9.25673 20.9842 9.28261C21.8557 11.028 22.3269 12.7105 22.4392 14.5003C22.4392 14.5225 22.4429 14.5484 22.4429 14.5706C22.4728 15.1068 22.4579 15.3619 22.3681 15.6984C22.0876 16.7523 21.2236 17.9135 19.8696 19.0524C17.6515 20.9161 14.6443 22.2622 12.3665 22.4175C9.99138 22.5765 6.4867 21.2046 4.15274 19.2003C3.78619 18.8786 3.44208 18.5384 3.12041 18.176C2.88851 17.9098 2.5444 17.4512 2.57058 17.4512C2.57806 17.4512 2.57058 17.4438 2.55562 17.4364C2.5444 17.429 2.53318 17.4179 2.54066 17.4105C2.5444 17.4068 2.53692 17.3957 2.5257 17.3921C2.51448 17.3884 2.507 17.381 2.51074 17.3736C2.51448 17.3662 2.51074 17.3588 2.49578 17.3551C2.48455 17.3514 2.48082 17.3403 2.48456 17.3329C2.4883 17.3255 2.48455 17.3181 2.47707 17.3181C2.46959 17.3181 2.46211 17.307 2.46211 17.2996C2.46211 17.2922 2.45464 17.2811 2.44715 17.2811C2.43967 17.2811 2.43219 17.2737 2.43219 17.2663C2.42097 17.2367 2.40227 17.2072 2.38357 17.1813C2.32746 17.0962 2.10305 16.7005 2.07312 16.634C1.85992 16.157 1.72527 15.7317 1.66169 15.3065C1.63176 15.1031 1.61306 14.7296 1.62802 14.6408C1.63176 14.626 1.63176 14.6002 1.6355 14.5595C1.64298 14.4855 1.64672 14.3746 1.6542 14.2637C1.66168 14.0972 1.67665 13.8643 1.68787 13.7496C1.8487 12.0708 2.28258 10.6989 3.10545 9.24564C3.13911 9.19017 3.16903 9.1347 3.18773 9.09032C3.19522 9.07923 3.19896 9.06814 3.2027 9.06074C3.08675 8.71684 2.61173 7.27837 2.23395 5.63281L2.22647 5.64021L2.17037 5.71417C2.07312 5.84359 1.81504 6.22817 1.69909 6.41306C1.17171 7.26358 0.76027 8.17695 0.468525 9.131C-0.208473 11.4274 -0.152369 13.8754 0.640579 16.1385Z" fill="#F00500"/>
<path d="M5.49526 11.7201C5.50648 11.7792 5.68228 11.9567 5.85807 12.0861C6.37423 12.4596 7.29809 12.8072 8.23691 12.9736C8.77178 13.0698 9.30664 13.0846 9.46748 13.0069C9.57221 12.9551 9.58717 12.9145 9.54976 12.7813C9.47122 12.504 9.21688 12.2008 8.8204 11.916C8.61842 11.7718 7.79929 11.28 7.41778 11.0729C6.78941 10.7327 6.28073 10.5293 5.93662 10.4813C5.82815 10.4665 5.69724 10.4628 5.65609 10.4813C5.58877 10.5072 5.51396 10.7031 5.48404 10.9398C5.46908 11.0655 5.47656 11.6202 5.49526 11.7201Z" fill="black"/>
<path d="M14.3088 12.9447C14.3312 12.9891 14.4435 13.0372 14.5706 13.0557C14.6978 13.0741 15.0868 13.063 15.3075 13.0372C16.1004 12.9336 16.942 12.6933 17.5554 12.3974C17.8995 12.231 18.1464 12.0646 18.3297 11.8834L18.4344 11.7762L18.4456 11.6357C18.4643 11.3916 18.4606 11.007 18.4306 10.8702C18.4119 10.7556 18.3708 10.6446 18.3147 10.5448C18.2848 10.5078 18.2848 10.5078 18.1501 10.5078C17.9855 10.5078 17.8471 10.5337 17.6227 10.604C17.1627 10.7445 16.4782 11.0847 15.6441 11.5802C14.9559 11.987 14.6978 12.1867 14.4996 12.4603C14.3649 12.6304 14.2751 12.8708 14.3088 12.9447Z" fill="black"/>
<path d="M9.01179 18.0895C9.01179 18.1006 9.05667 18.2781 9.11278 18.4889C9.16888 18.6996 9.21376 18.8697 9.21376 18.8771C9.25491 18.8808 9.29231 18.8845 9.33346 18.8808H9.45314L9.61772 19.2654C9.70749 19.4762 9.78978 19.6722 9.801 19.7018L9.82344 19.7535L9.90198 19.6278L9.98053 19.5021V18.4778L10.0105 18.4852C10.074 18.5 10.5266 18.5591 10.7249 18.5776C11.544 18.659 12.3669 18.6405 13.1822 18.5258C13.3132 18.5074 13.4254 18.4926 13.4291 18.4963C13.4328 18.5 13.4291 18.7366 13.4216 19.0287L13.4104 19.5538L13.474 19.65C13.5077 19.7018 13.5413 19.7461 13.5413 19.7498C13.5525 19.7609 13.5899 19.7018 13.676 19.5317C13.7695 19.3542 13.8368 19.1656 13.8854 18.9696L13.9116 18.8623L14.0276 18.8697L14.1435 18.8808L14.1734 18.744C14.1884 18.6701 14.2071 18.5554 14.2146 18.4926L14.2258 18.3742L14.323 18.2892C14.3791 18.2411 14.4353 18.193 14.4465 18.1856C14.4652 18.1708 14.4727 18.145 14.4727 18.1228V18.0784L14.0051 18.0821L13.5376 18.0858L13.5226 18.1339L13.5077 18.1819L13.3468 18.1893C13.257 18.193 12.9728 18.2004 12.7184 18.2078L12.2509 18.2189L12.1312 18.034L12.0078 17.8491H11.8507L11.8544 17.4645L11.8582 17.08L12.0639 16.9912C12.7259 16.7028 13.1149 16.3737 13.2608 15.9743C13.2907 15.893 13.2907 15.8634 13.2982 15.4936C13.3019 15.1275 13.3019 15.0942 13.2758 15.0129C13.2234 14.828 13.0775 14.6837 12.8905 14.6357C12.8269 14.6172 12.6586 14.6172 11.7759 14.6172L10.7361 14.6209L10.6201 14.6764C10.4817 14.7429 10.4181 14.791 10.3396 14.8945C10.2498 15.0129 10.2236 15.1053 10.2236 15.3309C10.2236 15.6526 10.2461 15.9299 10.2798 16.0409C10.3284 16.1925 10.4032 16.3367 10.4967 16.4661C10.6837 16.7028 11.0241 16.9395 11.3345 17.0467L11.4243 17.08L11.4206 17.4682L11.4168 17.8565L11.3345 17.8639L11.2522 17.8713L11.14 18.0377L11.0316 18.2041H10.5304C10.2536 18.2041 10.0105 18.2078 9.98801 18.2115C9.95061 18.2189 9.94313 18.2152 9.90572 18.1524L9.86084 18.0858H9.4307C9.10904 18.071 9.01179 18.0784 9.01179 18.0895Z" fill="black"/>
<path d="M10.9861 19.1502C11.0571 19.1909 11.1058 19.2094 11.117 19.202C11.1282 19.1983 11.1806 19.1539 11.2367 19.1132L11.3376 19.0319L11.4423 19.1428C11.6705 19.3868 11.6779 19.3979 11.7452 19.4016C11.85 19.4127 11.8724 19.3942 11.9995 19.2057C12.0669 19.1095 12.1192 19.0282 12.1192 19.0282C12.1192 19.0282 12.1678 19.0208 12.2239 19.0171L12.3286 19.006L12.3772 19.1058L12.4259 19.2057L12.5119 19.1798C12.5792 19.1576 12.6465 19.1317 12.7101 19.1021L12.8223 19.0467V18.8359L11.8275 18.8396L10.8328 18.8433L10.829 18.9432C10.8253 19.0615 10.8215 19.0578 10.9861 19.1502Z" fill="black"/>
<path d="M1.63563 14.6385C1.63937 14.6237 1.63937 14.5978 1.64311 14.5571C2.54079 14.461 5.10291 14.4018 7.48175 16.3432C7.48175 16.3432 8.24852 12.8672 11.8392 12.8672C15.4299 12.8672 16.7615 16.3432 16.7615 16.3432C18.7738 14.2021 21.4668 14.3574 22.4393 14.4979C22.4393 14.5201 22.443 14.546 22.443 14.5682C22.4729 15.1044 22.458 15.3596 22.3682 15.6961C22.0877 16.75 21.2237 17.9111 19.8697 19.05C17.6517 20.9138 14.6445 22.2598 12.3666 22.4151C9.9915 22.5741 6.48683 21.2022 4.15287 19.1979C3.78632 18.8762 3.44221 18.536 3.12054 18.1736C2.88864 17.9074 2.54453 17.4489 2.57071 17.4489C2.57819 17.4489 2.57071 17.4415 2.55575 17.4341C2.54453 17.4267 2.53331 17.4156 2.54079 17.4082C2.54453 17.4045 2.53705 17.3934 2.52583 17.3897C2.51461 17.386 2.50713 17.3786 2.51087 17.3712C2.51461 17.3638 2.51086 17.3564 2.4959 17.3527C2.48468 17.349 2.48094 17.3379 2.48469 17.3305C2.48843 17.3231 2.48468 17.3157 2.4772 17.3157C2.46972 17.3157 2.46224 17.3046 2.46224 17.2972C2.46224 17.2898 2.45476 17.2787 2.44728 17.2787C2.4398 17.2787 2.43232 17.2714 2.43232 17.264C2.4211 17.2344 2.4024 17.2048 2.38369 17.1789C2.32759 17.0939 2.10317 16.6982 2.07325 16.6316C1.86005 16.1546 1.7254 15.7293 1.66181 15.3041C1.63937 15.1007 1.62067 14.7272 1.63563 14.6385ZM10.9864 19.1499C11.0575 19.1905 11.1061 19.209 11.1173 19.2016C11.1286 19.1979 11.1809 19.1536 11.237 19.1129L11.338 19.0315L11.4427 19.1425C11.6709 19.3865 11.6784 19.3976 11.7457 19.4013C11.8504 19.4124 11.8729 19.3939 12.0001 19.2053C12.0674 19.1092 12.1197 19.0278 12.1197 19.0278C12.1197 19.0278 12.1684 19.0204 12.2245 19.0167L12.3292 19.0057L12.3778 19.1055L12.4265 19.2053L12.5125 19.1795C12.5798 19.1573 12.6471 19.1314 12.7107 19.1018L12.8229 19.0463V18.8356L11.828 18.8392L10.8331 18.8429L10.8293 18.9428C10.8256 19.0611 10.8219 19.0574 10.9864 19.1499ZM9.11627 18.4843C9.17237 18.695 9.21726 18.8651 9.21726 18.8725C9.2584 18.8762 9.29581 18.8799 9.33695 18.8762H9.45664L9.61747 19.2645C9.70724 19.4753 9.78953 19.6713 9.80075 19.7009L9.82319 19.7526L9.90174 19.6269L9.98028 19.5012V18.4769L10.0102 18.4843C10.0738 18.499 10.5264 18.5582 10.7246 18.5767C11.5437 18.6581 12.3666 18.6396 13.182 18.5249C13.3129 18.5064 13.4251 18.4916 13.4289 18.4953C13.4326 18.499 13.4289 18.7357 13.4214 19.0278L13.4102 19.5529L13.4737 19.6491C13.5074 19.7009 13.5411 19.7452 13.5411 19.7489C13.5523 19.76 13.5897 19.7009 13.6757 19.5308C13.7692 19.3533 13.8366 19.1647 13.8852 18.9687L13.9114 18.8614L14.0273 18.8688L14.1433 18.8799L14.1732 18.7431C14.1881 18.6691 14.2068 18.5545 14.2143 18.4916L14.2255 18.3733L14.3228 18.2883C14.3789 18.2402 14.435 18.1921 14.4462 18.1847C14.4649 18.1699 14.4724 18.144 14.4724 18.1219V18.0775L14.0049 18.0812L13.5373 18.0849L13.5224 18.133L13.5074 18.181L13.3466 18.1884C13.2568 18.1921 12.9725 18.1995 12.7182 18.2069L12.2507 18.218L12.131 18.0331L12.0075 17.8482H11.8504L11.8542 17.4636L11.8579 17.0791L12.0636 16.9903C12.7257 16.7019 13.1147 16.3728 13.2605 15.9734C13.2905 15.892 13.2905 15.8625 13.2979 15.4927C13.3017 15.1266 13.3017 15.0933 13.2755 15.012C13.2231 14.8271 13.0773 14.6828 12.8903 14.6348C12.8267 14.6163 12.6583 14.6163 11.7756 14.6163L10.7358 14.62L10.6199 14.6754C10.4815 14.742 10.4179 14.7901 10.3394 14.8936C10.2496 15.012 10.2234 15.1044 10.2234 15.33C10.2234 15.6517 10.2458 15.929 10.2795 16.04C10.3281 16.1916 10.4029 16.3358 10.4964 16.4652C10.6835 16.7019 11.0238 16.9385 11.3343 17.0458L11.424 17.0791L11.4203 17.4673L11.4166 17.8556L11.3343 17.863L11.252 17.8704L11.1398 18.0368L11.0313 18.2032H10.5301C10.2533 18.2032 10.0102 18.2069 9.98776 18.2106C9.95036 18.218 9.94288 18.2143 9.90548 18.1514L9.86059 18.0849H9.43046C9.09757 18.0849 9.00032 18.0886 9.00032 18.0997C9.01154 18.096 9.06016 18.2772 9.11627 18.4843Z" fill="white"/>
<path d="M1.6641 14.2641C1.67158 14.0977 1.68654 13.8647 1.69776 13.7501C1.8586 12.0712 2.29247 10.6993 3.11534 9.24606C3.149 9.1906 3.17893 9.13513 3.19763 9.09075C3.20511 9.07966 3.20885 9.06857 3.21259 9.06117C3.09664 8.71727 2.62162 7.2788 2.24385 5.63324C1.73143 3.39973 1.40602 0.789031 2.40094 0.00508178C2.40094 0.00508178 4.12149 -0.120646 6.42552 2.11287C7.05016 2.73041 7.62243 3.39973 8.13111 4.11342L8.29194 4.06165C9.21954 3.76212 10.1808 3.57723 11.1495 3.51436C11.4413 3.49218 12.5297 3.49218 12.8851 3.51436C13.9585 3.58462 14.7814 3.74363 15.7165 4.06535C15.7539 4.08014 15.7875 4.09123 15.8212 4.10232C16.3486 3.39233 16.9358 2.72672 17.5829 2.11657C19.9804 -0.128041 21.7646 0.00138368 21.7646 0.00138368C22.8193 0.811218 22.4603 3.54025 21.9142 5.84772C21.5551 7.37494 21.1138 8.71727 20.9492 9.20169C20.9604 9.22758 20.9754 9.25716 20.9903 9.28304C21.8618 11.0284 22.3331 12.711 22.4453 14.5007C21.4691 14.3602 18.7798 14.2012 16.7638 16.346C16.7638 16.346 15.4322 12.87 11.8415 12.87C8.2508 12.87 7.48404 16.346 7.48404 16.346C5.10519 14.4046 2.54307 14.4675 1.6454 14.5599C1.64914 14.486 1.65662 14.375 1.6641 14.2641ZM20.2423 7.80759C20.2423 7.80759 21.6411 4.35008 21.2821 2.37542C21.2222 2.04261 21.11 1.75048 20.9342 1.5286C20.9342 1.5286 19.3483 1.68392 16.79 4.4943C16.79 4.4943 17.2762 4.72727 17.927 5.22278C17.927 5.22278 17.9307 5.22648 17.9345 5.22648C18.6414 5.76267 19.5466 6.61318 20.2423 7.80759ZM14.3064 12.9439C14.3288 12.9883 14.441 13.0364 14.5682 13.0549C14.6954 13.0734 15.0844 13.0623 15.305 13.0364C16.098 12.9328 16.9396 12.6925 17.553 12.3967C17.8971 12.2302 18.1439 12.0638 18.3272 11.8826L18.4319 11.7754L18.4432 11.6349C18.4619 11.3908 18.4581 11.0063 18.4282 10.8694C18.4095 10.7548 18.3684 10.6439 18.3123 10.544C18.2823 10.507 18.2823 10.507 18.1477 10.507C17.9831 10.507 17.8447 10.5329 17.6203 10.6032C17.1602 10.7437 16.4758 11.0839 15.6417 11.5794C14.9535 11.9862 14.6954 12.1859 14.4971 12.4595C14.3625 12.6296 14.2727 12.87 14.3064 12.9439ZM5.49419 11.7199C5.50541 11.7791 5.6812 11.9566 5.857 12.086C6.37316 12.4595 7.29702 12.8071 8.23584 12.9735C8.7707 13.0697 9.30557 13.0845 9.4664 13.0068C9.57113 12.955 9.58609 12.9144 9.54869 12.7812C9.47014 12.5039 9.2158 12.2007 8.81933 11.9159C8.61735 11.7717 7.79822 11.2799 7.41671 11.0728C6.78833 10.7326 6.27965 10.5292 5.93554 10.4812C5.82707 10.4664 5.69616 10.4627 5.65502 10.4812C5.58769 10.507 5.51289 10.703 5.48296 10.9397C5.468 11.0654 5.47549 11.6201 5.49419 11.7199ZM6.11508 5.22278L6.12256 5.21908C6.75093 4.72357 7.22221 4.4906 7.22221 4.4906C4.74986 1.68022 3.22007 1.52491 3.22007 1.52491C3.05176 1.75048 2.94329 2.03891 2.88344 2.37172C2.53559 4.34638 3.88585 7.80759 3.88585 7.80759C4.45064 6.81286 5.20992 5.93277 6.11508 5.22278Z" fill="#FFA409"/>
<path d="M2.88015 2.37025C3.17189 2.33327 4.55207 2.32588 6.11552 5.22131L6.123 5.21761C6.75138 4.7221 7.22266 4.48913 7.22266 4.48913C4.75031 1.67875 3.22052 1.52344 3.22052 1.52344C3.04846 1.74901 2.93999 2.03744 2.88015 2.37025Z" fill="#FF9300"/>
<path d="M3.88422 7.8065C4.45274 6.80808 5.20829 5.93168 6.11719 5.22169C4.55374 2.32625 3.1773 2.33365 2.88181 2.37063C2.53396 4.34899 3.88422 7.8065 3.88422 7.8065Z" fill="#FF8300"/>
<path d="M2.82477 2.37837C2.84346 2.37464 2.86216 2.37092 2.88086 2.36719L2.82477 2.37837Z" fill="#FF8300"/>
<path d="M16.7912 4.48913C16.7912 4.48913 17.2775 4.7221 17.9283 5.21761C17.9283 5.21761 17.932 5.22131 17.9358 5.22131C19.5553 2.32218 20.9804 2.33327 21.2871 2.37025C21.2273 2.03744 21.1151 1.74531 20.9393 1.52344C20.9355 1.52344 19.3496 1.67875 16.7912 4.48913Z" fill="#FF9300"/>
<path d="M17.9335 5.22169C18.6441 5.76158 19.5493 6.60839 20.245 7.8065C20.245 7.8065 21.6439 4.34899 21.2848 2.37063C20.9818 2.33365 19.553 2.32625 17.9335 5.22169Z" fill="#FF8300"/>
<path d="M21.2839 2.36719C21.3026 2.37092 21.3251 2.37464 21.3438 2.37837L21.2839 2.36719Z" fill="#FF8300"/>
<path d="M7.66847 9.72961C7.66847 9.72961 8.86516 9.80356 8.71558 8.87925C8.56599 7.95494 7.63107 7.84402 7.36929 7.88099C7.10751 7.91796 6.0604 8.28769 6.24739 9.06411C6.43437 9.84053 6.69615 9.69264 6.84574 9.72961C6.99532 9.76658 7.66847 9.72961 7.66847 9.72961Z" fill="white"/>
<path d="M16.4946 9.72961C16.4946 9.72961 17.6913 9.80356 17.5417 8.87925C17.3922 7.95494 16.4572 7.84402 16.1955 7.88099C15.9337 7.91796 14.8866 8.28769 15.0736 9.06411C15.2605 9.84053 15.5223 9.69264 15.6719 9.72961C15.8215 9.76658 16.4946 9.72961 16.4946 9.72961Z" fill="white"/>
</svg>
