<?xml version="1.0" encoding="UTF-8" standalone="no"?><!DOCTYPE svg PUBLIC "-//W3C//DTD SVG 1.1//EN" "http://www.w3.org/Graphics/SVG/1.1/DTD/svg11.dtd"><svg width="25px" height="25px" version="1.1" xmlns="http://www.w3.org/2000/svg" xmlns:xlink="http://www.w3.org/1999/xlink" xml:space="preserve" xmlns:serif="http://www.serif.com/" style="fill-rule:evenodd;clip-rule:evenodd;stroke-linejoin:round;stroke-miterlimit:2;"><g id="Layer_2"><g id="Layer_1-2"><circle cx="12.713" cy="12.735" r="12" style="fill:rgb(0,209,255);"/><path d="M8.758,9.735c-0.096,-0.119 -0.242,-0.187 -0.395,-0.185l-3.205,0c-0.025,-0.001 -0.05,-0.009 -0.07,-0.025c-0.016,-0.016 -0.025,-0.037 -0.025,-0.06l0,-2.145c0,-0.022 0.009,-0.044 0.025,-0.06c0.018,-0.019 0.044,-0.029 0.07,-0.025l3.385,0c0.858,0.001 1.672,0.386 2.215,1.05l0.825,1l-1.605,1.95l-1.22,-1.5Zm5.925,-1.5c0.554,-0.647 1.369,-1.014 2.22,-1l3.38,0c0.019,-0.009 0.041,-0.009 0.06,0c0.01,0.021 0.01,0.045 0,0.065l0,2.16c0.008,0.019 0.008,0.041 0,0.06c-0.013,0.019 -0.037,0.029 -0.06,0.025l-3.205,0c-0.155,-0.003 -0.302,0.065 -0.4,0.185l-2.36,2.875l2.395,2.915c0.097,0.111 0.238,0.173 0.385,0.17l3.205,0c0.024,-0.002 0.047,0.01 0.06,0.03c0.01,0.022 0.01,0.048 0,0.07l0,2.16c0.007,0.018 0.007,0.037 0,0.055c-0.013,0.02 -0.036,0.031 -0.06,0.03l-3.4,0c-0.85,-0.004 -1.655,-0.39 -2.19,-1.05l-2,-2.4l-1.95,2.4c-0.546,0.666 -1.364,1.052 -2.225,1.05l-3.38,0c-0.024,0.002 -0.047,-0.01 -0.06,-0.03c-0.011,-0.02 -0.011,-0.045 0,-0.065l0,-2.16c-0.008,-0.019 -0.008,-0.041 0,-0.06c0.014,-0.019 0.036,-0.031 0.06,-0.03l3.205,0c0.153,0.002 0.299,-0.066 0.395,-0.185l2.32,-2.83l3.605,-4.44Z" style="fill:white;fill-rule:nonzero;"/></g></g></svg>