<?xml version="1.0" encoding="UTF-8" standalone="no"?><!DOCTYPE svg PUBLIC "-//W3C//DTD SVG 1.1//EN" "http://www.w3.org/Graphics/SVG/1.1/DTD/svg11.dtd"><svg width="25px" height="25px" version="1.1" xmlns="http://www.w3.org/2000/svg" xmlns:xlink="http://www.w3.org/1999/xlink" xml:space="preserve" xmlns:serif="http://www.serif.com/" style="fill-rule:evenodd;clip-rule:evenodd;stroke-linejoin:round;stroke-miterlimit:2;"><g id="Layer_2"><g id="Layer_1-2"><circle cx="12.328" cy="12.727" r="12" style="fill:url(#_Linear1);"/><path d="M8.583,14.752c0.063,-0.067 0.152,-0.105 0.245,-0.105l8.5,-0c0,-0 0.001,-0 0.002,-0c0.096,-0 0.175,0.079 0.175,0.175c0,0.047 -0.019,0.092 -0.052,0.125l-1.68,1.68c-0.067,0.065 -0.157,0.101 -0.25,0.1l-8.5,-0c-0.002,-0 -0.004,-0 -0.005,-0c-0.094,-0 -0.17,-0.077 -0.17,-0.17c-0,-0.048 0.02,-0.093 0.055,-0.125l1.68,-1.68Z" style="fill:white;fill-rule:nonzero;"/><path d="M8.583,8.482c0.064,-0.066 0.152,-0.103 0.245,-0.105l8.5,-0c0,-0 0.001,-0 0.002,-0c0.096,-0 0.175,0.079 0.175,0.175c0,0.047 -0.019,0.092 -0.052,0.125l-1.68,1.68c-0.067,0.065 -0.157,0.101 -0.25,0.1l-8.5,-0c-0.002,-0 -0.004,-0 -0.005,-0c-0.094,-0 -0.17,-0.077 -0.17,-0.17c-0,-0.048 0.02,-0.093 0.055,-0.125l1.68,-1.68Z" style="fill:white;fill-rule:nonzero;"/><path d="M15.773,11.597c-0.067,-0.067 -0.156,-0.105 -0.25,-0.105l-8.5,-0c-0.095,0.001 -0.173,0.08 -0.173,0.175c0,0.047 0.019,0.092 0.053,0.125l1.68,1.68c0.064,0.066 0.153,0.102 0.245,0.1l8.5,-0c0.095,-0.001 0.172,-0.08 0.172,-0.175c0,-0.045 -0.017,-0.088 -0.047,-0.12l-1.68,-1.68Z" style="fill:white;fill-rule:nonzero;"/></g></g><defs><linearGradient id="_Linear1" x1="0" y1="0" x2="1" y2="0" gradientUnits="userSpaceOnUse" gradientTransform="matrix(12.17,-19.33,19.33,12.17,6.37259,22.1869)"><stop offset="0" style="stop-color:rgb(0,255,163);stop-opacity:1"/><stop offset="1" style="stop-color:rgb(220,31,255);stop-opacity:1"/></linearGradient></defs></svg>