<svg width="24" height="24" viewBox="0 0 24 24" fill="none" xmlns="http://www.w3.org/2000/svg">
<circle cx="12" cy="12" r="12" fill="#0E0F23"/>
<path d="M8.20846 6.74609L18.2835 13.6253L15.7918 17.3086L5.7168 10.3753L8.20846 6.74609Z" fill="url(#paint0_linear)"/>
<path d="M18.2836 13.6264C17.4169 14.8722 14.4919 14.3847 11.7294 12.4347C8.91278 10.5389 7.39611 7.99305 8.20861 6.74721C9.07528 5.50138 12.0003 5.98888 14.7628 7.93888C17.5794 9.78055 19.0961 12.3805 18.2836 13.6264Z" fill="url(#paint1_linear)"/>
<path d="M15.7907 17.2548C14.9241 18.5006 11.9991 18.0131 9.23655 16.0631C6.47405 14.1131 4.90322 11.6214 5.76989 10.3214C6.63655 9.0756 9.56155 9.5631 12.3241 11.5131C15.0866 13.4631 16.6032 16.0089 15.7907 17.2548Z" fill="url(#paint2_linear)"/>
<path d="M18.2832 13.6245L15.7915 17.3078C14.9249 18.5536 11.9999 18.012 9.23737 16.1161C8.6957 15.737 8.2082 15.3578 7.7207 14.9245C8.09987 14.8703 8.58737 14.6536 9.07487 14.112C9.94154 13.1911 10.3749 12.9745 10.754 13.0286C11.1332 13.0286 11.5665 13.4078 12.2707 14.3286C12.9749 15.2495 13.9499 15.5203 14.5457 15.0328C14.5999 14.9786 14.654 14.9786 14.7082 14.9245C15.1957 14.5453 15.3582 14.3828 16.279 12.6495C16.4957 12.2161 17.254 11.512 18.2832 11.837C18.554 12.5411 18.554 13.137 18.2832 13.6245Z" fill="white"/>
<path fill-rule="evenodd" clip-rule="evenodd" d="M17.9028 13.4092C17.1445 14.4925 14.4903 13.9509 11.9445 12.1634C9.34445 10.3759 7.82779 8.10087 8.58612 7.01754C9.34446 5.9342 11.9986 6.47587 14.5445 8.26337C17.0903 10.0509 18.607 12.3259 17.9028 13.4092ZM15.5195 11.7842C15.1403 12.3259 13.8403 12.055 12.5403 11.1884C11.2945 10.3217 10.5361 9.1842 10.9153 8.64254C11.2945 8.10087 12.5945 8.3717 13.8945 9.23837C15.1403 10.105 15.8986 11.2425 15.5195 11.7842Z" fill="#0E0F23"/>
<path d="M7.99206 7.99067C7.99206 7.9365 7.93789 7.88233 7.88372 7.9365C7.82956 7.99067 7.77539 7.99067 7.77539 8.04483C7.82956 8.20733 7.88372 8.31567 7.88372 8.424C7.88372 8.47817 7.93789 8.53233 7.99206 8.47817C8.04622 8.47817 8.10039 8.424 8.04622 8.36983C8.04622 8.2615 8.04622 8.15317 7.99206 7.99067Z" fill="white"/>
<path d="M8.26211 8.85785C8.26211 8.80369 8.20794 8.74952 8.15378 8.80369C8.09961 8.85785 8.09961 8.85785 8.09961 8.91202C8.69544 10.2662 9.94128 11.7287 11.5663 12.812C11.6204 12.8662 11.6746 12.812 11.7288 12.812C11.7829 12.7579 11.7288 12.7037 11.7288 12.6495C10.0496 11.5662 8.85794 10.1579 8.26211 8.85785Z" fill="white"/>
<path d="M14.8154 14.1641C14.7612 14.1641 14.707 14.1641 14.707 14.2182C14.707 14.2724 14.707 14.3266 14.7612 14.3266C14.9237 14.3807 15.1404 14.4349 15.3029 14.4891C15.357 14.4891 15.4112 14.4891 15.4112 14.4349C15.4112 14.3807 15.4112 14.3266 15.357 14.3266C15.1945 14.2724 14.9779 14.2182 14.8154 14.1641Z" fill="white"/>
<path d="M15.7919 14.3828C15.7378 14.3828 15.6836 14.437 15.6836 14.4911C15.6836 14.5453 15.7378 14.5995 15.7919 14.5995C16.2253 14.6536 16.7128 14.7078 17.0919 14.6536C17.1461 14.6536 17.2003 14.5995 17.2003 14.5453C17.2003 14.4911 17.1461 14.437 17.0919 14.437C16.6586 14.4911 16.2253 14.437 15.7919 14.3828Z" fill="white"/>
<defs>
<linearGradient id="paint0_linear" x1="10.1824" y1="5.76801" x2="12.1804" y2="12.6289" gradientUnits="userSpaceOnUse">
<stop stop-color="#03B8FF"/>
<stop offset="1" stop-color="#FA52A0"/>
</linearGradient>
<linearGradient id="paint1_linear" x1="11.8279" y1="5.28991" x2="13.826" y2="12.1508" gradientUnits="userSpaceOnUse">
<stop stop-color="#03B8FF"/>
<stop offset="1" stop-color="#FA52A0"/>
</linearGradient>
<linearGradient id="paint2_linear" x1="8.54105" y1="6.24599" x2="10.5391" y2="13.1069" gradientUnits="userSpaceOnUse">
<stop stop-color="#03B8FF"/>
<stop offset="1" stop-color="#FA52A0"/>
</linearGradient>
</defs>
</svg>
