<?xml version="1.0" encoding="UTF-8" standalone="no"?><!DOCTYPE svg PUBLIC "-//W3C//DTD SVG 1.1//EN" "http://www.w3.org/Graphics/SVG/1.1/DTD/svg11.dtd"><svg width="25px" height="25px" version="1.1" xmlns="http://www.w3.org/2000/svg" xmlns:xlink="http://www.w3.org/1999/xlink" xml:space="preserve" xmlns:serif="http://www.serif.com/" style="fill-rule:evenodd;clip-rule:evenodd;stroke-linejoin:round;stroke-miterlimit:2;"><g id="Layer_2"><g id="Layer_1-2"><circle cx="12.84" cy="12.372" r="12" style="fill:rgb(20,200,255);"/><path d="M19.65,8.982c0.504,0.44 0.762,1.1 0.69,1.765l-1.04,5.625c-0.163,0.652 -0.628,1.187 -1.25,1.44l-5.565,1.97c-0.653,0.189 -1.358,0.067 -1.91,-0.33l-4.545,-3.69c-0.505,-0.439 -0.763,-1.099 -0.69,-1.765l1,-5.64c0.164,-0.651 0.628,-1.186 1.25,-1.44l5.605,-1.955c0.655,-0.19 1.362,-0.068 1.915,0.33l4.54,3.69Zm-4.735,2.53l0.23,-1.14l-2.125,0l0.3,-1.5l-0.685,0c-0.496,0.76 -1.218,1.345 -2.065,1.67l-0.19,1l0.93,0c0,0 -0.315,1.42 -0.42,1.945c-0.265,1.335 0.395,2.28 1.41,2.28l1.715,0l0.3,-1.265l-1.435,0c-0.64,0 -0.605,-0.35 -0.5,-0.97l0.395,-2l2.14,-0.02Z" style="fill:white;fill-rule:nonzero;"/></g></g></svg>