<?xml version="1.0" encoding="UTF-8" standalone="no"?><!DOCTYPE svg PUBLIC "-//W3C//DTD SVG 1.1//EN" "http://www.w3.org/Graphics/SVG/1.1/DTD/svg11.dtd"><svg width="25px" height="25px" version="1.1" xmlns="http://www.w3.org/2000/svg" xmlns:xlink="http://www.w3.org/1999/xlink" xml:space="preserve" xmlns:serif="http://www.serif.com/" style="fill-rule:evenodd;clip-rule:evenodd;stroke-linejoin:round;stroke-miterlimit:2;"><clipPath id="_clip1"><rect id="Theta-Fuel.svg" serif:id="Theta Fuel.svg" x="0.688" y="0.432" width="23.945" height="24"/></clipPath><g clip-path="url(#_clip1)"><g id="Layer_2"><g id="Layer_1-2"><path id="SVGID" d="M12.688,0.432c6.583,-0 12,5.417 12,12c0,6.583 -5.417,12 -12,12c-6.583,-0 -12,-5.417 -12,-12c0,-6.583 5.417,-12 12,-12Z" style="fill:url(#_Linear2);fill-rule:nonzero;"/><path id="SVGID-2" d="M17.258,8.762c-0.15,0.18 -0.14,0.575 -0.385,0.455c0,-0 -1.68,-0.645 -0.645,-2.545c0.28,-0.44 0.57,-0.47 0.525,-1.535c0.26,0.395 1.11,1.18 1.175,2.425c0.07,0.825 -0.425,0.935 -0.67,1.2Z" style="fill:white;fill-rule:nonzero;"/><path id="SVGID-3" d="M15.918,11.712c0.415,-0.14 1.085,-0.36 1.125,-1.775c0.64,1 2.81,2.36 1.77,6.575c-0.42,1.645 -2,2.445 -3.47,3.05c-0.991,0.352 -1.802,1.087 -2.25,2.04c-0.447,0.952 -7,-0.89 -6.78,-7.85c0.175,-3.61 3.555,-5 5,-7.63c0.458,-1.05 0.631,-2.202 0.5,-3.34c-0.13,-1.138 4.455,2.78 2.445,7.06c-0.655,1.5 0.905,2 1.675,1.87l-0.015,-0Z" style="fill:white;fill-rule:nonzero;"/><path id="SVGID-4" d="M9.043,12.962l0,2.325l2.47,-0l0,2.475l2.32,-0l0,-2.475l2.47,-0l0,-2.325l-7.26,-0Z" style="fill:url(#_Linear3);fill-rule:nonzero;"/></g></g></g><defs><linearGradient id="_Linear2" x1="0" y1="0" x2="1" y2="0" gradientUnits="userSpaceOnUse" gradientTransform="matrix(23.945,0,0,23.945,0.688386,12.4317)"><stop offset="0" style="stop-color:rgb(255,165,13);stop-opacity:1"/><stop offset="1" style="stop-color:rgb(254,84,19);stop-opacity:1"/></linearGradient><linearGradient id="_Linear3" x1="0" y1="0" x2="1" y2="0" gradientUnits="userSpaceOnUse" gradientTransform="matrix(105.343,0,0,105.343,130.358,156.29)"><stop offset="0" style="stop-color:rgb(255,165,13);stop-opacity:1"/><stop offset="1" style="stop-color:rgb(254,84,19);stop-opacity:1"/></linearGradient></defs></svg>