<svg width="24" height="24" viewBox="0 0 24 24" fill="none" xmlns="http://www.w3.org/2000/svg">
<g clip-path="url(#clip0)">
<path d="M12 24C18.6274 24 24 18.6274 24 12C24 5.37258 18.6274 0 12 0C5.37258 0 0 5.37258 0 12C0 18.6274 5.37258 24 12 24Z" fill="#FF060A"/>
<g clip-path="url(#clip1)">
<path d="M20.3875 9.81997C19.6375 9.12747 18.6 8.06997 17.755 7.31997L17.705 7.28497C17.6218 7.21816 17.528 7.16577 17.4275 7.12997C15.39 6.74997 5.90749 4.97747 5.72249 4.99997C5.67066 5.00723 5.62111 5.02602 5.57749 5.05497L5.52999 5.09247C5.4715 5.15187 5.42708 5.22363 5.39999 5.30247L5.38749 5.33497V5.51247V5.53997C6.45499 8.51247 10.67 18.25 11.5 20.535C11.55 20.69 11.645 20.985 11.8225 21H11.8625C11.9575 21 12.3625 20.465 12.3625 20.465C12.3625 20.465 19.6025 11.685 20.335 10.75C20.4298 10.6348 20.5135 10.5109 20.585 10.38C20.6032 10.2775 20.5946 10.1721 20.56 10.0739C20.5254 9.97581 20.466 9.88831 20.3875 9.81997ZM14.22 10.8425L17.31 8.27997L19.1225 9.94997L14.22 10.8425ZM13.02 10.675L7.69999 6.31497L16.3075 7.90247L13.02 10.675ZM13.5 11.8175L18.945 10.94L12.72 18.44L13.5 11.8175ZM6.97749 6.74997L12.575 11.5L11.765 18.445L6.97749 6.74997Z" fill="white"/>
</g>
</g>
<defs>
<clipPath id="clip0">
<rect width="24" height="24" fill="white"/>
</clipPath>
<clipPath id="clip1">
<rect width="16" height="16" fill="white" transform="translate(5 5)"/>
</clipPath>
</defs>
</svg>
