<svg width="24" height="24" viewBox="0 0 24 24" fill="none" xmlns="http://www.w3.org/2000/svg">
<path d="M12 24C5.4 24 0 18.6 0 12C0 5.4 5.4 0 12 0C18.6 0 24 5.4 24 12C24 18.6 18.6 24 12 24Z" fill="#002868"/>
<path d="M18.0488 19.2008H5.95278C5.31918 19.2008 4.80078 18.6824 4.80078 18.0488V5.95278C4.80078 5.31918 5.31918 4.80078 5.95278 4.80078H18.0488C18.6824 4.80078 19.2008 5.31918 19.2008 5.95278V18.0488C19.2008 18.6824 18.6824 19.2008 18.0488 19.2008Z" fill="white"/>
<path d="M7.6096 17.7511C7.57168 17.7511 7.54096 17.7166 7.54096 17.6787V15.7438C7.54096 15.7059 7.51024 15.6713 7.47232 15.6713H6.78928C6.75088 15.6713 6.7168 15.6406 6.7168 15.6027V15.2287C6.7168 15.1908 6.75136 15.1562 6.78928 15.1562H8.89168C8.9296 15.1562 8.96416 15.1903 8.96416 15.2287V15.6027C8.96416 15.6406 8.9296 15.6713 8.89168 15.6713H8.21248C8.17456 15.6713 8.14 15.7054 8.14 15.7438V17.6787C8.14 17.7166 8.10928 17.7511 8.07136 17.7511H7.6096Z" fill="#002868"/>
<path d="M11.0618 15.2287C11.0618 15.1908 11.0925 15.1562 11.1304 15.1562H11.5883C11.6263 15.1562 11.6608 15.1903 11.6608 15.2287V16.5492C11.6608 17.3316 11.2183 17.7857 10.516 17.7857C9.81763 17.7857 9.37891 17.3316 9.37891 16.5492V15.2287C9.37891 15.1908 9.40963 15.1562 9.44755 15.1562H9.90547C9.94339 15.1562 9.97795 15.1903 9.97795 15.2287V16.5679C9.97795 16.9534 10.1762 17.2279 10.5199 17.2279C10.8635 17.2279 11.0618 16.9534 11.0618 16.5679V15.2287V15.2287Z" fill="#002868"/>
<path d="M13.7643 16.0024C13.7034 16.0024 13.6842 15.9794 13.6611 15.9338C13.581 15.7466 13.4053 15.6285 13.1384 15.6285C12.8979 15.6285 12.6958 15.7125 12.6958 15.8728C12.6958 16.0485 12.883 16.121 13.2949 16.1704C13.9208 16.2429 14.2794 16.434 14.2794 16.9298C14.2794 17.4871 13.7907 17.7808 13.1653 17.7808C12.6234 17.7808 12.1578 17.5173 12.0853 16.9644C12.0776 16.9111 12.1045 16.8919 12.1578 16.8919H12.5778C12.631 16.8919 12.6618 16.9149 12.6771 16.9567C12.7342 17.14 12.9291 17.2812 13.2114 17.2812C13.4595 17.2812 13.677 17.1895 13.677 16.9951C13.677 16.7623 13.448 16.7205 12.9901 16.6629C12.4635 16.5943 12.0973 16.4416 12.0973 15.9568C12.0973 15.472 12.5134 15.125 13.1658 15.125C13.7533 15.125 14.1618 15.4418 14.2458 15.9151C14.2573 15.9684 14.2419 16.0029 14.1848 16.0029H13.7643V16.0024Z" fill="#002868"/>
<path d="M14.7991 17.7511C14.7612 17.7511 14.7305 17.7166 14.7305 17.6787V15.2287C14.7305 15.1908 14.7612 15.1562 14.7991 15.1562H15.8369C16.6077 15.1562 17.2068 15.6867 17.2068 16.4614C17.2068 17.2246 16.6154 17.7511 15.8369 17.7511H14.7991ZM15.8369 17.2356C16.253 17.2356 16.577 16.9073 16.577 16.4532C16.577 15.9991 16.2525 15.6708 15.833 15.6708H15.402C15.3641 15.6708 15.3333 15.7049 15.3333 15.7433V17.1665C15.3333 17.2044 15.3641 17.2351 15.402 17.2351H15.8369V17.2356Z" fill="#002868"/>
<path d="M18.8162 13.7282H5.18419C5.07859 13.7282 4.99219 13.6418 4.99219 13.5362V5.95219C4.99219 5.42419 5.42419 4.99219 5.95219 4.99219H18.0482C18.5762 4.99219 19.0082 5.42419 19.0082 5.95219V13.5362C19.0082 13.6418 18.9218 13.7282 18.8162 13.7282Z" fill="#002868"/>
<path d="M12.7065 12.1696H11.4585C11.3793 12.1696 11.3145 12.1048 11.3145 12.0256V6.74556C11.3145 6.66636 11.3793 6.60156 11.4585 6.60156H12.7065C12.7857 6.60156 12.8505 6.66636 12.8505 6.74556V12.0256C12.8505 12.1048 12.7857 12.1696 12.7065 12.1696Z" fill="white"/>
<path d="M14.8314 8.13756H9.16744C9.08824 8.13756 9.02344 8.07276 9.02344 7.99356V6.74556C9.02344 6.66636 9.08824 6.60156 9.16744 6.60156H14.8314C14.9106 6.60156 14.9754 6.66636 14.9754 6.74556V7.99356C14.9754 8.07276 14.9106 8.13756 14.8314 8.13756Z" fill="white"/>
</svg>
