<?xml version="1.0" encoding="UTF-8" standalone="no"?><!DOCTYPE svg PUBLIC "-//W3C//DTD SVG 1.1//EN" "http://www.w3.org/Graphics/SVG/1.1/DTD/svg11.dtd"><svg width="25px" height="25px" version="1.1" xmlns="http://www.w3.org/2000/svg" xmlns:xlink="http://www.w3.org/1999/xlink" xml:space="preserve" xmlns:serif="http://www.serif.com/" style="fill-rule:evenodd;clip-rule:evenodd;stroke-linejoin:round;stroke-miterlimit:2;"><g id="Layer_2"><g id="Layer_1-2"><circle cx="12.173" cy="12.876" r="12" style="fill:rgb(255,74,74);"/><path d="M14.628,15.001l-0.76,-0c-0.002,-0 -0.003,-0 -0.005,-0c-0.132,-0 -0.24,-0.108 -0.24,-0.24c-0,-0.002 -0,-0.003 -0,-0.005l-0,-1.88l-1.255,0.78c-0.104,0.07 -0.241,0.07 -0.345,-0l-1.25,-0.78l-0,1.885c-0,0.134 -0.111,0.245 -0.245,0.245l-0.71,-0c-0.002,-0 -0.003,-0 -0.005,-0c-0.132,-0 -0.24,-0.108 -0.24,-0.24c-0,-0.002 -0,-0.003 -0,-0.005l-0,-3.645c-0,-0.178 0.147,-0.325 0.325,-0.325c0.063,-0.001 0.125,0.02 0.175,0.06l2,1.36c0.082,0.059 0.193,0.059 0.275,-0l2,-1.36c0.149,-0.097 0.351,-0.06 0.455,0.085c0.034,0.054 0.055,0.116 0.06,0.18l-0,3.64c0,0.003 0,0.006 0,0.01c0,0.129 -0.106,0.235 -0.235,0.235Z" style="fill:white;fill-rule:nonzero;"/><path d="M8.503,14.996l-4.45,-0c-0.179,-0.003 -0.325,-0.151 -0.325,-0.33l-0,-3.655c-0,-0.135 0.111,-0.245 0.245,-0.245c0.002,-0 0.003,-0 0.005,-0l0.72,-0c0.134,-0 0.245,0.11 0.245,0.245l-0,2.78l2.695,-0l-0,-2.78c-0,-0.002 -0,-0.004 -0,-0.005c-0,-0.132 0.108,-0.24 0.24,-0.24c0.002,-0 0.003,-0 0.005,-0l0.7,-0c0.134,-0 0.245,0.11 0.245,0.245l-0,3.655c0,0.179 -0.146,0.327 -0.325,0.33Z" style="fill:white;fill-rule:nonzero;"/><path d="M15.898,10.766l4.45,-0c0.178,-0 0.325,0.147 0.325,0.325l-0,3.655c0,0.002 0,0.003 0,0.005c0,0.132 -0.107,0.242 -0.24,0.245l-0.715,-0c-0.134,-0 -0.245,-0.111 -0.245,-0.245c-0,-0.002 -0,-0.004 -0,-0.005l-0,-2.62c-0.003,-0.087 -0.073,-0.158 -0.16,-0.16l-2.37,-0c-0.088,-0 -0.16,0.072 -0.16,0.16l-0,2.62c0,0.001 0,0.003 0,0.005c0,0.134 -0.111,0.245 -0.245,0.245l-0.72,-0c-0.135,-0.003 -0.245,-0.115 -0.245,-0.25l-0,-3.655c-0,-0.178 0.147,-0.325 0.325,-0.325Z" style="fill:white;fill-rule:nonzero;"/><path d="M17.763,12.736l0.71,-0c0.002,-0 0.003,-0 0.005,-0c0.134,-0 0.245,0.11 0.245,0.245l-0,0.725c-0.003,0.135 -0.115,0.245 -0.25,0.245l-0.71,-0c-0.134,-0 -0.245,-0.111 -0.245,-0.245l-0,-0.73c0.003,-0.133 0.112,-0.24 0.245,-0.24Z" style="fill:white;fill-rule:nonzero;"/></g></g></svg>