<svg width="24" height="24" viewBox="0 0 24 24" fill="none" xmlns="http://www.w3.org/2000/svg">
<circle cx="12" cy="12" r="12" fill="#FF007A"/>
<g clip-path="url(#clip0)">
<path d="M10.5017 6.70338C10.3283 6.67851 10.32 6.67021 10.4026 6.66192C10.5594 6.63704 10.9227 6.67021 11.1786 6.72826C11.7731 6.86924 12.3097 7.23411 12.8794 7.87263L13.028 8.04678L13.2426 8.01361C14.159 7.86434 15.1002 7.98044 15.8845 8.34531C16.0992 8.44482 16.4377 8.64384 16.479 8.69359C16.4955 8.71018 16.5202 8.81798 16.5367 8.92579C16.5945 9.31554 16.5698 9.60577 16.4459 9.82967C16.3799 9.95406 16.3799 9.98723 16.4212 10.095C16.4542 10.178 16.5533 10.236 16.6441 10.236C16.8422 10.236 17.0486 9.92089 17.1477 9.48139L17.189 9.30724L17.2633 9.39017C17.6843 9.86284 18.0146 10.518 18.0641 10.9823L18.0806 11.1067L18.0063 10.9989C17.8825 10.8082 17.7669 10.6838 17.61 10.576C17.3293 10.3853 17.0321 10.3272 16.2478 10.2858C15.5378 10.2443 15.1332 10.1863 14.737 10.0536C14.06 9.82967 13.7132 9.53943 12.9124 8.4697C12.5574 7.99702 12.3345 7.73995 12.1116 7.52435C11.6245 7.05167 11.1374 6.80289 10.5017 6.70338Z" fill="white"/>
<path d="M16.6524 7.75648C16.6689 7.44136 16.7102 7.23405 16.801 7.04332C16.834 6.96868 16.867 6.90234 16.8753 6.90234C16.8835 6.90234 16.867 6.96039 16.8422 7.02673C16.7762 7.20917 16.7679 7.46624 16.8092 7.75648C16.867 8.12964 16.8918 8.1794 17.2881 8.58573C17.4697 8.77646 17.6844 9.01694 17.7669 9.11645L17.9073 9.29889L17.7669 9.16621C17.5935 9.00036 17.1973 8.68524 17.1064 8.64378C17.0486 8.61061 17.0404 8.61061 16.9991 8.65207C16.9661 8.68524 16.9578 8.735 16.9578 8.97548C16.9496 9.34865 16.9 9.58084 16.7762 9.82132C16.7102 9.94571 16.7019 9.92083 16.7597 9.77986C16.801 9.67205 16.8092 9.6223 16.8092 9.26572C16.8092 8.54427 16.7267 8.37012 16.223 8.07989C16.0992 8.00525 15.8846 7.89745 15.7607 7.8394C15.6286 7.78135 15.5295 7.7316 15.5378 7.7316C15.5543 7.71501 16.0414 7.85599 16.2313 7.93891C16.5203 8.05501 16.5698 8.0633 16.6028 8.05501C16.6276 8.03013 16.6441 7.96379 16.6524 7.75648Z" fill="white"/>
<path d="M10.8401 8.9922C10.4934 8.51123 10.2705 7.7649 10.32 7.2093L10.3365 7.03516L10.4191 7.05174C10.5677 7.07662 10.8236 7.17613 10.9474 7.25076C11.2777 7.44978 11.4263 7.72344 11.5666 8.40343C11.6079 8.60245 11.6657 8.83464 11.6905 8.90927C11.7318 9.03366 11.8886 9.3239 12.0207 9.50633C12.1115 9.63902 12.0537 9.70536 11.8473 9.68877C11.5336 9.6556 11.1126 9.36536 10.8401 8.9922Z" fill="white"/>
<path d="M16.2313 12.5994C14.5966 11.936 14.0187 11.3638 14.0187 10.3935C14.0187 10.2526 14.0269 10.1365 14.0269 10.1365C14.0352 10.1365 14.093 10.1862 14.1673 10.2443C14.4975 10.5096 14.869 10.6257 15.901 10.775C16.5037 10.8662 16.8505 10.9326 17.1642 11.0404C18.1632 11.3721 18.7824 12.0521 18.931 12.9725C18.9722 13.2379 18.9475 13.7437 18.8814 14.0091C18.8236 14.2164 18.6585 14.5979 18.6172 14.6062C18.609 14.6062 18.5925 14.5647 18.5925 14.4984C18.576 14.1501 18.4026 13.8184 18.1136 13.5613C17.7669 13.2628 17.3211 13.0389 16.2313 12.5994Z" fill="white"/>
<path d="M15.0755 12.8731C15.059 12.7487 15.0177 12.5911 14.9929 12.5248L14.9516 12.4004L15.0259 12.4916C15.1333 12.616 15.2158 12.7653 15.2901 12.9726C15.3479 13.1301 15.3479 13.1799 15.3479 13.437C15.3479 13.6857 15.3397 13.7438 15.2901 13.8848C15.2076 14.1087 15.1085 14.2662 14.9434 14.4404C14.6462 14.7472 14.2581 14.913 13.705 14.9877C13.6059 14.996 13.3252 15.0208 13.0775 15.0374C12.4583 15.0706 12.0456 15.1369 11.674 15.2696C11.6245 15.2862 11.575 15.3028 11.5667 15.2945C11.5502 15.2779 11.8061 15.1286 12.0125 15.0291C12.3015 14.8882 12.5987 14.8135 13.2509 14.6974C13.5729 14.6477 13.9031 14.5813 13.9857 14.5482C14.803 14.2911 15.2076 13.6526 15.0755 12.8731Z" fill="white"/>
<path d="M15.8268 14.2081C15.6121 13.7354 15.5626 13.2876 15.6782 12.8647C15.6947 12.8232 15.7112 12.7817 15.7277 12.7817C15.7442 12.7817 15.7937 12.8066 15.8433 12.8398C15.9423 12.9061 16.1487 13.0222 16.6771 13.3125C17.3459 13.6773 17.7256 13.9593 17.9898 14.2827C18.221 14.5646 18.3613 14.888 18.4274 15.2861C18.4687 15.51 18.4439 16.049 18.3861 16.2729C18.2045 16.9778 17.7917 17.5417 17.189 17.8651C17.0982 17.9148 17.0239 17.948 17.0156 17.948C17.0074 17.948 17.0404 17.8651 17.0899 17.7656C17.2881 17.3426 17.3128 16.9363 17.1642 16.4802C17.0734 16.1983 16.8835 15.8583 16.5038 15.2861C16.0497 14.6227 15.9423 14.4485 15.8268 14.2081Z" fill="white"/>
<path d="M9.67603 16.7457C10.287 16.2316 11.0383 15.8667 11.7318 15.7506C12.029 15.7009 12.5243 15.7174 12.7968 15.7921C13.2343 15.9082 13.6306 16.1569 13.837 16.4638C14.0352 16.7623 14.126 17.0194 14.2168 17.5916C14.2498 17.8155 14.2911 18.0476 14.2994 18.0974C14.3654 18.3959 14.4975 18.6281 14.6626 18.7525C14.9185 18.9432 15.3644 18.9515 15.8019 18.7857C15.8762 18.7608 15.9423 18.7359 15.9423 18.7442C15.9588 18.7608 15.7359 18.9101 15.5873 18.9847C15.3809 19.0925 15.2158 19.1257 14.9929 19.1257C14.5966 19.1257 14.2581 18.9184 13.9856 18.5037C13.9278 18.4208 13.8123 18.1803 13.7132 17.9564C13.4242 17.2847 13.2756 17.0857 12.9371 16.8618C12.6399 16.6711 12.2601 16.6296 11.9712 16.7706C11.5914 16.953 11.4923 17.4423 11.7565 17.7408C11.8639 17.8652 12.062 17.9647 12.2271 17.9896C12.5326 18.0311 12.7968 17.7906 12.7968 17.4838C12.7968 17.2847 12.7225 17.1686 12.5243 17.0774C12.2601 16.9613 11.9712 17.094 11.9794 17.3511C11.9794 17.4589 12.029 17.5252 12.1363 17.575C12.2023 17.6081 12.2023 17.6081 12.1528 17.5999C11.9134 17.5501 11.8556 17.2516 12.0455 17.0608C12.2766 16.8286 12.7637 16.9282 12.9289 17.2516C12.9949 17.3842 13.0032 17.6496 12.9454 17.8155C12.805 18.1803 12.4087 18.3711 12.0042 18.2633C11.7318 18.1886 11.6162 18.114 11.2859 17.774C10.708 17.1769 10.4851 17.0608 9.65952 16.9364L9.50266 16.9116L9.67603 16.7457Z" fill="white"/>
<path fill-rule="evenodd" clip-rule="evenodd" d="M5.33321 3.40297C7.25684 5.74976 10.2207 9.39848 10.3693 9.5975C10.4932 9.76335 10.4436 9.92091 10.2372 10.037C10.1216 10.1033 9.88223 10.1697 9.76664 10.1697C9.63455 10.1697 9.47769 10.1033 9.37036 9.99554C9.29606 9.92091 8.97407 9.44823 8.24755 8.31215C7.69441 7.44144 7.22382 6.71998 7.21556 6.71169C7.18254 6.69511 7.18254 6.69511 8.18976 8.50288C8.82547 9.63896 9.03187 10.0453 9.03187 10.095C9.03187 10.2029 8.99884 10.2609 8.86675 10.4102C8.64384 10.6589 8.54477 10.9409 8.47046 11.5297C8.3879 12.1848 8.16499 12.6492 7.52929 13.4369C7.15777 13.9013 7.09998 13.9843 7.00916 14.175C6.89358 14.4072 6.86056 14.5399 6.84404 14.8384C6.82753 15.1535 6.86056 15.3525 6.95137 15.6511C7.03393 15.9164 7.12475 16.0906 7.34766 16.4306C7.53754 16.7291 7.65313 16.953 7.65313 17.0359C7.65313 17.1022 7.66964 17.1022 7.96685 17.0359C8.67686 16.8701 9.26303 16.5881 9.58501 16.2398C9.78316 16.0242 9.83269 15.9081 9.83269 15.6096C9.83269 15.4189 9.82444 15.3774 9.7749 15.2613C9.69234 15.0789 9.53548 14.9296 9.19699 14.6974C8.75116 14.3906 8.56128 14.1418 8.51174 13.8101C8.47046 13.5282 8.52 13.3374 8.76768 12.815C9.02361 12.276 9.08966 12.0521 9.13094 11.5048C9.15571 11.1565 9.19699 11.0155 9.29606 10.9077C9.40338 10.7916 9.4942 10.7502 9.75013 10.717C10.1712 10.6589 10.4436 10.5511 10.6583 10.3438C10.8482 10.1697 10.9307 9.99554 10.939 9.73847L10.9472 9.54774L10.8399 9.43165C10.4519 8.98385 5.07727 3.04639 5.05251 3.04639C5.04425 3.04639 5.17635 3.20395 5.33321 3.40297ZM7.86778 15.195C7.95859 15.0374 7.90906 14.8384 7.76045 14.7389C7.6201 14.6477 7.40545 14.6891 7.40545 14.8135C7.40545 14.8467 7.42196 14.8798 7.47149 14.8964C7.5458 14.9379 7.55405 14.9794 7.49626 15.0706C7.43847 15.1618 7.43847 15.2447 7.51277 15.3028C7.62836 15.394 7.78522 15.3442 7.86778 15.195Z" fill="white"/>
<path fill-rule="evenodd" clip-rule="evenodd" d="M11.2117 10.833C11.0135 10.8911 10.8237 11.1067 10.7659 11.3223C10.7328 11.455 10.7494 11.6954 10.8071 11.7701C10.898 11.8862 10.9805 11.9193 11.2117 11.9193C11.6658 11.9193 12.0538 11.7203 12.0951 11.4798C12.1364 11.2808 11.963 11.0072 11.7236 10.8828C11.5997 10.8164 11.3438 10.7916 11.2117 10.833ZM11.7401 11.2476C11.8061 11.1481 11.7813 11.0403 11.6575 10.9657C11.4346 10.8247 11.0961 10.9408 11.0961 11.1564C11.0961 11.2642 11.2695 11.3803 11.4346 11.3803C11.5419 11.3803 11.6905 11.314 11.7401 11.2476Z" fill="white"/>
</g>
<defs>
<clipPath id="clip0">
<rect width="13.8947" height="16.071" fill="white" transform="translate(5.05273 3.04639)"/>
</clipPath>
</defs>
</svg>
