<?xml version="1.0" encoding="UTF-8" standalone="no"?><!DOCTYPE svg PUBLIC "-//W3C//DTD SVG 1.1//EN" "http://www.w3.org/Graphics/SVG/1.1/DTD/svg11.dtd"><svg width="25px" height="25px" version="1.1" xmlns="http://www.w3.org/2000/svg" xmlns:xlink="http://www.w3.org/1999/xlink" xml:space="preserve" xmlns:serif="http://www.serif.com/" style="fill-rule:evenodd;clip-rule:evenodd;stroke-linejoin:round;stroke-miterlimit:2;"><clipPath id="_clip1"><rect id="USD-Coin.svg" serif:id="USD Coin.svg" x="0.542" y="0.754" width="24" height="24"/></clipPath><g clip-path="url(#_clip1)"><g id="Layer_2"><g id="Layer_1-2"><path d="M12.542,24.754c6.583,-0 12,-5.417 12,-12c-0,-6.583 -5.417,-12 -12,-12c-6.583,-0 -12,5.417 -12,12c-0,0.01 -0,0.02 -0,0.03c-0,6.567 5.403,11.97 11.97,11.97c0.01,0 0.02,-0 0.03,-0Z" style="fill:rgb(39,117,202);fill-rule:nonzero;"/><path d="M15.842,14.654c-0,-1.75 -1.05,-2.35 -3.15,-2.6c-1.5,-0.2 -1.8,-0.6 -1.8,-1.3c-0,-0.7 0.5,-1.15 1.5,-1.15c0.9,-0 1.4,0.3 1.65,1.05c0.052,0.148 0.193,0.248 0.35,0.25l0.8,-0c0.003,0 0.007,0 0.01,0c0.187,0 0.34,-0.153 0.34,-0.34c0,-0.003 0,-0.007 -0,-0.01l-0,-0.05c-0.199,-1.11 -1.126,-1.955 -2.25,-2.05l-0,-1.2c-0,-0.2 -0.15,-0.35 -0.4,-0.4l-0.75,-0c-0.2,-0 -0.35,0.15 -0.4,0.4l-0,1.15c-1.5,0.2 -2.45,1.2 -2.45,2.45c-0,1.65 1,2.3 3.1,2.55c1.4,0.25 1.85,0.55 1.85,1.35c-0,0.8 -0.7,1.35 -1.65,1.35c-1.3,-0 -1.75,-0.55 -1.9,-1.3c-0.031,-0.17 -0.178,-0.296 -0.35,-0.3l-0.85,-0c-0.003,-0 -0.007,-0 -0.01,-0c-0.187,-0 -0.34,0.153 -0.34,0.34c-0,0.003 -0,0.007 -0,0.01l-0,0.05c0.2,1.25 1,2.15 2.65,2.4l-0,1.2c-0,0.2 0.15,0.35 0.4,0.4l0.75,-0c0.2,-0 0.35,-0.15 0.4,-0.4l-0,-1.2c1.5,-0.25 2.5,-1.3 2.5,-2.65Z" style="fill:white;fill-rule:nonzero;"/><path d="M9.992,19.904c-2.924,-1.093 -4.873,-3.903 -4.873,-7.025c-0,-3.122 1.949,-5.932 4.873,-7.025c0.196,-0.085 0.318,-0.287 0.3,-0.5l-0,-0.7c0.014,-0.189 -0.115,-0.361 -0.3,-0.4c-0.071,-0.008 -0.141,0.01 -0.2,0.05c-3.723,1.186 -6.267,4.668 -6.267,8.575c-0,3.907 2.544,7.388 6.267,8.575c0.046,0.027 0.099,0.04 0.152,0.04c0.143,0 0.268,-0.1 0.298,-0.24c0.05,-0.05 0.05,-0.1 0.05,-0.2l-0,-0.7c-0.032,-0.186 -0.141,-0.349 -0.3,-0.45Zm5.3,-15.6c-0.046,-0.027 -0.099,-0.041 -0.152,-0.041c-0.143,0 -0.268,0.101 -0.298,0.241c-0.05,0.05 -0.05,0.1 -0.05,0.2l-0,0.7c0.018,0.204 0.128,0.388 0.3,0.5c2.924,1.093 4.873,3.903 4.873,7.025c0,3.122 -1.949,5.932 -4.873,7.025c-0.196,0.085 -0.318,0.287 -0.3,0.5l-0,0.7c-0.014,0.189 0.115,0.361 0.3,0.4c0.07,0.007 0.141,-0.01 0.2,-0.05c3.724,-1.199 6.265,-4.688 6.265,-8.6c0,-3.912 -2.541,-7.401 -6.265,-8.6Z" style="fill:white;fill-rule:nonzero;"/></g></g></g></svg>