<?xml version="1.0" encoding="UTF-8" standalone="no"?><!DOCTYPE svg PUBLIC "-//W3C//DTD SVG 1.1//EN" "http://www.w3.org/Graphics/SVG/1.1/DTD/svg11.dtd"><svg width="25px" height="25px" version="1.1" xmlns="http://www.w3.org/2000/svg" xmlns:xlink="http://www.w3.org/1999/xlink" xml:space="preserve" xmlns:serif="http://www.serif.com/" style="fill-rule:evenodd;clip-rule:evenodd;stroke-linejoin:round;stroke-miterlimit:2;"><g id="Layer_2"><g id="Layer_1-2"><circle cx="12.735" cy="12.727" r="12" style="fill:rgb(80,175,149);"/><path d="M7.03,5.802l-3.295,6.895c-0.033,0.046 -0.033,0.109 -0,0.155l8.865,8.5c0.053,0.049 0.136,0.049 0.19,-0l8.865,-8.5c0.032,-0.046 0.032,-0.109 -0,-0.155l-3.215,-6.895c-0.021,-0.048 -0.068,-0.08 -0.12,-0.08l-11.165,-0c-0.054,-0.001 -0.104,0.031 -0.125,0.08Z" style="fill:white;fill-rule:nonzero;"/><path d="M13.875,13.402l-2.27,-0c-2.255,-0.1 -3.935,-0.5 -3.935,-0.96c-0,-0.46 1.68,-0.865 3.935,-0.965l-0,1.535c0.15,-0 0.57,0.035 1.155,0.035c0.7,-0 1.05,-0.03 1.11,-0.035l-0,-1.53c2.25,0.1 3.93,0.5 3.93,0.96c-0,0.46 -1.68,0.86 -3.93,0.96l0.005,-0Zm-0,-2.08l-0,-1.375l3.14,-0l-0,-2.09l-8.55,-0l-0,2.09l3.14,-0l-0,1.375c-2.55,0.115 -4.47,0.62 -4.47,1.225c-0,0.605 1.92,1.11 4.47,1.23l-0,4.395l2.27,-0l-0,-4.395c2.545,-0.12 4.46,-0.625 4.46,-1.23c-0,-0.605 -1.915,-1.11 -4.46,-1.225Z" style="fill:rgb(80,175,149);fill-rule:nonzero;"/></g></g></svg>