<svg width="24" height="24" viewBox="0 0 24 24" fill="none" xmlns="http://www.w3.org/2000/svg">
<path d="M12 0C15.1826 0 18.2348 1.26429 20.4853 3.51472C22.7357 5.76516 24 8.8174 24 12C24 15.1826 22.7357 18.2348 20.4853 20.4853C18.2348 22.7357 15.1826 24 12 24C8.8174 24 5.76516 22.7357 3.51472 20.4853C1.26429 18.2348 0 15.1826 0 12C0 8.8174 1.26429 5.76516 3.51472 3.51472C5.76516 1.26429 8.8174 0 12 0Z" fill="#5492F6"/>
<path d="M19.141 16.7001C19.3191 16.6497 19.4962 16.5954 19.6803 16.5694C19.7328 16.562 19.7869 16.5499 19.824 16.5991C19.8671 16.6552 19.8265 16.7038 19.7994 16.7508C19.4453 17.3654 19.0205 17.9365 18.5336 18.4522C17.8639 19.1639 17.0826 19.7616 16.2205 20.2217C16.0455 20.3151 15.8553 20.3769 15.6588 20.4043C15.6409 20.4068 15.6186 20.3996 15.6088 20.4238H15.5112C15.4961 20.4162 15.4794 20.4122 15.4624 20.4122C15.4455 20.4122 15.4287 20.4162 15.4136 20.4238H15.2965C15.2572 20.4108 15.216 20.4042 15.1746 20.4043C14.9977 20.393 14.8661 20.3067 14.766 20.1651C14.6461 20.0089 14.6344 19.8332 14.6764 19.6481C14.7293 19.4138 14.8466 19.2141 14.9964 19.0313C15.3316 18.6223 15.7465 18.3066 16.1874 18.0227C16.6999 17.6968 17.2368 17.411 17.7934 17.1679C18.1798 16.997 18.5713 16.8404 18.9717 16.7055C19.0289 16.6872 19.0838 16.6737 19.141 16.7001Z" fill="#5492F6"/>
<path d="M12 3.51835C12.0017 3.51235 12.0017 3.50601 12 3.5H12.6834C12.6861 3.50588 12.6869 3.51246 12.6858 3.51884C12.6847 3.52523 12.6817 3.53112 12.6771 3.53573C12.6634 3.54994 12.6449 3.55845 12.6252 3.55955C12.4404 3.56902 12.2553 3.56902 12.0705 3.55955C12.056 3.5602 12.0417 3.55666 12.0292 3.54935C12.0167 3.54204 12.0065 3.53128 12 3.51835Z" fill="#142356"/>
<path d="M20.9995 12.1091V12.4605C20.994 12.4635 20.9877 12.4647 20.9815 12.4639C20.9753 12.4631 20.9695 12.4603 20.965 12.456C20.9417 12.402 20.9297 12.3437 20.9297 12.2849C20.9297 12.226 20.9417 12.1678 20.965 12.1137C20.9695 12.1094 20.9753 12.1066 20.9815 12.1057C20.9877 12.1049 20.994 12.1061 20.9995 12.1091V12.1091Z" fill="#2A4A7C"/>
<path d="M3 12.2263V11.9725C3.0054 11.9694 3.01161 11.9682 3.01775 11.969C3.02389 11.9697 3.02963 11.9724 3.03417 11.9766C3.05584 12.0139 3.06726 12.0562 3.06726 12.0994C3.06726 12.1425 3.05584 12.1849 3.03417 12.2222C3.02963 12.2264 3.02389 12.229 3.01775 12.2298C3.01161 12.2305 3.0054 12.2293 3 12.2263Z" fill="#2B4B7D"/>
<path d="M3 12.5936V12.3398C3.00537 12.3367 3.01161 12.3354 3.01777 12.3361C3.02393 12.3369 3.02968 12.3396 3.03417 12.3439C3.05584 12.3811 3.06726 12.4235 3.06726 12.4666C3.06726 12.5097 3.05584 12.552 3.03417 12.5893C3.0297 12.5936 3.02396 12.5964 3.0178 12.5971C3.01164 12.5979 3.00539 12.5967 3 12.5936V12.5936Z" fill="#2A4A7B"/>
<path d="M20.9983 12.1071L20.9831 12.1054C20.9227 12.038 20.9224 11.9998 20.9817 11.9297C20.9872 11.93 20.9928 11.93 20.9983 11.9297V12.1071Z" fill="#162741"/>
<path d="M20.9828 12.4625C20.9881 12.4625 20.9934 12.4613 20.9988 12.4609V12.6367C20.9933 12.6367 20.9877 12.6371 20.9822 12.6379C20.9225 12.5689 20.9225 12.5306 20.9828 12.4625Z" fill="#15263F"/>
<path d="M12.683 3.51621C12.683 3.51074 12.683 3.50547 12.6816 3.5H12.7988C12.7997 3.50517 12.8001 3.51039 12.8002 3.51562C12.7611 3.56092 12.7223 3.56053 12.683 3.51621Z" fill="#0A122E"/>
<path d="M3.0166 11.9673C3.01113 11.9684 3.00556 11.9688 3 11.9687V11.8516C3.00546 11.8519 3.01094 11.8519 3.0164 11.8516C3.05974 11.8894 3.05955 11.9283 3.0166 11.9673Z" fill="#15253E"/>
<path d="M3.01621 12.3453C3.0109 12.3439 3.00547 12.3431 3 12.3429V12.2258C3.00504 12.2252 3.01001 12.2242 3.01484 12.2227C3.06306 12.2631 3.06248 12.3039 3.01621 12.3453Z" fill="#3F6FB9"/>
<path d="M3 12.5939C3.00569 12.5935 3.01141 12.5939 3.01699 12.5951C3.06053 12.6341 3.06092 12.6732 3.01699 12.7122C3.01152 12.7122 3.00605 12.7122 3.00059 12.7122L3 12.5939Z" fill="#15253E"/>
<path d="M15.416 20.426C15.4291 20.4133 15.4466 20.4062 15.4648 20.4062C15.483 20.4062 15.5005 20.4133 15.5136 20.426H15.416Z" fill="#3F6FB9"/>
<path d="M20.9832 12.458V12.6337C20.9447 13.6113 20.7482 14.5762 20.4013 15.491C20.3559 15.6107 20.2705 15.6714 20.1671 15.7212C19.9734 15.8149 19.7629 15.835 19.5526 15.8529C19.5052 15.8953 19.4476 15.8977 19.3878 15.899C19.0421 15.907 18.7004 15.8666 18.3601 15.8127C17.4108 15.662 16.4857 15.4121 15.5661 15.1378C14.9862 14.965 14.4126 14.7736 13.8399 14.5796C13.4182 14.4366 13.0004 14.2844 12.5824 14.1285C12.5377 14.1118 12.4992 14.0918 12.4865 14.0415C11.4835 13.6553 10.5249 13.1836 9.64823 12.5576C9.12692 12.1851 8.65521 11.76 8.3022 11.2182C8.00621 10.7641 7.83362 10.2717 7.86251 9.72148C7.88047 9.38194 7.98259 9.06604 8.1421 8.76751C8.1382 8.70281 8.15577 8.63864 8.19209 8.58495C8.31168 8.39538 8.44854 8.21728 8.60093 8.05291C9.13415 7.46542 9.78041 7.02944 10.4698 6.65105C11.4552 6.11022 12.5004 5.72168 13.5809 5.42101C14.1472 5.26258 14.7235 5.14217 15.3058 5.06058C15.6403 5.01411 15.9769 4.97936 16.3153 4.99674C16.6667 5.0147 17.0142 5.05648 17.3501 5.16465C17.4781 5.20565 17.5861 5.28512 17.6999 5.35365C18.1898 5.70118 18.5906 6.14068 18.9675 6.60185C19.9061 7.75028 20.5217 9.05237 20.8145 10.5081C20.9087 10.9766 20.9648 11.452 20.9822 11.9295C20.9822 11.9881 20.9822 12.0466 20.9836 12.1052L20.9832 12.458Z" fill="white"/>
<path d="M3.01699 12.7134V12.5963C3.01699 12.5122 3.01699 12.428 3.01699 12.3438C3.01699 12.3031 3.01654 12.2622 3.01562 12.2212L3.01738 11.9691V11.852C3.06038 10.9348 3.2439 10.0295 3.56153 9.16797C3.6861 9.32534 3.79953 9.47411 3.91863 9.61703C4.35813 10.1479 4.80719 10.6714 5.23849 11.2087C5.94371 12.0873 6.53609 13.044 7.12417 14.0022C7.57011 14.7291 7.94732 15.4894 8.21949 16.3001C8.46822 17.0342 8.58 17.8078 8.54926 18.5823C8.52974 19.0825 8.52095 19.5829 8.46628 20.0808C8.4575 20.1614 8.4409 20.2411 8.42997 20.3215C8.42157 20.3828 8.38896 20.401 8.32902 20.3959C8.16092 20.3811 8.0055 20.3249 7.85653 20.2518C7.13569 19.8988 6.49138 19.434 5.90408 18.8896C4.50808 17.5933 3.60709 16.0137 3.20111 14.1506C3.10017 13.6775 3.03859 13.1968 3.01699 12.7134V12.7134Z" fill="white"/>
<path d="M12.4838 14.0469C14.0772 14.6396 15.6858 15.1848 17.3434 15.5719C17.9487 15.7131 18.5573 15.8281 19.1787 15.857C19.3019 15.8627 19.4255 15.8582 19.5497 15.8584C19.4338 16.1267 19.3026 16.3883 19.1569 16.6417C19.1461 16.66 19.125 16.677 19.141 16.7028C18.1603 17.0222 17.2253 17.4418 16.3457 17.9815C15.9121 18.2476 15.4987 18.5414 15.1547 18.92C14.9333 19.1631 14.7461 19.4263 14.7057 19.7672C14.6891 19.9064 14.731 20.0298 14.7927 20.1498C14.4733 20.2621 14.1535 20.3736 13.8142 20.4123C13.3797 20.3802 13.0101 20.185 12.6665 19.9388C11.7906 19.3117 11.1631 18.494 10.8037 17.4746C10.5128 16.6491 10.667 15.9017 11.1871 15.216C11.5214 14.7759 11.941 14.4288 12.3938 14.1181C12.4244 14.0965 12.4623 14.0818 12.4838 14.0469Z" fill="#2845AD"/>
<path d="M17.7003 5.356C17.4551 5.25116 17.206 5.16076 16.9414 5.11468C16.4533 5.02799 15.9652 5.02623 15.4759 5.08871C14.0663 5.26892 12.7183 5.66918 11.4189 6.23754C10.6299 6.58253 9.87942 6.99665 9.20855 7.54236C8.8206 7.85807 8.47326 8.21166 8.2128 8.64374C8.18781 8.68513 8.16497 8.72769 8.14115 8.76986C8.12358 8.7273 8.08258 8.71129 8.04841 8.68728C7.60774 8.37137 7.20436 8.01973 6.93844 7.53533C6.92712 7.51463 6.91384 7.49628 6.88709 7.49804C6.88143 7.43009 6.94156 7.42385 6.981 7.40393C7.27641 7.25398 7.57455 7.11106 7.85707 6.93534C8.20011 6.72409 8.5291 6.49506 8.83193 6.22699C9.0552 6.03314 9.25107 5.80981 9.41415 5.56316C9.52547 5.39049 9.5982 5.19582 9.62736 4.99246C9.6705 4.70525 9.52309 4.46744 9.24878 4.36455C9.18146 4.34076 9.11297 4.32043 9.04357 4.30363C9.00452 4.29348 8.96684 4.28411 8.95473 4.23901C9.51782 3.97953 10.1067 3.79893 10.7131 3.67475C11.1369 3.5878 11.567 3.5353 11.9992 3.51777L12.6849 3.51562H12.802C14.218 3.58591 15.5384 3.97601 16.7593 4.69842C17.0702 4.88194 17.3684 5.08604 17.6521 5.30934C17.6685 5.3232 17.6832 5.34039 17.7003 5.356Z" fill="#2845AD"/>
<path d="M8.95405 4.23972C9.05646 4.2577 9.15726 4.28382 9.25551 4.31782C9.57513 4.43887 9.7241 4.69992 9.66552 5.03574C9.60832 5.36336 9.44724 5.63729 9.23228 5.88505C8.78868 6.3962 8.23887 6.76912 7.65782 7.10221C7.40713 7.24591 7.14706 7.37204 6.88641 7.49622C6.1556 7.8293 5.40606 8.10772 4.61727 8.26997C4.41695 8.31117 4.21545 8.34358 4.00889 8.3264C3.93977 8.32054 3.92825 8.3018 3.96066 8.23854C4.75492 6.692 5.89027 5.46215 7.38057 4.56578C7.84486 4.28658 8.35504 4.18271 8.89567 4.23621C8.915 4.23875 8.93453 4.23875 8.95405 4.23972Z" fill="white"/>
</svg>
