<svg width="24" height="24" viewBox="0 0 24 24" fill="none" xmlns="http://www.w3.org/2000/svg">
<circle cx="12" cy="12" r="12" fill="#1FB6FB"/>
<circle cx="12" cy="12" r="12" fill="url(#paint0_linear)"/>
<g clip-path="url(#clip0)">
<path d="M10.8782 19.9068L4.03517 5.90693C3.92398 5.68355 4.09117 5.41919 4.33757 5.41919H6.70872C6.83592 5.41919 6.95512 5.49151 7.01111 5.6032L12.0086 15.7598C12.4542 16.671 13.743 16.671 14.1886 15.7598L19.1701 5.61123C19.2261 5.49954 19.3453 5.42722 19.4725 5.42722H19.7669C19.9421 5.42722 20.0533 5.61123 19.9741 5.7631L13.059 19.9068C12.6134 20.8172 11.3238 20.8172 10.8782 19.9068Z" fill="white"/>
<path opacity="0.1" d="M10.8782 19.9068L7.01104 5.61125C6.95505 5.49153 6.82785 5.42725 6.72465 5.42725H4.3455C4.0831 5.42725 3.93191 5.6908 4.0351 5.91499L10.8782 19.9068Z" fill="url(#paint1_linear)"/>
<path opacity="0.1" d="M12.0086 15.767L4.03514 5.90693C3.93995 5.67551 4.08314 5.4433 4.30554 5.41919H6.71669C6.85189 5.42722 6.95509 5.51481 7.00308 5.6032L12.0086 15.767Z" fill="url(#paint2_linear)"/>
</g>
<defs>
<linearGradient id="paint0_linear" x1="12" y1="0" x2="12" y2="24" gradientUnits="userSpaceOnUse">
<stop stop-color="#9683D7"/>
<stop offset="1" stop-color="#28AEF7"/>
</linearGradient>
<linearGradient id="paint1_linear" x1="7.44028" y1="5.42725" x2="7.44028" y2="19.9068" gradientUnits="userSpaceOnUse">
<stop stop-color="white"/>
<stop offset="1" stop-color="white" stop-opacity="0"/>
</linearGradient>
<linearGradient id="paint2_linear" x1="8.0069" y1="5.41919" x2="8.0069" y2="15.767" gradientUnits="userSpaceOnUse">
<stop stop-color="white"/>
<stop offset="1" stop-color="white" stop-opacity="0"/>
</linearGradient>
<clipPath id="clip0">
<rect width="16" height="15.1704" fill="white" transform="translate(4 5.41919)"/>
</clipPath>
</defs>
</svg>
