<?xml version="1.0" encoding="UTF-8" standalone="no"?><!DOCTYPE svg PUBLIC "-//W3C//DTD SVG 1.1//EN" "http://www.w3.org/Graphics/SVG/1.1/DTD/svg11.dtd"><svg width="25px" height="25px" version="1.1" xmlns="http://www.w3.org/2000/svg" xmlns:xlink="http://www.w3.org/1999/xlink" xml:space="preserve" xmlns:serif="http://www.serif.com/" style="fill-rule:evenodd;clip-rule:evenodd;stroke-linejoin:round;stroke-miterlimit:2;"><g id="Layer_2"><g id="Layer_1-2"><circle cx="12.485" cy="12.371" r="12" style="fill:rgb(40,33,56);"/><g id="Layer_2-2"><g id="Layer_1-2-2"><g id="Page-1"><g id="wbtc_colour"><path id="Shape" d="M17.625,7.691l-0.425,0.425c2.104,2.285 2.104,5.845 -0,8.13l0.425,0.425c2.333,-2.528 2.333,-6.472 -0,-9l-0,0.02Z" style="fill:rgb(90,85,100);fill-rule:nonzero;"/><path id="Shape-2" d="M8.675,7.726c2.285,-2.104 5.845,-2.104 8.13,0l0.425,-0.425c-2.526,-2.338 -6.474,-2.338 -9,0l0.445,0.425Z" style="fill:rgb(90,85,100);fill-rule:nonzero;"/><path id="Shape-3" d="M8.275,16.251c-2.105,-2.285 -2.105,-5.845 -0,-8.13l-0.425,-0.425c-2.335,2.527 -2.335,6.473 -0,9l0.425,-0.445Z" style="fill:rgb(90,85,100);fill-rule:nonzero;"/><path id="Shape-4" d="M16.8,16.641c-2.285,2.105 -5.845,2.105 -8.13,0l-0.43,0.43c2.529,2.331 6.471,2.331 9,0l-0.44,-0.43Z" style="fill:rgb(90,85,100);fill-rule:nonzero;"/><path id="Shape-5" d="M15.42,10.766c-0.085,-0.89 -0.85,-1.185 -1.82,-1.275l-0,-1.225l-0.745,0l-0,1.2l-0.6,0l-0,-1.2l-0.745,0l-0,1.23l-1.525,0l-0,0.805c-0,0 0.555,0 0.545,0c0.205,-0.026 0.397,0.12 0.425,0.325l-0,3.375c-0.004,0.07 -0.036,0.135 -0.09,0.18c-0.051,0.049 -0.12,0.072 -0.19,0.065c-0.07,-0.007 -0.545,0 -0.545,0l-0.145,0.895l1.5,0l-0,1.255l0.75,0l-0,-1.235l0.6,0l-0,1.21l0.75,0l-0,-1.22c1.265,-0.075 2.15,-0.39 2.26,-1.575c0.021,-0.092 0.031,-0.187 0.031,-0.282c0,-0.637 -0.475,-1.181 -1.106,-1.268c0.479,-0.22 0.748,-0.742 0.65,-1.26Zm-1.05,2.665c-0,0.93 -1.59,0.825 -2.1,0.825l-0,-1.655c0.51,0.005 2.1,-0.145 2.1,0.83Zm-0.345,-2.325c-0,0.85 -1.33,0.745 -1.755,0.745l-0,-1.48c0.425,0 1.755,-0.155 1.755,0.735Z" style="fill:rgb(240,146,66);fill-rule:nonzero;"/><path id="Shape-6" d="M12.735,19.936c-4.252,0 -7.75,-3.498 -7.75,-7.75c-0,-4.251 3.498,-7.75 7.75,-7.75c4.251,0 7.75,3.499 7.75,7.75c-0,4.252 -3.499,7.75 -7.75,7.75Zm-0,-14.895c-3.915,0.003 -7.135,3.225 -7.135,7.14c-0,3.917 3.223,7.14 7.14,7.14c3.915,0 7.137,-3.22 7.14,-7.135c-0,-0.003 -0,-0.007 -0,-0.01c-0,-3.914 -3.221,-7.135 -7.135,-7.135c-0.003,0 -0.007,0 -0.01,0Z" style="fill:white;fill-rule:nonzero;"/></g></g></g></g></g></g></svg>