<?xml version="1.0" encoding="UTF-8" standalone="no"?><!DOCTYPE svg PUBLIC "-//W3C//DTD SVG 1.1//EN" "http://www.w3.org/Graphics/SVG/1.1/DTD/svg11.dtd"><svg width="25px" height="25px" version="1.1" xmlns="http://www.w3.org/2000/svg" xmlns:xlink="http://www.w3.org/1999/xlink" xml:space="preserve" xmlns:serif="http://www.serif.com/" style="fill-rule:evenodd;clip-rule:evenodd;stroke-linejoin:round;stroke-miterlimit:2;"><g id="Layer_2"><g id="Layer_1-2"><circle cx="12.421" cy="12.091" r="12" style="fill:rgb(36,75,129);"/><circle cx="12.671" cy="12.341" r="4.25" style="fill:white;"/><g id="Shape_1"><path d="M19.921,11.386c-1.7,-9.835 -14.545,-7.93 -14.775,0c0.74,0.385 1.21,0.62 1.21,0.62c0,0 -0.395,0.235 -1.215,0.76c1.5,9.645 14.105,8.245 14.78,0c-0.805,-0.5 -1.245,-0.755 -1.245,-0.755c0,0 0.38,-0.185 1.245,-0.625Zm-6.32,3.44l-1.18,-2.075l-1.23,2.075l-0.925,-0.065l1.745,-2.94l-1.59,-2.535l0.945,-0.085l1.115,1.89l1.12,-1.795l0.88,0l-1.46,2.5l1.61,3l-1.03,0.03Z" style="fill:rgb(183,181,177);fill-rule:nonzero;"/></g><g id="Shape_1-2"><path d="M19.321,11.001c-2.3,-8.74 -12.855,-6.375 -13.575,0c1.465,0.825 1.795,1 1.795,1l-1.8,1.145c1.57,8.405 12.955,6.79 13.58,0l-1.83,-1.14c0,0 1.55,-0.855 1.83,-1.005Zm-5.72,3.83l-1.18,-2.075l-1.25,2.075l-0.93,-0.065l1.745,-2.94l-1.565,-2.535l0.945,-0.085l1.115,1.885l1.12,-1.8l0.88,0.025l-1.46,2.5l1.61,3l-1.03,0.015Z" style="fill:rgb(36,75,129);fill-rule:nonzero;"/></g></g></g></svg>