<?xml version="1.0" encoding="UTF-8" standalone="no"?><!DOCTYPE svg PUBLIC "-//W3C//DTD SVG 1.1//EN" "http://www.w3.org/Graphics/SVG/1.1/DTD/svg11.dtd"><svg width="25px" height="25px" version="1.1" xmlns="http://www.w3.org/2000/svg" xmlns:xlink="http://www.w3.org/1999/xlink" xml:space="preserve" xmlns:serif="http://www.serif.com/" style="fill-rule:evenodd;clip-rule:evenodd;stroke-linejoin:round;stroke-miterlimit:2;"><g id="Layer_2"><g id="Layer_1-2"><circle cx="12.836" cy="12.424" r="12" style="fill:rgb(7,10,14);"/><path d="M13.086,18.924l-0.075,-0.035c-2.842,-1.665 -4.916,-4.384 -5.77,-7.565c-0.139,-0.51 -0.242,-1.03 -0.31,-1.555c-0.065,-0.527 -0.096,-1.058 -0.095,-1.59c-0,-0.09 -0,-0.08 0.07,-0.12c1.045,-0.596 2.172,-1.037 3.345,-1.31c0.434,-0.101 0.872,-0.179 1.315,-0.235c0.603,-0.072 1.212,-0.102 1.82,-0.09c0.334,0.005 0.667,0.027 1,0.065c1.697,0.181 3.341,0.705 4.83,1.54l0.065,0.035c0.023,0.011 0.037,0.035 0.035,0.06l-0,0.09c-0,0.31 -0,0.615 -0.04,0.925c-0.035,0.442 -0.095,0.881 -0.18,1.315c-0.177,0.934 -0.462,1.843 -0.85,2.71c-1.059,2.375 -2.827,4.364 -5.06,5.695l-0.1,0.065Zm-5.69,-10.44l-0,0.07c0,0.438 0.029,0.876 0.085,1.31c0.046,0.394 0.114,0.785 0.205,1.17c0.015,0.069 0.037,0.136 0.065,0.2c0.435,0.936 1.378,1.538 2.411,1.538c1.185,-0 2.234,-0.793 2.559,-1.933c0.067,-0.256 0.106,-0.52 0.115,-0.785c0.006,-0.167 0.025,-0.334 0.055,-0.5c0.193,-1.044 0.904,-1.922 1.885,-2.33l0.17,-0.065c-0.531,-0.108 -1.069,-0.175 -1.61,-0.2c-2.078,-0.043 -4.127,0.485 -5.925,1.525l-0.015,0Zm8.815,7.16c0.023,-0.016 0.044,-0.036 0.06,-0.06c0.24,-0.3 0.465,-0.612 0.675,-0.935c0.745,-1.147 1.276,-2.422 1.565,-3.76c0.102,-0.456 0.172,-0.919 0.21,-1.385c0.03,-0.315 0.04,-0.635 0.04,-0.955c0.002,-0.021 0.002,-0.043 -0,-0.065l-0.095,-0.06c-0.245,-0.14 -0.5,-0.27 -0.745,-0.39c-0.369,-0.172 -0.746,-0.324 -1.13,-0.455c-0.464,-0.147 -0.959,-0.162 -1.43,-0.045c-1.185,0.29 -2.025,1.36 -2.025,2.579c-0,0.918 0.475,1.773 1.255,2.256l0.13,0.085c0.473,0.29 0.859,0.703 1.115,1.195c0.286,0.508 0.418,1.089 0.38,1.67c0.007,0.109 0.007,0.217 -0,0.325l-0.005,0Zm-3.125,2.67l0.075,-0.045c0.751,-0.442 1.448,-0.969 2.08,-1.57c0.042,-0.034 0.075,-0.079 0.095,-0.13c0.043,-0.08 0.083,-0.16 0.12,-0.24c0.302,-0.599 0.363,-1.292 0.17,-1.935c-0.372,-1.239 -1.597,-2.036 -2.88,-1.875c-0.354,0.04 -0.695,0.154 -1,0.335c-0.578,0.33 -1.244,0.472 -1.905,0.405c-0.332,-0.032 -0.656,-0.116 -0.96,-0.25c-0.237,-0.106 -0.46,-0.241 -0.665,-0.4c-0.019,-0.015 -0.039,-0.028 -0.06,-0.04c-0.003,0.02 -0.003,0.04 -0,0.06c0.272,0.678 0.607,1.329 1,1.945c0.844,1.331 1.956,2.472 3.265,3.35c0.3,0.19 0.58,0.365 0.665,0.4l-0,-0.01Z" style="fill:white;fill-rule:nonzero;"/><path d="M7.396,8.484c0.757,-0.449 1.566,-0.805 2.41,-1.06c1.133,-0.347 2.314,-0.516 3.5,-0.5c0.55,0.008 1.098,0.062 1.64,0.16c0.541,0.099 -0,0 -0,0c-0,0 -0.115,0.04 -0.165,0.065c-0.982,0.409 -1.693,1.286 -1.89,2.33c-0.03,0.166 -0.048,0.333 -0.055,0.5c-0.001,0.265 -0.036,0.529 -0.105,0.785c-0.316,1.156 -1.374,1.964 -2.571,1.964c-1.046,-0 -1.999,-0.616 -2.429,-1.569c-0.031,-0.063 -0.053,-0.13 -0.065,-0.2c-0.19,-0.82 -0.285,-1.658 -0.285,-2.5c0.002,-0.025 0.002,-0.05 -0,-0.075l0.015,0.1Z" style="fill:rgb(247,168,0);fill-rule:nonzero;"/><path d="M16.211,15.644c-0,-0.115 0.025,-0.215 0.03,-0.325c0.033,-0.58 -0.097,-1.159 -0.375,-1.67c-0.262,-0.491 -0.653,-0.903 -1.13,-1.19l-0.135,-0.085c-0.644,-0.388 -1.086,-1.039 -1.21,-1.78c-0.027,-0.152 -0.041,-0.306 -0.041,-0.46c0,-1.459 1.201,-2.66 2.66,-2.66c0.268,0 0.535,0.041 0.791,0.12c0.386,0.127 0.763,0.279 1.13,0.455c0.26,0.12 0.5,0.25 0.75,0.39l0.09,0.055l-0,0.065c-0,0.315 -0,0.64 -0.045,0.955c-0.041,0.466 -0.109,0.928 -0.205,1.385c-0.289,1.339 -0.821,2.614 -1.57,3.76c-0.208,0.324 -0.433,0.636 -0.675,0.935c-0.021,0.019 -0.042,0.036 -0.065,0.05Z" style="fill:rgb(103,178,232);fill-rule:nonzero;"/><path d="M13.086,18.314c-0.229,-0.119 -0.449,-0.253 -0.66,-0.4c-0.652,-0.437 -1.257,-0.939 -1.805,-1.5c-0.55,-0.559 -1.038,-1.176 -1.455,-1.84c-0.399,-0.612 -0.734,-1.264 -1,-1.945c-0.002,-0.02 -0.002,-0.04 -0,-0.06l0.06,0.04c0.206,0.16 0.431,0.294 0.67,0.4c0.303,0.134 0.625,0.218 0.955,0.25c0.661,0.066 1.327,-0.076 1.905,-0.405c0.308,-0.176 0.648,-0.289 1,-0.335c1.284,-0.163 2.51,0.635 2.88,1.875c0.196,0.642 0.137,1.336 -0.165,1.935l-0.12,0.24c-0.023,0.049 -0.056,0.094 -0.095,0.13c-0.634,0.599 -1.331,1.126 -2.08,1.57l-0.085,0.045l-0.005,0Z" style="fill:rgb(0,196,179);fill-rule:nonzero;"/></g></g></svg>