<svg width="24" height="24" viewBox="0 0 24 24" fill="none" xmlns="http://www.w3.org/2000/svg">
<circle cx="12" cy="12" r="12" fill="black"/>
<path d="M17.7417 7.23346L15.8152 8.21068L6.5121 12.9283C6.48064 12.6894 6.46481 12.4488 6.46471 12.2078C6.46599 11.2466 6.71948 10.3023 7.20008 9.46864C7.68069 8.63494 8.37172 7.9407 9.20474 7.4547C10.0378 6.96869 10.9839 6.70779 11.9493 6.69783C12.9148 6.68787 13.8661 6.9292 14.7091 7.39791L15.8118 6.83853L15.9763 6.75496C14.9661 6.02501 13.7729 5.58733 12.5285 5.4903C11.2841 5.39328 10.037 5.64068 8.92504 6.20517C7.81305 6.76966 6.87947 7.62926 6.2275 8.68895C5.57552 9.74865 5.23054 10.9672 5.23067 12.2099C5.23067 12.3815 5.23721 12.5525 5.2503 12.7227C5.26863 12.9639 5.21491 13.205 5.0959 13.4159C4.97689 13.6267 4.79792 13.7977 4.58149 13.9075L4 14.2027V15.5796L5.71196 14.7109L6.26637 14.4292L6.81266 14.1522L16.6201 9.17712L17.7221 8.61842L20 7.4626V6.08641L17.7417 7.23346Z" fill="white"/>
<path d="M20 8.84033L7.36977 15.2429L6.26773 15.803L4 16.9534V18.329L6.25216 17.1866L8.17871 16.2094L17.4913 11.4849C17.5228 11.7254 17.5386 11.9676 17.5387 12.2101C17.5381 13.1725 17.2847 14.118 16.8036 14.9527C16.3225 15.7875 15.6305 16.4824 14.7963 16.9686C13.9621 17.4547 13.0146 17.7152 12.048 17.7241C11.0814 17.7331 10.1293 17.4901 9.28617 17.0195L9.21848 17.0552L8.02302 17.6618C9.03295 18.3918 10.2259 18.8296 11.4701 18.9268C12.7143 19.0241 13.9613 18.777 15.0733 18.2129C16.1853 17.6488 17.119 16.7896 17.7713 15.7302C18.4235 14.6709 18.7689 13.4527 18.7693 12.2101C18.7693 12.0369 18.7626 11.8637 18.7497 11.6925C18.7314 11.4515 18.7851 11.2104 18.9039 10.9996C19.0228 10.7888 19.2016 10.6177 19.4178 10.5077L20 10.2125V8.84033Z" fill="white"/>
</svg>
