<svg width="24" height="24" viewBox="0 0 24 24" fill="none" xmlns="http://www.w3.org/2000/svg">
<circle cx="12" cy="12" r="12" fill="#F26822"/>
<g clip-path="url(#clip0)">
<path d="M19.9986 11.9992C19.9986 16.4169 16.4177 19.9984 11.9997 19.9984C7.58167 19.9984 4.00071 16.4169 4.00071 11.9992C4.00071 7.58151 7.58175 4 11.9997 4C16.4176 4 19.9986 7.58117 19.9986 11.9992Z" fill="#F26822"/>
<path d="M12.0002 4C7.58377 4 3.99645 7.58658 4.00207 11.999C4.00318 12.8817 4.14395 13.7309 4.40815 14.5252H6.80138V7.7961L12.0002 12.9949L17.1988 7.7961V14.5254H19.5925C19.8571 13.7311 19.9972 12.8819 19.9987 11.9991C20.0063 7.58211 16.4171 4.00106 12.0002 4.00106V4Z" fill="white"/>
<path d="M10.804 14.19L8.53525 11.9211V16.1554H6.80066L5.16386 16.1557C6.56785 18.4591 9.10518 19.9999 11.9996 19.9999C14.894 19.9999 17.4315 18.4587 18.8357 16.1554H15.4635V11.9211L13.1945 14.19L11.9994 15.3852L10.8041 14.19H10.804Z" fill="white"/>
</g>
<defs>
<clipPath id="clip0">
<rect width="15.9983" height="16" fill="white" transform="translate(4.00049 4)"/>
</clipPath>
</defs>
</svg>
