<svg width="24" height="24" viewBox="0 0 24 24" fill="none" xmlns="http://www.w3.org/2000/svg">
<circle cx="12" cy="12" r="12" fill="#00A9E4"/>
<path d="M15.8728 13.5437C15.3896 13.2579 14.8455 13.1751 14.3065 13.1558C13.8543 13.1396 13.1796 12.8428 13.1796 12C13.1796 11.3722 13.6765 10.8669 14.3067 10.8443C14.8456 10.825 15.3897 10.7421 15.8728 10.4564C16.3067 10.1997 16.667 9.8306 16.9175 9.38609C17.1681 8.94157 17.3 8.43733 17.3 7.92404C17.2999 7.41076 17.1681 6.90652 16.9175 6.462C16.667 6.01749 16.3067 5.64836 15.8728 5.39173C15.4388 5.13509 14.9466 4.99999 14.4456 5C13.9445 5.00001 13.4523 5.13513 13.0184 5.39179C12.5845 5.64844 12.2242 6.01758 11.9737 6.4621C11.7232 6.90663 11.5913 7.41087 11.5913 7.92416C11.5913 8.49069 11.788 9.01204 12.039 9.49559C12.2501 9.90228 12.3569 10.6571 11.6329 11.0853C11.0944 11.4038 10.4223 11.2021 10.0866 10.6517C9.80299 10.1868 9.46067 9.75124 8.98141 9.46773C8.5475 9.21109 8.05529 9.07598 7.55426 9.07597C7.05322 9.07597 6.56101 9.21108 6.12711 9.46772C5.6932 9.72436 5.33287 10.0935 5.08236 10.538C4.83184 10.9825 4.69995 11.4867 4.69995 12C4.69995 12.5133 4.83184 13.0175 5.08236 13.462C5.33287 13.9066 5.6932 14.2757 6.12711 14.5323C6.56101 14.789 7.05322 14.9241 7.55426 14.9241C8.05529 14.9241 8.5475 14.789 8.98141 14.5323C9.46054 14.2489 9.80288 13.8136 10.0863 13.349C10.319 12.9675 10.9002 12.4812 11.6329 12.9149C12.1706 13.2331 12.3368 13.9305 12.0387 14.5048C11.7878 14.9883 11.5914 15.5096 11.5914 16.076C11.5914 16.5893 11.7232 17.0935 11.9738 17.538C12.2243 17.9825 12.5846 18.3516 13.0185 18.6083C13.4524 18.8649 13.9446 19 14.4456 19C14.9467 19 15.4389 18.8649 15.8728 18.6083C16.3067 18.3516 16.667 17.9825 16.9175 17.538C17.168 17.0935 17.2999 16.5893 17.2999 16.076C17.2999 15.5627 17.168 15.0585 16.9175 14.614C16.667 14.1695 16.3067 13.8003 15.8728 13.5437Z" fill="white"/>
</svg>
