<svg width="24" height="24" viewBox="0 0 24 24" fill="none" xmlns="http://www.w3.org/2000/svg">
<circle cx="12" cy="12" r="12" fill="#2C7DF7"/>
<g clip-path="url(#clip0)">
<path d="M13.7149 19.9999C12.5732 19.9999 11.7398 19.7249 11.2148 19.1749C10.7285 18.7093 10.4463 18.0702 10.4299 17.3971C10.424 17.1927 10.4714 16.9902 10.5674 16.8096C10.657 16.6535 10.7864 16.524 10.9424 16.4343C11.1237 16.3439 11.3235 16.2968 11.5261 16.2968C11.7287 16.2968 11.9286 16.3439 12.1099 16.4343C12.2656 16.5237 12.3944 16.6533 12.4827 16.8096C12.5815 16.9893 12.6307 17.1921 12.6251 17.3971C12.6353 17.642 12.5651 17.8835 12.4251 18.0846C12.3085 18.2489 12.1418 18.3709 11.95 18.4324C12.1375 18.6712 12.4029 18.8366 12.6999 18.8999C13.0322 18.9964 13.3764 19.046 13.7224 19.0473C14.1805 19.0513 14.6292 18.9172 15.0099 18.6624C15.4049 18.3833 15.6995 17.9845 15.8499 17.5249C16.0407 16.9779 16.1338 16.4017 16.1249 15.8225C16.1403 15.2186 16.0384 14.6175 15.8249 14.0524C15.6643 13.6005 15.3595 13.2139 14.9574 12.9524C14.5837 12.7159 14.1499 12.5919 13.7077 12.595C13.3223 12.6276 12.9507 12.7537 12.6251 12.9625L11.8224 13.3649V12.9625L15.4299 8.12301H10.4299V13.145C10.4158 13.5074 10.5117 13.8656 10.7049 14.1724C10.7984 14.3062 10.9249 14.4135 11.072 14.484C11.2192 14.5545 11.3821 14.5858 11.5449 14.5749C11.8457 14.5688 12.1366 14.4663 12.3748 14.2824C12.6448 14.0846 12.8797 13.8429 13.0699 13.5674C13.087 13.5191 13.1185 13.4772 13.1603 13.4475C13.1937 13.4185 13.2365 13.4026 13.2808 13.4025C13.3676 13.4104 13.4498 13.4454 13.5158 13.5024C13.5994 13.5958 13.6448 13.7171 13.6433 13.8424C13.6336 13.9266 13.6186 14.0101 13.5983 14.0924C13.4207 14.5223 13.1229 14.8919 12.7407 15.157C12.3857 15.3973 11.9665 15.5246 11.5379 15.5224C10.4553 15.5224 9.70538 15.3091 9.28802 14.8824C9.07349 14.6466 8.90816 14.3704 8.8017 14.0699C8.69524 13.7694 8.64979 13.4507 8.668 13.1324V8.12301H6.12488V7.18994H8.67986V5.06244L8.0949 4.47708V4H9.79232L10.4299 4.33004V7.18994L17.0348 7.16985L17.6924 7.82983L13.6424 11.8995C13.887 11.8011 14.1447 11.7388 14.4073 11.7145C14.9271 11.7373 15.4341 11.882 15.8876 12.1371C16.4127 12.3866 16.8552 12.7815 17.1627 13.2749C17.4382 13.6926 17.6332 14.1581 17.7377 14.6474C17.8236 15.0334 17.8697 15.4272 17.8752 15.8226C17.8779 16.5771 17.7068 17.3222 17.3752 18C17.0607 18.6563 16.5315 19.1856 15.8751 19.5C15.2033 19.8311 14.4639 20.0022 13.7149 19.9999Z" fill="white"/>
</g>
<defs>
<clipPath id="clip0">
<rect width="11.7501" height="16" fill="white" transform="translate(6.12488 4)"/>
</clipPath>
</defs>
</svg>
