<?xml version="1.0" encoding="UTF-8" standalone="no"?><!DOCTYPE svg PUBLIC "-//W3C//DTD SVG 1.1//EN" "http://www.w3.org/Graphics/SVG/1.1/DTD/svg11.dtd"><svg width="25px" height="25px" version="1.1" xmlns="http://www.w3.org/2000/svg" xmlns:xlink="http://www.w3.org/1999/xlink" xml:space="preserve" xmlns:serif="http://www.serif.com/" style="fill-rule:evenodd;clip-rule:evenodd;stroke-linejoin:round;stroke-miterlimit:2;"><g id="Layer_2"><g id="Layer_1-2"><g id="Layer_2-2"><g id="Layer_1-2-2"><path id="SVGID" d="M12.941,0.888c6.583,0 12,5.417 12,12c0,6.583 -5.417,12 -12,12c-6.583,0 -12,-5.417 -12,-12c0,-6.583 5.417,-12 12,-12Z" style="fill:rgb(0,106,227);fill-rule:nonzero;"/><rect id="SVGID-2" x="12.446" y="7.963" width="1.09" height="9.985" style="fill:white;fill-rule:nonzero;"/><path id="SVGID-3" d="M17.981,11.288l-3.36,0.89l-0.745,-3.5l1,-0.225l0.395,1.655c0.527,-0.974 0.408,-2.177 -0.3,-3.03c-0.438,-0.582 -1.121,-0.933 -1.85,-0.95c-1.331,-0.165 -2.578,0.743 -2.83,2.06c-0.21,1.225 0.025,2.135 1.61,3.325l-0.09,1.325c0,0 -1.77,-1.245 -2.225,-2.115c-0.7,-1.239 -0.648,-2.771 0.135,-3.96c0.585,-0.95 1.745,-1.86 3.79,-1.765c1.819,0.239 3.193,1.805 3.193,3.639c0,0.198 -0.016,0.396 -0.048,0.591c-0.073,0.438 -0.192,0.867 -0.355,1.28l1.38,-0.305l0.3,1.085Z" style="fill:white;fill-rule:nonzero;"/><path id="SVGID-4" d="M16.061,19.103c-0.61,0.93 -1.795,1.815 -3.835,1.665c-1.775,-0.286 -3.093,-1.834 -3.093,-3.633c-0,-0.228 0.021,-0.457 0.063,-0.682c0.085,-0.435 0.214,-0.86 0.385,-1.27l-1.385,0.27l-0.255,-1.065l3.38,-0.805l0.66,3.5l-1,0.2l-0.355,-1.665c-0.55,0.963 -0.461,2.169 0.225,3.04c0.422,0.597 1.096,0.966 1.825,1c1.32,0.2 2.585,-0.667 2.875,-1.97c0.24,-1.22 0.03,-2.135 -1.5,-3.37l0.125,-1.325c0,0 1.735,1.295 2.165,2.18c0.664,1.258 0.571,2.787 -0.24,3.955l-0.04,-0.025Z" style="fill:white;fill-rule:nonzero;"/></g></g></g></g></svg>