<?xml version="1.0" encoding="UTF-8" standalone="no"?><!DOCTYPE svg PUBLIC "-//W3C//DTD SVG 1.1//EN" "http://www.w3.org/Graphics/SVG/1.1/DTD/svg11.dtd"><svg width="25px" height="25px" version="1.1" xmlns="http://www.w3.org/2000/svg" xmlns:xlink="http://www.w3.org/1999/xlink" xml:space="preserve" xmlns:serif="http://www.serif.com/" style="fill-rule:evenodd;clip-rule:evenodd;stroke-linejoin:round;stroke-miterlimit:2;"><g id="Layer_2"><g id="Layer_1-2"><g id="Layer_2-2"><g id="Layer_1-2-2"><path d="M12.367,22.486c-5.448,0 -9.93,-4.482 -9.93,-9.93c-0,-5.447 4.482,-9.93 9.93,-9.93c5.447,0 9.93,4.483 9.93,9.93c-0.011,5.444 -4.487,9.919 -9.93,9.93Z" style="fill:url(#_Linear1);fill-rule:nonzero;"/><path d="M12.242,24.431c-6.583,0 -12,-5.417 -12,-12c-0,-6.583 5.417,-12 12,-12c6.583,0 12,5.417 12,12c-0.019,6.576 -5.425,11.981 -12,12Zm-0,-21.33c-5.119,0 -9.33,4.212 -9.33,9.33c-0,5.119 4.211,9.33 9.33,9.33c5.118,0 9.33,-4.211 9.33,-9.33c-0.017,-5.112 -4.218,-9.313 -9.33,-9.33Z" style="fill-rule:nonzero;"/><path d="M11.462,15.681l5.2,0l-0,2.6l-3.06,0l-0,2.2l-2.67,0l-0,-2.13l-3.19,0c-0.078,-0.843 -0.055,-1.692 0.07,-2.53c0.065,-0.4 0.53,-0.8 0.865,-1.2c1,-1.2 2,-2.4 3.07,-3.6c0.4,-0.465 0.795,-0.865 1.265,-1.4l-5,0l-0,-2.6l2.93,0l-0,-2.2l2.6,0l-0,2.11l3.2,0c0.079,0.843 0.057,1.693 -0.065,2.53c-0.07,0.4 -0.535,0.8 -0.87,1.2c-1,1.205 -2,2.405 -3.07,3.605c-0.41,0.48 -0.81,0.945 -1.275,1.415Z" style="fill-rule:nonzero;"/></g></g></g></g><defs><linearGradient id="_Linear1" x1="0" y1="0" x2="1" y2="0" gradientUnits="userSpaceOnUse" gradientTransform="matrix(13.8496,-13.8496,13.8496,13.8496,6.11685,17.8345)"><stop offset="0" style="stop-color:rgb(207,135,36);stop-opacity:1"/><stop offset="1" style="stop-color:rgb(253,206,88);stop-opacity:1"/></linearGradient></defs></svg>