<svg width="24" height="24" viewBox="0 0 24 24" fill="none" xmlns="http://www.w3.org/2000/svg">
<path d="M12 0C15.1826 0 18.2348 1.26429 20.4853 3.51472C22.7357 5.76516 24 8.8174 24 12C24 15.1826 22.7357 18.2348 20.4853 20.4853C18.2348 22.7357 15.1826 24 12 24C8.8174 24 5.76516 22.7357 3.51472 20.4853C1.26429 18.2348 0 15.1826 0 12C0 8.8174 1.26429 5.76516 3.51472 3.51472C5.76516 1.26429 8.8174 0 12 0Z" fill="#041742"/>
<path fill-rule="evenodd" clip-rule="evenodd" d="M11.3601 5.01138C11.2741 5.02017 11.1929 5.03394 11.1798 5.04193C11.1666 5.04992 11.0618 5.06424 10.947 5.07373C10.8322 5.08323 10.6922 5.10448 10.6358 5.12101C10.5795 5.13754 10.4828 5.16 10.4208 5.17091C10.2914 5.19372 10.0906 5.24371 10.0009 5.27547C9.96715 5.28748 9.89803 5.30958 9.84734 5.32466C9.67525 5.37576 9.55057 5.41922 9.46711 5.45705C9.42129 5.47785 9.37592 5.49484 9.3663 5.49484C9.31643 5.49484 8.52735 5.88087 8.36248 5.98593C8.03003 6.19772 7.93735 6.26098 7.73367 6.41493C7.23205 6.79418 6.55393 7.48158 6.28942 7.87907C6.27565 7.89977 6.23197 7.96187 6.19234 8.01714C6.15276 8.07241 6.10151 8.14929 6.07852 8.18798C6.05558 8.22666 6.02092 8.28239 6.00151 8.31183C5.92809 8.42317 5.83782 8.58813 5.71734 8.83111C5.5433 9.18197 5.51033 9.25458 5.49379 9.32351C5.4858 9.35668 5.47131 9.39381 5.46153 9.40607C5.43117 9.4442 5.32339 9.76251 5.26497 9.98675C5.24766 10.0531 5.22099 10.139 5.20563 10.1777C5.19027 10.2164 5.16932 10.3068 5.15908 10.3787C5.1489 10.4505 5.12985 10.5363 5.11684 10.5693C5.10379 10.6024 5.08812 10.7064 5.08203 10.8005C5.07588 10.8946 5.05576 11.0213 5.03733 11.0821C4.98756 11.2458 4.98756 12.486 5.03733 12.6497C5.05576 12.7105 5.07588 12.8373 5.08203 12.9314C5.08812 13.0255 5.10379 13.1295 5.11684 13.1625C5.12985 13.1955 5.1489 13.2813 5.15908 13.3532C5.16932 13.425 5.19027 13.5155 5.20563 13.5542C5.22099 13.5928 5.24766 13.6788 5.26497 13.7451C5.32339 13.9693 5.43117 14.2876 5.46153 14.3258C5.47131 14.338 5.4858 14.3752 5.49379 14.4083C5.51033 14.4773 5.5433 14.5499 5.71734 14.9007C5.83782 15.1437 5.92809 15.3087 6.00151 15.42C6.02092 15.4494 6.05558 15.5052 6.07852 15.5439C6.1181 15.6104 6.24242 15.7903 6.28087 15.8365C6.29065 15.8483 6.30985 15.8784 6.32352 15.9036C6.35721 15.9653 6.47789 16.0125 6.56233 15.997C6.64799 15.9812 6.76652 15.8251 7.01075 15.4062C7.34623 14.8308 8.34257 13.8235 9.0599 13.3343C9.213 13.2299 9.42211 13.0919 9.42718 13.0919C9.42963 13.0919 9.51366 13.0427 9.61391 12.9825C9.86808 12.8299 10.6496 12.4488 10.7082 12.4488C10.7213 12.4488 10.7564 12.4363 10.7863 12.4211C10.8781 12.3743 11.1896 12.2664 11.3732 12.2178C11.4295 12.2029 11.5032 12.1815 11.537 12.1702C11.6584 12.1297 11.8464 12.0838 11.9671 12.0652C12.0347 12.0548 12.1315 12.0336 12.1821 12.0181C12.2328 12.0025 12.3434 11.9839 12.4279 11.9768C12.5124 11.9696 12.6322 11.9489 12.6942 11.9306C12.8636 11.8808 14.6351 11.8814 14.8037 11.9314C14.8656 11.9497 14.9762 11.97 15.0495 11.9765C15.1227 11.9829 15.2342 12.0024 15.2974 12.0198C15.5599 12.0921 15.6938 11.8688 15.6008 11.5142C15.5893 11.47 15.5716 11.3626 15.5615 11.2755C15.5515 11.1885 15.53 11.0754 15.5138 11.0243C15.4975 10.9732 15.464 10.8681 15.4392 10.7907C15.3196 10.4167 15.0825 9.97791 14.8563 9.71186C14.8217 9.67121 14.7704 9.60941 14.7422 9.57454C14.3539 9.09405 13.5117 8.57893 12.9297 8.46598C12.8734 8.45508 12.7812 8.43101 12.7249 8.41252C12.5734 8.36283 11.4726 8.36288 11.2912 8.41257C11.2236 8.43111 11.1269 8.45533 11.0762 8.46638C10.9713 8.48925 10.8347 8.53326 10.6563 8.60154C9.86674 8.90397 9.12109 9.5863 8.75822 10.3385C8.66708 10.5273 8.59801 10.6939 8.59801 10.7248C8.59801 10.741 8.58368 10.7826 8.56611 10.8171C8.54855 10.8516 8.5293 10.9141 8.52336 10.9559C8.51742 10.9976 8.49853 11.068 8.48148 11.1122C8.46437 11.1565 8.44169 11.3012 8.43104 11.4338C8.42039 11.5665 8.40641 11.7324 8.39996 11.8025C8.39346 11.8726 8.3995 11.9988 8.41338 12.083C8.44174 12.2558 8.45992 12.2223 8.24764 12.3885C8.08666 12.5145 7.81355 12.7541 7.61888 12.94C7.39487 13.1539 7.38499 13.1567 7.36389 13.0115C7.35508 12.9507 7.33476 12.8648 7.31878 12.8206C7.30281 12.7764 7.28386 12.6633 7.27664 12.5693C7.26942 12.4754 7.25043 12.3369 7.23445 12.2615C7.19661 12.0835 7.19672 11.6476 7.23461 11.4703C7.25074 11.395 7.27035 11.2519 7.27818 11.1524C7.28601 11.053 7.3045 10.9425 7.31919 10.907C7.33389 10.8715 7.35176 10.7992 7.35887 10.7462C7.36594 10.6933 7.38412 10.6183 7.39922 10.5796C7.41433 10.541 7.44699 10.446 7.47177 10.3686C7.53137 10.1825 7.68447 9.83476 7.77095 9.68925C7.80904 9.62509 7.84022 9.5658 7.84022 9.55751C7.84022 9.54173 8.07335 9.19423 8.19946 9.02204C8.3801 8.77534 8.77491 8.3868 9.08095 8.15451C9.19497 8.06799 9.49773 7.86641 9.51371 7.86641C9.52082 7.86641 9.5412 7.85354 9.55902 7.83777C9.60367 7.79827 10.1218 7.54484 10.158 7.54484C10.1741 7.54484 10.1961 7.5365 10.2068 7.52635C10.2296 7.50464 10.4283 7.43334 10.5744 7.39445C10.6307 7.37948 10.7045 7.35783 10.7383 7.34637C10.8746 7.30009 11.0786 7.25975 11.3117 7.23297C11.4469 7.21739 11.5943 7.19553 11.6394 7.18433C11.7455 7.1579 12.2501 7.1579 12.3562 7.18433C12.4013 7.19553 12.5488 7.21739 12.6839 7.23297C12.9176 7.2598 13.1224 7.30035 13.2574 7.34652C13.2912 7.35808 13.3557 7.37606 13.4008 7.38657C13.4797 7.40491 13.6415 7.46108 13.7694 7.51449C13.8032 7.52861 13.9 7.56956 13.9845 7.60553C14.2461 7.71688 14.2553 7.71431 14.7889 7.38018C14.8365 7.35039 14.9215 7.29788 14.9778 7.26347C15.0341 7.22905 15.1192 7.17654 15.1669 7.14675C15.2146 7.117 15.3344 7.04374 15.4332 6.98405C16.1398 6.55657 16.1638 6.53501 16.1173 6.37006C16.0904 6.27424 16.1094 6.28931 15.6332 5.98593C15.4683 5.88087 14.6792 5.49484 14.6293 5.49484C14.6197 5.49484 14.5744 5.47785 14.5285 5.45705C14.4451 5.41922 14.3204 5.37576 14.1483 5.32466C14.0976 5.30958 14.0285 5.28748 13.9947 5.27547C13.905 5.24371 13.7043 5.19372 13.5748 5.17091C13.5129 5.16 13.4161 5.13754 13.3598 5.12101C13.3035 5.10448 13.1652 5.08288 13.0526 5.07298C12.9399 5.06313 12.8155 5.04459 12.7761 5.03188C12.6891 5.00379 11.5901 4.98786 11.3601 5.01138ZM18.9889 11.5443C18.9889 11.6383 18.9925 11.6767 18.9968 11.6298C19.0011 11.5828 19.0011 11.5059 18.9968 11.4589C18.9925 11.412 18.9889 11.4504 18.9889 11.5443ZM18.9888 12.1975C18.9889 12.286 18.9925 12.3196 18.9968 12.2724C19.0011 12.2251 19.0011 12.1528 18.9967 12.1116C18.9923 12.0704 18.9887 12.1091 18.9888 12.1975Z" fill="white"/>
<path fill-rule="evenodd" clip-rule="evenodd" d="M17.4912 8.02319C17.4728 8.03395 17.4078 8.11821 17.3468 8.21038C17.0872 8.60264 16.9564 8.80749 16.9353 8.85505C16.9228 8.88297 16.8975 8.91835 16.8791 8.93368C16.8607 8.94901 16.8456 8.96977 16.8456 8.97982C16.8456 8.99819 16.7451 9.16102 16.7221 9.1799C16.7153 9.18549 16.698 9.2129 16.6837 9.24081C16.6695 9.26873 16.5883 9.39664 16.5034 9.52506C16.31 9.81757 16.2993 9.91005 16.4273 10.1826C16.4686 10.2707 16.5261 10.4169 16.5549 10.5075C16.5837 10.5981 16.6196 10.7042 16.6345 10.7432C16.6495 10.7823 16.6709 10.8669 16.682 10.9311C16.6932 10.9954 16.7109 11.064 16.7215 11.0838C16.732 11.1035 16.747 11.1971 16.7548 11.2918C16.7626 11.3865 16.7816 11.5263 16.7971 11.6024C16.8344 11.7856 16.8345 12.3401 16.7971 12.5235C16.7817 12.5996 16.7631 12.7304 16.7558 12.8142C16.7485 12.8979 16.7297 13.0075 16.714 13.0578C16.6983 13.108 16.6724 13.204 16.6565 13.271C16.6118 13.4586 16.5324 13.7072 16.4813 13.8192C16.4711 13.8415 16.4351 13.9247 16.4013 14.0041C16.3465 14.1325 16.2316 14.3549 16.1767 14.4384C16.1657 14.4551 16.138 14.5008 16.1153 14.5399C16.0926 14.579 16.0583 14.6346 16.0391 14.6636C16.0199 14.6925 15.9804 14.752 15.9513 14.7957C15.5056 15.4657 14.6217 16.1624 13.8449 16.4562C13.7613 16.4878 13.67 16.5252 13.6422 16.5394C13.6143 16.5534 13.5553 16.5715 13.5111 16.5795C13.4668 16.5875 13.4075 16.6058 13.3793 16.6203C13.351 16.6348 13.2786 16.6534 13.2184 16.6615C13.1581 16.6697 13.0806 16.688 13.046 16.7021C13.0115 16.7163 12.9011 16.7345 12.8008 16.7426C12.7004 16.7507 12.559 16.7699 12.4865 16.7852C12.3154 16.8215 11.8466 16.8215 11.6755 16.7852C11.603 16.7699 11.4616 16.7507 11.3612 16.7426C11.2609 16.7345 11.1505 16.7163 11.116 16.7021C11.0815 16.688 11.0039 16.6697 10.9436 16.6616C10.8834 16.6534 10.8163 16.6374 10.7945 16.6258C10.7727 16.6144 10.7134 16.5931 10.6627 16.5785C10.5128 16.5355 10.3585 16.4781 10.1771 16.3977C9.95975 16.3015 9.81433 16.3024 9.6683 16.401C9.54949 16.4813 9.28257 16.6556 9.23842 16.6817C9.21942 16.693 9.14186 16.7415 9.06609 16.7895C8.99026 16.8376 8.91058 16.8878 8.88899 16.9012C8.86739 16.9146 8.74879 16.9902 8.62541 17.0693C8.50204 17.1484 8.34522 17.2472 8.27689 17.2889C7.84058 17.5552 7.88432 17.6473 8.6647 18.1062C8.84677 18.2133 9.39489 18.4687 9.63789 18.5597C9.7048 18.5847 9.78828 18.6173 9.8234 18.632C9.85853 18.6468 9.92153 18.6653 9.9634 18.6732C10.0053 18.681 10.0631 18.6996 10.0916 18.7145C10.1203 18.7293 10.185 18.7475 10.2354 18.7549C10.2859 18.7622 10.35 18.7798 10.3779 18.794C10.4058 18.8081 10.4834 18.8264 10.5503 18.8348C10.6172 18.843 10.7062 18.8619 10.7481 18.8766C10.7901 18.8914 10.895 18.9089 10.9813 18.9156C11.0676 18.9223 11.2021 18.9432 11.2801 18.9621C11.4891 19.0126 12.6729 19.0126 12.8819 18.9621C12.9599 18.9432 13.0944 18.9223 13.1807 18.9156C13.267 18.9089 13.372 18.8914 13.4139 18.8766C13.4558 18.8619 13.5448 18.843 13.6118 18.8348C13.6786 18.8264 13.7562 18.8081 13.7841 18.794C13.812 18.7798 13.8761 18.7622 13.9266 18.7549C13.977 18.7475 14.0417 18.7293 14.0704 18.7145C14.099 18.6996 14.1567 18.681 14.1986 18.6732C14.2405 18.6653 14.3035 18.6468 14.3386 18.632C14.3737 18.6173 14.4572 18.5847 14.5241 18.5597C15.5682 18.1687 16.4763 17.5389 17.2758 16.6514C17.4616 16.4452 17.673 16.1688 17.8593 15.8886C18.094 15.5358 18.4029 14.936 18.5384 14.5704C18.6621 14.2365 18.7401 13.9969 18.7631 13.8801C18.7698 13.8466 18.787 13.7872 18.8015 13.7481C18.8159 13.709 18.8341 13.6268 18.8421 13.5654C18.85 13.5039 18.8683 13.4172 18.8829 13.3725C18.8975 13.3278 18.9155 13.2182 18.9229 13.1288C18.9303 13.0395 18.9505 12.9025 18.9677 12.8243C19.0062 12.6496 19.0122 11.528 18.9755 11.3625C18.963 11.3066 18.9411 11.1559 18.9267 11.0275C18.9123 10.8991 18.8908 10.7757 18.879 10.7534C18.8671 10.7311 18.8508 10.6534 18.8427 10.5808C18.8345 10.5082 18.8192 10.4324 18.8086 10.4122C18.7981 10.3921 18.7768 10.3191 18.7614 10.2498C18.7348 10.1301 18.7127 10.0582 18.6279 9.81407C18.4716 9.36426 18.3393 9.07138 18.1137 8.67547C18.0351 8.53762 17.9572 8.40032 17.9404 8.37027C17.7667 8.05851 17.622 7.94675 17.4912 8.02319ZM13.0035 12.366C12.892 12.3745 12.7643 12.3912 12.7197 12.403C12.6751 12.4148 12.557 12.4306 12.4572 12.438C12.3575 12.4454 12.248 12.4631 12.2139 12.4774C12.1798 12.4916 12.0931 12.5099 12.021 12.5181C11.9491 12.5262 11.8624 12.5445 11.8284 12.5586C11.7945 12.5728 11.7303 12.591 11.6856 12.599C11.6041 12.6136 11.4021 12.6736 11.27 12.7224C11.231 12.7368 11.1306 12.7739 11.047 12.8048C10.8868 12.8638 10.7656 12.9138 10.6314 12.9762C10.5017 13.0365 10.1354 13.2205 10.0609 13.2627C10.0234 13.284 9.95848 13.3207 9.91667 13.3443C9.87485 13.3679 9.80141 13.4135 9.75346 13.4458C9.70551 13.4781 9.66227 13.5045 9.6574 13.5045C9.65254 13.5045 9.57316 13.556 9.48101 13.6191C9.06467 13.9038 9.04424 13.9863 9.31065 14.3064C9.77201 14.8606 10.313 15.2348 10.9713 15.455C11.069 15.4877 11.166 15.5145 11.1867 15.5145C11.2075 15.5145 11.2565 15.5278 11.2955 15.5442C11.5163 15.6365 12.6853 15.6441 12.853 15.5543C12.8731 15.5435 12.9471 15.5216 13.0175 15.5055C14.1527 15.2472 15.1654 14.2489 15.5211 13.0375C15.6595 12.5664 15.611 12.5219 14.8688 12.4381C14.7238 12.4217 14.5642 12.3992 14.514 12.3881C14.3968 12.3622 13.2692 12.3456 13.0035 12.366Z" fill="url(#paint0_linear)"/>
<defs>
<linearGradient id="paint0_linear" x1="17.168" y1="7.50723" x2="13.3653" y2="18.7376" gradientUnits="userSpaceOnUse">
<stop stop-color="#25D98C"/>
<stop offset="1" stop-color="#0E9BE3"/>
</linearGradient>
</defs>
</svg>
