<?xml version="1.0" encoding="UTF-8" standalone="no"?><!DOCTYPE svg PUBLIC "-//W3C//DTD SVG 1.1//EN" "http://www.w3.org/Graphics/SVG/1.1/DTD/svg11.dtd"><svg width="25px" height="25px" version="1.1" xmlns="http://www.w3.org/2000/svg" xmlns:xlink="http://www.w3.org/1999/xlink" xml:space="preserve" xmlns:serif="http://www.serif.com/" style="fill-rule:evenodd;clip-rule:evenodd;stroke-linejoin:round;stroke-miterlimit:2;"><g id="Layer_2"><g id="Layer_1-2"><circle cx="12.696" cy="12.876" r="12" style="fill:rgb(0,40,104);"/><path id="path0_fill" d="M18.696,11.401l-2.345,1.045l-6.215,3.165l6.215,3l-0,-4.95l2.345,-1.06l-0,7.305l-2.345,1.045l-9.155,-4.385l-0,-2.33l6.34,-3.105l-6.34,-3.05l-0,-2.36l2.38,-1.045l9.12,4.39l-0,2.335Z" style="fill:rgb(73,193,191);fill-rule:nonzero;"/><path id="path1_fill" d="M7.196,5.721l9.155,4.39l2.345,-1.045l-9.12,-4.39l-2.38,1.045Z" style="fill:rgb(7,122,143);fill-rule:nonzero;"/><path id="path2_fill" d="M16.351,10.101l2.345,-1.045l-0,2.32l-2.345,1.045l-0,-2.32Z" style="fill:rgb(41,142,151);fill-rule:nonzero;"/><path id="path3_fill" d="M7.196,5.721l-0,2.365l6.34,3.045l-6.34,3.11l-0,2.33l9.155,4.38l-0,-2.345l-6.215,-3l6.215,-3.165l-0,-2.33l-9.155,-4.39Z" style="fill:rgb(73,193,191);fill-rule:nonzero;"/><path id="path4_fill" d="M16.351,20.931l2.345,-1.055l-0,-7.29l-2.345,1.06l-0,7.285Z" style="fill:rgb(41,142,151);fill-rule:nonzero;"/></g></g></svg>