<?xml version="1.0" encoding="UTF-8" standalone="no"?><!DOCTYPE svg PUBLIC "-//W3C//DTD SVG 1.1//EN" "http://www.w3.org/Graphics/SVG/1.1/DTD/svg11.dtd"><svg width="25px" height="25px" version="1.1" xmlns="http://www.w3.org/2000/svg" xmlns:xlink="http://www.w3.org/1999/xlink" xml:space="preserve" xmlns:serif="http://www.serif.com/" style="fill-rule:evenodd;clip-rule:evenodd;stroke-linejoin:round;stroke-miterlimit:2;"><g id="Layer_2"><g id="Layer_1-2"><circle cx="12.499" cy="12.878" r="12" style="fill:rgb(35,24,21);"/><path d="M16.999,15.483c0.595,0.8 1.21,1.62 1.825,2.435c-1.17,1.423 -2.792,2.402 -4.595,2.775c-2.002,0.431 -4.095,0.099 -5.865,-0.93l4.97,-3.705c0.375,0.355 0.725,0.71 1.08,1.045c0.355,0.335 0.24,0.39 0.745,0.11c0.683,-0.388 1.269,-0.929 1.71,-1.58c-0,-0.04 0.055,-0.075 0.075,-0.115c0.02,-0.04 -0,0 0.055,-0.035Zm-7.29,1.635c-0.465,0.355 -0.895,0.67 -1.325,1c-0.315,0.245 -0.63,0.465 -0.945,0.71c-0.135,0.11 -0.225,0.11 -0.375,0c-2.849,-2.519 -3.592,-6.704 -1.785,-10.05c-0,-0.035 0.055,-0.09 0.075,-0.13c0.02,-0.04 -0,0 0.055,-0.035c1.23,1.62 2.475,3.235 3.705,4.855c-0.029,0.046 -0.06,0.089 -0.095,0.13c-0.375,0.39 -0.745,0.785 -1.135,1.155c-0.063,0.045 -0.1,0.118 -0.1,0.195c-0,0.05 0.015,0.099 0.045,0.14c0.385,0.733 0.932,1.369 1.6,1.86l0.28,0.185l-0,-0.015Zm6.94,-11.555c-0.595,0.43 -1.19,0.855 -1.785,1.265c-1.025,0.725 -2.05,1.47 -3.055,2.195c-0.13,0.095 -0.22,0.115 -0.335,0c-0.335,-0.355 -0.69,-0.67 -1,-1.025c-0.08,-0.092 -0.215,-0.115 -0.32,-0.055c-0.78,0.404 -1.451,0.991 -1.955,1.71c-0.035,0.04 -0.07,0.095 -0.11,0.15c-0.295,-0.39 -0.575,-0.745 -0.855,-1.115c-0.28,-0.37 -0.595,-0.81 -0.875,-1.17c-0.095,-0.13 -0.115,-0.225 -0,-0.355c1.367,-1.557 3.277,-2.535 5.34,-2.735c1.648,-0.182 3.313,0.15 4.765,0.95l0.165,0.09c-0,0.06 -0,0.075 0.02,0.095Zm3.035,11.165c-0.395,-0.5 -0.745,-0.965 -1.1,-1.43c-0.82,-1.08 -1.64,-2.18 -2.5,-3.26c-0.057,-0.044 -0.09,-0.113 -0.09,-0.185c-0,-0.072 0.033,-0.14 0.09,-0.185c0.35,-0.355 0.685,-0.71 1.04,-1.06c0.1,-0.074 0.124,-0.216 0.055,-0.32c-0.401,-0.775 -0.98,-1.443 -1.69,-1.95c-0.06,-0.048 -0.123,-0.092 -0.19,-0.13c0.06,-0.06 0.115,-0.095 0.15,-0.13c0.71,-0.54 1.415,-1.065 2.12,-1.605c0.115,-0.09 0.205,-0.13 0.335,0c1.737,1.516 2.758,3.695 2.81,6c0.038,1.377 -0.275,2.742 -0.91,3.965c-0.051,0.092 -0.091,0.189 -0.12,0.29Z" style="fill:white;fill-rule:nonzero;"/></g></g></svg>