<svg xmlns="http://www.w3.org/2000/svg" xmlns:xlink="http://www.w3.org/1999/xlink" viewBox="0 0 48 48"><defs><style>.cls-1{fill:url(#linear-gradient);}.cls-2{fill:#fff;}</style><linearGradient id="linear-gradient" x1="-656.76" y1="-635.71" x2="-656.81" y2="-635.67" gradientTransform="translate(509688.5 493317) scale(776)" gradientUnits="userSpaceOnUse"><stop offset="0" stop-color="#b6509e"/><stop offset="1" stop-color="#2ebac6"/></linearGradient></defs><title>aave</title><g id="Layer_2" data-name="Layer 2"><g id="Layer_1-2" data-name="Layer 1"><g id="b"><circle class="cls-1" cx="24" cy="24" r="24"/><path class="cls-2" d="M34.5,33.56,26.39,13.94a2.19,2.19,0,0,0-2-1.51h-.71a2.19,2.19,0,0,0-2,1.51l-3.53,8.55H15.4a1.47,1.47,0,0,0-1.46,1.45v0a1.48,1.48,0,0,0,1.46,1.46h1.43l-3.37,8.14a1.78,1.78,0,0,0-.1.56,1.51,1.51,0,0,0,.4,1.09,1.38,1.38,0,0,0,1.07.42,1.46,1.46,0,0,0,.84-.28,1.78,1.78,0,0,0,.58-.74L20,25.41h2.57A1.47,1.47,0,0,0,24,24v0a1.47,1.47,0,0,0-1.46-1.45H21.16L24,15.41l7.72,19.2a1.92,1.92,0,0,0,.58.73,1.44,1.44,0,0,0,.84.28,1.4,1.4,0,0,0,1.08-.41,1.54,1.54,0,0,0,.39-1.1A1.19,1.19,0,0,0,34.5,33.56Z"/></g></g></g></svg>