<svg width="24" height="24" viewBox="0 0 24 24" fill="none" xmlns="http://www.w3.org/2000/svg">
<circle cx="12" cy="12" r="12" fill="#3468D1"/>
<g clip-path="url(#clip0)">
<path d="M11.8036 4.77009C12.1523 4.59119 12.578 5.00622 12.3927 5.349C12.2851 5.62842 11.8771 5.70272 11.6687 5.48973C11.4479 5.28532 11.5199 4.88131 11.8036 4.77009ZM8.05281 5.16789C8.26465 5.0821 8.53281 5.27305 8.51121 5.5002C8.53369 5.7468 8.22721 5.9283 8.01129 5.8111C7.72521 5.70209 7.75793 5.24518 8.05281 5.16789ZM15.7349 5.81803C15.4039 5.77867 15.3515 5.26659 15.6702 5.16348C15.9174 5.04487 16.1442 5.2673 16.1803 5.49784C16.1285 5.69469 15.961 5.87493 15.7349 5.81803ZM8.90625 6.73853C9.26041 6.51815 9.76577 6.84636 9.71129 7.25109C9.69289 7.65974 9.14121 7.8965 8.82993 7.62023C8.52897 7.40323 8.57457 6.90539 8.90625 6.73853ZM14.3127 6.97238C14.4707 6.57175 15.111 6.55963 15.2908 6.94963C15.4686 7.25313 15.2499 7.62897 14.9332 7.73216C14.5137 7.80921 14.1152 7.36301 14.3127 6.97238ZM11.3519 7.70941C11.3485 7.36506 11.6673 7.10846 11.9999 7.08501C12.2206 7.12854 12.4611 7.22102 12.5557 7.44007C12.7321 7.74223 12.5755 8.15829 12.2567 8.29697C12.111 8.37734 11.9387 8.34719 11.7799 8.33782C11.5373 8.22063 11.333 7.99079 11.3519 7.70941ZM5.77393 8.21118C6.09745 8.01551 6.53393 8.37261 6.41145 8.71838C6.34401 9.01748 5.93537 9.13916 5.70177 8.94821C5.45241 8.76931 5.49193 8.33916 5.77393 8.21118ZM17.7519 8.21055C18.0264 8.00087 18.4794 8.2414 18.4467 8.58237C18.4651 8.89327 18.0735 9.12775 17.801 8.96765C17.5009 8.83495 17.4703 8.38072 17.7519 8.21055ZM12.9206 8.8296C13.3735 8.6695 13.9115 8.86108 14.1697 9.25841C14.5103 9.74412 14.3291 10.4838 13.8006 10.7625C13.253 11.0922 12.4534 10.8128 12.2511 10.2111C12.0215 9.67249 12.356 8.99843 12.9206 8.8296ZM10.263 8.88257C10.765 8.64943 11.4406 8.84503 11.6831 9.35026C11.9684 9.84203 11.7478 10.5268 11.2376 10.7807C10.7268 11.0661 10.0062 10.8497 9.75897 10.3218C9.48177 9.81118 9.72793 9.11767 10.263 8.88257ZM7.60193 9.77765C7.64009 9.45943 7.94521 9.25235 8.25305 9.23094C8.58473 9.27029 8.84969 9.52373 8.88577 9.854C8.86401 10.181 8.60721 10.5005 8.25505 10.4985C7.86761 10.5314 7.52793 10.1521 7.60193 9.77765ZM15.4618 9.30012C15.8595 9.07234 16.4119 9.40394 16.3942 9.85353C16.4215 10.3299 15.8102 10.6656 15.4141 10.3862C15.0027 10.1535 15.0347 9.49823 15.4618 9.30012ZM9.18145 10.979C9.64665 10.8531 10.1786 11.0688 10.4067 11.4895C10.6567 11.913 10.5545 12.5012 10.1663 12.8118C9.66849 13.2674 8.75033 13.0845 8.48537 12.4627C8.18089 11.8928 8.55073 11.129 9.18145 10.979ZM14.2222 10.9766C14.6744 10.8494 15.2057 11.0209 15.4488 11.4262C15.7703 11.8898 15.6168 12.5813 15.1383 12.8801C14.637 13.2272 13.8605 13.0449 13.5847 12.5023C13.2503 11.9411 13.5867 11.1478 14.2222 10.9766ZM6.18937 11.5056C6.59121 11.356 7.03665 11.7923 6.87385 12.1843C6.77441 12.5414 6.26289 12.6734 5.99865 12.4101C5.68945 12.1629 5.80393 11.6128 6.18937 11.5056ZM17.0814 12.0744C17.0698 11.7468 17.3134 11.4567 17.6548 11.4386C17.93 11.4815 18.1976 11.6999 18.1759 11.9947C18.2011 12.3839 17.7243 12.6486 17.3871 12.4656C17.2291 12.3866 17.1481 12.2272 17.0814 12.0744ZM4.21353 11.6978C4.45529 11.594 4.75433 11.8002 4.69913 12.0643C4.68617 12.3634 4.23737 12.4784 4.07249 12.2285C3.92681 12.0549 4.01401 11.7873 4.21353 11.6978ZM19.457 11.6919C19.6272 11.5726 19.9003 11.6583 19.9678 11.854C20.0822 12.0677 19.8724 12.3605 19.6279 12.3244C19.2847 12.3551 19.1737 11.8405 19.457 11.6919ZM10.4946 13.1276C11.1307 12.9648 11.8146 13.4867 11.8186 14.1312C11.8601 14.7825 11.1866 15.3599 10.5354 15.2095C10.032 15.1298 9.63705 14.6527 9.65337 14.1523C9.65201 13.6737 10.0191 13.2288 10.4946 13.1276ZM13.0139 13.1263C13.6596 12.9487 14.3639 13.48 14.3536 14.1393C14.3877 14.7785 13.7352 15.3366 13.0976 15.2098C12.4976 15.1334 12.0549 14.4849 12.2224 13.912C12.307 13.5303 12.6311 13.2198 13.0139 13.1263ZM8.15641 13.5229C8.60321 13.4479 9.02209 13.9384 8.84089 14.3558C8.70873 14.8006 8.05081 14.9212 7.75993 14.5579C7.41873 14.209 7.67345 13.5711 8.15641 13.5229ZM15.5448 13.5425C15.9432 13.3784 16.4323 13.7174 16.4016 14.1429C16.4176 14.6112 15.8139 14.9341 15.4243 14.6608C14.983 14.4154 15.0633 13.6931 15.5448 13.5425ZM17.6099 15.5805C17.4539 15.2944 17.7373 14.9152 18.0602 14.9681C18.2209 14.9655 18.3333 15.09 18.4362 15.1946C18.4573 15.3641 18.4927 15.5664 18.3497 15.6971C18.1555 15.9389 17.7155 15.8699 17.6099 15.5805ZM5.77257 15.0478C6.07433 14.8501 6.50857 15.1449 6.44073 15.492C6.40465 15.799 6.01161 15.9744 5.75273 15.8002C5.47489 15.6421 5.48513 15.1919 5.77257 15.0478ZM11.7342 15.6904C12.1292 15.5189 12.6325 15.8572 12.5951 16.2853C12.6243 16.7584 12.0019 17.086 11.6156 16.8019C11.1866 16.558 11.2581 15.8404 11.7342 15.6904ZM8.97297 16.3241C9.30945 16.1499 9.76097 16.4508 9.73033 16.8213C9.74057 17.1255 9.43881 17.3847 9.13369 17.3398C8.88097 17.3344 8.71617 17.1115 8.63513 16.8996C8.63929 16.6686 8.73593 16.4113 8.97297 16.3241ZM14.5661 16.3295C14.9121 16.1191 15.4039 16.4213 15.3711 16.8175C15.38 17.2316 14.8243 17.4968 14.5021 17.2248C14.1902 17.0116 14.2283 16.499 14.5661 16.3295ZM15.5387 18.6952C15.3848 18.4661 15.566 18.1901 15.8159 18.1378C16.0169 18.178 16.2294 18.3267 16.1871 18.5559C16.1579 18.8661 15.6967 18.9613 15.5387 18.6952ZM7.81785 18.4963C7.87913 18.3147 8.02761 18.1342 8.24489 18.1814C8.56161 18.2035 8.65561 18.6732 8.37841 18.818C8.12913 18.9833 7.83993 18.7569 7.81785 18.4963ZM11.5427 18.7046C11.6034 18.436 11.9568 18.3053 12.1898 18.448C12.3437 18.513 12.3887 18.6825 12.4282 18.8265C12.4071 18.9015 12.3882 18.9766 12.3696 19.0516C12.2743 19.1629 12.1517 19.2741 11.993 19.2701C11.698 19.3041 11.4319 18.976 11.5427 18.7046Z" fill="white"/>
</g>
<defs>
<clipPath id="clip0">
<rect width="16" height="14.5455" fill="white" transform="translate(4 4.72729)"/>
</clipPath>
</defs>
</svg>
