<svg width="48" height="48" viewBox="0 0 48 48" fill="none" xmlns="http://www.w3.org/2000/svg">
<circle cx="24" cy="24" r="24" fill="#3468D1"/>
<g clip-path="url(#clip0)">
<path d="M23.73 14.0589C24.2095 13.8129 24.7948 14.3836 24.54 14.8549C24.3921 15.2391 23.8311 15.3413 23.5445 15.0484C23.2409 14.7674 23.3399 14.2119 23.73 14.0589ZM18.5726 14.6059C18.8639 14.4879 19.2326 14.7505 19.2029 15.0628C19.2339 15.4019 18.8124 15.6515 18.5156 15.4903C18.1222 15.3404 18.1672 14.7122 18.5726 14.6059ZM29.1355 15.4998C28.6803 15.4457 28.6083 14.7416 29.0465 14.5998C29.3864 14.4368 29.6983 14.7426 29.748 15.0596C29.6767 15.3303 29.4464 15.5781 29.1355 15.4998ZM19.7461 16.7655C20.2331 16.4625 20.928 16.9138 20.8531 17.4703C20.8278 18.0322 20.0692 18.3577 19.6412 17.9779C19.2274 17.6795 19.2901 16.995 19.7461 16.7655ZM27.18 17.0871C27.3973 16.5362 28.2776 16.5195 28.5249 17.0558C28.7693 17.4731 28.4687 17.9899 28.0332 18.1318C27.4564 18.2377 26.9084 17.6242 27.18 17.0871ZM23.1089 18.1005C23.1042 17.627 23.5426 17.2742 23.9999 17.2419C24.3033 17.3018 24.634 17.429 24.7641 17.7302C25.0067 18.1456 24.7913 18.7177 24.353 18.9084C24.1526 19.0189 23.9157 18.9774 23.6974 18.9646C23.3638 18.8034 23.0829 18.4874 23.1089 18.1005ZM15.4392 18.7904C15.884 18.5214 16.4842 19.0124 16.3158 19.4878C16.223 19.8991 15.6612 20.0664 15.34 19.8039C14.9971 19.5579 15.0514 18.9664 15.4392 18.7904ZM31.9089 18.7896C32.2863 18.5013 32.9092 18.832 32.8642 19.3008C32.8895 19.7283 32.351 20.0507 31.9764 19.8306C31.5638 19.6481 31.5216 19.0236 31.9089 18.7896ZM25.2658 19.6408C25.8886 19.4206 26.6284 19.684 26.9834 20.2304C27.4516 20.8982 27.2025 21.9153 26.4758 22.2986C25.7229 22.7518 24.6234 22.3676 24.3453 21.5403C24.0296 20.7997 24.4895 19.8729 25.2658 19.6408ZM21.6116 19.7136C22.3019 19.393 23.2308 19.662 23.5642 20.3567C23.9566 21.0329 23.6532 21.9744 22.9517 22.3236C22.2494 22.716 21.2585 22.4185 20.9186 21.6925C20.5375 20.9904 20.8759 20.0369 21.6116 19.7136ZM17.9527 20.9443C18.0052 20.5068 18.4247 20.222 18.848 20.1926C19.304 20.2467 19.6684 20.5952 19.718 21.0493C19.688 21.4989 19.3349 21.9383 18.8507 21.9356C18.318 21.9807 17.8509 21.4593 17.9527 20.9443ZM28.76 20.2877C29.3069 19.9745 30.0663 20.4305 30.042 21.0487C30.0795 21.7036 29.239 22.1652 28.6944 21.781C28.1287 21.4611 28.1728 20.5601 28.76 20.2877ZM20.1245 22.5962C20.7642 22.423 21.4956 22.7197 21.8093 23.2981C22.1529 23.8804 22.0125 24.6892 21.4787 25.1163C20.7942 25.7427 19.5317 25.4912 19.1674 24.6363C18.7488 23.8527 19.2573 22.8024 20.1245 22.5962ZM27.0555 22.5929C27.6773 22.4179 28.4079 22.6537 28.7421 23.2111C29.1841 23.8486 28.9731 24.7993 28.3151 25.2102C27.6259 25.6874 26.5582 25.4369 26.1789 24.6908C25.7191 23.919 26.1818 22.8283 27.0555 22.5929ZM16.0104 23.3202C16.5629 23.1146 17.1754 23.7145 16.9516 24.2534C16.8148 24.7444 16.1115 24.9259 15.7482 24.5639C15.323 24.224 15.4804 23.4676 16.0104 23.3202ZM30.9869 24.1023C30.971 23.6519 31.3059 23.253 31.7754 23.2281C32.1538 23.2871 32.5217 23.5874 32.4918 23.9927C32.5265 24.528 31.8709 24.8918 31.4073 24.6403C31.1901 24.5317 31.0787 24.3124 30.9869 24.1023ZM13.2936 23.5846C13.6261 23.4418 14.0372 23.7253 13.9613 24.0885C13.9435 24.4997 13.3264 24.6579 13.0997 24.3142C12.8994 24.0756 13.0193 23.7076 13.2936 23.5846ZM34.2534 23.5764C34.4874 23.4124 34.863 23.5303 34.9557 23.7993C35.113 24.0931 34.8246 24.4957 34.4884 24.4461C34.0165 24.4884 33.8639 23.7808 34.2534 23.5764ZM21.9301 25.5505C22.8048 25.3267 23.7451 26.0443 23.7506 26.9305C23.8077 27.8259 22.8816 28.62 21.9862 28.4132C21.294 28.3035 20.751 27.6476 20.7734 26.9595C20.7715 26.3014 21.2763 25.6897 21.9301 25.5505ZM25.3942 25.5487C26.282 25.3045 27.2503 26.035 27.2362 26.9416C27.2831 27.8205 26.3859 28.5878 25.5092 28.4135C24.6842 28.3085 24.0755 27.4167 24.3058 26.6291C24.4221 26.1042 24.8678 25.6773 25.3942 25.5487ZM18.7151 26.0941C19.3294 25.991 19.9054 26.6653 19.6563 27.2392C19.4745 27.8508 18.5699 28.0167 18.1699 27.5172C17.7008 27.0374 18.051 26.1603 18.7151 26.0941ZM28.8741 26.1211C29.4219 25.8953 30.0944 26.3615 30.0522 26.9465C30.0742 27.5904 29.2441 28.0345 28.7084 27.6586C28.1016 27.3212 28.2121 26.3281 28.8741 26.1211ZM31.7137 28.9232C31.4992 28.5298 31.8888 28.0084 32.3328 28.0812C32.5538 28.0776 32.7083 28.2489 32.8498 28.3926C32.8788 28.6257 32.9275 28.9039 32.7309 29.0835C32.4638 29.4161 31.8588 29.3212 31.7137 28.9232ZM15.4373 28.1908C15.8522 27.919 16.4493 28.3243 16.356 28.8016C16.3064 29.2237 15.766 29.4649 15.41 29.2254C15.028 29.008 15.0421 28.3889 15.4373 28.1908ZM23.6345 29.0743C24.1777 28.8385 24.8697 29.3037 24.8182 29.8924C24.8585 30.5428 24.0026 30.9932 23.4715 30.6027C22.8816 30.2673 22.9799 29.2806 23.6345 29.0743ZM19.8379 29.9457C20.3005 29.7062 20.9214 30.1199 20.8792 30.6293C20.8933 31.0476 20.4784 31.4041 20.0589 31.3423C19.7114 31.3349 19.4848 31.0284 19.3733 30.737C19.3791 30.4193 19.5119 30.0655 19.8379 29.9457ZM27.5284 29.9531C28.0042 29.6638 28.6803 30.0793 28.6353 30.6241C28.6475 31.1935 27.8834 31.5582 27.4404 31.1842C27.0115 30.891 27.0639 30.1862 27.5284 29.9531ZM28.8658 33.206C28.6541 32.891 28.9033 32.5114 29.2469 32.4396C29.5233 32.4949 29.8154 32.6993 29.7573 33.0145C29.7171 33.441 29.083 33.5718 28.8658 33.206ZM18.2496 32.9324C18.3338 32.6828 18.538 32.4346 18.8368 32.4995C19.2722 32.5299 19.4015 33.1757 19.0203 33.3747C18.6776 33.6021 18.2799 33.2908 18.2496 32.9324ZM23.3713 33.2189C23.4547 32.8495 23.9406 32.6699 24.261 32.8661C24.4726 32.9555 24.5344 33.1885 24.5888 33.3865C24.5597 33.4897 24.5338 33.5929 24.5082 33.6961C24.3771 33.849 24.2086 34.0019 23.9904 33.9964C23.5848 34.0431 23.2189 33.5921 23.3713 33.2189Z" fill="white"/>
</g>
<defs>
<clipPath id="clip0">
<rect width="22" height="20" fill="white" transform="translate(13 14)"/>
</clipPath>
</defs>
</svg>
