<?xml version="1.0" encoding="UTF-8" standalone="no"?><!DOCTYPE svg PUBLIC "-//W3C//DTD SVG 1.1//EN" "http://www.w3.org/Graphics/SVG/1.1/DTD/svg11.dtd"><svg width="25px" height="25px" version="1.1" xmlns="http://www.w3.org/2000/svg" xmlns:xlink="http://www.w3.org/1999/xlink" xml:space="preserve" xmlns:serif="http://www.serif.com/" style="fill-rule:evenodd;clip-rule:evenodd;stroke-linejoin:round;stroke-miterlimit:2;"><g id="Layer_2"><g id="Layer_1-2"><circle cx="12.956" cy="12.935" r="12"/><path d="M8.711,19.185l1.885,-3.27l1.89,-3.255l1.875,-3.265l0.31,-0.52l0.135,0.52l0.58,2.15l-0.645,1.115l-1.89,3.255l-1.875,3.27l2.255,0l1.89,-3.27l0.975,-1.69l0.46,1.69l0.875,3.27l2.025,0l-0.875,-3.27l-0.875,-3.255l-0.23,-0.84l1.405,-2.425l-2.05,0l-0.065,-0.245l-0.715,-2.67l-0.095,-0.345l-1.965,0l-0.045,0.07l-1.84,3.19l-1.89,3.265l-1.875,3.255l-1.885,3.27l2.255,0Z" style="fill:white;fill-rule:nonzero;"/></g></g></svg>