<svg xmlns="http://www.w3.org/2000/svg" viewBox="0 0 48 48"><defs><style>.cls-1{fill:#fff;}</style></defs><title>Algorand</title><g id="Layer_2" data-name="Layer 2"><g id="Layer_1-2" data-name="Layer 1"><circle cx="24" cy="24" r="24"/><polygon class="cls-1" points="15.51 36.5 19.28 29.96 23.06 23.45 26.81 16.92 27.43 15.88 27.7 16.92 28.86 21.22 27.57 23.45 23.79 29.96 20.04 36.5 24.55 36.5 28.33 29.96 30.28 26.58 31.2 29.96 32.95 36.5 37 36.5 35.25 29.96 33.5 23.45 33.04 21.77 35.85 16.92 31.75 16.92 31.62 16.43 30.19 11.09 30 10.4 26.07 10.4 25.98 10.54 22.3 16.92 18.52 23.45 14.77 29.96 11 36.5 15.51 36.5"/></g></g></svg>