<svg xmlns="http://www.w3.org/2000/svg" viewBox="0 0 48 48"><defs><style>.cls-1{fill:#f2e3ee;}.cls-2{fill:#d9327c;}.cls-3{fill:#fff;}</style></defs><title>Amp</title><g id="Layer_2" data-name="Layer 2"><g id="Layer_1-2" data-name="Layer 1"><circle class="cls-1" cx="24" cy="24" r="23.23"/><circle class="cls-2" cx="24" cy="24" r="24"/><path class="cls-3" d="M23.07,12.66a1.83,1.83,0,0,0-.58.93c-.15.5-1,3-2.09,6.07h7.24c-1.09-3.09-1.94-5.57-2.09-6.07a1.83,1.83,0,0,0-.58-.93,1.44,1.44,0,0,0-1-.27A1.3,1.3,0,0,0,23.07,12.66Zm-10.68,7H17.3c1.2-3.52,2.25-6.46,2.4-7a4.68,4.68,0,0,1,1.59-2.32A4.33,4.33,0,0,1,24,9.48a4.15,4.15,0,0,1,2.67.86,4.61,4.61,0,0,1,1.59,2.32c.19.54,1.2,3.44,2.4,7h5a1.48,1.48,0,0,1,0,2.95H12.39A1.44,1.44,0,0,1,11,21.14,1.47,1.47,0,0,1,12.39,19.66Zm0,5.81A1.44,1.44,0,0,0,11,26.94a1.47,1.47,0,0,0,1.44,1.47h1.93l-.77,2.25-.78,2.24-.31.85a1.46,1.46,0,1,0,2.75,1l.31-.85.78-2.24c.31-.93.69-2,1.12-3.22H30.66c.39,1.16.77,2.29,1.12,3.22l.77,2.24.31.85a1.46,1.46,0,1,0,2.75-1h0l-.31-.85-.77-2.24-.78-2.25h1.94a1.47,1.47,0,0,0,0-2.94H12.39Zm21.79,8.71,1.36-.46Zm0,0-1.35.47Zm-20.32,0,1.35.47Zm0,0-1.36-.46Z"/></g></g></svg>