<svg width="48" height="48" viewBox="0 0 48 48" fill="none" xmlns="http://www.w3.org/2000/svg">
<circle cx="24" cy="24" r="24" fill="#1C0928"/>
<path fill-rule="evenodd" clip-rule="evenodd" d="M23.7 10.25C16.2718 10.25 10.25 16.2718 10.25 23.7C10.25 31.1282 16.2718 37.15 23.7 37.15C31.1282 37.15 37.15 31.1282 37.15 23.7C37.15 16.2718 31.1282 10.25 23.7 10.25ZM7.75 23.7C7.75 14.8911 14.8911 7.75 23.7 7.75C32.5089 7.75 39.65 14.8911 39.65 23.7C39.65 32.5089 32.5089 39.65 23.7 39.65C14.8911 39.65 7.75 32.5089 7.75 23.7Z" fill="white"/>
<path d="M25.5 29.9C25.4 29.8 25.4 29.6 25.3 29.4C25.3 29.2 25.2 29 25.2 28.8C25 29 24.8 29.1 24.6 29.3C24.4 29.5 24.1 29.6 23.9 29.7C23.6 29.8 23.4 29.9 23 30C22.7 30.1 22.3 30.1 22 30.1C21.4 30.1 20.9 30 20.4 29.8C19.9 29.6 19.5 29.4 19.1 29.1C18.7 28.8 18.5 28.4 18.3 28C18.1 27.6 18 27.1 18 26.6C18 25.4 18.5 24.4 19.4 23.8C20.3 23.1 21.7 22.8 23.5 22.8H25.2V22.1C25.2 21.5 25 21.1 24.7 20.8C24.3 20.5 23.8 20.3 23.1 20.3C22.5 20.3 22.1 20.4 21.8 20.7C21.5 21 21.4 21.3 21.4 21.7H18.4C18.4 21.2 18.5 20.7 18.7 20.3C18.9 19.9 19.2 19.5 19.7 19.1C20.1 18.8 20.6 18.5 21.2 18.3C21.8 18.1 22.5 18 23.3 18C24 18 24.6 18.1 25.2 18.3C25.8 18.5 26.3 18.7 26.8 19.1C27.2 19.4 27.6 19.9 27.8 20.4C28 20.9 28.2 21.5 28.2 22.2V27.2C28.2 27.8 28.2 28.3 28.3 28.7C28.4 29.1 28.5 29.5 28.6 29.7V29.9H25.5ZM22.6 27.8C22.9 27.8 23.2 27.8 23.4 27.7C23.7 27.6 23.9 27.5 24.1 27.4C24.3 27.3 24.5 27.2 24.6 27C24.7 26.9 24.9 26.7 25 26.6V24.6H23.5C23 24.6 22.6 24.6 22.3 24.7C22 24.8 21.7 24.9 21.5 25.1C21.3 25.3 21.1 25.4 21 25.7C20.9 25.9 20.9 26.2 20.9 26.4C20.9 26.8 21 27.1 21.3 27.4C21.6 27.7 22.1 27.8 22.6 27.8Z" fill="white"/>
</svg>
