<svg width="24" height="24" viewBox="0 0 24 24" fill="none" xmlns="http://www.w3.org/2000/svg">
<circle cx="12" cy="12" r="12" fill="#1C0928"/>
<path fill-rule="evenodd" clip-rule="evenodd" d="M11.85 5.125C8.13589 5.125 5.125 8.13589 5.125 11.85C5.125 15.5641 8.13589 18.575 11.85 18.575C15.5641 18.575 18.575 15.5641 18.575 11.85C18.575 8.13589 15.5641 5.125 11.85 5.125ZM3.875 11.85C3.875 7.44553 7.44553 3.875 11.85 3.875C16.2545 3.875 19.825 7.44553 19.825 11.85C19.825 16.2545 16.2545 19.825 11.85 19.825C7.44553 19.825 3.875 16.2545 3.875 11.85Z" fill="white"/>
<path d="M12.75 14.95C12.7 14.9 12.7 14.8 12.65 14.7C12.65 14.6 12.6 14.5 12.6 14.4C12.5 14.5 12.4 14.55 12.3 14.65C12.2 14.75 12.05 14.8 11.95 14.85C11.8 14.9 11.7 14.95 11.5 15C11.35 15.05 11.15 15.05 11 15.05C10.7 15.05 10.45 15 10.2 14.9C9.95 14.8 9.75 14.7 9.55 14.55C9.35 14.4 9.25 14.2 9.15 14C9.05 13.8 9 13.55 9 13.3C9 12.7 9.25 12.2 9.7 11.9C10.15 11.55 10.85 11.4 11.75 11.4H12.6V11.05C12.6 10.75 12.5 10.55 12.35 10.4C12.15 10.25 11.9 10.15 11.55 10.15C11.25 10.15 11.05 10.2 10.9 10.35C10.75 10.5 10.7 10.65 10.7 10.85H9.2C9.2 10.6 9.25 10.35 9.35 10.15C9.45 9.95 9.6 9.75 9.85 9.55C10.05 9.4 10.3 9.25 10.6 9.15C10.9 9.05 11.25 9 11.65 9C12 9 12.3 9.05 12.6 9.15C12.9 9.25 13.15 9.35 13.4 9.55C13.6 9.7 13.8 9.95 13.9 10.2C14 10.45 14.1 10.75 14.1 11.1V13.6C14.1 13.9 14.1 14.15 14.15 14.35C14.2 14.55 14.25 14.75 14.3 14.85V14.95H12.75ZM11.3 13.9C11.45 13.9 11.6 13.9 11.7 13.85C11.85 13.8 11.95 13.75 12.05 13.7C12.15 13.65 12.25 13.6 12.3 13.5C12.35 13.45 12.45 13.35 12.5 13.3V12.3H11.75C11.5 12.3 11.3 12.3 11.15 12.35C11 12.4 10.85 12.45 10.75 12.55C10.65 12.65 10.55 12.7 10.5 12.85C10.45 12.95 10.45 13.1 10.45 13.2C10.45 13.4 10.5 13.55 10.65 13.7C10.8 13.85 11.05 13.9 11.3 13.9Z" fill="white"/>
</svg>
