<svg width="24" height="24" viewBox="0 0 24 24" fill="none" xmlns="http://www.w3.org/2000/svg">
<path d="M12 0C15.1826 0 18.2348 1.26429 20.4853 3.51472C22.7357 5.76516 24 8.8174 24 12C24 15.1826 22.7357 18.2348 20.4853 20.4853C18.2348 22.7357 15.1826 24 12 24C8.8174 24 5.76516 22.7357 3.51472 20.4853C1.26429 18.2348 0 15.1826 0 12C0 8.8174 1.26429 5.76516 3.51472 3.51472C5.76516 1.26429 8.8174 0 12 0Z" fill="#F70000"/>
<path d="M11.96 10.004L4 18.204L12 5.5L20 18.284L11.96 10.004Z" fill="white"/>
<path d="M13.1203 13.2666H10.6243L11.9043 11.8906L13.1203 13.2746V13.2666ZM8.32031 15.5226H15.4883L14.0323 14.0666L9.72831 14.0826V14.0906L8.32031 15.4986" fill="white"/>
</svg>
