<svg width="48" height="48" viewBox="0 0 48 48" fill="none" xmlns="http://www.w3.org/2000/svg">
<path d="M24 0C30.3652 0 36.4697 2.52858 40.9706 7.02945C45.4714 11.5303 48 17.6348 48 24C48 30.3652 45.4714 36.4697 40.9706 40.9706C36.4697 45.4714 30.3652 48 24 48C17.6348 48 11.5303 45.4714 7.02945 40.9706C2.52858 36.4697 0 30.3652 0 24C0 17.6348 2.52858 11.5303 7.02945 7.02945C11.5303 2.52858 17.6348 0 24 0Z" fill="#F70000"/>
<path d="M23.92 20.008L8 36.408L24 11L40 36.568L23.92 20.008Z" fill="white"/>
<path d="M26.2406 26.5372H21.2486L23.8086 23.7852L26.2406 26.5532V26.5372ZM16.6406 31.0492H30.9766L28.0646 28.1372L19.4566 28.1692V28.1852L16.6406 31.0012" fill="white"/>
</svg>
