<svg width="48" height="48" viewBox="0 0 48 48" fill="none" xmlns="http://www.w3.org/2000/svg">
<circle cx="24" cy="24" r="24" fill="#2E3148"/>
<path d="M23.9721 31.9341C28.3695 31.9341 31.9344 28.3693 31.9344 23.9718C31.9344 19.5744 28.3695 16.0095 23.9721 16.0095C19.5746 16.0095 16.0097 19.5744 16.0097 23.9718C16.0097 28.3693 19.5746 31.9341 23.9721 31.9341Z" fill="#1B1E36"/>
<path d="M24.0002 12C22.5189 12 21.3179 17.3726 21.3179 24C21.3179 30.6274 22.5189 36 24.0002 36C25.4814 36 26.6825 30.6274 26.6825 24C26.6825 17.3726 25.4814 12 24.0002 12ZM24.1854 35.3228C24.016 35.5487 23.8466 35.3792 23.8466 35.3792C23.1644 34.5888 22.8234 33.1204 22.8234 33.1204C21.6302 29.2805 21.9142 21.0358 21.9142 21.0358C22.4749 14.4903 23.495 12.9441 23.8421 12.6008C23.8776 12.5658 23.9242 12.5444 23.9739 12.5404C24.0236 12.5363 24.0731 12.55 24.1137 12.5789C24.6174 12.9358 25.0398 14.4283 25.0398 14.4283C26.2872 19.0589 26.1742 23.4071 26.1742 23.4071C26.2872 27.1906 25.5492 31.4259 25.5492 31.4259C24.9811 34.6446 24.1854 35.3228 24.1854 35.3228Z" fill="#6F7390"/>
<path d="M34.4089 18.0282C33.6714 16.743 28.414 18.3749 22.6626 21.6729C16.9112 24.9708 12.8542 28.6865 13.5911 29.9713C14.3281 31.256 19.586 29.6246 25.3374 26.3266C31.0888 23.0286 35.1458 19.313 34.4089 18.0282ZM14.2715 29.795C13.9892 29.7594 14.053 29.5273 14.053 29.5273C14.3993 28.5425 15.5015 27.5158 15.5015 27.5158C18.2397 24.5698 25.5329 20.7134 25.5329 20.7134C31.4889 17.9424 33.3388 18.0593 33.8081 18.1885C33.8563 18.202 33.8982 18.232 33.9263 18.2734C33.9544 18.3147 33.967 18.3647 33.9618 18.4144C33.9054 19.0292 32.8183 20.138 32.8183 20.138C29.4248 23.5256 25.5967 25.5919 25.5967 25.5919C22.3711 27.5734 18.3302 29.0399 18.3302 29.0399C15.2554 30.1479 14.2716 29.795 14.2716 29.795H14.2715Z" fill="#6F7390"/>
<path d="M34.3827 30.0143C35.1259 28.7324 31.0791 24.9998 25.3479 21.677C19.6168 18.3543 14.3601 16.7021 13.6175 17.9862C12.875 19.2703 16.9211 23.0007 22.6555 26.3235C28.39 29.6462 33.6401 31.2985 34.3827 30.0143ZM14.11 18.4815C14.0002 18.2212 14.232 18.1586 14.232 18.1586C15.258 17.9648 16.6991 18.4063 16.6991 18.4063C20.6198 19.2991 27.611 23.6784 27.611 23.6784C32.9937 27.4449 33.8193 29.104 33.943 29.575C33.9556 29.6233 33.9507 29.6745 33.9292 29.7195C33.9077 29.7646 33.871 29.8006 33.8255 29.8212C33.2642 30.0782 31.7609 29.6953 31.7609 29.6953C27.1276 28.4529 23.422 26.1767 23.422 26.1767C20.0926 24.381 16.8003 21.6179 16.8003 21.6179C14.2987 19.5116 14.1108 18.4844 14.1108 18.4844L14.11 18.4815Z" fill="#6F7390"/>
<path d="M23.972 25.3838C24.7517 25.3838 25.3837 24.7517 25.3837 23.9721C25.3837 23.1924 24.7517 22.5603 23.972 22.5603C23.1923 22.5603 22.5602 23.1924 22.5602 23.9721C22.5602 24.7517 23.1923 25.3838 23.972 25.3838Z" fill="#B7B9C8"/>
<path d="M29.7602 19.3977C30.2124 19.3977 30.579 19.0185 30.579 18.5507C30.579 18.0829 30.2124 17.7036 29.7602 17.7036C29.3079 17.7036 28.9413 18.0829 28.9413 18.5507C28.9413 19.0185 29.3079 19.3977 29.7602 19.3977Z" fill="#B7B9C8"/>
<path d="M16.3202 22.2778C16.7724 22.2778 17.139 21.8986 17.139 21.4308C17.139 20.963 16.7724 20.5837 16.3202 20.5837C15.8679 20.5837 15.5013 20.963 15.5013 21.4308C15.5013 21.8986 15.8679 22.2778 16.3202 22.2778Z" fill="#B7B9C8"/>
<path d="M22.3061 32.6685C22.7583 32.6685 23.1249 32.2892 23.1249 31.8214C23.1249 31.3536 22.7583 30.9744 22.3061 30.9744C21.8538 30.9744 21.4872 31.3536 21.4872 31.8214C21.4872 32.2892 21.8538 32.6685 22.3061 32.6685Z" fill="#B7B9C8"/>
</svg>
