<svg width="48" height="48" viewBox="0 0 48 48" fill="none" xmlns="http://www.w3.org/2000/svg">
<path d="M24 0C30.3652 0 36.4697 2.52858 40.9706 7.02945C45.4714 11.5303 48 17.6348 48 24C48 30.3652 45.4714 36.4697 40.9706 40.9706C36.4697 45.4714 30.3652 48 24 48C17.6348 48 11.5303 45.4714 7.02945 40.9706C2.52858 36.4697 0 30.3652 0 24C0 17.6348 2.52858 11.5303 7.02945 7.02945C11.5303 2.52858 17.6348 0 24 0Z" fill="url(#paint0_linear)"/>
<path d="M23.6871 9.29158L36.9252 33.1354C37.1392 33.5208 36.8684 34 36.4367 34H17.6184C17.1746 34 16.9056 33.4964 17.1439 33.1115L19.8732 28.7036C19.9764 28.5368 20.1554 28.4359 20.3477 28.4359H26.6663C27.0975 28.4359 27.3683 27.9578 27.1555 27.5724L23.6846 21.2872C23.4707 20.8998 22.9288 20.8962 22.71 21.2806L19.4988 26.9213C19.3979 27.0985 19.2131 27.2074 19.0133 27.2074H13.5633C13.1297 27.2074 12.8591 26.7244 13.0769 26.339L22.7122 9.28777C22.9299 8.90239 23.4722 8.90451 23.6871 9.29158Z" fill="white"/>
<defs>
<linearGradient id="paint0_linear" x1="11.5" y1="2" x2="37.5" y2="48" gradientUnits="userSpaceOnUse">
<stop stop-color="#D900D5"/>
<stop offset="1" stop-color="#2A0E8C"/>
</linearGradient>
</defs>
</svg>
