<svg width="24" height="24" viewBox="0 0 24 24" fill="none" xmlns="http://www.w3.org/2000/svg">
<path d="M12 0C15.1826 0 18.2348 1.26429 20.4853 3.51472C22.7357 5.76516 24 8.8174 24 12C24 15.1826 22.7357 18.2348 20.4853 20.4853C18.2348 22.7357 15.1826 24 12 24C8.8174 24 5.76516 22.7357 3.51472 20.4853C1.26429 18.2348 0 15.1826 0 12C0 8.8174 1.26429 5.76516 3.51472 3.51472C5.76516 1.26429 8.8174 0 12 0Z" fill="url(#paint0_linear)"/>
<path d="M11.8435 4.64579L18.4626 16.5677C18.5696 16.7604 18.4342 17 18.2183 17H8.80922C8.5873 17 8.45281 16.7482 8.57196 16.5558L9.93659 14.3518C9.98821 14.2684 10.0777 14.2179 10.1739 14.2179H13.3332C13.5487 14.2179 13.6842 13.9789 13.5777 13.7862L11.8423 10.6436C11.7353 10.4499 11.4644 10.4481 11.355 10.6403L9.74938 13.4606C9.69893 13.5492 9.60654 13.6037 9.50664 13.6037H6.78166C6.56484 13.6037 6.42957 13.3622 6.53846 13.1695L11.3561 4.64388C11.465 4.45119 11.7361 4.45225 11.8435 4.64579Z" fill="white"/>
<defs>
<linearGradient id="paint0_linear" x1="5.75" y1="1" x2="18.75" y2="24" gradientUnits="userSpaceOnUse">
<stop stop-color="#D900D5"/>
<stop offset="1" stop-color="#2A0E8C"/>
</linearGradient>
</defs>
</svg>
