<svg xmlns="http://www.w3.org/2000/svg" viewBox="0 0 48 48"><defs><style>.cls-1{fill:#e84142;}.cls-2{fill:#fff;}</style></defs><title>AVAX</title><g id="Layer_2" data-name="Layer 2"><g id="Layer_1-2" data-name="Layer 1"><circle class="cls-1" cx="24" cy="24" r="24"/><path class="cls-2" d="M32.47,24.62c.83-1.43,2.17-1.43,3,0l5.18,9.09c.83,1.44.15,2.61-1.51,2.61H28.71c-1.65,0-2.33-1.17-1.52-2.61Zm-10-17.5c.83-1.43,2.15-1.43,3,0L26.59,9.2,29.31,14a5,5,0,0,1,0,4.33L20.18,34.13a4.79,4.79,0,0,1-3.74,2.19H8.86c-1.66,0-2.34-1.15-1.51-2.61Z"/></g></g></svg>