<svg width="24" height="24" viewBox="0 0 24 24" fill="none" xmlns="http://www.w3.org/2000/svg">
<path d="M12 0C15.1826 0 18.2348 1.26429 20.4853 3.51472C22.7357 5.76516 24 8.8174 24 12C24 15.1826 22.7357 18.2348 20.4853 20.4853C18.2348 22.7357 15.1826 24 12 24C8.8174 24 5.76516 22.7357 3.51472 20.4853C1.26429 18.2348 0 15.1826 0 12C0 8.8174 1.26429 5.76516 3.51472 3.51472C5.76516 1.26429 8.8174 0 12 0Z" fill="url(#paint0_linear)"/>
<path d="M7.12112 7.25995L11.7414 10.3228L10.5776 11.2315L7.30038 9.11658C7.14075 9.01357 6.92863 9.11248 6.90408 9.30139L6.7783 10.2694C6.63931 11.3391 6.63642 12.1626 6.76971 13.2331L6.90204 14.2958C6.92658 14.4928 7.15341 14.5904 7.31245 14.4723L16.9618 7.56799C17.9736 6.8168 19.4085 7.52353 19.4358 8.78653L19.5 11.7507L19.4319 15.0312C19.4059 16.2831 17.9937 16.9941 16.9786 16.2663L12.5172 12.9712L13.5517 12.1923L16.6926 14.4827C17.0204 14.7105 17.4709 14.4962 17.5027 14.0972L17.6104 12.7456C17.6631 12.0834 17.6642 11.418 17.6134 10.7555L17.504 9.328C17.4726 8.91758 17.0006 8.70533 16.6746 8.95501L6.04046 16.8392C5.5478 17.2165 4.83506 16.8904 4.79559 16.2696L4.5 11.8805L4.71746 8.46057C4.79338 7.26645 6.12647 6.60058 7.12112 7.25995Z" fill="white"/>
<defs>
<linearGradient id="paint0_linear" x1="6.25" y1="-3.5" x2="19" y2="30.5" gradientUnits="userSpaceOnUse">
<stop stop-color="#08FBFE"/>
<stop offset="1" stop-color="#2334FA"/>
</linearGradient>
</defs>
</svg>
