<svg width="48" height="48" viewBox="0 0 48 48" fill="none" xmlns="http://www.w3.org/2000/svg">
<path d="M24 0C30.3652 0 36.4697 2.52858 40.9706 7.02945C45.4714 11.5303 48 17.6348 48 24C48 30.3652 45.4714 36.4697 40.9706 40.9706C36.4697 45.4714 30.3652 48 24 48C17.6348 48 11.5303 45.4714 7.02945 40.9706C2.52858 36.4697 0 30.3652 0 24C0 17.6348 2.52858 11.5303 7.02945 7.02945C11.5303 2.52858 17.6348 0 24 0Z" fill="url(#paint0_linear)"/>
<path d="M14.2422 14.5199L23.4828 20.6456L21.1552 22.4629L14.6008 18.2332C14.2815 18.0271 13.8573 18.225 13.8082 18.6028L13.5566 20.5389C13.2786 22.6783 13.2728 24.3253 13.5394 26.4661L13.8041 28.5916C13.8532 28.9856 14.3068 29.1808 14.6249 28.9446L33.9235 15.136C35.9471 13.6336 38.8169 15.0471 38.8716 17.5731L39 23.5014L38.8638 30.0624C38.8119 32.5662 35.9873 33.9882 33.9572 32.5326L25.0345 25.9424L27.1034 24.3847L33.3853 28.9655C34.0408 29.4211 34.9417 28.9923 35.0053 28.1945L35.2207 25.4913C35.3263 24.1667 35.3283 22.8359 35.2268 21.511L35.008 18.656C34.9451 17.8352 34.0012 17.4107 33.3491 17.91L12.0809 33.6785C11.0956 34.4331 9.67012 33.7808 9.59118 32.5393L9 23.761L9.43491 16.9211C9.58677 14.5329 12.2529 13.2012 14.2422 14.5199Z" fill="white"/>
<defs>
<linearGradient id="paint0_linear" x1="12.5" y1="-7" x2="38" y2="61" gradientUnits="userSpaceOnUse">
<stop stop-color="#08FBFE"/>
<stop offset="1" stop-color="#2334FA"/>
</linearGradient>
</defs>
</svg>
