<?xml version="1.0" encoding="UTF-8" standalone="no"?><!DOCTYPE svg PUBLIC "-//W3C//DTD SVG 1.1//EN" "http://www.w3.org/Graphics/SVG/1.1/DTD/svg11.dtd"><svg width="25px" height="25px" version="1.1" xmlns="http://www.w3.org/2000/svg" xmlns:xlink="http://www.w3.org/1999/xlink" xml:space="preserve" xmlns:serif="http://www.serif.com/" style="fill-rule:evenodd;clip-rule:evenodd;stroke-linejoin:round;stroke-miterlimit:2;"><g id="Layer_2"><g id="Layer_1-2"><circle cx="12.656" cy="12.386" r="12" style="fill:rgb(0,32,107);"/><path d="M12.181,3.386l0.935,0c0.98,0.056 1.946,0.267 2.86,0.625c3.401,1.356 5.645,4.666 5.645,8.328c-0,4.918 -4.047,8.965 -8.965,8.965c-4.918,-0 -8.965,-4.047 -8.965,-8.965c-0,-4.74 3.758,-8.702 8.49,-8.953m-0.56,0.41c-4.311,0.539 -7.582,4.244 -7.582,8.588c0,4.485 3.487,8.265 7.957,8.627c1.93,0.148 3.854,-0.359 5.46,-1.44c2.404,-1.599 3.852,-4.302 3.852,-7.189c-0,-2.933 -1.495,-5.673 -3.962,-7.261c-1.693,-1.101 -3.721,-1.57 -5.725,-1.325Z" style="fill:white;fill-rule:nonzero;"/><path d="M11.836,7.336c1.591,-0.259 3.214,0.252 4.37,1.375c0.995,0.963 1.557,2.29 1.557,3.675c0,1.385 -0.562,2.712 -1.557,3.675c-0.951,0.922 -2.225,1.438 -3.549,1.438c-1.677,-0 -3.25,-0.827 -4.201,-2.208c-0.593,-0.855 -0.91,-1.871 -0.91,-2.911c-0,-2.495 1.827,-4.644 4.29,-5.044m0.315,0.315l0,1.34l0.67,0l0,-1.375c-0.225,0 -0.445,0 -0.67,0.035m1.61,1.36c0.606,0.024 1.193,0.222 1.69,0.57c0.305,0.296 0.477,0.703 0.477,1.127c0,0.539 -0.277,1.041 -0.732,1.328c0.552,0.095 1.006,0.492 1.175,1.025c0.205,0.746 -0.003,1.548 -0.545,2.1c-0.613,0.4 -1.332,0.609 -2.065,0.6l0,1.26c1.517,-0.379 2.761,-1.47 3.335,-2.925c0.524,-1.351 0.401,-2.871 -0.335,-4.12c-0.666,-1.11 -1.745,-1.912 -3,-2.23l0,1.265m-4.465,0c0.645,0.03 1.295,0.025 1.945,0l0,-1.18c-0.72,0.249 -1.38,0.644 -1.94,1.16m-0.08,0.05c-0.253,0.303 -0.48,0.625 -0.68,0.965c-0.766,1.325 -0.844,2.942 -0.21,4.335c0.566,1.23 1.622,2.168 2.91,2.585l0,-1.18l-1.955,0c0.015,-0.362 0.087,-0.72 0.215,-1.06c0.321,0.032 0.645,0.013 0.96,-0.055c0.18,-0.15 0.13,-0.4 0.14,-0.605l0,-3.55c0.021,-0.2 -0.11,-0.386 -0.305,-0.435c-0.331,-0.045 -0.666,-0.06 -1,-0.045c-0.03,-0.267 -0.045,-0.536 -0.045,-0.805c0.002,-0.046 -0.006,-0.092 -0.025,-0.135l-0.005,-0.015Zm2.965,1l0,1.74c0.593,0.072 1.195,-0.025 1.735,-0.28c0.19,-0.141 0.301,-0.364 0.301,-0.601c0,-0.254 -0.128,-0.491 -0.341,-0.629c-0.536,-0.219 -1.12,-0.298 -1.695,-0.23m0,2.68l0,1.935c0.715,-0.055 1.525,0.065 2.15,-0.37c0.192,-0.148 0.305,-0.378 0.305,-0.621c-0,-0.272 -0.142,-0.526 -0.375,-0.669c-0.625,-0.375 -1.385,-0.255 -2.08,-0.275m-0.03,3.055l0,1.345l0.7,0.03l0,-1.375l-0.7,0Z" style="fill:white;fill-rule:nonzero;"/><path d="M11.656,4.261c0.338,-0.042 0.678,-0.063 1.018,-0.063c4.487,-0 8.18,3.692 8.18,8.18c0,4.43 -3.599,8.096 -8.028,8.178c-1.901,0.057 -3.763,-0.559 -5.255,-1.74c-1.973,-1.55 -3.127,-3.924 -3.127,-6.432c0,-4.124 3.118,-7.635 7.212,-8.123m-0.255,2.625c-2.544,0.587 -4.362,2.871 -4.362,5.481c0,3.086 2.54,5.625 5.625,5.625c2.066,0 3.972,-1.137 4.952,-2.956c0.442,-0.82 0.673,-1.737 0.673,-2.669c0,-3.085 -2.539,-5.625 -5.625,-5.625c-0.425,0 -0.849,0.049 -1.263,0.144Z" style="fill:rgb(235,168,9);fill-rule:nonzero;"/></g></g></svg>