<svg xmlns="http://www.w3.org/2000/svg" viewBox="0 0 48 48"><defs><style>.cls-1{fill:#8dc351;}.cls-2{fill:#fff;}</style></defs><title>Bit Cash</title><g id="Layer_2" data-name="Layer 2"><g id="Layer_1-2" data-name="Layer 1"><circle class="cls-1" cx="24" cy="24" r="24"/><path class="cls-2" d="M31.8,15.75c-1.2-3-4.05-3.15-7.5-2.55L23.1,9l-2.55.75,1.2,4.05c-.6.15-1.35.45-2.1.6l-1.2-4.2L15.9,11l1.2,4.2c-.6.15-1.05.3-1.65.45h0L12,16.8l.75,2.7s1.95-.6,1.8-.6a1.33,1.33,0,0,1,1.8.75l1.35,4.8H18l-.3.15,1.95,6.75a1.13,1.13,0,0,1-.75,1.2l-1.8.6.3,3.15,3.3-.9L22.5,35l1.2,4.2,2.55-.75-1.2-4.2a11,11,0,0,0,2.1-.6l1.2,4.2,2.55-.75-1.2-4.2c4.2-1.5,6.9-3.45,6.15-7.65-.6-3.3-2.55-4.35-5.25-4.2,1.5-1.5,2.1-3,1.2-5.25ZM30.9,26c.9,3.15-4.65,4.35-6.45,4.95L22.8,25.2c1.8-.45,7.05-2.55,8.1.75ZM27.3,18.3c.9,2.85-3.75,3.9-5.25,4.35l-1.5-5.1c1.5-.45,6-2.25,6.75.75Z"/></g></g></svg>