<svg width="48" height="48" viewBox="0 0 48 48" fill="none" xmlns="http://www.w3.org/2000/svg">
<circle cx="24" cy="24" r="24" fill="#F3BA2F"/>
<path d="M20.1158 22.4042L24 18.52L27.886 22.4058L30.146 20.1458L24 14L17.856 20.144L20.1159 22.404L20.1158 22.4042ZM14 24L16.2601 21.7396L18.52 23.9995L16.2599 26.2596L14 24ZM20.1158 25.5961L24 29.48L27.8859 25.5942L30.1471 27.853L30.146 27.8542L24 34L17.856 27.856L17.8528 27.8528L20.1161 25.5958L20.1158 25.5961ZM29.48 24.001L31.7401 21.7409L34 24.0008L31.74 26.2609L29.48 24.001Z" fill="white"/>
<path d="M26.2922 23.9988H26.2931L24 21.7056L22.3051 23.4L22.1103 23.5948L21.7087 23.9965L21.7055 23.9996L21.7087 24.0029L24 26.2945L26.2933 24.0012L26.2944 24L26.2923 23.9988" fill="white"/>
</svg>
