<svg width="48" height="48" viewBox="0 0 48 48" fill="none" xmlns="http://www.w3.org/2000/svg">
<path d="M48 24.001C48 37.2533 37.254 47.9981 23.9942 48C10.7441 48 -0.00191928 37.2533 1.02915e-06 23.999C-0.00383959 10.7448 10.7422 0 23.9981 0C37.254 0 48 10.7467 48 24.001V24.001Z" fill="#EAB300"/>
<path d="M33.4433 18.1214C33.1342 14.9072 30.3593 13.8301 26.8528 13.5228V9.0625H24.1395V13.4038C23.427 13.4038 22.6973 13.4172 21.9733 13.4326V9.0625H19.26L19.258 13.519C18.6704 13.5305 18.0924 13.542 17.5298 13.542V13.5286L13.7871 13.5267V16.426C13.7871 16.426 15.7919 16.3876 15.7573 16.4241C16.8576 16.4241 17.2148 17.0615 17.3185 17.6126V22.6931C17.3953 22.6931 17.4933 22.697 17.6046 22.7123H17.3185L17.3166 29.8301C17.2686 30.1757 17.065 30.7267 16.2969 30.7286C16.3315 30.7594 14.3248 30.7286 14.3248 30.7286L13.7852 33.9697H17.3185C17.9753 33.9697 18.6224 33.9813 19.2561 33.9851L19.258 38.4954H21.9695V34.0331C22.7127 34.0485 23.4328 34.0542 24.1375 34.0542L24.1356 38.4954H26.849V33.9947C31.4117 33.7336 34.609 32.5834 35.0046 28.2978C35.3252 24.8475 33.7026 23.3056 31.1121 22.6835C32.6887 21.8848 33.6738 20.4735 33.4433 18.1214V18.1214ZM29.645 27.764C29.645 31.1338 23.8745 30.7517 22.0329 30.7517V24.7745C23.8745 24.7783 29.645 24.2503 29.645 27.764V27.764ZM28.3814 19.333C28.3814 22.3994 23.5653 22.0403 22.0329 22.0422V16.6238C23.5672 16.6238 28.3833 16.1361 28.3814 19.333Z" fill="white"/>
<path d="M17.3223 22.5742H17.7255V22.8719H17.3223V22.5742Z" fill="white"/>
</svg>
