<svg width="48" height="48" viewBox="0 0 48 48" fill="none" xmlns="http://www.w3.org/2000/svg">
<circle cx="24" cy="24" r="24" fill="#F7931A"/>
<path d="M31.5153 22.0404C31.8297 19.9388 30.2296 18.8091 28.0417 18.0555L28.7514 15.2087L27.0186 14.7768L26.3276 17.5486C25.8721 17.4351 25.4042 17.328 24.9393 17.2219L25.6352 14.4319L23.9033 14L23.1931 16.8458C22.816 16.7599 22.4459 16.675 22.0866 16.5857L22.0885 16.5768L19.6988 15.9801L19.2378 17.8309C19.2378 17.8309 20.5235 18.1256 20.4963 18.1438C21.1982 18.319 21.325 18.7835 21.3038 19.1516L20.4954 22.3947C20.5437 22.4071 20.6064 22.4248 20.6755 22.4525C20.6178 22.4382 20.5561 22.4224 20.4924 22.4071L19.3592 26.9502C19.2733 27.1634 19.0557 27.4832 18.5651 27.3618C18.5824 27.387 17.3056 27.0474 17.3056 27.0474L16.4453 29.031L18.7003 29.5931C19.1198 29.6982 19.531 29.8083 19.9357 29.912L19.2186 32.7913L20.9494 33.2232L21.6596 30.3744C22.1325 30.5027 22.5915 30.6212 23.0406 30.7327L22.3328 33.5681L24.0657 34L24.7828 31.1261C27.7377 31.6853 29.9596 31.4597 30.8949 28.7872C31.6485 26.6353 30.8574 25.394 29.3027 24.5846C30.4349 24.3235 31.2877 23.5788 31.5153 22.0404ZM27.556 27.5923C27.0205 29.7441 23.3974 28.5809 22.2228 28.2892L23.1743 24.4745C24.349 24.7677 28.1157 25.3481 27.556 27.5923ZM28.092 22.0093C27.6034 23.9667 24.5878 22.9722 23.6096 22.7284L24.4724 19.2686C25.4506 19.5124 28.6009 19.9675 28.092 22.0093Z" fill="white"/>
</svg>
