<svg width="24" height="24" viewBox="0 0 24 24" fill="none" xmlns="http://www.w3.org/2000/svg">
<g clip-path="url(#clip0)">
<path d="M23.6263 14.9204C22.0237 21.3491 15.5125 25.2614 9.0831 23.6583C2.6564 22.0556 -1.25594 15.5441 0.34745 9.11594C1.94943 2.68661 8.4606 -1.22603 14.888 0.376659C21.3169 1.97935 25.229 8.49162 23.6262 14.9206L23.6263 14.9204H23.6263Z" fill="#F7931A"/>
<path d="M17.2984 10.2903C17.5373 8.6934 16.3215 7.83498 14.659 7.26233L15.1983 5.09914L13.8815 4.77103L13.3565 6.87726C13.0103 6.79092 12.6548 6.70957 12.3014 6.62892L12.8303 4.50878L11.5143 4.18066L10.9747 6.34315C10.6882 6.27793 10.4068 6.21347 10.1338 6.14554L10.1354 6.13874L8.31947 5.68528L7.96919 7.09171C7.96919 7.09171 8.94614 7.31565 8.92556 7.32944C9.45879 7.46252 9.55522 7.81551 9.5392 8.09529L8.92485 10.5597C8.96157 10.569 9.0092 10.5825 9.06175 10.6036C9.01782 10.5927 8.97107 10.5808 8.92256 10.5692L8.06145 14.0214C7.99629 14.1834 7.83088 14.4266 7.45807 14.3342C7.47127 14.3534 6.501 14.0954 6.501 14.0954L5.84723 15.6027L7.56083 16.0299C7.87962 16.1098 8.19202 16.1935 8.49966 16.2721L7.95476 18.4601L9.27004 18.7883L9.80966 16.6235C10.169 16.721 10.5177 16.811 10.8591 16.8958L10.3212 19.0504L11.6381 19.3785L12.183 17.1946C14.4284 17.6196 16.1168 17.4482 16.8274 15.4172C17.4001 13.7821 16.7989 12.8389 15.6176 12.2238C16.478 12.0254 17.1261 11.4595 17.2989 10.2905L17.2985 10.2902L17.2984 10.2903ZM14.2898 14.5091C13.8829 16.1443 11.1297 15.2604 10.2371 15.0387L10.9602 12.14C11.8528 12.3628 14.7151 12.8038 14.2899 14.5091H14.2898ZM14.6971 10.2666C14.3259 11.754 12.0344 10.9984 11.291 10.8131L11.9466 8.1841C12.69 8.36939 15.0838 8.71522 14.6972 10.2666H14.6971Z" fill="white"/>
</g>
<defs>
<clipPath id="clip0">
<rect width="24" height="24" fill="white"/>
</clipPath>
</defs>
</svg>
