<svg width="48" height="48" viewBox="0 0 48 48" fill="none" xmlns="http://www.w3.org/2000/svg">
<g clip-path="url(#clip0)">
<path d="M22.7296 0H25.2305C27.8394 0.172807 30.4339 0.693628 32.858 1.67287C38.8582 4.03217 43.8097 8.92597 46.2265 14.907C49.5531 22.8705 48.125 32.5837 42.5712 39.2104C38.8126 43.8234 33.2852 46.9651 27.3858 47.7644C21.8487 48.554 16.0381 47.3611 11.3003 44.3682C7.64736 42.0929 4.62324 38.8192 2.66475 34.9838C0.151851 30.1668 -0.611381 24.4738 0.492665 19.16C1.67351 13.2701 5.18966 7.89632 10.0931 4.43298C13.7652 1.77607 18.2174 0.280812 22.7296 0ZM21.2415 1.08724C13.9404 1.92488 7.22974 6.52347 3.7496 12.9893C1.3951 17.2879 0.454263 22.3569 1.16469 27.2123C1.96873 33.059 5.14886 38.5288 9.80505 42.1481C13.35 44.9442 17.735 46.6603 22.2376 46.9963C27.3378 47.4019 32.5604 46.0411 36.7942 43.1682C41.9856 39.7312 45.6697 34.1102 46.7282 27.9732C47.3378 24.3562 47.1314 20.588 46.0129 17.0911C44.4169 12.0053 40.9967 7.50991 36.5085 4.62979C32.0468 1.70167 26.5385 0.432018 21.2415 1.08724Z" fill="#00206B"/>
<path d="M21.8204 10.5386C25.9941 9.84017 30.4703 11.2082 33.4729 14.2035C36.137 16.7188 37.6922 20.3742 37.6154 24.0392C37.6682 27.6849 36.1058 31.3115 33.4537 33.8052C30.5663 36.6757 26.3206 38.0461 22.2956 37.5157C18.5034 37.0597 14.9537 34.9044 12.7984 31.7483C10.4127 28.3689 9.75508 23.8711 10.9935 19.9326C12.4432 15.0844 16.821 11.2946 21.8204 10.5386ZM22.6532 11.369C22.6556 12.5619 22.658 13.7547 22.6556 14.9476C23.2508 14.9476 23.8461 14.9476 24.4413 14.95C24.4437 13.7259 24.4461 12.5019 24.4413 11.2802C23.8461 11.2994 23.2484 11.3282 22.6532 11.369V11.369ZM26.947 15.0052C28.5142 15.2164 30.1991 15.4564 31.4496 16.5148C33.3576 18.2285 33.1104 21.8263 30.7751 23.0695C32.1744 23.3959 33.5593 24.3296 33.9049 25.7984C34.3537 27.7257 33.9961 30.0394 32.448 31.3979C30.9143 32.6603 28.8383 32.8259 26.9422 33.0059C26.9518 34.122 26.947 35.238 26.9446 36.3565C30.9359 35.3796 34.3801 32.4083 35.8442 28.5633C37.2338 25.016 36.905 20.8422 34.9441 17.5757C33.2112 14.6284 30.2639 12.4635 26.9542 11.633C26.9446 12.7563 26.9446 13.8795 26.947 15.0052V15.0052ZM15.0353 14.9572C16.7634 15.0412 18.4938 15.022 20.2243 15.0196C20.2243 13.9659 20.2267 12.9147 20.2195 11.861C18.2826 12.4899 16.557 13.6179 15.0353 14.9572ZM14.8289 15.0964C14.3705 15.6604 13.5208 16.726 13.0168 17.6693C10.9839 21.1326 10.7535 25.5776 12.4504 29.221C13.9144 32.4875 16.8186 35.0292 20.2195 36.1236C20.2243 35.0724 20.2219 34.0212 20.2219 32.9723C18.4866 32.9555 16.7466 33.0179 15.0137 32.9243C15.0329 31.9571 15.2609 31.0114 15.5897 30.0994C16.4394 30.0826 17.325 30.2314 18.1458 29.953C18.6258 29.5498 18.489 28.8826 18.5154 28.3305C18.489 25.1744 18.5274 22.0183 18.4986 18.8645C18.5298 18.3557 18.2106 17.8061 17.6826 17.7053C16.8114 17.5301 15.9137 17.5997 15.0329 17.5925C14.9297 16.8821 14.9177 16.1644 14.9081 15.4468C14.9081 15.4468 14.9201 15.2212 14.8433 15.0748L14.8289 15.0964V15.0964ZM22.7276 17.8085V22.4599C24.2805 22.4311 26.0037 22.6039 27.3622 21.7015C28.4902 20.9622 28.4182 19.0925 27.2542 18.4277C25.8933 17.6237 24.2349 17.8517 22.7276 17.8085V17.8085ZM22.7276 24.9632V30.1234C24.6453 29.9698 26.7958 30.2914 28.4638 29.1346C29.6567 28.3425 29.5127 26.3816 28.2838 25.6952C26.6134 24.6968 24.5829 25.0136 22.7276 24.9632V24.9632ZM22.658 33.0419C22.658 34.2348 22.6556 35.43 22.6532 36.6229C23.2748 36.6637 23.8941 36.6877 24.5157 36.7069C24.5205 35.4852 24.5181 34.2636 24.5181 33.0419H22.658V33.0419Z" fill="#00206B"/>
<path d="M21.38 2.33337C25.585 1.88215 29.9387 2.52298 33.7165 4.46226C38.5767 6.84556 42.4625 11.1297 44.3777 16.1915C46.3314 21.2606 46.2882 27.0592 44.2649 32.1042C41.188 40.0557 33.0637 45.7728 24.5097 45.7848C19.4863 45.9672 14.4317 44.2775 10.4979 41.1526C6.30256 37.8908 3.40085 33.0162 2.50561 27.7768C1.59117 22.5878 2.61601 17.0748 5.39053 12.589C8.78187 6.96316 14.8565 3.075 21.38 2.33337ZM20.648 9.37526C17.2302 10.1457 14.1053 12.1642 12.01 14.9747C9.6963 18.018 8.63546 21.9758 9.10828 25.7655C9.5523 29.8217 11.7676 33.6475 15.0629 36.05C18.1471 38.3685 22.1552 39.3861 25.9714 38.8629C30.6876 38.2869 35.0245 35.2843 37.2254 31.0722C38.8743 28.0672 39.3255 24.4959 38.7207 21.1429C37.9503 17.0772 35.411 13.3834 31.878 11.2281C28.5707 9.16885 24.4425 8.50883 20.648 9.37526V9.37526Z" fill="#EBA809"/>
</g>
<defs>
<clipPath id="clip0">
<rect width="48" height="48" fill="white"/>
</clipPath>
</defs>
</svg>
