<svg width="24" height="24" viewBox="0 0 24 24" fill="none" xmlns="http://www.w3.org/2000/svg">
<g clip-path="url(#clip0)">
<path d="M11.3648 0H12.6152C13.9197 0.0864036 15.2169 0.346814 16.429 0.836434C19.4291 2.01608 21.9048 4.46298 23.1133 7.45351C24.7765 11.4353 24.0625 16.2919 21.2856 19.6052C19.4063 21.9117 16.6426 23.4826 13.6929 23.8822C10.9244 24.277 8.01905 23.6806 5.65016 22.1841C3.82368 21.0465 2.31162 19.4096 1.33238 17.4919C0.0759255 15.0834 -0.30569 12.2369 0.246332 9.57999C0.836757 6.63507 2.59483 3.94816 5.04653 2.21649C6.88261 0.888037 9.1087 0.140406 11.3648 0ZM10.6208 0.543622C6.97021 0.96244 3.61487 3.26173 1.8748 6.49467C0.697551 8.64396 0.227132 11.1785 0.582346 13.6062C0.984363 16.5295 2.57443 19.2644 4.90252 21.0741C6.675 22.4721 8.86749 23.3302 11.1188 23.4982C13.6689 23.701 16.2802 23.0205 18.3971 21.5841C20.9928 19.8656 22.8349 17.0551 23.3641 13.9866C23.6689 12.1781 23.5657 10.294 23.0065 8.54555C22.2084 6.00265 20.4984 3.75495 18.2543 2.3149C16.0234 0.850835 13.2693 0.216009 10.6208 0.543622Z" fill="#00206B"/>
<path d="M10.9112 5.2693C12.998 4.92008 15.2361 5.60411 16.7374 7.10177C18.0695 8.35942 18.8471 10.1871 18.8087 12.0196C18.8351 13.8425 18.0539 15.6557 16.7278 16.9026C15.2841 18.3378 13.1613 19.0231 11.1488 18.7579C9.25269 18.5298 7.47782 17.4522 6.40018 15.8741C5.20733 14.1845 4.87851 11.9356 5.49774 9.96629C6.22257 7.54219 8.41146 5.64731 10.9112 5.2693ZM11.3276 5.68451C11.3288 6.28094 11.33 6.87736 11.3288 7.47379C11.6264 7.47379 11.924 7.47379 12.2216 7.47499C12.2228 6.86296 12.224 6.25094 12.2216 5.64011C11.924 5.64971 11.6252 5.66411 11.3276 5.68451V5.68451ZM13.4745 7.50259C14.2581 7.60819 15.1005 7.7282 15.7258 8.25742C16.6798 9.11426 16.5562 10.9131 15.3885 11.5348C16.0882 11.698 16.7806 12.1648 16.9534 12.8992C17.1778 13.8629 16.999 15.0197 16.225 15.6989C15.4582 16.3302 14.4201 16.413 13.4721 16.503C13.4769 17.061 13.4745 17.619 13.4733 18.1782C15.469 17.6898 17.191 16.2041 17.9231 14.2817C18.6179 12.508 18.4535 10.4211 17.473 8.78784C16.6066 7.31418 15.1329 6.23174 13.4781 5.81652C13.4733 6.37814 13.4733 6.93977 13.4745 7.50259V7.50259ZM7.51862 7.47859C8.38266 7.52059 9.24789 7.51099 10.1131 7.50979C10.1131 6.98297 10.1143 6.45735 10.1107 5.93052C9.14229 6.24494 8.27945 6.80896 7.51862 7.47859ZM7.41542 7.54819C7.18621 7.8302 6.76139 8.36302 6.50938 8.83464C5.49294 10.5663 5.37774 12.7888 6.22617 14.6105C6.9582 16.2437 8.41026 17.5146 10.1107 18.0618C10.1131 17.5362 10.1119 17.0106 10.1119 16.4862C9.24429 16.4778 8.37426 16.509 7.50782 16.4622C7.51742 15.9785 7.63143 15.5057 7.79583 15.0497C8.22065 15.0413 8.66347 15.1157 9.07389 14.9765C9.3139 14.7749 9.24549 14.4413 9.25869 14.1653C9.24549 12.5872 9.2647 11.0091 9.25029 9.43227C9.2659 9.17786 9.10629 8.90305 8.84228 8.85264C8.40666 8.76504 7.95784 8.79984 7.51742 8.79624C7.46582 8.44103 7.45982 8.08221 7.45502 7.7234C7.45502 7.7234 7.46102 7.61059 7.42262 7.53739L7.41542 7.54819V7.54819ZM11.3648 8.90425V11.2299C12.1412 11.2155 13.0028 11.3019 13.6821 10.8507C14.2461 10.4811 14.2101 9.54627 13.6281 9.21386C12.9476 8.81184 12.1184 8.92585 11.3648 8.90425V8.90425ZM11.3648 12.4816V15.0617C12.3236 14.9849 13.3989 15.1457 14.2329 14.5673C14.8293 14.1713 14.7573 13.1908 14.1429 12.8476C13.3077 12.3484 12.2924 12.5068 11.3648 12.4816V12.4816ZM11.33 16.521C11.33 17.1174 11.3288 17.715 11.3276 18.3114C11.6384 18.3318 11.948 18.3438 12.2588 18.3534C12.2612 17.7426 12.26 17.1318 12.26 16.521H11.33V16.521Z" fill="#00206B"/>
<path d="M10.69 1.16669C12.7925 0.941077 14.9694 1.26149 16.8582 2.23113C19.2883 3.42278 21.2312 5.56487 22.1889 8.09577C23.1657 10.6303 23.1441 13.5296 22.1325 16.0521C20.594 20.0279 16.5318 22.8864 12.2549 22.8924C9.74315 22.9836 7.21585 22.1388 5.24897 20.5763C3.15128 18.9454 1.70042 16.5081 1.2528 13.8884C0.795585 11.2939 1.30801 8.53739 2.69526 6.2945C4.39093 3.48158 7.42826 1.5375 10.69 1.16669ZM10.324 4.68763C8.61511 5.07285 7.05264 6.08209 6.005 7.48735C4.84815 9.00901 4.31773 10.9879 4.55414 12.8828C4.77615 14.9109 5.88379 16.8237 7.53146 18.025C9.07353 19.1842 11.0776 19.693 12.9857 19.4314C15.3438 19.1434 17.5123 17.6422 18.6127 15.5361C19.4372 14.0336 19.6628 12.2479 19.3604 10.5715C18.9751 8.53859 17.7055 6.69171 15.939 5.61407C14.2853 4.58443 12.2213 4.25441 10.324 4.68763V4.68763Z" fill="#EBA809"/>
</g>
<defs>
<clipPath id="clip0">
<rect width="24" height="24" fill="white"/>
</clipPath>
</defs>
</svg>
