<svg xmlns="http://www.w3.org/2000/svg" viewBox="0 0 48 48"><defs><style>.cls-1{fill:#fff;}</style></defs><title>Bittorrent</title><g id="Layer_2" data-name="Layer 2"><g id="Layer_1-2" data-name="Layer 1"><circle cx="24" cy="24" r="24"/><path class="cls-1" d="M41.61,20.31a17.2,17.2,0,0,0-1-3.36,17.65,17.65,0,0,0-1.66-3,17.72,17.72,0,0,0-4.83-4.83,18.67,18.67,0,0,0-3-1.66A17.94,17.94,0,0,0,9.23,13.9a19.07,19.07,0,0,0-1.65,3,17.8,17.8,0,0,0,0,13.92,18.77,18.77,0,0,0,1.65,3.05,17.85,17.85,0,0,0,2.19,2.64,17.25,17.25,0,0,0,2.64,2.19,19.51,19.51,0,0,0,3,1.65A17.82,17.82,0,0,0,31,40.4a18.28,18.28,0,0,0,3-1.65,17.33,17.33,0,0,0,2.65-2.19,17.78,17.78,0,0,0,2.18-2.64,18.76,18.76,0,0,0,1.66-3.05A17.78,17.78,0,0,0,41.61,20.31ZM24.09,39.58A15.65,15.65,0,1,1,39.74,23.93,15.65,15.65,0,0,1,24.09,39.58Z"/><path class="cls-1" d="M24.37,38.22h.42a.82.82,0,0,0,.22,0h0a.68.68,0,0,0,.2,0h.06a.44.44,0,0,0,.16,0h.06l.18,0h0l.22,0a.69.69,0,0,0,.2,0h0l.16,0h0l.2,0a2.59,2.59,0,0,0,.42-.09h0l.18,0h0l.42-.11a16.08,16.08,0,0,1-4.09-.38A12.91,12.91,0,0,1,18,34.82,11.31,11.31,0,0,1,13.92,26a10.67,10.67,0,0,1,2.51-6.83,10.91,10.91,0,0,1,8.12-3.86H25V12.89H24.5a13.52,13.52,0,0,0-2.76.33,12.85,12.85,0,0,0-2.64.9,13,13,0,0,0-2.43,1.47,12.61,12.61,0,0,0-2.11,2A11.92,11.92,0,0,0,13,19.87a13.1,13.1,0,0,0-1,2.44,13.84,13.84,0,0,0-.49,2.55l-.06.81v.48a14,14,0,0,0,.33,2.75,14.26,14.26,0,0,0,.9,2.65,11.41,11.41,0,0,0,2.52,3.62,14.24,14.24,0,0,0,8.82,3Z"/><path class="cls-1" d="M28.37,35.86a18.89,18.89,0,0,1-2.7-.29,10.32,10.32,0,0,1-8.23-6.48,8,8,0,0,1,5-10.23,7.84,7.84,0,0,1,2.5-.41,8.36,8.36,0,0,1,3.16.63l1-2.19-.93-.35a10.85,10.85,0,0,0-3.25-.49,10.39,10.39,0,0,0-8.25,4.11,10.32,10.32,0,0,0-1.05,1.71,10.4,10.4,0,0,0-.47,8,9.89,9.89,0,0,0,2.2,3.65,11.8,11.8,0,0,0,3.21,2.39,14.46,14.46,0,0,0,4.67,1.31,30.84,30.84,0,0,0,3.43.18c.76-.28,1.07-.4,1.47-.57s.7-.33,1.05-.53.41-.24,1-.63l.15-.11A16.21,16.21,0,0,1,28.37,35.86Z"/><path class="cls-1" d="M32.89,33.13c-.57,0-1.38.09-2.3.09a17.56,17.56,0,0,1-5.34-.72c-2.65-.88-5.14-3.14-5.14-5.93a5,5,0,0,1,5-5h0a5.05,5.05,0,0,1,4.39,2.57L31.71,23a7,7,0,0,0-1.3-1.75,7.45,7.45,0,0,0-10.53,0h0a7.34,7.34,0,0,0-1.54,8.25,9,9,0,0,0,1.59,2.37,11.33,11.33,0,0,0,4.58,2.9,18.55,18.55,0,0,0,6.52.59,13.52,13.52,0,0,0,2-.3,13.74,13.74,0,0,0,2.2-2.18Z"/></g></g></svg>