<?xml version="1.0" encoding="UTF-8" standalone="no"?><!DOCTYPE svg PUBLIC "-//W3C//DTD SVG 1.1//EN" "http://www.w3.org/Graphics/SVG/1.1/DTD/svg11.dtd"><svg width="25px" height="25px" version="1.1" xmlns="http://www.w3.org/2000/svg" xmlns:xlink="http://www.w3.org/1999/xlink" xml:space="preserve" xmlns:serif="http://www.serif.com/" style="fill-rule:evenodd;clip-rule:evenodd;stroke-linejoin:round;stroke-miterlimit:2;"><g id="Layer_2"><g id="Layer_1-2"><circle cx="12.428" cy="12.385" r="12"/><path d="M21.233,10.54c-0.109,-0.575 -0.277,-1.138 -0.5,-1.68c-0.227,-0.525 -0.505,-1.028 -0.83,-1.5c-0.641,-0.954 -1.461,-1.774 -2.415,-2.415c-0.474,-0.322 -0.976,-0.599 -1.5,-0.83c-3.934,-1.677 -8.547,-0.32 -10.945,3.22c-0.32,0.475 -0.596,0.977 -0.825,1.5c-0.945,2.223 -0.945,4.738 -0,6.96c0.227,0.533 0.503,1.044 0.825,1.525c0.322,0.475 0.688,0.917 1.095,1.32c0.402,0.408 0.845,0.775 1.32,1.095c0.475,0.319 0.977,0.595 1.5,0.825c2.222,0.955 4.74,0.964 6.97,0.025c0.525,-0.227 1.027,-0.503 1.5,-0.825c0.477,-0.32 0.921,-0.687 1.325,-1.095c0.405,-0.403 0.77,-0.845 1.09,-1.32c0.323,-0.481 0.601,-0.992 0.83,-1.525c0.72,-1.661 0.915,-3.504 0.56,-5.28Zm-8.76,9.635c-4.293,0 -7.825,-3.532 -7.825,-7.825c-0,-4.292 3.532,-7.825 7.825,-7.825c4.293,0 7.825,3.533 7.825,7.825c-0,4.293 -3.532,7.825 -7.825,7.825Z" style="fill:white;fill-rule:nonzero;"/><path d="M12.613,19.495l0.21,0c0.036,0.005 0.073,0.005 0.11,0c0.033,0.005 0.067,0.005 0.1,0l0.03,0c0.026,0.005 0.053,0.005 0.08,0l0.23,0c0.033,0.005 0.067,0.005 0.1,0l0.18,0c0.071,-0.009 0.141,-0.024 0.21,-0.045l0.09,0l0.21,-0.055c-0.687,0.025 -1.374,-0.039 -2.045,-0.19c-0.996,-0.249 -1.918,-0.732 -2.69,-1.41c-1.308,-1.087 -2.059,-2.708 -2.04,-4.41c0.005,-1.249 0.449,-2.459 1.255,-3.415c1.012,-1.196 2.493,-1.9 4.06,-1.93l0.225,0l-0,-1.21l-0.25,0c-0.465,0.008 -0.927,0.063 -1.38,0.165c-0.455,0.102 -0.898,0.253 -1.32,0.45c-0.431,0.2 -0.838,0.447 -1.215,0.735c-0.389,0.292 -0.743,0.628 -1.055,1c-0.303,0.349 -0.565,0.732 -0.78,1.14c-0.207,0.389 -0.375,0.798 -0.5,1.22c-0.122,0.417 -0.204,0.844 -0.245,1.275l-0.03,0.405l-0,0.24c0.009,0.463 0.065,0.924 0.165,1.375c0.106,0.456 0.257,0.9 0.45,1.325c0.298,0.68 0.726,1.295 1.26,1.81c1.26,0.981 2.814,1.509 4.41,1.5l0.175,0.025Z" style="fill:white;fill-rule:nonzero;"/><path d="M14.613,18.315c-0.453,-0.015 -0.904,-0.064 -1.35,-0.145c-1.856,-0.251 -3.435,-1.494 -4.115,-3.24c-0.149,-0.425 -0.225,-0.872 -0.225,-1.323c-0,-1.714 1.101,-3.245 2.725,-3.792c0.403,-0.135 0.825,-0.204 1.25,-0.205c0.542,0.002 1.079,0.109 1.58,0.315l0.5,-1.095l-0.465,-0.175c-0.526,-0.163 -1.074,-0.246 -1.625,-0.245c-1.619,0.005 -3.147,0.766 -4.125,2.055c-0.203,0.268 -0.378,0.554 -0.525,0.855c-0.609,1.248 -0.694,2.69 -0.235,4c0.23,0.681 0.605,1.304 1.1,1.825c0.463,0.487 1.006,0.891 1.605,1.195c0.736,0.349 1.525,0.57 2.335,0.655c0.569,0.062 1.142,0.092 1.715,0.09c0.38,-0.14 0.535,-0.2 0.735,-0.285c0.2,-0.085 0.35,-0.165 0.525,-0.265c0.175,-0.1 0.205,-0.12 0.5,-0.315l0.075,-0.055c-0.652,0.131 -1.316,0.182 -1.98,0.15Z" style="fill:white;fill-rule:nonzero;"/><path d="M16.873,16.95c-0.285,0 -0.69,0.045 -1.15,0.045c-0.903,0.019 -1.804,-0.103 -2.67,-0.36c-1.325,-0.44 -2.57,-1.57 -2.57,-2.965c-0,-1.371 1.128,-2.5 2.5,-2.5c0.908,0.002 1.749,0.494 2.195,1.285l1.105,-0.57c-0.17,-0.323 -0.389,-0.619 -0.65,-0.875c-1.445,-1.443 -3.82,-1.443 -5.265,0c-1.093,1.076 -1.401,2.728 -0.77,4.125c0.2,0.435 0.469,0.835 0.795,1.185c0.635,0.662 1.42,1.16 2.29,1.45c1.06,0.291 2.164,0.391 3.26,0.295c0.336,-0.024 0.671,-0.075 1,-0.15c0.406,-0.32 0.775,-0.686 1.1,-1.09l-1.17,0.125Z" style="fill:white;fill-rule:nonzero;"/></g></g></svg>