<svg width="48" height="48" viewBox="0 0 48 48" fill="none" xmlns="http://www.w3.org/2000/svg">
<circle cx="24" cy="24" r="24" fill="url(#paint0_linear)"/>
<path d="M17.7853 21.4467L23.9999 15.232L30.2175 21.4493L33.8335 17.8333L23.9999 8L14.1696 17.8304L17.7854 21.4464L17.7853 21.4467ZM8 24L11.6161 20.3834L15.232 23.9992L11.6159 27.6154L8 24ZM17.7853 26.5537L23.9999 32.768L30.2174 26.5508L33.8353 30.1649L33.8335 30.1668L23.9999 40L14.1696 30.1696L14.1645 30.1645L17.7857 26.5533L17.7853 26.5537ZM32.7679 24.0015L36.384 20.3854L39.9999 24.0013L36.3839 27.6174L32.7679 24.0015Z" fill="white"/>
<path d="M27.6667 23.9974H27.6682L23.9993 20.3281L21.2874 23.0393L20.9758 23.351L20.3332 23.9937L20.3281 23.9987L20.3332 24.0039L23.9993 27.6705L27.6685 24.0012L27.6703 23.9992L27.667 23.9974" fill="white"/>
<defs>
<linearGradient id="paint0_linear" x1="32.5" y1="43.5" x2="7" y2="6" gradientUnits="userSpaceOnUse">
<stop stop-color="#F3BA2F"/>
<stop offset="1" stop-color="#FFCE57"/>
</linearGradient>
</defs>
</svg>
