<svg xmlns="http://www.w3.org/2000/svg" viewBox="0 0 48 48"><defs><style>.cls-1{fill:#9290b0;}.cls-2{fill:#633001;}.cls-3{fill:#fedc90;}.cls-4{fill:#d1884f;}</style></defs><title>Cake</title><g id="Layer_2" data-name="Layer 2"><g id="Layer_1-2" data-name="Layer 1"><circle class="cls-1" cx="24" cy="24" r="24"/><path class="cls-2" d="M14.43,13.69a3.93,3.93,0,1,1,7.78-.75v4.87c.56,0,1.13-.09,1.69-.09a9.43,9.43,0,0,1,1.59.09V12.94A4,4,0,0,1,29.43,9a4.06,4.06,0,0,1,3.94,4.69l-1,5.72C36,21,38.8,23.81,38.8,27.28v2.16c0,2.9-1.87,5.34-4.59,6.94A19.63,19.63,0,0,1,23.9,39a19.61,19.61,0,0,1-10.31-2.62c-2.63-1.6-4.5-4-4.5-6.94V27.28c0-3.47,2.71-6.28,6.37-7.87Zm16.5,6.47,1.22-6.75a2.78,2.78,0,0,0-2.72-3.29,2.72,2.72,0,0,0-2.72,2.72V19a5.53,5.53,0,0,0-1.22-.09c-.56,0-1-.1-1.59-.1a9.59,9.59,0,0,0-1.69.1c-.37,0-.84.09-1.22.09V12.94a2.7,2.7,0,1,0-5.34.56l1.22,6.75c-3.94,1.5-6.57,4.13-6.57,7.13v2.15c0,4.6,6.1,8.35,13.6,8.35s13.59-3.75,13.59-8.35V27.38C37.59,24.28,35,21.66,30.93,20.16Z"/><path class="cls-3" d="M37.59,29.44c0,4.59-6.1,8.34-13.6,8.34S10.4,34,10.4,29.44V27.28H37.68v2.16Z"/><path class="cls-4" d="M15.65,13.5A2.7,2.7,0,1,1,21,12.94v6.18c.94-.09,1.88-.18,2.91-.18s1.87.09,2.81.18V12.94a2.72,2.72,0,0,1,2.72-2.72,2.82,2.82,0,0,1,2.72,3.28l-1.22,6.75c3.94,1.5,6.66,4.13,6.66,7.13,0,4.59-6.1,8.34-13.6,8.34S10.4,32,10.4,27.38c0-3,2.62-5.63,6.56-7.13Z"/><path class="cls-2" d="M20.15,26.72c0,1.22-.66,2.25-1.5,2.25s-1.5-1-1.5-2.25.65-2.25,1.5-2.25S20.15,25.5,20.15,26.72Z"/><path class="cls-2" d="M30.55,26.72c0,1.22-.65,2.25-1.5,2.25s-1.5-1-1.5-2.25.66-2.25,1.5-2.25S30.55,25.5,30.55,26.72Z"/></g></g></svg>