<svg xmlns="http://www.w3.org/2000/svg" viewBox="0 0 48 48"><defs><style>.cls-1{fill:#fff;}.cls-2{fill:#262761;}</style></defs><title>Celsius</title><g id="Layer_2" data-name="Layer 2"><g id="Layer_1-2" data-name="Layer 1"><circle class="cls-1" cx="24" cy="24" r="24"/><g id="Page-1"><g id="Celsius_Website_Logo_Filled" data-name="Celsius Website Logo Filled"><circle id="Oval" class="cls-2" cx="35.96" cy="18.69" r="1.16"/><path id="Shape" class="cls-2" d="M24,0A24,24,0,1,0,48,24,24,24,0,0,0,24,0ZM34.88,34a14.87,14.87,0,0,1-11.05,4.9h0A15,15,0,0,1,22.09,9.05,12.67,12.67,0,0,1,23.83,9,14.73,14.73,0,0,1,33,12.12a.63.63,0,0,1,.25.5.76.76,0,0,1-.25.58l-1.58,1.42a1,1,0,0,1-.66.25.9.9,0,0,1-.5-.17,11.18,11.18,0,0,0-14.78,1.83,11,11,0,0,0-2.74,8.8,11.28,11.28,0,0,0,9.88,9.88,6.94,6.94,0,0,0,1.33.08,11.18,11.18,0,0,0,8-3.32,1,1,0,0,1,.66-.25,1.19,1.19,0,0,1,.5.17l1.75,1.16c.16.08.24.25.33.5A1.45,1.45,0,0,0,34.88,34ZM36,22.34a3.66,3.66,0,1,1,3.65-3.65A3.69,3.69,0,0,1,36,22.34Z"/></g></g></g></g></svg>