<svg xmlns="http://www.w3.org/2000/svg" viewBox="0 0 48 48"><defs><style>.cls-1{fill:#002868;}.cls-2{fill:#fbcc5c;}.cls-3{fill:#35d07f;}.cls-4{fill:#5ea33b;}</style></defs><title>CELO</title><g id="Layer_2" data-name="Layer 2"><g id="Layer_1-2" data-name="Layer 1"><circle class="cls-1" cx="24" cy="24" r="24"/><path id="Bottom_Ring" data-name="Bottom Ring" class="cls-2" d="M21.05,34.36A8.11,8.11,0,1,0,13,26.25,8.11,8.11,0,0,0,21.05,34.36Zm0,2.94a11.05,11.05,0,1,1,11.06-11A11,11,0,0,1,21.05,37.3Z"/><path id="Top_Ring" data-name="Top Ring" class="cls-3" d="M27,28.46a8.11,8.11,0,1,0-8.11-8.1A8.1,8.1,0,0,0,27,28.46Zm0,2.95A11.06,11.06,0,1,1,38,20.36,11.06,11.06,0,0,1,27,31.41Z"/><path id="Rings_Overlap" data-name="Rings Overlap" class="cls-4" d="M27.31,31.41a8,8,0,0,0,1.61-3.19,8.21,8.21,0,0,0,3.19-1.6,11.11,11.11,0,0,1-.87,3.93A10.79,10.79,0,0,1,27.31,31.41Zm-8.23-13A8.23,8.23,0,0,0,15.89,20a11.11,11.11,0,0,1,.87-3.93,10.84,10.84,0,0,1,3.93-.86A8,8,0,0,0,19.08,18.38Z"/></g></g></svg>