<svg xmlns="http://www.w3.org/2000/svg" viewBox="0 0 48 48"><defs><style>.cls-1{fill:#1ba987;isolation:isolate;}.cls-2{fill:#fff;}</style></defs><title>Swiss Borg</title><g id="Layer_2" data-name="Layer 2"><g id="Layer_1-2" data-name="Layer 1"><circle class="cls-1" cx="24" cy="24" r="24"/><path class="cls-2" d="M27.68,8.51,25.14,10V22.2l1.39.79V13.67l4.77,2.7h0l.92.53.77-.44v-.73l-6.45-3.65v-1.3l1.15-.66,6.69,3.8V17.3l-3.21,1.81-.11-.05a1.27,1.27,0,0,0-.6-.15h0a1.4,1.4,0,0,0-1.4,1.4v0h0a1.4,1.4,0,0,0,1.39,1.4h0a1.38,1.38,0,0,0,1.37-1.26h0v-.13l3.24-1.83,3,1.71v7.54l-3,1.71L22.84,22.54V10L20.3,8.5l-8.07,4.61v4.18l-3.7,2.1v9.2l3.7,2.11v4.19l8.07,4.59L22.84,38V25.77L21.46,25v9.35L15.77,31.1l-.78.44v.73l6.46,3.65v1.29l-1.16.66-6.68-3.79V30.69l3.21-1.81.11.05a1.36,1.36,0,0,0,.6.14h0a1.38,1.38,0,0,0,1.4-1.38v0h0a1.4,1.4,0,0,0-1.39-1.4h0a1.38,1.38,0,0,0-1.37,1.26h0v.13l-3.24,1.83-3-1.71V20.22l3-1.71,12.21,7V38l2.54,1.46,8.08-4.59v-4.2l3.7-2.1v-9.2l-3.7-2.11V13.11l-8.09-4.6ZM13.62,13.92l6.69-3.79,1.15.66v1.27L13.62,16.5V13.92Zm.73,3.79,7.12-4v8.08l-7.12-4Zm12.19,8.54,7.12,4-7.12,4V26.25Zm0,11V35.94l7.85-4.44v2.58l-6.71,3.79-1.15-.66h0Z"/></g></g></svg>