<svg xmlns="http://www.w3.org/2000/svg" viewBox="0 0 48 48"><defs><style>.cls-1{fill:#fff;}.cls-2{fill:#cd0124;}</style></defs><title>CHZ</title><g id="Layer_2" data-name="Layer 2"><g id="Layer_1-2" data-name="Layer 1"><circle class="cls-1" cx="24" cy="24" r="24"/><path class="cls-2" d="M28.48,25.12c0-.32,0-.48-.32-.64-1.12-.8-2.4-1.6-3.52-2.4a.73.73,0,0,0-.8,0l-3.52,2.56a.87.87,0,0,0-.48.8,1.75,1.75,0,0,1-.32,1,.73.73,0,0,0,0,.8c1.28,2.56,2.4,5.12,3.68,7.68.48.8.8,1.76,1.28,2.72.16-.16.16-.32.32-.48,1.44-3.2,2.72-6.4,4.16-9.6.16-.32.16-.48-.16-.64A2.11,2.11,0,0,1,28.48,25.12Z"/><path class="cls-2" d="M23,21c-3.2-2.24-6.4-4.48-9.44-6.56l-.16.16c.16.32.16.48.32.8l3.36,7.2c.32.64.48,1.28,1.44,1.44a1.48,1.48,0,0,0,.8-.16c1-.8,2.08-1.44,3-2.24Z"/><path class="cls-2" d="M24,0A24,24,0,1,0,48,24,24,24,0,0,0,24,0ZM37,13.92c-.32,0-.48.16-.64.48-1.28,3.2-2.72,6.4-4,9.6v.64a2.08,2.08,0,0,1-1,2.77l-.29.11q-.24,0-.48.48c-1.44,3.2-2.88,6.56-4.16,9.76a.73.73,0,0,0,0,.8,2,2,0,0,1-.32,2.72,2,2,0,0,1-2.56.16A1.84,1.84,0,0,1,23,38.88h0a1,1,0,0,0,0-1c-1.6-3.2-3-6.4-4.64-9.6a1.13,1.13,0,0,0-.8-.64,2.06,2.06,0,0,1-1.44-3,.73.73,0,0,0,0-.8c-1.44-3.2-2.88-6.24-4.48-9.44,0-.16-.16-.32-.64-.32a2,2,0,0,1-1.76-1.92,2.46,2.46,0,0,1,1.44-2.08,2,2,0,0,1,2.4.8c.16.32.32.32.8.32H34.24c.32,0,.64,0,.8-.48a1.83,1.83,0,0,1,2.24-.8,2.26,2.26,0,0,1,1.44,1.92A2.09,2.09,0,0,1,37,13.92Z"/><path class="cls-2" d="M24,19.84a.73.73,0,0,0,.8,0c3-2.24,6.08-4.32,9-6.56.16-.16.32-.16.32-.32V12.8H13.92a1.31,1.31,0,0,1,.48.32Z"/><path class="cls-2" d="M25.6,21c1.28,1,2.56,1.76,3.84,2.56.32.16.8,0,1.28,0,.16,0,.32-.32.32-.48,1.12-2.56,2.24-5.28,3.36-7.84,0-.16.16-.32.16-.48H34.4C31.68,16.64,28.64,18.72,25.6,21Z"/></g></g></svg>