<svg xmlns="http://www.w3.org/2000/svg" viewBox="0 0 47.9 48"><defs><style>.cls-1{fill:#070a0e;}.cls-2{fill:#00d395;}</style></defs><title>COMP</title><g id="Layer_2" data-name="Layer 2"><g id="Layer_1-2" data-name="Layer 1"><path class="cls-1" d="M24,48A24,24,0,1,0,0,24,24,24,0,0,0,24,48Z"/><path class="cls-2" d="M13.84,32.05A2.42,2.42,0,0,1,12.68,30V25.3a1,1,0,0,1,1-1,1,1,0,0,1,.51.14L24.76,30.6a2,2,0,0,1,1,1.74V37.2a1.2,1.2,0,0,1-1.2,1.21,1.28,1.28,0,0,1-.63-.18Zm15.74-8.9a2.05,2.05,0,0,1,1,1.74v9.85a.82.82,0,0,1-.41.71l-2.32,1.3a.25.25,0,0,1-.09,0V31.31a2,2,0,0,0-1-1.73L17.51,24V17.84a1,1,0,0,1,1-1A1,1,0,0,1,19,17Zm4.62-7.29a2,2,0,0,1,1,1.75V32a.8.8,0,0,1-.42.7l-2.2,1.19v-10a2,2,0,0,0-1-1.73l-9.48-5.7V10.59a1.14,1.14,0,0,1,.13-.51,1,1,0,0,1,1.38-.36Z"/></g></g></svg>