<svg width="48" height="48" viewBox="0 0 48 48" fill="none" xmlns="http://www.w3.org/2000/svg">
<path d="M17.7853 21.4467L23.9999 15.232L30.2175 21.4493L33.8335 17.8333L23.9999 8L14.1696 17.8304L17.7854 21.4464L17.7853 21.4467ZM8 24L11.6161 20.3834L15.232 23.9992L11.6159 27.6154L8 24ZM17.7853 26.5537L23.9999 32.768L30.2174 26.5508L33.8353 30.1649L33.8335 30.1668L23.9999 40L14.1696 30.1696L14.1645 30.1645L17.7857 26.5533L17.7853 26.5537ZM32.7679 24.0015L36.384 20.3854L39.9999 24.0013L36.3839 27.6174L32.7679 24.0015Z" fill="white"/>
<path d="M27.6667 23.9974H27.6682L23.9993 20.3281L21.2874 23.0393L20.9758 23.351L20.3332 23.9937L20.3281 23.9987L20.3332 24.0039L23.9993 27.6705L27.6685 24.0012L27.6703 23.9992L27.667 23.9974" fill="white"/>
<path d="M24 48C37.2548 48 48 37.2548 48 24C48 10.7452 37.2548 0 24 0C10.7452 0 0 10.7452 0 24C0 37.2548 10.7452 48 24 48Z" fill="#103F68"/>
<path d="M23.97 7.53125L38.25 15.7558V32.2557L23.9865 40.5043L23.871 40.4758L9.75 32.2557V15.7558L23.871 7.53125H23.97V7.53125ZM23.9235 9.23825L11.25 16.6183V31.3933L23.922 38.7717L25.47 37.8762L36.75 31.3888V16.6212L25.47 10.0963L23.9235 9.23825V9.23825ZM13.2135 25.1533L16.965 22.3483L20.2815 24.4663V28.2762L22.791 30.6942L22.7895 31.8282L20.3715 34.0933H18.33L13.215 25.1533H13.2135ZM25.068 31.8313L25.0635 30.6913L27.564 28.2762V24.4663L30.8445 22.3213L34.5885 25.1548L29.499 34.0677H27.483L25.068 31.8313ZM21.513 24.4663L20.292 21.2698H27.549L26.352 24.4663L26.706 28.0393L23.9055 28.0453L21.138 28.0498L21.513 24.4663V24.4663ZM23.9055 20.3938L17.0085 20.3907L18.291 14.6607H29.487L30.837 20.3982L23.9055 20.3938Z" fill="white"/>
</svg>
