<svg width="48" height="48" viewBox="0 0 48 48" fill="none" xmlns="http://www.w3.org/2000/svg">
<path d="M24 0C30.3652 0 36.4697 2.52858 40.9706 7.02945C45.4714 11.5303 48 17.6348 48 24C48 30.3652 45.4714 36.4697 40.9706 40.9706C36.4697 45.4714 30.3652 48 24 48C17.6348 48 11.5303 45.4714 7.02945 40.9706C2.52858 36.4697 0 30.3652 0 24C0 17.6348 2.52858 11.5303 7.02945 7.02945C11.5303 2.52858 17.6348 0 24 0Z" fill="black"/>
<path d="M23.8301 13.4888C18.14 13.4888 13.4873 18.1726 13.4873 24C13.4873 29.8274 18.14 34.5112 23.8301 34.5112C28.088 34.5112 31.7629 31.8929 33.3466 28.1247L36.5613 29.477C34.4613 34.4738 29.5619 38 23.8301 38C16.1699 38 10 31.7097 10 24C10 16.2903 16.1699 10 23.8301 10C29.4374 10 34.2486 13.3752 36.4206 18.1995L33.2408 19.6322C31.603 15.9944 27.9958 13.4888 23.8301 13.4888Z" fill="white"/>
<path d="M26.4146 25.6699C25.8909 26.4096 25.0287 26.8924 24.0537 26.8924C22.4569 26.8924 21.1624 25.5974 21.1624 24C21.1624 22.4026 22.4569 21.1076 24.0537 21.1076C24.9888 21.1076 25.8203 21.5517 26.3487 22.2407H40V25.6699H26.4146Z" fill="white"/>
</svg>
