<svg width="48" height="48" viewBox="0 0 48 48" fill="none" xmlns="http://www.w3.org/2000/svg">
<path d="M24 0C30.3652 0 36.4697 2.52858 40.9706 7.02945C45.4714 11.5303 48 17.6348 48 24C48 30.3652 45.4714 36.4697 40.9706 40.9706C36.4697 45.4714 30.3652 48 24 48C17.6348 48 11.5303 45.4714 7.02945 40.9706C2.52858 36.4697 0 30.3652 0 24C0 17.6348 2.52858 11.5303 7.02945 7.02945C11.5303 2.52858 17.6348 0 24 0Z" fill="#F5AC37"/>
<path d="M24.8803 25.6892H34.0003C34.2003 25.6892 34.2903 25.6892 34.3003 25.4392C34.3803 24.5109 34.3803 23.5775 34.3003 22.6492C34.3003 22.4692 34.2103 22.3992 34.0203 22.3992H15.8703C15.6503 22.3992 15.5803 22.4692 15.5803 22.6792V25.3492C15.5803 25.6892 15.5803 25.6892 15.9403 25.6892H24.8803ZM33.2903 19.2692C33.3104 19.204 33.3104 19.1344 33.2903 19.0692C33.1347 18.7373 32.9507 18.4194 32.7403 18.1192C32.4304 17.6109 32.0574 17.1439 31.6303 16.7292C31.4337 16.471 31.2014 16.242 30.9403 16.0492C29.6424 14.943 28.0999 14.1615 26.4403 13.7692C25.6039 13.5791 24.748 13.4885 23.8903 13.4992H15.8403C15.6103 13.4992 15.5803 13.5892 15.5803 13.7892V19.1092C15.5803 19.3292 15.5803 19.3892 15.8703 19.3892H33.1803C33.1803 19.3892 33.3303 19.3892 33.3603 19.2692H33.2903V19.2692ZM33.2903 28.8092C33.034 28.7894 32.7766 28.7894 32.5203 28.8092H15.8803C15.6603 28.8092 15.5803 28.8092 15.5803 29.1092V34.3192C15.5803 34.5592 15.5803 34.6192 15.8803 34.6192H23.5603C23.9284 34.6461 24.2985 34.6225 24.6603 34.5492C25.7755 34.4645 26.8732 34.2221 27.9203 33.8292C28.2972 33.6899 28.6618 33.5193 29.0103 33.3192H29.1103C30.9119 32.3827 32.3766 30.9075 33.3003 29.0992C33.3003 29.0992 33.4003 28.8792 33.3003 28.8192L33.2903 28.8092ZM12.5703 37.3192V28.9992C12.5703 28.7992 12.5703 28.7692 12.3303 28.7692H9.08029C8.89029 28.7692 8.82031 28.7692 8.82031 28.5292V25.6792H12.3003C12.4903 25.6792 12.5703 25.6792 12.5703 25.4292V22.6092C12.5703 22.4292 12.5703 22.3792 12.3303 22.3792H9.08029C8.89029 22.3792 8.82031 22.3792 8.82031 22.1392V19.4992C8.82031 19.3392 8.8203 19.2892 9.0603 19.2892H12.2903C12.5103 19.2892 12.5703 19.2892 12.5703 19.0092V10.9992C12.5703 10.7592 12.5703 10.6992 12.8703 10.6992H24.1203C24.9359 10.7287 25.7481 10.819 26.5503 10.9692C28.2009 11.2795 29.7868 11.8678 31.2403 12.7092C32.2013 13.2616 33.0884 13.9336 33.8803 14.7092C34.4743 15.3276 35.013 15.9968 35.4903 16.7092C35.9589 17.4298 36.351 18.1973 36.6603 18.9992C36.6798 19.1002 36.7374 19.1897 36.8212 19.2493C36.905 19.3089 37.0085 19.3339 37.1103 19.3192H39.7903C40.1403 19.3192 40.1403 19.3192 40.1503 19.6492V22.1092C40.1503 22.3492 40.0603 22.4092 39.8203 22.4092H37.7503C37.5403 22.4092 37.4803 22.4092 37.5003 22.6792C37.5803 23.5908 37.5803 24.5076 37.5003 25.4192C37.5003 25.6792 37.5003 25.7092 37.7803 25.7092H40.1503C40.2603 25.8392 40.1503 25.9792 40.1503 26.1092C40.1703 26.2853 40.1703 26.4631 40.1503 26.6392V28.4492C40.1503 28.7092 40.0803 28.7792 39.8503 28.7792H37.0003C36.904 28.7638 36.8054 28.785 36.7239 28.8387C36.6425 28.8923 36.5841 28.9746 36.5603 29.0692C35.8876 30.8266 34.8082 32.3995 33.4103 33.6592C32.902 34.1193 32.3678 34.55 31.8103 34.9492C31.2103 35.2892 30.6203 35.6492 30.0103 35.9492C28.8766 36.4556 27.689 36.8313 26.4703 37.0692C25.3119 37.2753 24.1368 37.3724 22.9603 37.3592H12.5703V37.3192Z" fill="#FEFEFD"/>
</svg>
