<svg width="48" height="48" viewBox="0 0 48 48" fill="none" xmlns="http://www.w3.org/2000/svg">
<circle cx="24" cy="24" r="24" fill="#008DE4"/>
<g clip-path="url(#clip0)">
<path d="M27.099 15.8813H19.8181L19.2143 19.2549L25.7861 19.2627C29.0234 19.2627 29.9778 20.4392 29.9506 22.387C29.935 23.3843 29.5026 25.075 29.3156 25.6242C28.8169 27.0851 27.7924 28.7485 23.9513 28.7446L17.5625 28.7407L16.9607 32.1182H24.226C26.7893 32.1182 27.8761 31.8182 29.0331 31.2884C31.5925 30.1003 33.1157 27.5759 33.7273 24.2803C34.6331 19.3718 33.5033 15.8813 27.099 15.8813Z" fill="white"/>
<path d="M16.6763 22.3052C14.7674 22.3052 14.4947 23.5479 14.3155 24.2997C14.0779 25.2814 14 25.6827 14 25.6827H21.4562C23.365 25.6827 23.6377 24.44 23.8169 23.6881C24.0545 22.7064 24.1325 22.3052 24.1325 22.3052H16.6763Z" fill="white"/>
</g>
<defs>
<clipPath id="clip0">
<rect width="20" height="16.2369" fill="white" transform="translate(14 15.8813)"/>
</clipPath>
</defs>
</svg>
