<svg width="48" height="48" viewBox="0 0 48 48" fill="none" xmlns="http://www.w3.org/2000/svg">
<circle cx="24" cy="24" r="24" fill="#006AD2"/>
<path d="M11.0542 18.0266H27.8467C27.8467 18.0266 33.6428 17.9713 29.6343 25.6065C29.6343 25.6065 26.7091 31.582 19.4504 31.4713L23.3615 21.2688C23.4087 21.1479 23.4265 21.017 23.4135 20.8875C23.4005 20.758 23.3571 20.6335 23.2868 20.5249C23.2166 20.4162 23.1217 20.3265 23.0102 20.2633C22.8987 20.2002 22.7739 20.1655 22.6464 20.1623L17.5003 20.0738L11 36.2295C11 36.2295 13.1668 36.4508 14.3585 36.3402L13.7085 38H16.7745C16.8595 38.0007 16.9426 37.9744 17.0125 37.9249C17.0823 37.8754 17.1354 37.8049 17.1645 37.7233L17.717 36.2295L19.0171 36.1188L18.2587 38H21.2489C21.3589 38.0008 21.4666 37.9673 21.5575 37.9041C21.6485 37.8408 21.7184 37.7508 21.758 37.6459L22.5923 35.4549C22.5923 35.4549 31.6927 33.9057 35.8096 26.3811C35.8096 26.3811 41.3349 17.6393 34.8345 14.541C33.5677 13.9477 32.213 13.5737 30.826 13.4344L31.5844 11.5201C31.6074 11.4633 31.6164 11.4016 31.6107 11.3404C31.605 11.2792 31.5847 11.2204 31.5515 11.1691C31.5184 11.1177 31.4734 11.0755 31.4206 11.046C31.3678 11.0166 31.3087 11.0008 31.2485 11H28.4426L27.5758 13.3238H26.3841L27.0558 11.5201C27.0765 11.4623 27.0834 11.4004 27.0759 11.3394C27.0685 11.2784 27.047 11.22 27.0131 11.1692C26.9792 11.1184 26.934 11.0765 26.8811 11.0471C26.8283 11.0177 26.7693 11.0015 26.7091 11H23.8923L23.0256 13.3238H14.2718C14.0366 13.323 13.8055 13.3874 13.6033 13.5102C13.401 13.6329 13.2352 13.8094 13.1234 14.0209L11.0542 18.0266Z" fill="white"/>
</svg>
