<svg xmlns="http://www.w3.org/2000/svg" xmlns:xlink="http://www.w3.org/1999/xlink" viewBox="0 0 48 48"><defs><style>.cls-1{fill:#070a0e;}.cls-2{fill:url(#linear-gradient);}.cls-3{fill:#4971fa;}.cls-4{fill:url(#linear-gradient-2);}</style><linearGradient id="linear-gradient" x1="-7307.14" y1="-522.2" x2="-7293.72" y2="-522.2" gradientTransform="matrix(1, 0, 0, -1, 7329.7, -497.83)" gradientUnits="userSpaceOnUse"><stop offset="0" stop-color="#62d0c9"/><stop offset="1" stop-color="#7de2ac"/></linearGradient><linearGradient id="linear-gradient-2" x1="-7317.66" y1="-522.22" x2="-7304.23" y2="-522.22" gradientTransform="matrix(1, 0, 0, -1, 7329.7, -497.83)" gradientUnits="userSpaceOnUse"><stop offset="0" stop-color="#3268fb"/><stop offset="1" stop-color="#4795fa"/></linearGradient></defs><title>DCR</title><g id="Layer_2" data-name="Layer 2"><g id="Layer_1-2" data-name="Layer 1"><circle class="cls-1" cx="24" cy="24" r="24"/><g id="Laag_3" data-name="Laag 3"><g id="Layer_1-2-2" data-name="Layer 1-2"><path id="_Pad_" data-name=" Pad " class="cls-2" d="M22.56,26.61h5.92a4,4,0,1,0,0-8h-1.9l-4.05-3.51h5.92a7.49,7.49,0,0,1,2.81,14.44L36,33.62H30.64Z"/><path id="_Pad_2" data-name=" Pad 2" class="cls-3" d="M25.46,22.14H19.54a4,4,0,0,0,0,8h1.9l4,3.51H19.54a7.5,7.5,0,0,1-2.83-14.47L12,15.12h5.37Z"/><path id="_Pad_3" data-name=" Pad 3" class="cls-4" d="M25.46,22.14H19.54a4,4,0,0,0,0,8h1.9l4,3.51H19.54a7.5,7.5,0,0,1-2.83-14.47L12,15.12h5.37Z"/></g></g></g></g></svg>