<svg xmlns="http://www.w3.org/2000/svg" viewBox="0 0 48 48"><defs><style>.cls-1{fill:#002352;}.cls-2{fill:#06c;}.cls-3{fill:#fff;}</style></defs><title>DGB</title><g id="Layer_2" data-name="Layer 2"><g id="Layer_1-2" data-name="Layer 1"><circle class="cls-1" cx="24" cy="24" r="21.96"/><path class="cls-2" d="M24,48A24,24,0,0,1,7,7,24,24,0,1,1,41,41,23.85,23.85,0,0,1,24,48ZM24,4.08A19.92,19.92,0,1,0,43.92,24,19.95,19.95,0,0,0,24,4.08Z"/><path class="cls-3" d="M11.68,18.31h15.5s5.27,0,1.63,6.74a10.33,10.33,0,0,1-9.26,5.22l3.56-9.08a.72.72,0,0,0-.41-.93.69.69,0,0,0-.24-.05l-4.82-.08-6,14.59a22,22,0,0,0,3.1.1l-.6,1.5H17a.38.38,0,0,0,.36-.26l.51-1.35,1.2-.1-.7,1.71h2.76a.51.51,0,0,0,.47-.33l.77-2s8.4-1.4,12.2-8.2c0,0,5.11-7.9-.9-10.7a11.36,11.36,0,0,0-3.7-1l.7-1.73a.35.35,0,0,0-.18-.45.5.5,0,0,0-.13,0H27.75L27,14h-1.1l.62-1.63a.34.34,0,0,0-.21-.45.35.35,0,0,0-.11,0h-2.6L22.75,14H14.68a1.2,1.2,0,0,0-1.07.63Z"/></g></g></svg>