<svg width="48" height="48" viewBox="0 0 48 48" fill="none" xmlns="http://www.w3.org/2000/svg">
<path d="M24 48C37.2548 48 48 37.2548 48 24C48 10.7452 37.2548 0 24 0C10.7452 0 0 10.7452 0 24C0 37.2548 10.7452 48 24 48Z" fill="#988430"/>
<path d="M23.9999 47.231C36.8302 47.231 47.2312 36.83 47.2312 23.9998C47.2312 11.1695 36.8302 0.768555 23.9999 0.768555C11.1697 0.768555 0.768692 11.1695 0.768692 23.9998C0.768692 36.83 11.1697 47.231 23.9999 47.231Z" fill="#7A6A2A"/>
<path d="M24 46.7418C36.5599 46.7418 46.7417 36.5599 46.7417 24C46.7417 11.4401 36.5599 1.2583 24 1.2583C11.44 1.2583 1.25819 11.4401 1.25819 24C1.25819 36.5599 11.44 46.7418 24 46.7418Z" fill="#BA9F33"/>
<path fill-rule="evenodd" clip-rule="evenodd" d="M10.4933 21.4369C10.3573 21.3128 10.2137 21.1884 10.0816 21.0642C9.94952 20.94 9.81384 20.8156 9.6779 20.6915L9.27393 20.3075C9.20789 20.2414 9.138 20.1833 9.07195 20.117C9.0059 20.0589 8.92833 19.9928 8.86229 19.9345C8.32622 19.4258 7.78709 18.9171 7.25845 18.4082C7.80603 18.9092 8.34209 19.4066 8.88968 19.915L9.07989 20.1055C9.14593 20.1713 9.21582 20.2296 9.28187 20.2957L9.68558 20.6684C9.82152 20.7926 9.95361 20.917 10.0895 21.0524C10.2255 21.1879 10.3576 21.3125 10.4935 21.4364L10.4933 21.4369ZM3.37877 21.3601C3.37877 21.3601 5.32821 21.5619 6.27976 21.6978C7.16117 21.8222 9.91854 22.2454 9.91854 22.2454L3.37877 21.3601ZM3.37877 21.3601C3.92635 21.4067 4.47393 21.4648 5.02152 21.5232C5.30107 21.5503 5.5691 21.5813 5.83713 21.6085L6.24853 21.6553C6.38446 21.6745 6.51656 21.694 6.65249 21.7134L8.28372 21.9735L9.09909 22.1095C9.36712 22.156 9.63515 22.2067 9.9147 22.2533C9.64667 22.2262 9.36712 22.1873 9.09909 22.1484L8.28372 22.0319L6.65249 21.7912C6.51656 21.7718 6.38446 21.7444 6.24853 21.7252L5.83688 21.6778C5.56885 21.6507 5.28929 21.6118 5.02126 21.5806C4.47368 21.5148 3.92609 21.4446 3.37851 21.3594L3.37877 21.3601ZM9.72449 22.7533C9.72449 22.7533 7.64296 23.2817 6.93998 23.4837C6.24878 23.6739 4.15547 24.3108 4.15547 24.3108L9.72424 22.7535L9.72449 22.7533Z" fill="#CFB66C"/>
<path fill-rule="evenodd" clip-rule="evenodd" d="M9.72429 22.7529C9.26221 22.8889 8.80269 23.021 8.33396 23.1454L6.94362 23.5181C6.48154 23.6541 6.02202 23.7861 5.56122 23.9221L4.87002 24.1123C4.6409 24.1783 4.40794 24.2365 4.17114 24.3028C4.40001 24.226 4.63322 24.1474 4.86234 24.0813L5.55354 23.8601C6.01562 23.7163 6.47514 23.5803 6.93594 23.4367C7.4057 23.3202 7.86804 23.1958 8.3378 23.0832C8.78426 22.9705 9.25428 22.8581 9.72429 22.7532V22.7529ZM4.44685 25.592C4.67572 25.5065 7.31661 24.2756 7.93025 23.9881C8.23745 23.8443 9.13037 23.5273 9.13037 23.5273L4.44685 25.592Z" fill="#CFB66C"/>
<path fill-rule="evenodd" clip-rule="evenodd" d="M4.44682 25.5924C4.64855 25.5156 4.83901 25.4216 5.03306 25.3323L5.60778 25.0642L6.76132 24.509C7.14532 24.3265 7.51856 24.125 7.9146 23.9535C8.11658 23.8683 8.31856 23.7984 8.52029 23.7323L8.82749 23.6353C8.9322 23.6082 9.02948 23.5769 9.13469 23.5498C8.75069 23.7323 8.34647 23.8877 7.96196 24.0661C7.57796 24.2566 7.18525 24.412 6.78896 24.5827L5.61623 25.0991C5.2225 25.2585 4.8385 25.4293 4.44656 25.5924H4.44682ZM4.70282 26.6675C4.70282 26.6675 7.09488 25.2657 7.91818 24.8152C8.34928 24.5745 9.74346 23.8831 9.74346 23.8831L4.70282 26.6675Z" fill="#CFB66C"/>
<path fill-rule="evenodd" clip-rule="evenodd" d="M4.70309 26.6682C5.1068 26.4196 5.51845 26.1672 5.9301 25.9109L6.54449 25.5379C6.75415 25.4138 6.95614 25.2973 7.1699 25.1731C7.37956 25.0487 7.58154 24.9246 7.79504 24.8081C7.89668 24.7453 8.00318 24.6908 8.11351 24.645L8.43965 24.4819C8.87075 24.2723 9.30185 24.0585 9.75625 23.876C9.3446 24.1363 8.92118 24.3578 8.49802 24.5866C8.28835 24.7031 8.07459 24.8081 7.86493 24.9246C7.65527 25.041 7.45329 25.1654 7.23953 25.2781C7.02986 25.4022 6.82788 25.5187 6.61438 25.6314L5.98129 25.977L4.70361 26.6682H4.70309ZM9.72425 24.1903C9.72425 24.1903 8.2369 25.3321 7.75536 25.6972C7.27383 26.0622 5.85637 27.0875 5.85637 27.0875L9.72425 24.1903Z" fill="#CFB66C"/>
<path fill-rule="evenodd" clip-rule="evenodd" d="M18.2601 33.3981L17.499 31.9573L17.9416 30.1553L21.0989 28.936L19.7552 26.1788L20.4192 23.3943L21.666 20.9009L25.5185 20.2952L28.3494 17.5962L34.4622 18.0583L35.6621 24.5942L33.3514 32.8233L32.0351 37.0837L26.699 37.2857L24.2214 35.5692L21.3204 34.3573L18.2601 33.3981Z" fill="#E2CC85"/>
<path fill-rule="evenodd" clip-rule="evenodd" d="M27.6194 33.3515C27.6194 33.3515 26.8813 33.6894 25.6226 33.6116C25.2583 33.1224 22.707 32.8932 22.707 32.8932C22.707 32.8932 22.3886 32.7962 21.8254 33.0292C21.2586 33.2596 20.7225 33.2312 20.2215 33.3553C19.7205 33.4795 19.2231 32.8272 18.8391 32.6912C18.4551 32.5476 17.946 32.202 17.946 32.202L16.8708 32.0971L14.7117 31.1844L11.2816 27.7671L10.3495 29.2263L10.062 31.0321L11.099 33.172L13.8912 35.7156L19.3358 37.098L22.5629 36.1472L26.6056 34.4384L27.6194 33.3512V33.3515Z" fill="#F1D789"/>
<path fill-rule="evenodd" clip-rule="evenodd" d="M8.27563 21.2741L8.96684 19.181L9.7904 17.8294L12.4426 17.6079L11.6464 19.9303L9.42918 23.8761L10.3495 27.3984L8.71852 28.2137L8.21726 27.445L7.81354 25.6819L7.78641 23.7012L8.27563 21.2741Z" fill="#F4ECB4"/>
<path fill-rule="evenodd" clip-rule="evenodd" d="M11.2504 33.208L10.7417 32.4973C10.7417 32.4973 10.6058 32.1594 10.6836 31.8642C10.7604 31.5652 10.7494 31.5458 10.7107 31.4331C10.6721 31.3205 10.3457 30.9321 10.3651 30.5981C10.3843 30.2601 10.338 30.1475 10.5863 29.8797C10.8464 29.6196 10.7688 29.1691 10.7688 29.1691L11.1068 29.3787L11.1836 29.2623C11.1836 29.2623 11.3077 29.3593 11.3077 29.5108C11.3349 29.3012 11.2222 28.3302 11.4785 28.109C11.7347 27.8878 12.1891 29.1458 12.1891 29.1458L11.9096 27.3205L11.191 25.4489L9.91329 23.7401L9.83649 21.8564V21.6934C9.83649 21.6934 9.24999 22.5945 9.08692 23.3062C8.97044 23.7954 9.24999 24.3896 9.19188 25.0925C9.14503 25.7917 9.08692 25.7371 9.25767 26.0141C9.42843 26.2911 9.84417 26.8607 9.6811 27.2724C9.53748 27.6259 9.04801 27.3773 9.04801 27.3773C9.04801 27.3773 8.95098 27.6646 8.81889 27.7695C8.7723 27.5988 8.72186 27.49 8.62868 27.3855C8.62074 27.4516 8.60154 27.5409 8.60154 27.5409C8.60154 27.5409 8.51604 27.2729 8.43054 26.935C8.31431 26.4847 8.1899 25.8905 8.07726 25.572C8.03066 25.7545 7.91418 26.3098 7.91418 26.3098L7.98023 27.1643L8.2987 28.3371L8.6059 29.1051L8.90491 30.0448L9.16474 30.6761L9.37441 31.1577L9.55694 32.2413L10.4383 33.1732L10.9084 33.3831L11.2499 33.2082L11.2504 33.208Z" fill="#F3E19D"/>
<path fill-rule="evenodd" clip-rule="evenodd" d="M8.73767 19.5651C8.73767 19.5651 8.10458 20.6403 7.92231 21.7242C7.74003 22.8081 7.5767 23.9534 7.6919 25.429C7.80839 26.9166 8.02983 27.829 8.20852 28.4816C8.51572 29.5652 9.31137 31.072 9.31137 31.072L9.33851 31.0136C9.20477 30.7601 9.09803 30.4933 9.02004 30.2175C8.91508 29.8058 8.87617 29.3166 8.77915 29.0952C8.69364 28.874 8.55002 28.6835 8.48013 28.4117C8.41409 28.1516 8.40333 27.7399 8.20058 27.4332C8.11508 27.3088 8.01011 26.9827 7.97914 26.6565C7.94023 26.1671 7.99859 25.6195 7.952 25.1692C7.8665 24.4196 7.80838 23.9109 7.88595 23.5185C7.96352 23.126 8.36775 22.0119 8.61633 21.1264C8.7794 20.5594 8.68212 20.0817 8.98113 19.5884C9.28014 19.0991 9.46293 18.668 9.52872 18.369C9.60552 18.0972 8.73665 19.5651 8.73665 19.5651H8.73767Z" fill="#F2E8B0"/>
<path fill-rule="evenodd" clip-rule="evenodd" d="M11.7399 19.1338C11.7399 19.1338 11.4138 19.2311 11.2584 19.4018C11.103 19.5649 11.037 19.7008 10.8273 19.9765C10.6176 20.2522 10.6058 20.4775 10.4348 20.8231C10.2641 21.161 9.88724 21.6697 9.84065 21.8522C9.79406 22.0347 9.71649 22.889 9.61946 23.293C9.53396 23.6969 9.71649 24.1941 9.71649 24.1941L9.93768 24.1472C9.93768 24.1472 9.93768 24.4347 10.1591 24.629C10.3803 24.8192 10.4192 23.9841 10.4192 23.9841L11.2464 21.192L12.4929 20.3454L12.6288 19.6619L11.7394 19.1338H11.7399Z" fill="#F5EEC0"/>
<path fill-rule="evenodd" clip-rule="evenodd" d="M12.3456 20.4C12.3456 20.4 11.7592 20.4387 11.4719 20.6486C11.3554 20.7338 11.3089 20.8037 11.1847 20.9087C10.9556 21.0989 10.7224 21.2737 10.61 21.5231C10.4856 21.7714 10.3496 22.1482 10.2565 22.8589C10.2175 23.1579 10.2175 23.4336 10.1904 23.6745C10.1515 24.0007 10.0934 24.2608 10.1244 24.4425C10.1633 24.8153 10.5478 25.0096 10.5852 25.4327L11.3813 25.029L12.1309 22.0735L13.7232 21.0751L12.822 20.0654L12.3446 20.3982L12.3456 20.4Z" fill="#E6DB9D"/>
<path fill-rule="evenodd" clip-rule="evenodd" d="M8.14537 40.3018C8.14869 40.2726 8.15202 40.2434 8.15535 40.2135C8.27158 39.2151 8.29129 38.4583 8.37654 37.9845C8.5007 37.3127 8.5862 37.0629 8.56675 36.8115C8.53961 36.4078 8.50863 36.1126 8.54755 35.8018C8.60566 35.3902 9.00963 34.9009 8.99811 34.563C8.99017 34.295 8.85424 34.1204 8.73776 33.9573C8.62127 33.7943 8.52809 33.6583 8.52809 33.6583C8.52809 33.6583 9.32426 33.1107 9.31658 30.9048C9.33283 30.9094 9.34848 30.9159 9.36317 30.9242L9.75536 32.0386L10.0234 32.3648L11.0525 34.2832L12.3768 35.5689L14.334 36.8852L15.5612 38.2208L15.6854 41.782L14.0815 43.8635L13.8189 44.3392C11.7321 43.2916 9.81859 41.9298 8.14511 40.3015L8.14537 40.3018Z" fill="#E5CB7A"/>
<path fill-rule="evenodd" clip-rule="evenodd" d="M13.0447 43.7086C13.0447 43.7086 13.0718 43.266 13.4369 42.9785C13.4952 43.0755 13.5339 43.1689 13.5224 43.2386C13.5884 43.1223 14.0505 42.3766 15.0952 42.1823C16.14 41.9921 16.3924 41.231 16.3924 41.231L18.6096 39.2155L21.1455 36.8816L24.229 35.7979L25.6701 35.4444C25.6701 35.4444 25.6972 35.5494 25.6429 35.7823C25.9107 35.7631 26.5049 35.6272 27.1223 35.4096C27.3709 35.3126 27.6041 35.2736 27.7283 35.4019C27.9108 35.5727 27.938 35.9766 27.9495 36.2173C28.2485 36.1512 28.5941 35.864 28.8711 35.8911C29.314 35.9377 29.7061 36.4582 30.1567 36.4582C30.7509 36.4582 31.0187 36.0931 31.4344 35.8056C31.683 35.6349 32.0401 35.4216 32.2421 35.2775C32.7236 34.9239 37.8188 33.3667 37.8188 33.3667L39.6051 33.4832L39.8926 35.4016L39.739 40.4167C39.7201 40.4349 39.7011 40.4538 39.6819 40.472L31.5596 44.7142L20.3007 46.4401C17.7787 46.0281 15.3449 45.1909 13.103 43.9643L13.0454 43.7083L13.0447 43.7086Z" fill="#D8C173"/>
<path fill-rule="evenodd" clip-rule="evenodd" d="M8.82823 40.9396C8.98823 40.605 9.1321 40.3252 9.15745 40.2251C9.17742 40.4268 9.21402 40.8694 9.28775 41.34C9.13296 41.2084 8.97978 41.0748 8.82823 40.9393V40.9396Z" fill="#F1D789"/>
<path fill-rule="evenodd" clip-rule="evenodd" d="M17.0526 45.6596L18.5087 45.2546L18.6329 45.2936C18.6329 45.2936 18.6989 45.3325 18.6989 45.4643C18.8814 45.3596 19.0368 45.3788 19.1495 45.3092C19.2076 45.4333 19.2657 45.845 19.5222 45.8954C19.79 45.9538 20.0775 45.7789 20.3688 45.5577C20.656 45.3286 20.9832 45.0411 21.2308 44.9247C21.3216 45.0917 21.402 45.2641 21.4717 45.441C21.7978 45.1809 22.3648 44.1247 23.1725 44.1439C23.406 43.5922 23.796 43.121 24.2943 42.7886C25.0439 42.2799 25.5137 42.241 26.1002 42.2876C26.3331 41.985 26.6202 41.7282 26.9468 41.5303C27.0438 41.5692 27.3118 41.7323 27.6459 41.5769C27.9838 41.4218 28.3642 40.8197 28.8652 40.7421C29.1352 40.705 29.4097 40.7626 29.6419 40.9052C29.6419 40.9052 31.1012 39.4565 32.108 38.9749C32.0691 38.8584 31.9915 38.4197 33.172 37.4486C33.238 37.507 33.1914 37.6701 33.238 37.679C33.2572 37.679 33.5452 37.5549 33.9097 37.2751C34.3603 36.9374 34.9 36.5839 35.2261 36.4868C35.8405 36.3043 36.4923 36.6771 36.4923 36.6771C36.5477 36.6382 36.6095 36.6092 36.6748 36.5915C36.83 36.5644 36.9426 36.545 37.0281 36.5147C37.0204 36.7167 37.1331 37.0623 37.0281 37.3613C37.1497 37.4297 37.2785 37.4844 37.4121 37.5244C37.3463 37.668 37.2024 38.0331 36.9618 38.2079C37.1635 38.305 37.1907 38.4176 37.4782 38.5151C37.3617 38.6782 37.171 38.958 37.086 39.1295C37.0005 39.3121 36.6935 40.0693 36.5576 40.3566C36.414 40.6441 36.2199 41.1722 36.1265 41.2782C36.033 41.3842 35.6954 41.8334 35.4353 42.0546C35.6657 41.9691 36.6083 41.6819 37.0081 41.5731C36.8891 41.7477 36.2857 42.6429 35.7056 43.5038C32.9281 45.1686 29.8277 46.2223 26.611 46.5947C23.3943 46.9671 20.1351 46.6496 17.0508 45.6635L17.0526 45.6596Z" fill="#E0CD81"/>
<path fill-rule="evenodd" clip-rule="evenodd" d="M12.4415 20.2953C12.4415 20.2953 12.1038 20.2953 12.0377 20.3419C11.9717 20.3885 12.3757 20.4858 12.4998 20.5324C12.624 20.5789 12.892 20.7924 12.9619 20.9635C13.028 21.1265 15.3891 22.0778 15.3891 22.0778L17.0591 21.9923L17.6348 21.1969L16.5396 20.2377L17.3076 17.9736L16.2903 18.1367L13.8436 19.5959L12.6163 20.0659L12.4415 20.2953Z" fill="#DFC57C"/>
<path fill-rule="evenodd" clip-rule="evenodd" d="M16.1087 21.0446C16.1328 21.0837 16.1668 21.1157 16.2072 21.1375C16.2477 21.1593 16.2931 21.1701 16.3391 21.1688C16.6847 21.1688 17.0029 21.2543 17.135 21.4289C17.3564 21.7087 17.97 22.6019 17.97 22.6019L19.4379 23.13L19.5327 21.4015L17.9288 20.2871L16.1035 20.9589V21.0444H16.1076L16.1087 21.0446Z" fill="#E5CC7C"/>
<path fill-rule="evenodd" clip-rule="evenodd" d="M15.8208 21.6856C15.8208 21.6856 16.0886 21.7051 16.4265 21.5806C16.7644 21.4562 17.3197 21.1884 17.5606 21.2934C17.8983 21.437 17.8284 21.8876 18.1937 22.2918C18.4149 22.5404 18.8188 22.5327 19.048 22.8007C19.2771 23.0688 20.0653 22.9443 20.0653 22.9443L20.3643 24.5571L19.1644 26.0952L18.772 28.0057H17.1495L15.6672 27.4177L14.9371 25.6513L15.3022 23.8649L15.8208 21.6856Z" fill="#D2C281"/>
<path fill-rule="evenodd" clip-rule="evenodd" d="M18.9594 21.7628C18.9996 21.7752 19.0414 21.7817 19.0835 21.7822C19.0369 21.8212 18.9397 21.9064 18.9786 22.1278C19.0175 22.3493 19.1416 22.6288 19.0369 22.7996C19.1205 22.891 19.1829 22.9997 19.2195 23.118C19.2855 23.3085 19.305 23.4831 19.7358 23.5105C19.6736 23.5487 19.6163 23.5944 19.5651 23.6464C19.5651 23.6464 19.8641 23.9065 20.0156 24.1471C20.1708 24.1405 20.5824 24.0125 20.5824 24.0125L20.6679 24.0708L20.8504 23.994C20.8504 23.994 20.6797 23.928 20.8038 23.5125C20.9203 23.1475 21.0253 23.1669 21.0342 23.1398C21.0432 23.1126 21.1198 22.7281 21.1198 22.5728C21.1779 22.371 21.2245 21.7574 21.2245 21.7574L21.1003 20.4022L20.4014 19.9788L19.8331 19.4302L19.297 20.4398L18.944 20.7918L18.9169 21.6655L18.9594 21.7628Z" fill="#E2C270"/>
<path fill-rule="evenodd" clip-rule="evenodd" d="M20.6408 20.6293C20.6408 20.6293 20.7649 20.9826 20.8118 21.2545C20.8283 21.2016 20.8374 21.1467 20.8389 21.0914C20.8389 21.0914 20.9359 21.6275 20.9551 21.8489C20.994 21.841 21.0319 21.8294 21.0406 21.8681C21.0493 21.9068 21.1379 22.3381 21.1174 22.5788C21.2791 22.312 21.5029 22.0882 21.7697 21.9265C21.9251 21.8292 22.1076 21.7245 22.2981 21.7166C22.5971 21.7089 22.8145 21.907 23.1718 21.907C24.0338 21.907 24.8146 21.2739 25.3893 21.0799C25.8125 20.936 26.1775 20.8313 26.4338 20.5981C26.5582 20.4934 26.7796 20.2604 26.9814 19.9146C27.2494 19.4538 27.529 19.0526 27.8088 19.0022C27.6822 19.0254 27.5534 19.0345 27.4248 19.0293C27.4248 19.0293 27.5103 18.9438 27.6552 18.8273C27.8001 18.7109 27.9736 18.5672 28.2219 18.5672C28.6648 18.5672 28.886 18.633 29.1346 18.633C29.3832 18.6254 29.5268 18.5672 29.5268 18.5672C29.5268 18.5672 29.7871 18.7498 30.3734 18.7498C30.9599 18.7574 31.3521 18.8079 31.659 18.8353C31.9659 18.8627 32.9948 18.7498 33.29 18.7585C33.4824 18.7659 33.6714 18.8121 33.8455 18.8944L32.8939 16.1296L29.4758 13.1421L27.4409 14.5829L24.3105 17.713L21.2815 18.8353L20.6484 19.5459V20.6293H20.6408Z" fill="#CCB360"/>
<path fill-rule="evenodd" clip-rule="evenodd" d="M27.4369 19.0444C27.4369 19.0444 27.5224 18.9591 27.6658 18.8426C27.8092 18.7262 27.9845 18.5823 28.2328 18.5823C28.6755 18.5823 28.8969 18.6483 29.1455 18.6483C29.3941 18.6407 29.5377 18.5823 29.5377 18.5823C29.5377 18.5823 29.7983 18.7646 30.3843 18.7646C30.9708 18.7722 31.363 18.8227 31.67 18.8498C31.9769 18.8769 33.0058 18.7646 33.301 18.773C33.4933 18.7803 33.6823 18.8265 33.8562 18.9089L33.4251 17.6622L32.9244 16.7109L31.4951 15.1457C31.4951 15.1457 29.7799 14.1361 29.7668 14.1284C29.7591 14.1207 29.1726 13.9653 29.1726 13.9653L27.6192 14.9051L26.2096 18.5518L26.1825 19.3198L27.0949 19.7509C27.324 19.3669 27.5767 19.0597 27.8135 19.0208C27.5997 19.0441 27.4367 19.0441 27.4367 19.0441L27.4369 19.0444Z" fill="#D5B457"/>
<path fill-rule="evenodd" clip-rule="evenodd" d="M27.4176 19.305C27.2816 19.3127 27.1692 19.2856 27.138 19.1886C27.0215 18.8624 26.9283 18.8158 26.8308 18.8158C26.7333 18.8158 26.6017 19.0255 26.5236 19.0447C26.4455 19.0639 26.3529 18.804 26.3529 18.804L26.2674 18.7651C26.2674 18.7651 25.7664 19.0913 25.4131 19.4758C25.0598 19.8603 24.481 20.5128 24.2209 20.6291C23.9608 20.7453 23.0674 20.7845 22.7617 20.8505C22.456 20.9166 22.1171 21.138 22.0705 21.1884C22.0239 21.2389 22.2067 21.2931 22.2338 21.3436C22.261 21.3902 21.9346 21.3707 21.9074 21.4204C21.8882 21.4593 21.9842 21.6805 22.0319 21.7931C22.1152 21.7517 22.2066 21.7291 22.2996 21.7271C22.5986 21.7194 22.8162 21.9175 23.1734 21.9175C24.0356 21.9175 24.8161 21.2844 25.3908 21.0901C25.8142 20.9465 26.1793 20.8416 26.4355 20.6086C26.5597 20.5039 26.7811 20.2707 26.9831 19.9251C27.1306 19.6883 27.2745 19.4668 27.4183 19.3038L27.4176 19.305Z" fill="#D2B257"/>
<path fill-rule="evenodd" clip-rule="evenodd" d="M15.0528 38.5246C15.0528 38.5246 14.976 38.2371 14.2643 37.4955C14.0623 37.2858 13.9381 37.1115 13.8022 36.9868C13.4643 36.6681 13.2661 36.5828 13.0255 36.4003C12.4973 36.0081 11.9226 36.0081 11.48 35.5265C11.0374 35.045 10.5215 34.1249 10.1631 33.1846C9.80984 32.2448 9.71255 31.9458 9.71255 31.9187C9.71255 31.8915 9.80984 31.709 9.934 31.7361C10.0582 31.7633 10.0582 32.0039 10.0894 32.0623C10.1512 32.1576 10.2214 32.2472 10.2991 32.3301C10.4816 32.54 10.7417 32.7909 10.8738 33.1652C10.8466 32.8467 10.7378 32.4934 10.7378 32.4934C10.7378 32.4934 11.4214 32.9245 12.0038 33.3748C12.5903 33.8254 12.8309 33.9808 13.0022 34.268C13.1734 34.5553 13.5769 35.3128 13.7702 35.5342C13.9635 35.7557 16.6118 36.5905 16.6118 36.5905L17.8716 37.5298L18.497 38.9007L18.0075 39.6687L17.0677 39.8707L15.5415 39.1871L15.0528 38.5243V38.5246Z" fill="#D2B159"/>
<path fill-rule="evenodd" clip-rule="evenodd" d="M11.662 33.8018C11.662 33.8018 11.9804 34.3105 12.7571 34.792C13.4563 35.2154 14.5629 35.5999 15.5496 35.8291C16.1163 35.965 16.6834 36.0697 17.192 36.0776C18.5629 36.0968 19.5065 35.7049 20.6757 35.5767C21.3088 35.5106 22.0855 35.4602 22.8931 35.2695C23.9299 35.0209 24.5435 34.7411 25.3786 34.3479C25.9843 34.0683 26.5398 33.8586 26.9901 33.5906C27.6232 33.2179 28.0853 32.8024 28.6213 32.6782C28.5553 32.8608 28.4854 33.1869 27.9573 33.5248C28.2368 33.5169 28.6213 33.4977 28.6213 33.4977C28.6213 33.4977 28.2486 33.7189 27.5922 34.216C27.1883 34.5232 26.6525 35.0432 26.1049 35.3888C25.7513 35.6102 25.3668 35.7728 25.1144 35.9054C24.5 36.2433 24.2522 36.414 23.8485 36.827C23.9921 36.8193 24.0039 36.827 24.0039 36.827C24.0039 36.827 23.495 36.893 23.1302 37.0871C23.0534 37.0871 22.9203 37.0599 22.6873 37.126C22.5048 37.1841 22.2639 37.3164 22.0156 37.3861C21.662 37.491 21.5458 37.4444 21.5458 37.4444L21.6039 37.5609C21.6039 37.5609 21.1431 37.553 20.9895 37.5686C21.0167 37.5763 21.009 37.588 21.009 37.588C20.982 37.5926 20.956 37.6017 20.9322 37.6152C20.8583 37.6631 20.777 37.6984 20.6915 37.7199C20.6449 37.7276 20.606 37.7276 20.5477 37.7393C20.5671 37.7859 20.7187 38.0465 20.7886 38.2001C20.7305 38.2391 19.8565 38.8993 19.8565 38.8993C19.8836 38.9419 19.9057 38.9875 19.9225 39.0352C19.9497 39.1205 19.9614 39.2449 19.9886 39.303C20.0544 39.4195 20.0933 39.4389 20.0933 39.4389C20.0933 39.4389 19.9886 39.4584 19.8058 39.505C19.6507 39.5439 19.4602 39.6097 19.1914 39.6486C19.1089 39.6593 19.026 39.6658 18.9428 39.668C18.9817 39.7536 19.1525 40.0797 18.8379 40.4563C18.5232 40.8328 18.4262 40.8876 18.3292 41.1283C18.2804 41.0913 18.2284 41.0588 18.1738 41.031C18.0691 40.9844 17.9252 40.9148 17.8748 40.8213C17.8454 40.9458 17.8065 41.0679 17.7583 41.1864C17.6613 41.4465 17.5177 41.703 17.4905 41.897C17.3856 41.7806 17.1915 41.5514 16.9235 41.598C16.6555 41.6446 16.442 42.0097 16.3954 42.1146C16.3954 42.0486 16.3488 41.9982 16.3373 42.0757C16.3293 42.1612 16.1819 43.0542 15.3586 43.7766C15.3509 43.5941 15.3509 43.1901 15.3315 43.0583C15.2547 43.1351 15.1607 43.2485 14.6013 43.4894C14.0538 43.73 14.1405 43.9709 14.1405 43.9709C14.1405 43.9709 14.094 43.5869 14.3891 43.1824C14.6881 42.7787 14.8707 42.5882 14.8707 42.5573C14.8658 42.5257 14.8524 42.4961 14.8317 42.4718C14.7928 42.4328 14.7153 42.3863 14.7153 42.3553C14.7619 42.3361 15.2239 42.1146 15.1968 41.6561C15.1697 41.2447 14.9951 41.031 14.8707 40.8797C14.8515 40.8602 15.0534 40.7166 15.026 40.67C15.0066 40.6429 14.7583 40.4601 14.727 40.3628C14.7344 40.3048 14.7474 40.2476 14.766 40.1921C14.7931 40.1066 14.8125 40.0482 14.8049 39.9901C14.7854 39.8931 14.6804 39.625 14.6495 39.5979C14.6766 39.6056 14.8707 39.5979 14.8707 39.5979C14.8707 39.5979 14.7155 39.3493 14.6881 39.2328C14.6607 39.1164 14.6026 38.8094 14.5716 38.7513C14.6377 38.759 14.8008 38.7705 14.8008 38.7513C14.8087 38.6929 14.6572 38.5959 14.724 38.5209C14.7706 38.5286 14.8599 38.5675 14.9451 38.6763C14.8986 38.5519 14.821 38.3112 14.6577 38.2142C14.7345 38.1871 14.9956 38.1169 15.2247 38.2529C15.4538 38.3888 15.5319 38.579 15.5319 38.579C15.5319 38.579 15.6678 38.684 15.8778 38.8394C16.1184 39.0296 16.4251 39.3002 16.9145 39.4917C17.0195 39.55 17.2873 39.55 17.4816 39.5111C17.5662 39.491 17.6473 39.4583 17.7222 39.4141C17.7493 39.3982 17.7779 39.3851 17.8077 39.3752C17.766 39.2914 17.718 39.2109 17.6641 39.1343C17.7302 39.1343 17.8077 39.1422 17.8077 39.1422C17.8077 39.1422 17.8543 39.0373 17.6447 38.835C17.6912 38.7884 17.7496 38.7582 17.7496 38.6796C17.6836 38.672 17.5671 38.5749 17.5399 38.536C17.5786 38.5089 17.637 38.4195 17.703 38.3924C17.6447 38.3458 17.501 38.1515 17.435 38.1323C17.4981 38.1089 17.5591 38.0803 17.6175 38.0468C17.6175 38.0468 17.2914 37.9613 17.1864 37.8914C17.0815 37.8146 16.9263 37.6817 16.8331 37.6428C16.7359 37.6039 16.5651 37.5847 16.4952 37.5069C16.561 37.5264 16.666 37.5069 16.7438 37.5069C16.8019 37.5069 16.8293 37.5146 16.8485 37.5146C16.8408 37.4874 16.8408 37.4291 16.9924 37.4099C17.0653 37.3989 17.136 37.3766 17.202 37.3438C17.202 37.3438 17.0582 37.3361 16.8948 37.1808C16.7315 37.0254 16.5958 36.9012 16.5026 36.8817C16.4056 36.8623 16.2231 36.9478 16.1105 36.9399C15.9551 36.9207 15.889 36.8428 15.889 36.8428C15.889 36.8428 15.3727 36.8894 14.2271 36.1905C13.2366 35.5846 12.8055 35.0488 12.8055 35.0488C12.7128 35.0151 12.6232 34.9735 12.5377 34.9244C12.165 34.7303 11.6484 34.3264 11.664 33.798L11.662 33.8018Z" fill="#C2A44D"/>
<path fill-rule="evenodd" clip-rule="evenodd" d="M25.9493 10.4929C26.0392 10.5221 26.119 10.576 26.1797 10.6483C26.3623 10.858 26.4788 11.254 26.0633 11.6775C26.2263 11.7356 26.2937 11.7543 26.436 11.7356C26.2924 11.9066 25.9662 12.2716 25.9468 12.5901C25.9273 12.8502 26.0904 12.928 26.0904 12.928C26.0904 12.928 25.8418 13.2153 25.8303 13.696C25.9477 13.5636 26.0762 13.4415 26.2143 13.331C26.5018 13.1018 26.8978 12.8417 27.1659 12.6787C27.1622 12.747 27.1714 12.8154 27.193 12.8804C27.193 12.8804 27.6937 12.4688 28.1146 12.6515C28.3048 12.737 28.2193 13.0048 28.2193 13.0048C28.2193 13.0048 28.4797 12.9078 28.6622 13.0903C28.8447 13.2729 29.1028 13.7436 29.2351 13.9262C29.2933 14.0117 29.4448 14.1747 29.5999 14.4272C29.8119 14.7805 29.9889 15.1538 30.1283 15.5415C30.136 15.3395 30.1865 15.0252 30.7614 15.2231C31.3362 15.425 31.9885 15.8485 32.536 16.6823C33.0836 17.5161 33.2193 18.4574 33.495 18.8158C33.7746 19.1614 34.0621 19.7361 34.0815 19.977C34.101 20.2179 33.996 20.9943 34.5708 23.0953C34.7338 22.443 34.9824 20.9943 34.9824 20.9943L35.1184 19.7166L35.2738 15.7632L31.1454 12.3336L27.9183 9.9917L25.8172 10.1937L25.9491 10.4927L25.9493 10.4929Z" fill="#CAA13E"/>
<path fill-rule="evenodd" clip-rule="evenodd" d="M33.6195 16.3768C33.6195 16.3768 33.5611 15.9928 32.5903 15.34C31.6193 14.6954 30.8621 14.6954 30.1632 14.1478C29.6271 13.7167 29.068 12.7263 28.704 12.4001C28.3505 12.0778 28.2924 11.1457 28.2924 11.1457L29.4845 10.1473L31.2576 7.58451L32.7565 5.93408L33.4748 6.93248L34.4732 8.10522L35.0285 10.4586L35.2305 13.9034L33.6177 16.3771L33.6195 16.3768Z" fill="#B59544"/>
<path fill-rule="evenodd" clip-rule="evenodd" d="M34.8196 20.5054C34.849 19.983 34.7845 19.4596 34.6291 18.9599C34.3731 18.1638 33.8137 16.7502 33.5539 16.2207C33.4489 15.6342 33.5268 15.5877 33.6394 15.5216C33.7521 15.4556 34.1755 15.2144 34.4074 14.3683C34.6394 13.5222 35.359 13.4946 35.359 13.4946L35.8016 13.1685L36.4736 14.8499L37.0599 16.3685L37.2424 17.5297L37.3783 18.5199L37.0599 20.6132L35.4872 22.0345L34.8193 20.5054H34.8196Z" fill="#C89D3A"/>
<path fill-rule="evenodd" clip-rule="evenodd" d="M12.874 43.837V43.794C12.9067 43.7736 12.9356 43.7476 12.9593 43.7172C12.9864 43.6783 13.0061 43.6317 13.0253 43.6202C13.0642 43.6007 13.2468 43.5434 13.3438 43.5618C13.4408 43.5803 13.6973 43.686 13.8333 43.6783C14.1128 43.6706 14.439 43.4569 14.9556 43.5541C15.7323 43.6978 15.9148 44.2259 16.3654 44.5249C16.6726 44.7348 16.9905 44.6414 17.0371 44.6414H17.1418C17.1613 44.6414 17.3049 44.4783 17.3827 44.4863C17.5381 44.4939 17.5535 44.6222 17.6505 44.6299C17.8796 44.657 18.3225 44.5134 18.5439 44.5718C18.6096 44.5923 18.6693 44.6285 18.718 44.6771C18.7667 44.7257 18.8029 44.7854 18.8235 44.8511C18.8701 44.9947 18.8312 45.1772 18.7185 45.2822C18.4779 45.5034 18.2488 45.7133 18.2022 45.8966C18.2614 45.9418 18.3183 45.99 18.3727 46.041C16.4512 45.5514 14.6024 44.8112 12.874 43.8393V43.837Z" fill="#CEB052"/>
<path fill-rule="evenodd" clip-rule="evenodd" d="M33.5534 36.0777C33.5534 36.0777 34.1591 35.2701 34.3691 34.8699C34.5787 34.4575 33.705 29.2351 33.705 29.2351L35.4604 23.4838L35.4136 21.6119C35.4136 21.6119 35.4991 19.8837 35.7011 19.1341C35.942 19.5652 36.6916 20.0857 36.8546 20.3614C36.9314 19.833 37.1923 18.7186 37.1537 17.5303C37.2973 17.7515 37.6429 19.9769 37.6429 19.9769L37.9885 21.4757L38.4391 23.0681L38.9401 24.7497L39.2391 25.9109L39.4098 26.1905L39.5537 26.6797L39.6897 27.2081L40.0819 28.4469L40.3123 29.4642L40.4948 31.309C40.5345 31.4502 40.5631 31.5944 40.5803 31.7401C40.588 31.9421 40.5532 32.0585 40.5532 32.0936C40.5532 32.1287 40.6192 32.5362 40.5921 32.8432C40.5532 33.1504 40.5532 33.3908 40.3123 33.6112C40.0714 33.8316 39.9201 35.149 39.9201 35.149L39.489 34.8617C39.489 34.8617 39.5745 34.4693 39.3725 34.1122C39.1705 33.755 38.7783 33.6811 38.5568 33.7394C38.3356 33.786 37.893 33.8557 37.7491 33.9801C37.6132 34.1042 37.2794 34.4887 36.9724 34.6636C36.5884 34.894 35.9627 34.9122 35.6289 34.9897C35.291 35.0665 34.9182 35.2969 34.5257 35.5645C34.218 35.7637 33.8932 35.935 33.555 36.0765L33.5534 36.0777Z" fill="#CCA847"/>
<path fill-rule="evenodd" clip-rule="evenodd" d="M33.5534 44.5631C33.5534 44.5631 33.579 44.5798 33.6284 44.6069C36.3875 43.3143 38.8596 41.4819 40.8988 39.2181C40.8766 38.4322 40.8476 37.6266 40.8159 37.3281C40.7501 36.695 40.7967 36.0504 40.7772 35.6776C40.7578 35.3049 40.5481 33.7863 40.4511 33.3941C40.3461 33.0019 40.1439 32.8076 40.1132 32.8076C40.086 32.8156 39.9227 33.5457 39.9227 33.7292C39.9227 33.9128 39.8838 34.3546 39.8838 34.4673C39.8567 34.4593 39.8451 34.3905 39.8451 34.3623C39.8062 34.4593 39.7596 34.6303 39.7402 34.6498C39.7207 34.6692 39.7673 34.4867 39.7402 34.4478C39.713 34.4089 39.6634 34.4284 39.6741 34.3313C39.6787 34.2738 39.6878 34.2167 39.7013 34.1606C39.7013 34.1606 39.5848 34.3313 39.4995 34.7663C39.414 35.1974 39.414 35.2092 39.3831 35.2478C39.3559 35.2947 39.2005 35.4498 39.1926 35.5082C39.1849 35.6129 39.3365 35.7178 39.348 35.7759C39.3557 35.8732 39.2121 36.3235 39.1655 36.5439C39.1189 36.7644 39.1383 37.1962 39.0887 37.4177C39.0498 37.6196 39.0119 37.7361 38.879 37.8214C38.976 37.8408 39.0692 37.868 39.0692 37.868C39.0692 37.868 39.2051 38.4427 38.8595 38.9322C38.7354 39.1029 38.7044 39.1807 38.5723 39.3361C38.312 39.6234 38.11 39.9505 38.0905 40.1633C38.0771 40.1005 38.068 40.0368 38.0634 39.9728C38.0634 39.9728 37.6597 40.4428 37.4887 40.7108C37.2675 41.0564 36.9605 41.037 36.8743 41.1225C36.788 41.208 36.7693 41.3631 36.7975 41.4876C36.7207 41.5068 36.5763 41.5341 36.479 41.8332C36.4324 41.9883 36.3159 42.1404 36.1334 42.2448C35.9509 42.3492 35.7294 42.3807 35.6168 42.4079C35.7138 42.435 35.7527 42.435 35.7993 42.466C35.7412 42.563 35.4732 42.7146 35.1742 42.9089C34.8752 43.0914 34.7313 43.3592 34.6576 43.534C34.5808 43.6971 34.4674 43.802 34.2848 43.8215C34.3616 43.8681 34.4753 43.9766 34.5334 44.0117C34.4479 44.0312 34.303 44.0312 34.0442 44.2526C33.7723 44.4779 33.6791 44.5439 33.5547 44.5634L33.5534 44.5631Z" fill="#C39D3C"/>
<path fill-rule="evenodd" clip-rule="evenodd" d="M28.1497 46.3628C28.2984 46.2586 28.4595 46.1732 28.6292 46.1086C29.2349 45.868 29.8757 45.8214 30.1281 45.7438C30.369 45.667 30.5592 45.561 30.8582 45.5029C30.8503 45.571 30.8436 45.635 30.8365 45.6954C29.9549 45.9726 29.0572 46.1955 28.1485 46.3628H28.1497Z" fill="#D2BA6B"/>
<path fill-rule="evenodd" clip-rule="evenodd" d="M39.3216 30.4311C39.3216 30.4311 39.1974 31.1029 38.976 31.5263C38.7545 31.9497 38.5152 32.5359 38.5152 32.5359C38.5166 32.4038 38.5323 32.2723 38.5618 32.1435C38.2822 32.3066 37.6025 32.699 37.4098 32.8736C37.2272 33.0367 36.9203 33.3242 36.8427 33.4601C37.0253 32.9243 37.2155 32.4428 37.2467 32.2213C36.9672 32.4233 35.6621 33.499 34.9826 34.2097L32.866 35.9223C32.6218 36.0541 32.3702 36.1719 32.1126 36.2751C31.7478 36.4302 31.3167 36.5623 30.9983 36.6867C31.0838 36.4576 31.2194 36.2554 31.4099 36.0613C31.6119 35.8711 32.2176 35.2147 32.3108 34.9093C32.3963 34.5909 32.4157 34.4007 32.3031 34.1326C32.1981 34.1598 31.9575 34.1715 31.7944 34.2181C31.6313 34.2647 31.4565 34.4393 31.4565 34.4393C31.4565 34.4393 31.5807 33.7287 31.8487 33.0569C31.6467 33.0646 31.3011 33.1227 31.3011 33.1227C31.3011 33.1227 31.7826 32.315 32.6067 31.7521C32.3543 31.8058 32.1074 31.8824 31.8689 31.9809C31.3874 32.1829 30.8592 32.4819 30.4671 32.645C30.6882 32.3378 32.2416 30.1208 33.1661 28.0547C34.0877 25.9926 34.432 25.4645 34.634 24.3578C34.7387 23.8102 34.7108 23.001 34.7387 22.2762C34.7658 21.5576 34.8552 20.913 34.797 20.4819C35.0377 20.7809 35.9388 21.6237 35.9698 23.5073C35.9969 25.3907 35.1078 27.9346 34.164 29.3052C34.3944 29.3713 34.9913 29.4491 35.6047 28.3836C36.2181 27.3182 36.2107 27.0207 36.4321 26.5778C36.4592 26.7992 36.4513 26.8768 36.4513 26.8768C36.4513 26.8768 37.3448 25.7934 37.7679 24.4302C37.8534 25.0167 38.1058 25.5333 37.7096 26.609C37.3563 27.5798 36.8942 27.8168 36.8942 27.8168C36.8942 27.8168 37.1233 27.7779 37.461 27.5759C37.5193 27.7196 37.5078 27.8831 37.6048 27.941C37.7019 27.9989 37.834 28.0964 37.8534 28.1896C37.9581 28.0342 38.1212 27.836 38.1719 27.6886C38.133 27.9958 38.1058 29.339 38.2487 30.0225C38.5479 29.9954 38.8546 29.9759 39.0643 29.436C38.9207 29.9644 38.9207 30.2826 39.0177 30.7332C39.1769 30.6247 39.3206 30.4303 39.3206 30.4303L39.3216 30.4311Z" fill="#C0993A"/>
<path fill-rule="evenodd" clip-rule="evenodd" d="M29.2311 9.02511C29.2311 9.02511 28.9321 9.14927 28.4234 9.14927C27.9808 9.14927 28.1049 8.97852 27.4137 8.97852C26.3498 8.97852 22.6332 9.59292 21.9807 9.58421C21.5572 9.57653 23.4096 9.76674 23.4096 9.76674L28.1439 9.83279L29.0952 9.75599L29.4487 9.03663L29.2311 9.02511Z" fill="#A88F33"/>
<path fill-rule="evenodd" clip-rule="evenodd" d="M16.9555 18.2798C16.9555 18.2798 16.3496 18.7419 16.0933 19.0955C15.8371 19.449 15.7011 19.6817 15.4098 19.9692C15.4782 19.9718 15.5465 19.9626 15.6118 19.9421C15.6118 19.9421 15.6118 20.0189 15.5652 20.0391C15.6054 20.0346 15.6462 20.0391 15.6845 20.0524C15.7227 20.0657 15.7576 20.0874 15.7864 20.1159C15.7009 20.1625 15.4679 20.3957 15.6504 20.6714C15.7864 20.8811 16.0739 20.9003 16.0739 20.9003C16.0739 20.9003 16.0078 21.0907 16.2835 21.0713C16.8777 21.0441 17.5418 20.7838 17.8484 20.8498C18.1556 20.9266 18.3302 20.9548 18.5476 21.3316C18.778 21.7044 18.9787 21.7627 18.9787 21.7627C18.9787 21.7627 19.1146 21.4169 19.0836 20.9005C19.1951 20.6222 19.2569 20.3265 19.2662 20.0268L19.0642 18.5394L18.1828 17.4248L17.041 18.0579L16.9555 18.2791V18.2798Z" fill="#E3C571"/>
<path fill-rule="evenodd" clip-rule="evenodd" d="M18.0388 18.0581C18.0388 18.0581 18.1243 18.2601 18.4817 18.2793C18.4428 18.3648 18.4428 18.3766 18.4545 18.4423C18.4622 18.5084 18.4737 18.6054 18.4737 18.6054C18.5131 18.5864 18.5487 18.5604 18.5787 18.5286C18.5982 18.6141 18.5593 18.7498 18.5787 18.8471C18.5907 18.9062 18.6102 18.9636 18.6368 19.0178C18.6425 19.0045 18.649 18.9916 18.6563 18.9792C18.664 18.9597 18.7331 19.1888 18.9243 19.3632C18.9241 19.3364 18.9307 19.31 18.9435 19.2864C18.9464 19.3351 18.9625 19.3821 18.9901 19.4223C18.9758 19.4155 18.9627 19.4063 18.9514 19.3952C18.9514 19.3952 18.9706 20.0096 19.0756 20.3273C19.0931 20.3067 19.1087 20.2846 19.1222 20.2612C19.1222 20.242 19.1145 20.4322 19.0951 20.5684C19.0679 20.7044 19.0874 20.8946 19.0874 20.8946C19.1574 20.8394 19.2343 20.7937 19.3162 20.7586C19.4327 20.7118 19.6234 20.5682 19.7397 20.2497C19.8071 20.0693 19.8591 19.8836 19.8951 19.6944C19.9326 19.7667 19.9585 19.8445 19.9719 19.9248C19.9798 20.0219 20.1623 19.9714 20.1623 19.9714L20.2012 19.548L20.4316 18.5888L20.6413 17.9946L21.651 16.422L23.4752 15.0171L25.0675 15.3821L26.411 13.5568L24.0965 12.1665L21.9062 12.3956L19.9184 15.1489L18.3263 17.6462L18.0388 18.0578V18.0581Z" fill="#D8B65B"/>
<path fill-rule="evenodd" clip-rule="evenodd" d="M29.5106 14.0738C29.5106 14.0738 29.3746 14.1009 28.9824 14.3042C28.5903 14.5075 28.3184 14.572 28.1668 14.871C28.0153 15.17 28.0038 15.4071 28.0038 15.4071C28.0038 15.4071 28.2718 15.2906 28.4272 15.2517C28.5903 15.213 28.7728 15.2245 28.7533 15.2906C28.7347 15.3359 28.7087 15.3778 28.6765 15.4147C28.6765 15.4147 28.9837 15.4071 28.9755 15.5586C28.9673 15.7102 28.9174 15.8771 28.8593 15.9508C28.8009 16.0276 28.5603 16.1413 28.5332 16.2306C28.4671 16.4132 28.5603 16.4208 28.5252 16.5683C28.4981 16.7122 28.3701 16.9917 27.9505 17.4809C27.5194 17.9704 27.3361 18.316 27.3361 18.316C27.3361 18.316 27.1265 17.9238 27.0177 17.5859C26.9409 17.6246 26.5284 17.8537 26.5284 17.8537L25.5731 14.5256L25.5923 14.3042C25.5923 14.3042 25.6778 14.1995 25.6972 14.0052C25.5536 13.9586 25.5341 13.9197 25.3437 13.7374C25.1532 13.5551 24.9981 13.3334 24.6799 13.1819C24.6333 13.0964 24.5749 12.9802 24.342 12.9333C24.109 12.8865 23.9692 12.8481 23.9692 12.8481C23.9692 12.8481 24.0934 12.8012 24.1518 12.7042C24.0079 12.7237 23.8917 12.7702 23.577 12.7626C23.2586 12.7546 23.2235 12.7431 23.0489 12.7702C22.8743 12.7974 22.6649 12.8752 22.5868 12.6072C22.5013 12.5411 22.3188 12.5995 22.1634 12.8284C22.008 13.0572 21.9538 13.24 21.6548 13.3294C21.6337 13.4612 21.5876 13.5877 21.5188 13.7021C21.4333 13.846 21.2974 13.9896 21.1148 14.2031C20.8274 14.541 20.874 15.0963 20.4157 15.5197C19.9536 15.9429 20.4925 14.3467 20.4925 14.3467L21.2303 12.5803L23.3313 10.5259L26.5935 10.3047L26.9119 11.9943L28.5042 12.5419L29.5101 14.0759L29.5106 14.0738Z" fill="#D3AE4D"/>
<path fill-rule="evenodd" clip-rule="evenodd" d="M30.0272 14.4467L28.6564 12.4701L27.6972 11.7321C27.6972 11.7321 27.0137 10.4741 26.9671 10.4352C26.9282 10.4081 26.2836 10.3382 25.872 10.311L25.9488 10.5012C26.0386 10.5304 26.1184 10.5843 26.1792 10.6566C26.3617 10.8663 26.4782 11.2623 26.0627 11.6857C26.2257 11.7439 26.2931 11.7625 26.4354 11.7439C26.2918 11.9149 25.9657 12.2799 25.9462 12.5984C25.9267 12.8585 26.0898 12.936 26.0898 12.936C26.0898 12.936 25.8412 13.2235 25.8297 13.704C25.9471 13.5716 26.0756 13.4495 26.2137 13.339C26.5012 13.1086 26.8972 12.8495 27.1652 12.6864C27.1616 12.7549 27.1708 12.8234 27.1924 12.8884C27.1924 12.8884 27.6931 12.4768 28.114 12.6593C28.3042 12.7448 28.2187 13.0128 28.2187 13.0128C28.2187 13.0128 28.479 12.9158 28.6615 13.0983C28.844 13.2809 29.1041 13.7506 29.2362 13.9334C29.2943 14.0189 29.4459 14.182 29.601 14.4341C29.813 14.7876 29.99 15.1609 30.1294 15.5487C30.1371 15.3933 30.1683 15.176 30.4366 15.176L30.0288 14.4459L30.0272 14.4467Z" fill="#CAA13E"/>
<path fill-rule="evenodd" clip-rule="evenodd" d="M9.47575 20.0624C9.47575 20.0624 9.37873 19.8215 9.47575 19.3517C9.57278 18.882 9.72433 18.6605 9.77476 17.9693C9.82519 17.2781 10.2758 16.4159 10.2758 16.4159L11.5222 15.8491L12.4039 16.0898L12.664 17.2704L11.5493 17.8848C11.5493 17.8848 11.4912 18.1449 11.1766 18.3546C10.862 18.5643 10.427 18.7273 10.3223 18.9411C10.2597 19.072 10.2141 19.2103 10.1864 19.3527C10.1864 19.3527 9.86794 19.2867 9.67774 19.4964C9.47575 19.7101 9.48343 19.9003 9.47575 20.0634V20.0624Z" fill="#F4EFC8"/>
<path fill-rule="evenodd" clip-rule="evenodd" d="M11.9922 19.7477C11.9922 19.7477 11.8873 19.8137 11.8097 19.9781C11.7329 19.8539 11.5493 19.1159 11.5417 18.4518C11.534 17.7878 11.4943 17.6231 11.6479 17.3943C11.8015 17.1654 12.4039 16.9243 12.3184 16.5121C12.2329 16.1199 11.8755 15.9569 11.4367 16.0695C11.1295 16.1463 10.9009 16.7996 10.5824 17.1257C10.3415 17.3743 10.0543 17.3354 9.97673 17.4713C9.87177 17.6539 9.9688 17.8364 9.93782 17.9529C9.92988 17.9918 9.83286 18.2014 9.65801 18.4539C9.30473 18.9625 8.70671 19.6811 8.62889 20.3257C8.65603 19.9607 8.63683 19.953 8.73385 19.549L8.67548 19.452L9.05948 18.1938L9.30806 17.157L9.86358 15.4208L10.842 13.6462L11.7936 12.582L12.7838 12.6481L12.9003 14.1354L13.4673 16.9279L14.6595 18.3957L12.7487 19.6816L11.9915 19.7477H11.9922Z" fill="#EBCC73"/>
<path fill-rule="evenodd" clip-rule="evenodd" d="M12.5864 20.2754C12.5864 20.2754 12.4233 20.3143 12.3649 20.2834C12.3066 20.2524 12.2487 20.2173 12.2679 20.1784C12.2871 20.1395 12.3921 20.0737 12.3921 20.0425C12.3942 20.0142 12.3853 19.9863 12.3672 19.9645C12.3491 19.9428 12.3232 19.929 12.2951 19.926C12.2057 19.9145 12.1786 19.9726 12.1786 19.9726C12.1786 19.9726 12.0931 19.9068 12.0234 19.8958C12.0646 19.8907 12.1061 19.8881 12.1476 19.8878C12.0403 19.8392 11.9264 19.8065 11.8097 19.7908C11.9067 19.7327 12.0972 19.5617 12.2213 19.5617C12.3455 19.5617 12.4233 19.5425 12.4039 19.4764C12.3844 19.4104 12.2874 19.3134 12.1827 19.2744C12.2213 19.2279 12.2487 19.158 12.1555 18.9672C12.0583 18.777 12.0972 18.6488 12.1284 18.6024C12.1555 18.5441 12.2526 18.4394 12.2991 18.3733C12.3457 18.3073 12.3847 18.2179 12.4622 18.1713C12.5011 18.1442 12.6253 18.0945 12.7497 18.0472C12.8856 18.0006 12.9983 17.9422 13.0759 18.0006C13.1614 18.0587 13.1224 18.1365 13.1224 18.1365C13.1224 18.1365 13.3905 18.0392 13.6311 18.1636C13.872 18.2799 14.4585 18.3538 14.4585 18.3538L14.6687 18.7773L13.2783 19.9695L12.7036 20.257L12.5871 20.2762L12.5864 20.2754Z" fill="#E5C66B"/>
<path fill-rule="evenodd" clip-rule="evenodd" d="M14.5165 18.3262C14.5165 18.3262 14.0854 18.6137 13.9884 18.7184C14.0465 18.7263 14.1435 18.7653 14.1046 18.8234C14.058 18.8815 13.7784 19.0835 13.623 19.2739C13.46 19.4641 13.3046 19.705 13.2503 19.8215C13.1922 19.9262 12.7493 20.2332 12.598 20.2718C12.9165 20.2718 13.5573 19.8796 13.7979 19.8796C13.7902 19.9961 13.8639 20.1282 13.9999 20.1397C14.1358 20.1512 14.528 20.2252 15.0561 19.8991C15.5843 19.5806 15.4097 19.3436 15.6309 19.1884C16.0543 18.9086 16.225 18.66 16.458 18.5049C16.691 18.3498 16.8115 18.3144 16.8115 18.3144C16.8115 18.3144 16.8192 18.198 16.8883 18.2097C16.9072 18.2119 16.9252 18.2192 16.9403 18.2309C16.9554 18.2425 16.967 18.258 16.9738 18.2758C16.9738 18.2758 17.3778 17.9883 17.8954 17.9107C17.8834 17.9053 17.8737 17.8957 17.8683 17.8836C17.8683 17.8836 17.907 17.8641 17.9149 17.8447C17.9149 17.8447 17.942 17.8058 17.9615 17.8252C17.9809 17.8447 18.0081 17.9883 18.047 18.0467C18.1325 18.0078 18.2956 17.6427 18.2956 17.6427L18.688 16.5204V15.4951L18.3808 15.5535L16.0768 16.5319L14.6785 17.9806L14.5155 18.3262H14.5165Z" fill="#E6BD62"/>
<path fill-rule="evenodd" clip-rule="evenodd" d="M21.1494 13.2972C21.2741 13.267 21.3935 13.2185 21.504 13.1534C21.4574 13.2778 21.4574 13.4137 21.2554 13.7089C21.0534 14.0041 21.0457 14.0468 20.8827 14.3535C20.7196 14.672 20.7002 15.1302 20.5448 15.3319C20.6144 15.2981 20.6891 15.2759 20.7659 15.2662C20.7659 15.2662 20.6108 15.4021 20.5448 15.5457C20.4787 15.6893 20.3622 15.9883 20.075 16.1711C19.7878 16.3539 19.4225 16.4701 19.0303 16.9012C18.6378 17.3244 18.2341 17.8605 18.0319 18.0533C18.1368 17.8707 18.2804 17.5057 18.3193 17.265C18.3583 17.0244 18.3114 16.7366 18.3775 16.4184C18.4435 16.1002 18.4435 15.8708 18.7615 15.3153C19.0794 14.7598 19.6237 12.8298 19.6237 12.8298L20.7964 12.457L21.1499 13.296L21.1494 13.2972Z" fill="#B6933F"/>
<path fill-rule="evenodd" clip-rule="evenodd" d="M20.3028 12.5864C20.3028 12.5864 19.9495 13.0951 19.8525 13.5456C19.7555 13.9962 19.8446 13.9573 19.7865 14.1787C19.7517 14.3137 19.7517 14.4554 19.7865 14.5904C19.9088 14.3933 20.0763 14.2281 20.2752 14.1086C20.6093 13.9069 20.8811 13.763 21.0432 13.5922C21.2062 13.4097 21.3422 13.1107 21.6955 12.8816C21.5518 12.8621 21.3499 12.7961 21.3115 12.8048C21.4553 12.6417 21.8862 12.3931 22.3211 12.0941C22.7522 11.7869 22.7251 11.663 23.4242 11.3563C23.1951 11.3952 23.0863 11.3369 22.8958 11.3563C22.9726 11.1933 23.2414 11.1154 23.5102 10.8477C23.779 10.5799 23.3395 10.1836 23.3395 10.1836L21.2915 11.4224L20.3013 12.5874L20.3028 12.5864Z" fill="#C49937"/>
<path fill-rule="evenodd" clip-rule="evenodd" d="M14.7456 11.662L14.7922 11.2893L15.3787 10.3495L15.9923 8.69906V6.44267L15.9457 5.13784L16.0428 4.28331L16.1165 4.0117L16.1943 3.90674L16.695 4.16683L17.3865 5.10661L17.4525 6.92037L16.7805 9.78245L14.8621 11.8758L14.7456 11.662Z" fill="#DFC068"/>
<path fill-rule="evenodd" clip-rule="evenodd" d="M16.2719 3.80162C16.2719 3.80162 15.9647 3.80955 15.8991 5.08725C15.8336 6.36495 15.8019 7.03669 15.7553 7.66978C15.7087 8.30287 15.6001 8.68712 15.5456 9.06011C15.4911 9.43311 15.4601 9.94152 15.2855 10.2523C15.2087 10.3959 15.0446 10.8465 14.6601 11.1844C14.229 11.5571 13.5849 11.8175 13.4874 11.8369C13.3164 11.8756 12.4503 11.9611 12.0971 12.1554C11.9729 12.2215 11.7591 12.299 11.5223 12.5205C11.0523 12.9436 10.4272 13.7009 9.97663 14.6135C9.28543 15.9767 8.59424 19.8252 8.59424 19.8252L8.74963 19.5651C8.74963 19.5651 8.76909 19.2195 9.11468 18.6135C9.4526 18.0078 9.35558 17.3281 9.82533 16.1669C10.0079 15.7243 10.237 15.1496 10.5165 14.6601C10.9594 13.864 11.4952 13.1804 12.0351 12.8077C12.9165 12.202 13.8875 12.0699 13.8875 12.0699L14.9322 11.3787C14.9322 11.3787 15.1148 11.0254 15.3557 10.6215C15.6933 10.0547 16.1237 9.42159 16.2176 8.50127C16.3615 7.13807 16.0156 6.24488 16.0351 5.4372C16.0545 4.62952 16.0622 4.03535 16.2255 3.89147C16.3889 3.7476 16.2721 3.80213 16.2721 3.80213L16.2719 3.80162Z" fill="#A88F33"/>
<path fill-rule="evenodd" clip-rule="evenodd" d="M16.2719 9.89891C16.2719 9.89891 16.7327 8.76483 16.9436 7.75901C16.9825 7.55702 17.0601 7.35529 17.0796 7.19222C17.1766 6.24067 17.2037 5.84848 17.0796 5.32803C16.9825 4.94403 16.6098 4.59792 16.4155 4.32963C16.2253 4.04982 16.1359 3.94563 16.1748 3.88675C16.2138 3.82787 16.3651 3.73161 16.5125 3.74313C16.6693 3.7477 16.8234 3.78409 16.9657 3.8501C17.1079 3.91612 17.2353 4.01037 17.3399 4.12713C17.6389 4.47273 17.8758 5.64573 17.8758 5.64573L18.1248 7.1935L18.7579 9.14294L16.2724 9.90045L16.2719 9.89891Z" fill="#C99E3D"/>
<path fill-rule="evenodd" clip-rule="evenodd" d="M20.602 8.71871C20.602 8.71871 20.5165 8.75737 20.3614 8.71871C20.368 8.78211 20.357 8.84611 20.3296 8.90365C20.3021 8.96119 20.2594 9.01006 20.206 9.04486C20.0429 8.97881 18.5164 9.11091 18.5164 9.11091C18.5164 9.11091 17.8057 8.98649 17.5843 8.04671C17.4291 7.42131 17.7008 6.55935 17.6114 5.99231C17.4755 5.15724 17.2853 4.99391 17.2658 4.73407C17.2464 4.47423 17.2269 4.40793 17.2269 4.24486C17.1414 4.2254 17.091 4.19827 17.0057 4.19827C16.9863 4.12147 17.0249 4.05439 16.9397 3.91846C16.9863 3.93791 17.3047 3.97683 17.6775 4.33011C17.9847 4.61759 17.9847 4.7223 18.031 4.78067C18.0891 4.83878 18.5591 5.24147 18.7611 5.64287C18.9631 6.04428 19.3553 7.32428 19.4446 7.53395C19.4718 7.61945 19.5301 7.70495 19.675 7.899C19.9003 8.17881 20.2303 8.6414 20.603 8.7182L20.602 8.71871Z" fill="#B58634"/>
<path fill-rule="evenodd" clip-rule="evenodd" d="M18.0857 4.7998C18.3209 5.17984 18.5323 5.57416 18.7185 5.98048C18.9476 6.49683 19.0836 6.92025 19.371 7.26585C19.2156 6.81555 18.9399 5.93004 18.7769 5.61542C18.5943 5.28262 18.2216 4.92422 18.0857 4.80006V4.7998Z" fill="#A88F33"/>
<path fill-rule="evenodd" clip-rule="evenodd" d="M15.4446 11.1848C15.4446 11.1848 15.0524 11.2818 14.3223 11.6664C14.0814 11.7905 13.8525 11.8952 13.6311 11.9925C13.0559 12.2526 12.4389 12.493 11.9495 12.6256C11.9884 12.6722 12.0076 12.6914 12.0076 12.6914C12.0076 12.6914 12.0076 12.8819 12.1125 12.9904C12.0544 13.0488 11.2775 13.5769 11.5069 15.3438C11.662 15.2857 11.8445 15.2079 11.8717 15.2079C11.9185 15.2158 11.93 15.3438 11.9881 15.3438C12.0462 15.3438 12.2367 15.267 12.4387 15.0059C12.431 15.1108 12.3145 16.1671 12.9397 16.8778C13.0561 16.7418 13.3513 16.2913 13.3513 16.2913L13.359 16.1476C13.359 16.1476 13.3861 15.6467 13.5494 15.1884C13.7128 14.7302 14.031 14.3923 14.031 14.3923L15.6926 12.0194L15.4441 11.1846L15.4446 11.1848Z" fill="#E6C367"/>
<path fill-rule="evenodd" clip-rule="evenodd" d="M13.8912 14.669C13.8151 14.7227 13.7313 14.7646 13.6426 14.7931C13.6155 14.6961 13.5766 14.362 13.8057 14.0359C14.0737 13.6434 14.66 13.1348 14.8231 12.7303C14.928 12.4699 14.8814 11.8177 15.8135 10.9826C16.7456 10.1475 17.1104 9.86028 17.1104 9.86028L18.6172 9.10303L20.4697 9.83314L19.5493 13.4402L18.8348 15.1298L15.9932 14.594L13.891 14.669H13.8912Z" fill="#DCBA5A"/>
<path fill-rule="evenodd" clip-rule="evenodd" d="M14.976 13.6894L15.3295 13.2468V12.9321C15.3295 12.9321 15.7217 12.8272 16.1449 12.3961C16.5681 11.965 17.1546 11.1378 17.6712 11.1882C18.1878 11.2466 18.2382 12.3106 18.2577 12.6098C18.2771 12.9091 18.3432 13.5883 18.4479 13.9536C18.5644 14.3186 17.1896 15.7011 17.1896 15.7011L16.256 16.4117L14.976 13.6894Z" fill="#E9CE77"/>
<path fill-rule="evenodd" clip-rule="evenodd" d="M16.0699 17.3748C16.0699 17.3748 16.3574 16.9243 16.1467 16.8272C16.2709 16.5477 16.5 16.2525 16.5 16.2525C16.5 16.2525 16.6631 15.8488 17.1912 15.3516C17.7193 14.8545 18.0457 14.5243 18.1312 14.1904C18.1839 13.9729 18.2126 13.7502 18.2167 13.5264C18.2738 13.573 18.3348 13.6146 18.3992 13.6505C18.4847 13.6894 18.8884 14.0233 18.8303 14.6953C18.7722 15.3673 18.5231 15.6468 18.5231 15.6468C18.5231 15.6468 18.2825 15.8875 18.1117 16.0119C17.9289 16.136 17.8631 16.2796 17.5562 16.2914C17.5878 16.2663 17.6232 16.2466 17.6612 16.2331C17.6612 16.2331 17.3427 16.1944 17.1717 16.3495C17.0007 16.5047 16.6372 16.9826 16.4547 17.1265C16.2722 17.243 16.0707 17.3751 16.0707 17.3751L16.0699 17.3748Z" fill="#CDAE50"/>
<path fill-rule="evenodd" clip-rule="evenodd" d="M28.9826 9.82128C28.5237 9.65406 28.0416 9.55973 27.5536 9.54173C26.738 9.51459 25.5458 9.56118 24.3769 9.56886C23.1187 9.57654 21.9769 9.13776 20.3926 9.06019C20.1325 8.9048 19.471 8.22512 17.4061 9.66589C17.5303 9.65821 18.9052 9.34742 19.3827 9.94569C19.8642 10.5399 19.7282 11.5495 19.6625 11.7902C19.538 12.3262 19.1341 13.1068 18.9713 13.6544C18.8085 14.2019 18.8469 14.4897 18.7304 14.8737C18.6139 15.2577 18.3576 15.4484 18.5089 15.891C18.7109 15.7669 18.8161 15.7669 19.1535 15.0096C19.4909 14.2524 19.4216 13.7125 19.9809 13.0717C20.5285 12.4271 21.4401 11.5454 21.7867 11.324C22.1333 11.1026 24.8856 9.67357 27.7673 11.0368C28.4624 10.963 28.9828 9.82102 28.9828 9.82102L28.9826 9.82128Z" fill="#D2A83E"/>
<path fill-rule="evenodd" clip-rule="evenodd" d="M18.5668 9.29285C18.5639 9.26366 18.5574 9.23494 18.5476 9.20734C18.5206 9.15055 18.4852 9.09816 18.4426 9.05195C18.4426 9.05195 17.7591 8.92779 17.4135 8.96644C16.8075 9.03249 16.26 9.78207 16.0037 10.1666C15.7474 10.5511 15.429 11.145 15.0834 11.452C15.0872 11.4221 15.0803 11.3918 15.0639 11.3665C15.0639 11.3665 15.0834 11.3936 15.0447 11.4325C15.0061 11.4714 15.0058 11.4906 15.0253 11.5093L15.0836 11.5674C15.1028 11.5674 15.6389 11.3265 16.369 10.6458C17.1457 9.93516 17.7399 9.57061 18.0507 9.44568C18.2164 9.37525 18.3896 9.32397 18.567 9.29285H18.5668Z" fill="#C29637"/>
<path fill-rule="evenodd" clip-rule="evenodd" d="M31.8254 6.37305C31.8254 6.37305 31.701 6.52818 31.5456 6.69919C31.2 7.06425 30.7495 7.47564 30.365 7.89906C30.0002 8.30303 29.5885 8.61766 29.1262 9.14578C28.6638 9.67391 28.1278 10.2602 27.9921 10.4312C27.8679 10.6022 27.7709 10.8817 27.7709 11.0253C27.7049 10.9787 27.6273 10.9283 27.6273 10.9283C27.6599 10.9893 27.699 11.0466 27.7438 11.0993C27.8408 11.2353 27.9921 11.4065 28.0699 11.511C28.1654 11.6439 28.2339 11.7943 28.2716 11.9536C28.3182 11.9613 28.6172 12.0196 28.9902 11.406C29.3632 10.7924 29.8522 10.1206 29.8522 10.1206L30.6289 8.96709L31.1184 7.98866L31.7328 6.89349L31.8262 6.37305H31.8254Z" fill="#AC8132"/>
<path fill-rule="evenodd" clip-rule="evenodd" d="M32.6216 5.58838C32.6216 5.58838 32.1515 5.97239 31.969 6.20279C31.7865 6.4332 31.3546 7.03788 31.3546 7.03788L31.51 7.01842L32.2985 6.31953L32.6057 5.77193L32.6213 5.5894L32.6216 5.58838Z" fill="#A88F33"/>
<path fill-rule="evenodd" clip-rule="evenodd" d="M32.4777 36.4508C32.4777 36.4508 32.47 36.1323 32.6487 35.9421C32.8312 35.7516 33.2933 35.4721 33.7438 34.4235C34.1944 33.3749 34.2446 33.1381 34.2446 33.1381C34.2446 33.1381 33.4369 33.8293 32.939 33.9924C33.0555 33.7515 33.1215 33.5808 33.1799 33.4563C33.1138 33.3982 32.8343 33.3322 32.8071 33.3012C32.9623 33.1458 33.0478 32.7651 33.3624 32.5127C33.7664 32.2055 34.5042 31.6777 35.0776 31.2071C35.651 30.7366 36.7785 29.6422 36.9223 29.3237C37.0078 29.4479 37.027 29.5255 37.027 29.5255C37.027 29.5255 36.4603 30.2635 36.1651 30.7333C35.9047 31.1372 35.9242 31.3664 35.9242 31.3664L36.4603 31.136C36.4603 31.136 36.6154 31.7107 35.9127 32.5847C36.2199 32.4682 36.3438 32.5381 36.5184 32.4408C36.2309 32.6236 35.8349 32.8721 35.4621 33.5554C35.0971 34.2389 34.5999 35.0351 33.7613 35.532C32.9456 36.0563 32.4756 36.4485 32.4756 36.4485L32.4777 36.4508Z" fill="#A67A2E"/>
<path fill-rule="evenodd" clip-rule="evenodd" d="M30.3728 10.2253C30.3728 10.2253 30.0544 10.8891 30.0078 11.4057C30.0001 11.5302 29.9689 11.6272 29.9689 11.7708C29.9612 12.2329 29.996 12.7495 29.8921 12.9901C29.8532 12.8931 29.8337 12.827 29.7948 12.7884C29.7367 12.9515 29.6317 13.4601 29.5462 13.6503C29.5076 13.5262 29.4221 13.0951 29.43 12.5864C29.4379 12.0777 29.4492 11.9805 29.4492 11.8758C29.43 12.0309 29.325 12.2408 29.2861 12.365C29.228 12.2603 29.162 12.1243 29.0841 12.0117C29.0376 12.0885 28.9795 12.2019 28.929 12.2603C28.9211 12.2137 28.9019 12.0893 28.8901 11.9147C28.8824 11.7127 28.8707 11.4526 28.8824 11.3981C28.9016 11.2933 29.065 10.8817 29.4105 10.5049C29.8222 10.0543 30.2456 9.18852 30.3697 8.92049C30.4939 8.65245 31.022 7.53809 31.022 7.53809H31.426L30.8395 8.87389C30.8395 8.87389 30.4862 9.60401 30.3037 9.87229C30.1212 10.1406 29.7367 10.9093 29.5657 11.2084C29.6898 11.0453 29.7948 10.9598 29.9192 10.8044C30.0395 10.6956 30.3733 10.2258 30.3733 10.2258L30.3728 10.2253Z" fill="#8C6228"/>
<path fill-rule="evenodd" clip-rule="evenodd" d="M32.6292 5.5376C32.5632 5.74069 32.4589 5.92926 32.322 6.09312C32.0811 6.38061 31.5645 6.76486 31.3123 7.07155C31.082 7.37056 30.6212 8.18617 30.8306 9.15309C30.9074 8.94342 31.052 8.52793 31.4365 8.05792C31.821 7.5879 32.2326 7.04825 32.4349 6.62893C32.6366 6.2055 32.6637 5.87168 32.6637 5.87168L32.7405 5.77465L32.6939 5.55321L32.6279 5.5376H32.6292Z" fill="#CBA94C"/>
<path fill-rule="evenodd" clip-rule="evenodd" d="M40.4934 31.2972C40.4934 31.2972 40.338 30.874 40.2914 30.4895C40.2448 30.105 40.3682 30.0287 40.2253 29.5887C40.1398 29.3206 39.9847 29.3583 39.9458 29.3206C39.9069 29.283 39.8797 28.878 39.8874 28.6566C39.8951 28.4351 39.8797 28.1479 39.8408 28.0235C39.7827 27.9769 39.7438 27.938 39.6583 27.6507C39.5613 27.3633 39.5147 27.2196 39.4681 27.1344C39.4215 27.0491 39.2853 26.9713 39.2853 26.8858C39.2853 26.7148 39.4407 26.6257 39.4407 26.5786C39.433 26.4816 39.3165 26.5594 39.2853 26.532C39.2466 26.4854 39.3826 26.2059 39.3321 26.167C39.3127 26.1478 39.1768 26.3108 39.1417 26.2642C39.1028 26.2174 39.0562 25.7553 38.9863 25.4486C38.9205 25.1496 38.8504 24.9323 38.8427 24.8429C38.835 24.7574 38.3066 23.2506 38.1786 22.8856C38.0754 22.5771 37.9886 22.2634 37.9185 21.9458C37.8796 21.7633 37.8525 21.3903 37.833 21.4292C37.8135 21.4681 37.8253 21.6583 37.7941 21.6506C37.7669 21.6427 37.6699 20.9789 37.639 20.8739C37.6118 20.7689 37.4485 20.4131 37.4085 20.1556C37.3696 19.8952 37.2844 19.2155 37.226 18.7535C37.1677 18.2914 37.1405 18.1012 37.1405 17.9855C37.1501 17.7024 37.1345 17.4191 37.0939 17.1389C37.0171 16.6494 36.8635 16.0552 36.7289 15.7099C36.4688 15.0573 35.7773 13.3874 35.6537 12.972C35.6537 12.867 35.7896 12.9254 35.7896 12.9254C35.7896 12.9254 36.1273 13.772 36.3758 14.4242C36.6167 15.0768 36.8459 15.6515 36.9042 15.7099C36.9508 15.768 37.3159 16.4088 37.4789 17.4573C37.642 18.5059 37.7001 19.4728 37.7974 20.1174C37.844 20.4246 37.8829 20.7505 37.9799 21.0767C38.0846 21.4302 38.2477 21.7953 38.4615 22.3544C38.644 22.8244 38.7799 23.2166 38.8537 23.5545C38.9392 23.9856 38.9392 24.3117 38.9896 24.5255C39.0365 24.708 39.1061 25.0728 39.2694 25.6007C39.4328 26.1286 39.6731 26.8085 39.8362 27.2317C40.1549 28.0783 40.297 28.7851 40.3451 29.1619C40.3876 29.5503 40.5315 30.894 40.4926 31.2977L40.4934 31.2972Z" fill="#A88F33"/>
<path fill-rule="evenodd" clip-rule="evenodd" d="M32.6487 5.49104L32.6292 5.53763C32.6292 5.53763 32.6873 5.55709 32.6758 5.63491C32.6766 5.74139 32.6701 5.84779 32.6564 5.95338C32.6372 6.08931 32.5982 6.19402 32.5906 6.27952C32.5906 6.46205 32.6177 6.67172 32.3602 7.19217C32.2834 7.33578 32.236 7.45994 32.1971 7.54545C32.1001 7.75511 32.0806 7.78635 31.9951 7.88337C32.1311 7.80657 32.6205 7.49937 32.8688 7.54545C32.6981 7.64247 32.4377 7.83294 32.2747 8.08152C32.3136 8.0892 32.4766 8.12043 32.7355 8.08152C33.1665 8.01547 33.6481 7.86008 34.0712 7.89105C34.5335 7.91819 34.351 7.33578 34.351 7.33578L33.8175 6.16304L32.8079 5.45264L32.6487 5.49129V5.49104Z" fill="#BE9C44"/>
<path fill-rule="evenodd" clip-rule="evenodd" d="M35.2817 14.276C35.2817 14.276 34.8311 13.8254 34.6486 12.2792C34.4661 10.7258 34.505 8.43917 34.505 8.43917L34.1399 7.54599C34.1399 7.54599 34.0631 6.95181 33.8719 6.73063C33.6807 6.50945 33.3051 6.13645 33.1341 5.95393C32.9631 5.7714 32.769 5.52282 32.6526 5.48391C32.7107 5.38689 32.971 4.8393 33.9689 4.83162C34.9668 4.82394 35.2745 5.37921 35.3787 5.58119C35.4829 5.78317 35.9534 6.65639 36.128 8.32039C36.2911 9.98234 36.299 10.1068 36.2719 10.6815C36.2524 10.9999 36.1475 11.7377 35.9647 12.526C35.7978 13.1941 35.6152 13.9398 35.2812 14.2775L35.2817 14.276Z" fill="#A17C34"/>
<path fill-rule="evenodd" clip-rule="evenodd" d="M33.8688 15.6003C34.019 15.6111 34.169 15.5773 34.3 15.503C34.4436 15.4954 34.9641 15.5614 35.364 15.0527C35.3911 15.169 35.4613 15.4838 35.2785 15.7634C35.3757 15.6661 35.5194 15.6274 35.5388 15.6003C35.5465 15.7439 35.6825 16.1865 35.1077 17.2623C35.2628 17.0915 35.4454 17.0992 35.6085 17.0797C35.6164 17.2817 35.725 17.9611 35.4377 18.3264C35.2475 18.575 34.9367 18.4972 34.9367 18.4972C34.9412 18.4429 34.9412 18.3884 34.9367 18.3341C34.929 18.2292 34.8901 18.1245 34.9175 18.0546C34.7673 17.986 34.6305 17.8912 34.5135 17.7748C34.1755 17.4563 33.7367 16.9128 33.7058 16.5088C33.6668 16.0583 34.0708 15.9613 34.0708 15.9613C34.037 15.931 34.0081 15.8956 33.9853 15.8563C33.9659 15.7905 33.9464 15.6856 33.8688 15.6003Z" fill="#8C6228"/>
<path fill-rule="evenodd" clip-rule="evenodd" d="M30.8736 10.7146C30.8736 10.7146 30.8541 10.6875 30.7494 10.8117C30.7689 10.6875 30.7883 10.5708 30.796 10.4581C30.8456 10.3539 30.9097 10.2571 30.9865 10.1709C30.9281 10.2871 30.8892 10.3921 30.8892 10.3921C30.8892 10.3921 31.0331 10.1241 31.2427 9.96098C31.3863 9.8445 31.5689 9.79023 31.6464 9.68143C31.7319 9.56495 31.7125 9.5455 31.7319 9.52604C31.7319 9.52604 31.9224 9.40188 32.2137 9.03657C32.2524 8.98998 32.3107 8.93954 32.3496 8.89295C32.4154 8.86582 32.5708 8.79593 32.7533 8.70249C32.9438 8.59778 33.1573 8.45417 33.2894 8.39529C33.5495 8.27881 33.8254 8.29058 33.9534 8.1078C34.0505 8.08066 34.1552 7.78934 34.136 7.54102C34.2796 7.59913 35.0173 8.05737 35.27 9.05935C35.4525 9.77001 35.1261 10.8652 34.9902 11.3936C34.8543 11.9219 34.8351 12.3139 34.6446 12.5545C34.4037 12.8732 33.6273 13.3225 33.4368 13.545C33.2738 13.7275 32.7846 14.1896 32.8038 14.5234C32.8232 14.772 33.1299 14.9074 33.1962 14.9545C33.2625 15.0016 33.262 15.0595 33.3864 15.0313C33.5108 15.0032 33.5572 14.9458 33.6078 14.9458C33.666 14.9535 33.666 14.9653 33.6931 14.9653C33.7128 14.9647 33.7323 14.962 33.7515 14.9573C33.7515 14.9573 33.732 15.3109 32.9049 15.4181C32.8465 15.4261 32.7884 15.4453 32.7144 15.457C32.8117 15.4105 32.8698 15.4105 32.9748 15.2668C32.8583 15.2474 32.5242 15.2279 32.4387 15.2008C32.4659 15.1542 32.5552 15.0298 32.6289 14.9717C32.695 14.9136 32.6212 14.8949 32.5631 14.9251C32.4631 14.9932 32.3671 15.067 32.2757 15.1463C32.1786 15.2318 32.0931 15.3482 31.9377 15.4535C31.8911 15.2981 31.8988 15.0029 32.0816 14.7894C32.0348 14.7971 31.9454 14.933 31.8602 14.9059C31.8448 14.7642 31.8539 14.621 31.8873 14.4825C31.9339 14.3076 32.1863 14.0009 32.1863 14.0009L33.4056 11.8221L33.6657 10.1717L30.8736 10.7141V10.7146Z" fill="#92723A"/>
<path fill-rule="evenodd" clip-rule="evenodd" d="M30.8078 10.8079C30.8078 10.8079 30.7418 10.8545 30.8739 10.9439C30.8544 10.971 30.8078 11.068 30.7495 11.1341C30.6837 11.2109 30.6135 11.2585 30.5864 11.3245C30.5283 11.4605 30.4817 11.5537 30.4817 11.612C30.4817 11.6704 30.4622 12.0431 30.2991 12.2838C30.2408 12.3693 30.1747 12.5129 30.1281 12.6099C30.0311 12.7807 29.9456 12.9171 29.9261 12.9939C29.8875 13.1299 29.8603 13.5026 29.8603 13.5026C29.8603 13.5026 29.9458 13.3976 29.9768 13.359C29.93 13.456 29.8795 13.5607 29.8058 13.6385C29.8524 13.5996 29.9883 13.5026 30.2175 13.3006C30.536 13.0328 31.0331 12.5823 31.6391 12.2254C31.4563 12.2915 31.3012 12.2915 31.177 12.3109C31.274 12.2139 32.1478 11.1886 32.6061 11.0916C32.6339 11.0563 32.6478 11.012 32.645 10.9672L32.2525 10.9285L31.4563 11.0993L31.3401 10.4849L30.8078 10.8072V10.8079Z" fill="#B18E3E"/>
<path fill-rule="evenodd" clip-rule="evenodd" d="M32.074 14.3031C32.074 14.3031 31.969 14.4078 31.872 14.6681C31.7973 14.5901 31.7333 14.5026 31.6815 14.4078C31.5379 14.1672 31.3167 13.8602 30.8001 14.0351C30.7925 13.872 30.7807 13.7865 30.8001 13.67C30.8856 13.6508 31.1457 13.4411 31.4058 13.1342C31.5886 12.9245 31.7594 12.6836 31.8759 12.3769C31.9527 12.3186 32.0855 12.2216 32.2599 12.1089C32.5084 11.9382 32.8074 11.7049 32.854 11.4449C32.7375 11.4914 32.489 11.6079 32.116 11.5887C32.2599 11.5227 32.481 11.4528 32.4539 11.1653C32.5123 11.1264 32.5589 11.0993 32.5589 11.0993C32.5151 11.0846 32.469 11.0781 32.4229 11.0798C32.415 11.0527 32.4035 11.014 32.3374 11.0332C32.2714 11.0524 32.2606 11.0527 32.2519 11.0798C32.2248 11.0877 32.1354 11.0798 32.0694 11.1266C32.0033 11.1735 31.8208 11.3284 31.7509 11.3555C31.7781 11.3089 31.8167 11.2393 31.8167 11.2393C31.8167 11.2393 31.6265 11.2585 31.4906 11.3161C31.242 11.4016 30.9548 11.557 30.6634 11.7083C30.6906 11.6617 30.7023 11.6315 30.7215 11.6228C30.7407 11.6141 30.7876 11.6036 30.7876 11.5956C30.7876 11.5877 30.7684 11.5188 30.7799 11.4909C30.867 11.3064 30.9698 11.1297 31.0871 10.9628C31.2231 10.78 31.2502 10.5199 31.2502 10.5199L31.8444 10.2209L33.5143 9.83691L34.5979 9.90296L34.462 10.6525L33.822 11.9612L33.2744 13.1534L32.649 13.8838L32.0743 14.3031H32.074Z" fill="#543E26"/>
<path fill-rule="evenodd" clip-rule="evenodd" d="M34.7805 11.0593C34.7805 11.0593 34.128 11.867 33.9455 11.9914C34.062 11.7428 34.7805 10.2631 35.0406 9.8515C34.9825 9.8049 34.9047 9.8049 35.0872 9.0835C34.9321 9.4483 34.8776 9.63876 34.7496 9.73578C34.6216 9.83281 34.6057 9.80183 34.5192 9.80183C34.5355 9.77228 34.5422 9.73836 34.5384 9.70481C34.5384 9.70481 33.9908 9.63876 33.6168 9.63876C33.2428 9.63876 32.5025 9.84074 32.0906 10.0038C31.7644 10.1398 31.5819 10.1398 31.4654 10.225C31.349 10.322 31.2829 10.427 31.2245 10.4541C31.178 10.4813 30.9568 10.5511 30.9061 10.6249C30.8595 10.7017 30.7819 10.7879 30.7819 10.8074C30.7819 10.8269 30.7625 10.8542 30.8208 10.8345C30.84 10.8269 30.9839 10.749 31.147 10.652C31.3682 10.5278 31.6362 10.3842 31.8305 10.2987C32.3857 10.0773 32.5606 10.1162 32.8089 10.0696C33.069 10.023 33.442 9.91422 33.6903 9.91422C33.9388 9.90654 34.4088 9.91422 34.5176 9.93367C34.4711 9.97258 34.4321 10.0192 34.4516 10.1822C34.4516 10.2288 34.4127 10.2793 34.3748 10.3919C34.2586 10.7104 34.0371 11.2385 33.914 11.5065C33.7433 11.8713 33.5492 12.1783 33.4532 12.3685C33.3572 12.5587 33.146 13.0597 32.9369 13.3277C32.7277 13.5958 32.6184 13.7588 32.5529 13.8172C32.4874 13.8756 32.0168 14.2209 32.0519 14.3453C32.1374 14.3182 32.6773 14.1149 33.0692 13.6736C33.4612 13.2322 33.5392 12.9629 33.8459 12.722C34.1526 12.4811 34.3935 12.0774 34.5371 11.7436C34.6574 11.4328 34.6303 11.3358 34.7816 11.0601L34.7805 11.0593Z" fill="#806031"/>
<path fill-rule="evenodd" clip-rule="evenodd" d="M20.7186 17.0877C20.7186 17.0877 20.6331 17.441 20.4388 17.6159C20.2486 17.7869 19.9106 17.9343 19.872 18.2218C19.8254 18.509 20.2099 18.6529 20.2099 18.6529C20.2099 18.6529 20 18.9985 20 19.2586C20 19.5266 19.9923 19.5771 20.0194 19.8333C19.9886 19.8531 19.9624 19.8793 19.9426 19.9101C19.9426 19.9101 19.9618 20.1587 20.1523 20.3138C20.3428 20.469 20.5056 20.5624 20.6026 20.5235C20.6174 20.5552 20.6304 20.5876 20.6415 20.6208C20.6415 20.6208 20.7854 20.2557 20.8824 19.9373C20.9795 19.6111 21.065 19.6575 21.1036 19.2187C21.1423 18.7799 21.5644 18.0265 21.5644 18.0265L21.8525 17.3826L21.3827 17.0176L20.7186 17.0875V17.0877Z" fill="#B6903C"/>
<path fill-rule="evenodd" clip-rule="evenodd" d="M21.5923 17.7202C21.4955 17.8197 21.406 17.9261 21.3248 18.0387C21.2006 18.2097 21.1036 18.3648 20.9211 18.4311C20.7386 18.4974 20.6221 18.4969 20.6336 18.6797C20.6451 18.8625 20.8161 18.9398 20.9132 19.033C21.0181 19.13 21.1036 19.2931 21.057 19.4759C21.1151 19.4487 21.2201 19.4175 21.3171 19.2078C21.4142 18.9982 22.0928 17.7205 22.0928 17.7205H21.5923V17.7202Z" fill="#685026"/>
<path fill-rule="evenodd" clip-rule="evenodd" d="M24.2688 14.7725C24.2688 14.7725 24.3269 14.6174 24.2688 14.5047C24.2104 14.3883 23.8571 14.3494 23.6823 14.2173C23.4997 14.0813 23.2783 13.9869 23.0958 14.0465C23.1229 13.9805 23.2317 13.8366 23.1424 13.8056C23.0569 13.7785 22.7387 13.9221 22.6531 13.9881C22.5676 14.0542 22.3733 14.1318 22.3347 14.1786C22.296 14.2255 22.2297 14.3145 22.1908 14.2756C22.1519 14.2485 22.1327 14.1786 22.0667 14.2173C22.0006 14.2559 21.6827 14.5163 21.624 14.6678C21.5654 14.8194 21.4336 15.1573 21.0375 15.5415C20.6415 15.9258 20.4705 16.1746 20.587 16.3182C20.7035 16.4619 20.758 16.3572 20.7775 16.4813C20.7924 16.6032 20.7858 16.7268 20.758 16.8464C20.7114 17.0483 20.6338 17.2386 20.7385 17.2775C21.0066 17.363 21.2669 17.2007 21.325 17.2503C21.4415 17.355 21.259 17.7319 21.5347 17.8056C21.8145 17.8824 22.0902 17.7395 22.0902 17.7395L23.1075 17.192L24.0862 16.6756L24.587 15.6852L24.3184 14.858L24.2672 14.7725H24.2688Z" fill="#D4B968"/>
<path fill-rule="evenodd" clip-rule="evenodd" d="M23.3088 17.138C23.3088 17.138 23.1378 16.8779 23.3477 16.6486C23.5576 16.4192 23.8564 16.3224 23.9729 16.1788C23.9507 16.1515 23.921 16.1313 23.8874 16.1207C23.9647 15.9823 24.0827 15.8711 24.2253 15.802C24.1672 15.7439 24.0894 15.6973 24.0041 15.6973C23.8136 15.6973 23.6969 15.8138 23.5223 15.8138C23.3516 15.8138 23.3321 15.7283 23.3321 15.7283C23.3321 15.7283 23.6196 15.7011 23.5922 15.5729C23.5651 15.4369 23.5154 15.4369 23.5154 15.4369C23.5154 15.4369 24.0707 15.2065 24.1677 15.0837C24.2647 14.9608 24.2532 14.8156 24.2727 14.7575C24.3385 14.7575 24.723 14.5555 24.8784 14.641C25.0338 14.7265 24.925 14.9595 24.925 14.9595C24.925 14.9595 25.3952 14.606 25.6348 14.2593C25.8445 14.2788 25.942 14.1157 26.0956 14.1157C26.2861 14.1157 26.5851 14.3758 26.6432 14.9311C26.6821 15.2495 26.7403 15.4321 26.6822 15.9953C26.655 16.3137 26.6627 16.9937 26.759 17.3311C26.8247 17.5991 26.9801 17.572 26.9801 17.572C26.9563 17.6536 26.909 17.7265 26.8442 17.7816C26.7392 17.8786 26.7277 18.1352 26.7392 18.2322C26.7547 18.3031 26.7742 18.3731 26.7976 18.4418C26.7976 18.4418 26.6734 18.5855 26.6422 18.6827C26.6151 18.7798 26.4871 18.8458 26.3936 18.8458C26.3002 18.8458 26.347 18.8379 26.2229 18.8458C26.0987 18.8537 26.0598 18.8729 25.982 18.8458C25.9042 18.8187 25.846 18.7874 25.8773 18.5386C25.9044 18.29 24.918 17.7115 24.918 17.7115L23.3052 17.1368L23.3088 17.138Z" fill="#CCA849"/>
<path fill-rule="evenodd" clip-rule="evenodd" d="M21.4564 19.592C21.4564 19.592 21.8097 20.062 23.2623 20.062C23.9535 20.062 24.1944 19.996 24.3375 19.9571C24.4929 19.9181 25.0753 19.6893 25.6618 18.9978C26.19 18.3727 26.0735 18.1164 26.0735 18.1164L25.7663 18.0698L24.7678 18.2058L21.8135 19.464L21.4551 19.592H21.4564Z" fill="#585136"/>
<path fill-rule="evenodd" clip-rule="evenodd" d="M22.5397 19.7088C22.5397 19.7088 21.2815 19.9886 21.2815 19.1925C21.2815 18.4158 22.0582 17.6002 22.2525 17.4566C22.4545 17.3127 22.936 17.1494 22.936 17.1494H24.0973L24.3184 17.7359L24.2214 19.0018L22.5397 19.7086V19.7088Z" fill="#252211"/>
<path fill-rule="evenodd" clip-rule="evenodd" d="M23.701 17.3867C23.701 17.3867 23.4603 17.1653 22.9127 17.4635C22.3652 17.7617 21.9223 18.3851 21.8951 18.9511C21.868 19.4519 22.3068 19.8249 22.9903 19.8443C23.499 19.8635 23.8059 19.8054 23.9613 19.7675C23.9224 19.7209 23.7204 19.4685 23.7204 19.4685L23.7012 17.387L23.701 17.3867Z" fill="#C3B378"/>
<path fill-rule="evenodd" clip-rule="evenodd" d="M23.4642 17.5102C23.4642 17.5102 23.406 17.4636 23.2338 17.5568C23.0901 17.6336 22.8805 17.8366 22.7174 17.9802C22.6125 18.0657 22.5464 18.1043 22.487 18.1704C22.2461 18.4579 22.0441 18.9279 22.1609 19.1608C22.2776 19.3938 22.6619 19.6618 23.6405 19.4793L23.4613 17.5104L23.4642 17.5102Z" fill="#E6D89C"/>
<path fill-rule="evenodd" clip-rule="evenodd" d="M23.1457 17.9922C23.1457 17.9922 22.9903 18.2331 22.9903 18.6177C22.9903 19.0099 23.2117 19.635 24.0273 19.6816C24.6525 19.7205 25.0718 18.7807 25.5262 18.4157C25.8717 18.1361 26.0814 18.1282 26.0814 18.1282C26.0814 18.1282 25.7281 17.7442 24.7845 17.2468C23.8525 16.7458 22.8078 16.6797 22.2408 17.4487C22.5088 17.4293 23.3748 17.2078 23.3748 17.2078L23.7982 17.3438L23.1457 17.9925V17.9922Z" fill="#252211"/>
<path fill-rule="evenodd" clip-rule="evenodd" d="M24.365 18.501C24.3379 18.4429 24.3184 18.3651 24.431 18.3459C24.5437 18.3267 24.5941 18.338 24.633 18.4227C24.6719 18.5074 24.7098 18.5781 24.6522 18.6132C24.5941 18.6441 24.4426 18.6132 24.3647 18.5005L24.365 18.501ZM24.1825 17.9534C24.1825 17.9534 24.1436 17.9806 24.1631 17.9263C24.1707 17.8605 24.2214 17.7438 24.3455 17.7712C24.4697 17.7986 24.4428 17.9343 24.4223 17.9732C24.4019 18.0121 24.2982 18.0779 24.2204 18.05C24.2105 18.0474 24.2014 18.0426 24.1937 18.0359C24.1861 18.0292 24.1801 18.0208 24.1763 18.0113C24.1725 18.0019 24.171 17.9917 24.1719 17.9815C24.1728 17.9714 24.1761 17.9616 24.1815 17.9529L24.1825 17.9534Z" fill="#6F674D"/>
<path fill-rule="evenodd" clip-rule="evenodd" d="M13.6704 18.2017C13.6704 18.2017 13.9776 18.4321 14.3345 18.4231C14.6878 18.4152 15.1422 18.0504 15.3518 17.8172C15.476 17.6812 15.5822 17.5376 15.6974 17.425C15.7947 17.3279 15.8605 17.2813 15.9071 17.2153C15.9731 17.1385 16.043 16.9941 16.0781 16.9473C15.9926 17.0133 15.8684 17.13 15.7402 17.2076C15.616 17.2844 15.348 17.4288 15.2392 17.4677C15.1345 17.5066 14.047 18.0821 14.047 18.0821L13.6704 18.2017Z" fill="#AC924C"/>
<path fill-rule="evenodd" clip-rule="evenodd" d="M14.1398 15.3323C14.1398 15.3323 14.3105 15.2158 14.6408 15.1418C14.9592 15.065 15.6 15.0059 15.6 15.0059L16.1281 15.2363L16.3378 16.0324L15.9538 16.8598L15.4646 17.167L14.909 16.2738L14.1411 15.3338L14.1398 15.3323Z" fill="#9F8E57"/>
<path fill-rule="evenodd" clip-rule="evenodd" d="M13.4488 16.0426L13.266 16.179C13.266 16.179 13.3129 16.0935 13.3515 15.8334C13.3902 15.5733 13.5924 14.9402 13.8876 14.5751C14.1828 14.2101 14.1751 14.2295 14.1751 14.2295C14.1479 14.2246 14.12 14.2254 14.0932 14.2321C14.0664 14.2388 14.0414 14.2511 14.0197 14.2682C14.0586 14.1822 14.3072 13.875 14.5558 13.7214C14.8043 13.5678 14.9014 13.5194 15.1615 13.6446C15.4216 13.7698 15.4876 13.8348 15.6781 13.8271C15.8685 13.8194 16.0313 13.6174 16.0313 13.6174C16.0313 13.6174 16.0703 13.7416 15.9266 14.0291C15.783 14.3166 15.216 14.9028 15.216 14.9028L14.0353 15.7105L13.4488 16.0433V16.0426Z" fill="#EAC970"/>
<path fill-rule="evenodd" clip-rule="evenodd" d="M14.3223 15.235C14.3223 15.235 15.1768 15.3515 15.4369 15.1108C15.4446 15.138 15.4758 15.138 15.4758 15.1574C15.4737 15.1721 15.4669 15.1856 15.4564 15.1961C15.4847 15.1915 15.5132 15.189 15.5419 15.1884C15.5761 15.1986 15.6113 15.2051 15.6468 15.2078C15.6755 15.2072 15.7041 15.2046 15.7323 15.1999C15.7296 15.2192 15.7231 15.2378 15.7131 15.2545C15.703 15.2712 15.6897 15.2857 15.674 15.2972C15.7129 15.2972 15.7508 15.3049 15.7508 15.3358C15.7508 15.3668 15.7585 15.4603 15.7119 15.4797C15.6733 15.4904 15.6322 15.4876 15.5954 15.4718C15.5985 15.5453 15.6184 15.6171 15.6538 15.6817C15.7306 15.8253 15.8944 15.9889 16.1146 15.9418C16.1146 15.9418 16.2308 16.2213 15.7416 16.8427C15.6758 16.9282 15.6056 17.0446 15.5204 17.1417C15.4867 17.2151 15.4609 17.2919 15.4436 17.3708C15.4436 17.3708 16.271 17.0523 16.5078 16.326C16.7487 15.5959 16.7953 14.8776 16.7487 14.2059C16.7407 14.0154 16.7098 13.8797 16.6632 13.7824C16.5467 13.5415 16.2203 13.5804 16.0884 13.7164C15.898 13.9068 15.5795 14.3804 15.1369 14.7066C14.6863 15.0327 14.6671 15.0906 14.3213 15.235H14.3223Z" fill="#D7BC6B"/>
<path fill-rule="evenodd" clip-rule="evenodd" d="M13.2971 16.2836C13.2971 16.2836 13.134 16.3806 13.0485 16.7444C12.963 17.1171 13.1253 17.5715 13.2193 17.7151C13.3132 17.8588 13.5265 18.2512 13.9688 18.2707C14.0783 18.2701 14.1866 18.2476 14.2873 18.2046C14.4417 18.1338 14.5866 18.0438 14.7184 17.9366C14.9089 17.793 15.064 17.6688 15.0446 17.657C14.998 17.6376 13.8718 16.7055 13.8718 16.7055L13.4484 16.2329L13.2968 16.2841L13.2971 16.2836Z" fill="#585136"/>
<path fill-rule="evenodd" clip-rule="evenodd" d="M14.3618 17.8292C14.3618 17.8292 14.5909 17.81 14.7268 17.7245C14.8628 17.639 13.9306 16.7148 13.9306 16.7148L13.9967 17.7132L14.3618 17.8292Z" fill="#453A25"/>
<path fill-rule="evenodd" clip-rule="evenodd" d="M13.3708 16.2136C13.3708 16.2136 13.2543 16.435 13.2543 16.4934C13.2348 16.6836 13.2932 17.2816 13.3398 17.4718C13.3864 17.6738 13.6388 17.9805 13.9652 17.9805C14.1669 17.9805 14.4467 17.8563 14.4467 17.8254C14.4467 17.7864 14.1593 17.7486 14.0817 17.6039C14.0351 17.5271 14.0156 17.3361 14.0049 17.1431C13.9972 17.019 13.9972 16.883 14.0438 16.8359C14.1488 16.7194 14.168 16.3854 14.168 16.3854L14.5407 15.6929H14.0505L13.464 16.0579L13.3708 16.2136Z" fill="#84754B"/>
<path fill-rule="evenodd" clip-rule="evenodd" d="M13.2274 16.4275C13.2274 16.4275 13.6114 15.9188 13.9575 15.8021C14.3036 15.6853 14.4585 15.7555 14.4585 15.7555L14.2565 16.2721L13.969 16.5905L13.9885 16.7536C13.9885 16.7536 13.9416 17.1847 14.2291 17.4837C14.5166 17.7827 14.7301 17.7712 14.8545 17.7712C14.9789 17.7712 15.336 17.6662 15.5185 17.2351C15.6816 16.8314 15.8175 16.3135 15.4914 15.7944C15.1727 15.2778 14.6098 15.2578 14.501 15.2578C14.3922 15.2578 13.5379 15.3006 13.2274 16.4267V16.4275Z" fill="#252211"/>
<path fill-rule="evenodd" clip-rule="evenodd" d="M23.0874 18.1551C22.9437 18.0891 23.0797 17.6854 23.2233 17.561C23.3669 17.4366 23.5494 17.2932 23.8682 17.2735C23.9844 17.2658 24.097 17.3395 24.0778 17.4174C24.0507 17.561 23.8487 17.763 23.6662 17.9066C23.4138 18.1047 23.2504 18.2289 23.0874 18.1551Z" fill="#F7F7E7"/>
<path fill-rule="evenodd" clip-rule="evenodd" d="M15.3204 15.9536C15.4253 15.9459 15.5613 16.0304 15.5884 16.1441C15.6155 16.2682 15.5224 16.5168 15.3204 16.5168C15.1573 16.5168 15.0718 16.3148 15.0718 16.2567C15.0736 16.2089 15.0869 16.1623 15.1107 16.1208C15.1184 16.109 15.1378 15.9731 15.3204 15.9536Z" fill="#F8F6DE"/>
<path fill-rule="evenodd" clip-rule="evenodd" d="M13.8057 16.043C13.8057 16.043 13.5377 16.1671 13.4135 16.427C13.3248 16.6188 13.298 16.8335 13.3367 17.0413C13.3562 17.1383 13.4532 17.379 13.5192 17.4645C13.5853 17.55 13.6746 17.6083 13.7407 17.6004C13.8067 17.5925 13.9424 17.4179 13.9424 17.3132C13.9424 17.2085 13.9503 16.7656 14.0783 16.5247C14.191 16.2841 13.8065 16.0432 13.8065 16.0432L13.8057 16.043Z" fill="#D4C38B"/>
<path fill-rule="evenodd" clip-rule="evenodd" d="M13.8448 16.0234C13.7982 16.0505 13.7206 16.0894 13.7398 16.1398C13.7593 16.1864 13.9223 16.2166 13.9807 16.3303C14.0467 16.4468 14.0467 16.5709 14.0273 16.6293C14.078 16.6052 14.124 16.5722 14.1632 16.532C14.2487 16.435 14.3534 16.3032 14.4428 16.3032C14.5011 16.3032 14.5593 16.3303 14.6138 16.3303C14.6993 16.3303 14.7845 16.3032 14.7963 16.2138C14.8155 16.0973 14.6332 15.9924 14.5283 16.0118C14.5477 15.935 14.5749 15.8216 14.4894 15.7438C14.4039 15.666 14.1361 15.8022 14.0777 15.8411C14.0194 15.88 13.8448 16.0236 13.8448 16.0236V16.0234Z" fill="#E2D59D"/>
<path fill-rule="evenodd" clip-rule="evenodd" d="M20.0156 24.1824L20.5903 24.0127L20.7534 24.1292C20.7534 24.1292 20.8696 24.3778 21.0524 24.4087C20.994 24.5329 20.8425 24.6391 20.8504 24.7272C20.8584 24.8153 20.9359 24.8826 20.9359 24.8826C20.9359 24.8826 20.4193 25.7369 21.4369 26.5978C21.196 26.6948 20.8893 26.8282 20.7263 26.905C20.8425 26.9321 21.0911 26.9818 21.196 27.076C21.301 27.1702 21.301 27.2002 21.398 27.2585C21.495 27.3169 21.5531 27.3945 21.5339 27.4293C21.4679 27.3904 21.2465 27.2741 21.2078 27.3827C21.1691 27.4912 20.2486 27.4487 20.2486 27.4487L18.6952 27.7477C18.6952 27.7477 18.7533 27.5923 18.5902 27.4487C18.4 27.278 18.167 27.4564 17.9185 27.2662C17.5923 27.0176 17.5805 26.7301 17.4758 26.6216C17.5805 26.5555 17.7943 26.4585 18.303 26.3912C18.2835 26.3523 18.2175 26.2358 18.2564 26.1311C18.303 25.9952 18.497 25.9097 18.4389 25.7471C18.5244 25.7276 18.5631 25.7276 18.7768 25.4596C18.9788 25.1916 19.103 25.1335 19.2584 25.114C19.4138 25.0946 19.5069 25.114 19.7944 24.846C19.9961 24.6558 19.9304 24.4927 19.9304 24.4927C19.9304 24.4927 20.0622 24.4499 20.0159 24.1819L20.0156 24.1824Z" fill="#CBAC5A"/>
<path fill-rule="evenodd" clip-rule="evenodd" d="M18.3186 24.2688C18.3263 24.2299 18.3575 24.2105 18.5672 24.2299C18.7769 24.2494 20.105 24.1058 20.4662 24.0863C20.8313 24.0592 22.1167 24.0784 22.7421 24.2105C23.3675 24.3425 24.0003 24.4979 24.307 24.5755C24.6142 24.661 24.711 24.6917 24.6992 24.7306C24.6915 24.7695 24.6224 24.8074 24.5827 24.7966C24.5441 24.789 23.5265 24.4782 23.2121 24.4127C22.8977 24.3471 21.81 24.1718 21.2153 24.1823C20.66 24.1902 20.4386 24.1746 19.9688 24.2289C19.4988 24.2872 18.7221 24.3648 18.4891 24.3338C18.2587 24.3067 18.3063 24.3067 18.3181 24.2678L18.3186 24.2688Z" fill="#D6BC6F"/>
<path fill-rule="evenodd" clip-rule="evenodd" d="M21.4446 27.3129C21.4446 27.3129 22.2407 27.744 22.5282 28.2721C22.7379 28.6643 22.4041 28.8586 22.4041 28.8586C22.4041 28.8586 22.8546 28.8586 22.7963 29.1071C22.7691 29.2623 22.0196 29.6816 21.5186 29.903C21.0099 30.1245 21.0293 30.1129 20.7808 30.1516C20.5399 30.1905 19.8797 30.0748 19.7437 30.2681C19.6078 30.4614 19.6669 30.6605 19.7048 30.6915C19.7437 30.7186 20.0583 30.7575 20.0583 30.7575C20.0583 30.7575 19.9923 30.9401 19.34 30.9595C18.6877 30.979 18.5244 31.0253 18.4855 31.0955C18.4466 31.1613 18.6097 31.1226 18.9089 31.1723C19.2079 31.2189 19.6272 31.2491 19.6272 31.2491C19.6272 31.2491 19.4913 31.3655 19.138 31.4587C18.7341 31.5634 18.101 31.6607 17.9108 31.7772C18.0078 31.8432 18.1517 31.9402 18.218 31.9479C18.0549 31.9868 17.8255 32.0723 17.7869 32.1033C17.845 32.1422 17.9228 32.1888 17.9228 32.1888C17.9228 32.1888 17.5964 32.581 17.4062 32.6783C17.216 32.7756 16.1208 33.284 15.744 33.1869C14.8042 32.9384 14.6878 31.9093 14.4586 31.8317C14.113 31.7152 13.95 31.9479 13.643 31.7849C13.779 31.6878 13.8529 31.6297 13.9966 31.5637C13.8412 31.4869 13.0373 30.9772 13.0373 30.9772C12.9533 30.794 12.86 30.6151 12.7578 30.4414C12.6024 30.1734 12.3738 29.816 12.2023 29.5014C11.8295 28.8102 11.8101 28.4917 11.4722 28.0995C11.5305 28.0227 11.7322 28.0335 11.7322 28.0335L14.5636 28.9656L19.584 29.111L20.8896 27.2471L21.4448 27.3131L21.4446 27.3129Z" fill="#DFC677"/>
<path fill-rule="evenodd" clip-rule="evenodd" d="M14.0079 30.1552C14.0382 30.1889 14.0735 30.2178 14.1126 30.2407C14.2099 30.3068 14.3535 30.3846 14.4506 30.5008C14.4895 30.4427 14.5865 30.3377 14.7578 30.5008C14.929 30.6639 15.1418 30.5477 15.2741 30.5863C15.41 30.6332 15.4177 30.6524 15.4177 30.6524C15.4177 30.6524 15.4945 30.5863 15.6663 30.5164C15.7713 30.4775 15.8954 30.4504 16.0314 30.4117C16.1555 30.3846 16.2915 30.3457 16.3849 30.3457C16.4704 30.4038 16.7771 30.7297 18.0082 30.2486C19.1694 29.7981 19.4372 29.7477 19.6315 29.8173C19.6509 29.7707 19.6704 29.6813 19.9694 29.6931C19.9694 29.569 19.7208 29.1455 19.7208 29.1455L18.35 28.6758H17.6001L15.3517 29.0874L14.1057 29.7983L14.0087 30.1567L14.0079 30.1552Z" fill="#C4A859"/>
<path fill-rule="evenodd" clip-rule="evenodd" d="M13.2583 29.3669C13.2583 29.3669 13.2854 29.5766 13.5962 29.798C13.9034 30.0192 13.9999 30.1513 13.9999 30.1513C13.9999 30.1513 14.0583 30.0745 14.1049 29.9961C14.1515 29.9106 14.1904 29.8136 14.2679 29.7865C14.4233 29.7204 14.7766 29.8446 14.8544 29.8251C14.9205 29.8059 14.901 29.67 14.9709 29.67C15.134 29.6621 15.2387 29.7747 15.2971 29.7747C15.3554 29.7747 15.4988 29.767 15.5182 29.736C15.5377 29.7051 15.5454 29.3825 15.7668 29.2271C16.0077 29.0564 16.3029 29.1301 16.3812 29.169C16.3812 29.2271 16.3889 29.371 16.5443 29.3787C16.6997 29.3863 16.715 29.3592 16.8515 29.4058C16.9879 29.4524 17.1505 29.3981 17.2242 29.627C17.2903 29.6078 17.4457 29.5883 17.4067 29.3669C17.4835 29.3088 17.5506 29.2699 17.7139 29.0407C17.7529 28.9826 17.8187 28.9166 17.8693 28.8311C18.0053 28.8311 18.1683 28.8039 18.3857 28.9942C18.3196 29.0407 18.2807 29.071 18.2615 29.1183C18.3184 29.1746 18.3703 29.2357 18.4167 29.3008C18.475 29.3776 18.5139 29.4719 18.5877 29.4913C18.7507 29.5379 19.0188 29.4719 19.3178 29.4913C19.6053 29.5108 19.8459 29.6155 19.9509 29.6815C19.9898 29.6623 19.9898 29.6544 20.0868 29.6738C20.1838 29.6933 20.2576 29.701 20.1529 29.5768C20.211 29.6039 20.277 29.6623 20.3354 29.6039C20.3938 29.5456 20.4401 29.4603 20.6032 29.4409C20.7662 29.4214 20.8246 29.4486 20.8907 29.2778C20.9762 29.0681 20.681 29.0681 20.681 29.0681C20.681 29.0681 20.8169 28.9437 20.9685 28.7807C21.151 28.6099 21.3607 28.3885 21.4111 28.1166C21.4966 27.6156 21.0074 27.5498 21.0074 27.5498L18.6345 28.2799L15.7335 28.136L13.2598 29.3671L13.2583 29.3669Z" fill="#927D49"/>
<path fill-rule="evenodd" clip-rule="evenodd" d="M11.1262 22.5126C11.1262 22.5126 11.0494 22.6096 11.0021 22.8387C10.9547 23.0679 10.9749 23.0407 10.936 23.2038C10.8971 23.3669 10.4192 24.9902 10.5984 25.5378C10.7776 26.0854 11.0878 26.2874 11.2819 26.73C11.3208 26.827 11.3587 26.8854 11.3789 26.9709C11.445 27.2582 11.3868 27.4796 11.4644 27.7671C11.4915 27.8641 11.5617 27.9768 11.6664 28.0933C11.8968 28.3339 12.2723 28.563 12.4344 28.7261C12.6633 28.967 12.9897 29.4565 13.4051 29.5028C13.6266 29.53 13.9412 29.4368 14.2013 29.2816C14.4317 29.1378 14.574 28.936 14.8157 28.8208C14.9864 28.7353 15.169 28.7043 15.332 28.6654C15.67 28.5994 15.9769 28.5886 16.1594 28.6265C16.439 28.6849 17.0992 28.8869 17.465 28.8869C17.7509 28.8823 18.0351 28.8431 18.3116 28.7704C18.8669 28.6073 19.5386 28.3275 19.9815 28.2033C20.2416 28.1265 20.4512 28.1063 20.665 28.0597C21.0301 27.9742 21.3367 27.8577 21.5116 27.6363C21.3951 27.5003 21.2515 27.2907 20.4745 27.2984C19.5931 27.3178 18.5755 27.807 18.0746 27.8849C17.5736 27.9627 17.3562 28.0285 16.7969 27.8265C16.2485 27.6225 16.2303 27.4875 16.2303 27.4875C16.2303 27.4875 15.6546 27.0848 15.4137 26.0583C15.1728 25.0317 15.4137 24.2836 16.0391 23.5727C16.2022 23.3902 16.1633 23.2271 16.1633 23.2271C16.1633 23.2271 16.5749 22.6718 16.4623 22.1519C16.3381 21.6352 15.542 21.7402 15.542 21.7402L11.1265 22.5126H11.1262Z" fill="#6E6342"/>
<path fill-rule="evenodd" clip-rule="evenodd" d="M11.7902 24.2412C11.756 24.3056 11.7399 24.378 11.7436 24.4509C11.7513 24.5555 11.7825 24.6915 12.0969 24.9984C12.3649 25.2661 12.3065 25.5651 12.3065 25.5651C12.3065 25.5651 12.4415 25.5922 12.8075 25.421C13.095 25.2851 13.1915 25.5259 13.1915 25.5259C13.2752 25.4821 13.3659 25.4531 13.4596 25.4405C13.5444 25.4326 13.6265 25.4064 13.7002 25.3637C13.7002 25.3637 14.0381 25.7092 14.3333 25.8723C14.6013 26.0161 14.7567 26.1132 14.8888 26.0161C15.013 25.9306 15.013 25.7558 15.005 25.6783C14.9742 25.6067 14.9352 25.5389 14.8888 25.4763C14.8033 25.3521 14.6674 25.2083 14.6584 25.0923C14.639 24.8246 14.8604 24.5059 14.8135 24.4283C14.7667 24.3508 14.5924 24.3313 14.1613 24.4867C13.7148 24.6341 11.7884 24.242 11.7884 24.242L11.7902 24.2412Z" fill="#39331F"/>
<path fill-rule="evenodd" clip-rule="evenodd" d="M12.8077 25.9769C12.8077 25.9769 12.5866 25.7672 12.6641 24.7496C12.758 24.7483 12.8517 24.7574 12.9436 24.7768C12.9436 24.7768 13.0641 25.5652 12.8077 25.9769Z" fill="#292311"/>
<path fill-rule="evenodd" clip-rule="evenodd" d="M11.2311 21.7358C11.2619 21.7129 11.2906 21.6872 11.3166 21.659C11.2398 21.8026 10.8852 22.3773 11.1727 23.2823C11.4602 24.1831 12.1824 24.8548 13.0717 24.8861C13.9611 24.9173 14.4285 24.4821 14.9631 23.8298C15.1727 23.5697 15.4136 23.2433 15.6271 23.0222C15.9456 22.6763 16.1942 22.5793 16.1942 22.2455C16.1942 21.562 15.495 21.255 14.4659 20.9483C13.4368 20.6417 12.5085 20.6795 12.027 20.8895C11.5572 21.1183 11.3552 21.3592 11.2308 21.736L11.2311 21.7358Z" fill="#252211"/>
<path fill-rule="evenodd" clip-rule="evenodd" d="M14.5359 26.2834L14.6127 26.2445C14.6127 26.2445 14.6319 25.9373 14.7563 25.9455C14.8805 25.9649 14.9388 26.1283 14.927 26.1864C14.9194 26.2445 14.8884 26.3418 14.764 26.33C14.6009 26.3338 14.5352 26.2834 14.5352 26.2834H14.5359Z" fill="#3F3824"/>
<path fill-rule="evenodd" clip-rule="evenodd" d="M14.1902 24.9783C14.1902 24.9783 14.267 24.9511 14.361 25.0444C14.4378 25.0444 14.7726 25.0054 14.8776 25.0715C14.9825 25.1376 15.0135 25.1958 15.0135 25.1958C15.0135 25.1958 14.6213 25.2814 14.4075 25.1958C14.1902 25.122 14.1902 24.9783 14.1902 24.9783Z" fill="#2D2815"/>
<path fill-rule="evenodd" clip-rule="evenodd" d="M15.9186 25.0367C15.9186 25.0173 15.709 24.8737 15.4876 24.8269C15.4486 24.8192 15.4407 24.8463 15.4108 24.8463C15.3913 24.8386 15.3836 24.7803 15.3836 24.7803L15.2577 24.8466C15.2577 24.8466 15.2382 24.8737 15.3043 24.9233C15.3624 24.9699 15.4597 25.0088 15.4868 25.0864C15.5139 25.1639 15.5139 25.191 15.5257 25.2028C15.5334 25.2105 15.6693 25.2028 15.7353 25.1639C15.8014 25.125 15.9258 25.0615 15.9178 25.0359L15.9186 25.0367Z" fill="#82764F"/>
<path fill-rule="evenodd" clip-rule="evenodd" d="M13.9575 25.8254C13.9575 25.8254 13.9962 25.5577 14.2565 25.546C14.5243 25.5265 14.575 25.7865 14.575 25.7865L14.4196 25.9418C14.4196 25.9379 14.3031 25.775 13.9588 25.8254H13.9575Z" fill="#2D2816"/>
<path fill-rule="evenodd" clip-rule="evenodd" d="M15.6467 24.6716C15.6467 24.6716 15.5029 24.8271 15.1847 24.8737C15.1575 24.8347 15.0992 24.7571 15.1847 24.6329C15.2702 24.5087 15.3672 24.4698 15.4642 24.5085C15.507 24.5154 15.5469 24.5345 15.5793 24.5634C15.6116 24.5923 15.635 24.6298 15.6467 24.6716Z" fill="#574F35"/>
<path fill-rule="evenodd" clip-rule="evenodd" d="M16.2329 24.8619C16.2409 24.823 16.2137 24.8153 16.2329 24.7959C16.2521 24.7764 16.3574 24.7378 16.3768 24.757C16.3845 24.7649 16.3768 24.7959 16.3768 24.8338C16.3768 24.8716 16.3768 24.9106 16.3574 24.9385C16.3302 24.9774 16.2526 24.9968 16.2137 24.9853C16.1748 24.9738 16.1671 24.9193 16.1671 24.9085C16.1863 24.9008 16.2329 24.8814 16.2329 24.8619ZM16.896 24.4426C16.896 24.4232 16.962 24.3843 17.0009 24.3843C17.059 24.3843 17.059 24.4309 17.067 24.4426C17.0862 24.4503 17.0862 24.4347 17.1056 24.4698C17.1251 24.5048 17.1525 24.5668 17.1328 24.6057C17.1131 24.6446 17.0358 24.6715 17.0166 24.6638C16.9894 24.6443 16.9039 24.4698 16.896 24.4426Z" fill="#82764F"/>
<path fill-rule="evenodd" clip-rule="evenodd" d="M15.5612 24.9514C15.5612 24.9514 15.6467 24.9706 15.7632 25.0679C15.7243 25.095 15.6659 25.126 15.6659 25.126C15.6659 25.126 15.6582 25.0367 15.5612 24.9512V24.9514Z" fill="#6E6342"/>
<path fill-rule="evenodd" clip-rule="evenodd" d="M15.371 24.0973C15.3515 24.0781 15.4291 24.0315 15.4757 24.0392C15.5223 24.0468 15.5418 24.0781 15.5922 24.0857C15.6426 24.0934 15.6506 24.0663 15.669 24.0468C15.6874 24.0274 15.7545 24.0392 15.766 24.0468C15.7732 24.0554 15.7797 24.0644 15.7855 24.074C15.7863 24.0592 15.7902 24.0447 15.7968 24.0315C15.8035 24.0183 15.8128 24.0066 15.8241 23.9972C15.839 23.9862 15.8562 23.9788 15.8744 23.9754C15.8926 23.9721 15.9113 23.9728 15.9291 23.9777C15.9368 24.0048 15.9757 24.1019 15.968 24.1213C15.9603 24.1408 15.8439 24.1682 15.8241 24.1485C15.8436 24.1953 15.9291 24.2923 15.9406 24.3115C15.9521 24.3307 15.8551 24.3776 15.8165 24.3699C15.7622 24.3661 15.4281 24.1718 15.37 24.098L15.371 24.0973ZM15.8797 23.4527C15.8725 23.4331 15.8588 23.4166 15.8408 23.4061C15.8136 23.3984 15.7243 23.4061 15.7243 23.4527C15.7243 23.4992 15.8011 23.7599 15.8874 23.8955C15.9847 24.0315 16.0505 24.1439 16.1165 24.1751C16.1372 24.1845 16.1608 24.1858 16.1824 24.1785C16.204 24.1713 16.2221 24.1562 16.233 24.1362C16.2407 24.1167 16.2601 23.9731 16.2524 23.6352C16.2448 23.2973 16.233 22.9711 16.2135 22.9517C16.1941 22.9322 16.1165 22.9325 16.0894 22.9711C16.0622 23.0098 15.8874 23.3945 15.8794 23.4527H15.8797Z" fill="#585136"/>
<path fill-rule="evenodd" clip-rule="evenodd" d="M15.5341 25.4406C15.5341 25.4406 15.3982 25.3551 15.266 25.4135C15.1419 25.4718 15.1495 25.7009 15.1495 25.7009C15.1775 25.7119 15.2077 25.7158 15.2375 25.7124C15.2673 25.709 15.2958 25.6984 15.3206 25.6815C15.4061 25.6234 15.5147 25.5264 15.5341 25.4408V25.4406Z" fill="#574F35"/>
<path fill-rule="evenodd" clip-rule="evenodd" d="M15.7902 25.7477C15.7825 25.6709 15.7134 25.6709 15.7134 25.6312C15.7182 25.6123 15.7291 25.5955 15.7446 25.5835C15.7601 25.5715 15.7791 25.5651 15.7986 25.5652C15.8376 25.5652 15.8754 25.6118 15.9231 25.642C15.9697 25.6691 16.0395 25.7188 16.0472 25.7779C16.0549 25.8371 15.9704 25.9991 15.8765 25.9991C15.7825 25.9991 15.8104 25.8243 15.791 25.7467L15.7902 25.7477ZM16.5398 25.6428C16.5398 25.6428 16.3844 25.6894 16.3959 25.6428C16.4074 25.5962 16.4427 25.5847 16.4932 25.5847C16.5188 25.5578 16.5533 25.5412 16.5902 25.5378C16.6113 25.5368 16.6321 25.5437 16.6483 25.5573C16.6483 25.5573 16.7533 25.5107 16.7842 25.5378C16.8152 25.5649 16.7922 25.5649 16.8114 25.5962C16.8358 25.6308 16.8519 25.6707 16.8582 25.7127C16.8582 25.7436 16.7417 25.8097 16.6483 25.7982C16.5398 25.7749 16.559 25.6622 16.5398 25.6428ZM17.4445 25.4679C17.4445 25.4679 17.4911 25.4951 17.4524 25.5263C17.4253 25.5534 17.2893 25.6031 17.1726 25.6118C17.0561 25.6118 16.9514 25.631 16.9514 25.5923C16.9514 25.5537 17.0484 25.4759 17.1065 25.4564C17.1182 25.4418 17.133 25.43 17.1499 25.422C17.1667 25.4139 17.1851 25.4097 17.2038 25.4098C17.2504 25.4098 17.4327 25.3903 17.4834 25.3827C17.53 25.3747 17.5689 25.4019 17.5415 25.4408C17.53 25.4679 17.4445 25.4679 17.4445 25.4679ZM17.7125 24.2688C17.7125 24.2688 17.6541 24.3929 17.5883 24.3929C17.5223 24.3852 17.5223 24.3658 17.5223 24.3463C17.5223 24.3192 17.5883 24.2493 17.5804 24.2299C17.5612 24.2299 17.5144 24.2298 17.5223 24.1833C17.5223 24.1443 17.5883 24.0977 17.6465 24.1065C17.6904 24.0704 17.745 24.0499 17.8018 24.0483C17.8679 24.0483 17.926 24.0675 17.926 24.1065C17.926 24.1454 17.8492 24.2306 17.821 24.2503C17.7901 24.2813 17.7512 24.3015 17.7125 24.2695V24.2688ZM16.827 26.5639C16.827 26.5639 16.7502 26.5718 16.7502 26.6105C16.7502 26.6299 16.7694 26.6299 16.7968 26.6184C16.8126 26.6175 16.8282 26.6149 16.8434 26.6105C16.8511 26.6184 16.8511 26.6571 16.9094 26.6571C16.9574 26.6506 17.0035 26.6348 17.0454 26.6105C17.092 26.5913 17.1309 26.5716 17.1309 26.5337C17.1114 26.4676 17.0725 26.4364 17.0144 26.4364C16.9846 26.4345 16.9549 26.4413 16.9289 26.4559C16.9289 26.4559 16.9094 26.4169 16.8434 26.4559C16.7773 26.4948 16.785 26.4948 16.8045 26.5142C16.8393 26.5452 16.8278 26.5654 16.8278 26.5654L16.827 26.5639ZM16.3882 26.9679C16.3882 26.9484 16.4852 26.9095 16.5124 26.9213C16.5395 26.929 16.6171 27.0764 16.6171 27.092C16.6171 27.1115 16.5201 27.1581 16.4811 27.1581C16.4422 27.1581 16.3764 27.092 16.3764 27.0813C16.3764 27.0736 16.423 27.0621 16.423 27.0542C16.4345 27.035 16.3882 26.9881 16.3882 26.9686V26.9679ZM16.081 26.4008C16.1005 26.3931 16.1005 26.3737 16.1276 26.3542C16.1361 26.3486 16.1458 26.3449 16.1559 26.3436C16.166 26.3423 16.1763 26.3433 16.186 26.3465C16.1928 26.3343 16.2023 26.3238 16.2137 26.3157C16.2251 26.3076 16.2382 26.3021 16.252 26.2997C16.2986 26.292 16.3375 26.2997 16.3288 26.3191C16.3288 26.3775 16.3677 26.4162 16.3677 26.4628C16.3677 26.5094 16.3406 26.5677 16.2436 26.6066C16.1465 26.6338 16.0145 26.6338 15.995 26.6261C15.9755 26.6184 15.9561 26.5406 15.9755 26.5017C15.995 26.4628 16.0493 26.4203 16.0805 26.4008H16.081Z" fill="#82764F"/>
<path fill-rule="evenodd" clip-rule="evenodd" d="M16.205 26.4272C16.205 26.4272 16.1389 26.4661 16.1389 26.4856C16.133 26.5044 16.1304 26.524 16.1312 26.5437C16.1312 26.5552 16.2168 26.536 16.2283 26.5242C16.2321 26.5166 16.205 26.4475 16.205 26.4272Z" fill="#6E6342"/>
<path fill-rule="evenodd" clip-rule="evenodd" d="M15.6271 26.2444C15.6658 26.2524 15.7318 26.2444 15.7822 26.2639C15.8211 26.2833 15.8483 26.3222 15.8094 26.3688C15.7705 26.4154 15.7326 26.4852 15.6463 26.4735C15.5493 26.4658 15.4561 26.4154 15.4561 26.3765C15.4545 26.3519 15.4578 26.3272 15.4658 26.3038C15.4738 26.2805 15.4863 26.259 15.5027 26.2406C15.5416 26.2096 15.5608 26.2291 15.6269 26.2444H15.6271Z" fill="#585136"/>
<path fill-rule="evenodd" clip-rule="evenodd" d="M15.5806 26.2837C15.5806 26.2837 15.4564 26.3807 15.4252 26.4276C15.3862 26.4742 15.196 26.7148 15.1379 26.7652C15.1572 26.7312 15.1792 26.6987 15.2037 26.6682C15.1269 26.7173 15.0693 26.7913 15.0406 26.8779C14.994 27.0217 15.301 27.0993 15.5027 27.1577C15.7045 27.216 15.7826 27.2345 15.7826 27.2345C15.7083 27.1229 15.6445 27.0046 15.5921 26.8812C15.5153 26.6987 15.4756 26.6792 15.526 26.5937C15.5649 26.5082 15.6233 26.4501 15.6233 26.384C15.6 26.3226 15.5806 26.2837 15.5806 26.2837Z" fill="#574F35"/>
<path fill-rule="evenodd" clip-rule="evenodd" d="M11.1533 26.5903C11.1816 26.5955 11.2106 26.5955 11.2388 26.5903C11.297 26.5823 11.9029 26.3599 12.536 26.3998C13.0099 26.4285 13.4797 26.5057 13.9378 26.6302C14.734 26.8399 15.7242 27.2554 16.365 27.4925C16.5357 27.5583 16.7029 27.675 16.8258 27.7214C17.3152 27.9118 17.3344 27.9118 17.6219 27.9623C17.9598 28.0089 18.3054 27.8962 18.6666 27.8186C19.1093 27.7214 19.8665 27.6748 20.5306 27.5777C20.7453 27.548 20.9571 27.4999 21.1637 27.4341C21.1637 27.4341 20.6355 27.9623 19.3694 28.1525C18.8576 28.2302 18.3375 28.2367 17.8239 28.1719C17.4199 28.133 17.1522 28.0746 16.9502 28.0165C16.7211 27.9505 16.251 27.7756 15.6725 27.6325C15.2685 27.5276 14.818 27.45 14.3016 27.3529C13.0278 27.1197 11.6454 26.8519 11.1528 26.5918L11.1533 26.5903Z" fill="#252211"/>
<path fill-rule="evenodd" clip-rule="evenodd" d="M9.72404 24.1909C9.41684 24.451 9.09096 24.6996 8.77275 24.9402L7.81353 25.6773C7.48738 25.9179 7.16892 26.1665 6.84252 26.4074C6.51613 26.6483 6.19024 26.8771 5.84413 27.0986C6.15133 26.8385 6.47722 26.5976 6.80336 26.3608C7.1295 26.124 7.46767 25.8918 7.78229 25.6517L8.74152 24.9136C9.0715 24.673 9.38996 24.4244 9.72404 24.1914V24.1909ZM8.02703 26.9094C8.02703 26.9094 8.37263 26.6219 8.80373 26.2182C9.33953 25.7174 9.99591 25.0764 10.2056 24.9602L8.02677 26.9096L8.02703 26.9094Z" fill="#CFB66C"/>
<path fill-rule="evenodd" clip-rule="evenodd" d="M8.02699 26.9084C8.198 26.7377 8.38053 26.5708 8.56306 26.4075L8.84261 26.1668C8.92811 26.09 9.02539 26.0038 9.11064 25.9183C9.28139 25.7475 9.44856 25.5648 9.61931 25.3902C9.70394 25.3024 9.79343 25.2194 9.88734 25.1416C9.9343 25.1001 9.98644 25.0648 10.0425 25.0367C10.0893 25.0095 10.1398 24.9599 10.2056 24.9512C10.1669 25.0095 10.1203 25.0367 10.0814 25.0871C10.0348 25.126 9.99589 25.1726 9.95723 25.2113C9.87173 25.2968 9.7747 25.3743 9.6892 25.4521C9.50667 25.6075 9.31646 25.7593 9.13394 25.9219C8.95141 26.0844 8.78066 26.2598 8.59787 26.4228C8.39998 26.59 8.21746 26.753 8.02699 26.9092V26.9084ZM10.3494 25.3551C10.3494 25.3551 9.0835 26.5941 8.82315 26.7958L10.3494 25.3551Z" fill="#CFB66C"/>
<path fill-rule="evenodd" clip-rule="evenodd" d="M10.3495 25.3555C10.2356 25.4873 10.1135 25.6118 9.98395 25.7282L9.59995 26.0933C9.47579 26.2174 9.35905 26.3418 9.22721 26.466C9.09127 26.5825 8.96711 26.6964 8.82324 26.8039L9.19598 26.4389C9.32039 26.3147 9.45633 26.21 9.58843 26.0856L9.96116 25.7205C10.0892 25.5925 10.2136 25.4681 10.3495 25.3555ZM10.4076 26.0272C10.2909 26.3529 10.1534 26.6707 9.99598 26.9788C9.66983 27.6313 9.18062 28.4467 8.96686 28.8624L10.4076 26.0272Z" fill="#CFB66C"/>
<path fill-rule="evenodd" clip-rule="evenodd" d="M10.4076 26.0273C10.4076 26.171 10.3687 26.2954 10.3221 26.4196C10.2767 26.5438 10.2249 26.6657 10.167 26.7847C10.1086 26.9011 10.0426 27.0256 9.97653 27.1382C9.91048 27.2509 9.83291 27.3671 9.77454 27.4839L9.38235 28.1751C9.24641 28.4055 9.11432 28.6372 8.9707 28.8587C9.06773 28.6101 9.19982 28.3771 9.32424 28.148C9.46018 27.9176 9.58434 27.6871 9.70824 27.4488C9.76873 27.33 9.82316 27.2082 9.87131 27.0839C9.92942 26.9595 9.98754 26.843 10.0344 26.7304C10.0925 26.6062 10.1391 26.4895 10.1975 26.3771C10.2632 26.2565 10.3178 26.14 10.4071 26.0273H10.4076Z" fill="#CFB66C"/>
<path fill-rule="evenodd" clip-rule="evenodd" d="M11.7903 29.2114C11.7903 29.2114 11.4063 29.7201 11.4447 30.3647C11.5494 30.027 11.6815 29.5104 11.7903 29.2114ZM12.1553 29.7214C12.1553 29.7214 12.0194 31.1038 11.9068 31.7835C12.066 30.9978 12.097 31.0638 12.1553 29.7214ZM14.6989 31.8651C14.6989 31.8651 14.1242 33.5547 14.1124 34.0242C14.2369 33.5414 14.4775 32.555 14.6989 31.8638V31.8651Z" fill="#DEC270"/>
<path fill-rule="evenodd" clip-rule="evenodd" d="M16.0429 29.1074C16.0429 29.1074 16.975 30.6452 17.6741 31.9577C17.4849 31.2972 17.0497 30.0859 16.0429 29.1074Z" fill="#CBAF59"/>
<path fill-rule="evenodd" clip-rule="evenodd" d="M18.5477 31.3711C19.0595 32.2757 19.521 33.2079 19.9301 34.1633C19.8526 33.5031 19.6426 32.3731 18.5477 31.3711Z" fill="#E3C677"/>
<path fill-rule="evenodd" clip-rule="evenodd" d="M25.9108 33.6383C26.0659 33.5413 26.3729 33.0129 26.6409 32.8811C26.9087 32.7452 27.1107 32.718 27.3516 32.45C27.5922 32.1702 27.6588 31.9994 28.1864 31.7782C28.9244 31.4595 28.4168 31.0479 28.4168 31.0479C28.4981 30.968 28.585 30.8941 28.6769 30.8267C28.8673 30.6831 29.0885 30.5082 29.0693 30.2013C29.0422 29.6849 28.9452 28.9354 28.5217 28.5004C28.9334 28.4149 29.7216 28.3568 30.2114 28.2326C30.7781 28.0888 31.0385 27.8868 31.0385 27.8868C31.0385 27.8868 30.7123 27.3315 31.2405 26.7724C31.7686 26.2133 32.1997 25.8792 32.5182 25.2538C32.1531 25.2072 31.5966 25.0132 30.1763 25.5528C30.253 25.5889 30.327 25.6304 30.3977 25.677C30.3977 25.677 29.524 25.9179 29.2055 26.1859C28.65 26.6557 28.5801 27.0402 27.9783 27.3277C27.3764 27.6152 26.7704 27.5373 26.2697 27.7703C25.769 28.0033 25.695 28.2014 25.5122 28.2869C25.5511 28.3335 25.5045 28.4111 25.5782 28.4771C25.5316 28.5432 25.2598 28.9858 24.9841 28.9858C25.0112 29.0908 25.2442 29.1683 25.2442 29.1683C25.2442 29.1683 25.0734 29.2927 24.6385 29.3237C24.8596 29.5541 25.0696 29.8053 25.6481 30.1703C25.6015 30.2673 25.4072 30.4112 25.4851 30.5937C25.5706 30.7763 25.7923 31.0248 26.6772 31.2268C26.2267 31.246 25.6988 31.351 24.9876 31.254C24.277 31.1685 24.1605 31.118 23.7217 31.2268C23.7683 31.2734 23.8925 31.2734 24.0013 31.3976C23.8848 31.4053 23.1547 31.3121 22.9061 31.6385C22.646 31.9761 22.5334 32.5316 22.5528 32.9044C22.4169 32.9704 22.2848 33.0869 22.3508 33.3278C22.4169 33.5687 22.7625 33.6463 22.9839 33.7976C23.2051 33.9606 23.2246 34.0188 23.4345 33.9801C23.6557 33.9335 23.9818 33.7123 24.1723 33.7123C24.3627 33.7123 24.4984 33.8559 24.4984 33.8559C24.4984 33.8559 25.015 33.6074 25.0655 33.654C25.1121 33.7005 25.0731 33.9996 25.1236 34.0461C25.1748 34.0812 25.7567 33.7356 25.9121 33.6383H25.9108Z" fill="#ECD592"/>
<path fill-rule="evenodd" clip-rule="evenodd" d="M37.2001 18.0971C34.773 11.8292 28.7729 10.668 28.7729 10.668H11.6544L11.7205 17.0524H15.1296V31.3087H11.6542V37.6816H28.299C32.3105 37.6816 35.5262 33.6504 35.5262 33.6504C40.6756 26.3418 37.1999 18.0971 37.1999 18.0971H37.2001ZM28.3884 29.3552C28.3884 29.3552 27.0828 31.2389 25.6622 31.2389H22.8206L22.7533 17.068H26.4C26.4 17.068 28.0896 17.4212 29.27 20.7649C29.27 20.7649 30.835 25.5521 28.3884 29.3552Z" fill="white" fill-opacity="0.8"/>
</svg>
