<svg width="48" height="48" viewBox="0 0 48 48" fill="none" xmlns="http://www.w3.org/2000/svg">
<circle cx="24" cy="24" r="24" fill="#E6007A"/>
<g clip-path="url(#clip0)">
<path d="M24.1002 14C19.9228 14.0168 16.5403 17.3991 16.5236 21.5765C16.5236 22.4131 16.6586 23.2441 16.9231 24.0376C17.1205 24.5777 17.7062 24.8686 18.2559 24.7016C18.7873 24.4978 19.0694 23.9169 18.9 23.3736C18.6754 22.7551 18.5755 22.0991 18.6051 21.4423C18.6962 18.4251 21.2156 16.0527 24.2329 16.1438C27.2501 16.2349 29.6225 18.7543 29.5314 21.7715C29.4459 24.5961 27.2214 26.8901 24.3999 27.0619C24.3999 27.0619 23.3363 27.1266 22.8074 27.1914C22.6124 27.2193 22.419 27.2577 22.228 27.3064C22.2009 27.3344 22.1569 27.3344 22.129 27.3072L22.1282 27.3064C22.109 27.2817 22.109 27.2465 22.1282 27.2217L22.2928 26.3236L23.2916 21.8314C23.4114 21.2705 23.0543 20.7183 22.4933 20.5985C21.9324 20.4786 21.3802 20.8358 21.2604 21.3967C21.2604 21.3967 18.8848 32.3923 18.8848 32.4922C18.7489 33.0268 19.0718 33.5701 19.6063 33.706C19.6119 33.7076 19.6183 33.7091 19.6239 33.7099H19.679C20.2128 33.8482 20.7578 33.527 20.8952 32.9932C20.8976 32.9844 20.9 32.9756 20.9016 32.966C20.9 32.9493 20.9 32.9325 20.9016 32.9165C20.9312 32.7871 21.2308 31.324 21.2308 31.324C21.4577 30.2197 22.3479 29.3736 23.4618 29.2026C23.6911 29.1674 24.6548 29.1027 24.6548 29.1027C28.8163 28.688 31.8535 24.978 31.438 20.8166C31.0592 17.0212 27.9149 14.0991 24.1002 14Z" fill="white"/>
<path d="M24.5596 31.4694C23.8764 31.3272 23.2084 31.7658 23.0662 32.4482C23.0646 32.4546 23.0638 32.461 23.0622 32.4674C22.9144 33.1458 23.3443 33.8162 24.0235 33.964C24.0243 33.964 24.0251 33.964 24.0259 33.9648H24.061C24.7258 34.1254 25.3946 33.7163 25.5545 33.0523C25.556 33.0475 25.5568 33.0419 25.5584 33.0371V32.9676C25.6759 32.282 25.238 31.6244 24.5596 31.4694Z" fill="white"/>
</g>
<defs>
<clipPath id="clip0">
<rect width="14.9528" height="20" fill="white" transform="translate(16.5236 14)"/>
</clipPath>
</defs>
</svg>
