<svg xmlns="http://www.w3.org/2000/svg" viewBox="0 0 48 48"><defs><style>.cls-1{fill:#0d022b;}.cls-2{fill:#fff;}</style></defs><title>EGLD</title><g id="Layer_2" data-name="Layer 2"><g id="Layer_1-2" data-name="Layer 1"><circle class="cls-1" cx="24" cy="24" r="24"/><path class="cls-2" d="M33,15a.51.51,0,0,1,0-.79.68.68,0,0,1,.87,0,.52.52,0,0,1,0,.79.7.7,0,0,1-.43.17A.48.48,0,0,1,33,15Z"/><path class="cls-2" d="M31.5,16.57a.62.62,0,0,1-.16-.4.65.65,0,0,1,.16-.4.59.59,0,0,1,.8,0,.65.65,0,0,1,.16.4.62.62,0,0,1-.16.4.65.65,0,0,1-.4.16A.62.62,0,0,1,31.5,16.57Z"/><path class="cls-2" d="M29.86,18.12a.6.6,0,0,1-.16-.4.62.62,0,0,1,.16-.4.59.59,0,0,1,.8,0,.56.56,0,0,1,.16.4.65.65,0,0,1-.16.4.55.55,0,0,1-.4.16A.56.56,0,0,1,29.86,18.12Z"/><path class="cls-2" d="M28.29,19.69a.51.51,0,0,1-.19-.4.53.53,0,0,1,.19-.4.68.68,0,0,1,.87,0,.51.51,0,0,1,.18.4.54.54,0,0,1-.18.4.66.66,0,0,1-.43.16A.55.55,0,0,1,28.29,19.69Z"/><path class="cls-2" d="M26.79,21.26a.5.5,0,0,1-.17-.4.66.66,0,0,1,.17-.4.59.59,0,0,1,.8,0,.51.51,0,0,1,.16.4.6.6,0,0,1-.16.4.52.52,0,0,1-.4.16A.38.38,0,0,1,26.79,21.26Z"/><path class="cls-2" d="M25,22.43a.6.6,0,0,1,.17-.4.59.59,0,0,1,.8,0,.55.55,0,0,1,.16.4.65.65,0,0,1-.16.4.6.6,0,0,1-.4.16.62.62,0,0,1-.4-.16A.5.5,0,0,1,25,22.43Z"/><path class="cls-2" d="M22.05,25.9a.6.6,0,0,1-.16-.4.65.65,0,0,1,.16-.4.59.59,0,0,1,.8,0,.52.52,0,0,1,.17.4.6.6,0,0,1-.17.4.46.46,0,0,1-.4.16A.4.4,0,0,1,22.05,25.9Z"/><path class="cls-2" d="M20.44,27.47a.51.51,0,0,1-.19-.4.54.54,0,0,1,.19-.4.67.67,0,0,1,.86,0,.52.52,0,0,1,0,.8.57.57,0,0,1-.42.16A.47.47,0,0,1,20.44,27.47Z"/><path class="cls-2" d="M18.91,29.06a.56.56,0,0,1-.16-.4.56.56,0,0,1,.16-.39.57.57,0,0,1,.8,0,.56.56,0,0,1,.16.39.6.6,0,0,1-.16.4.51.51,0,0,1-.4.17A.65.65,0,0,1,18.91,29.06Z"/><path class="cls-2" d="M17.34,30.63a.49.49,0,0,1-.16-.4.6.6,0,0,1,.16-.39.57.57,0,0,1,.8,0,.6.6,0,0,1,.16.39.56.56,0,0,1-.16.4.51.51,0,0,1-.4.17A.52.52,0,0,1,17.34,30.63Z"/><path class="cls-2" d="M15.73,32.2a.48.48,0,0,1-.19-.4.51.51,0,0,1,.19-.39.61.61,0,0,1,.82,0,.53.53,0,0,1,.18.39.51.51,0,0,1-.18.4.7.7,0,0,1-.43.17A.46.46,0,0,1,15.73,32.2Z"/><path class="cls-2" d="M14.18,33.77a.49.49,0,0,1-.16-.4.6.6,0,0,1,.16-.39.59.59,0,0,1,.8,0,.51.51,0,0,1,.16.39.6.6,0,0,1-.16.4.57.57,0,0,1-.4.17A.54.54,0,0,1,14.18,33.77Z"/><path class="cls-2" d="M15,15a.57.57,0,0,0,0-.79.59.59,0,0,0-.8,0,.48.48,0,0,0-.16.39.6.6,0,0,0,.16.4.53.53,0,0,0,.4.17A.4.4,0,0,0,15,15Z"/><path class="cls-2" d="M16.55,16.57a.55.55,0,0,0,.18-.4.57.57,0,0,0-.18-.4.68.68,0,0,0-.87,0,.54.54,0,0,0-.19.4.53.53,0,0,0,.19.4.75.75,0,0,0,.42.16A.93.93,0,0,0,16.55,16.57Z"/><path class="cls-2" d="M18.14,18.12a.6.6,0,0,0,.16-.4.62.62,0,0,0-.16-.4.59.59,0,0,0-.8,0,.56.56,0,0,0-.16.4.65.65,0,0,0,.16.4.55.55,0,0,0,.4.16A.7.7,0,0,0,18.14,18.12Z"/><path class="cls-2" d="M19.71,19.69a.6.6,0,0,0,.16-.4.62.62,0,0,0-.16-.4.59.59,0,0,0-.8,0,.56.56,0,0,0-.16.4.6.6,0,0,0,.16.4.55.55,0,0,0,.4.16A.47.47,0,0,0,19.71,19.69Z"/><path class="cls-2" d="M21.26,21.26a.55.55,0,0,0,.19-.4.58.58,0,0,0-.19-.4.61.61,0,0,0-.82,0,.5.5,0,0,0-.19.4.51.51,0,0,0,.19.4.61.61,0,0,0,.42.16A.39.39,0,0,0,21.26,21.26Z"/><path class="cls-2" d="M23,22.43a.6.6,0,0,0-.17-.4.59.59,0,0,0-.8,0,.55.55,0,0,0-.16.4.65.65,0,0,0,.16.4.6.6,0,0,0,.4.16.62.62,0,0,0,.4-.16A.5.5,0,0,0,23,22.43Z"/><path class="cls-2" d="M24.42,24.42a.51.51,0,0,0,.17-.4.6.6,0,0,0-.17-.4.59.59,0,0,0-.8,0,.55.55,0,0,0-.16.4.62.62,0,0,0,.16.4.57.57,0,0,0,.4.17A.53.53,0,0,0,24.42,24.42Z"/><path class="cls-2" d="M26,25.9a.51.51,0,0,0,.19-.4.54.54,0,0,0-.19-.4.61.61,0,0,0-.82,0,.52.52,0,0,0,0,.8.59.59,0,0,0,.42.16A.42.42,0,0,0,26,25.9Z"/><path class="cls-2" d="M27.59,27.47a.6.6,0,0,0,.16-.4.65.65,0,0,0-.16-.4.59.59,0,0,0-.8,0,.56.56,0,0,0,0,.8.5.5,0,0,0,.4.16A.48.48,0,0,0,27.59,27.47Z"/><path class="cls-2" d="M29.16,29.06a.56.56,0,0,0,.16-.4.56.56,0,0,0-.16-.39.57.57,0,0,0-.8,0,.56.56,0,0,0-.16.39.6.6,0,0,0,.16.4.51.51,0,0,0,.4.17A.6.6,0,0,0,29.16,29.06Z"/><path class="cls-2" d="M30.63,30.63a.47.47,0,0,0,.17-.4.56.56,0,0,0-.17-.39.56.56,0,0,0-.79,0,.56.56,0,0,0-.17.39.53.53,0,0,0,.17.4.49.49,0,0,0,.39.17A.51.51,0,0,0,30.63,30.63Z"/><path class="cls-2" d="M32.3,32.2a.49.49,0,0,0,.16-.4.6.6,0,0,0-.16-.39.59.59,0,0,0-.8,0,.48.48,0,0,0-.16.39.56.56,0,0,0,.16.4.53.53,0,0,0,.4.17A.5.5,0,0,0,32.3,32.2Z"/><path class="cls-2" d="M33.87,33.77a.52.52,0,0,0,0-.79.61.61,0,0,0-.82,0,.51.51,0,0,0,0,.79.68.68,0,0,0,.42.17A.54.54,0,0,0,33.87,33.77Z"/><path class="cls-2" d="M18.7,15.4a9.73,9.73,0,0,1,10.6,0L32.67,12A14,14,0,0,0,24,9a13.79,13.79,0,0,0-8.65,3Z"/><path class="cls-2" d="M15.33,29.25A9.33,9.33,0,0,1,13.73,24a9.15,9.15,0,0,1,1.6-5.25L12,15.4A13.84,13.84,0,0,0,9,24a14,14,0,0,0,3,8.65Z"/><path class="cls-2" d="M29.27,32.6A9.45,9.45,0,0,1,24,34.27a9,9,0,0,1-5.32-1.65L15.33,36A13.61,13.61,0,0,0,24,39a14,14,0,0,0,8.6-3Z"/><path class="cls-2" d="M32.58,18.7a9.13,9.13,0,0,1,1.59,5.35,9.39,9.39,0,0,1-1.59,5.15L36,32.55a13.82,13.82,0,0,0,0-17.27Z"/><path class="cls-2" d="M36.09,33.66A2.37,2.37,0,1,1,33.73,36,2.37,2.37,0,0,1,36.09,33.66Z"/><path class="cls-2" d="M12,33.66A2.37,2.37,0,1,1,9.61,36,2.36,2.36,0,0,1,12,33.66Z"/><path class="cls-2" d="M36.14,9.52a2.37,2.37,0,1,1-2.34,2.36A2.35,2.35,0,0,1,36.14,9.52Z"/><path class="cls-2" d="M11.91,9.52a2.34,2.34,0,1,1-2.37,2.34A2.36,2.36,0,0,1,11.91,9.52Z"/></g></g></svg>