<svg xmlns="http://www.w3.org/2000/svg" viewBox="0 0 47.9 47.9"><defs><style>.cls-1{fill:#7866d5;}.cls-2{fill:#fff;}</style></defs><title>ENJ</title><g id="Layer_2" data-name="Layer 2"><g id="Layer_1-2" data-name="Layer 1"><circle class="cls-1" cx="23.95" cy="23.95" r="23.95"/><path class="cls-2" d="M34.18,12.2c.82.1,1.68.17,2.5.3,1.61.31,2.16,1.14,1.89,2.78a1.38,1.38,0,0,1-1.17,1.2,4.19,4.19,0,0,1-1.17.07l-16.35,0a13.62,13.62,0,0,0-2.29.2c-2.52.39-3.51,1.44-3.7,4C13.79,22,13.79,22,15,22H36.66a2.1,2.1,0,0,1,1,.29c1,.66.77,1.72.73,2.67a1.39,1.39,0,0,1-1.31,1.36,4.91,4.91,0,0,1-1,.07H14.39c-.76,0-.76,0-.7.76A11.51,11.51,0,0,0,14,29.19a3.18,3.18,0,0,0,2.37,2.41,17,17,0,0,0,4.26.49h15a1.71,1.71,0,0,1,1.61.66,2.11,2.11,0,0,1-.69,2.91,1,1,0,0,1-.43.19,11.51,11.51,0,0,1-3.36.47c-4.72.09-9.41.09-14.1,0a24.14,24.14,0,0,1-4.32-.5C11,35.13,9.3,33.41,8.74,30c-.13-.75-.2-1.55-.3-2.34V21.36l.21-1.89c.45-3.95,2.23-5.9,6.11-6.79a35.09,35.09,0,0,1,4.18-.52Z"/><path class="cls-2" d="M25.54,37.19c-2.37,0-4.7,0-7-.07a21.2,21.2,0,0,1-4.41-.55c-3.59-.8-5.43-2.82-6-6.58a15.47,15.47,0,0,1-.2-1.74c0-.25-.07-.49-.1-.77V21.29l.07-.6c0-.44.1-.84.13-1.24.47-4.1,2.4-6.19,6.43-7.09a25,25,0,0,1,3.13-.44l1-.1H33.46a4.51,4.51,0,0,0,.73.07c.57.07,1.14.1,1.74.23,1.89.37,2.63,1.44,2.29,3.37a1.93,1.93,0,0,1-1.66,1.66,7,7,0,0,1-1.23.1c-5.17,0-10.37.07-15.53.07a12.93,12.93,0,0,0-2.23.2c-2.3.37-3.07,1.2-3.27,3.53,0,.2,0,.4,0,.57H35.74A2.59,2.59,0,0,1,37,22a2.45,2.45,0,0,1,.95,2.6c0,.1,0,.23,0,.33a1.84,1.84,0,0,1-1.65,1.74,5.15,5.15,0,0,1-1,.07h-21v0a11.49,11.49,0,0,0,.26,2.12,2.61,2.61,0,0,0,1.94,2.05,14.51,14.51,0,0,0,4.12.49c3.88,0,7.83,0,11.68,0h3.29a2.21,2.21,0,0,1,2.11,1,3,3,0,0,1,.33,2.16,2.81,2.81,0,0,1-1.78,2.06,12.41,12.41,0,0,1-3.52.52C30.28,37.16,27.91,37.19,25.54,37.19ZM9.12,27.65a5.69,5.69,0,0,1,.07.71L9.38,30c.53,3.18,2,4.74,5.07,5.42a21.81,21.81,0,0,0,4.18.51c4.61.1,9.32.1,14,0a11.87,11.87,0,0,0,3.14-.44l.29-.14a1.7,1.7,0,0,0,.69-1,1.57,1.57,0,0,0-.19-1.19c-.2-.3-.46-.4-1.08-.4H32.17c-3.79,0-7.75,0-11.61,0a14.86,14.86,0,0,1-4.38-.54,3.69,3.69,0,0,1-2.74-2.91A10.44,10.44,0,0,1,13.17,27v-.31c0-.45-.06-.78.21-1.07s.64-.29,1.11-.29H36a4,4,0,0,0,.84-.06c.54-.1.68-.32.71-.64,0-.13,0-.23,0-.36.07-.8.07-1.19-.4-1.48a1.42,1.42,0,0,0-.61-.16H14.86c-.74,0-1.18,0-1.52-.34s-.27-.81-.23-1.52c.23-2.9,1.45-4.22,4.32-4.66a19.88,19.88,0,0,1,2.47-.23c5.27,0,10.54,0,15.75,0a5.88,5.88,0,0,0,1-.06.71.71,0,0,0,.63-.64c.24-1.33-.1-1.77-1.37-2a14.57,14.57,0,0,0-1.6-.2,6,6,0,0,0-.73-.06h-15l-1,.1a21.89,21.89,0,0,0-2.94.4c-3.44.89-4.94,2.61-5.33,6.28,0,.4-.1.81-.13,1.25l-.07.58v6.2Z"/></g></g></svg>