<svg xmlns="http://www.w3.org/2000/svg" viewBox="0 0 48 48"><defs><style>.cls-1{fill:#000d2b;}.cls-2{fill:#3ab83a;}.cls-3{fill:#0b8311;}.cls-4{fill:#146714;}</style></defs><title>Etherium Classic</title><g id="Layer_2" data-name="Layer 2"><g id="Layer_1-2" data-name="Layer 1"><circle class="cls-1" cx="24" cy="24" r="24"/><g id="Layer_2-2" data-name="Layer 2"><g id="svg8"><g id="layer5"><g id="g1627"><path id="path1599" class="cls-2" d="M12.44,25.39l11.61,6.17,11.5-6.17c-4.16,6.19-7.64,11.34-11.5,17Zm.44-1.71,11.18-6,11,5.91-11,6Zm11.17-7.87-11.61,6.1L24,5,35.55,22Z"/><path id="path1593" class="cls-3" d="M24.05,31.56l11.51-6.17c-4.17,6.19-11.51,17-11.51,17Zm0-13.84,11,5.91-11,6Zm0-1.91L24,5,35.56,22Z"/><path id="path1603" class="cls-3" d="M12.88,23.68l11.18.92,11-1-11,6Z"/><path id="path1606" class="cls-4" d="M24.06,24.6l11-1-11,6Z"/></g></g></g></g></g></g></svg>