<svg xmlns="http://www.w3.org/2000/svg" viewBox="0 0 48 48"><defs><style>.cls-1{fill:#0090ff;}.cls-2{fill:#fff;}</style></defs><title>Filecoin</title><g id="Layer_2" data-name="Layer 2"><g id="Layer_1-2" data-name="Layer 1"><path class="cls-1" d="M24,48A24,24,0,1,1,48,24.24,24.1,24.1,0,0,1,24,48"/><path class="cls-2" d="M26.72,21.12,26,25l6.84,1-.48,1.8-6.72-1c-.48,1.56-.72,3.24-1.32,4.68-.6,1.68-1.2,3.36-1.92,4.92a6.48,6.48,0,0,1-4.92,3.84,4.81,4.81,0,0,1-3.84-.72,1.6,1.6,0,0,1-.72-1.08,1.72,1.72,0,0,1,.6-1.32,2.16,2.16,0,0,1,1.2.12,5.33,5.33,0,0,1,1,1.32,1.71,1.71,0,0,0,2.64.36,7.25,7.25,0,0,0,2-3.6c.72-2.88,1.44-5.64,2-8.52v-.48l-6.36-1,.24-1.8,6.6,1,.84-3.72-6.84-1.08.24-1.92,7.08,1c.24-.72.36-1.32.6-1.92a17.81,17.81,0,0,1,2.64-6.24c1.44-1.92,3.12-3.12,5.64-3A3.72,3.72,0,0,1,36,8.76a1,1,0,0,1,.36.6A2,2,0,0,1,36,10.8a1.15,1.15,0,0,1-1.56-.24c-.36-.36-.6-.72-1-1.08a1.64,1.64,0,0,0-2.64-.24,7.69,7.69,0,0,0-1.56,2.28C28.4,14,27.8,16.68,27,19.32l6.6,1-.48,1.8-6.36-1"/></g></g></svg>