<svg width="48" height="48" viewBox="0 0 48 48" fill="none" xmlns="http://www.w3.org/2000/svg">
<path d="M24 0C30.3652 0 36.4697 2.52858 40.9706 7.02945C45.4714 11.5303 48 17.6348 48 24C48 30.3652 45.4714 36.4697 40.9706 40.9706C36.4697 45.4714 30.3652 48 24 48C17.6348 48 11.5303 45.4714 7.02945 40.9706C2.52858 36.4697 0 30.3652 0 24C0 17.6348 2.52858 11.5303 7.02945 7.02945C11.5303 2.52858 17.6348 0 24 0Z" fill="url(#paint0_linear)"/>
<path d="M17.4822 11.0016C24.6542 10.9995 31.8266 10.9995 38.9995 11.0016C39.0017 13.3199 39.0017 15.6378 38.9995 17.9552C31.8273 17.9574 24.6549 17.9574 17.4822 17.9552C17.4799 15.637 17.4799 13.3191 17.4822 11.0016Z" fill="white"/>
<path d="M9.009 20.5715C11.3229 20.5595 13.6371 20.5595 15.9518 20.5715C15.9638 22.8854 15.9638 25.1996 15.9518 27.5143C13.6372 27.5262 11.323 27.5264 9.009 27.5149C8.997 25.2006 8.997 22.8862 9.009 20.5715Z" fill="white"/>
<path d="M17.4866 20.5707C22.6632 20.5598 27.8395 20.5598 33.0154 20.5707C33.0264 22.8846 33.0264 25.1989 33.0154 27.5135C27.8389 27.5243 22.6626 27.5243 17.4866 27.5135C17.4758 25.1996 17.4758 22.8853 17.4866 20.5707Z" fill="white"/>
<path d="M17.4937 30.1438C19.8036 30.1187 22.1132 30.1187 24.4224 30.1438C24.4464 32.4523 24.4467 34.7619 24.4234 37.0725C22.1134 37.0953 19.8039 37.0949 17.4949 37.0713C17.4709 34.7631 17.4705 32.4539 17.4937 30.1438Z" fill="white"/>
<defs>
<linearGradient id="paint0_linear" x1="19" y1="-2.5" x2="32.5" y2="62" gradientUnits="userSpaceOnUse">
<stop stop-color="#02A6C2"/>
<stop offset="1" stop-color="#ABEBF4"/>
</linearGradient>
</defs>
</svg>
