<svg xmlns="http://www.w3.org/2000/svg" viewBox="0 0 48 48"><defs><style>.cls-1{fill:#002868;}.cls-2{fill:#02a6c2;}.cls-3{fill:#5fcade;}.cls-4{fill:#abebf4;}</style></defs><title>FTX</title><g id="Layer_2" data-name="Layer 2"><g id="Layer_1-2" data-name="Layer 1"><circle class="cls-1" cx="24" cy="24" r="24"/><g id="Layer_2-2" data-name="Layer 2"><g id="Layer_1-2-2" data-name="Layer 1-2"><path class="cls-2" d="M18.82,12.68H38v6.2H18.82Z"/><path class="cls-3" d="M11.28,21.21q3.09,0,6.18,0,0,3.09,0,6.19-3.09,0-6.18,0Q11.25,24.3,11.28,21.21Z"/><path class="cls-3" d="M18.83,21.21q6.92,0,13.84,0,0,3.09,0,6.19-6.93,0-13.84,0Q18.82,24.3,18.83,21.21Z"/><path class="cls-4" d="M18.84,29.74q3.07,0,6.17,0c0,2.06,0,4.11,0,6.17q-3.09,0-6.17,0C18.82,33.85,18.81,31.8,18.84,29.74Z"/></g></g></g></g></svg>