<svg xmlns="http://www.w3.org/2000/svg" viewBox="0 0 47.89 47.89"><defs><style>.cls-1{fill:#6747ed;}.cls-2{fill:#fff;}</style></defs><title>GRT</title><g id="Layer_2" data-name="Layer 2"><g id="Layer_1-2" data-name="Layer 1"><circle class="cls-1" cx="23.95" cy="23.95" r="23.95"/><path class="cls-2" d="M33.17,20.65a9.58,9.58,0,1,0-9.57,9.58A9.59,9.59,0,0,0,33.17,20.65ZM23.6,27A6.39,6.39,0,1,1,30,20.65,6.37,6.37,0,0,1,23.6,27Z"/><path class="cls-2" d="M30.48,30.73,24.1,37.12a1.58,1.58,0,0,0,2.24,2.24L32.73,33a1.56,1.56,0,0,0,0-2.25A1.54,1.54,0,0,0,30.48,30.73Z"/><circle class="cls-2" cx="34.82" cy="12.67" r="1.6"/></g></g></svg>