<svg width="48" height="48" viewBox="0 0 48 48" fill="none" xmlns="http://www.w3.org/2000/svg">
<path d="M24 0C30.3652 0 36.4697 2.52858 40.9706 7.02945C45.4714 11.5303 48 17.6348 48 24C48 30.3652 45.4714 36.4697 40.9706 40.9706C36.4697 45.4714 30.3652 48 24 48C17.6348 48 11.5303 45.4714 7.02945 40.9706C2.52858 36.4697 0 30.3652 0 24C0 17.6348 2.52858 11.5303 7.02945 7.02945C11.5303 2.52858 17.6348 0 24 0Z" fill="#E31337"/>
<path d="M30.6934 26.1123C30.7145 26.1141 30.7348 26.121 30.7527 26.1324C30.7706 26.1438 30.7854 26.1593 30.796 26.1776C30.8066 26.196 30.8126 26.2166 30.8135 26.2377C30.8144 26.2589 30.8102 26.28 30.8013 26.2992L24.6503 36.9367C24.6388 36.9551 24.623 36.9704 24.6041 36.9812C24.5853 36.992 24.5641 36.9979 24.5424 36.9985H20.7821C20.7603 36.9986 20.7388 36.9928 20.7199 36.9819C20.701 36.9709 20.6853 36.9551 20.6745 36.9361C20.6636 36.9171 20.658 36.8956 20.6582 36.8738C20.6584 36.8519 20.6644 36.8305 20.6755 36.8117L26.8265 26.1742C26.8373 26.1554 26.8528 26.1399 26.8715 26.129C26.8902 26.1182 26.9115 26.1124 26.9331 26.1123H30.6934ZM27.037 23.0638C27.0153 23.0632 26.9941 23.0572 26.9753 23.0465C26.9565 23.0357 26.9406 23.0204 26.9291 23.002L20.6755 12.1868C20.6644 12.168 20.6584 12.1466 20.6582 12.1248C20.658 12.1029 20.6636 12.0814 20.6745 12.0624C20.6853 12.0434 20.701 12.0276 20.7199 12.0167C20.7388 12.0057 20.7603 12 20.7821 12H24.5424C24.5641 12.0006 24.5853 12.0066 24.6041 12.0174C24.623 12.0282 24.6388 12.0434 24.6503 12.0618L30.9039 22.877C30.9151 22.8958 30.921 22.9172 30.9212 22.9391C30.9214 22.9609 30.9158 22.9824 30.905 23.0014C30.8942 23.0204 30.8785 23.0362 30.8596 23.0472C30.8407 23.0581 30.8192 23.0639 30.7973 23.0638H27.037Z" fill="white"/>
<path d="M27.7797 12.1871C27.7682 12.1677 27.7621 12.1456 27.7622 12.123C27.7624 12.1004 27.7687 12.0783 27.7805 12.0591C27.7922 12.0398 27.8091 12.0242 27.8291 12.0138C27.8492 12.0034 27.8717 11.9988 27.8942 12.0003H31.6598C31.6814 12.0002 31.7027 12.0059 31.7214 12.0168C31.7401 12.0277 31.7556 12.0433 31.7663 12.0621L38.9357 24.4377C38.9466 24.4565 38.9524 24.4778 38.9524 24.4995C38.9524 24.5213 38.9466 24.5426 38.9357 24.5614L31.7663 36.937C31.7556 36.9558 31.7401 36.9714 31.7214 36.9823C31.7027 36.9931 31.6814 36.9989 31.6598 36.9988H27.8942C27.8722 36.9991 27.8506 36.9935 27.8315 36.9826C27.8124 36.9718 27.7965 36.956 27.7855 36.937C27.7746 36.918 27.7688 36.8964 27.769 36.8744C27.7691 36.8524 27.7751 36.8309 27.7863 36.812L34.9122 24.4995L27.7797 12.1871ZM24.7194 24.4364C24.7309 24.4564 24.737 24.4791 24.737 24.5022C24.737 24.5253 24.7309 24.548 24.7194 24.568L17.5172 36.937C17.5051 36.9546 17.4889 36.969 17.47 36.979C17.4511 36.989 17.43 36.9942 17.4086 36.9942C17.3873 36.9942 17.3662 36.989 17.3473 36.979C17.3284 36.969 17.3122 36.9546 17.3001 36.937L10.0176 24.5627C10.0061 24.5427 10 24.52 10 24.4969C10 24.4738 10.0061 24.4511 10.0176 24.4311L17.2198 12.0621C17.2319 12.0445 17.2481 12.0301 17.267 12.0201C17.2859 12.0101 17.307 12.0049 17.3284 12.0049C17.3498 12.0049 17.3708 12.0101 17.3897 12.0201C17.4086 12.0301 17.4248 12.0445 17.4369 12.0621L24.7194 24.4364Z" fill="white"/>
</svg>
