<svg xmlns="http://www.w3.org/2000/svg" viewBox="0 0 48 48"><defs><style>.cls-1{fill:#fff;}.cls-2{fill:#38a2ff;}</style></defs><title>HNT</title><g id="Layer_2" data-name="Layer 2"><g id="Layer_1-2" data-name="Layer 1"><circle class="cls-1" cx="24.5" cy="24.5" r="19.5"/><path class="cls-2" d="M30.39,12.48a3.59,3.59,0,0,1,5.08,5.08,3.58,3.58,0,0,1-3,1h-.17a1.85,1.85,0,0,0-1,.15,1.83,1.83,0,0,0-1,1,1.77,1.77,0,0,0,.05,1.39,6.89,6.89,0,0,1-9.13,9.13,1.8,1.8,0,0,0-1.42-.05,1.83,1.83,0,0,0-1,1,1.94,1.94,0,0,0-.17.92v.17a3.64,3.64,0,0,1-1,3.14,3.59,3.59,0,0,1-5.07-5.08,3.55,3.55,0,0,1,3-1h.05a1.65,1.65,0,0,0,.38.05,1.73,1.73,0,0,0,.77-.17,1.83,1.83,0,0,0,.94-1,1.77,1.77,0,0,0-.05-1.44,6.89,6.89,0,0,1,9.13-9.13,1.8,1.8,0,0,0,1.42.05,1.93,1.93,0,0,0,1-.95,1.88,1.88,0,0,0,.15-1.12h0A3.66,3.66,0,0,1,30.39,12.48ZM26.84,26.81a4,4,0,1,0-5.63,0A4,4,0,0,0,26.84,26.81ZM24,0A24,24,0,1,1,0,24,24,24,0,0,1,24,0ZM36.78,18.9a5.43,5.43,0,0,0-7.68-7.68A5.49,5.49,0,0,0,27.61,14,10.54,10.54,0,0,0,14,27.61a5.39,5.39,0,0,0-2.79,1.49A5.43,5.43,0,1,0,20.42,34a10.41,10.41,0,0,0,3.68.67A10.54,10.54,0,0,0,34,20.42,6,6,0,0,0,36.78,18.9Z"/></g></g></svg>