<svg xmlns="http://www.w3.org/2000/svg" viewBox="0 0 48 48"><defs><style>.cls-1{fill:#007f88;}.cls-2{fill:#fff;}</style></defs><title>HOT</title><g id="Layer_2" data-name="Layer 2"><g id="Layer_1-2" data-name="Layer 1"><circle class="cls-1" cx="24" cy="24" r="24"/><g id="Layer_2-2" data-name="Layer 2"><g id="Layer_1-2-2" data-name="Layer 1-2"><path class="cls-2" d="M9.75,13.09c-.45,0-.8.11-.78.16.18.43,1.3,3,1.32,3a2.7,2.7,0,0,0,.58.05,8.25,8.25,0,0,1,3.6.89,7.63,7.63,0,0,1,2.1,1.49A7.34,7.34,0,0,1,18.49,22a1.92,1.92,0,0,1,.08.31,6,6,0,0,1-1.12,0c-.62,0-1.15,0-1.19,0a11,11,0,0,0-.7,1.51c-.36.82-.66,1.51-.66,1.54s.19.12.73.2c.11,0,.77,0,1.55.05h1.36l-.09.28a8,8,0,0,1-7.23,5.54l-.57,0h-.22L9.76,33c-.57,1.32-.66,1.54-.62,1.55a5.39,5.39,0,0,0,1.46.09,11.34,11.34,0,0,0,2.65-.24,11.87,11.87,0,0,0,8.55-6.55,11.12,11.12,0,0,0,.67-2.11v-.13h2.91v.06a10,10,0,0,0,.83,2.53,11.49,11.49,0,0,0,6.15,5.58,13.07,13.07,0,0,0,5.25.94c.75,0,1.35-.1,1.32-.18s-1.3-3-1.31-3l-.59,0a8.89,8.89,0,0,1-2.33-.36,8.72,8.72,0,0,1-3.22-1.69A7.54,7.54,0,0,1,29.14,26c-.05-.14-.1-.3-.11-.35l0-.08h1.1l1.13,0s1.34-3,1.34-3a2,2,0,0,0-.63-.18,10.62,10.62,0,0,0-1.61-.05l-1.34,0,.05-.18a8.11,8.11,0,0,1,6-5.48,10.08,10.08,0,0,1,2.11-.28c.49,0,.55,0,.58-.07s.33-.71.67-1.5A13.81,13.81,0,0,0,39,13.29a4.09,4.09,0,0,0-.7-.12,16.74,16.74,0,0,0-2.12,0,12.64,12.64,0,0,0-7.76,3.46,10.42,10.42,0,0,0-2.65,4.14,10.1,10.1,0,0,0-.35,1.32l0,.19H22.53v-.06s0-.18-.07-.32a10.42,10.42,0,0,0-3.29-5.63,12.67,12.67,0,0,0-6.93-3.11A14,14,0,0,0,9.75,13.09Z"/></g></g></g></g></svg>