<svg xmlns="http://www.w3.org/2000/svg" viewBox="0 0 48 48"><defs><style>.cls-1{fill:#282e5b;}.cls-2{fill:#fff;}.cls-3{fill:#059bdc;}</style></defs><title>Huobi</title><g id="Layer_2" data-name="Layer 2"><g id="Layer_1-2" data-name="Layer 1"><circle class="cls-1" cx="24" cy="24" r="24"/><path class="cls-2" d="M27.7,17.65c0-4.73-2.28-8.8-4-10.14,0,0-.12-.07-.12.13-.15,9.14-4.78,11.64-7.35,15a11.23,11.23,0,0,0,5.16,17.71c3.13.87-.72-1.55-1.21-6.65-.58-6.18,7.55-10.89,7.55-16"/><path class="cls-3" d="M30.75,20.78a.12.12,0,0,0-.12,0l0,0c-.1,1.14-1.36,3.61-2.94,5.87C22.31,34.34,25.37,38,27.09,40c1,1.16,0,0,2.5-1.19A10.69,10.69,0,0,0,35,30.66a11.5,11.5,0,0,0-4.2-9.88"/></g></g></svg>