<svg xmlns="http://www.w3.org/2000/svg" viewBox="0 0 48 48"><defs><style>.cls-1{fill:#f9f9f9;}.cls-2{fill:#005ffa;}</style></defs><title>Husd</title><g id="Layer_2" data-name="Layer 2"><g id="Layer_1-2" data-name="Layer 1"><path class="cls-1" d="M6.73,22.16,14.11,4.63,35.07,7,39.36,20,37.21,37.89q-4.62,5-5.9,5T12,39.33l-5.26-13Z"/><path class="cls-2" d="M34.05,37.91H28.94v-8.8a2.55,2.55,0,0,0-2.55-2.55H19a5.1,5.1,0,0,1-5.1-5.1V10.1h5.11v8.8a2.55,2.55,0,0,0,2.55,2.55h7.34a5.11,5.11,0,0,1,5.11,5.11Zm-14.83,0H14.1V29.34a5.11,5.11,0,0,1,5.12,5.1ZM28.77,10.1h5.11v8.58a5.11,5.11,0,0,1-5.11-5.11ZM24,0A24,24,0,1,0,48,24,24,24,0,0,0,24,0Z"/></g></g></svg>