<svg width="48" height="48" viewBox="0 0 48 48" fill="none" xmlns="http://www.w3.org/2000/svg">
<circle cx="24" cy="24" r="24" fill="#1C0928"/>
<path d="M33.258 15C31.2508 15 29.0529 16.0912 26.7345 18.2435C25.6406 19.2546 24.6771 20.3557 23.9746 21.2267C23.9746 21.2267 25.0987 22.5181 26.3331 23.9096C27.0055 23.0687 27.959 21.9274 29.073 20.8963C31.1304 18.9743 32.4752 18.5838 33.248 18.5838C36.1384 18.5838 38.4869 21.0064 38.4869 23.9997C38.4869 26.9628 36.1384 29.3854 33.248 29.4155C33.1075 29.4155 32.9469 29.3954 32.7462 29.3554C33.5892 29.7458 34.5025 30.0261 35.3556 30.0261C40.6547 30.0261 41.6984 26.3722 41.7586 26.1119C41.9092 25.4412 41.9995 24.7405 41.9995 24.0197C41.9895 19.0443 38.0754 15 33.258 15Z" fill="url(#paint0_linear)"/>
<path d="M14.7415 32.9988C16.7487 32.9988 18.9466 31.9076 21.265 29.7553C22.3589 28.7442 23.3224 27.6431 24.0249 26.7721C24.0249 26.7721 22.9009 25.4807 21.6664 24.0892C20.994 24.9301 20.0406 26.0714 18.9265 27.1025C16.8691 29.0045 15.5143 29.415 14.7515 29.415C11.8611 29.415 9.51265 26.9924 9.51265 23.9991C9.51265 21.036 11.8611 18.6134 14.7515 18.5833C14.892 18.5833 15.0526 18.6034 15.2533 18.6434C14.4103 18.253 13.497 17.9727 12.6439 17.9727C7.34484 17.9627 6.30108 21.6166 6.24087 21.8869C6.09033 22.5576 6 23.2583 6 23.9791C6 28.9545 9.91409 32.9988 14.7415 32.9988Z" fill="url(#paint1_linear)"/>
<path fill-rule="evenodd" clip-rule="evenodd" d="M18.7765 20.9764C18.1944 20.4158 15.3642 18.1234 12.6545 18.0433C7.81705 17.9231 6.40195 21.4269 6.27148 21.8774C7.20485 17.9532 10.6573 15.02 14.752 15C18.0941 15 21.4762 18.2735 23.9752 21.2267L23.9853 21.2167C23.9853 21.2167 25.1093 22.5081 26.3438 23.8996C26.3438 23.8996 27.7488 25.5513 29.2342 27.0029C29.8163 27.5635 32.6364 29.8259 35.3462 29.906C40.3141 30.0461 41.689 26.3422 41.7593 26.0619C40.846 30.0161 37.3835 32.9593 33.2687 32.9793C29.9267 32.9793 26.5445 29.7058 24.0354 26.7526C24.0354 26.7626 24.0254 26.7626 24.0254 26.7726C24.0254 26.7726 22.9014 25.4812 21.6669 24.0898C21.677 24.0898 20.2719 22.428 18.7765 20.9764ZM6.27148 21.9174C6.27148 21.9074 6.27148 21.8974 6.28152 21.8874C6.27148 21.8974 6.27148 21.9074 6.27148 21.9174Z" fill="#29ABE2"/>
<defs>
<linearGradient id="paint0_linear" x1="28.5596" y1="16.4262" x2="40.9007" y2="28.9003" gradientUnits="userSpaceOnUse">
<stop offset="0.21" stop-color="#F15A24"/>
<stop offset="0.6841" stop-color="#FBB03B"/>
</linearGradient>
<linearGradient id="paint1_linear" x1="19.443" y1="31.5747" x2="7.10199" y2="19.1005" gradientUnits="userSpaceOnUse">
<stop offset="0.21" stop-color="#ED1E79"/>
<stop offset="0.8929" stop-color="#522785"/>
</linearGradient>
</defs>
</svg>
