<svg width="48" height="48" viewBox="0 0 48 48" fill="none" xmlns="http://www.w3.org/2000/svg">
<circle cx="24" cy="24" r="24" fill="black"/>
<g clip-path="url(#clip0)">
<path d="M28.5453 16.5644C29.1558 16.5644 29.6519 16.0603 29.6519 15.441C29.6519 14.8217 29.1558 14.3184 28.5453 14.3184C27.9348 14.3216 27.4387 14.8249 27.4387 15.4442C27.4387 16.0635 27.9348 16.5644 28.5453 16.5644ZM28.8718 19.4834C29.1222 19.4815 29.3616 19.3802 29.5373 19.2018C29.713 19.0234 29.8107 18.7825 29.8088 18.5321C29.8088 18.0088 29.3895 17.5807 28.8718 17.5807C28.3541 17.5807 27.9348 18.0056 27.9348 18.5321C27.9348 19.0586 28.3533 19.4834 28.8718 19.4834ZM31.4443 19.8555C31.9596 19.8555 32.3789 19.4306 32.3789 18.9065C32.3789 18.3824 31.9596 17.9575 31.4443 17.9575C30.929 17.9575 30.5097 18.3824 30.5097 18.9065C30.5097 19.4306 30.9298 19.8555 31.4443 19.8555ZM31.1354 22.3528C31.5771 22.3528 31.9348 21.9895 31.9348 21.5422C31.9348 21.0949 31.5771 20.7316 31.1354 20.7316C30.6937 20.7316 30.3361 21.0949 30.3361 21.5422C30.3361 21.9895 30.6937 22.3528 31.1354 22.3528ZM33.195 23.1625C33.6399 23.1625 34 22.7969 34 22.3464C34 21.8959 33.6399 21.5302 33.195 21.5302C33.0886 21.5309 32.9833 21.5526 32.8853 21.594C32.7872 21.6355 32.6983 21.6958 32.6235 21.7716C32.5488 21.8474 32.4897 21.9371 32.4496 22.0357C32.4096 22.1344 32.3893 22.2399 32.3901 22.3464C32.3901 22.7969 32.7509 23.1625 33.195 23.1625ZM28.5469 22.0151C28.6551 22.0145 28.7622 21.9925 28.8619 21.9505C28.9617 21.9085 29.0522 21.8473 29.1283 21.7703C29.2044 21.6933 29.2645 21.6021 29.3054 21.5019C29.3462 21.4017 29.3669 21.2944 29.3663 21.1861V21.1845C29.3663 20.726 29.0006 20.354 28.5469 20.354C28.0932 20.354 27.7275 20.7252 27.7275 21.1845C27.7275 21.6406 28.094 22.0151 28.5469 22.0151ZM27.8044 24.0019C28.1844 24.0019 28.4909 23.6898 28.4909 23.3066C28.4924 23.1236 28.4212 22.9476 28.2929 22.8172C28.1646 22.6868 27.9898 22.6127 27.8068 22.6112H27.8044C27.4243 22.6112 27.1178 22.9233 27.1178 23.3066C27.1178 23.6898 27.4243 24.0019 27.8044 24.0019ZM30.3809 24.3532C30.4709 24.3525 30.56 24.3342 30.6429 24.2992C30.7259 24.2641 30.8011 24.2131 30.8643 24.149C30.9276 24.0849 30.9775 24.009 31.0114 23.9255C31.0453 23.8421 31.0624 23.7528 31.0618 23.6628V23.6611C31.0618 23.2786 30.7578 22.969 30.3809 22.969C30.004 22.969 29.6999 23.2786 29.6999 23.6611C29.6988 23.7508 29.7153 23.8399 29.7486 23.9232C29.7818 24.0066 29.8312 24.0825 29.8938 24.1468C29.9564 24.2111 30.0311 24.2624 30.1135 24.2978C30.196 24.3332 30.2846 24.352 30.3743 24.3532H30.3809ZM32.4349 25.1597C32.815 25.1597 33.1214 24.8477 33.1214 24.462C33.1214 24.0763 32.815 23.7642 32.4349 23.7642C32.0548 23.7642 31.7484 24.0763 31.7484 24.462C31.7464 24.6451 31.8173 24.8215 31.9455 24.9524C32.0736 25.0832 32.2485 25.1578 32.4316 25.1597H32.4349ZM31.4203 26.6672C31.7411 26.6672 32.0004 26.4024 32.0004 26.0791C32.0004 25.7558 31.7411 25.491 31.4203 25.491C31.0994 25.491 30.8402 25.7558 30.8402 26.0791C30.8402 26.4024 31.0994 26.6672 31.4203 26.6672ZM29.3567 25.8735C29.6831 25.8735 29.9504 25.603 29.9504 25.271C29.9504 24.9389 29.6855 24.6684 29.3567 24.6684C29.0278 24.6684 28.763 24.9389 28.763 25.271C28.763 25.603 29.0302 25.8735 29.3567 25.8735ZM26.7834 25.5054C26.94 25.5029 27.0894 25.439 27.1993 25.3274C27.3092 25.2158 27.3709 25.0655 27.371 24.9089C27.3711 24.7522 27.3096 24.6018 27.1999 24.4901C27.0901 24.3783 26.9408 24.3142 26.7842 24.3116H26.7834C26.6267 24.314 26.4774 24.3779 26.3674 24.4895C26.2575 24.6011 26.1958 24.7514 26.1957 24.9081C26.1956 25.0647 26.2571 25.2151 26.3669 25.3269C26.4766 25.4386 26.6259 25.5027 26.7826 25.5054H26.7834ZM28.214 26.9217C28.4981 26.9217 28.7261 26.688 28.7261 26.404C28.7274 26.268 28.6746 26.137 28.5793 26.0399C28.4841 25.9428 28.3541 25.8876 28.2181 25.8863H28.214C27.93 25.8863 27.7019 26.1199 27.7019 26.404C27.7004 26.5398 27.753 26.6706 27.8479 26.7677C27.9429 26.8648 28.0726 26.9202 28.2084 26.9217H28.214ZM30.2769 27.729C30.5609 27.729 30.7946 27.4954 30.7946 27.2057C30.7946 26.9161 30.5641 26.6824 30.2769 26.6824C30.1381 26.6824 30.005 26.7376 29.9068 26.8357C29.8087 26.9338 29.7536 27.0669 29.7536 27.2057C29.7536 27.3445 29.8087 27.4776 29.9068 27.5758C30.005 27.6739 30.1381 27.729 30.2769 27.729ZM29.115 28.3348C29.3399 28.3348 29.5231 28.1491 29.5231 27.9211C29.5237 27.8121 29.4811 27.7074 29.4046 27.6298C29.3281 27.5523 29.224 27.5082 29.115 27.5074C28.8902 27.5074 28.7069 27.693 28.7069 27.9211C28.7067 28.0299 28.7495 28.1344 28.8259 28.2119C28.9023 28.2893 29.0062 28.3335 29.115 28.3348ZM28.014 28.6596C28.0627 28.6593 28.111 28.6494 28.1559 28.6305C28.2008 28.6116 28.2415 28.584 28.2758 28.5493C28.3101 28.5146 28.3371 28.4735 28.3555 28.4283C28.3739 28.3832 28.3832 28.3349 28.3829 28.2861V28.2852C28.3829 28.0771 28.2164 27.9107 28.014 27.9107C27.9653 27.911 27.917 27.9209 27.8721 27.9398C27.8272 27.9588 27.7865 27.9864 27.7522 28.021C27.718 28.0557 27.6909 28.0968 27.6725 28.142C27.6541 28.1871 27.6448 28.2354 27.6451 28.2842V28.2852C27.6434 28.3827 27.6806 28.477 27.7484 28.5472C27.8162 28.6174 27.9091 28.6578 28.0067 28.6595L28.014 28.6596ZM27.0498 27.5826C27.2923 27.5826 27.4891 27.3826 27.4891 27.1377C27.4891 26.8929 27.2923 26.6928 27.0498 26.6928C26.8074 26.6928 26.6105 26.8929 26.6105 27.1377C26.6103 27.2548 26.6563 27.3673 26.7386 27.4506C26.8209 27.5339 26.9327 27.5814 27.0498 27.5826ZM25.6351 26.5624C25.9168 26.5624 26.1472 26.332 26.1472 26.0447C26.1472 25.7574 25.9192 25.527 25.6351 25.527C25.3535 25.527 25.123 25.7574 25.123 26.0447C25.1228 26.1811 25.1765 26.3121 25.2724 26.409C25.3684 26.506 25.4987 26.5611 25.6351 26.5624ZM29.8304 33.0485C30.4385 33.0485 30.9314 32.5476 30.9314 31.9307C30.9314 31.3138 30.4385 30.8129 29.8304 30.8129C29.2222 30.8129 28.7293 31.3138 28.7293 31.9307C28.7293 32.5476 29.2222 33.0485 29.8304 33.0485ZM27.0338 31.6338C27.5403 31.6338 27.9516 31.2169 27.9516 30.7024C27.9516 30.1879 27.5403 29.771 27.0338 29.771C26.5273 29.771 26.116 30.1879 26.116 30.7024C26.116 31.2169 26.5265 31.6338 27.0338 31.6338ZM25.4359 33.6814C25.948 33.6814 26.3617 33.2621 26.3617 32.7412C26.3617 32.2235 25.948 31.8011 25.4359 31.8011C24.9238 31.8011 24.5101 32.2203 24.5101 32.7412C24.5082 32.9887 24.6046 33.2267 24.7782 33.4031C24.9518 33.5794 25.1884 33.6795 25.4358 33.6814H25.4359ZM24.955 29.9087C25.0611 29.9079 25.1661 29.8863 25.2638 29.845C25.3616 29.8037 25.4503 29.7436 25.5248 29.668C25.5993 29.5925 25.6582 29.5029 25.6982 29.4046C25.7381 29.3063 25.7583 29.201 25.7576 29.0949C25.7583 28.9888 25.7381 28.8835 25.6982 28.7852C25.6582 28.6869 25.5993 28.5974 25.5248 28.5218C25.4503 28.4462 25.3616 28.3861 25.2638 28.3448C25.1661 28.3035 25.0611 28.2819 24.955 28.2812C24.8489 28.2819 24.7439 28.3035 24.6461 28.3448C24.5484 28.3861 24.4597 28.4462 24.3852 28.5218C24.3106 28.5974 24.2517 28.6869 24.2118 28.7852C24.1719 28.8835 24.1517 28.9888 24.1524 29.0949C24.1532 29.543 24.5133 29.9087 24.955 29.9087ZM23.3611 31.9843C23.8028 31.9843 24.1604 31.621 24.1604 31.1737C24.1604 30.7264 23.8028 30.3632 23.3611 30.3632C22.9194 30.3632 22.5617 30.7264 22.5617 31.1737C22.5596 31.3866 22.6421 31.5915 22.7911 31.7435C22.9401 31.8955 23.1434 31.9821 23.3562 31.9843H23.3611ZM21.6431 33.3926C22.0848 33.3926 22.4401 33.0293 22.4401 32.5844C22.4401 32.1371 22.0824 31.7763 21.6431 31.7763C21.2014 31.7763 20.8462 32.1395 20.8462 32.5844C20.8462 33.0293 21.2038 33.3926 21.6431 33.3926ZM20.2132 31.5594C20.3948 31.5577 20.5684 31.4843 20.696 31.355C20.8236 31.2258 20.8948 31.0513 20.8942 30.8697C20.8942 30.4896 20.5901 30.1799 20.2132 30.1799C20.0321 30.1827 19.8594 30.2566 19.7323 30.3856C19.6052 30.5147 19.5339 30.6885 19.5339 30.8697C19.5339 31.0508 19.6052 31.2247 19.7323 31.3537C19.8594 31.4828 20.0321 31.5566 20.2132 31.5594ZM21.9344 30.1447C22.1161 30.1435 22.2899 30.0701 22.4176 29.9408C22.5453 29.8114 22.6164 29.6367 22.6153 29.455C22.6153 29.0725 22.3113 28.7652 21.9344 28.7652C21.7533 28.7677 21.5804 28.8412 21.453 28.9701C21.3257 29.0989 21.2541 29.2727 21.2538 29.4538C21.2535 29.6349 21.3244 29.8089 21.4513 29.9382C21.5782 30.0675 21.7509 30.1417 21.932 30.1447H21.9344ZM23.5403 28.0699C23.6304 28.0693 23.7194 28.0509 23.8023 28.0159C23.8853 27.9809 23.9605 27.9299 24.0238 27.8658C24.087 27.8016 24.137 27.7257 24.1709 27.6423C24.2047 27.5589 24.2219 27.4696 24.2212 27.3795V27.3779C24.2212 26.9954 23.9172 26.6857 23.5403 26.6857C23.4503 26.6863 23.3612 26.7047 23.2783 26.7397C23.1953 26.7747 23.1201 26.8258 23.0569 26.8899C22.9936 26.954 22.9436 27.0299 22.9098 27.1133C22.8759 27.1968 22.8587 27.286 22.8594 27.3761V27.3778C22.8594 27.7602 23.1634 28.0699 23.5403 28.0699ZM21.0838 28.3556C21.4103 28.3556 21.6751 28.0883 21.6751 27.7562C21.6751 27.4242 21.4103 27.1569 21.0838 27.1569C20.7574 27.1569 20.4925 27.4242 20.4925 27.7562C20.4925 28.0883 20.7574 28.3556 21.0838 28.3556ZM19.3715 29.7646C19.4488 29.7642 19.5253 29.7486 19.5966 29.7186C19.6679 29.6886 19.7326 29.6449 19.787 29.5899C19.8414 29.5349 19.8844 29.4698 19.9136 29.3981C19.9428 29.3265 19.9576 29.2499 19.9572 29.1725V29.1709C19.9587 29.015 19.8982 28.8648 19.7889 28.7534C19.6797 28.6421 19.5307 28.5787 19.3748 28.5772H19.3715C19.2941 28.5776 19.2176 28.5933 19.1463 28.6233C19.0751 28.6532 19.0104 28.697 18.956 28.752C18.9016 28.8069 18.8586 28.8721 18.8294 28.9437C18.8002 29.0153 18.7853 29.092 18.7858 29.1693V29.1709C18.7852 29.2484 18.8 29.3252 18.8291 29.3969C18.8583 29.4687 18.9013 29.534 18.9556 29.5891C19.01 29.6442 19.0748 29.6881 19.1461 29.7182C19.2174 29.7484 19.294 29.7641 19.3715 29.7646ZM18.9778 28.1131C19.1128 28.1121 19.2418 28.0576 19.3368 27.9616C19.4317 27.8657 19.4847 27.736 19.4843 27.601C19.4843 27.317 19.2563 27.0889 18.9778 27.0889C18.6993 27.0889 18.4713 27.3194 18.4713 27.601C18.4713 27.8851 18.6993 28.1131 18.9778 28.1131ZM18.9634 26.664C19.0209 26.6635 19.0777 26.6517 19.1306 26.6292C19.1835 26.6067 19.2314 26.574 19.2717 26.533C19.312 26.492 19.3438 26.4434 19.3653 26.3901C19.3868 26.3368 19.3976 26.2798 19.3971 26.2223C19.3971 25.9799 19.2026 25.7807 18.9634 25.7807C18.7241 25.7807 18.5297 25.9775 18.5297 26.2223C18.5297 26.4672 18.7241 26.664 18.9634 26.664ZM19.2018 25.459C19.4075 25.459 19.5707 25.2902 19.5707 25.0845C19.5707 24.8789 19.4043 24.71 19.2018 24.71C18.9962 24.71 18.833 24.8789 18.833 25.0845C18.833 25.2902 18.9962 25.459 19.2018 25.459ZM20.6781 25.2573C20.9206 25.2573 21.1174 25.0573 21.1174 24.8125C21.1174 24.5676 20.9206 24.3676 20.6781 24.3676C20.4357 24.3676 20.2388 24.5676 20.2388 24.8125C20.2384 24.9296 20.2844 25.0422 20.3667 25.1255C20.449 25.2089 20.561 25.2563 20.6781 25.2573ZM22.2985 24.626C22.5801 24.626 22.8106 24.3924 22.8106 24.1083C22.8118 23.9723 22.759 23.8413 22.6638 23.7443C22.5685 23.6472 22.4386 23.5919 22.3025 23.5906H22.2985C22.0168 23.5906 21.7864 23.8243 21.7864 24.1083C21.7858 24.1758 21.7986 24.2427 21.8239 24.3052C21.8493 24.3677 21.8867 24.4247 21.934 24.4727C21.9813 24.5208 22.0377 24.5591 22.0998 24.5854C22.1619 24.6117 22.2286 24.6255 22.2961 24.626H22.2985ZM22.6841 26.2695C22.8382 26.2692 22.9859 26.2078 23.0947 26.0986C23.2035 25.9895 23.2645 25.8416 23.2643 25.6876C23.2642 25.5335 23.2028 25.3857 23.0938 25.2768C22.9848 25.1679 22.837 25.1068 22.6829 25.1068C22.5288 25.1068 22.3811 25.1679 22.272 25.2768C22.163 25.3857 22.1017 25.5335 22.1015 25.6876C22.1014 25.8416 22.1624 25.9895 22.2712 26.0986C22.38 26.2078 22.5276 26.2692 22.6817 26.2695H22.6841ZM20.6989 26.7072C20.9806 26.7072 21.2054 26.4768 21.2054 26.1919C21.2054 25.9071 20.9774 25.6766 20.6989 25.6766C20.632 25.677 20.5658 25.6906 20.5041 25.7166C20.4425 25.7426 20.3865 25.7805 20.3395 25.8281C20.2924 25.8757 20.2552 25.9322 20.23 25.9942C20.2048 26.0562 20.192 26.1225 20.1924 26.1895V26.1919C20.1915 26.2586 20.2037 26.3249 20.2283 26.3869C20.253 26.4489 20.2896 26.5054 20.3361 26.5533C20.3826 26.6011 20.4381 26.6393 20.4993 26.6657C20.5606 26.6921 20.6265 26.7062 20.6932 26.7072H20.6989V26.7072ZM15.0978 25.9431C15.7027 25.9431 16.1956 25.4446 16.1956 24.8309C16.1956 24.2171 15.7027 23.7186 15.0978 23.7186C14.4929 23.7186 14 24.2179 14 24.8317C14 25.4454 14.4929 25.9431 15.0978 25.9431ZM17.5895 23.9571C18.1104 23.9571 18.5297 23.529 18.5297 23.0025C18.5297 22.476 18.1072 22.0479 17.5895 22.0479C17.3385 22.0496 17.0984 22.1509 16.9221 22.3296C16.7458 22.5084 16.6476 22.7498 16.6493 23.0008V23.0025C16.6493 23.5322 17.0718 23.9571 17.5895 23.9571ZM16.6173 21.5086C17.135 21.5086 17.5519 21.0837 17.5519 20.5596C17.5519 20.0355 17.1326 19.6106 16.6173 19.6106C16.4938 19.6114 16.3716 19.6366 16.2577 19.6847C16.1439 19.7327 16.0406 19.8027 15.9538 19.8907C15.867 19.9787 15.7984 20.0829 15.7519 20.1973C15.7054 20.3118 15.6819 20.4344 15.6827 20.5579V20.5596C15.6802 20.8087 15.7767 21.0487 15.9511 21.2266C16.1254 21.4046 16.3633 21.506 16.6124 21.5086H16.6173ZM19.0194 20.3484C19.4611 20.3484 19.822 19.9851 19.822 19.5346C19.822 19.0841 19.4619 18.7208 19.0194 18.7208C18.5769 18.7208 18.2168 19.0841 18.2168 19.5346C18.2168 19.9851 18.5777 20.3484 19.0194 20.3484ZM20.0012 22.7913C20.4461 22.7913 20.8062 22.4256 20.8062 21.9751C20.8062 21.5246 20.4461 21.1589 20.0012 21.1589C19.5563 21.1589 19.1962 21.5246 19.1962 21.9751C19.1962 22.4256 19.5563 22.7913 20.0012 22.7913ZM22.1872 22.284C22.3701 22.2825 22.545 22.2084 22.6733 22.078C22.8016 21.9476 22.8728 21.7716 22.8714 21.5887C22.8728 21.4989 22.8564 21.4096 22.8233 21.3261C22.7902 21.2426 22.741 21.1664 22.6784 21.1019C22.6159 21.0374 22.5412 20.9858 22.4587 20.9502C22.3763 20.9145 22.2876 20.8955 22.1977 20.8941C22.1079 20.8927 22.0186 20.909 21.9351 20.9421C21.8516 20.9752 21.7754 21.0245 21.7109 21.087C21.6464 21.1496 21.5948 21.2242 21.5592 21.3067C21.5235 21.3892 21.5045 21.4779 21.5031 21.5677C21.5031 21.5748 21.5031 21.5817 21.5031 21.5887C21.501 21.771 21.5714 21.9466 21.6987 22.077C21.8261 22.2074 22.0001 22.2819 22.1824 22.284L22.1872 22.284ZM24.0756 22.2904C24.4021 22.2904 24.6669 22.0231 24.6669 21.6934C24.6669 21.3638 24.4021 21.0965 24.0756 21.0965C23.9173 21.0965 23.7655 21.1594 23.6535 21.2713C23.5416 21.3833 23.4787 21.5351 23.4787 21.6934C23.4787 21.8517 23.5416 22.0036 23.6535 22.1155C23.7655 22.2275 23.9173 22.2904 24.0756 22.2904ZM25.6359 22.6496C25.9088 22.6496 26.1344 22.4248 26.1344 22.1455C26.1344 21.8663 25.912 21.6414 25.6359 21.6414C25.5031 21.6425 25.376 21.6961 25.2826 21.7906C25.1892 21.885 25.137 22.0127 25.1374 22.1455C25.1406 22.4216 25.3623 22.6496 25.6359 22.6496ZM25.8392 20.8109C25.9549 20.81 26.0656 20.7633 26.1469 20.6809C26.2282 20.5986 26.2735 20.4873 26.2729 20.3716C26.2729 20.1291 26.0784 19.9323 25.8392 19.9323C25.5999 19.9323 25.4055 20.1291 25.4055 20.3716C25.4048 20.4873 25.4501 20.5986 25.5314 20.6809C25.6128 20.7633 25.7234 20.81 25.8392 20.8109ZM24.6389 20.2091C24.7714 20.2088 24.8983 20.1559 24.9917 20.0621C25.0852 19.9683 25.1376 19.8412 25.1375 19.7087C25.1373 19.5763 25.0846 19.4493 24.9909 19.3557C24.8972 19.2621 24.7701 19.2096 24.6377 19.2096C24.5052 19.2096 24.3782 19.2621 24.2845 19.3557C24.1908 19.4493 24.1381 19.5763 24.1379 19.7087C24.1377 19.8412 24.1902 19.9683 24.2836 20.0621C24.3771 20.1559 24.504 20.2088 24.6364 20.2091H24.6389ZM23.097 19.8443C23.2534 19.843 23.4028 19.7798 23.5126 19.6685C23.6224 19.5572 23.6836 19.4069 23.6827 19.2505C23.6827 18.9209 23.4211 18.6568 23.097 18.6568C22.773 18.6568 22.5113 18.9241 22.5113 19.2505C22.5107 19.3279 22.5253 19.4046 22.5543 19.4763C22.5833 19.548 22.6262 19.6133 22.6804 19.6684C22.7346 19.7235 22.7992 19.7674 22.8704 19.7976C22.9416 19.8278 23.0181 19.8436 23.0954 19.8443H23.097ZM21.2118 19.8467C21.5919 19.8467 21.8984 19.5346 21.8984 19.1513C21.8984 18.768 21.5919 18.456 21.2118 18.456C20.8318 18.456 20.5253 18.768 20.5253 19.1513C20.5247 19.3344 20.5965 19.5103 20.7251 19.6406C20.8538 19.7709 21.0288 19.845 21.2118 19.8467ZM18.6729 18.1079C19.1034 18.1079 19.4499 17.7558 19.4499 17.3198C19.4499 16.8837 19.101 16.5316 18.6729 16.5316C18.2424 16.5316 17.896 16.8837 17.896 17.3198C17.896 17.7558 18.2448 18.1079 18.6729 18.1079ZM20.8582 17.6302C21.2382 17.6302 21.5447 17.3182 21.5447 16.9349C21.5447 16.5516 21.2382 16.2395 20.8582 16.2395C20.4781 16.2395 20.1716 16.5516 20.1716 16.9349C20.1716 17.3182 20.4781 17.6302 20.8582 17.6302ZM22.7457 17.639C23.0722 17.639 23.3371 17.3718 23.3371 17.0397C23.3371 16.7076 23.0722 16.4404 22.7457 16.4404C22.6677 16.4408 22.5904 16.4566 22.5185 16.4869C22.4465 16.5171 22.3812 16.5613 22.3263 16.6168C22.2714 16.6723 22.2279 16.7381 22.1985 16.8103C22.169 16.8826 22.154 16.96 22.1544 17.0381V17.0397C22.1538 17.1975 22.2156 17.3491 22.3264 17.4614C22.4372 17.5737 22.588 17.6376 22.7457 17.639ZM24.2949 17.9959C24.5709 17.9959 24.7934 17.771 24.7934 17.4918C24.7934 17.2125 24.5709 16.9877 24.2949 16.9877C24.1612 16.9877 24.0329 17.0408 23.9384 17.1353C23.8439 17.2299 23.7908 17.3581 23.7908 17.4918C23.7908 17.6255 23.8439 17.7537 23.9384 17.8482C24.0329 17.9428 24.1612 17.9959 24.2949 17.9959ZM25.4847 18.6136C25.6034 18.6128 25.7169 18.5649 25.8003 18.4804C25.8837 18.3959 25.9302 18.2818 25.9296 18.1631C25.9296 17.9127 25.7295 17.7126 25.4847 17.7126C25.2398 17.7126 25.0398 17.9151 25.0398 18.1631C25.0398 18.4112 25.2398 18.6136 25.4847 18.6136ZM26.3577 19.3226C26.406 19.3222 26.4538 19.3124 26.4983 19.2936C26.5429 19.2748 26.5833 19.2475 26.6172 19.2131C26.6512 19.1787 26.678 19.1379 26.6962 19.0931C26.7145 19.0483 26.7237 19.0004 26.7233 18.9521V18.9513C26.7238 18.9029 26.7147 18.855 26.6966 18.8102C26.6784 18.7654 26.6517 18.7246 26.6178 18.6901C26.5839 18.6556 26.5436 18.6281 26.4991 18.6093C26.4546 18.5904 26.4068 18.5804 26.3585 18.58H26.3577C26.3093 18.5803 26.2615 18.5902 26.217 18.6089C26.1725 18.6277 26.1321 18.6551 26.0981 18.6895C26.0641 18.7239 26.0373 18.7647 26.0191 18.8094C26.0009 18.8542 25.9917 18.9021 25.992 18.9505V18.9513C25.9913 18.9993 26 19.047 26.0177 19.0916C26.0354 19.1363 26.0617 19.177 26.0951 19.2115C26.1286 19.246 26.1685 19.2735 26.2126 19.2925C26.2566 19.3116 26.3041 19.3218 26.3521 19.3225H26.3578L26.3577 19.3226Z" fill="white"/>
</g>
<defs>
<clipPath id="clip0">
<rect width="20" height="19.3631" fill="white" transform="translate(14 14.3184)"/>
</clipPath>
</defs>
</svg>
