<svg xmlns="http://www.w3.org/2000/svg" viewBox="0 0 48 48"><defs><style>.cls-1{fill:#0093dd;}.cls-2{fill:#fff;}</style></defs><title>KCS</title><g id="Layer_2" data-name="Layer 2"><g id="Layer_1-2" data-name="Layer 1"><circle class="cls-1" cx="24" cy="24" r="24"/><path class="cls-2" d="M20.25,24l7.8,8L33,27a2,2,0,0,1,3,0h0a2.35,2.35,0,0,1,0,3.3l-6.45,6.6a2.18,2.18,0,0,1-3.15,0h0l-9.3-9.6V33a2.25,2.25,0,0,1-4.5,0V15a2.25,2.25,0,0,1,4.5,0v5.7l9.3-9.6a2.18,2.18,0,0,1,3.15,0h0L36,17.7A2.35,2.35,0,0,1,36,21a2,2,0,0,1-3,0h0l-4.95-5.1Zm7.8-2.25A2.25,2.25,0,1,1,25.8,24,2.31,2.31,0,0,1,28.05,21.75Z"/></g></g></svg>