<svg xmlns="http://www.w3.org/2000/svg" viewBox="0 0 49 49"><defs><style>.cls-1{stroke:#000;stroke-miterlimit:10;}.cls-2{fill:#fff;}</style></defs><title>KSM</title><g id="Layer_2" data-name="Layer 2"><g id="Layer_1-2" data-name="Layer 1"><circle class="cls-1" cx="24.5" cy="24.5" r="24"/><path class="cls-2" d="M39.51,15.15a4.16,4.16,0,0,0-2.23-1.09,4.5,4.5,0,0,0-2.82,1c-.72.46-2.08,1.82-2.64,2.23s-2,.8-4.31,2.18-11.38,7.21-11.38,7.21l2.36,0L8,32.16H9L7.5,33.32A3.44,3.44,0,0,0,10,33v.33s12.53-4.94,15-3.66l-1.47.43,2.51.16a3.38,3.38,0,0,0,1.51,2.44c1.44.94,1.47,1.46,1.47,1.46s-.75.31-.75.69a6.93,6.93,0,0,1,4,0s-.08-.41-1.07-.69a5.88,5.88,0,0,1-2.46-1.95,2.74,2.74,0,0,1-.4-2.69c.34-.9,1.54-1.39,4-2.67,2.92-1.51,3.59-2.63,4-3.51s1-2.62,1.36-3.43a4.44,4.44,0,0,1,1.41-1.95,17.14,17.14,0,0,1,2.41-1.07S40,15.54,39.51,15.15Z"/></g></g></svg>