<svg width="48" height="48" viewBox="0 0 48 48" fill="none" xmlns="http://www.w3.org/2000/svg">
<path d="M24 0C37.2549 0 48 10.7451 48 24C48 37.2549 37.2549 48 24 48C10.7451 48 0 37.2549 0 24C0 10.7451 10.7451 0 24 0Z" fill="#1A222D"/>
<path d="M16.7089 21.7128H16.7234L16.9708 21.7992L17.2037 21.8857L17.4511 21.9577L17.6839 22.0585L17.9313 22.1449L18.1641 22.2313L18.4115 22.3177L18.6444 22.4041L18.8772 22.4905L19.1101 22.5769L19.3575 22.6633L19.5903 22.7641L19.8377 22.8361L20.0706 22.9226L20.318 23.009L20.5508 23.1098L20.7982 23.1962L21.0311 23.2682L21.2639 23.3546L21.5113 23.4554L21.7587 23.5418V23.1674V23.1098V22.8073V22.5913V22.4329V22.0585V21.6984V21.324V20.964V20.5751V20.2151V20.1719H21.4676H21.1911H21.162H20.8564H20.6236H20.5363H20.2307H20.0706H19.9105H19.5903H19.503H19.2847H18.9791H18.9646H18.95H18.6589H18.397H18.3533H18.0332H17.8294H17.2764H16.7234H16.7089H16.3887L16.1559 20.2871L15.6028 20.5751L15.0353 20.8775L14.4677 21.1512L13.9293 21.4392L13.3617 21.7416L12.7941 22.0153L12.2411 22.3177L11.6736 22.6057L11.1206 22.8794L10.5676 23.1818L10.0582 23.441L10 31.6931L10.5676 32.0819L11.1206 32.4707L11.6736 32.8452L12.2411 33.2484L12.7941 33.6373L13.3617 34.0261L13.6091 34.2133L13.9293 33.8101L14.4677 33.09L14.5259 33.018L14.4677 32.9748L13.9293 32.586L13.3617 32.1971L12.7941 31.8083L12.2411 31.4194L11.6736 31.0162L11.528 30.9298L11.5717 24.2475L11.6736 24.1899L12.2411 23.9163L12.7941 23.6426L13.3617 23.369L13.9293 23.0954L14.4677 22.8073L15.0353 22.5337L15.6028 22.2745L16.1559 21.9865L16.7089 21.7128Z" fill="url(#paint0_linear)"/>
<path d="M26.3421 37.4521L25.8764 37.6393L25.3525 37.8553L24.8286 38.0569L24.3047 38.273L24.0719 38.3594L23.7953 38.2298L23.2714 37.9561L22.7475 37.7113L22.2382 37.4377L21.7143 37.1784L21.1904 36.9336L20.6665 36.66L20.1426 36.4008L19.6187 36.1415L19.0948 35.8823L18.5709 35.6087L18.0761 35.3639L17.5522 35.1046L17.494 35.0758V28.3359H17.0283H16.5044H15.9805V35.9975L16.5044 36.2424L17.0283 36.5016L17.5522 36.7752L18.0761 37.02L18.5709 37.2937L19.0948 37.5529L19.6187 37.8121L20.1426 38.0713L20.6665 38.3306L21.1904 38.5898L21.7143 38.849L22.2382 39.1226L22.7475 39.3675L23.2714 39.6411L23.7953 39.8859L23.9991 40.0011L24.3047 39.8571L24.8286 39.6699L25.3525 39.4539L25.8764 39.2379L26.3858 39.0362L26.9097 38.8346L26.3858 37.5385L26.3421 37.4521Z" fill="url(#paint1_linear)"/>
<path d="M35.6409 28.0875L35.67 31.2558L35.539 31.3711L34.6513 31.9759L33.7636 32.6096L32.8758 33.2432L31.9881 33.8625L31.1004 34.4818L30.2272 35.1154L29.3395 35.7347L28.8156 36.1091L28.4518 35.8355L27.5786 35.1586L26.6909 34.4962L25.8032 33.8193L24.93 33.1568L24.7699 33.0416V29.6285L24.93 29.4845L25.8032 28.5628L26.6909 27.6555L27.5786 26.7338L28.4518 25.8265L29.3104 24.9336H28.4518H27.5786H26.6909H25.8032H24.93H24.0277H23.14H22.2668H21.3791H20.4914H19.6182H18.7305L19.6182 25.8553L20.4914 26.7626L21.3791 27.6699L22.2668 28.5916L23.14 29.4989L23.271 29.6285V33.7617L24.0277 34.3522L24.93 35.029L25.8032 35.6915L26.6909 36.3684L27.5786 37.0308L28.4518 37.7077L28.7719 37.9525L29.3395 37.5493L30.2272 36.9444L31.1004 36.3108L31.9881 35.6771L32.8758 35.0722L33.7636 34.4386L34.6513 33.8049L35.539 33.2L36.4267 32.5664L37.1544 32.0335L37.2999 28.1451L36.4267 28.1163L35.6409 28.0875Z" fill="url(#paint2_linear)"/>
<path d="M11.4409 20.7168H11.5428L11.5573 16.4827L12.1249 16.1227L12.838 15.7051L13.5365 15.2874L14.2351 14.8554L14.9336 14.4377L15.6467 14.0057L16.3307 13.588L17.0438 13.1704L17.7423 12.7383L18.4554 12.3063H18.4699L19.1394 12.6951L19.8525 13.084L20.551 13.4872L21.2495 13.8761L21.9481 14.2649L22.6466 14.6537L23.3452 15.057L24.0291 15.4458L24.0582 15.3882L24.7568 14.1353L24.0582 13.732L23.3452 13.3432L22.6466 12.9544L21.9481 12.5655L21.2495 12.1623L20.551 11.7734L19.8525 11.3846L19.1394 10.9814L18.4554 10.5925L18.4263 10.5781L17.7423 10.9814L17.0438 11.4134L16.3307 11.8455L15.6467 12.2775L14.9336 12.6951L14.2351 13.1128L13.5365 13.5448L12.838 13.9625L12.1249 14.3945L11.4409 14.8122L10.7278 15.2298L10.0584 15.6474L10.0293 20.7024H10.7278L11.4409 20.7168Z" fill="url(#paint3_linear)"/>
<path d="M38.7989 16.8422L38.4351 16.5542L38.0713 16.2662L37.7075 15.9637L37.3437 15.6757L36.9798 15.3877L36.6015 15.0996L36.2376 14.8116L35.8738 14.5236L35.4955 14.2212L35.2189 14.0195L35.1171 14.1347L34.7533 14.5812L34.3894 15.042L34.2876 15.1572L34.3894 15.2581L34.7533 15.5605L35.1171 15.8629L35.4955 16.1654L35.8738 16.4678L36.2376 16.7846L36.6015 17.087L36.9798 17.3895L37.1545 17.5335L37.169 24.3454L36.9798 24.475L36.6015 24.7054L36.2376 24.9359L35.8738 25.1663L35.4955 25.3967L35.1171 25.6271L34.7533 25.8576L34.3894 26.088L34.0256 26.3184L33.6618 26.5488L33.298 26.7792L32.9196 27.0097L32.5558 27.2401L32.192 27.4705L31.8281 27.7009L31.4498 27.9314L31.0859 28.1618L31.4498 28.7378L31.8281 29.3139L31.8863 29.4147L32.192 29.2275L32.5558 29.0115L32.9196 28.7811L33.298 28.565L33.6618 28.3202L34.0256 28.1042L34.3894 27.8738L34.7533 27.6577L35.1171 27.4273L35.4955 27.2113L35.8738 26.9665L36.2376 26.7504L36.6015 26.52L36.9798 26.304L37.3437 26.0736L37.7075 25.8576L38.0713 25.6127L38.4351 25.3967L38.7989 25.1663V16.8422Z" fill="url(#paint4_linear)"/>
<path d="M26.7936 20.9037V21.2782V21.6526V22.027V22.4159V22.8047V23.1792V23.5536V23.8416L26.91 23.7984L27.4048 23.6112L27.8996 23.4096L28.3798 23.2224L28.8746 23.0207L29.3694 22.8191L29.8497 22.6319L30.3445 22.4303L30.8393 22.2431L31.3195 22.0414L31.8143 21.8542L32.2945 21.6526V21.2782V21.1342V20.1404V12.7381L31.7415 12.3925L31.174 12.0756L30.6064 11.7588L30.0534 11.4132L29.4858 11.0963L28.9183 10.7795L28.3653 10.4483L27.7977 10.117L27.2447 9.78578L26.6771 9.46895L26.1096 9.13772L25.5566 8.80648L25.0036 8.48965L24.436 8.17282L24.1304 8L23.8684 8.14401L23.3009 8.44645L22.7333 8.73448L22.1949 9.05131L21.6273 9.35374L21.0597 9.64177L20.4922 9.9586L21.0597 10.2754L21.6273 10.5923L21.9766 10.8083L22.1949 10.6931L22.7333 10.405L23.3009 10.1026L23.8684 9.81459L24.0867 9.69937L24.436 9.901L25.0036 10.2178L25.5566 10.5347L26.1096 10.8659L26.6771 11.1971L27.2447 11.514L27.7977 11.8452L28.3653 12.1764L28.9183 12.4933L29.4858 12.8101L30.0534 13.1557L30.6064 13.4726L30.7956 13.5734V20.1404H30.6646H30.6064H30.3445H30.0534H30.0243H29.6896H29.4858H29.3694H29.0493H28.9183H28.7291H28.4089H28.3653H28.0888H27.7977H27.7686H27.4339H27.2447H27.1137H26.8663H26.8227" fill="url(#paint5_linear)"/>
<path d="M26.793 23.8418L32.2939 21.6528L26.793 20.1406" fill="url(#paint6_linear)"/>
<path d="M21.7599 23.8428V20.1992L16.7246 21.6826L21.7599 23.8284" fill="url(#paint7_linear)"/>
<defs>
<linearGradient id="paint0_linear" x1="15.8757" y1="20.1762" x2="15.8757" y2="34.2076" gradientUnits="userSpaceOnUse">
<stop stop-color="#F6E93D"/>
<stop offset="0.13" stop-color="#F8E330"/>
<stop offset="0.35" stop-color="#F7C730"/>
<stop offset="0.64" stop-color="#F59C2E"/>
<stop offset="0.98" stop-color="#EB5E2C"/>
<stop offset="1" stop-color="#EB5C2C"/>
</linearGradient>
<linearGradient id="paint1_linear" x1="21.4472" y1="28.3417" x2="21.4472" y2="39.9997" gradientUnits="userSpaceOnUse">
<stop stop-color="#F6E93D"/>
<stop offset="0.13" stop-color="#F8E330"/>
<stop offset="0.35" stop-color="#F7C730"/>
<stop offset="0.64" stop-color="#F59C2E"/>
<stop offset="0.98" stop-color="#EB5E2C"/>
<stop offset="1" stop-color="#EB5C2C"/>
</linearGradient>
<linearGradient id="paint2_linear" x1="28.0145" y1="24.9322" x2="28.0145" y2="37.9569" gradientUnits="userSpaceOnUse">
<stop stop-color="#F6E93D"/>
<stop offset="0.13" stop-color="#F8E330"/>
<stop offset="0.35" stop-color="#F7C730"/>
<stop offset="0.64" stop-color="#F59C2E"/>
<stop offset="0.98" stop-color="#EB5E2C"/>
<stop offset="1" stop-color="#EB5C2C"/>
</linearGradient>
<linearGradient id="paint3_linear" x1="17.3923" y1="10.5824" x2="17.3923" y2="20.7182" gradientUnits="userSpaceOnUse">
<stop stop-color="#F6E93D"/>
<stop offset="0.13" stop-color="#F8E330"/>
<stop offset="0.35" stop-color="#F7C730"/>
<stop offset="0.64" stop-color="#F59C2E"/>
<stop offset="0.98" stop-color="#EB5E2C"/>
<stop offset="1" stop-color="#EB5C2C"/>
</linearGradient>
<linearGradient id="paint4_linear" x1="34.9483" y1="14.0167" x2="34.9483" y2="29.4162" gradientUnits="userSpaceOnUse">
<stop stop-color="#F6E93D"/>
<stop offset="0.13" stop-color="#F8E330"/>
<stop offset="0.35" stop-color="#F7C730"/>
<stop offset="0.64" stop-color="#F59C2E"/>
<stop offset="0.98" stop-color="#EB5E2C"/>
<stop offset="1" stop-color="#EB5C2C"/>
</linearGradient>
<linearGradient id="paint5_linear" x1="26.3919" y1="8" x2="26.3919" y2="23.846" gradientUnits="userSpaceOnUse">
<stop stop-color="#F6E93D"/>
<stop offset="0.13" stop-color="#F8E330"/>
<stop offset="0.35" stop-color="#F7C730"/>
<stop offset="0.64" stop-color="#F59C2E"/>
<stop offset="0.98" stop-color="#EB5E2C"/>
<stop offset="1" stop-color="#EB5C2C"/>
</linearGradient>
<linearGradient id="paint6_linear" x1="29.5376" y1="20.1507" x2="29.5376" y2="23.8504" gradientUnits="userSpaceOnUse">
<stop stop-color="#F6E93D"/>
<stop offset="0.13" stop-color="#F8E330"/>
<stop offset="0.35" stop-color="#F7C730"/>
<stop offset="0.64" stop-color="#F59C2E"/>
<stop offset="0.98" stop-color="#EB5E2C"/>
<stop offset="1" stop-color="#EB5C2C"/>
</linearGradient>
<linearGradient id="paint7_linear" x1="19.1815" y1="22.9279" x2="20.3473" y2="19.6913" gradientUnits="userSpaceOnUse">
<stop stop-color="#F6E93D"/>
<stop offset="0.13" stop-color="#F8E330"/>
<stop offset="0.35" stop-color="#F7C730"/>
<stop offset="0.64" stop-color="#F59C2E"/>
<stop offset="0.98" stop-color="#EB5E2C"/>
<stop offset="1" stop-color="#EB5C2C"/>
</linearGradient>
</defs>
</svg>
