<svg width="48" height="48" viewBox="0 0 48 48" fill="none" xmlns="http://www.w3.org/2000/svg">
<circle cx="24" cy="24" r="24" fill="#345D9D"/>
<path d="M24 14C22.0222 14 20.0888 14.5865 18.4443 15.6853C16.7998 16.7841 15.5181 18.3459 14.7612 20.1732C14.0043 22.0004 13.8063 24.0111 14.1922 25.9509C14.578 27.8907 15.5304 29.6725 16.9289 31.0711C18.3275 32.4696 20.1093 33.422 22.0491 33.8078C23.9889 34.1937 25.9996 33.9957 27.8268 33.2388C29.6541 32.4819 31.2159 31.2002 32.3147 29.5557C33.4135 27.9112 34 25.9778 34 24C34.0038 22.6906 33.7497 21.3933 33.2521 20.1821C32.7546 18.9709 32.0233 17.8695 31.1001 16.941C30.1769 16.0124 29.0799 15.2747 27.8716 14.7701C26.6633 14.2655 25.3675 14.0038 24.0581 14H24ZM24.1695 24.339L23.1283 27.8499H28.6973C28.7342 27.8486 28.771 27.8546 28.8056 27.8675C28.8402 27.8804 28.8718 27.9001 28.8988 27.9252C28.9258 27.9504 28.9476 27.9807 28.9629 28.0143C28.9781 28.0479 28.9866 28.0842 28.9879 28.1211V28.2131L28.5036 29.8838C28.4823 29.9628 28.4347 30.0322 28.3687 30.0806C28.3027 30.129 28.2222 30.1535 28.1404 30.1501H19.6174L21.046 25.2833L19.4479 25.7676L19.8111 24.6538L21.4092 24.1695L23.4189 17.3414C23.441 17.2628 23.4888 17.1939 23.5546 17.1457C23.6204 17.0974 23.7005 17.0725 23.7821 17.0751H25.937C25.9739 17.0738 26.0107 17.0798 26.0453 17.0927C26.0799 17.1056 26.1116 17.1252 26.1385 17.1504C26.1655 17.1756 26.1873 17.2059 26.2026 17.2395C26.2178 17.2731 26.2264 17.3094 26.2276 17.3462V17.4383L24.5327 23.201L26.1308 22.7167L25.7918 23.8789L24.1695 24.339Z" fill="white"/>
</svg>
