<svg width="48" height="48" viewBox="0 0 48 48" fill="none" xmlns="http://www.w3.org/2000/svg">
<circle cx="24" cy="24" r="24" fill="#172852"/>
<path d="M20.6627 14.581C22.6666 13.8314 24.922 13.8297 26.9635 14.4458C29.6211 15.2706 31.8645 17.2762 33.0367 19.7934C33.3601 20.5104 33.6698 21.2582 33.7006 22.0557C32.2067 21.1898 30.5691 20.6285 28.928 20.1168C26.303 19.1705 23.5547 18.5134 21.07 17.2129C20.4916 16.8672 19.7541 16.513 19.5967 15.7925C19.5333 15.1696 20.1922 14.8223 20.6627 14.581Z" fill="#FFD83D"/>
<path d="M28.9283 20.1162C30.5694 20.6279 32.207 21.1892 33.7009 22.055L33.8019 22.1081C33.9405 23.1502 34.0415 24.2129 33.8567 25.2568C33.1054 24.9385 32.4962 24.3789 31.8597 23.8844C30.6344 22.8645 29.3835 21.6974 28.9283 20.1162Z" fill="#FF6F03"/>
<path d="M14.6136 20.639C15.1937 19.0647 16.1451 17.6032 17.4371 16.52C17.7657 19.2221 18.9156 21.8335 20.8151 23.798C23.0928 26.1646 26.3373 27.6175 29.6383 27.5627C30.9491 27.6038 32.2308 27.3009 33.5091 27.0562C32.2514 31.6013 27.2699 34.6182 22.6547 33.8926C19.8688 33.5367 17.2968 31.8871 15.7447 29.558C13.9941 26.9843 13.5526 23.567 14.6136 20.639Z" fill="#FFD83D"/>
</svg>
