<svg xmlns="http://www.w3.org/2000/svg" xmlns:xlink="http://www.w3.org/1999/xlink" viewBox="0 0 47.89 48"><defs><style>.cls-1{fill:url(#linear-gradient);}.cls-2{fill:url(#linear-gradient-2);}.cls-3{fill:#fff;}.cls-4{fill:#fc9965;}.cls-5{fill:#ff2d55;}.cls-6{fill:url(#linear-gradient-3);}.cls-7{fill:#ffbc5b;}.cls-8{fill:#ffc95b;}</style><linearGradient id="linear-gradient" x1="-419.27" y1="267.66" x2="-419.35" y2="267.58" gradientTransform="matrix(400, 0, 0, -400, 167748.97, 107071)" gradientUnits="userSpaceOnUse"><stop offset="0" stop-color="#ff2d55"/><stop offset="1" stop-color="#ffbc5b"/></linearGradient><linearGradient id="linear-gradient-2" x1="-416.49" y1="267.9" x2="-416.49" y2="267.78" gradientTransform="matrix(125, 0, 0, -150, 52085.71, 40201)" gradientUnits="userSpaceOnUse"><stop offset="0" stop-color="#a524b3"/><stop offset="1" stop-color="#ff2d55"/></linearGradient><linearGradient id="linear-gradient-3" x1="-416.05" y1="268.51" x2="-416.05" y2="268.39" gradientTransform="matrix(91.7, 0, 0, -110, 38189.38, 29561)" xlink:href="#linear-gradient-2"/></defs><title>MANA</title><g id="Layer_2" data-name="Layer 2"><g id="Layer_1-2" data-name="Layer 1"><ellipse class="cls-1" cx="23.95" cy="24" rx="23.95" ry="24"/><path class="cls-2" d="M17,15.6v18h15Z"/><path class="cls-3" d="M2,33.6H17v-18Z"/><path class="cls-4" d="M4.79,38.4a24.47,24.47,0,0,0,4.79,4.8H38.31a24.47,24.47,0,0,0,4.79-4.8Z"/><path class="cls-5" d="M9.58,43.2a23.9,23.9,0,0,0,28.73,0Z"/><path class="cls-6" d="M32.12,25.2V38.4h11Z"/><path class="cls-7" d="M32.12,33.6H2a23.87,23.87,0,0,0,2.79,4.8H32.13V33.6Z"/><path class="cls-3" d="M21.16,38.4h11V25.2Z"/><ellipse class="cls-8" cx="32.12" cy="15.6" rx="5.99" ry="6"/><ellipse class="cls-8" cx="16.97" cy="9" rx="2.99" ry="3"/></g></g></svg>