<svg xmlns="http://www.w3.org/2000/svg" viewBox="0 0 48 48"><defs><style>.cls-1{fill:#8247e5;}.cls-2{fill:#fff;}</style></defs><title>Polygon Matic</title><g id="Layer_2" data-name="Layer 2"><g id="Layer_1-2" data-name="Layer 1"><circle class="cls-1" cx="24" cy="24" r="24"/><path class="cls-2" d="M33.26,18A2.38,2.38,0,0,0,31,18l-5.26,3.1-3.57,2L17,26.22a2.44,2.44,0,0,1-2.26,0l-4-2.45a2.28,2.28,0,0,1-1.13-2V17.1a2.34,2.34,0,0,1,1.13-2l4-2.35a2.44,2.44,0,0,1,2.26,0l4,2.45a2.28,2.28,0,0,1,1.13,2v3.1l3.57-2.06V15a2.32,2.32,0,0,0-1.13-2L17.09,8.64a2.36,2.36,0,0,0-2.25,0L7.13,13.15A2.08,2.08,0,0,0,6,15v8.84a2.32,2.32,0,0,0,1.13,2l7.61,4.42a2.44,2.44,0,0,0,2.26,0l5.17-3,3.57-2.07,5.17-3a2.42,2.42,0,0,1,2.25,0l4.05,2.35a2.31,2.31,0,0,1,1.12,2v4.7a2.31,2.31,0,0,1-1.12,2l-4,2.35a2.38,2.38,0,0,1-2.26,0l-4-2.35a2.28,2.28,0,0,1-1.13-2v-3l-3.57,2.07v3.1a2.32,2.32,0,0,0,1.13,2L31,39.75a2.38,2.38,0,0,0,2.26,0l7.61-4.42a2.28,2.28,0,0,0,1.13-2V24.43a2.32,2.32,0,0,0-1.13-2Z"/></g></g></svg>