<svg xmlns="http://www.w3.org/2000/svg" viewBox="0 0 48 48"><defs><style>.cls-1{fill:#f5ac37;}.cls-2{fill:#fefefd;}</style></defs><title>Multi Collateral</title><g id="Layer_2" data-name="Layer 2"><g id="Layer_1-2" data-name="Layer 1"><g id="Layer_1-3" data-name="Layer_1"><path class="cls-1" d="M24,0A24,24,0,1,1,0,24,24,24,0,0,1,24,0Z"/><path class="cls-2" d="M24.88,25.69H34c.2,0,.29,0,.3-.25a16.25,16.25,0,0,0,0-2.79c0-.18-.09-.25-.28-.25H15.87c-.22,0-.29.07-.29.28v2.67c0,.34,0,.34.36.34Zm8.41-6.42a.34.34,0,0,0,0-.2,6.36,6.36,0,0,0-.55-.95,7.06,7.06,0,0,0-1.11-1.39,3.42,3.42,0,0,0-.69-.68,10.75,10.75,0,0,0-4.5-2.28,10.89,10.89,0,0,0-2.55-.27h-8c-.23,0-.26.09-.26.29v5.32c0,.22,0,.28.29.28H33.18s.15,0,.18-.12h-.07Zm0,9.54a5,5,0,0,0-.77,0H15.88c-.22,0-.3,0-.3.3v5.21c0,.24,0,.3.3.3h7.68a4.05,4.05,0,0,0,1.1-.07,11.83,11.83,0,0,0,3.26-.72A7.21,7.21,0,0,0,29,33.32h.1A9.76,9.76,0,0,0,33.3,29.1s.1-.22,0-.28ZM12.57,37.32V29c0-.2,0-.23-.24-.23H9.08c-.19,0-.26,0-.26-.24V25.71H12.3c.19,0,.27,0,.27-.25V22.64c0-.18,0-.23-.24-.23H9.08c-.19,0-.26,0-.26-.24V19.53c0-.16,0-.21.24-.21h3.23c.22,0,.28,0,.28-.28V11c0-.24,0-.3.3-.3H24.12a16.43,16.43,0,0,1,2.43.27,14.83,14.83,0,0,1,4.69,1.74,13.11,13.11,0,0,1,2.64,2,14.69,14.69,0,0,1,1.61,2A12.36,12.36,0,0,1,36.66,19a.4.4,0,0,0,.45.32h2.68c.35,0,.35,0,.36.33V22.1c0,.24-.09.3-.33.3H37.75c-.21,0-.27,0-.25.27a15.67,15.67,0,0,1,0,2.74c0,.26,0,.29.28.29h2.37c.11.13,0,.27,0,.4a2.35,2.35,0,0,1,0,.53v1.81c0,.26-.07.33-.3.33H37a.39.39,0,0,0-.44.29,11.91,11.91,0,0,1-3.15,4.59,18,18,0,0,1-1.6,1.29c-.6.34-1.19.7-1.8,1a16.37,16.37,0,0,1-3.54,1.12,18.83,18.83,0,0,1-3.51.29H12.57v0Z"/></g></g></g></svg>