<svg width="48" height="48" viewBox="0 0 48 48" fill="none" xmlns="http://www.w3.org/2000/svg">
<path d="M24 0C30.3652 0 36.4697 2.52858 40.9706 7.02945C45.4714 11.5303 48 17.6348 48 24C48 30.3652 45.4714 36.4697 40.9706 40.9706C36.4697 45.4714 30.3652 48 24 48C17.6348 48 11.5303 45.4714 7.02945 40.9706C2.52858 36.4697 0 30.3652 0 24C0 17.6348 2.52858 11.5303 7.02945 7.02945C11.5303 2.52858 17.6348 0 24 0Z" fill="url(#paint0_linear)"/>
<path d="M34.2052 15.8888V14.8113C34.2052 14.3309 34.0143 13.8702 33.6745 13.5305C33.3347 13.1908 32.8739 13 32.3933 13C31.9127 13 31.4517 13.1908 31.1117 13.5304C30.7717 13.8701 30.5805 14.3308 30.5802 14.8113V15.8708C29.7412 15.9301 28.949 16.2789 28.3388 16.8576C27.7286 17.4362 27.3384 18.2087 27.2349 19.0431L25.4975 33.0394C24.4517 33.2741 23.4444 33.2959 22.5 33.0394L20.7625 19.0431C20.6587 18.2086 20.2683 17.4361 19.6579 16.8574C19.0475 16.2788 18.255 15.9301 17.416 15.8708V14.8113C17.416 14.3309 17.2251 13.8702 16.8853 13.5305C16.5455 13.1908 16.0846 13 15.6041 13C15.1234 13 14.6624 13.1908 14.3224 13.5304C13.9825 13.8701 13.7913 14.3308 13.7909 14.8113V15.8888C13.0191 15.9899 12.3105 16.3682 11.797 16.953C11.2835 17.5378 11.0002 18.2893 11 19.0675V36H14.208V16.3621C14.8226 15.8811 16.5177 15.8362 17.2017 16.3108L18.4759 29.7311C18.5711 30.7361 19.0348 31.6703 19.7777 32.354C20.5206 33.0376 21.4902 33.4225 22.5 33.4345V34.503C22.5003 34.9002 22.6584 35.2809 22.9394 35.5616C23.2204 35.8423 23.6014 36 23.9987 36C24.3962 36 24.7774 35.8421 25.0585 35.5612C25.3396 35.2802 25.4975 34.8991 25.4975 34.5017V33.4345C26.5077 33.4234 27.4781 33.0389 28.2216 32.3551C28.9651 31.6713 29.4291 30.7366 29.5241 29.7311L30.7983 16.3108C31.4784 15.8362 33.1774 15.8811 33.792 16.3621V36H37V19.0675C36.9996 18.2888 36.7158 17.5368 36.2016 16.9519C35.6873 16.367 34.9777 15.9891 34.2052 15.8888V15.8888Z" fill="#FEFEFE"/>
<defs>
<linearGradient id="paint0_linear" x1="24" y1="0" x2="41.5" y2="43" gradientUnits="userSpaceOnUse">
<stop stop-color="#D5612E"/>
<stop offset="1" stop-color="#988AF0"/>
</linearGradient>
</defs>
</svg>
