<svg xmlns="http://www.w3.org/2000/svg" xmlns:xlink="http://www.w3.org/1999/xlink" viewBox="0 0 48 48"><defs><style>.cls-1{fill:url(#linear-gradient);}.cls-2{fill:#fff;}</style><linearGradient id="linear-gradient" x1="297.5" y1="-205" x2="297.5" y2="-157" gradientTransform="translate(-273.5 205)" gradientUnits="userSpaceOnUse"><stop offset="0" stop-color="#4fa89b"/><stop offset="1" stop-color="#6acebb"/></linearGradient></defs><title>MKR</title><g id="Layer_2" data-name="Layer 2"><g id="Layer_1-2" data-name="Layer 1"><g id="Layer_2-2" data-name="Layer 2"><g id="Layer_1-2-2" data-name="Layer 1-2"><circle class="cls-1" cx="24" cy="24" r="24"/><path class="cls-2" d="M12.16,31.2V19.9l8.56,6.45V31.2H23V25.9a1.28,1.28,0,0,0-.51-1l-10.4-7.82a1.28,1.28,0,0,0-2.05,1V31.2Zm23.68,0V19.9l-8.56,6.45V31.2H25.12V25.9a1.28,1.28,0,0,1,.51-1L36,17.06a1.29,1.29,0,0,1,1.8.27,1.25,1.25,0,0,1,.25.75V31.2Z"/></g></g></g></g></svg>