<svg width="48" height="48" viewBox="0 0 48 48" fill="none" xmlns="http://www.w3.org/2000/svg">
<path d="M24 0C30.3652 0 36.4697 2.52858 40.9706 7.02945C45.4714 11.5303 48 17.6348 48 24C48 30.3652 45.4714 36.4697 40.9706 40.9706C36.4697 45.4714 30.3652 48 24 48C17.6348 48 11.5303 45.4714 7.02945 40.9706C2.52858 36.4697 0 30.3652 0 24C0 17.6348 2.52858 11.5303 7.02945 7.02945C11.5303 2.52858 17.6348 0 24 0Z" fill="#4A90E2"/>
<path d="M7.73469 32C9.24501 32 10.4694 30.7977 10.4694 29.3146C10.4694 27.8316 9.24501 26.6293 7.73469 26.6293C6.22436 26.6293 5 27.8316 5 29.3146C5 30.7977 6.22436 32 7.73469 32Z" fill="white"/>
<path d="M40.3224 16C38.842 16 37.5877 17.1755 37.5877 18.6854C37.5877 20.8121 37.2451 21.3707 34.853 21.3707H34.6246C33.2584 21.4829 32.1755 22.6023 32.1755 24V24.0561C32.1755 26.1267 31.7757 26.6293 29.4408 26.6293C29.3266 26.6293 29.2123 26.6293 29.1552 26.6854C27.789 26.8536 26.7061 27.973 26.7061 29.3146C26.7061 30.7684 27.9032 32 29.4408 32C30.8641 32 32.0613 30.8806 32.1184 29.539V29.3146C32.1184 27.4122 32.7444 26.6854 34.7959 26.6293H34.853C36.2764 26.6293 37.4735 25.5098 37.5306 24.1122V23.9439C37.5306 21.9854 38.1566 21.2586 40.2653 21.2586C41.7458 21.2586 43 20.083 43 18.5732C43 17.1755 41.8029 16 40.3224 16ZM24.257 21.3707H24.0285C21.6365 21.3707 21.2938 20.8121 21.2938 18.6854C21.2938 17.2316 20.0967 16 18.5592 16C17.0787 16 15.8245 17.1755 15.8245 18.6854C15.8245 20.8121 15.4818 21.3146 13.0898 21.3146H12.8613C11.4951 21.4268 10.4122 22.5462 10.4122 23.9439C10.4122 25.3977 11.6093 26.6293 13.1469 26.6293C14.5702 26.6293 15.7674 25.5098 15.8245 24.1682V24C15.8245 22.0415 16.4505 21.3146 18.5592 21.3146C20.6678 21.3146 21.2938 22.0415 21.2938 23.9439C21.2938 25.3977 22.491 26.6293 24.0285 26.6293C25.5661 26.6293 26.7632 25.4538 26.7632 23.9439C26.7061 22.6023 25.6232 21.4829 24.257 21.3707Z" fill="white"/>
</svg>
