<svg xmlns="http://www.w3.org/2000/svg" viewBox="0 0 48 48"><defs><style>.cls-1{fill:#fff;}</style></defs><title>Near</title><g id="Layer_2" data-name="Layer 2"><g id="Layer_1-2" data-name="Layer 1"><circle cx="24" cy="24" r="24"/><path class="cls-1" d="M31,12.78l-5.22,7.75a.55.55,0,0,0,.83.72l5.14-4.47a.2.2,0,0,1,.33.16v14a.21.21,0,0,1-.36.14L16.19,12.44a2.56,2.56,0,0,0-2-.94h-.51A2.67,2.67,0,0,0,11,14.17V33.76a2.69,2.69,0,0,0,5,1.46l5.26-7.75a.56.56,0,0,0-.84-.72l-5.18,4.44a.2.2,0,0,1-.33-.16v-14a.21.21,0,0,1,.36-.14L30.92,35.56a2.63,2.63,0,0,0,2,.94h.37A2.66,2.66,0,0,0,36,33.83V14.26a2.79,2.79,0,0,0-2.51-2.76A2.72,2.72,0,0,0,31,12.78Z"/></g></g></svg>