<svg xmlns="http://www.w3.org/2000/svg" viewBox="0 0 48 48"><defs><style>.cls-1{fill:#000d2b;}.cls-2{fill:#3ca9e5;}.cls-3{fill:#2853c3;}.cls-4{fill:#1a4199;}.cls-5{fill:#60beff;}</style></defs><title>Nexo</title><g id="Layer_2" data-name="Layer 2"><g id="Layer_1-2" data-name="Layer 1"><circle class="cls-1" cx="24" cy="24" r="24"/><path class="cls-2" d="M18.23,11.84,30,20V28.3L12,15.83l5.77-4A.43.43,0,0,1,18.23,11.84Z"/><polygon class="cls-3" points="30 11.68 24 15.83 30 19.99 30 11.68"/><path class="cls-4" d="M30,11.68l5.77,4a.59.59,0,0,1,.23.48v16.3L30,28.3Z"/><path class="cls-3" d="M36,32.46l-5.77,4a.41.41,0,0,1-.49,0L18,28.3V20Z"/><path class="cls-5" d="M12,15.83v16.3a.61.61,0,0,0,.23.5l5.77,4V20Z"/><polygon class="cls-2" points="18 36.62 24 32.46 18 28.3 18 36.62"/></g></g></svg>