<svg width="48" height="48" viewBox="0 0 48 48" fill="none" xmlns="http://www.w3.org/2000/svg">
<circle cx="24" cy="24" r="24" fill="#B4D9FF"/>
<path d="M23.9992 22.4906C28.0006 22.4906 31.2445 19.2467 31.2445 15.2453C31.2445 11.2438 28.0006 8 23.9992 8C19.9977 8 16.7539 11.2438 16.7539 15.2453C16.7539 19.2467 19.9977 22.4906 23.9992 22.4906Z" fill="#88BDF3"/>
<path d="M23.9992 39.9984C28.0006 39.9984 31.2445 36.7546 31.2445 32.7531C31.2445 28.7516 28.0006 25.5078 23.9992 25.5078C19.9977 25.5078 16.7539 28.7516 16.7539 32.7531C16.7539 36.7546 19.9977 39.9984 23.9992 39.9984Z" fill="#3075EE"/>
<path d="M32.755 31.2445C36.7565 31.2445 40.0003 28.0006 40.0003 23.9992C40.0003 19.9977 36.7565 16.7539 32.755 16.7539C28.7536 16.7539 25.5098 19.9977 25.5098 23.9992C25.5098 28.0006 28.7536 31.2445 32.755 31.2445Z" fill="#5795F1"/>
<path d="M15.2453 31.2445C19.2467 31.2445 22.4906 28.0006 22.4906 23.9992C22.4906 19.9977 19.2467 16.7539 15.2453 16.7539C11.2438 16.7539 8 19.9977 8 23.9992C8 28.0006 11.2438 31.2445 15.2453 31.2445Z" fill="#205FEC"/>
<path d="M22.2951 22.2931C21.0037 21.9791 19.8235 21.316 18.8838 20.3762C17.944 19.4364 17.2808 18.2563 16.9668 16.9648C18.2559 17.2836 19.4335 17.9484 20.3725 18.8874C21.3115 19.8264 21.9763 21.004 22.2951 22.2931V22.2931Z" fill="#134BEF"/>
<path d="M16.9512 31.0471C17.2652 29.7556 17.9284 28.5755 18.8681 27.6357C19.8079 26.6959 20.9881 26.0328 22.2795 25.7188C21.9607 27.0079 21.2959 28.1855 20.3569 29.1245C19.4179 30.0635 18.2403 30.7283 16.9512 31.0471V31.0471Z" fill="#0932E8"/>
<path d="M25.7051 25.707C26.9965 26.021 28.1766 26.6842 29.1164 27.624C30.0562 28.5638 30.7194 29.7439 31.0334 31.0353C29.7443 30.7165 28.5667 30.0518 27.6276 29.1128C26.6886 28.1738 26.0239 26.9962 25.7051 25.707V25.707Z" fill="#164BEA"/>
<path d="M31.049 16.9492C30.735 18.2406 30.0718 19.4208 29.132 20.3606C28.1923 21.3003 27.0121 21.9635 25.7207 22.2775C26.0395 20.9884 26.7043 19.8108 27.6433 18.8718C28.5823 17.9328 29.7599 17.268 31.049 16.9492Z" fill="#3170F1"/>
</svg>
