<svg xmlns="http://www.w3.org/2000/svg" viewBox="0 0 48 48"><defs><style>.cls-1{fill:#fff;}</style></defs><title>Omg</title><g id="Layer_2" data-name="Layer 2"><g id="Layer_1-2" data-name="Layer 1"><circle cx="24" cy="24" r="24"/><path class="cls-1" d="M21.64,5.12A19,19,0,0,0,8.31,34.75a24,24,0,0,0,5,5,20.43,20.43,0,0,0,7.07,2.95,23.58,23.58,0,0,0,7.31,0A19.08,19.08,0,0,0,42.51,28.31a19,19,0,0,0-4.75-17.43A19.56,19.56,0,0,0,27.63,5.34,24.32,24.32,0,0,0,21.64,5.12Zm4.27,1.51A17.71,17.71,0,0,1,37.5,12.91,17.07,17.07,0,0,1,41,20a13.4,13.4,0,0,1,.41,3.81,15.52,15.52,0,0,1-1.14,6.47A17.46,17.46,0,1,1,7.84,17.4,17.78,17.78,0,0,1,15.17,9,17.24,17.24,0,0,1,25.91,6.63Z"/><path class="cls-1" d="M11.71,19.52A4.87,4.87,0,0,0,8.92,25a4.14,4.14,0,0,0,1.2,2.43,3.51,3.51,0,0,0,3.22,1.25,3.46,3.46,0,0,0,2.25-.45,4.39,4.39,0,0,0,2.27-3.67,4.76,4.76,0,0,0-3.14-5.1A6.51,6.51,0,0,0,11.71,19.52ZM15,21.42a3.5,3.5,0,0,1,1,3.49,2.75,2.75,0,0,1-5.13.76c-.7-1.37-.34-3.51.73-4.26A3.18,3.18,0,0,1,15,21.42Z"/><path class="cls-1" d="M32.32,19.58c-2.86,1.14-3.67,5.36-1.51,7.92C32,28.9,34.76,29.16,36,28l.34-.31,0,.42c.05.38.09.41.81.41h.76l.05-2.4,0-2.4H33.75v1.53h1.3c1.4,0,1.44,0,1.05.85a2.57,2.57,0,0,1-2,1.13c-1.75,0-2.81-1.24-2.81-3.23,0-2.21,1.44-3.47,3.37-3,.75.18,1.51.84,1.51,1.31,0,.15.23.22.91.22H38l-.21-.69c-.47-1.6-1.65-2.41-3.58-2.47A4.1,4.1,0,0,0,32.32,19.58Z"/><path class="cls-1" d="M19.13,24v4.57h1.52l0-3.08.05-3.09,1.12,3.09L23,28.58l.76,0,.76-.05,1.12-3,1.11-3.05,0,3.05.05,3,.81.05.79,0,0-4.54-.05-4.54H26.23L25,22.89a23.93,23.93,0,0,1-1.31,3.27c-.06-.06-.61-1.51-1.22-3.23s-1.19-3.21-1.27-3.32a2,2,0,0,0-1.11-.18h-1Z"/></g></g></svg>