<svg xmlns="http://www.w3.org/2000/svg" xmlns:xlink="http://www.w3.org/1999/xlink" viewBox="0 0 48 48"><defs><style>.cls-1{fill:url(#linear-gradient);}.cls-2{fill:#fff;}</style><linearGradient id="linear-gradient" y1="24" x2="48" y2="24" gradientUnits="userSpaceOnUse"><stop offset="0" stop-color="#00aee9"/><stop offset="1" stop-color="#69fabd"/></linearGradient></defs><title>harmony</title><g id="Layer_2" data-name="Layer 2"><g id="Layer_1-2" data-name="Layer 1"><circle class="cls-1" cx="24" cy="24" r="24"/><path id="Shape" class="cls-2" d="M32.5,9.4A6.49,6.49,0,0,0,26,15.88v7.19c-.65,0-1.31.07-2,.07s-1.35,0-2,.07V15.88a6.5,6.5,0,0,0-13,0V33.05a6.5,6.5,0,0,0,13,0v-7.2c.65,0,1.31-.07,2-.07s1.35,0,2-.06v7.33a6.5,6.5,0,0,0,13,0V15.88A6.5,6.5,0,0,0,32.5,9.4Zm-17,2.67a3.83,3.83,0,0,1,3.83,3.83v7.61a21.62,21.62,0,0,0-5.52,1.56,9.27,9.27,0,0,0-2.14,1.28V15.9A3.84,3.84,0,0,1,15.5,12.07ZM19.33,33a3.83,3.83,0,1,1-7.66,0h0V31.29c0-1.52,1.2-3,3.22-3.85a18.56,18.56,0,0,1,4.44-1.3V33ZM32.5,36.85A3.83,3.83,0,0,1,28.67,33v-7.6a22.05,22.05,0,0,0,5.52-1.57,9.27,9.27,0,0,0,2.14-1.28V33a3.82,3.82,0,0,1-3.83,3.83Zm.78-15.38a18.77,18.77,0,0,1-4.45,1.3V15.91a3.84,3.84,0,0,1,7.67,0h0v1.72C36.5,19.14,35.3,20.58,33.28,21.47Z"/></g></g></svg>