<svg xmlns="http://www.w3.org/2000/svg" viewBox="0 0 48 48"><defs><style>.cls-1{fill:#070a0e;}.cls-2{fill:#0293d6;}.cls-3{fill:#ebe638;}.cls-4{fill:#bad147;}.cls-5{fill:#78b650;}.cls-6{fill:#2f8260;}.cls-7{fill:#085229;}</style></defs><title>PAX</title><g id="Layer_2" data-name="Layer 2"><g id="Layer_1-2" data-name="Layer 1"><circle class="cls-1" cx="24" cy="24" r="24"/><path class="cls-2" d="M17.22,33.38a9.18,9.18,0,0,0,6.33,3.09,5.75,5.75,0,0,0,3.81-1.73A66.66,66.66,0,0,1,33.61,30l1.23-.51A6.07,6.07,0,0,0,37,27.84,5,5,0,0,0,38,25a8,8,0,0,0-1.29-3.82A23.89,23.89,0,0,1,17.22,33.38Z"/><path class="cls-3" d="M20,13a5.75,5.75,0,0,1,4.17-1.8,3.76,3.76,0,0,1,2.74.93,12.43,12.43,0,0,0,7,2.3,4.12,4.12,0,0,1,2.81,1.37A3.76,3.76,0,0,1,37.42,18a10,10,0,0,1-.71,3.23Z"/><path class="cls-4" d="M17.22,33.38a9.53,9.53,0,0,1-2.52-.72,5.71,5.71,0,0,1-3-2.3,4.53,4.53,0,0,1-.57-2.3,10,10,0,0,1,1.08-4.39,19.91,19.91,0,0,0,1.36-5.25L13.91,17a6.62,6.62,0,0,1,.87-2.15l.79-.87A6.81,6.81,0,0,1,20,13,22.46,22.46,0,0,0,17.22,33.38Z"/><path class="cls-5" d="M20,13A29.08,29.08,0,0,1,26.28,14l2,.87a12.77,12.77,0,0,0-9.63,3.52C13.84,23.31,15.42,30,15.49,30.36a7.42,7.42,0,0,1-1.58-5A17.24,17.24,0,0,1,20,13Z"/><path class="cls-6" d="M29.59,30.72a14.38,14.38,0,0,0-1.3-15.82,9.85,9.85,0,0,1,5.47,2.87,13.85,13.85,0,0,1,3,3.45A21.38,21.38,0,0,1,29.59,30.72Z"/><path class="cls-7" d="M31.89,18.06a8.23,8.23,0,0,0-3.52-3.16,11.79,11.79,0,0,0-10.07,3,11.71,11.71,0,0,0-3.52,8,12.28,12.28,0,0,0,2.58,7.48,17.22,17.22,0,0,0,6.48,0,12,12,0,0,0,5.75-2.52A12.17,12.17,0,0,0,33.25,23,8.62,8.62,0,0,0,31.89,18.06ZM29.3,28.49a7.11,7.11,0,0,1-5.25,2.3,7.22,7.22,0,0,1-5.32-2.45,7.06,7.06,0,0,1-1.65-4.67,8,8,0,0,1,3.45-5.9,6.41,6.41,0,0,1,3.52-1.22,5.73,5.73,0,0,1,3.45.72c3.31,1.8,3.45,6.11,3.45,6.4A7,7,0,0,1,29.3,28.49Z"/></g></g></svg>