<svg xmlns="http://www.w3.org/2000/svg" viewBox="0 0 48 48"><defs><style>.cls-1{fill:#262261;}.cls-2{fill:#9290b0;}.cls-3{fill:#a2eee3;}.cls-4{fill:#46ddc8;}.cls-5{fill:#fff;}</style></defs><title>QNT</title><g id="Layer_2" data-name="Layer 2"><g id="Layer_1-2" data-name="Layer 1"><circle class="cls-1" cx="24" cy="24" r="24"/><polygon class="cls-2" points="29.93 20.88 29.93 20.88 29.93 27.62 35.78 24.26 35.78 24.26 35.78 17.5 29.93 20.88"/><polygon class="cls-3" points="35.78 31 35.78 31 29.93 27.62 29.93 34.38 29.93 34.38 35.78 37.75 35.78 31"/><path class="cls-4" d="M24.09,17.5h0V10.75L12.39,17.5l5.85,3.38h0l5.85-3.38Z"/><polygon class="cls-5" points="24.09 31 18.23 27.62 18.23 27.62 12.39 31 18.23 34.38 18.23 34.38 18.23 34.38 18.23 34.38 24.09 37.75 24.09 31 24.09 31"/><polygon class="cls-2" points="12.39 17.5 12.39 24.26 12.39 24.26 12.39 31 18.23 27.62 18.23 27.62 18.23 20.88 12.39 17.5"/><polygon class="cls-4" points="29.93 27.62 24.09 31 24.09 31 24.09 37.75 29.93 34.38 29.93 34.38 29.93 27.62"/><polygon class="cls-5" points="29.93 20.88 35.78 17.5 29.93 14.13 29.93 14.13 29.93 14.13 29.93 14.13 29.93 14.13 29.93 14.13 24.09 10.75 24.09 17.5 24.09 17.5 29.93 20.88 29.93 20.88 29.93 20.88 29.93 20.88"/></g></g></svg>