<svg xmlns="http://www.w3.org/2000/svg" viewBox="0 0 48 48"><defs><style>.cls-1{fill:#2e9ad0;}.cls-2{fill:#fff;}</style></defs><title>QTUM</title><g id="Layer_2" data-name="Layer 2"><g id="Layer_1-2" data-name="Layer 1"><circle class="cls-1" cx="24" cy="24" r="24"/><g id="Lines"><path class="cls-2" d="M27.15,36.58H19L12.4,31.75,9.89,24l2.51-7.79L19,11.33h8.17l6.59,4.83L36.24,24l-2.5,7.8-.09.09-6.5,4.74Zm-8-.57H27l6.31-4.63L35.69,24l-2.41-7.42L27,11.89h-7.8l-6.3,4.64L10.46,24l2.41,7.43L19.17,36Z"/><path class="cls-2" d="M37.18,35.27l-3.81-3.43-3.71-1.39-6.59.84-6.68-.84-3.71,1.39-.18-.55,3.8-1.49h.09l6.68.93,6.68-.93.1.09,3.89,1.49,3.8,3.52Z"/><path class="cls-2" d="M27,36.85l-3.9-5.38L19,36.85l-3-6.59.56-.28,2.59,5.76,3.9-5.29,3.81,5.29L29.47,30l3.53-7,.84,8.63h-.56L32.63,25,30,30.26Z"/><path class="cls-2" d="M10.27,23.67H36.06v.56H10.27Z"/><path class="cls-2" d="M33,25l-3.25-6.4L27,24.6l-3.9-7-4,7-2.78-6L13.05,25l-.74-8.53.56-.09L13.42,23l2.88-5.66,2.78,6,4-6.87,3.81,6.87,2.87-6,2.88,5.56.46-6.58h.56Z"/><path class="cls-2" d="M29.47,18.11l-2.59-5.85-3.81,5.38-3.9-5.38-2.59,5.85-.47-.28L19,11.15l4.08,5.47L27,11.15,30,17.83Zm3.81,13.45L32.63,25l-2.88,5.76L26.88,24.6l-3.81,7-4-7L16.3,30.73,13.42,25l-.55,6.59h-.56l.74-8.63,3.25,6.5,2.78-6,4,7,3.9-7,2.78,6.12L33,22.93l.84,8.63Z"/><path class="cls-2" d="M29.75,18.3,23,17.37l-6.68.93-3.8-1.68.18-.55,3.71,1.57L23,16.81l6.77.83,3.62-1.57.28.55Z"/></g><g id="Circles"><circle class="cls-2" cx="19.08" cy="36.29" r="1.11"/><circle class="cls-2" cx="26.88" cy="36.29" r="1.11"/><circle class="cls-2" cx="19.08" cy="11.71" r="1.11"/><circle class="cls-2" cx="26.88" cy="11.71" r="1.11"/><circle class="cls-2" cx="33.37" cy="16.35" r="1.11"/><circle class="cls-2" cx="12.59" cy="16.35" r="1.11"/><circle class="cls-2" cx="12.59" cy="31.66" r="1.11"/><circle class="cls-2" cx="10.27" cy="23.95" r="1.11"/><circle class="cls-2" cx="35.97" cy="23.95" r="1.11"/><circle class="cls-2" cx="32.82" cy="23.95" r="1.11"/><circle class="cls-2" cx="13.24" cy="23.95" r="1.11"/><circle class="cls-2" cx="19.08" cy="23.95" r="1.11"/><circle class="cls-2" cx="26.88" cy="23.95" r="1.11"/><circle class="cls-2" cx="23.07" cy="17.09" r="1.11"/><circle class="cls-2" cx="16.3" cy="18.02" r="1.11"/><circle class="cls-2" cx="29.75" cy="18.02" r="1.11"/><circle class="cls-2" cx="23.07" cy="31" r="1.11"/><circle class="cls-2" cx="16.3" cy="30.08" r="1.11"/><circle class="cls-2" cx="29.75" cy="30.08" r="1.11"/><circle class="cls-2" cx="37.36" cy="35.09" r="1.48"/></g></g></g></svg>