<svg width="48" height="48" viewBox="0 0 48 48" fill="none" xmlns="http://www.w3.org/2000/svg">
<circle cx="24" cy="24" r="24" fill="#1A4589"/>
<path d="M21.888 34.4536L13 40.8349L18.6424 14.87L21.888 34.4536ZM22.0678 34.3936L27.4804 34.4635L18.8521 14.9699L22.0678 34.3936ZM27.9898 33.9642L32.1342 18.6049L30.5663 16.6875L27.9898 33.9642ZM25.9925 9.88672L19.1717 14.4805L29.1382 11.2549L25.9925 9.88672ZM25.1336 9.88672L20.8993 10.0265L20.2802 11.7941L25.1336 9.88672Z" fill="white"/>
<path d="M30.2668 16.1002L19.3516 14.6022L29.1883 11.5064L30.2668 16.1002ZM27.6803 10.328L28.2795 8.70018L25.1338 7.33203L27.6803 10.328ZM28.5891 8.5404L29.2981 11.0969L33.4925 9.98844L28.5891 8.5404Z" fill="white"/>
<path d="M27.7208 34.3631L18.9727 14.7895L30.3773 16.3873L27.7208 34.3631ZM25.6636 9.8861L20.2709 11.9933L18.9727 14.39L25.6636 9.8861ZM22.3181 8.28826L20.97 9.77625L25.4439 9.6664L22.3181 8.28826ZM24.675 7.12982L22.5378 8.11849L27.4113 10.2656L24.675 7.12982ZM27.1117 7H24.8148L28.37 8.37814L27.1117 7ZM28.4399 8.82753L27.8906 10.4653L28.9891 10.9946L28.4399 8.82753Z" fill="white"/>
</svg>
