<svg xmlns="http://www.w3.org/2000/svg" viewBox="0 0 48 48"><defs><style>.cls-1{fill:#20ee82;}.cls-2{fill:#fff;}</style></defs><title>SiaCoin</title><g id="Layer_2" data-name="Layer 2"><g id="Layer_1-2" data-name="Layer 1"><circle class="cls-1" cx="24" cy="24" r="24"/><path class="cls-2" d="M27.9,24.45v3.9H24a3.9,3.9,0,1,1,3.9-3.9M24.05,18a6.5,6.5,0,0,0-.39,13H30.5V24.53A6.55,6.55,0,0,0,24.05,18"/><path class="cls-2" d="M33.19,15.26a13,13,0,0,0-16.36-1.65,2.85,2.85,0,0,1,.38.53,12.35,12.35,0,1,1-3.52,3.52,2.85,2.85,0,0,1-.53-.38,13,13,0,1,0,20-2"/><path class="cls-2" d="M14,14.44a1.3,1.3,0,1,1,0,1.84h0a1.29,1.29,0,0,1,0-1.83"/></g></g></svg>