<svg width="48" height="48" viewBox="0 0 48 48" fill="none" xmlns="http://www.w3.org/2000/svg">
<path d="M12.861 4.22181C14.1103 5.4569 15.2548 6.79553 16.2722 8.22291L16.5939 8.11936C18.4491 7.52031 20.3716 7.15052 22.3091 7.02479C22.8926 6.98042 25.0694 6.98042 25.7801 7.02479C27.927 7.16531 29.5728 7.48333 31.4429 8.12676C31.5177 8.15634 31.5851 8.17853 31.6524 8.20072C32.7072 6.78073 33.8816 5.4495 35.1758 4.2292C28.9669 1.08601 21.7032 0.708828 15.2025 3.1864C14.5068 3.44525 13.826 3.74848 13.1603 4.07389L12.861 4.22181Z" fill="#F00500"/>
<path d="M1.28116 32.2691C2.22372 34.9242 3.63756 37.387 5.47031 39.5318C6.46524 40.6855 7.5649 41.7431 8.74684 42.7045C11.5147 44.9085 14.7463 46.4838 18.1949 47.3121C22.01 48.2218 25.9897 48.2218 29.8048 47.3121C33.2609 46.4838 36.485 44.9085 39.2529 42.7045C40.4348 41.7431 41.5345 40.6855 42.5294 39.5318C47.8032 33.3711 49.4041 24.9104 46.7186 17.2853C46.2099 15.8728 45.574 14.5119 44.811 13.2177C44.4594 12.626 44.0255 11.9604 43.8161 11.6868C43.0979 14.7412 42.2152 17.4259 41.8861 18.3947C41.9085 18.4465 41.9384 18.5056 41.9683 18.5574C43.7113 22.0482 44.6539 25.4133 44.8783 28.9928C44.8783 29.0372 44.8858 29.089 44.8858 29.1333C44.9456 30.2057 44.9157 30.716 44.7362 31.389C44.1751 33.4968 42.4471 35.8191 39.7391 38.097C35.3031 41.8244 29.2887 44.5165 24.733 44.8271C19.9828 45.1451 12.9734 42.4013 8.30548 38.3928C7.57238 37.7494 6.88416 37.069 6.24082 36.3442C5.77702 35.8117 5.0888 34.8946 5.14116 34.8946C5.15613 34.8946 5.14116 34.8798 5.11124 34.865C5.0888 34.8502 5.06636 34.8281 5.08132 34.8133C5.08881 34.8059 5.07384 34.7837 5.0514 34.7763C5.02896 34.7689 5.014 34.7541 5.02148 34.7393C5.02896 34.7245 5.02147 34.7097 4.99155 34.7023C4.96911 34.6949 4.96163 34.6728 4.96912 34.658C4.9766 34.6432 4.96911 34.6284 4.95415 34.6284C4.93919 34.6284 4.92422 34.6062 4.92422 34.5914C4.92422 34.5766 4.90927 34.5544 4.89431 34.5544C4.87935 34.5544 4.86438 34.5396 4.86438 34.5248C4.84194 34.4657 4.80454 34.4065 4.76713 34.3547C4.65492 34.1846 4.20609 33.3933 4.14625 33.2602C3.71985 32.3061 3.45055 31.4556 3.32338 30.6051C3.26353 30.1983 3.22612 29.4514 3.25605 29.2739C3.26353 29.2443 3.26352 29.1925 3.27101 29.1112C3.28597 28.9632 3.29345 28.7414 3.30841 28.5195C3.32337 28.1867 3.35329 27.7207 3.37574 27.4915C3.6974 24.1338 4.56516 21.39 6.2109 18.4835C6.27823 18.3725 6.33807 18.2616 6.37547 18.1728C6.39043 18.1506 6.39791 18.1285 6.40539 18.1137C6.17349 17.4259 5.22345 14.5489 4.46791 11.2578L4.45295 11.2726L4.34074 11.4205C4.14624 11.6794 3.63008 12.4485 3.39818 12.8183C2.34341 14.5193 1.52054 16.3461 0.93705 18.2542C-0.416946 22.847 -0.304738 27.7429 1.28116 32.2691Z" fill="#F00500"/>
<path d="M10.9905 23.4401C11.013 23.5584 11.3646 23.9134 11.7161 24.1723C12.7485 24.9193 14.5962 25.6145 16.4738 25.9473C17.5436 26.1396 18.6133 26.1691 18.935 26.0138C19.1444 25.9103 19.1743 25.8289 19.0995 25.5627C18.9424 25.008 18.4338 24.4016 17.6408 23.8321C17.2368 23.5437 15.5986 22.56 14.8356 22.1459C13.5788 21.4654 12.5615 21.0587 11.8732 20.9625C11.6563 20.933 11.3945 20.9256 11.3122 20.9625C11.1775 21.0143 11.0279 21.4063 10.9681 21.8796C10.9382 22.1311 10.9531 23.2404 10.9905 23.4401Z" fill="black"/>
<path d="M28.6157 25.8855C28.6605 25.9743 28.885 26.0704 29.1393 26.1074C29.3936 26.1444 30.1716 26.1222 30.613 26.0704C32.1989 25.8633 33.882 25.3826 35.1089 24.791C35.7971 24.4581 36.2908 24.1253 36.6573 23.7629L36.8668 23.5485L36.8892 23.2674C36.9267 22.7793 36.9192 22.0101 36.8593 21.7365C36.8219 21.5072 36.7396 21.2854 36.6274 21.0857C36.5676 21.0117 36.5676 21.0117 36.2983 21.0117C35.9691 21.0117 35.6923 21.0635 35.2435 21.204C34.3234 21.4851 32.9544 22.1655 31.2862 23.1565C29.9098 23.97 29.3936 24.3694 28.9972 24.9167C28.7279 25.2569 28.5483 25.7376 28.6157 25.8855Z" fill="black"/>
<path d="M18.0216 36.1751C18.0216 36.1973 18.1114 36.5523 18.2236 36.9738C18.3358 37.3954 18.4256 37.7356 18.4256 37.7504C18.5079 37.7578 18.5827 37.7652 18.665 37.7578H18.9043L19.2335 38.5269C19.413 38.9485 19.5776 39.3405 19.6 39.3996L19.6449 39.5032L19.802 39.2517L19.9591 39.0003V36.9516L20.019 36.9664C20.1461 36.996 21.0513 37.1143 21.4478 37.1513C23.086 37.314 24.7318 37.277 26.3625 37.0478C26.6244 37.0108 26.8488 36.9812 26.8563 36.9886C26.8637 36.996 26.8563 37.4693 26.8413 38.0536L26.8189 39.1038L26.946 39.2961C27.0133 39.3996 27.0807 39.4884 27.0807 39.4958C27.1031 39.518 27.1779 39.3996 27.35 39.0594C27.537 38.7044 27.6716 38.3272 27.7689 37.9353L27.8213 37.7208L28.0532 37.7356L28.2851 37.7578L28.3449 37.4841C28.3748 37.3362 28.4122 37.1069 28.4272 36.9812L28.4496 36.7445L28.6441 36.5744C28.7563 36.4783 28.8685 36.3822 28.891 36.3674C28.9284 36.3378 28.9434 36.286 28.9434 36.2416V36.1529L28.0083 36.1603L27.0732 36.1677L27.0433 36.2638L27.0134 36.36L26.6917 36.3748C26.5121 36.3822 25.9436 36.3969 25.4349 36.4117L24.4999 36.4339L24.2605 36.0641L24.0136 35.6944H23.6994L23.7069 34.9252L23.7144 34.156L24.1258 33.9785C25.4499 33.4017 26.2279 32.7434 26.5196 31.9447C26.5795 31.782 26.5795 31.7228 26.5944 30.9833C26.6019 30.2511 26.6019 30.1845 26.5496 30.0218C26.4448 29.652 26.1531 29.3636 25.779 29.2674C25.6519 29.2305 25.3152 29.2305 23.5498 29.2305L21.4702 29.2379L21.2383 29.3488C20.9615 29.4819 20.8343 29.5781 20.6773 29.7851C20.4977 30.0218 20.4453 30.2067 20.4453 30.6578C20.4453 31.3013 20.4902 31.856 20.5576 32.0778C20.6548 32.3811 20.8044 32.6695 20.9914 32.9283C21.3655 33.4017 22.0462 33.875 22.6671 34.0895L22.8466 34.156L22.8392 34.9326L22.8317 35.7091L22.6671 35.7239L22.5025 35.7387L22.2781 36.0715L22.0612 36.4043H21.0588C20.5052 36.4043 20.019 36.4117 19.9741 36.4191C19.8993 36.4339 19.8843 36.4265 19.8095 36.3008L19.7197 36.1677H18.8595C18.2161 36.1381 18.0216 36.1529 18.0216 36.1751Z" fill="black"/>
<path d="M21.9722 38.3004C22.1143 38.3817 22.2115 38.4187 22.234 38.4039C22.2564 38.3965 22.3611 38.3078 22.4733 38.2265L22.6752 38.0638L22.8847 38.2856C23.3409 38.7736 23.3559 38.7958 23.4905 38.8032C23.6999 38.8254 23.7448 38.7884 23.9991 38.4113C24.1337 38.2191 24.2384 38.0564 24.2384 38.0564C24.2384 38.0564 24.3356 38.0416 24.4478 38.0342L24.6573 38.012L24.7545 38.2117L24.8517 38.4113L25.0238 38.3596C25.1584 38.3152 25.293 38.2634 25.4202 38.2043L25.6445 38.0934V37.6719L23.655 37.6793L21.6655 37.6867L21.6581 37.8863C21.6506 38.1229 21.6431 38.1155 21.9722 38.3004Z" fill="black"/>
<path d="M3.27126 29.2808C3.27874 29.2513 3.27875 29.1995 3.28623 29.1181C5.08158 28.9258 10.2058 28.8075 14.9635 32.6903C14.9635 32.6903 16.497 25.7383 23.6784 25.7383C30.8599 25.7383 33.523 32.6903 33.523 32.6903C37.5475 28.4081 42.9336 28.7188 44.8786 28.9998C44.8786 29.0442 44.8861 29.0959 44.8861 29.1403C44.9459 30.2127 44.916 30.723 44.7364 31.396C44.1754 33.5038 42.4474 35.8261 39.7394 38.104C35.3034 41.8314 29.2889 44.5235 24.7332 44.8341C19.983 45.1521 12.9737 42.4083 8.30573 38.3998C7.57263 37.7564 6.88441 37.076 6.24108 36.3512C5.77728 35.8187 5.08905 34.9016 5.14142 34.9016C5.15638 34.9016 5.14142 34.8868 5.11149 34.872C5.08905 34.8572 5.06662 34.835 5.08158 34.8203C5.08906 34.8129 5.0741 34.7907 5.05166 34.7833C5.02921 34.7759 5.01425 34.7611 5.02173 34.7463C5.02921 34.7315 5.02173 34.7167 4.99181 34.7093C4.96936 34.7019 4.96189 34.6797 4.96937 34.6649C4.97685 34.6502 4.96936 34.6354 4.9544 34.6354C4.93944 34.6354 4.92448 34.6132 4.92448 34.5984C4.92448 34.5836 4.90953 34.5614 4.89456 34.5614C4.8796 34.5614 4.86464 34.5466 4.86464 34.5318C4.8422 34.4727 4.80479 34.4135 4.76739 34.3617C4.65518 34.1916 4.20635 33.4003 4.1465 33.2671C3.7201 32.3131 3.4508 31.4626 3.32363 30.6121C3.27875 30.2053 3.24134 29.4583 3.27126 29.2808ZM21.9729 38.3036C22.115 38.385 22.2122 38.422 22.2347 38.4072C22.2571 38.3998 22.3619 38.311 22.4741 38.2297L22.676 38.067L22.8855 38.2889C23.3418 38.777 23.3568 38.7992 23.4914 38.8066C23.7009 38.8287 23.7458 38.7918 24.0001 38.4146C24.1348 38.2223 24.2395 38.0596 24.2395 38.0596C24.2395 38.0596 24.3367 38.0448 24.4489 38.0374L24.6584 38.0152L24.7557 38.2149L24.8529 38.4146L25.025 38.3628C25.1596 38.3184 25.2943 38.2667 25.4214 38.2075L25.6458 38.0966V37.675L23.656 37.6824L21.6662 37.6898L21.6587 37.8895C21.6512 38.1261 21.6437 38.1188 21.9729 38.3036ZM18.2325 36.9724C18.3447 37.394 18.4345 37.7342 18.4345 37.749C18.5168 37.7564 18.5916 37.7638 18.6739 37.7564H18.9133L19.2349 38.5329C19.4145 38.9545 19.5791 39.3464 19.6015 39.4056L19.6464 39.5092L19.8035 39.2577L19.9606 39.0062V36.9576L20.0204 36.9724C20.1476 37.002 21.0527 37.1203 21.4492 37.1573C23.0875 37.32 24.7332 37.283 26.364 37.0538C26.6258 37.0168 26.8502 36.9872 26.8577 36.9946C26.8652 37.002 26.8577 37.4753 26.8427 38.0596L26.8203 39.1098L26.9475 39.3021C27.0148 39.4056 27.0821 39.4944 27.0821 39.5018C27.1046 39.5239 27.1794 39.4056 27.3514 39.0654C27.5385 38.7104 27.6731 38.3332 27.7703 37.9413L27.8227 37.7268L28.0546 37.7416L28.2865 37.7638L28.3464 37.4901C28.3763 37.3422 28.4137 37.1129 28.4286 36.9872L28.4511 36.7505L28.6456 36.5804C28.7578 36.4843 28.87 36.3881 28.8924 36.3734C28.9298 36.3438 28.9448 36.292 28.9448 36.2476V36.1589L28.0097 36.1663L27.0747 36.1737L27.0447 36.2698L27.0148 36.366L26.6931 36.3808C26.5136 36.3882 25.9451 36.4029 25.4364 36.4177L24.5013 36.4399L24.2619 36.0701L24.0151 35.7003H23.7009L23.7084 34.9312L23.7158 34.162L24.1273 33.9845C25.4514 33.4077 26.2293 32.7494 26.5211 31.9507C26.5809 31.788 26.5809 31.7288 26.5959 30.9893C26.6034 30.2571 26.6034 30.1905 26.551 30.0278C26.4463 29.658 26.1545 29.3696 25.7805 29.2734C25.6533 29.2365 25.3167 29.2365 23.5513 29.2365L21.4717 29.2439L21.2398 29.3548C20.963 29.4879 20.8358 29.5841 20.6787 29.7911C20.4992 30.0278 20.4468 30.2127 20.4468 30.6638C20.4468 31.3073 20.4917 31.862 20.559 32.0838C20.6563 32.3871 20.8059 32.6755 20.9929 32.9343C21.3669 33.4077 22.0477 33.881 22.6686 34.0955L22.8481 34.162L22.8406 34.9386L22.8331 35.7151L22.6686 35.7299L22.504 35.7447L22.2796 36.0775L22.0626 36.4103H21.0602C20.5067 36.4103 20.0204 36.4177 19.9755 36.4251C19.9007 36.4399 19.8858 36.4325 19.811 36.3068L19.7212 36.1737H18.8609C18.1951 36.1737 18.0006 36.1811 18.0006 36.2033C18.0231 36.1959 18.1203 36.5583 18.2325 36.9724Z" fill="white"/>
<path d="M3.33015 28.5282C3.34511 28.1953 3.37504 27.7294 3.39748 27.5001C3.71915 24.1425 4.58689 21.3987 6.23263 18.4921C6.29996 18.3812 6.35981 18.2703 6.39721 18.1815C6.41218 18.1593 6.41966 18.1371 6.42714 18.1223C6.19524 17.4345 5.2452 14.5576 4.48965 11.2665C3.4648 6.79946 2.81398 1.57806 4.80383 0.0101636C4.80383 0.0101636 8.24493 -0.241292 12.853 4.22574C14.1023 5.46083 15.2468 6.79946 16.2642 8.22684L16.5858 8.12329C18.441 7.52424 20.3636 7.15445 22.301 7.02872C22.8845 6.98435 25.0614 6.98435 25.7721 7.02872C27.919 7.16924 29.5647 7.48726 31.4349 8.13069C31.5097 8.16027 31.577 8.18246 31.6444 8.20465C32.6991 6.78466 33.8736 5.45343 35.1677 4.23313C39.9628 -0.256083 43.5311 0.00276735 43.5311 0.00276735C45.6406 1.62244 44.9225 7.0805 43.8303 11.6954C43.1122 14.7499 42.2295 17.4345 41.9003 18.4034C41.9228 18.4552 41.9527 18.5143 41.9826 18.5661C43.7256 22.0569 44.6682 25.4219 44.8926 29.0015C42.9401 28.7204 37.5616 28.4024 33.5295 32.692C33.5295 32.692 30.8664 25.74 23.685 25.74C16.5036 25.74 14.97 32.692 14.97 32.692C10.2123 28.8092 5.0881 28.9349 3.29275 29.1198C3.30023 28.9719 3.31519 28.75 3.33015 28.5282ZM40.4865 15.6152C40.4865 15.6152 43.2842 8.70016 42.5661 4.75084C42.4464 4.08522 42.222 3.50095 41.8704 3.05721C41.8704 3.05721 38.6986 3.36783 33.5819 8.9886C33.5819 8.9886 34.5543 9.45453 35.856 10.4456C35.856 10.4456 35.8634 10.453 35.8709 10.453C37.2848 11.5253 39.0951 13.2264 40.4865 15.6152ZM28.6147 25.8879C28.6596 25.9766 28.884 26.0728 29.1384 26.1097C29.3927 26.1467 30.1707 26.1245 30.612 26.0728C32.1979 25.8657 33.8811 25.385 35.1079 24.7933C35.7961 24.4605 36.2898 24.1277 36.6564 23.7653L36.8658 23.5508L36.8883 23.2698C36.9257 22.7817 36.9182 22.0125 36.8584 21.7389C36.821 21.5096 36.7387 21.2877 36.6265 21.088C36.5666 21.0141 36.5666 21.0141 36.2973 21.0141C35.9682 21.0141 35.6914 21.0658 35.2426 21.2064C34.3224 21.4874 32.9535 22.1678 31.2853 23.1588C29.9089 23.9724 29.3927 24.3717 28.9962 24.919C28.7269 25.2592 28.5474 25.74 28.6147 25.8879ZM10.9903 23.4399C11.0128 23.5582 11.3644 23.9132 11.7159 24.1721C12.7483 24.919 14.596 25.6142 16.4736 25.947C17.5434 26.1393 18.6131 26.1689 18.9348 26.0136C19.1442 25.9101 19.1741 25.8287 19.0993 25.5625C18.9422 25.0078 18.4336 24.4013 17.6406 23.8319C17.2367 23.5434 15.5984 22.5598 14.8354 22.1456C13.5786 21.4652 12.5613 21.0585 11.873 20.9623C11.6561 20.9327 11.3943 20.9253 11.312 20.9623C11.1773 21.0141 11.0277 21.4061 10.9679 21.8794C10.938 22.1308 10.9529 23.2402 10.9903 23.4399ZM12.2321 10.4456L12.2471 10.4382C13.5038 9.44713 14.4464 8.9812 14.4464 8.9812C9.50168 3.36043 6.4421 3.04982 6.4421 3.04982C6.10547 3.50096 5.88853 4.07782 5.76884 4.74344C5.07314 8.69277 7.77365 15.6152 7.77365 15.6152C8.90323 13.6257 10.4218 11.8655 12.2321 10.4456Z" fill="#FFA409"/>
<path d="M5.76225 4.7405C6.34574 4.66654 9.10609 4.65175 12.233 10.4426L12.248 10.4352C13.5047 9.44419 14.4473 8.97826 14.4473 8.97826C9.50256 3.35749 6.44298 3.04688 6.44298 3.04688C6.09887 3.49802 5.88194 4.07488 5.76225 4.7405Z" fill="#FF9300"/>
<path d="M7.76648 15.613C8.90353 13.6162 10.4146 11.8634 12.2324 10.4434C9.10552 4.65251 6.35264 4.6673 5.76167 4.74125C5.06598 8.69798 7.76648 15.613 7.76648 15.613Z" fill="#FF8300"/>
<path d="M5.64953 4.76065C5.68693 4.75319 5.72432 4.74574 5.76172 4.73828L5.64953 4.76065Z" fill="#FF8300"/>
<path d="M33.5825 8.97826C33.5825 8.97826 34.555 9.44419 35.8566 10.4352C35.8566 10.4352 35.8641 10.4426 35.8716 10.4426C39.1107 4.64436 41.9608 4.66654 42.5742 4.7405C42.4545 4.07488 42.2301 3.49062 41.8785 3.04688C41.871 3.04688 38.6993 3.35749 33.5825 8.97826Z" fill="#FF9300"/>
<path d="M35.865 10.4434C37.2863 11.5232 39.0966 13.2168 40.488 15.613C40.488 15.613 43.2858 8.69798 42.5677 4.74125C41.9617 4.6673 39.1041 4.65251 35.865 10.4434Z" fill="#FF8300"/>
<path d="M42.5678 4.73828C42.6052 4.74574 42.6501 4.75319 42.6875 4.76065L42.5678 4.73828Z" fill="#FF8300"/>
<path d="M15.3369 19.4553C15.3369 19.4553 17.7303 19.6032 17.4312 17.7546C17.132 15.906 15.2621 15.6841 14.7386 15.7581C14.215 15.832 12.1208 16.5715 12.4948 18.1243C12.8687 19.6772 13.3923 19.3814 13.6915 19.4553C13.9906 19.5293 15.3369 19.4553 15.3369 19.4553Z" fill="white"/>
<path d="M32.9912 19.4553C32.9912 19.4553 35.3846 19.6032 35.0854 17.7546C34.7863 15.906 32.9164 15.6841 32.3929 15.7581C31.8693 15.832 29.7751 16.5715 30.1491 18.1243C30.523 19.6772 31.0466 19.3814 31.3458 19.4553C31.645 19.5293 32.9912 19.4553 32.9912 19.4553Z" fill="white"/>
</svg>
