<svg xmlns="http://www.w3.org/2000/svg" viewBox="0 0 48 48"><defs><style>.cls-1{fill:#00d1ff;}.cls-2{fill:#fff;}</style></defs><title>Synthetix</title><g id="Layer_2" data-name="Layer 2"><g id="Layer_1-2" data-name="Layer 1"><circle class="cls-1" cx="24" cy="24" r="24"/><path class="cls-2" d="M16.09,18a1,1,0,0,0-.79-.37H8.89a.24.24,0,0,1-.14-.05.17.17,0,0,1-.05-.12V13.17a.17.17,0,0,1,.05-.12A.16.16,0,0,1,8.89,13h6.77a5.73,5.73,0,0,1,4.43,2.1l1.65,2L18.53,21Zm11.85-3A5.72,5.72,0,0,1,32.38,13h6.76a.14.14,0,0,1,.12,0,.15.15,0,0,1,0,.13v4.32a.16.16,0,0,1,0,.12.12.12,0,0,1-.12.05H32.73a1,1,0,0,0-.8.37l-4.72,5.75L32,29.57a1,1,0,0,0,.77.34h6.41a.13.13,0,0,1,.12.06.18.18,0,0,1,0,.14v4.32a.15.15,0,0,1,0,.11.14.14,0,0,1-.12.06H32.38A5.67,5.67,0,0,1,28,32.5L24,27.7,20.1,32.5a5.74,5.74,0,0,1-4.45,2.1H8.89a.13.13,0,0,1-.12-.06.14.14,0,0,1,0-.13V30.09a.16.16,0,0,1,0-.12.14.14,0,0,1,.12-.06H15.3a1,1,0,0,0,.79-.37l4.64-5.66Z"/></g></g></svg>