<svg xmlns="http://www.w3.org/2000/svg" xmlns:xlink="http://www.w3.org/1999/xlink" viewBox="0 0 48 48"><defs><style>.cls-1{fill:url(#linear-gradient);}.cls-2{fill:#fff;}</style><linearGradient id="linear-gradient" x1="12.09" y1="42.92" x2="36.43" y2="4.26" gradientUnits="userSpaceOnUse"><stop offset="0" stop-color="#00ffa3"/><stop offset="1" stop-color="#dc1fff"/></linearGradient></defs><title>Solana</title><g id="Layer_2" data-name="Layer 2"><g id="Layer_1-2" data-name="Layer 1"><circle class="cls-1" cx="24" cy="24" r="24"/><path class="cls-2" d="M16.51,28.05a.67.67,0,0,1,.49-.21H34a.35.35,0,0,1,.25.6L30.89,31.8a.7.7,0,0,1-.5.2h-17a.34.34,0,0,1-.24-.59Z"/><path class="cls-2" d="M16.51,15.51A.71.71,0,0,1,17,15.3H34a.35.35,0,0,1,.25.6l-3.36,3.36a.7.7,0,0,1-.5.2h-17a.34.34,0,0,1-.24-.59Z"/><path class="cls-2" d="M30.89,21.74a.71.71,0,0,0-.5-.21h-17a.35.35,0,0,0-.24.6l3.36,3.36a.66.66,0,0,0,.49.2H34a.35.35,0,0,0,.25-.59Z"/></g></g></svg>