<svg width="48" height="48" viewBox="0 0 48 48" fill="none" xmlns="http://www.w3.org/2000/svg">
<circle cx="24" cy="24" r="24" fill="#0E0F23"/>
<path d="M16.4169 13.4922L36.5669 27.2505L31.5836 34.6172L11.4336 20.7505L16.4169 13.4922Z" fill="url(#paint0_linear)"/>
<path d="M36.5672 27.2489C34.8339 29.7405 28.9839 28.7655 23.4589 24.8655C17.8256 21.0739 14.7922 15.9822 16.4172 13.4905C18.1506 10.9989 24.0006 11.9739 29.5256 15.8739C35.1589 19.5572 38.1922 24.7572 36.5672 27.2489Z" fill="url(#paint1_linear)"/>
<path d="M31.5834 34.5095C29.8501 37.0012 24.0001 36.0262 18.4751 32.1262C12.9501 28.2262 9.80839 23.2429 11.5417 20.6429C13.2751 18.1512 19.1251 19.1262 24.6501 23.0262C30.1751 26.9262 33.2084 32.0179 31.5834 34.5095Z" fill="url(#paint2_linear)"/>
<path d="M36.5664 27.2489L31.5831 34.6156C29.8497 37.1073 23.9997 36.0239 18.4747 32.2323C17.3914 31.4739 16.4164 30.7156 15.4414 29.8489C16.1997 29.7406 17.1747 29.3073 18.1497 28.2239C19.8831 26.3823 20.7497 25.9489 21.5081 26.0573C22.2664 26.0573 23.1331 26.8156 24.5414 28.6573C25.9497 30.4989 27.8997 31.0406 29.0914 30.0656C29.1997 29.9573 29.3081 29.9573 29.4164 29.8489C30.3914 29.0906 30.7164 28.7656 32.5581 25.2989C32.9914 24.4323 34.5081 23.0239 36.5664 23.6739C37.1081 25.0823 37.1081 26.2739 36.5664 27.2489Z" fill="white"/>
<path fill-rule="evenodd" clip-rule="evenodd" d="M35.8075 26.8184C34.2909 28.9851 28.9825 27.9017 23.8909 24.3267C18.6909 20.7517 15.6575 16.2017 17.1742 14.0351C18.6909 11.8684 23.9992 12.9517 29.0909 16.5267C34.1825 20.1017 37.2159 24.6517 35.8075 26.8184ZM31.0409 23.5684C30.2825 24.6517 27.6825 24.1101 25.0825 22.3767C22.5909 20.6434 21.0742 18.3684 21.8325 17.2851C22.5909 16.2017 25.1909 16.7434 27.7909 18.4767C30.2825 20.2101 31.7992 22.4851 31.0409 23.5684Z" fill="#0E0F23"/>
<path d="M15.9841 15.9813C15.9841 15.873 15.8758 15.7647 15.7674 15.873C15.6591 15.9813 15.5508 15.9813 15.5508 16.0897C15.6591 16.4147 15.7674 16.6313 15.7674 16.848C15.7674 16.9563 15.8758 17.0647 15.9841 16.9563C16.0924 16.9563 16.2008 16.848 16.0924 16.7397C16.0924 16.523 16.0924 16.3063 15.9841 15.9813Z" fill="white"/>
<path d="M16.5242 17.7157C16.5242 17.6074 16.4159 17.499 16.3076 17.6074C16.1992 17.7157 16.1992 17.7157 16.1992 17.824C17.3909 20.5324 19.8826 23.4574 23.1326 25.624C23.2409 25.7324 23.3492 25.624 23.4576 25.624C23.5659 25.5157 23.4576 25.4074 23.4576 25.299C20.0992 23.1324 17.7159 20.3157 16.5242 17.7157Z" fill="white"/>
<path d="M29.6327 28.332C29.5243 28.332 29.416 28.332 29.416 28.4404C29.416 28.5487 29.416 28.657 29.5243 28.657C29.8493 28.7654 30.2827 28.8737 30.6077 28.982C30.716 28.982 30.8243 28.982 30.8243 28.8737C30.8243 28.7654 30.8244 28.657 30.716 28.657C30.391 28.5487 29.9577 28.4404 29.6327 28.332Z" fill="white"/>
<path d="M31.5839 28.7656C31.4755 28.7656 31.3672 28.874 31.3672 28.9823C31.3672 29.0906 31.4755 29.199 31.5839 29.199C32.4505 29.3073 33.4255 29.4156 34.1839 29.3073C34.2922 29.3073 34.4005 29.199 34.4005 29.0906C34.4005 28.9823 34.2922 28.874 34.1839 28.874C33.3172 28.9823 32.4505 28.874 31.5839 28.7656Z" fill="white"/>
<defs>
<linearGradient id="paint0_linear" x1="20.3648" y1="11.536" x2="24.3608" y2="25.2577" gradientUnits="userSpaceOnUse">
<stop stop-color="#03B8FF"/>
<stop offset="1" stop-color="#FA52A0"/>
</linearGradient>
<linearGradient id="paint1_linear" x1="23.6558" y1="10.5759" x2="27.6519" y2="24.2977" gradientUnits="userSpaceOnUse">
<stop stop-color="#03B8FF"/>
<stop offset="1" stop-color="#FA52A0"/>
</linearGradient>
<linearGradient id="paint2_linear" x1="17.0841" y1="12.492" x2="21.0802" y2="26.2138" gradientUnits="userSpaceOnUse">
<stop stop-color="#03B8FF"/>
<stop offset="1" stop-color="#FA52A0"/>
</linearGradient>
</defs>
</svg>
