<svg xmlns="http://www.w3.org/2000/svg" viewBox="0 0 48 48"><defs><style>.cls-1{fill:#14c8ff;}.cls-2{fill:#fff;}</style></defs><title>Tel Coin</title><g id="Layer_2" data-name="Layer 2"><g id="Layer_1-2" data-name="Layer 1"><circle class="cls-1" cx="24" cy="24" r="24"/><path class="cls-2" d="M37.62,17.22A4.1,4.1,0,0,1,39,20.75L36.92,32a4.22,4.22,0,0,1-2.5,2.88L23.29,38.82a4.44,4.44,0,0,1-3.82-.66l-9.09-7.38A4.09,4.09,0,0,1,9,27.25l2-11.28a4.22,4.22,0,0,1,2.5-2.88L24.71,9.18a4.43,4.43,0,0,1,3.83.66Zm-9.47,5.06L28.61,20H24.36l.6-3H23.59a8.63,8.63,0,0,1-4.13,3.34l-.38,2h1.86s-.63,2.84-.84,3.89c-.53,2.67.79,4.56,2.82,4.56h3.43l.6-2.53H24.08c-1.28,0-1.21-.7-1-1.94l.79-4Z"/></g></g></svg>