<svg width="48" height="48" viewBox="0 0 48 48" fill="none" xmlns="http://www.w3.org/2000/svg">
<circle cx="24" cy="24" r="24" fill="#FF060A"/>
<g clip-path="url(#clip0)">
<path d="M33.2344 20.025C32.2969 19.1594 31 17.8375 29.9438 16.9L29.8813 16.8563C29.7773 16.7728 29.66 16.7073 29.5344 16.6625C26.9875 16.1875 15.1344 13.9719 14.9031 14C14.8383 14.0091 14.7764 14.0326 14.7219 14.0688L14.6625 14.1156C14.5894 14.1899 14.5339 14.2796 14.5 14.3781L14.4844 14.4188V14.6406V14.675C15.8188 18.3906 21.0875 30.5625 22.125 33.4188C22.1875 33.6125 22.3063 33.9813 22.5281 34H22.5781C22.6969 34 23.2031 33.3313 23.2031 33.3313C23.2031 33.3313 32.2531 22.3563 33.1688 21.1875C33.2873 21.0436 33.3919 20.8887 33.4813 20.725C33.5041 20.597 33.4933 20.4652 33.45 20.3425C33.4068 20.2198 33.3325 20.1104 33.2344 20.025ZM25.525 21.3031L29.3875 18.1L31.6531 20.1875L25.525 21.3031ZM24.025 21.0938L17.375 15.6438L28.1344 17.6281L24.025 21.0938ZM24.625 22.5219L31.4312 21.425L23.65 30.8L24.625 22.5219ZM16.4719 16.1875L23.4688 22.125L22.4563 30.8063L16.4719 16.1875Z" fill="white"/>
</g>
<defs>
<clipPath id="clip0">
<rect width="20" height="20" fill="white" transform="translate(14 14)"/>
</clipPath>
</defs>
</svg>
