<svg width="48" height="48" viewBox="0 0 48 48" fill="none" xmlns="http://www.w3.org/2000/svg">
<path d="M24 48C10.8 48 0 37.2 0 24C0 10.8 10.8 0 24 0C37.2 0 48 10.8 48 24C48 37.2 37.2 48 24 48Z" fill="#002868"/>
<path d="M36.0956 38.4016H11.9036C10.6364 38.4016 9.59961 37.3648 9.59961 36.0976V11.9056C9.59961 10.6384 10.6364 9.60156 11.9036 9.60156H36.0956C37.3628 9.60156 38.3996 10.6384 38.3996 11.9056V36.0976C38.3996 37.3648 37.3628 38.4016 36.0956 38.4016Z" fill="white"/>
<path d="M15.2211 35.4984C15.1453 35.4984 15.0839 35.4292 15.0839 35.3534V31.4836C15.0839 31.4078 15.0224 31.3387 14.9466 31.3387H13.5805C13.5037 31.3387 13.4355 31.2772 13.4355 31.2014V30.4536C13.4355 30.3777 13.5047 30.3086 13.5805 30.3086H17.7853C17.8611 30.3086 17.9303 30.3768 17.9303 30.4536V31.2014C17.9303 31.2772 17.8611 31.3387 17.7853 31.3387H16.4269C16.3511 31.3387 16.2819 31.4068 16.2819 31.4836V35.3534C16.2819 35.4292 16.2205 35.4984 16.1447 35.4984H15.2211Z" fill="#002868"/>
<path d="M22.1275 30.4536C22.1275 30.3777 22.1889 30.3086 22.2648 30.3086H23.1806C23.2564 30.3086 23.3256 30.3768 23.3256 30.4536V33.0945C23.3256 34.6593 22.4404 35.5675 21.036 35.5675C19.6392 35.5675 18.7617 34.6593 18.7617 33.0945V30.4536C18.7617 30.3777 18.8232 30.3086 18.899 30.3086H19.8148C19.8907 30.3086 19.9598 30.3768 19.9598 30.4536V33.132C19.9598 33.9028 20.3563 34.452 21.0436 34.452C21.731 34.452 22.1275 33.9028 22.1275 33.132V30.4536V30.4536Z" fill="#002868"/>
<path d="M27.5306 32.0049C27.4087 32.0049 27.3703 31.9588 27.3242 31.8676C27.1639 31.4932 26.8125 31.257 26.2787 31.257C25.7978 31.257 25.3936 31.425 25.3936 31.7457C25.3936 32.097 25.768 32.242 26.5917 32.3409C27.8435 32.4858 28.5607 32.8679 28.5607 33.8596C28.5607 34.9742 27.5834 35.5617 26.3325 35.5617C25.2487 35.5617 24.3175 35.0346 24.1725 33.9287C24.1571 33.8222 24.2109 33.7838 24.3175 33.7838H25.1575C25.264 33.7838 25.3255 33.8298 25.3562 33.9134C25.4704 34.2801 25.8602 34.5623 26.4247 34.5623C26.921 34.5623 27.3559 34.379 27.3559 33.9902C27.3559 33.5246 26.8979 33.441 25.9821 33.3258C24.929 33.1886 24.1965 32.8833 24.1965 31.9137C24.1965 30.9441 25.0288 30.25 26.3335 30.25C27.5085 30.25 28.3255 30.8836 28.4935 31.8302C28.5165 31.9367 28.4858 32.0058 28.3715 32.0058H27.5306V32.0049Z" fill="#002868"/>
<path d="M29.5982 35.4984C29.5224 35.4984 29.4609 35.4292 29.4609 35.3534V30.4536C29.4609 30.3777 29.5224 30.3086 29.5982 30.3086H31.6737C33.2155 30.3086 34.4136 31.3694 34.4136 32.9188C34.4136 34.4452 33.2309 35.4984 31.6737 35.4984H29.5982ZM31.6737 34.4673C32.5061 34.4673 33.1541 33.8107 33.1541 32.9025C33.1541 31.9944 32.5051 31.3377 31.6661 31.3377H30.804C30.7281 31.3377 30.6667 31.4059 30.6667 31.4827V34.3291C30.6667 34.4049 30.7281 34.4664 30.804 34.4664H31.6737V34.4673Z" fill="#002868"/>
<path d="M37.6324 27.4564H10.3684C10.1572 27.4564 9.98438 27.2836 9.98438 27.0724V11.9044C9.98438 10.8484 10.8484 9.98438 11.9044 9.98438H36.0964C37.1524 9.98438 38.0164 10.8484 38.0164 11.9044V27.0724C38.0164 27.2836 37.8436 27.4564 37.6324 27.4564Z" fill="#002868"/>
<path d="M25.4149 24.343H22.9189C22.7605 24.343 22.6309 24.2134 22.6309 24.055V13.495C22.6309 13.3366 22.7605 13.207 22.9189 13.207H25.4149C25.5733 13.207 25.7029 13.3366 25.7029 13.495V24.055C25.7029 24.2134 25.5733 24.343 25.4149 24.343Z" fill="white"/>
<path d="M29.6648 16.279H18.3368C18.1784 16.279 18.0488 16.1494 18.0488 15.991V13.495C18.0488 13.3366 18.1784 13.207 18.3368 13.207H29.6648C29.8232 13.207 29.9528 13.3366 29.9528 13.495V15.991C29.9528 16.1494 29.8232 16.279 29.6648 16.279Z" fill="white"/>
</svg>
