<svg xmlns="http://www.w3.org/2000/svg" viewBox="0 0 48 48"><defs><style>.cls-1{fill:#ff4a4a;}.cls-2{fill:#fff;}</style></defs><title>Uma</title><g id="Layer_2" data-name="Layer 2"><g id="Layer_1-2" data-name="Layer 1"><circle class="cls-1" cx="24" cy="24" r="24"/><path class="cls-2" d="M28.82,28.25H27.39a.48.48,0,0,1-.49-.49V24l-2.51,1.56a.62.62,0,0,1-.69,0L21.2,24v3.77a.49.49,0,0,1-.49.49H19.29a.48.48,0,0,1-.49-.49h0V20.48a.65.65,0,0,1,.65-.65.55.55,0,0,1,.35.12l4,2.72a.47.47,0,0,0,.55,0l4-2.72a.67.67,0,0,1,.91.17.81.81,0,0,1,.12.36v7.28a.47.47,0,0,1-.47.49Z"/><path class="cls-2" d="M16.66,28.24H7.76a.66.66,0,0,1-.65-.66h0V20.27a.49.49,0,0,1,.5-.49H9.05a.49.49,0,0,1,.49.49h0v5.56h5.39V20.27a.48.48,0,0,1,.49-.49h1.4a.49.49,0,0,1,.49.49v7.31a.66.66,0,0,1-.65.66Z"/><path class="cls-2" d="M31.45,19.78h8.9a.65.65,0,0,1,.65.65v7.31a.49.49,0,0,1-.48.5H39.09a.49.49,0,0,1-.49-.5h0V22.5a.33.33,0,0,0-.32-.32H33.54a.32.32,0,0,0-.32.32h0v5.24a.49.49,0,0,1-.49.5H31.29a.5.5,0,0,1-.49-.5h0V20.43a.65.65,0,0,1,.65-.65Z"/><path class="cls-2" d="M35.18,23.72H36.6a.49.49,0,0,1,.5.49v1.45a.5.5,0,0,1-.5.49H35.18a.49.49,0,0,1-.49-.49V24.2A.49.49,0,0,1,35.18,23.72Z"/></g></g></svg>