<svg width="48" height="48" viewBox="0 0 48 48" fill="none" xmlns="http://www.w3.org/2000/svg">
<circle cx="24" cy="24" r="24" fill="#FF007A"/>
<g clip-path="url(#clip0)">
<path d="M21.7623 17.4614C21.5033 17.4242 21.491 17.4118 21.6143 17.3994C21.8486 17.3623 22.391 17.4118 22.7733 17.4985C23.661 17.709 24.4624 18.2539 25.3131 19.2075L25.535 19.4676L25.8556 19.418C27.2241 19.1951 28.6296 19.3685 29.8009 19.9134C30.1215 20.062 30.627 20.3592 30.6886 20.4335C30.7133 20.4583 30.7503 20.6193 30.7749 20.7802C30.8612 21.3623 30.8242 21.7957 30.6393 22.1301C30.5407 22.3159 30.5407 22.3654 30.6023 22.5264C30.6516 22.6502 30.7996 22.7369 30.9352 22.7369C31.2311 22.7369 31.5393 22.2663 31.6873 21.61L31.7489 21.3499L31.8599 21.4737C32.4887 22.1796 32.9819 23.158 33.0558 23.8515L33.0805 24.0372L32.9695 23.8762C32.7846 23.5914 32.612 23.4056 32.3777 23.2446C31.9585 22.9598 31.5147 22.8731 30.3434 22.8112C29.2831 22.7493 28.679 22.6626 28.0872 22.4645C27.0762 22.1301 26.5583 21.6967 25.3624 20.0991C24.8322 19.3933 24.4993 19.0094 24.1665 18.6874C23.439 17.9815 22.7116 17.61 21.7623 17.4614Z" fill="white"/>
<path d="M30.9476 19.0341C30.9722 18.5635 31.0339 18.2539 31.1695 17.9691C31.2188 17.8576 31.2681 17.7585 31.2805 17.7585C31.2928 17.7585 31.2681 17.8452 31.2312 17.9443C31.1325 18.2167 31.1202 18.6007 31.1818 19.0341C31.2681 19.5914 31.3051 19.6657 31.8969 20.2725C32.1682 20.5573 32.4887 20.9164 32.612 21.065L32.8216 21.3375L32.612 21.1394C32.3531 20.8917 31.7613 20.4211 31.6257 20.3592C31.5394 20.3096 31.5271 20.3096 31.4654 20.3715C31.4161 20.4211 31.4038 20.4954 31.4038 20.8545C31.3914 21.4118 31.3175 21.7585 31.1325 22.1177C31.0339 22.3034 31.0216 22.2663 31.1079 22.0558C31.1695 21.8948 31.1818 21.8205 31.1818 21.288C31.1818 20.2106 31.0585 19.9505 30.3065 19.5171C30.1215 19.4056 29.801 19.2446 29.616 19.1579C29.4187 19.0712 29.2708 18.9969 29.2831 18.9969C29.3078 18.9722 30.0352 19.1827 30.3188 19.3065C30.7503 19.4799 30.8243 19.4923 30.8736 19.4799C30.9106 19.4428 30.9353 19.3437 30.9476 19.0341Z" fill="white"/>
<path d="M22.2677 20.8794C21.7499 20.1611 21.417 19.0466 21.4909 18.2168L21.5156 17.9568L21.6389 17.9816C21.8608 18.0187 22.243 18.1673 22.428 18.2788C22.9211 18.576 23.1431 18.9847 23.3527 20.0001C23.4143 20.2973 23.5006 20.6441 23.5376 20.7555C23.5992 20.9413 23.8335 21.3747 24.0308 21.6472C24.1664 21.8453 24.0801 21.9444 23.7719 21.9196C23.3033 21.8701 22.6745 21.4367 22.2677 20.8794Z" fill="white"/>
<path d="M30.3187 26.2662C27.8775 25.2754 27.0145 24.421 27.0145 22.972C27.0145 22.7615 27.0268 22.5881 27.0268 22.5881C27.0391 22.5881 27.1254 22.6624 27.2364 22.7491C27.7296 23.1454 28.2844 23.3188 29.8255 23.5417C30.7256 23.6779 31.2434 23.777 31.7119 23.938C33.2038 24.4333 34.1285 25.4488 34.3504 26.8234C34.412 27.2197 34.375 27.9751 34.2764 28.3714C34.1901 28.681 33.9435 29.2507 33.8819 29.2631C33.8695 29.2631 33.8449 29.2011 33.8449 29.1021C33.8202 28.5819 33.5613 28.0866 33.1298 27.7027C32.612 27.2569 31.9462 26.9225 30.3187 26.2662Z" fill="white"/>
<path d="M28.5927 26.6749C28.568 26.4891 28.5064 26.2538 28.4694 26.1548L28.4077 25.969L28.5187 26.1052C28.679 26.291 28.8023 26.5139 28.9132 26.8235C28.9996 27.0588 28.9996 27.1331 28.9996 27.517C28.9996 27.8885 28.9872 27.9752 28.9132 28.1857C28.79 28.5201 28.642 28.7554 28.3954 29.0154C27.9516 29.4736 27.3721 29.7213 26.546 29.8328C26.3981 29.8452 25.9789 29.8823 25.609 29.9071C24.6843 29.9566 24.0679 30.0557 23.513 30.2538C23.4391 30.2786 23.3651 30.3034 23.3528 30.291C23.3281 30.2662 23.7103 30.0433 24.0185 29.8947C24.4501 29.6842 24.8939 29.5727 25.8679 29.3993C26.3488 29.325 26.8419 29.226 26.9652 29.1764C28.1858 28.7925 28.79 27.839 28.5927 26.6749Z" fill="white"/>
<path d="M29.7146 28.6686C29.3941 27.9627 29.3201 27.294 29.4927 26.6624C29.5174 26.6005 29.542 26.5386 29.5667 26.5386C29.5913 26.5386 29.6653 26.5757 29.7393 26.6253C29.8872 26.7243 30.1955 26.8977 30.9846 27.3311C31.9832 27.876 32.5504 28.2971 32.9449 28.7801C33.2901 29.2011 33.4997 29.6841 33.5984 30.2785C33.66 30.6129 33.623 31.4178 33.5367 31.7522C33.2655 32.8048 32.649 33.6469 31.749 34.1299C31.6133 34.2042 31.5024 34.2538 31.4901 34.2538C31.4777 34.2538 31.527 34.1299 31.601 33.9813C31.8969 33.3497 31.9339 32.7429 31.712 32.0618C31.5764 31.6408 31.2928 31.133 30.7256 30.2785C30.0475 29.2878 29.8872 29.0277 29.7146 28.6686Z" fill="white"/>
<path d="M20.5293 32.4582C21.4416 31.6904 22.5636 31.1455 23.5993 30.9722C24.0431 30.8979 24.7829 30.9226 25.1897 31.0341C25.8432 31.2075 26.435 31.579 26.7432 32.0372C27.0391 32.483 27.1747 32.8669 27.3104 33.7214C27.3597 34.0558 27.4213 34.4025 27.4336 34.4768C27.5323 34.9226 27.7295 35.2694 27.9761 35.4551C28.3583 35.74 29.0241 35.7524 29.6776 35.5047C29.7885 35.4675 29.8872 35.4304 29.8872 35.4428C29.9118 35.4675 29.5789 35.6904 29.357 35.8019C29.0488 35.9629 28.8022 36.0124 28.4693 36.0124C27.8775 36.0124 27.372 35.7028 26.9651 35.0836C26.8788 34.9598 26.7062 34.6007 26.5583 34.2663C26.1267 33.2632 25.9048 32.966 25.3993 32.6316C24.9555 32.3468 24.3883 32.2849 23.9568 32.4954C23.3897 32.7678 23.2417 33.4985 23.6362 33.9443C23.7965 34.1301 24.0924 34.2787 24.339 34.3158C24.7952 34.3777 25.1897 34.0186 25.1897 33.5604C25.1897 33.2632 25.0788 33.0898 24.7829 32.9536C24.3883 32.7802 23.9568 32.9784 23.9691 33.3623C23.9691 33.5233 24.0431 33.6223 24.2034 33.6966C24.302 33.7462 24.302 33.7462 24.228 33.7338C23.8705 33.6595 23.7842 33.2137 24.0678 32.9288C24.413 32.5821 25.1404 32.7307 25.387 33.2137C25.4856 33.4118 25.498 33.8081 25.4117 34.0558C25.2021 34.6007 24.6103 34.8855 24.0061 34.7245C23.5993 34.613 23.4266 34.5016 22.9335 33.9938C22.0704 33.1022 21.7375 32.9288 20.5046 32.7431L20.2704 32.7059L20.5293 32.4582Z" fill="white"/>
<path fill-rule="evenodd" clip-rule="evenodd" d="M14.0441 12.5325C16.9168 16.0372 21.343 21.4861 21.5649 21.7833C21.7499 22.031 21.6759 22.2663 21.3676 22.4396C21.195 22.5387 20.8375 22.6378 20.6649 22.6378C20.4676 22.6378 20.2334 22.5387 20.0731 22.3777C19.9621 22.2663 19.4813 21.5604 18.3963 19.8638C17.5702 18.5635 16.8675 17.4861 16.8551 17.4737C16.8058 17.4489 16.8058 17.4489 18.31 20.1486C19.2593 21.8452 19.5676 22.452 19.5676 22.5263C19.5676 22.6873 19.5183 22.774 19.321 22.9969C18.9881 23.3684 18.8402 23.7895 18.7292 24.6687C18.6059 25.6471 18.273 26.3406 17.3237 27.517C16.7688 28.2105 16.6825 28.3344 16.5469 28.6192C16.3743 28.9659 16.325 29.1641 16.3003 29.6099C16.2757 30.0805 16.325 30.3777 16.4606 30.8235C16.5839 31.2198 16.7195 31.4799 17.0524 31.9876C17.336 32.4334 17.5086 32.7678 17.5086 32.8916C17.5086 32.9907 17.5333 32.9907 17.9771 32.8916C19.0374 32.644 19.9128 32.2229 20.3936 31.7028C20.6895 31.3808 20.7635 31.2074 20.7635 30.7616C20.7635 30.4768 20.7512 30.4149 20.6772 30.2415C20.5539 29.969 20.3197 29.7461 19.8142 29.3994C19.1484 28.9412 18.8648 28.5697 18.7908 28.0743C18.7292 27.6533 18.8032 27.3684 19.173 26.5882C19.5553 25.7833 19.6539 25.4489 19.7155 24.6316C19.7525 24.1115 19.8142 23.9009 19.9621 23.7399C20.1224 23.5666 20.258 23.5046 20.6402 23.4551C21.269 23.3684 21.6759 23.2074 21.9964 22.8978C22.28 22.6378 22.4033 22.3777 22.4156 21.9938L22.428 21.709L22.2677 21.5356C21.6882 20.8669 13.6619 12 13.6249 12C13.6126 12 13.8098 12.2353 14.0441 12.5325ZM17.8292 30.1424C17.9648 29.9071 17.8908 29.6099 17.6689 29.4613C17.4593 29.3251 17.1387 29.387 17.1387 29.5728C17.1387 29.6223 17.1634 29.6718 17.2374 29.6966C17.3483 29.7585 17.3606 29.8204 17.2743 29.9567C17.188 30.0929 17.188 30.2167 17.299 30.3034C17.4716 30.4396 17.7059 30.3653 17.8292 30.1424Z" fill="white"/>
<path fill-rule="evenodd" clip-rule="evenodd" d="M22.8226 23.6284C22.5267 23.7151 22.2431 24.0371 22.1568 24.3591C22.1075 24.5572 22.1321 24.9163 22.2184 25.0278C22.3541 25.2012 22.4774 25.2507 22.8226 25.2507C23.5007 25.2507 24.0802 24.9535 24.1418 24.5944C24.2035 24.2971 23.9445 23.8885 23.587 23.7027C23.4021 23.6036 23.0198 23.5665 22.8226 23.6284ZM23.6116 24.2476C23.7103 24.099 23.6733 23.938 23.4884 23.8266C23.1555 23.616 22.65 23.7894 22.65 24.1114C22.65 24.2724 22.9089 24.4458 23.1555 24.4458C23.3157 24.4458 23.5377 24.3467 23.6116 24.2476Z" fill="white"/>
</g>
<defs>
<clipPath id="clip0">
<rect width="20.7501" height="24" fill="white" transform="translate(13.6249 12)"/>
</clipPath>
</defs>
</svg>
