<svg xmlns="http://www.w3.org/2000/svg" viewBox="0 0 48 48"><defs><style>.cls-1{fill:#2775ca;}.cls-2{fill:#fff;}</style></defs><title>USD Coin</title><g id="Layer_2" data-name="Layer 2"><g id="Layer_1-2" data-name="Layer 1"><path class="cls-1" d="M24,48A24,24,0,1,0,0,24,23.94,23.94,0,0,0,24,48Z"/><path class="cls-2" d="M30.6,27.8c0-3.5-2.1-4.7-6.3-5.2-3-.4-3.6-1.2-3.6-2.6s1-2.3,3-2.3c1.8,0,2.8.6,3.3,2.1a.75.75,0,0,0,.7.5h1.6a.68.68,0,0,0,.7-.7v-.1a5,5,0,0,0-4.5-4.1V13c0-.4-.3-.7-.8-.8H23.2c-.4,0-.7.3-.8.8v2.3c-3,.4-4.9,2.4-4.9,4.9,0,3.3,2,4.6,6.2,5.1,2.8.5,3.7,1.1,3.7,2.7s-1.4,2.7-3.3,2.7c-2.6,0-3.5-1.1-3.8-2.6a.73.73,0,0,0-.7-.6H17.9a.68.68,0,0,0-.7.7v.1c.4,2.5,2,4.3,5.3,4.8v2.4c0,.4.3.7.8.8h1.5c.4,0,.7-.3.8-.8V33.1c3-.5,5-2.6,5-5.3Z"/><path class="cls-2" d="M18.9,38.3a15,15,0,0,1,0-28.1,1,1,0,0,0,.6-1V7.8a.76.76,0,0,0-.6-.8.6.6,0,0,0-.4.1,18,18,0,0,0,0,34.3.61.61,0,0,0,.9-.4c.1-.1.1-.2.1-.4V39.2A1.33,1.33,0,0,0,18.9,38.3ZM29.5,7.1a.61.61,0,0,0-.9.4c-.1.1-.1.2-.1.4V9.3a1.33,1.33,0,0,0,.6,1,15,15,0,0,1,0,28.1,1,1,0,0,0-.6,1v1.4a.76.76,0,0,0,.6.8.6.6,0,0,0,.4-.1,18.07,18.07,0,0,0,0-34.4Z"/></g></g></svg>