<svg xmlns="http://www.w3.org/2000/svg" viewBox="0 0 48 48"><defs><style>.cls-1{fill:#50af95;}.cls-2{fill:#fff;}</style></defs><title>Tether</title><g id="Layer_2" data-name="Layer 2"><g id="Layer_1-2" data-name="Layer 1"><circle class="cls-1" cx="24" cy="24" r="24"/><path class="cls-2" d="M12.59,10.15,6,23.94a.27.27,0,0,0,0,.31l17.73,17a.28.28,0,0,0,.38,0l17.73-17a.27.27,0,0,0,0-.31L35.41,10.15a.26.26,0,0,0-.24-.16H12.84a.27.27,0,0,0-.25.16Z"/><path class="cls-1" d="M26.28,25.35h0c-.13,0-.79,0-2.25,0-1.17,0-2,0-2.29,0h0c-4.51-.2-7.87-1-7.87-1.92s3.36-1.73,7.87-1.93v3.07c.3,0,1.14.07,2.31.07,1.4,0,2.1-.06,2.22-.07V21.51c4.5.2,7.86,1,7.86,1.92s-3.36,1.72-7.86,1.92h0Zm0-4.16V18.44h6.28V14.26H15.46v4.18h6.28v2.75c-5.1.23-8.94,1.24-8.94,2.45s3.84,2.22,8.94,2.46v8.79h4.54V26.1c5.09-.24,8.92-1.25,8.92-2.46s-3.83-2.22-8.92-2.45Z"/></g></g></svg>