<svg width="48" height="48" viewBox="0 0 48 48" fill="none" xmlns="http://www.w3.org/2000/svg">
<path d="M24 0C30.3652 0 36.4697 2.52858 40.9706 7.02945C45.4714 11.5303 48 17.6348 48 24C48 30.3652 45.4714 36.4697 40.9706 40.9706C36.4697 45.4714 30.3652 48 24 48C17.6348 48 11.5303 45.4714 7.02945 40.9706C2.52858 36.4697 0 30.3652 0 24C0 17.6348 2.52858 11.5303 7.02945 7.02945C11.5303 2.52858 17.6348 0 24 0Z" fill="#5492F6"/>
<path d="M38.282 33.404C38.6381 33.3033 38.9923 33.1947 39.3605 33.1428C39.4656 33.128 39.5738 33.1037 39.648 33.2021C39.7342 33.3142 39.653 33.4115 39.5987 33.5056C38.8907 34.7348 38.041 35.8768 37.0672 36.9083C35.7278 38.3317 34.1653 39.527 32.4411 40.4474C32.091 40.6341 31.7107 40.7577 31.3177 40.8125C31.2817 40.8176 31.2372 40.8031 31.2177 40.8515H31.0224C30.9922 40.8362 30.9587 40.8283 30.9248 40.8283C30.8909 40.8283 30.8575 40.8362 30.8272 40.8515H30.5929C30.5143 40.8255 30.432 40.8123 30.3492 40.8125C29.9955 40.7898 29.7323 40.6172 29.532 40.3341C29.2922 40.0217 29.2688 39.6703 29.3527 39.3001C29.4585 38.8315 29.6932 38.432 29.9927 38.0665C30.6632 37.2484 31.493 36.617 32.3747 36.0492C33.3998 35.3974 34.4737 34.8258 35.5869 34.3397C36.3596 33.998 37.1426 33.6848 37.9435 33.415C38.0579 33.3783 38.1676 33.3513 38.282 33.404Z" fill="white"/>
<path d="M23.998 7.0367C24.0014 7.02469 24.0014 7.01201 23.998 7H25.3648C25.3702 7.01177 25.3719 7.02491 25.3697 7.03768C25.3675 7.05045 25.3614 7.06224 25.3523 7.07146C25.3249 7.09989 25.2878 7.11691 25.2484 7.1191C24.8789 7.13804 24.5086 7.13804 24.139 7.1191C24.1101 7.1204 24.0814 7.11332 24.0564 7.0987C24.0314 7.08409 24.0111 7.06256 23.998 7.0367Z" fill="#142356"/>
<path d="M41.9971 24.2181V24.921C41.9861 24.927 41.9735 24.9294 41.9611 24.9278C41.9486 24.9262 41.9371 24.9207 41.928 24.912C41.8814 24.8039 41.8574 24.6874 41.8574 24.5697C41.8574 24.452 41.8814 24.3356 41.928 24.2275C41.937 24.2188 41.9486 24.2132 41.961 24.2115C41.9734 24.2098 41.9861 24.2121 41.9971 24.2181V24.2181Z" fill="#2A4A7C"/>
<path d="M6 24.4526V23.9449C6.0108 23.9389 6.02323 23.9364 6.0355 23.9379C6.04778 23.9394 6.05927 23.9447 6.06834 23.9531C6.11168 24.0277 6.13451 24.1125 6.13451 24.1987C6.13451 24.285 6.11168 24.3698 6.06834 24.4444C6.05927 24.4528 6.04778 24.4581 6.0355 24.4596C6.02323 24.461 6.0108 24.4586 6 24.4526Z" fill="#2B4B7D"/>
<path d="M6 25.1911V24.6835C6.01075 24.6773 6.02322 24.6747 6.03554 24.6762C6.04786 24.6777 6.05936 24.6831 6.06834 24.6917C6.11169 24.7662 6.13452 24.8509 6.13452 24.9371C6.13452 25.0233 6.11169 25.108 6.06834 25.1825C6.05941 25.1911 6.04792 25.1966 6.0356 25.1982C6.02328 25.1997 6.01079 25.1972 6 25.1911V25.1911Z" fill="#2A4A7B"/>
<path d="M41.9966 24.2143L41.9661 24.2108C41.8455 24.0761 41.8447 23.9995 41.9634 23.8594C41.9744 23.86 41.9855 23.86 41.9966 23.8594V24.2143Z" fill="#162741"/>
<path d="M41.9656 24.925C41.9762 24.925 41.9867 24.9227 41.9976 24.9219V25.2734C41.9865 25.2734 41.9755 25.2741 41.9645 25.2757C41.845 25.1378 41.845 25.0613 41.9656 24.925Z" fill="#15263F"/>
<path d="M25.366 7.03241C25.366 7.02148 25.366 7.01093 25.3633 7H25.5977C25.5994 7.01033 25.6003 7.02077 25.6004 7.03124C25.5223 7.12183 25.4445 7.12105 25.366 7.03241Z" fill="#0A122E"/>
<path d="M6.03319 23.9386C6.02226 23.9407 6.01113 23.9416 6 23.9413V23.707C6.01093 23.7076 6.02187 23.7076 6.0328 23.707C6.11949 23.7828 6.1191 23.8605 6.03319 23.9386Z" fill="#15253E"/>
<path d="M6.03241 24.6905C6.0218 24.6878 6.01094 24.6863 6 24.6859V24.4516C6.01007 24.4504 6.02001 24.4484 6.02968 24.4453C6.12613 24.5261 6.12496 24.6078 6.03241 24.6905Z" fill="#3F6FB9"/>
<path d="M6 25.1917C6.01138 25.1909 6.02281 25.1917 6.03397 25.194C6.12105 25.2722 6.12183 25.3503 6.03397 25.4284C6.02304 25.4284 6.01211 25.4284 6.00117 25.4284L6 25.1917Z" fill="#15253E"/>
<path d="M30.832 40.848C30.8582 40.8227 30.8932 40.8086 30.9297 40.8086C30.9661 40.8086 31.0011 40.8227 31.0273 40.848H30.832Z" fill="#3F6FB9"/>
<path d="M41.9644 24.92V25.2714C41.8874 27.2265 41.4944 29.1563 40.8007 30.9858C40.7098 31.2252 40.5391 31.3466 40.3322 31.4462C39.9448 31.6337 39.5238 31.6739 39.1033 31.7098C39.0084 31.7945 38.8932 31.7992 38.7737 31.802C38.0822 31.818 37.3988 31.7371 36.7182 31.6294C34.8196 31.3279 32.9695 30.8281 31.1303 30.2794C29.9705 29.9339 28.8232 29.5512 27.6779 29.163C26.8345 28.8772 25.9988 28.5726 25.1628 28.261C25.0734 28.2274 24.9964 28.1876 24.9711 28.0868C22.9651 27.3145 21.0478 26.371 19.2945 25.1191C18.2519 24.3741 17.3085 23.524 16.6025 22.4404C16.0105 21.5321 15.6653 20.5473 15.7231 19.4469C15.759 18.7678 15.9632 18.136 16.2823 17.5389C16.2745 17.4095 16.3096 17.2812 16.3822 17.1738C16.6214 16.7947 16.8951 16.4385 17.1999 16.1097C18.2663 14.9347 19.5589 14.0628 20.9377 13.306C22.9085 12.2244 24.9988 11.4473 27.1597 10.8459C28.2924 10.5291 29.445 10.2882 30.6097 10.1251C31.2786 10.0321 31.9518 9.96263 32.6286 9.99739C33.3314 10.0333 34.0265 10.1169 34.6982 10.3332C34.9543 10.4152 35.1703 10.5741 35.3979 10.7112C36.3777 11.4063 37.1793 12.2853 37.933 13.2076C39.8102 15.5045 41.0415 18.1086 41.627 21.0201C41.8154 21.9571 41.9276 22.9078 41.9625 23.8629C41.9625 23.9801 41.9625 24.0972 41.9652 24.2143L41.9644 24.92Z" fill="white"/>
<path d="M6.03203 25.4268V25.1926C6.03203 25.0244 6.03203 24.8561 6.03203 24.6876C6.03203 24.6062 6.03112 24.5244 6.0293 24.4424L6.03281 23.9383V23.704C6.11881 21.8695 6.48585 20.0591 7.12111 18.3359C7.37024 18.6507 7.59711 18.9482 7.83531 19.2341C8.71431 20.2958 9.61243 21.3427 10.475 22.4173C11.8855 24.1745 13.0702 26.0879 14.2464 28.0045C15.1383 29.4583 15.8927 30.9788 16.437 32.6001C16.9345 34.0684 17.158 35.6156 17.0966 37.1646C17.0575 38.165 17.0399 39.1659 16.9306 40.1616C16.913 40.3229 16.8798 40.4822 16.858 40.6431C16.8412 40.7657 16.776 40.802 16.6561 40.7919C16.3199 40.7622 16.0091 40.6497 15.7111 40.5037C14.2694 39.7977 12.9808 38.8679 11.8062 37.7792C9.01421 35.1866 7.21222 32.0273 6.40026 28.3012C6.1984 27.3549 6.07523 26.3935 6.03203 25.4268V25.4268Z" fill="white"/>
<path d="M24.9675 28.0898C28.1543 29.2754 31.3716 30.3656 34.6868 31.14C35.8974 31.4223 37.1145 31.6523 38.3574 31.7101C38.6038 31.7214 38.851 31.7124 39.0994 31.7128C38.8676 32.2496 38.6053 32.7727 38.3137 33.2795C38.2922 33.3162 38.2501 33.3501 38.2821 33.4017C36.3206 34.0405 34.4506 34.8797 32.6914 35.959C31.8241 36.4912 30.9975 37.0789 30.3094 37.8361C29.8666 38.3222 29.4921 38.8486 29.4113 39.5304C29.3781 39.8088 29.4621 40.0556 29.5855 40.2958C28.9466 40.5203 28.307 40.7433 27.6283 40.8206C26.7595 40.7566 26.0203 40.3661 25.333 39.8737C23.5813 38.6194 22.3263 36.984 21.6074 34.9453C21.0255 33.2943 21.334 31.7995 22.3743 30.4281C23.0428 29.5479 23.882 28.8536 24.7875 28.2324C24.8488 28.189 24.9246 28.1597 24.9675 28.0898Z" fill="#2845AD"/>
<path d="M35.4007 10.7081C34.9102 10.4984 34.412 10.3176 33.8829 10.2255C32.9066 10.0521 31.9304 10.0486 30.9518 10.1735C28.1325 10.5339 25.4366 11.3345 22.8378 12.4712C21.2599 13.1612 19.7588 13.9894 18.4171 15.0808C17.6412 15.7122 16.9465 16.4194 16.4256 17.2836C16.3756 17.3664 16.3299 17.4515 16.2823 17.5358C16.2472 17.4507 16.1652 17.4187 16.0968 17.3706C15.2155 16.7388 14.4087 16.0356 13.8769 15.0668C13.8542 15.0254 13.8277 14.9887 13.7742 14.9922C13.7629 14.8563 13.8831 14.8438 13.962 14.804C14.5528 14.5041 15.1491 14.2182 15.7141 13.8668C16.4002 13.4443 17.0582 12.9862 17.6639 12.4501C18.1104 12.0624 18.5021 11.6157 18.8283 11.1224C19.0509 10.7771 19.1964 10.3877 19.2547 9.98101C19.341 9.4066 19.0462 8.93098 18.4976 8.72519C18.3629 8.67762 18.2259 8.63695 18.0871 8.60336C18.009 8.58306 17.9337 8.56431 17.9095 8.47411C19.0356 7.95515 20.2134 7.59395 21.4262 7.34559C22.2737 7.1717 23.1339 7.0667 23.9984 7.03164L25.3698 7.02734H25.6041C28.4359 7.16792 31.0768 7.94812 33.5185 9.39293C34.1403 9.75998 34.7369 10.1682 35.3042 10.6148C35.337 10.6425 35.3663 10.6769 35.4007 10.7081Z" fill="#2845AD"/>
<path d="M17.9081 8.47945C18.1129 8.5154 18.3145 8.56763 18.511 8.63565C19.1503 8.87775 19.4482 9.39983 19.331 10.0715C19.2166 10.7267 18.8945 11.2746 18.4646 11.7701C17.5774 12.7924 16.4777 13.5382 15.3156 14.2044C14.8143 14.4918 14.2941 14.7441 13.7728 14.9924C12.3112 15.6586 10.8121 16.2154 9.23453 16.5399C8.83389 16.6223 8.43091 16.6872 8.01777 16.6528C7.87954 16.6411 7.8565 16.6036 7.92132 16.4771C9.50983 13.384 11.7805 10.9243 14.7611 9.13157C15.6897 8.57316 16.7101 8.36542 17.7913 8.47242C17.83 8.47749 17.8691 8.4775 17.9081 8.47945Z" fill="white"/>
</svg>
