<svg xmlns="http://www.w3.org/2000/svg" viewBox="0 0 48 48"><defs><style>.cls-1{fill:#282138;}.cls-2{fill:#5a5564;}.cls-3{fill:#f09242;}.cls-4{fill:#fff;}</style></defs><title>WBTC</title><g id="Layer_2" data-name="Layer 2"><g id="Layer_1-2" data-name="Layer 1"><circle class="cls-1" cx="24" cy="24" r="24"/><g id="Layer_2-2" data-name="Layer 2"><g id="Layer_1-2-2" data-name="Layer 1-2"><g id="Page-1"><g id="wbtc_colour" data-name="wbtc colour"><path id="Shape" class="cls-2" d="M34.28,14.64l-.85.85a12,12,0,0,1,0,16.26l.85.85a13.27,13.27,0,0,0,0-18Z"/><path id="Shape-2" class="cls-2" d="M16.38,14.71a12,12,0,0,1,16.26,0l.85-.85a13.25,13.25,0,0,0-18,0Z"/><path id="Shape-3" class="cls-2" d="M15.58,31.76a12,12,0,0,1,0-16.26l-.85-.85a13.26,13.26,0,0,0,0,18Z"/><path id="Shape-4" class="cls-2" d="M32.63,32.54a12,12,0,0,1-16.26,0l-.86.86a13.28,13.28,0,0,0,18,0Z"/><path id="Shape-5" class="cls-3" d="M29.87,20.79c-.17-1.78-1.7-2.37-3.64-2.55V15.79H24.74v2.4h-1.2v-2.4H22.05v2.46H19v1.61s1.11,0,1.09,0a.76.76,0,0,1,.85.65v6.75a.5.5,0,0,1-.18.36.48.48,0,0,1-.38.13s-1.09,0-1.09,0L19,29.54h3v2.51h1.5V29.58h1.2V32h1.5V29.56c2.53-.15,4.3-.78,4.52-3.15a2.56,2.56,0,0,0-2.15-3.1A2.3,2.3,0,0,0,29.87,20.79Zm-2.1,5.33c0,1.86-3.18,1.65-4.2,1.65V24.46C24.59,24.47,27.77,24.17,27.77,26.12Zm-.69-4.65c0,1.7-2.66,1.49-3.51,1.49V20C24.42,20,27.08,19.69,27.08,21.47Z"/><path id="Shape-6" class="cls-4" d="M24.5,39.13A15.5,15.5,0,1,1,40,23.63a15.5,15.5,0,0,1-15.5,15.5Zm0-29.79A14.28,14.28,0,1,0,38.79,23.63,14.27,14.27,0,0,0,24.5,9.34Z"/></g></g></g></g></g></g></svg>