<svg xmlns="http://www.w3.org/2000/svg" viewBox="0 0 48 48"><defs><style>.cls-1{fill:#244b81;}.cls-2{fill:#fff;}.cls-3{fill:#b7b5b1;}</style></defs><title>Xin Fin</title><g id="Layer_2" data-name="Layer 2"><g id="Layer_1-2" data-name="Layer 1"><circle class="cls-1" cx="24" cy="24" r="24"/><circle class="cls-2" cx="24.5" cy="24.5" r="8.5"/><g id="Shape_1" data-name="Shape 1"><path class="cls-3" d="M39,22.59C35.6,2.92,9.91,6.73,9.45,22.59c1.48.77,2.42,1.24,2.42,1.24s-.79.47-2.43,1.52c3,19.29,28.21,16.49,29.56,0-1.61-1-2.49-1.51-2.49-1.51S37.27,23.47,39,22.59ZM26.36,29.47,24,25.32l-2.46,4.15-1.85-.13,3.49-5.88L20,18.39l1.89-.17L24.12,22l2.24-3.59,1.76,0-2.92,5,3.22,6Z"/></g><g id="Shape_1-2" data-name="Shape 1"><path class="cls-1" d="M37.8,21.82c-4.6-17.48-25.71-12.75-27.15,0,2.93,1.65,3.59,2,3.59,2l-3.6,2.29c3.14,16.81,25.91,13.58,27.16,0l-3.66-2.28S37.24,22.12,37.8,21.82ZM26.36,29.48,24,25.33,21.5,29.48l-1.86-.13,3.49-5.88L20,18.4l1.89-.17L24.12,22l2.24-3.6,1.76.05-2.92,5,3.22,6Z"/></g></g></g></svg>