<svg xmlns="http://www.w3.org/2000/svg" viewBox="0 0 48 48"><defs><style>.cls-1{fill:#070a0e;}.cls-2{fill:#fff;}.cls-3{fill:#f7a800;}.cls-4{fill:#67b2e8;}.cls-5{fill:#00c4b3;}</style></defs><title>XEM</title><g id="Layer_2" data-name="Layer 2"><g id="Layer_1-2" data-name="Layer 1"><circle class="cls-1" cx="24" cy="24" r="24"/><path class="cls-2" d="M24.5,37l-.15-.07A25.08,25.08,0,0,1,12.81,21.8a23.44,23.44,0,0,1-.62-3.11A26,26,0,0,1,12,15.51c0-.18,0-.16.14-.24a24.84,24.84,0,0,1,6.69-2.62,25.85,25.85,0,0,1,2.63-.47A26.38,26.38,0,0,1,25.1,12a20,20,0,0,1,2,.13,25.17,25.17,0,0,1,9.66,3.08l.13.07a.12.12,0,0,1,.07.12v.18c0,.62,0,1.23-.08,1.85a23.09,23.09,0,0,1-.36,2.63,24.22,24.22,0,0,1-1.7,5.42A25.21,25.21,0,0,1,24.7,36.87l-.2.13ZM13.12,16.12v.14a20.83,20.83,0,0,0,.17,2.62,20.83,20.83,0,0,0,.41,2.34,2.32,2.32,0,0,0,.13.4,5.32,5.32,0,0,0,9.94-.79A7,7,0,0,0,24,19.26a7.34,7.34,0,0,1,.11-1,6.29,6.29,0,0,1,3.77-4.66l.34-.13s0,0,0,0A20.82,20.82,0,0,0,25,13.07a22.73,22.73,0,0,0-11.85,3.05ZM30.75,30.44a.45.45,0,0,0,.12-.12,22.77,22.77,0,0,0,1.35-1.87,22.52,22.52,0,0,0,3.13-7.52,20.15,20.15,0,0,0,.42-2.77c.06-.63.08-1.27.08-1.91a.53.53,0,0,0,0-.13L35.66,16c-.49-.28-1-.54-1.49-.78a22.21,22.21,0,0,0-2.26-.91,5.25,5.25,0,0,0-2.86-.09,5.31,5.31,0,0,0-1.54,9.67l.26.17A6.09,6.09,0,0,1,30,26.45a6,6,0,0,1,.76,3.34,4.93,4.93,0,0,1,0,.65ZM24.5,35.78l.15-.09a22.82,22.82,0,0,0,4.16-3.14.61.61,0,0,0,.19-.26q.13-.24.24-.48a5.24,5.24,0,0,0,.34-3.87,5.32,5.32,0,0,0-5.76-3.75,5,5,0,0,0-2,.67,6.39,6.39,0,0,1-3.81.81,6.33,6.33,0,0,1-1.92-.5,6.62,6.62,0,0,1-1.33-.8.81.81,0,0,0-.12-.08.5.5,0,0,0,0,.12,23.66,23.66,0,0,0,2,3.89A22.76,22.76,0,0,0,23.17,35c.6.38,1.16.73,1.33.8Z"/><path class="cls-3" d="M13.12,16.12A21.87,21.87,0,0,1,17.94,14a22.79,22.79,0,0,1,7-1,19.81,19.81,0,0,1,3.28.32s0,0,0,0-.23.08-.33.13a6.32,6.32,0,0,0-3.78,4.66,7.5,7.5,0,0,0-.11,1,6,6,0,0,1-.21,1.57,5.33,5.33,0,0,1-10,.79,1.56,1.56,0,0,1-.13-.4,22.24,22.24,0,0,1-.57-5,.76.76,0,0,0,0-.15Z"/><path class="cls-4" d="M30.75,30.44c0-.23.05-.43.06-.65a6.24,6.24,0,0,0-.75-3.34,6.15,6.15,0,0,0-2.26-2.38l-.27-.17a5.16,5.16,0,0,1-2.42-3.56,5.32,5.32,0,0,1,6.82-6,18.39,18.39,0,0,1,2.26.91c.52.24,1,.5,1.5.78l.18.11s0,.08,0,.13c0,.63,0,1.28-.09,1.91a23.11,23.11,0,0,1-.41,2.77,22.34,22.34,0,0,1-3.14,7.52,20.63,20.63,0,0,1-1.35,1.87A.94.94,0,0,1,30.75,30.44Z"/><path class="cls-5" d="M24.5,35.78a12.18,12.18,0,0,1-1.32-.8,23,23,0,0,1-3.61-3,21.91,21.91,0,0,1-2.91-3.68,21.57,21.57,0,0,1-2-3.89.68.68,0,0,1,0-.12l.12.08a6.51,6.51,0,0,0,1.34.8,6.27,6.27,0,0,0,1.91.5,6.43,6.43,0,0,0,3.81-.81,5.44,5.44,0,0,1,2-.67,5.31,5.31,0,0,1,5.76,3.75,5.2,5.2,0,0,1-.33,3.87l-.24.48a.83.83,0,0,1-.19.26,23.53,23.53,0,0,1-4.16,3.14l-.17.09Z"/></g></g></svg>