<svg width="48" height="48" viewBox="0 0 48 48" fill="none" xmlns="http://www.w3.org/2000/svg">
<circle cx="24" cy="24" r="24" fill="black"/>
<path d="M31.1772 17.7808L28.769 19.0024L17.1401 24.8994C17.1008 24.6008 17.081 24.3 17.0809 23.9988C17.0825 22.7973 17.3993 21.6169 18.0001 20.5748C18.6009 19.5327 19.4647 18.6649 20.5059 18.0574C21.5472 17.4499 22.7298 17.1238 23.9367 17.1113C25.1435 17.0988 26.3327 17.4005 27.3864 17.9864L28.7648 17.2872L28.9704 17.1827C27.7077 16.2703 26.2162 15.7232 24.6607 15.6019C23.1052 15.4806 21.5463 15.7899 20.1563 16.4955C18.7663 17.2011 17.5993 18.2756 16.7844 19.6002C15.9694 20.9248 15.5382 22.448 15.5383 24.0013C15.5383 24.2159 15.5465 24.4296 15.5629 24.6424C15.5858 24.9439 15.5186 25.2453 15.3699 25.5088C15.2211 25.7724 14.9974 25.9862 14.7269 26.1234L14 26.4924V28.2135L16.14 27.1276L16.833 26.7755L17.5158 26.4292L29.7751 20.2104L31.1526 19.512L34 18.0673V16.347L31.1772 17.7808Z" fill="white"/>
<path d="M34 19.7896L18.2122 27.7928L16.8347 28.4929L14 29.9309V31.6504L16.8152 30.2224L19.2234 29.0009L30.8641 23.0953C30.9035 23.3959 30.9232 23.6987 30.9233 24.0018C30.9226 25.2048 30.6058 26.3866 30.0045 27.43C29.4031 28.4735 28.5381 29.3421 27.4954 29.9499C26.4526 30.5576 25.2683 30.8832 24.06 30.8943C22.8518 30.9055 21.6616 30.6018 20.6077 30.0135L20.5231 30.0581L19.0288 30.8163C20.2912 31.7288 21.7824 32.2761 23.3377 32.3977C24.8929 32.5192 26.4516 32.2104 27.8416 31.5053C29.2316 30.8001 30.3988 29.7261 31.2141 28.4019C32.0294 27.0778 32.4612 25.555 32.4617 24.0018C32.4617 23.7853 32.4532 23.5688 32.4371 23.3548C32.4143 23.0535 32.4813 22.7521 32.6299 22.4886C32.7785 22.2251 33.002 22.0112 33.2723 21.8738L34 21.5048V19.7896Z" fill="white"/>
</svg>
