<svg width="48" height="48" viewBox="0 0 48 48" fill="none" xmlns="http://www.w3.org/2000/svg">
<circle cx="24" cy="24" r="24" fill="#F26822"/>
<g clip-path="url(#clip0)">
<path d="M34.0006 23.999C34.0006 29.5211 29.524 33.998 24.0009 33.998C18.4778 33.998 14.0011 29.5211 14.0011 23.999C14.0011 18.4769 18.4779 14 24.0009 14C29.5238 14 34.0006 18.4765 34.0006 23.999Z" fill="#F26822"/>
<path d="M24.0004 14C18.4793 14 13.9947 18.4832 14.0017 23.9987C14.0031 25.1022 14.1791 26.1636 14.5094 27.1565H17.5012V18.7451L24.0004 25.2436L30.4993 18.7451V27.1567H33.4918C33.8226 26.1639 33.9976 25.1024 33.9996 23.9989C34.009 18.4776 29.5221 14.0013 24.0004 14.0013V14Z" fill="white"/>
<path d="M22.5053 26.7375L19.669 23.9014V29.1943H17.5005L15.4543 29.1947C17.2095 32.074 20.3815 34 24 34C27.6184 34 30.7906 32.0735 32.5461 29.1942H28.3303V23.9014L25.4938 26.7375L23.9996 28.2315L22.5054 26.7375H22.5053Z" fill="white"/>
</g>
<defs>
<clipPath id="clip0">
<rect width="20" height="20" fill="white" transform="translate(14 14)"/>
</clipPath>
</defs>
</svg>
