<svg width="48" height="48" viewBox="0 0 48 48" fill="none" xmlns="http://www.w3.org/2000/svg">
<circle cx="24" cy="24" r="24" fill="#00A9E4"/>
<path d="M29.9612 26.2053C29.2709 25.797 28.4936 25.6787 27.7236 25.6511C27.0776 25.628 26.1138 25.2039 26.1138 24.0001C26.1138 23.1031 26.8236 22.3812 27.724 22.349C28.4939 22.3215 29.2711 22.203 29.9612 21.7948C30.5811 21.4282 31.0958 20.9009 31.4537 20.2658C31.8116 19.6308 32 18.9105 32 18.1772C32 17.4439 31.8116 16.7236 31.4537 16.0886C31.0958 15.4536 30.581 14.9262 29.9612 14.5596C29.3413 14.193 28.6381 14 27.9223 14C27.2066 14 26.5034 14.193 25.8835 14.5597C25.2637 14.9263 24.7489 15.4537 24.3911 16.0887C24.0332 16.7238 23.8448 17.4441 23.8448 18.1774C23.8448 18.9867 24.1258 19.7315 24.4843 20.4223C24.7859 21.0033 24.9385 22.0816 23.9042 22.6933C23.1349 23.1483 22.1747 22.8602 21.6952 22.0739C21.2901 21.4098 20.801 20.7875 20.1164 20.3825C19.4965 20.0158 18.7933 19.8228 18.0776 19.8228C17.3618 19.8228 16.6587 20.0158 16.0388 20.3825C15.4189 20.7491 14.9042 21.2764 14.5463 21.9114C14.1884 22.5464 14 23.2668 14 24C14 24.7333 14.1884 25.4536 14.5463 26.0886C14.9042 26.7236 15.4189 27.251 16.0388 27.6176C16.6587 27.9842 17.3618 28.1772 18.0776 28.1772C18.7933 28.1772 19.4965 27.9842 20.1164 27.6176C20.8008 27.2127 21.2899 26.5909 21.6947 25.9271C22.0272 25.3821 22.8575 24.6874 23.9042 25.3069C24.6724 25.7616 24.9098 26.7578 24.484 27.5783C24.1255 28.269 23.8449 29.0136 23.8449 29.8228C23.8449 30.5561 24.0333 31.2764 24.3912 31.9114C24.749 32.5464 25.2638 33.0737 25.8836 33.4404C26.5035 33.807 27.2067 34 27.9224 34C28.6382 34 29.3413 33.807 29.9612 33.4404C30.581 33.0737 31.0958 32.5464 31.4537 31.9114C31.8115 31.2764 31.9999 30.5561 31.9999 29.8228C31.9999 29.0896 31.8115 28.3693 31.4537 27.7343C31.0958 27.0992 30.5811 26.5719 29.9612 26.2053Z" fill="white"/>
</svg>
