<svg width="48" height="48" viewBox="0 0 48 48" fill="none" xmlns="http://www.w3.org/2000/svg">
<circle cx="24" cy="24" r="24" fill="#2C7DF7"/>
<g clip-path="url(#clip0)">
<path d="M26.1437 33.9999C24.7165 33.9999 23.6749 33.6561 23.0186 32.9686C22.4108 32.3867 22.058 31.5877 22.0375 30.7464C22.0301 30.4908 22.0893 30.2377 22.2094 30.012C22.3213 29.8169 22.483 29.655 22.678 29.5429C22.9047 29.4299 23.1545 29.371 23.4077 29.371C23.661 29.371 23.9108 29.4299 24.1374 29.5429C24.3321 29.6546 24.493 29.8166 24.6035 30.012C24.727 30.2366 24.7884 30.4901 24.7815 30.7464C24.7942 31.0525 24.7064 31.3543 24.5315 31.6058C24.3857 31.8111 24.1773 31.9636 23.9375 32.0405C24.172 32.339 24.5038 32.5458 24.875 32.6249C25.2904 32.7455 25.7206 32.8076 26.1531 32.8092C26.7258 32.8142 27.2866 32.6465 27.7625 32.328C28.2562 31.9792 28.6244 31.4806 28.8125 30.9061C29.0509 30.2224 29.1673 29.5021 29.1563 28.7781C29.1755 28.0232 29.0481 27.2719 28.7812 26.5655C28.5805 26.0006 28.1994 25.5174 27.6969 25.1905C27.2297 24.8949 26.6875 24.7398 26.1347 24.7437C25.653 24.7845 25.1885 24.9422 24.7815 25.2031L23.7781 25.7062V25.2031L28.2874 19.1538H22.0375V25.4312C22.0198 25.8842 22.1397 26.3319 22.3812 26.7156C22.4981 26.8827 22.6562 27.0169 22.8401 27.105C23.0241 27.1931 23.2277 27.2323 23.4312 27.2186C23.8072 27.211 24.1709 27.0829 24.4686 26.853C24.8061 26.6057 25.0998 26.3036 25.3374 25.9593C25.3588 25.8989 25.3983 25.8465 25.4504 25.8094C25.4923 25.7732 25.5457 25.7532 25.6011 25.7531C25.7096 25.763 25.8124 25.8067 25.8949 25.878C25.9993 25.9947 26.0562 26.1464 26.0542 26.303C26.0421 26.4083 26.0233 26.5126 25.9979 26.6155C25.7759 27.1529 25.4038 27.6149 24.926 27.9463C24.4823 28.2466 23.9582 28.4058 23.4224 28.4031C22.0692 28.4031 21.1318 28.1364 20.6101 27.6031C20.342 27.3083 20.1353 26.963 20.0022 26.5874C19.8691 26.2117 19.8123 25.8133 19.8351 25.4155V19.1538H16.6562V17.9874H19.8499V15.3281L19.1187 14.5964V14H21.2405L22.0375 14.4126V17.9874L30.2936 17.9623L31.1156 18.7873L26.0531 23.8744C26.3589 23.7514 26.681 23.6735 27.0092 23.6431C27.6589 23.6716 28.2928 23.8525 28.8596 24.1713C29.5159 24.4833 30.0691 24.9769 30.4534 25.5937C30.7978 26.1158 31.0416 26.6976 31.1722 27.3093C31.2796 27.7918 31.3372 28.284 31.3441 28.7782C31.3474 29.7214 31.1336 30.6527 30.7191 31.5C30.326 32.3204 29.6645 32.982 28.844 33.375C28.0042 33.7889 27.08 34.0027 26.1437 33.9999Z" fill="white"/>
</g>
<defs>
<clipPath id="clip0">
<rect width="14.6876" height="20" fill="white" transform="translate(16.6562 14)"/>
</clipPath>
</defs>
</svg>
