<svg xmlns="http://www.w3.org/2000/svg" viewBox="0 0 48 48"><defs><style>.cls-1{fill:#006ae3;}.cls-2{fill:#fff;}</style></defs><title>Yearn</title><g id="Layer_2" data-name="Layer 2"><g id="Layer_1-2" data-name="Layer 1"><g id="Layer_2-2" data-name="Layer 2"><g id="Layer_1-2-2" data-name="Layer 1-2"><path id="SVGID" class="cls-1" d="M24,0A24,24,0,1,1,0,24,24,24,0,0,1,24,0Z"/><polygon id="SVGID-2" class="cls-2" points="23.01 34.12 23.01 14.15 25.19 14.15 25.19 34.12 23.01 34.12"/><path id="SVGID-3" class="cls-2" d="M34.08,20.8l-6.72,1.78-1.49-7,2-.45.79,3.31a5.44,5.44,0,0,0-.6-6.06,4.77,4.77,0,0,0-3.7-1.9A5.12,5.12,0,0,0,18.7,14.6c-.42,2.45.05,4.27,3.22,6.65l-.18,2.65s-3.54-2.49-4.45-4.23a7.6,7.6,0,0,1,.27-7.92c1.17-1.9,3.49-3.72,7.58-3.53a7.34,7.34,0,0,1,6.29,8.46,12.65,12.65,0,0,1-.71,2.56l2.76-.61Z"/><path id="SVGID-4" class="cls-2" d="M30.24,36.43c-1.22,1.86-3.59,3.63-7.67,3.33a7.36,7.36,0,0,1-6.06-8.63,13.07,13.07,0,0,1,.77-2.54l-2.77.54L14,27l6.76-1.61,1.32,7-2,.4-.71-3.33a5.45,5.45,0,0,0,.45,6.08,4.74,4.74,0,0,0,3.65,2,5.11,5.11,0,0,0,5.75-3.94c.48-2.44.06-4.27-3-6.74l.25-2.65s3.47,2.59,4.33,4.36a7.63,7.63,0,0,1-.48,7.91Z"/></g></g></g></g></svg>