<svg xmlns="http://www.w3.org/2000/svg" xmlns:xlink="http://www.w3.org/1999/xlink" viewBox="0 0 48 48"><defs><style>.cls-1{fill:url(#linear-gradient);}</style><linearGradient id="linear-gradient" x1="733.45" y1="355.11" x2="733.77" y2="355.11" gradientTransform="matrix(86.56, -86.56, -86.56, -86.56, -32737.36, 94260.56)" gradientUnits="userSpaceOnUse"><stop offset="0" stop-color="#cf8724"/><stop offset="1" stop-color="#fdce58"/></linearGradient></defs><title>ZEC</title><g id="Layer_2" data-name="Layer 2"><g id="Layer_1-2" data-name="Layer 1"><g id="Layer_2-2" data-name="Layer 2"><g id="Layer_1-2-2" data-name="Layer 1-2"><path class="cls-1" d="M24.25,44.11A19.86,19.86,0,1,1,44.11,24.25,19.9,19.9,0,0,1,24.25,44.11Z"/><path d="M24,48A24,24,0,1,1,48,24,24.07,24.07,0,0,1,24,48ZM24,5.34A18.66,18.66,0,1,0,42.66,24,18.72,18.72,0,0,0,24,5.34Z"/><path d="M22.44,30.5h10.4v5.2H26.72v4.4H21.38V35.84H15a21.22,21.22,0,0,1,.14-5.06c.13-.8,1.06-1.6,1.73-2.4,2-2.4,4-4.8,6.14-7.2.8-.93,1.59-1.73,2.53-2.8h-10v-5.2h5.86V8.78h5.2V13H33a21.25,21.25,0,0,1-.13,5.06c-.14.8-1.07,1.6-1.74,2.4-2,2.41-4,4.81-6.14,7.21C24.17,28.63,23.37,29.56,22.44,30.5Z"/></g></g></g></g></svg>