<svg width="48" height="48" viewBox="0 0 48 48" fill="none" xmlns="http://www.w3.org/2000/svg">
<path d="M24 0C30.3652 0 36.4697 2.52858 40.9706 7.02945C45.4714 11.5303 48 17.6348 48 24C48 30.3652 45.4714 36.4697 40.9706 40.9706C36.4697 45.4714 30.3652 48 24 48C17.6348 48 11.5303 45.4714 7.02945 40.9706C2.52858 36.4697 0 30.3652 0 24C0 17.6348 2.52858 11.5303 7.02945 7.02945C11.5303 2.52858 17.6348 0 24 0Z" fill="#041742"/>
<path fill-rule="evenodd" clip-rule="evenodd" d="M22.7202 10.0228C22.5482 10.0403 22.3859 10.0679 22.3595 10.0839C22.3331 10.0998 22.1237 10.1285 21.894 10.1475C21.6644 10.1665 21.3843 10.209 21.2717 10.242C21.1591 10.2751 20.9655 10.32 20.8416 10.3418C20.5827 10.3874 20.1812 10.4874 20.0019 10.5509C19.9343 10.575 19.7961 10.6192 19.6947 10.6493C19.3505 10.7515 19.1011 10.8384 18.9342 10.9141C18.8426 10.9557 18.7518 10.9897 18.7326 10.9897C18.6329 10.9897 17.0547 11.7617 16.725 11.9719C16.0601 12.3954 15.8747 12.522 15.4673 12.8299C14.4641 13.5884 13.1079 14.9632 12.5788 15.7581C12.5513 15.7995 12.4639 15.9237 12.3847 16.0343C12.3055 16.1448 12.203 16.2986 12.157 16.376C12.1112 16.4533 12.0418 16.5648 12.003 16.6237C11.8562 16.8463 11.6756 17.1763 11.4347 17.6622C11.0866 18.3639 11.0207 18.5092 10.9876 18.647C10.9716 18.7134 10.9426 18.7876 10.9231 18.8121C10.8623 18.8884 10.6468 19.525 10.5299 19.9735C10.4953 20.1061 10.442 20.278 10.4113 20.3554C10.3805 20.4327 10.3386 20.6136 10.3182 20.7573C10.2978 20.901 10.2597 21.0727 10.2337 21.1387C10.2076 21.2047 10.1762 21.4127 10.1641 21.6009C10.1518 21.7892 10.1115 22.0426 10.0747 22.1642C9.97512 22.4916 9.97512 24.9721 10.0747 25.2995C10.1115 25.4211 10.1518 25.6745 10.1641 25.8627C10.1762 26.0509 10.2076 26.259 10.2337 26.325C10.2597 26.391 10.2978 26.5626 10.3182 26.7063C10.3386 26.85 10.3805 27.0309 10.4113 27.1083C10.442 27.1857 10.4953 27.3575 10.5299 27.4902C10.6468 27.9387 10.8623 28.5753 10.9231 28.6515C10.9426 28.6761 10.9716 28.7503 10.9876 28.8166C11.0207 28.9545 11.0866 29.0997 11.4347 29.8014C11.6756 30.2874 11.8562 30.6173 12.003 30.84C12.0418 30.8989 12.1112 31.0103 12.157 31.0877C12.2362 31.2209 12.4848 31.5805 12.5617 31.6731C12.5813 31.6966 12.6197 31.7569 12.647 31.8071C12.7144 31.9306 12.9558 32.0251 13.1247 31.994C13.296 31.9625 13.533 31.6502 14.0215 30.8124C14.6925 29.6617 16.6851 27.6469 18.1198 26.6687C18.426 26.4598 18.8442 26.1838 18.8544 26.1838C18.8593 26.1838 19.0273 26.0853 19.2278 25.965C19.7362 25.6598 21.2991 24.8975 21.4165 24.8975C21.4425 24.8975 21.5128 24.8726 21.5726 24.8422C21.7562 24.7486 22.3793 24.5328 22.7463 24.4357C22.859 24.4058 23.0064 24.363 23.074 24.3404C23.3167 24.2594 23.6928 24.1676 23.9342 24.1305C24.0694 24.1097 24.2629 24.0672 24.3643 24.0361C24.4657 24.0051 24.6869 23.9679 24.8558 23.9535C25.0248 23.9392 25.2644 23.8977 25.3883 23.8613C25.7273 23.7617 29.2703 23.7629 29.6074 23.8628C29.7313 23.8995 29.9525 23.9401 30.0989 23.9529C30.2454 23.9659 30.4685 24.0049 30.5949 24.0396C31.1198 24.1841 31.3877 23.7377 31.2017 23.0284C31.1786 22.94 31.1431 22.7251 31.1231 22.5511C31.103 22.3769 31.06 22.1508 31.0275 22.0486C30.9951 21.9463 30.928 21.7361 30.8784 21.5813C30.6392 20.8335 30.165 19.9558 29.7125 19.4237C29.6434 19.3424 29.5408 19.2188 29.4845 19.1491C28.7079 18.1881 27.0234 17.1579 25.8594 16.932C25.7467 16.9102 25.5624 16.862 25.4498 16.825C25.1469 16.7257 22.9453 16.7258 22.5825 16.8251C22.4473 16.8622 22.2538 16.9107 22.1524 16.9328C21.9425 16.9785 21.6693 17.0665 21.3127 17.2031C19.7335 17.8079 18.2422 19.1726 17.5164 20.6769C17.3342 21.0547 17.196 21.3878 17.196 21.4496C17.196 21.4821 17.1674 21.5652 17.1322 21.6342C17.0971 21.7032 17.0586 21.8281 17.0467 21.9118C17.0348 21.9953 16.9971 22.1361 16.963 22.2245C16.9287 22.3129 16.8834 22.6023 16.8621 22.8676C16.8408 23.1329 16.8128 23.4647 16.7999 23.6049C16.7869 23.7451 16.799 23.9976 16.8268 24.1661C16.8835 24.5115 16.9198 24.4446 16.4953 24.7769C16.1733 25.0291 15.6271 25.5081 15.2378 25.8799C14.7897 26.3078 14.77 26.3133 14.7278 26.023C14.7102 25.9014 14.6695 25.7296 14.6376 25.6412C14.6056 25.5527 14.5677 25.3266 14.5533 25.1387C14.5388 24.9508 14.5009 24.6737 14.4689 24.5231C14.3932 24.1671 14.3934 23.2951 14.4692 22.9406C14.5015 22.7899 14.5407 22.5038 14.5564 22.3049C14.572 22.1059 14.609 21.885 14.6384 21.814C14.6678 21.743 14.7035 21.5983 14.7177 21.4924C14.7319 21.3866 14.7682 21.2367 14.7984 21.1593C14.8287 21.0819 14.894 20.892 14.9435 20.7372C15.0627 20.3649 15.3689 19.6695 15.5419 19.3785C15.6181 19.2502 15.6804 19.1316 15.6804 19.115C15.6804 19.0835 16.1467 18.3885 16.3989 18.0441C16.7602 17.5507 17.5498 16.7736 18.1619 16.309C18.3899 16.136 18.9955 15.7328 19.0274 15.7328C19.0416 15.7328 19.0824 15.7071 19.118 15.6755C19.2073 15.5965 20.2437 15.0897 20.316 15.0897C20.3482 15.0897 20.3922 15.073 20.4136 15.0527C20.4592 15.0093 20.8567 14.8667 21.1488 14.7889C21.2615 14.759 21.4089 14.7157 21.4765 14.6927C21.7491 14.6002 22.1573 14.5195 22.6234 14.4659C22.8938 14.4348 23.1887 14.3911 23.2788 14.3687C23.491 14.3158 24.5003 14.3158 24.7125 14.3687C24.8026 14.3911 25.0975 14.4348 25.3679 14.4659C25.8352 14.5196 26.2448 14.6007 26.5148 14.693C26.5824 14.7162 26.7114 14.7521 26.8015 14.7731C26.9594 14.8098 27.283 14.9222 27.5388 15.029C27.6064 15.0572 27.7999 15.1391 27.9689 15.2111C28.4922 15.4338 28.5106 15.4286 29.5779 14.7604C29.6729 14.7008 29.8429 14.5958 29.9555 14.5269C30.0682 14.4581 30.2384 14.3531 30.3338 14.2935C30.4293 14.234 30.6689 14.0875 30.8663 13.9681C32.2795 13.1131 32.3275 13.07 32.2346 12.7401C32.1808 12.5485 32.2188 12.5786 31.2663 11.9719C30.9366 11.7617 29.3584 10.9897 29.2587 10.9897C29.2394 10.9897 29.1487 10.9557 29.0571 10.9141C28.8901 10.8384 28.6408 10.7515 28.2966 10.6493C28.1952 10.6192 28.057 10.575 27.9894 10.5509C27.8101 10.4874 27.4086 10.3874 27.1497 10.3418C27.0258 10.32 26.8322 10.2751 26.7196 10.242C26.6069 10.209 26.3305 10.1658 26.1052 10.146C25.8799 10.1263 25.631 10.0892 25.5522 10.0638C25.3783 10.0076 23.1802 9.97573 22.7202 10.0228ZM37.9779 23.0887C37.9779 23.2766 37.9849 23.3535 37.9935 23.2595C38.0021 23.1656 38.0021 23.0118 37.9935 22.9179C37.9849 22.8239 37.9779 22.9008 37.9779 23.0887ZM37.9776 24.3951C37.9778 24.5719 37.9849 24.6393 37.9935 24.5447C38.0022 24.4502 38.0021 24.3055 37.9933 24.2231C37.9845 24.1408 37.9775 24.2182 37.9776 24.3951Z" fill="white"/>
<path fill-rule="evenodd" clip-rule="evenodd" d="M34.9825 16.0464C34.9456 16.0679 34.8156 16.2364 34.6936 16.4208C34.1744 17.2053 33.9129 17.615 33.8705 17.7101C33.8456 17.7659 33.7951 17.8367 33.7582 17.8674C33.7214 17.898 33.6912 17.9395 33.6912 17.9596C33.6912 17.9964 33.4902 18.322 33.4442 18.3598C33.4306 18.371 33.3961 18.4258 33.3675 18.4816C33.3389 18.5375 33.1766 18.7933 33.0068 19.0501C32.6201 19.6351 32.5986 19.8201 32.8545 20.3652C32.9372 20.5414 33.0521 20.8337 33.1098 21.0149C33.1675 21.1961 33.2392 21.4083 33.2691 21.4865C33.299 21.5646 33.3417 21.7338 33.364 21.8622C33.3863 21.9907 33.4218 22.1281 33.4429 22.1675C33.464 22.2069 33.494 22.3941 33.5095 22.5836C33.5251 22.773 33.5632 23.0526 33.5943 23.2047C33.6689 23.5712 33.669 24.6803 33.5943 25.047C33.5633 25.1992 33.5261 25.4608 33.5115 25.6283C33.497 25.7958 33.4594 26.0151 33.428 26.1156C33.3966 26.2161 33.3448 26.4079 33.313 26.5419C33.2236 26.9172 33.0648 27.4144 32.9626 27.6383C32.9422 27.683 32.8701 27.8494 32.8025 28.0081C32.693 28.2651 32.4631 28.7098 32.3533 28.8768C32.3313 28.9103 32.2761 29.0017 32.2307 29.0798C32.1852 29.158 32.1166 29.2693 32.0782 29.3271C32.0398 29.385 31.9607 29.504 31.9025 29.5914C31.0111 30.9314 29.2435 32.3248 27.6898 32.9123C27.5226 32.9757 27.3401 33.0505 27.2843 33.0787C27.2286 33.1068 27.1106 33.143 27.0222 33.159C26.9337 33.175 26.8151 33.2117 26.7586 33.2406C26.702 33.2697 26.5573 33.3067 26.4367 33.3231C26.3162 33.3394 26.1611 33.3759 26.0921 33.4043C26.023 33.4326 25.8022 33.469 25.6015 33.4852C25.4008 33.5014 25.118 33.5398 24.973 33.5705C24.6309 33.6429 23.6932 33.6429 23.351 33.5705C23.2061 33.5398 22.9232 33.5014 22.7225 33.4852C22.5218 33.469 22.301 33.4326 22.2319 33.4043C22.1629 33.3759 22.0078 33.3394 21.8873 33.3232C21.7667 33.3068 21.6325 33.2747 21.5889 33.2517C21.5454 33.2288 21.4268 33.1861 21.3254 33.1571C21.0256 33.0711 20.7169 32.9562 20.3542 32.7955C19.9195 32.6029 19.6287 32.6047 19.3366 32.8021C19.099 32.9626 18.5651 33.3112 18.4768 33.3635C18.4388 33.386 18.2837 33.4829 18.1322 33.5791C17.9805 33.6751 17.8212 33.7756 17.778 33.8024C17.7348 33.8291 17.4976 33.9805 17.2508 34.1386C17.0041 34.2968 16.6904 34.4944 16.5538 34.5779C15.6812 35.1103 15.7686 35.2947 17.3294 36.2124C17.6935 36.4266 18.7898 36.9373 19.2758 37.1193C19.4096 37.1694 19.5766 37.2345 19.6468 37.264C19.7171 37.2935 19.8431 37.3306 19.9268 37.3463C20.0106 37.3621 20.1261 37.3992 20.1833 37.429C20.2406 37.4587 20.37 37.495 20.4709 37.5098C20.5718 37.5245 20.7001 37.5596 20.7558 37.5879C20.8117 37.6161 20.9668 37.6529 21.1005 37.6695C21.2343 37.6861 21.4124 37.7237 21.4963 37.7533C21.5801 37.7827 21.79 37.8178 21.9626 37.8313C22.1352 37.8447 22.4042 37.8865 22.5603 37.9242C22.9782 38.0253 25.3459 38.0253 25.7637 37.9242C25.9198 37.8865 26.1888 37.8447 26.3614 37.8313C26.5341 37.8178 26.7439 37.7827 26.8277 37.7533C26.9116 37.7237 27.0897 37.6861 27.2235 37.6695C27.3572 37.6529 27.5123 37.6161 27.5682 37.5879C27.6239 37.5596 27.7522 37.5245 27.8531 37.5098C27.954 37.495 28.0835 37.4587 28.1407 37.429C28.1979 37.3992 28.3134 37.3621 28.3972 37.3463C28.481 37.3306 28.607 37.2935 28.6772 37.264C28.7475 37.2345 28.9144 37.1694 29.0482 37.1193C31.1364 36.3374 32.9527 35.0779 34.5516 33.3029C34.9233 32.8903 35.346 32.3377 35.7187 31.7772C36.1879 31.0716 36.8058 29.872 37.0768 29.1407C37.3242 28.473 37.4802 27.9938 37.5263 27.7601C37.5395 27.6931 37.5739 27.5743 37.6029 27.4962C37.6318 27.418 37.6683 27.2536 37.6841 27.1307C37.6999 27.0079 37.7366 26.8343 37.7658 26.745C37.795 26.6556 37.831 26.4364 37.8458 26.2577C37.8606 26.079 37.9009 25.8049 37.9353 25.6486C38.0124 25.2992 38.0243 23.056 37.9509 22.725C37.9261 22.6133 37.8823 22.3118 37.8534 22.055C37.8245 21.7981 37.7815 21.5514 37.7579 21.5068C37.7343 21.4621 37.7015 21.3068 37.6853 21.1616C37.6691 21.0165 37.6385 20.8648 37.6173 20.8245C37.5961 20.7843 37.5536 20.6381 37.5228 20.4996C37.4696 20.2602 37.4255 20.1164 37.2558 19.6281C36.9432 18.7285 36.6786 18.1428 36.2274 17.3509C36.0702 17.0752 35.9143 16.8006 35.8809 16.7405C35.5334 16.117 35.244 15.8935 34.9825 16.0464ZM26.007 24.7319C25.784 24.749 25.5285 24.7824 25.4393 24.806C25.3501 24.8297 25.1139 24.8612 24.9144 24.876C24.7149 24.8908 24.4959 24.9262 24.4278 24.9547C24.3597 24.9832 24.1861 25.0198 24.0421 25.0362C23.8981 25.0524 23.7248 25.089 23.6569 25.1173C23.589 25.1457 23.4605 25.1819 23.3713 25.198C23.2083 25.2272 22.8041 25.3472 22.54 25.4449C22.462 25.4737 22.2612 25.5478 22.094 25.6095C21.7736 25.7276 21.5312 25.8276 21.2627 25.9524C21.0034 26.0729 20.2708 26.4409 20.1218 26.5254C20.0468 26.568 19.917 26.6414 19.8333 26.6885C19.7497 26.7357 19.6028 26.8271 19.5069 26.8916C19.411 26.9561 19.3245 27.0089 19.3148 27.0089C19.3051 27.0089 19.1463 27.112 18.962 27.2381C18.1293 27.8076 18.0885 27.9727 18.6213 28.6129C19.544 29.7213 20.6261 30.4697 21.9425 30.91C22.138 30.9754 22.3319 31.0289 22.3735 31.0289C22.415 31.0289 22.513 31.0556 22.591 31.0883C23.0326 31.2731 25.3706 31.2882 25.7059 31.1085C25.7462 31.087 25.8942 31.0431 26.035 31.0111C28.3054 30.4944 30.3308 28.4978 31.0423 26.075C31.3189 25.1328 31.222 25.0438 29.7376 24.8762C29.4477 24.8435 29.1283 24.7984 29.028 24.7762C28.7937 24.7243 26.5384 24.6912 26.007 24.7319Z" fill="url(#paint0_linear)"/>
<defs>
<linearGradient id="paint0_linear" x1="34.3359" y1="15.0145" x2="26.7306" y2="37.4752" gradientUnits="userSpaceOnUse">
<stop stop-color="#25D98C"/>
<stop offset="1" stop-color="#0E9BE3"/>
</linearGradient>
</defs>
</svg>
