<svg xmlns="http://www.w3.org/2000/svg" viewBox="0 0 48 48"><defs><style>.cls-1{fill:#002868;}.cls-2{fill:#49c1bf;}.cls-3{fill:#077a8f;}.cls-4{fill:#298e97;}</style></defs><title>ZIL</title><g id="Layer_2" data-name="Layer 2"><g id="Layer_1-2" data-name="Layer 1"><circle class="cls-1" cx="24" cy="24" r="24"/><path id="path0_fill" data-name="path0 fill" class="cls-2" d="M36,21.05l-4.69,2.09L18.88,29.47l12.43,6V25.57L36,23.45V38.06l-4.69,2.09L13,31.38V26.72l12.68-6.21L13,14.41V9.69L17.76,7.6,36,16.38v4.67Z"/><path id="path1_fill" data-name="path1 fill" class="cls-3" d="M13,9.69l18.31,8.78L36,16.38,17.76,7.6Z"/><path id="path2_fill" data-name="path2 fill" class="cls-4" d="M31.31,18.45,36,16.36V21l-4.69,2.09V18.45Z"/><path id="path3_fill" data-name="path3 fill" class="cls-2" d="M13,9.69v4.73l12.68,6.09L13,26.73v4.66l18.31,8.76V35.46l-12.43-6,12.43-6.33V18.47Z"/><path id="path4_fill" data-name="path4 fill" class="cls-4" d="M31.31,40.11,36,38V23.42l-4.69,2.12V40.11Z"/></g></g></svg>