<svg xmlns="http://www.w3.org/2000/svg" viewBox="0 0 48 48"><defs><style>.cls-1{fill:#231815;}.cls-2{fill:#fff;}</style></defs><title>ZRX</title><g id="Layer_2" data-name="Layer 2"><g id="Layer_1-2" data-name="Layer 1"><circle class="cls-1" cx="24" cy="24" r="24"/><path class="cls-2" d="M33,29.21c1.19,1.6,2.42,3.24,3.65,4.87a16.12,16.12,0,0,1-9.19,5.55,16.45,16.45,0,0,1-11.73-1.86l9.94-7.41c.75.71,1.45,1.42,2.16,2.09s.48.78,1.49.22a10.25,10.25,0,0,0,3.42-3.16c0-.08.11-.15.15-.23s0,0,.11-.07ZM18.42,32.48c-.93.71-1.79,1.34-2.65,2-.63.49-1.26.93-1.89,1.42-.27.22-.45.22-.75,0a16.42,16.42,0,0,1-3.57-20.1c0-.07.11-.18.15-.26s0,0,.11-.07c2.46,3.24,4.95,6.47,7.41,9.71a2.21,2.21,0,0,1-.19.26c-.75.78-1.49,1.57-2.27,2.31a.48.48,0,0,0-.11.67,10.93,10.93,0,0,0,3.2,3.72l.56.37ZM32.3,9.37c-1.19.86-2.38,1.71-3.57,2.53-2.05,1.45-4.1,2.94-6.11,4.39-.26.19-.44.23-.67,0-.67-.71-1.38-1.34-2-2.05a.51.51,0,0,0-.64-.11,10.91,10.91,0,0,0-3.91,3.42c-.07.08-.14.19-.22.3-.59-.78-1.15-1.49-1.71-2.23S12.28,14,11.72,13.28c-.19-.26-.23-.45,0-.71A16.3,16.3,0,0,1,22.4,7.1,16.08,16.08,0,0,1,31.93,9l.33.18C32.26,9.3,32.26,9.33,32.3,9.37ZM38.37,31.7c-.79-1-1.49-1.93-2.2-2.86-1.64-2.16-3.28-4.36-5-6.52a.47.47,0,0,1,0-.74c.7-.71,1.37-1.42,2.08-2.12a.47.47,0,0,0,.11-.64,11,11,0,0,0-3.38-3.9,2.81,2.81,0,0,0-.38-.26c.12-.12.23-.19.3-.26,1.42-1.08,2.83-2.13,4.24-3.21.23-.18.41-.26.67,0a16.42,16.42,0,0,1,5.62,12,16.24,16.24,0,0,1-1.82,7.93A2.82,2.82,0,0,0,38.37,31.7Z"/></g></g></svg>